<?xml version="1.0" encoding="UTF-8" standalone="no"?><svg xmlns="http://www.w3.org/2000/svg" xmlns:xlink="http://www.w3.org/1999/xlink" contentScriptType="application/ecmascript" contentStyleType="text/css" height="300px" preserveAspectRatio="none" style="width:516px;height:300px;" version="1.1" viewBox="0 0 516 300" width="516px" zoomAndPan="magnify"><defs><filter height="300%" id="f1rnflag9xqlsb" width="300%" x="-1" y="-1"><feGaussianBlur result="blurOut" stdDeviation="2.0"/><feColorMatrix in="blurOut" result="blurOut2" type="matrix" values="0 0 0 0 0 0 0 0 0 0 0 0 0 0 0 0 0 0 .4 0"/><feOffset dx="4.0" dy="4.0" in="blurOut2" result="blurOut3"/><feBlend in="SourceGraphic" in2="blurOut3" mode="normal"/></filter></defs><g><!--class soen6441riskgame.utils.ConsolePrinter--><a target="_parent" xlink:actuate="onRequest" xlink:href="../../soen6441riskgame/utils/ConsolePrinter.html" xlink:show="new" xlink:title="soen6441riskgame.utils.ConsolePrinter" xlink:type="simple"><rect fill="#FEFECE" filter="url(#f1rnflag9xqlsb)" height="180.7109" id="soen6441riskgame.utils.ConsolePrinter" style="stroke: #A80036; stroke-width: 1.5;" width="499" x="6" y="8"/><ellipse cx="196.75" cy="28.0938" fill="#ADD1B2" rx="11" ry="11" style="stroke: #A80036; stroke-width: 1.0;"/><path d="M199.5156,23.9688 Q199.6719,23.75 199.8594,23.6406 Q200.0469,23.5313 200.2656,23.5313 Q200.6406,23.5313 200.875,23.7891 Q201.1094,24.0469 201.1094,24.6563 L201.1094,26.1094 Q201.1094,26.7188 200.875,26.9844 Q200.6406,27.25 200.2656,27.25 Q199.9219,27.25 199.7188,27.0469 Q199.5156,26.8594 199.4063,26.3438 Q199.3594,25.9844 199.1719,25.7969 Q198.8438,25.4219 198.2344,25.2031 Q197.625,24.9844 197,24.9844 Q196.2344,24.9844 195.6016,25.3125 Q194.9688,25.6406 194.4766,26.3906 Q193.9844,27.1406 193.9844,28.1719 L193.9844,29.2656 Q193.9844,30.5 194.875,31.3203 Q195.7656,32.1406 197.3594,32.1406 Q198.2969,32.1406 198.9531,31.8906 Q199.3438,31.7344 199.7656,31.2969 Q200.0313,31.0313 200.1797,30.9531 Q200.3281,30.875 200.5313,30.875 Q200.8594,30.875 201.1172,31.1328 Q201.375,31.3906 201.375,31.7344 Q201.375,32.0781 201.0313,32.4844 Q200.5313,33.0625 199.7344,33.3906 Q198.6563,33.8438 197.3594,33.8438 Q195.8438,33.8438 194.6406,33.2188 Q193.6563,32.7188 192.9688,31.6484 Q192.2813,30.5781 192.2813,29.2969 L192.2813,28.1406 Q192.2813,26.8125 192.8984,25.6641 Q193.5156,24.5156 194.6094,23.8984 Q195.7031,23.2813 196.9375,23.2813 Q197.6719,23.2813 198.3203,23.4453 Q198.9688,23.6094 199.5156,23.9688 Z "/><text fill="#000000" font-family="sans-serif" font-size="14" font-weight="bold" lengthAdjust="spacingAndGlyphs" textLength="106" x="218.75" y="27.5332">ConsolePrinter</text><text fill="#000000" font-family="sans-serif" font-size="10" lengthAdjust="spacingAndGlyphs" textLength="109" x="217.25" y="40.9902">soen6441riskgame.utils</text><line style="stroke: #A80036; stroke-width: 1.5;" x1="7" x2="504" y1="48.1875" y2="48.1875"/><rect fill="none" height="6" style="stroke: #C82930; stroke-width: 1.0;" width="6" x="14" y="57.6055"/><text fill="#000000" font-family="sans-serif" font-size="11" lengthAdjust="spacingAndGlyphs" text-decoration="underline" textLength="93" x="26" y="63.6064">boolean isJUnitTest</text><line style="stroke: #000000; stroke-width: 1.0;" x1="26" x2="119" y1="65.6064" y2="65.6064"/><line style="stroke: #A80036; stroke-width: 1.5;" x1="7" x2="504" y1="70.0234" y2="70.0234"/><ellipse cx="17" cy="82.4414" fill="#84BE84" rx="3" ry="3" style="stroke: #038048; stroke-width: 1.0;"/><text fill="#000000" font-family="sans-serif" font-size="11" lengthAdjust="spacingAndGlyphs" textLength="78" x="26" y="85.4424">ConsolePrinter()</text><ellipse cx="17" cy="96.2773" fill="#84BE84" rx="3" ry="3" style="stroke: #038048; stroke-width: 1.0;"/><text fill="#000000" font-family="sans-serif" font-size="11" lengthAdjust="spacingAndGlyphs" text-decoration="underline" textLength="101" x="26" y="99.2783">boolean isJUnitTest()</text><line style="stroke: #000000; stroke-width: 1.0;" x1="26" x2="127" y1="101.2783" y2="101.2783"/><ellipse cx="17" cy="110.1133" fill="#84BE84" rx="3" ry="3" style="stroke: #038048; stroke-width: 1.0;"/><text fill="#000000" font-family="sans-serif" font-size="11" lengthAdjust="spacingAndGlyphs" text-decoration="underline" textLength="206" x="26" y="113.1143">void printFormat(String format,Object args)</text><line style="stroke: #000000; stroke-width: 1.0;" x1="26" x2="232" y1="115.1143" y2="115.1143"/><ellipse cx="17" cy="123.9492" fill="#84BE84" rx="3" ry="3" style="stroke: #038048; stroke-width: 1.0;"/><text fill="#000000" font-family="sans-serif" font-size="11" lengthAdjust="spacingAndGlyphs" text-decoration="underline" textLength="357" x="26" y="126.9502">void printFormat(PrintStream customPrintStream,String format,Object args)</text><line style="stroke: #000000; stroke-width: 1.0;" x1="26" x2="383" y1="128.9502" y2="128.9502"/><ellipse cx="17" cy="137.7852" fill="#84BE84" rx="3" ry="3" style="stroke: #038048; stroke-width: 1.0;"/><text fill="#000000" font-family="sans-serif" font-size="11" lengthAdjust="spacingAndGlyphs" text-decoration="underline" textLength="473" x="26" y="140.7861">void printFormat(PrintStream customPrintStream,boolean isPrintNewLine,String format,Object args)</text><line style="stroke: #000000; stroke-width: 1.0;" x1="26" x2="499" y1="142.7861" y2="142.7861"/><ellipse cx="17" cy="151.6211" fill="#84BE84" rx="3" ry="3" style="stroke: #038048; stroke-width: 1.0;"/><text fill="#000000" font-family="sans-serif" font-size="11" lengthAdjust="spacingAndGlyphs" text-decoration="underline" textLength="206" x="26" y="154.6221">void print2dArray(int array,String headers)</text><line style="stroke: #000000; stroke-width: 1.0;" x1="26" x2="232" y1="156.6221" y2="156.6221"/><ellipse cx="17" cy="165.457" fill="#84BE84" rx="3" ry="3" style="stroke: #038048; stroke-width: 1.0;"/><text fill="#000000" font-family="sans-serif" font-size="11" lengthAdjust="spacingAndGlyphs" text-decoration="underline" textLength="307" x="26" y="168.458">WindowPane createWindowPane(String title,int width,int height)</text><line style="stroke: #000000; stroke-width: 1.0;" x1="26" x2="333" y1="170.458" y2="170.458"/><rect fill="#F24D5C" height="6" style="stroke: #C82930; stroke-width: 1.0;" width="6" x="14" y="176.293"/><text fill="#000000" font-family="sans-serif" font-size="11" lengthAdjust="spacingAndGlyphs" text-decoration="underline" textLength="90" x="26" y="182.2939">void setJUnitTest()</text><line style="stroke: #000000; stroke-width: 1.0;" x1="26" x2="116" y1="184.2939" y2="184.2939"/></a><!--class java.io.PrintStream--><rect fill="#D3D3D3" filter="url(#f1rnflag9xqlsb)" height="40.1875" id="java.io.PrintStream" style="stroke: #A80036; stroke-width: 1.5;" width="114" x="105.5" y="249"/><rect fill="#D3D3D3" height="40.1875" style="stroke: #A80036; stroke-width: 1.5;" width="114" x="105.5" y="249"/><ellipse cx="120.5" cy="269.0938" fill="#ADD1B2" rx="11" ry="11" style="stroke: #A80036; stroke-width: 1.0;"/><path d="M123.2656,264.9688 Q123.4219,264.75 123.6094,264.6406 Q123.7969,264.5313 124.0156,264.5313 Q124.3906,264.5313 124.625,264.7891 Q124.8594,265.0469 124.8594,265.6563 L124.8594,267.1094 Q124.8594,267.7188 124.625,267.9844 Q124.3906,268.25 124.0156,268.25 Q123.6719,268.25 123.4688,268.0469 Q123.2656,267.8594 123.1563,267.3438 Q123.1094,266.9844 122.9219,266.7969 Q122.5938,266.4219 121.9844,266.2031 Q121.375,265.9844 120.75,265.9844 Q119.9844,265.9844 119.3516,266.3125 Q118.7188,266.6406 118.2266,267.3906 Q117.7344,268.1406 117.7344,269.1719 L117.7344,270.2656 Q117.7344,271.5 118.625,272.3203 Q119.5156,273.1406 121.1094,273.1406 Q122.0469,273.1406 122.7031,272.8906 Q123.0938,272.7344 123.5156,272.2969 Q123.7813,272.0313 123.9297,271.9531 Q124.0781,271.875 124.2813,271.875 Q124.6094,271.875 124.8672,272.1328 Q125.125,272.3906 125.125,272.7344 Q125.125,273.0781 124.7813,273.4844 Q124.2813,274.0625 123.4844,274.3906 Q122.4063,274.8438 121.1094,274.8438 Q119.5938,274.8438 118.3906,274.2188 Q117.4063,273.7188 116.7188,272.6484 Q116.0313,271.5781 116.0313,270.2969 L116.0313,269.1406 Q116.0313,267.8125 116.6484,266.6641 Q117.2656,265.5156 118.3594,264.8984 Q119.4531,264.2813 120.6875,264.2813 Q121.4219,264.2813 122.0703,264.4453 Q122.7188,264.6094 123.2656,264.9688 Z "/><text fill="#000000" font-family="sans-serif" font-size="14" font-weight="bold" lengthAdjust="spacingAndGlyphs" textLength="82" x="134.5" y="268.5332">PrintStream</text><text fill="#000000" font-family="sans-serif" font-size="10" lengthAdjust="spacingAndGlyphs" textLength="32" x="159.5" y="281.9902">java.io</text><!--class soen6441riskgame.utils.presenter.WindowPane--><a target="_parent" xlink:actuate="onRequest" xlink:href="../../soen6441riskgame/utils/presenter/WindowPane.html" xlink:show="new" xlink:title="soen6441riskgame.utils.presenter.WindowPane" xlink:type="simple"><rect fill="#FFFFFF" filter="url(#f1rnflag9xqlsb)" height="40.1875" id="soen6441riskgame.utils.presenter.WindowPane" style="stroke: #A80036; stroke-width: 1.5;" width="187" x="255" y="249"/><rect fill="#FFFFFF" height="40.1875" style="stroke: #A80036; stroke-width: 1.5;" width="187" x="255" y="249"/><ellipse cx="270" cy="269.0938" fill="#ADD1B2" rx="11" ry="11" style="stroke: #A80036; stroke-width: 1.0;"/><path d="M272.7656,264.9688 Q272.9219,264.75 273.1094,264.6406 Q273.2969,264.5313 273.5156,264.5313 Q273.8906,264.5313 274.125,264.7891 Q274.3594,265.0469 274.3594,265.6563 L274.3594,267.1094 Q274.3594,267.7188 274.125,267.9844 Q273.8906,268.25 273.5156,268.25 Q273.1719,268.25 272.9688,268.0469 Q272.7656,267.8594 272.6563,267.3438 Q272.6094,266.9844 272.4219,266.7969 Q272.0938,266.4219 271.4844,266.2031 Q270.875,265.9844 270.25,265.9844 Q269.4844,265.9844 268.8516,266.3125 Q268.2188,266.6406 267.7266,267.3906 Q267.2344,268.1406 267.2344,269.1719 L267.2344,270.2656 Q267.2344,271.5 268.125,272.3203 Q269.0156,273.1406 270.6094,273.1406 Q271.5469,273.1406 272.2031,272.8906 Q272.5938,272.7344 273.0156,272.2969 Q273.2813,272.0313 273.4297,271.9531 Q273.5781,271.875 273.7813,271.875 Q274.1094,271.875 274.3672,272.1328 Q274.625,272.3906 274.625,272.7344 Q274.625,273.0781 274.2813,273.4844 Q273.7813,274.0625 272.9844,274.3906 Q271.9063,274.8438 270.6094,274.8438 Q269.0938,274.8438 267.8906,274.2188 Q266.9063,273.7188 266.2188,272.6484 Q265.5313,271.5781 265.5313,270.2969 L265.5313,269.1406 Q265.5313,267.8125 266.1484,266.6641 Q266.7656,265.5156 267.8594,264.8984 Q268.9531,264.2813 270.1875,264.2813 Q270.9219,264.2813 271.5703,264.4453 Q272.2188,264.6094 272.7656,264.9688 Z "/><text fill="#000000" font-family="sans-serif" font-size="14" font-weight="bold" lengthAdjust="spacingAndGlyphs" textLength="90" x="316.5" y="268.5332">WindowPane</text><text fill="#000000" font-family="sans-serif" font-size="10" lengthAdjust="spacingAndGlyphs" textLength="155" x="284" y="281.9902">soen6441riskgame.utils.presenter</text></a><!--link soen6441riskgame.utils.ConsolePrinter to java.io.PrintStream--><path d="M162.5,189.2412 C162.5,189.2412 162.5,243.7521 162.5,243.7521 " fill="none" id="soen6441riskgame.utils.ConsolePrinter-java.io.PrintStream" style="stroke: #A80036; stroke-width: 1.0; stroke-dasharray: 7.0,7.0;"/><polygon fill="#A80036" points="162.5,248.7521,166.5,239.7521,162.5,243.7521,158.5,239.7521,162.5,248.7521" style="stroke: #A80036; stroke-width: 1.0;"/><!--link soen6441riskgame.utils.ConsolePrinter to soen6441riskgame.utils.presenter.WindowPane--><path d="M348.5,189.2412 C348.5,189.2412 348.5,243.7521 348.5,243.7521 " fill="none" id="soen6441riskgame.utils.ConsolePrinter-soen6441riskgame.utils.presenter.WindowPane" style="stroke: #A80036; stroke-width: 1.0; stroke-dasharray: 7.0,7.0;"/><polygon fill="#A80036" points="348.5,248.7521,352.5,239.7521,348.5,243.7521,344.5,239.7521,348.5,248.7521" style="stroke: #A80036; stroke-width: 1.0;"/><!--
@startuml

skinparam svgLinkTarget _parent
skinparam linetype ortho
set namespaceSeparator none
class "<b><size:14>ConsolePrinter</b>\n<size:10>soen6441riskgame.utils" as soen6441riskgame.utils.ConsolePrinter  [[../../soen6441riskgame/utils/ConsolePrinter.html{soen6441riskgame.utils.ConsolePrinter}]] {
{static} -boolean isJUnitTest
+ConsolePrinter()
{static} +boolean isJUnitTest()
{static} +void printFormat(String format,Object args)
{static} +void printFormat(PrintStream customPrintStream,String format,Object args)
{static} +void printFormat(PrintStream customPrintStream,boolean isPrintNewLine,String format,Object args)
{static} +void print2dArray(int array,String headers)
{static} +WindowPane createWindowPane(String title,int width,int height)
{static} -void setJUnitTest()
}


class "<b><size:14>PrintStream</b>\n<size:10>java.io" as java.io.PrintStream  #lightgrey {
}

hide java.io.PrintStream fields
hide java.io.PrintStream methods

soen6441riskgame.utils.ConsolePrinter ..> java.io.PrintStream

class "<b><size:14>WindowPane</b>\n<size:10>soen6441riskgame.utils.presenter" as soen6441riskgame.utils.presenter.WindowPane  [[../../soen6441riskgame/utils/presenter/WindowPane.html{soen6441riskgame.utils.presenter.WindowPane}]] #white {
}

hide soen6441riskgame.utils.presenter.WindowPane fields
hide soen6441riskgame.utils.presenter.WindowPane methods

soen6441riskgame.utils.ConsolePrinter ..> soen6441riskgame.utils.presenter.WindowPane


@enduml

PlantUML version 1.2017.15(Mon Jul 03 12:45:34 EDT 2017)
(GPL source distribution)
Java Runtime: Java(TM) SE Runtime Environment
JVM: Java HotSpot(TM) 64-Bit Server VM
Java Version: 1.8.0_231-b11
Operating System: Windows 10
OS Version: 10.0
Default Encoding: Cp1252
Language: en
Country: US
--></g></svg>