<?xml version="1.0" encoding="UTF-8" standalone="no"?><svg xmlns="http://www.w3.org/2000/svg" xmlns:xlink="http://www.w3.org/1999/xlink" contentScriptType="application/ecmascript" contentStyleType="text/css" height="116px" preserveAspectRatio="none" style="width:265px;height:116px;" version="1.1" viewBox="0 0 265 116" width="265px" zoomAndPan="magnify"><defs><filter height="300%" id="fzhjsvvwe1icu" width="300%" x="-1" y="-1"><feGaussianBlur result="blurOut" stdDeviation="2.0"/><feColorMatrix in="blurOut" result="blurOut2" type="matrix" values="0 0 0 0 0 0 0 0 0 0 0 0 0 0 0 0 0 0 .4 0"/><feOffset dx="4.0" dy="4.0" in="blurOut2" result="blurOut3"/><feBlend in="SourceGraphic" in2="blurOut3" mode="normal"/></filter></defs><g><!--class soen6441riskgame.utils.GameHelper--><a target="_parent" xlink:actuate="onRequest" xlink:href="../../soen6441riskgame/utils/GameHelper.html" xlink:show="new" xlink:title="soen6441riskgame.utils.GameHelper" xlink:type="simple"><rect fill="#FEFECE" filter="url(#fzhjsvvwe1icu)" height="97.6953" id="soen6441riskgame.utils.GameHelper" style="stroke: #A80036; stroke-width: 1.5;" width="248" x="6" y="8"/><ellipse cx="71.25" cy="28.0938" fill="#ADD1B2" rx="11" ry="11" style="stroke: #A80036; stroke-width: 1.0;"/><path d="M74.0156,23.9688 Q74.1719,23.75 74.3594,23.6406 Q74.5469,23.5313 74.7656,23.5313 Q75.1406,23.5313 75.375,23.7891 Q75.6094,24.0469 75.6094,24.6563 L75.6094,26.1094 Q75.6094,26.7188 75.375,26.9844 Q75.1406,27.25 74.7656,27.25 Q74.4219,27.25 74.2188,27.0469 Q74.0156,26.8594 73.9063,26.3438 Q73.8594,25.9844 73.6719,25.7969 Q73.3438,25.4219 72.7344,25.2031 Q72.125,24.9844 71.5,24.9844 Q70.7344,24.9844 70.1016,25.3125 Q69.4688,25.6406 68.9766,26.3906 Q68.4844,27.1406 68.4844,28.1719 L68.4844,29.2656 Q68.4844,30.5 69.375,31.3203 Q70.2656,32.1406 71.8594,32.1406 Q72.7969,32.1406 73.4531,31.8906 Q73.8438,31.7344 74.2656,31.2969 Q74.5313,31.0313 74.6797,30.9531 Q74.8281,30.875 75.0313,30.875 Q75.3594,30.875 75.6172,31.1328 Q75.875,31.3906 75.875,31.7344 Q75.875,32.0781 75.5313,32.4844 Q75.0313,33.0625 74.2344,33.3906 Q73.1563,33.8438 71.8594,33.8438 Q70.3438,33.8438 69.1406,33.2188 Q68.1563,32.7188 67.4688,31.6484 Q66.7813,30.5781 66.7813,29.2969 L66.7813,28.1406 Q66.7813,26.8125 67.3984,25.6641 Q68.0156,24.5156 69.1094,23.8984 Q70.2031,23.2813 71.4375,23.2813 Q72.1719,23.2813 72.8203,23.4453 Q73.4688,23.6094 74.0156,23.9688 Z "/><text fill="#000000" font-family="sans-serif" font-size="14" font-weight="bold" lengthAdjust="spacingAndGlyphs" textLength="87" x="102.75" y="27.5332">GameHelper</text><text fill="#000000" font-family="sans-serif" font-size="10" lengthAdjust="spacingAndGlyphs" textLength="109" x="91.75" y="40.9902">soen6441riskgame.utils</text><line style="stroke: #A80036; stroke-width: 1.5;" x1="7" x2="253" y1="48.1875" y2="48.1875"/><line style="stroke: #A80036; stroke-width: 1.5;" x1="7" x2="253" y1="56.1875" y2="56.1875"/><ellipse cx="17" cy="68.6055" fill="#84BE84" rx="3" ry="3" style="stroke: #038048; stroke-width: 1.0;"/><text fill="#000000" font-family="sans-serif" font-size="11" lengthAdjust="spacingAndGlyphs" textLength="67" x="26" y="71.6064">GameHelper()</text><ellipse cx="17" cy="82.4414" fill="#84BE84" rx="3" ry="3" style="stroke: #038048; stroke-width: 1.0;"/><text fill="#000000" font-family="sans-serif" font-size="11" lengthAdjust="spacingAndGlyphs" text-decoration="underline" textLength="57" x="26" y="85.4424">int rollDice()</text><line style="stroke: #000000; stroke-width: 1.0;" x1="26" x2="83" y1="87.4424" y2="87.4424"/><ellipse cx="17" cy="96.2773" fill="#84BE84" rx="3" ry="3" style="stroke: #038048; stroke-width: 1.0;"/><text fill="#000000" font-family="sans-serif" font-size="11" lengthAdjust="spacingAndGlyphs" text-decoration="underline" textLength="222" x="26" y="99.2783">int getMax(int inputArray,boolean secondMax)</text><line style="stroke: #000000; stroke-width: 1.0;" x1="26" x2="248" y1="101.2783" y2="101.2783"/></a><!--
@startuml

skinparam svgLinkTarget _parent
skinparam linetype ortho
set namespaceSeparator none
class "<b><size:14>GameHelper</b>\n<size:10>soen6441riskgame.utils" as soen6441riskgame.utils.GameHelper  [[../../soen6441riskgame/utils/GameHelper.html{soen6441riskgame.utils.GameHelper}]] {
+GameHelper()
{static} +int rollDice()
{static} +int getMax(int inputArray,boolean secondMax)
}



@enduml

PlantUML version 1.2017.15(Mon Jul 03 12:45:34 EDT 2017)
(GPL source distribution)
Java Runtime: Java(TM) SE Runtime Environment
JVM: Java HotSpot(TM) 64-Bit Server VM
Java Version: 1.8.0_231-b11
Operating System: Windows 10
OS Version: 10.0
Default Encoding: Cp1252
Language: en
Country: US
--></g></svg>