<?xml version="1.0" encoding="UTF-8" standalone="no"?><svg xmlns="http://www.w3.org/2000/svg" xmlns:xlink="http://www.w3.org/1999/xlink" contentScriptType="application/ecmascript" contentStyleType="text/css" height="244px" preserveAspectRatio="none" style="width:410px;height:244px;" version="1.1" viewBox="0 0 410 244" width="410px" zoomAndPan="magnify"><defs><filter height="300%" id="f84xcvp2irwy9" width="300%" x="-1" y="-1"><feGaussianBlur result="blurOut" stdDeviation="2.0"/><feColorMatrix in="blurOut" result="blurOut2" type="matrix" values="0 0 0 0 0 0 0 0 0 0 0 0 0 0 0 0 0 0 .4 0"/><feOffset dx="4.0" dy="4.0" in="blurOut2" result="blurOut3"/><feBlend in="SourceGraphic" in2="blurOut3" mode="normal"/></filter></defs><g><!--class soen6441riskgame.utils.GameHelper--><a target="_parent" xlink:actuate="onRequest" xlink:href="../../soen6441riskgame/utils/GameHelper.html" xlink:show="new" xlink:title="soen6441riskgame.utils.GameHelper" xlink:type="simple"><rect fill="#FEFECE" filter="url(#f84xcvp2irwy9)" height="125.3672" id="soen6441riskgame.utils.GameHelper" style="stroke: #A80036; stroke-width: 1.5;" width="393" x="6" y="8"/><ellipse cx="143.75" cy="28.0938" fill="#ADD1B2" rx="11" ry="11" style="stroke: #A80036; stroke-width: 1.0;"/><path d="M146.5156,23.9688 Q146.6719,23.75 146.8594,23.6406 Q147.0469,23.5313 147.2656,23.5313 Q147.6406,23.5313 147.875,23.7891 Q148.1094,24.0469 148.1094,24.6563 L148.1094,26.1094 Q148.1094,26.7188 147.875,26.9844 Q147.6406,27.25 147.2656,27.25 Q146.9219,27.25 146.7188,27.0469 Q146.5156,26.8594 146.4063,26.3438 Q146.3594,25.9844 146.1719,25.7969 Q145.8438,25.4219 145.2344,25.2031 Q144.625,24.9844 144,24.9844 Q143.2344,24.9844 142.6016,25.3125 Q141.9688,25.6406 141.4766,26.3906 Q140.9844,27.1406 140.9844,28.1719 L140.9844,29.2656 Q140.9844,30.5 141.875,31.3203 Q142.7656,32.1406 144.3594,32.1406 Q145.2969,32.1406 145.9531,31.8906 Q146.3438,31.7344 146.7656,31.2969 Q147.0313,31.0313 147.1797,30.9531 Q147.3281,30.875 147.5313,30.875 Q147.8594,30.875 148.1172,31.1328 Q148.375,31.3906 148.375,31.7344 Q148.375,32.0781 148.0313,32.4844 Q147.5313,33.0625 146.7344,33.3906 Q145.6563,33.8438 144.3594,33.8438 Q142.8438,33.8438 141.6406,33.2188 Q140.6563,32.7188 139.9688,31.6484 Q139.2813,30.5781 139.2813,29.2969 L139.2813,28.1406 Q139.2813,26.8125 139.8984,25.6641 Q140.5156,24.5156 141.6094,23.8984 Q142.7031,23.2813 143.9375,23.2813 Q144.6719,23.2813 145.3203,23.4453 Q145.9688,23.6094 146.5156,23.9688 Z "/><text fill="#000000" font-family="sans-serif" font-size="14" font-weight="bold" lengthAdjust="spacingAndGlyphs" textLength="87" x="175.25" y="27.5332">GameHelper</text><text fill="#000000" font-family="sans-serif" font-size="10" lengthAdjust="spacingAndGlyphs" textLength="109" x="164.25" y="40.9902">soen6441riskgame.utils</text><line style="stroke: #A80036; stroke-width: 1.5;" x1="7" x2="398" y1="48.1875" y2="48.1875"/><line style="stroke: #A80036; stroke-width: 1.5;" x1="7" x2="398" y1="56.1875" y2="56.1875"/><ellipse cx="17" cy="68.6055" fill="#84BE84" rx="3" ry="3" style="stroke: #038048; stroke-width: 1.0;"/><text fill="#000000" font-family="sans-serif" font-size="11" lengthAdjust="spacingAndGlyphs" textLength="67" x="26" y="71.6064">GameHelper()</text><ellipse cx="17" cy="82.4414" fill="#84BE84" rx="3" ry="3" style="stroke: #038048; stroke-width: 1.0;"/><text fill="#000000" font-family="sans-serif" font-size="11" lengthAdjust="spacingAndGlyphs" text-decoration="underline" textLength="57" x="26" y="85.4424">int rollDice()</text><line style="stroke: #000000; stroke-width: 1.0;" x1="26" x2="83" y1="87.4424" y2="87.4424"/><ellipse cx="17" cy="96.2773" fill="#84BE84" rx="3" ry="3" style="stroke: #038048; stroke-width: 1.0;"/><text fill="#000000" font-family="sans-serif" font-size="11" lengthAdjust="spacingAndGlyphs" text-decoration="underline" textLength="222" x="26" y="99.2783">int getMax(int inputArray,boolean secondMax)</text><line style="stroke: #000000; stroke-width: 1.0;" x1="26" x2="248" y1="101.2783" y2="101.2783"/><ellipse cx="17" cy="110.1133" fill="#84BE84" rx="3" ry="3" style="stroke: #038048; stroke-width: 1.0;"/><text fill="#000000" font-family="sans-serif" font-size="11" lengthAdjust="spacingAndGlyphs" text-decoration="underline" textLength="211" x="26" y="113.1143">int randomNumberGenerator(int min,int max)</text><line style="stroke: #000000; stroke-width: 1.0;" x1="26" x2="237" y1="115.1143" y2="115.1143"/><ellipse cx="17" cy="123.9492" fill="#84BE84" rx="3" ry="3" style="stroke: #038048; stroke-width: 1.0;"/><text fill="#000000" font-family="sans-serif" font-size="11" lengthAdjust="spacingAndGlyphs" text-decoration="underline" textLength="367" x="26" y="126.9502">ArrayList&lt;Country&gt; filterAttackableCountries(ArrayList&lt;Country&gt; countries)</text><line style="stroke: #000000; stroke-width: 1.0;" x1="26" x2="393" y1="128.9502" y2="128.9502"/></a><!--class soen6441riskgame.models.Country--><a target="_parent" xlink:actuate="onRequest" xlink:href="../../soen6441riskgame/models/Country.html" xlink:show="new" xlink:title="soen6441riskgame.models.Country" xlink:type="simple"><rect fill="#FFFFFF" filter="url(#f84xcvp2irwy9)" height="40.1875" id="soen6441riskgame.models.Country" style="stroke: #A80036; stroke-width: 1.5;" width="156" x="124.5" y="193"/><rect fill="#FFFFFF" height="40.1875" style="stroke: #A80036; stroke-width: 1.5;" width="156" x="124.5" y="193"/><ellipse cx="139.5" cy="213.0938" fill="#ADD1B2" rx="11" ry="11" style="stroke: #A80036; stroke-width: 1.0;"/><path d="M142.2656,208.9688 Q142.4219,208.75 142.6094,208.6406 Q142.7969,208.5313 143.0156,208.5313 Q143.3906,208.5313 143.625,208.7891 Q143.8594,209.0469 143.8594,209.6563 L143.8594,211.1094 Q143.8594,211.7188 143.625,211.9844 Q143.3906,212.25 143.0156,212.25 Q142.6719,212.25 142.4688,212.0469 Q142.2656,211.8594 142.1563,211.3438 Q142.1094,210.9844 141.9219,210.7969 Q141.5938,210.4219 140.9844,210.2031 Q140.375,209.9844 139.75,209.9844 Q138.9844,209.9844 138.3516,210.3125 Q137.7188,210.6406 137.2266,211.3906 Q136.7344,212.1406 136.7344,213.1719 L136.7344,214.2656 Q136.7344,215.5 137.625,216.3203 Q138.5156,217.1406 140.1094,217.1406 Q141.0469,217.1406 141.7031,216.8906 Q142.0938,216.7344 142.5156,216.2969 Q142.7813,216.0313 142.9297,215.9531 Q143.0781,215.875 143.2813,215.875 Q143.6094,215.875 143.8672,216.1328 Q144.125,216.3906 144.125,216.7344 Q144.125,217.0781 143.7813,217.4844 Q143.2813,218.0625 142.4844,218.3906 Q141.4063,218.8438 140.1094,218.8438 Q138.5938,218.8438 137.3906,218.2188 Q136.4063,217.7188 135.7188,216.6484 Q135.0313,215.5781 135.0313,214.2969 L135.0313,213.1406 Q135.0313,211.8125 135.6484,210.6641 Q136.2656,209.5156 137.3594,208.8984 Q138.4531,208.2813 139.6875,208.2813 Q140.4219,208.2813 141.0703,208.4453 Q141.7188,208.6094 142.2656,208.9688 Z "/><text fill="#000000" font-family="sans-serif" font-size="14" font-weight="bold" lengthAdjust="spacingAndGlyphs" textLength="55" x="188" y="212.5332">Country</text><text fill="#000000" font-family="sans-serif" font-size="10" lengthAdjust="spacingAndGlyphs" textLength="124" x="153.5" y="225.9902">soen6441riskgame.models</text></a><!--link soen6441riskgame.utils.GameHelper to soen6441riskgame.models.Country--><path d="M202.5,133.0026 C202.5,133.0026 202.5,187.8289 202.5,187.8289 " fill="none" id="soen6441riskgame.utils.GameHelper-soen6441riskgame.models.Country" style="stroke: #A80036; stroke-width: 1.0; stroke-dasharray: 7.0,7.0;"/><polygon fill="#A80036" points="202.5,192.8289,206.5,183.8289,202.5,187.8289,198.5,183.8289,202.5,192.8289" style="stroke: #A80036; stroke-width: 1.0;"/><!--
@startuml

skinparam svgLinkTarget _parent
skinparam linetype ortho
set namespaceSeparator none
class "<b><size:14>GameHelper</b>\n<size:10>soen6441riskgame.utils" as soen6441riskgame.utils.GameHelper  [[../../soen6441riskgame/utils/GameHelper.html{soen6441riskgame.utils.GameHelper}]] {
+GameHelper()
{static} +int rollDice()
{static} +int getMax(int inputArray,boolean secondMax)
{static} +int randomNumberGenerator(int min,int max)
{static} +ArrayList<Country> filterAttackableCountries(ArrayList<Country> countries)
}



class "<b><size:14>Country</b>\n<size:10>soen6441riskgame.models" as soen6441riskgame.models.Country  [[../../soen6441riskgame/models/Country.html{soen6441riskgame.models.Country}]] #white {
}

hide soen6441riskgame.models.Country fields
hide soen6441riskgame.models.Country methods

soen6441riskgame.utils.GameHelper ..> soen6441riskgame.models.Country


@enduml

PlantUML version 1.2017.15(Mon Jul 03 12:45:34 EDT 2017)
(GPL source distribution)
Java Runtime: Java(TM) SE Runtime Environment
JVM: Java HotSpot(TM) 64-Bit Server VM
Java Version: 1.8.0_231-b11
Operating System: Windows 10
OS Version: 10.0
Default Encoding: Cp1252
Language: en
Country: US
--></g></svg>