<?xml version="1.0" encoding="UTF-8" standalone="no"?><svg xmlns="http://www.w3.org/2000/svg" xmlns:xlink="http://www.w3.org/1999/xlink" contentScriptType="application/ecmascript" contentStyleType="text/css" height="286px" preserveAspectRatio="none" style="width:409px;height:286px;" version="1.1" viewBox="0 0 409 286" width="409px" zoomAndPan="magnify"><defs><filter height="300%" id="f1dmt3mg49k2mt" width="300%" x="-1" y="-1"><feGaussianBlur result="blurOut" stdDeviation="2.0"/><feColorMatrix in="blurOut" result="blurOut2" type="matrix" values="0 0 0 0 0 0 0 0 0 0 0 0 0 0 0 0 0 0 .4 0"/><feOffset dx="4.0" dy="4.0" in="blurOut2" result="blurOut3"/><feBlend in="SourceGraphic" in2="blurOut3" mode="normal"/></filter></defs><g><!--class soen6441riskgame.utils.GameHelper--><a target="_parent" xlink:actuate="onRequest" xlink:href="../../soen6441riskgame/utils/GameHelper.html" xlink:show="new" xlink:title="soen6441riskgame.utils.GameHelper" xlink:type="simple"><rect fill="#FEFECE" filter="url(#f1dmt3mg49k2mt)" height="166.875" id="soen6441riskgame.utils.GameHelper" style="stroke: #A80036; stroke-width: 1.5;" width="392" x="6" y="8"/><ellipse cx="143.25" cy="28.0938" fill="#ADD1B2" rx="11" ry="11" style="stroke: #A80036; stroke-width: 1.0;"/><path d="M146.0156,23.9688 Q146.1719,23.75 146.3594,23.6406 Q146.5469,23.5313 146.7656,23.5313 Q147.1406,23.5313 147.375,23.7891 Q147.6094,24.0469 147.6094,24.6563 L147.6094,26.1094 Q147.6094,26.7188 147.375,26.9844 Q147.1406,27.25 146.7656,27.25 Q146.4219,27.25 146.2188,27.0469 Q146.0156,26.8594 145.9063,26.3438 Q145.8594,25.9844 145.6719,25.7969 Q145.3438,25.4219 144.7344,25.2031 Q144.125,24.9844 143.5,24.9844 Q142.7344,24.9844 142.1016,25.3125 Q141.4688,25.6406 140.9766,26.3906 Q140.4844,27.1406 140.4844,28.1719 L140.4844,29.2656 Q140.4844,30.5 141.375,31.3203 Q142.2656,32.1406 143.8594,32.1406 Q144.7969,32.1406 145.4531,31.8906 Q145.8438,31.7344 146.2656,31.2969 Q146.5313,31.0313 146.6797,30.9531 Q146.8281,30.875 147.0313,30.875 Q147.3594,30.875 147.6172,31.1328 Q147.875,31.3906 147.875,31.7344 Q147.875,32.0781 147.5313,32.4844 Q147.0313,33.0625 146.2344,33.3906 Q145.1563,33.8438 143.8594,33.8438 Q142.3438,33.8438 141.1406,33.2188 Q140.1563,32.7188 139.4688,31.6484 Q138.7813,30.5781 138.7813,29.2969 L138.7813,28.1406 Q138.7813,26.8125 139.3984,25.6641 Q140.0156,24.5156 141.1094,23.8984 Q142.2031,23.2813 143.4375,23.2813 Q144.1719,23.2813 144.8203,23.4453 Q145.4688,23.6094 146.0156,23.9688 Z "/><text fill="#000000" font-family="sans-serif" font-size="14" font-weight="bold" lengthAdjust="spacingAndGlyphs" textLength="87" x="174.75" y="27.5332">GameHelper</text><text fill="#000000" font-family="sans-serif" font-size="10" lengthAdjust="spacingAndGlyphs" textLength="109" x="163.75" y="40.9902">soen6441riskgame.utils</text><line style="stroke: #A80036; stroke-width: 1.5;" x1="7" x2="397" y1="48.1875" y2="48.1875"/><line style="stroke: #A80036; stroke-width: 1.5;" x1="7" x2="397" y1="56.1875" y2="56.1875"/><ellipse cx="17" cy="68.6055" fill="#84BE84" rx="3" ry="3" style="stroke: #038048; stroke-width: 1.0;"/><text fill="#000000" font-family="sans-serif" font-size="11" lengthAdjust="spacingAndGlyphs" textLength="67" x="26" y="71.6064">GameHelper()</text><ellipse cx="17" cy="82.4414" fill="#84BE84" rx="3" ry="3" style="stroke: #038048; stroke-width: 1.0;"/><text fill="#000000" font-family="sans-serif" font-size="11" lengthAdjust="spacingAndGlyphs" text-decoration="underline" textLength="57" x="26" y="85.4424">int rollDice()</text><line style="stroke: #000000; stroke-width: 1.0;" x1="26" x2="83" y1="87.4424" y2="87.4424"/><ellipse cx="17" cy="96.2773" fill="#84BE84" rx="3" ry="3" style="stroke: #038048; stroke-width: 1.0;"/><text fill="#000000" font-family="sans-serif" font-size="11" lengthAdjust="spacingAndGlyphs" text-decoration="underline" textLength="222" x="26" y="99.2783">int getMax(int inputArray,boolean secondMax)</text><line style="stroke: #000000; stroke-width: 1.0;" x1="26" x2="248" y1="101.2783" y2="101.2783"/><ellipse cx="17" cy="110.1133" fill="#84BE84" rx="3" ry="3" style="stroke: #038048; stroke-width: 1.0;"/><text fill="#000000" font-family="sans-serif" font-size="11" lengthAdjust="spacingAndGlyphs" text-decoration="underline" textLength="199" x="26" y="113.1143">int nextRandomIntInRange(int min,int max)</text><line style="stroke: #000000; stroke-width: 1.0;" x1="26" x2="225" y1="115.1143" y2="115.1143"/><ellipse cx="17" cy="123.9492" fill="#84BE84" rx="3" ry="3" style="stroke: #038048; stroke-width: 1.0;"/><text fill="#000000" font-family="sans-serif" font-size="11" lengthAdjust="spacingAndGlyphs" text-decoration="underline" textLength="127" x="26" y="126.9502">int nextRandomInt(int max)</text><line style="stroke: #000000; stroke-width: 1.0;" x1="26" x2="153" y1="128.9502" y2="128.9502"/><ellipse cx="17" cy="137.7852" fill="#84BE84" rx="3" ry="3" style="stroke: #038048; stroke-width: 1.0;"/><text fill="#000000" font-family="sans-serif" font-size="11" lengthAdjust="spacingAndGlyphs" text-decoration="underline" textLength="366" x="26" y="140.7861">ArrayList&lt;Integer&gt; getRandomElements(ArrayList&lt;Integer&gt; list,int totalItems)</text><line style="stroke: #000000; stroke-width: 1.0;" x1="26" x2="392" y1="142.7861" y2="142.7861"/><ellipse cx="17" cy="151.6211" fill="#84BE84" rx="3" ry="3" style="stroke: #038048; stroke-width: 1.0;"/><text fill="#000000" font-family="sans-serif" font-size="11" lengthAdjust="spacingAndGlyphs" text-decoration="underline" textLength="288" x="26" y="154.6221">List&lt;K&gt; getAllKeysForValue(Map&lt;K, V&gt; maps,Object value)</text><line style="stroke: #000000; stroke-width: 1.0;" x1="26" x2="314" y1="156.6221" y2="156.6221"/><ellipse cx="17" cy="165.457" fill="#84BE84" rx="3" ry="3" style="stroke: #038048; stroke-width: 1.0;"/><text fill="#000000" font-family="sans-serif" font-size="11" lengthAdjust="spacingAndGlyphs" text-decoration="underline" textLength="144" x="26" y="168.458">int countDistinct(Object array)</text><line style="stroke: #000000; stroke-width: 1.0;" x1="26" x2="170" y1="170.458" y2="170.458"/></a><!--class java.lang.Object--><rect fill="#D3D3D3" filter="url(#f1dmt3mg49k2mt)" height="40.1875" id="java.lang.Object" style="stroke: #A80036; stroke-width: 1.5;" width="78" x="163" y="235"/><rect fill="#D3D3D3" height="40.1875" style="stroke: #A80036; stroke-width: 1.5;" width="78" x="163" y="235"/><ellipse cx="178" cy="255.0938" fill="#ADD1B2" rx="11" ry="11" style="stroke: #A80036; stroke-width: 1.0;"/><path d="M180.7656,250.9688 Q180.9219,250.75 181.1094,250.6406 Q181.2969,250.5313 181.5156,250.5313 Q181.8906,250.5313 182.125,250.7891 Q182.3594,251.0469 182.3594,251.6563 L182.3594,253.1094 Q182.3594,253.7188 182.125,253.9844 Q181.8906,254.25 181.5156,254.25 Q181.1719,254.25 180.9688,254.0469 Q180.7656,253.8594 180.6563,253.3438 Q180.6094,252.9844 180.4219,252.7969 Q180.0938,252.4219 179.4844,252.2031 Q178.875,251.9844 178.25,251.9844 Q177.4844,251.9844 176.8516,252.3125 Q176.2188,252.6406 175.7266,253.3906 Q175.2344,254.1406 175.2344,255.1719 L175.2344,256.2656 Q175.2344,257.5 176.125,258.3203 Q177.0156,259.1406 178.6094,259.1406 Q179.5469,259.1406 180.2031,258.8906 Q180.5938,258.7344 181.0156,258.2969 Q181.2813,258.0313 181.4297,257.9531 Q181.5781,257.875 181.7813,257.875 Q182.1094,257.875 182.3672,258.1328 Q182.625,258.3906 182.625,258.7344 Q182.625,259.0781 182.2813,259.4844 Q181.7813,260.0625 180.9844,260.3906 Q179.9063,260.8438 178.6094,260.8438 Q177.0938,260.8438 175.8906,260.2188 Q174.9063,259.7188 174.2188,258.6484 Q173.5313,257.5781 173.5313,256.2969 L173.5313,255.1406 Q173.5313,253.8125 174.1484,252.6641 Q174.7656,251.5156 175.8594,250.8984 Q176.9531,250.2813 178.1875,250.2813 Q178.9219,250.2813 179.5703,250.4453 Q180.2188,250.6094 180.7656,250.9688 Z "/><text fill="#000000" font-family="sans-serif" font-size="14" font-weight="bold" lengthAdjust="spacingAndGlyphs" textLength="46" x="192" y="254.5332">Object</text><text fill="#000000" font-family="sans-serif" font-size="10" lengthAdjust="spacingAndGlyphs" textLength="44" x="193" y="267.9902">java.lang</text><!--link soen6441riskgame.utils.GameHelper to java.lang.Object--><path d="M202,175.1659 C202,175.1659 202,229.88 202,229.88 " fill="none" id="soen6441riskgame.utils.GameHelper-java.lang.Object" style="stroke: #A80036; stroke-width: 1.0; stroke-dasharray: 7.0,7.0;"/><polygon fill="#A80036" points="202,234.88,206,225.88,202,229.88,198,225.88,202,234.88" style="stroke: #A80036; stroke-width: 1.0;"/><!--
@startuml

skinparam svgLinkTarget _parent
skinparam linetype ortho
set namespaceSeparator none
class "<b><size:14>GameHelper</b>\n<size:10>soen6441riskgame.utils" as soen6441riskgame.utils.GameHelper  [[../../soen6441riskgame/utils/GameHelper.html{soen6441riskgame.utils.GameHelper}]] {
+GameHelper()
{static} +int rollDice()
{static} +int getMax(int inputArray,boolean secondMax)
{static} +int nextRandomIntInRange(int min,int max)
{static} +int nextRandomInt(int max)
{static} +ArrayList<Integer> getRandomElements(ArrayList<Integer> list,int totalItems)
{static} +List<K> getAllKeysForValue(Map<K, V> maps,Object value)
{static} +int countDistinct(Object array)
}




class "<b><size:14>Object</b>\n<size:10>java.lang" as java.lang.Object  #lightgrey {
}

hide java.lang.Object fields
hide java.lang.Object methods

soen6441riskgame.utils.GameHelper ..> java.lang.Object



@enduml

PlantUML version 1.2017.15(Mon Jul 03 12:45:34 EDT 2017)
(GPL source distribution)
Java Runtime: Java(TM) SE Runtime Environment
JVM: Java HotSpot(TM) 64-Bit Server VM
Java Version: 1.8.0_231-b11
Operating System: Windows 10
OS Version: 10.0
Default Encoding: Cp1252
Language: en
Country: US
--></g></svg>