<?xml version="1.0" encoding="UTF-8" standalone="no"?><svg xmlns="http://www.w3.org/2000/svg" xmlns:xlink="http://www.w3.org/1999/xlink" contentScriptType="application/ecmascript" contentStyleType="text/css" height="258px" preserveAspectRatio="none" style="width:410px;height:258px;" version="1.1" viewBox="0 0 410 258" width="410px" zoomAndPan="magnify"><defs><filter height="300%" id="f12xn9zwku1oun" width="300%" x="-1" y="-1"><feGaussianBlur result="blurOut" stdDeviation="2.0"/><feColorMatrix in="blurOut" result="blurOut2" type="matrix" values="0 0 0 0 0 0 0 0 0 0 0 0 0 0 0 0 0 0 .4 0"/><feOffset dx="4.0" dy="4.0" in="blurOut2" result="blurOut3"/><feBlend in="SourceGraphic" in2="blurOut3" mode="normal"/></filter></defs><g><!--class soen6441riskgame.utils.GameHelper--><a target="_parent" xlink:actuate="onRequest" xlink:href="../../soen6441riskgame/utils/GameHelper.html" xlink:show="new" xlink:title="soen6441riskgame.utils.GameHelper" xlink:type="simple"><rect fill="#FEFECE" filter="url(#f12xn9zwku1oun)" height="139.2031" id="soen6441riskgame.utils.GameHelper" style="stroke: #A80036; stroke-width: 1.5;" width="393" x="6" y="8"/><ellipse cx="143.75" cy="28.0938" fill="#ADD1B2" rx="11" ry="11" style="stroke: #A80036; stroke-width: 1.0;"/><path d="M146.5156,23.9688 Q146.6719,23.75 146.8594,23.6406 Q147.0469,23.5313 147.2656,23.5313 Q147.6406,23.5313 147.875,23.7891 Q148.1094,24.0469 148.1094,24.6563 L148.1094,26.1094 Q148.1094,26.7188 147.875,26.9844 Q147.6406,27.25 147.2656,27.25 Q146.9219,27.25 146.7188,27.0469 Q146.5156,26.8594 146.4063,26.3438 Q146.3594,25.9844 146.1719,25.7969 Q145.8438,25.4219 145.2344,25.2031 Q144.625,24.9844 144,24.9844 Q143.2344,24.9844 142.6016,25.3125 Q141.9688,25.6406 141.4766,26.3906 Q140.9844,27.1406 140.9844,28.1719 L140.9844,29.2656 Q140.9844,30.5 141.875,31.3203 Q142.7656,32.1406 144.3594,32.1406 Q145.2969,32.1406 145.9531,31.8906 Q146.3438,31.7344 146.7656,31.2969 Q147.0313,31.0313 147.1797,30.9531 Q147.3281,30.875 147.5313,30.875 Q147.8594,30.875 148.1172,31.1328 Q148.375,31.3906 148.375,31.7344 Q148.375,32.0781 148.0313,32.4844 Q147.5313,33.0625 146.7344,33.3906 Q145.6563,33.8438 144.3594,33.8438 Q142.8438,33.8438 141.6406,33.2188 Q140.6563,32.7188 139.9688,31.6484 Q139.2813,30.5781 139.2813,29.2969 L139.2813,28.1406 Q139.2813,26.8125 139.8984,25.6641 Q140.5156,24.5156 141.6094,23.8984 Q142.7031,23.2813 143.9375,23.2813 Q144.6719,23.2813 145.3203,23.4453 Q145.9688,23.6094 146.5156,23.9688 Z "/><text fill="#000000" font-family="sans-serif" font-size="14" font-weight="bold" lengthAdjust="spacingAndGlyphs" textLength="87" x="175.25" y="27.5332">GameHelper</text><text fill="#000000" font-family="sans-serif" font-size="10" lengthAdjust="spacingAndGlyphs" textLength="109" x="164.25" y="40.9902">soen6441riskgame.utils</text><line style="stroke: #A80036; stroke-width: 1.5;" x1="7" x2="398" y1="48.1875" y2="48.1875"/><line style="stroke: #A80036; stroke-width: 1.5;" x1="7" x2="398" y1="56.1875" y2="56.1875"/><ellipse cx="17" cy="68.6055" fill="#84BE84" rx="3" ry="3" style="stroke: #038048; stroke-width: 1.0;"/><text fill="#000000" font-family="sans-serif" font-size="11" lengthAdjust="spacingAndGlyphs" textLength="67" x="26" y="71.6064">GameHelper()</text><ellipse cx="17" cy="82.4414" fill="#84BE84" rx="3" ry="3" style="stroke: #038048; stroke-width: 1.0;"/><text fill="#000000" font-family="sans-serif" font-size="11" lengthAdjust="spacingAndGlyphs" text-decoration="underline" textLength="57" x="26" y="85.4424">int rollDice()</text><line style="stroke: #000000; stroke-width: 1.0;" x1="26" x2="83" y1="87.4424" y2="87.4424"/><ellipse cx="17" cy="96.2773" fill="#84BE84" rx="3" ry="3" style="stroke: #038048; stroke-width: 1.0;"/><text fill="#000000" font-family="sans-serif" font-size="11" lengthAdjust="spacingAndGlyphs" text-decoration="underline" textLength="222" x="26" y="99.2783">int getMax(int inputArray,boolean secondMax)</text><line style="stroke: #000000; stroke-width: 1.0;" x1="26" x2="248" y1="101.2783" y2="101.2783"/><ellipse cx="17" cy="110.1133" fill="#84BE84" rx="3" ry="3" style="stroke: #038048; stroke-width: 1.0;"/><text fill="#000000" font-family="sans-serif" font-size="11" lengthAdjust="spacingAndGlyphs" text-decoration="underline" textLength="211" x="26" y="113.1143">int randomNumberGenerator(int min,int max)</text><line style="stroke: #000000; stroke-width: 1.0;" x1="26" x2="237" y1="115.1143" y2="115.1143"/><ellipse cx="17" cy="123.9492" fill="#84BE84" rx="3" ry="3" style="stroke: #038048; stroke-width: 1.0;"/><text fill="#000000" font-family="sans-serif" font-size="11" lengthAdjust="spacingAndGlyphs" text-decoration="underline" textLength="367" x="26" y="126.9502">ArrayList&lt;Country&gt; filterAttackableCountries(ArrayList&lt;Country&gt; countries)</text><line style="stroke: #000000; stroke-width: 1.0;" x1="26" x2="393" y1="128.9502" y2="128.9502"/><ellipse cx="17" cy="137.7852" fill="#84BE84" rx="3" ry="3" style="stroke: #038048; stroke-width: 1.0;"/><text fill="#000000" font-family="sans-serif" font-size="11" lengthAdjust="spacingAndGlyphs" text-decoration="underline" textLength="144" x="26" y="140.7861">int countDistinct(Object array)</text><line style="stroke: #000000; stroke-width: 1.0;" x1="26" x2="170" y1="142.7861" y2="142.7861"/></a><!--class soen6441riskgame.models.Country--><a target="_parent" xlink:actuate="onRequest" xlink:href="../../soen6441riskgame/models/Country.html" xlink:show="new" xlink:title="soen6441riskgame.models.Country" xlink:type="simple"><rect fill="#FFFFFF" filter="url(#f12xn9zwku1oun)" height="40.1875" id="soen6441riskgame.models.Country" style="stroke: #A80036; stroke-width: 1.5;" width="156" x="48.5" y="207"/><rect fill="#FFFFFF" height="40.1875" style="stroke: #A80036; stroke-width: 1.5;" width="156" x="48.5" y="207"/><ellipse cx="63.5" cy="227.0938" fill="#ADD1B2" rx="11" ry="11" style="stroke: #A80036; stroke-width: 1.0;"/><path d="M66.2656,222.9688 Q66.4219,222.75 66.6094,222.6406 Q66.7969,222.5313 67.0156,222.5313 Q67.3906,222.5313 67.625,222.7891 Q67.8594,223.0469 67.8594,223.6563 L67.8594,225.1094 Q67.8594,225.7188 67.625,225.9844 Q67.3906,226.25 67.0156,226.25 Q66.6719,226.25 66.4688,226.0469 Q66.2656,225.8594 66.1563,225.3438 Q66.1094,224.9844 65.9219,224.7969 Q65.5938,224.4219 64.9844,224.2031 Q64.375,223.9844 63.75,223.9844 Q62.9844,223.9844 62.3516,224.3125 Q61.7188,224.6406 61.2266,225.3906 Q60.7344,226.1406 60.7344,227.1719 L60.7344,228.2656 Q60.7344,229.5 61.625,230.3203 Q62.5156,231.1406 64.1094,231.1406 Q65.0469,231.1406 65.7031,230.8906 Q66.0938,230.7344 66.5156,230.2969 Q66.7813,230.0313 66.9297,229.9531 Q67.0781,229.875 67.2813,229.875 Q67.6094,229.875 67.8672,230.1328 Q68.125,230.3906 68.125,230.7344 Q68.125,231.0781 67.7813,231.4844 Q67.2813,232.0625 66.4844,232.3906 Q65.4063,232.8438 64.1094,232.8438 Q62.5938,232.8438 61.3906,232.2188 Q60.4063,231.7188 59.7188,230.6484 Q59.0313,229.5781 59.0313,228.2969 L59.0313,227.1406 Q59.0313,225.8125 59.6484,224.6641 Q60.2656,223.5156 61.3594,222.8984 Q62.4531,222.2813 63.6875,222.2813 Q64.4219,222.2813 65.0703,222.4453 Q65.7188,222.6094 66.2656,222.9688 Z "/><text fill="#000000" font-family="sans-serif" font-size="14" font-weight="bold" lengthAdjust="spacingAndGlyphs" textLength="55" x="112" y="226.5332">Country</text><text fill="#000000" font-family="sans-serif" font-size="10" lengthAdjust="spacingAndGlyphs" textLength="124" x="77.5" y="239.9902">soen6441riskgame.models</text></a><!--class java.lang.Object--><rect fill="#D3D3D3" filter="url(#f12xn9zwku1oun)" height="40.1875" id="java.lang.Object" style="stroke: #A80036; stroke-width: 1.5;" width="78" x="239.5" y="207"/><rect fill="#D3D3D3" height="40.1875" style="stroke: #A80036; stroke-width: 1.5;" width="78" x="239.5" y="207"/><ellipse cx="254.5" cy="227.0938" fill="#ADD1B2" rx="11" ry="11" style="stroke: #A80036; stroke-width: 1.0;"/><path d="M257.2656,222.9688 Q257.4219,222.75 257.6094,222.6406 Q257.7969,222.5313 258.0156,222.5313 Q258.3906,222.5313 258.625,222.7891 Q258.8594,223.0469 258.8594,223.6563 L258.8594,225.1094 Q258.8594,225.7188 258.625,225.9844 Q258.3906,226.25 258.0156,226.25 Q257.6719,226.25 257.4688,226.0469 Q257.2656,225.8594 257.1563,225.3438 Q257.1094,224.9844 256.9219,224.7969 Q256.5938,224.4219 255.9844,224.2031 Q255.375,223.9844 254.75,223.9844 Q253.9844,223.9844 253.3516,224.3125 Q252.7188,224.6406 252.2266,225.3906 Q251.7344,226.1406 251.7344,227.1719 L251.7344,228.2656 Q251.7344,229.5 252.625,230.3203 Q253.5156,231.1406 255.1094,231.1406 Q256.0469,231.1406 256.7031,230.8906 Q257.0938,230.7344 257.5156,230.2969 Q257.7813,230.0313 257.9297,229.9531 Q258.0781,229.875 258.2813,229.875 Q258.6094,229.875 258.8672,230.1328 Q259.125,230.3906 259.125,230.7344 Q259.125,231.0781 258.7813,231.4844 Q258.2813,232.0625 257.4844,232.3906 Q256.4063,232.8438 255.1094,232.8438 Q253.5938,232.8438 252.3906,232.2188 Q251.4063,231.7188 250.7188,230.6484 Q250.0313,229.5781 250.0313,228.2969 L250.0313,227.1406 Q250.0313,225.8125 250.6484,224.6641 Q251.2656,223.5156 252.3594,222.8984 Q253.4531,222.2813 254.6875,222.2813 Q255.4219,222.2813 256.0703,222.4453 Q256.7188,222.6094 257.2656,222.9688 Z "/><text fill="#000000" font-family="sans-serif" font-size="14" font-weight="bold" lengthAdjust="spacingAndGlyphs" textLength="46" x="268.5" y="226.5332">Object</text><text fill="#000000" font-family="sans-serif" font-size="10" lengthAdjust="spacingAndGlyphs" textLength="44" x="269.5" y="239.9902">java.lang</text><!--link soen6441riskgame.utils.GameHelper to soen6441riskgame.models.Country--><path d="M126.5,147.4351 C126.5,147.4351 126.5,201.8827 126.5,201.8827 " fill="none" id="soen6441riskgame.utils.GameHelper-soen6441riskgame.models.Country" style="stroke: #A80036; stroke-width: 1.0; stroke-dasharray: 7.0,7.0;"/><polygon fill="#A80036" points="126.5,206.8827,130.5,197.8827,126.5,201.8827,122.5,197.8827,126.5,206.8827" style="stroke: #A80036; stroke-width: 1.0;"/><!--link soen6441riskgame.utils.GameHelper to java.lang.Object--><path d="M278.5,147.4351 C278.5,147.4351 278.5,201.8827 278.5,201.8827 " fill="none" id="soen6441riskgame.utils.GameHelper-java.lang.Object" style="stroke: #A80036; stroke-width: 1.0; stroke-dasharray: 7.0,7.0;"/><polygon fill="#A80036" points="278.5,206.8827,282.5,197.8827,278.5,201.8827,274.5,197.8827,278.5,206.8827" style="stroke: #A80036; stroke-width: 1.0;"/><!--
@startuml

skinparam svgLinkTarget _parent
skinparam linetype ortho
set namespaceSeparator none
class "<b><size:14>GameHelper</b>\n<size:10>soen6441riskgame.utils" as soen6441riskgame.utils.GameHelper  [[../../soen6441riskgame/utils/GameHelper.html{soen6441riskgame.utils.GameHelper}]] {
+GameHelper()
{static} +int rollDice()
{static} +int getMax(int inputArray,boolean secondMax)
{static} +int randomNumberGenerator(int min,int max)
{static} +ArrayList<Country> filterAttackableCountries(ArrayList<Country> countries)
{static} +int countDistinct(Object array)
}



class "<b><size:14>Country</b>\n<size:10>soen6441riskgame.models" as soen6441riskgame.models.Country  [[../../soen6441riskgame/models/Country.html{soen6441riskgame.models.Country}]] #white {
}

hide soen6441riskgame.models.Country fields
hide soen6441riskgame.models.Country methods

soen6441riskgame.utils.GameHelper ..> soen6441riskgame.models.Country

class "<b><size:14>Object</b>\n<size:10>java.lang" as java.lang.Object  #lightgrey {
}

hide java.lang.Object fields
hide java.lang.Object methods

soen6441riskgame.utils.GameHelper ..> java.lang.Object


@enduml

PlantUML version 1.2017.15(Mon Jul 03 12:45:34 EDT 2017)
(GPL source distribution)
Java Runtime: Java(TM) SE Runtime Environment
JVM: Java HotSpot(TM) 64-Bit Server VM
Java Version: 1.8.0_231-b11
Operating System: Windows 10
OS Version: 10.0
Default Encoding: Cp1252
Language: en
Country: US
--></g></svg>