<?xml version="1.0" encoding="UTF-8" standalone="no"?><svg xmlns="http://www.w3.org/2000/svg" xmlns:xlink="http://www.w3.org/1999/xlink" contentScriptType="application/ecmascript" contentStyleType="text/css" height="203px" preserveAspectRatio="none" style="width:341px;height:203px;" version="1.1" viewBox="0 0 341 203" width="341px" zoomAndPan="magnify"><defs><filter height="300%" id="f1rhd12cljncg2" width="300%" x="-1" y="-1"><feGaussianBlur result="blurOut" stdDeviation="2.0"/><feColorMatrix in="blurOut" result="blurOut2" type="matrix" values="0 0 0 0 0 0 0 0 0 0 0 0 0 0 0 0 0 0 .4 0"/><feOffset dx="4.0" dy="4.0" in="blurOut2" result="blurOut3"/><feBlend in="SourceGraphic" in2="blurOut3" mode="normal"/></filter></defs><g><!--class soen6441riskgame.utils.GraphChecker--><a target="_parent" xlink:actuate="onRequest" xlink:href="../../soen6441riskgame/utils/GraphChecker.html" xlink:show="new" xlink:title="soen6441riskgame.utils.GraphChecker" xlink:type="simple"><rect fill="#FEFECE" filter="url(#f1rhd12cljncg2)" height="83.8594" id="soen6441riskgame.utils.GraphChecker" style="stroke: #A80036; stroke-width: 1.5;" width="324" x="6" y="8"/><ellipse cx="109.25" cy="28.0938" fill="#ADD1B2" rx="11" ry="11" style="stroke: #A80036; stroke-width: 1.0;"/><path d="M112.0156,23.9688 Q112.1719,23.75 112.3594,23.6406 Q112.5469,23.5313 112.7656,23.5313 Q113.1406,23.5313 113.375,23.7891 Q113.6094,24.0469 113.6094,24.6563 L113.6094,26.1094 Q113.6094,26.7188 113.375,26.9844 Q113.1406,27.25 112.7656,27.25 Q112.4219,27.25 112.2188,27.0469 Q112.0156,26.8594 111.9063,26.3438 Q111.8594,25.9844 111.6719,25.7969 Q111.3438,25.4219 110.7344,25.2031 Q110.125,24.9844 109.5,24.9844 Q108.7344,24.9844 108.1016,25.3125 Q107.4688,25.6406 106.9766,26.3906 Q106.4844,27.1406 106.4844,28.1719 L106.4844,29.2656 Q106.4844,30.5 107.375,31.3203 Q108.2656,32.1406 109.8594,32.1406 Q110.7969,32.1406 111.4531,31.8906 Q111.8438,31.7344 112.2656,31.2969 Q112.5313,31.0313 112.6797,30.9531 Q112.8281,30.875 113.0313,30.875 Q113.3594,30.875 113.6172,31.1328 Q113.875,31.3906 113.875,31.7344 Q113.875,32.0781 113.5313,32.4844 Q113.0313,33.0625 112.2344,33.3906 Q111.1563,33.8438 109.8594,33.8438 Q108.3438,33.8438 107.1406,33.2188 Q106.1563,32.7188 105.4688,31.6484 Q104.7813,30.5781 104.7813,29.2969 L104.7813,28.1406 Q104.7813,26.8125 105.3984,25.6641 Q106.0156,24.5156 107.1094,23.8984 Q108.2031,23.2813 109.4375,23.2813 Q110.1719,23.2813 110.8203,23.4453 Q111.4688,23.6094 112.0156,23.9688 Z "/><text fill="#000000" font-family="sans-serif" font-size="14" font-weight="bold" lengthAdjust="spacingAndGlyphs" textLength="102" x="133.25" y="27.5332">GraphChecker</text><text fill="#000000" font-family="sans-serif" font-size="10" lengthAdjust="spacingAndGlyphs" textLength="109" x="129.75" y="40.9902">soen6441riskgame.utils</text><line style="stroke: #A80036; stroke-width: 1.5;" x1="7" x2="329" y1="48.1875" y2="48.1875"/><line style="stroke: #A80036; stroke-width: 1.5;" x1="7" x2="329" y1="56.1875" y2="56.1875"/><ellipse cx="17" cy="68.6055" fill="#84BE84" rx="3" ry="3" style="stroke: #038048; stroke-width: 1.0;"/><text fill="#000000" font-family="sans-serif" font-size="11" lengthAdjust="spacingAndGlyphs" textLength="78" x="26" y="71.6064">GraphChecker()</text><ellipse cx="17" cy="82.4414" fill="#84BE84" rx="3" ry="3" style="stroke: #038048; stroke-width: 1.0;"/><text fill="#000000" font-family="sans-serif" font-size="11" lengthAdjust="spacingAndGlyphs" text-decoration="underline" textLength="298" x="26" y="85.4424">boolean isCountriesConnected(ArrayList&lt;Country&gt; countries)</text><line style="stroke: #000000; stroke-width: 1.0;" x1="26" x2="324" y1="87.4424" y2="87.4424"/></a><!--class soen6441riskgame.models.Country--><a target="_parent" xlink:actuate="onRequest" xlink:href="../../soen6441riskgame/models/Country.html" xlink:show="new" xlink:title="soen6441riskgame.models.Country" xlink:type="simple"><rect fill="#FFFFFF" filter="url(#f1rhd12cljncg2)" height="40.1875" id="soen6441riskgame.models.Country" style="stroke: #A80036; stroke-width: 1.5;" width="156" x="90" y="152"/><rect fill="#FFFFFF" height="40.1875" style="stroke: #A80036; stroke-width: 1.5;" width="156" x="90" y="152"/><ellipse cx="105" cy="172.0938" fill="#ADD1B2" rx="11" ry="11" style="stroke: #A80036; stroke-width: 1.0;"/><path d="M107.7656,167.9688 Q107.9219,167.75 108.1094,167.6406 Q108.2969,167.5313 108.5156,167.5313 Q108.8906,167.5313 109.125,167.7891 Q109.3594,168.0469 109.3594,168.6563 L109.3594,170.1094 Q109.3594,170.7188 109.125,170.9844 Q108.8906,171.25 108.5156,171.25 Q108.1719,171.25 107.9688,171.0469 Q107.7656,170.8594 107.6563,170.3438 Q107.6094,169.9844 107.4219,169.7969 Q107.0938,169.4219 106.4844,169.2031 Q105.875,168.9844 105.25,168.9844 Q104.4844,168.9844 103.8516,169.3125 Q103.2188,169.6406 102.7266,170.3906 Q102.2344,171.1406 102.2344,172.1719 L102.2344,173.2656 Q102.2344,174.5 103.125,175.3203 Q104.0156,176.1406 105.6094,176.1406 Q106.5469,176.1406 107.2031,175.8906 Q107.5938,175.7344 108.0156,175.2969 Q108.2813,175.0313 108.4297,174.9531 Q108.5781,174.875 108.7813,174.875 Q109.1094,174.875 109.3672,175.1328 Q109.625,175.3906 109.625,175.7344 Q109.625,176.0781 109.2813,176.4844 Q108.7813,177.0625 107.9844,177.3906 Q106.9063,177.8438 105.6094,177.8438 Q104.0938,177.8438 102.8906,177.2188 Q101.9063,176.7188 101.2188,175.6484 Q100.5313,174.5781 100.5313,173.2969 L100.5313,172.1406 Q100.5313,170.8125 101.1484,169.6641 Q101.7656,168.5156 102.8594,167.8984 Q103.9531,167.2813 105.1875,167.2813 Q105.9219,167.2813 106.5703,167.4453 Q107.2188,167.6094 107.7656,167.9688 Z "/><text fill="#000000" font-family="sans-serif" font-size="14" font-weight="bold" lengthAdjust="spacingAndGlyphs" textLength="55" x="153.5" y="171.5332">Country</text><text fill="#000000" font-family="sans-serif" font-size="10" lengthAdjust="spacingAndGlyphs" textLength="124" x="119" y="184.9902">soen6441riskgame.models</text></a><!--link soen6441riskgame.utils.GraphChecker to soen6441riskgame.models.Country--><path d="M168,92.3273 C168,92.3273 168,146.9727 168,146.9727 " fill="none" id="soen6441riskgame.utils.GraphChecker-soen6441riskgame.models.Country" style="stroke: #A80036; stroke-width: 1.0; stroke-dasharray: 7.0,7.0;"/><polygon fill="#A80036" points="168,151.9727,172,142.9727,168,146.9727,164,142.9727,168,151.9727" style="stroke: #A80036; stroke-width: 1.0;"/><!--
@startuml

skinparam svgLinkTarget _parent
skinparam linetype ortho
set namespaceSeparator none
class "<b><size:14>GraphChecker</b>\n<size:10>soen6441riskgame.utils" as soen6441riskgame.utils.GraphChecker  [[../../soen6441riskgame/utils/GraphChecker.html{soen6441riskgame.utils.GraphChecker}]] {
+GraphChecker()
{static} +boolean isCountriesConnected(ArrayList<Country> countries)
}



class "<b><size:14>Country</b>\n<size:10>soen6441riskgame.models" as soen6441riskgame.models.Country  [[../../soen6441riskgame/models/Country.html{soen6441riskgame.models.Country}]] #white {
}

hide soen6441riskgame.models.Country fields
hide soen6441riskgame.models.Country methods

soen6441riskgame.utils.GraphChecker ..> soen6441riskgame.models.Country


@enduml

PlantUML version 1.2017.15(Mon Jul 03 12:45:34 EDT 2017)
(GPL source distribution)
Java Runtime: Java(TM) SE Runtime Environment
JVM: Java HotSpot(TM) 64-Bit Server VM
Java Version: 1.8.0_231-b11
Operating System: Windows 10
OS Version: 10.0
Default Encoding: Cp1252
Language: en
Country: US
--></g></svg>