<?xml version="1.0" encoding="UTF-8" standalone="no"?><svg xmlns="http://www.w3.org/2000/svg" xmlns:xlink="http://www.w3.org/1999/xlink" contentScriptType="application/ecmascript" contentStyleType="text/css" height="212px" preserveAspectRatio="none" style="width:766px;height:212px;" version="1.1" viewBox="0 0 766 212" width="766px" zoomAndPan="magnify"><defs><filter height="300%" id="f6ikk7i6r6n9u" width="300%" x="-1" y="-1"><feGaussianBlur result="blurOut" stdDeviation="2.0"/><feColorMatrix in="blurOut" result="blurOut2" type="matrix" values="0 0 0 0 0 0 0 0 0 0 0 0 0 0 0 0 0 0 .4 0"/><feOffset dx="4.0" dy="4.0" in="blurOut2" result="blurOut3"/><feBlend in="SourceGraphic" in2="blurOut3" mode="normal"/></filter></defs><g><!--cluster soen6441riskgame.utils--><a target="_parent" xlink:actuate="onRequest" xlink:href="../../soen6441riskgame/utils/package-summary.html" xlink:show="new" xlink:title="soen6441riskgame.utils" xlink:type="simple"><polygon fill="#FFFFE0" filter="url(#f6ikk7i6r6n9u)" points="22,24,193,24,200,47.6094,347,47.6094,347,200,22,200,22,24" style="stroke: #000000; stroke-width: 2.0;"/><line style="stroke: #000000; stroke-width: 2.0;" x1="22" x2="200" y1="47.6094" y2="47.6094"/><text fill="#000000" font-family="sans-serif" font-size="14" font-weight="bold" lengthAdjust="spacingAndGlyphs" textLength="165" x="26" y="40.5332">soen6441riskgame.utils</text></a><!--cluster soen6441riskgame.utils.presenter--><a target="_parent" xlink:actuate="onRequest" xlink:href="../../soen6441riskgame/utils/presenter/package-summary.html" xlink:show="new" xlink:title="soen6441riskgame.utils.presenter" xlink:type="simple"><polygon fill="#FFFFFF" filter="url(#f6ikk7i6r6n9u)" points="371,24,616,24,623,47.6094,744,47.6094,744,108,371,108,371,24" style="stroke: #000000; stroke-width: 2.0;"/><line style="stroke: #000000; stroke-width: 2.0;" x1="371" x2="623" y1="47.6094" y2="47.6094"/><text fill="#000000" font-family="sans-serif" font-size="14" font-weight="bold" lengthAdjust="spacingAndGlyphs" textLength="239" x="375" y="40.5332">soen6441riskgame.utils.presenter</text></a><!--class soen6441riskgame.utils.ConsolePrinter--><a target="_parent" xlink:actuate="onRequest" xlink:href="../../soen6441riskgame/utils/ConsolePrinter.html" xlink:show="new" xlink:title="soen6441riskgame.utils.ConsolePrinter" xlink:type="simple"><rect fill="#FEFECE" filter="url(#f6ikk7i6r6n9u)" height="32" id="soen6441riskgame.utils.ConsolePrinter" style="stroke: #A80036; stroke-width: 1.5;" width="138" x="38" y="60"/><ellipse cx="53" cy="76" fill="#ADD1B2" rx="11" ry="11" style="stroke: #A80036; stroke-width: 1.0;"/><path d="M55.7656,71.875 Q55.9219,71.6563 56.1094,71.5469 Q56.2969,71.4375 56.5156,71.4375 Q56.8906,71.4375 57.125,71.6953 Q57.3594,71.9531 57.3594,72.5625 L57.3594,74.0156 Q57.3594,74.625 57.125,74.8906 Q56.8906,75.1563 56.5156,75.1563 Q56.1719,75.1563 55.9688,74.9531 Q55.7656,74.7656 55.6563,74.25 Q55.6094,73.8906 55.4219,73.7031 Q55.0938,73.3281 54.4844,73.1094 Q53.875,72.8906 53.25,72.8906 Q52.4844,72.8906 51.8516,73.2188 Q51.2188,73.5469 50.7266,74.2969 Q50.2344,75.0469 50.2344,76.0781 L50.2344,77.1719 Q50.2344,78.4063 51.125,79.2266 Q52.0156,80.0469 53.6094,80.0469 Q54.5469,80.0469 55.2031,79.7969 Q55.5938,79.6406 56.0156,79.2031 Q56.2813,78.9375 56.4297,78.8594 Q56.5781,78.7813 56.7813,78.7813 Q57.1094,78.7813 57.3672,79.0391 Q57.625,79.2969 57.625,79.6406 Q57.625,79.9844 57.2813,80.3906 Q56.7813,80.9688 55.9844,81.2969 Q54.9063,81.75 53.6094,81.75 Q52.0938,81.75 50.8906,81.125 Q49.9063,80.625 49.2188,79.5547 Q48.5313,78.4844 48.5313,77.2031 L48.5313,76.0469 Q48.5313,74.7188 49.1484,73.5703 Q49.7656,72.4219 50.8594,71.8047 Q51.9531,71.1875 53.1875,71.1875 Q53.9219,71.1875 54.5703,71.3516 Q55.2188,71.5156 55.7656,71.875 Z "/><text fill="#000000" font-family="sans-serif" font-size="14" font-weight="bold" lengthAdjust="spacingAndGlyphs" textLength="106" x="67" y="81.7285">ConsolePrinter</text></a><!--class soen6441riskgame.utils.GameHelper--><a target="_parent" xlink:actuate="onRequest" xlink:href="../../soen6441riskgame/utils/GameHelper.html" xlink:show="new" xlink:title="soen6441riskgame.utils.GameHelper" xlink:type="simple"><rect fill="#FEFECE" filter="url(#f6ikk7i6r6n9u)" height="32" id="soen6441riskgame.utils.GameHelper" style="stroke: #A80036; stroke-width: 1.5;" width="119" x="211.5" y="60"/><ellipse cx="226.5" cy="76" fill="#ADD1B2" rx="11" ry="11" style="stroke: #A80036; stroke-width: 1.0;"/><path d="M229.2656,71.875 Q229.4219,71.6563 229.6094,71.5469 Q229.7969,71.4375 230.0156,71.4375 Q230.3906,71.4375 230.625,71.6953 Q230.8594,71.9531 230.8594,72.5625 L230.8594,74.0156 Q230.8594,74.625 230.625,74.8906 Q230.3906,75.1563 230.0156,75.1563 Q229.6719,75.1563 229.4688,74.9531 Q229.2656,74.7656 229.1563,74.25 Q229.1094,73.8906 228.9219,73.7031 Q228.5938,73.3281 227.9844,73.1094 Q227.375,72.8906 226.75,72.8906 Q225.9844,72.8906 225.3516,73.2188 Q224.7188,73.5469 224.2266,74.2969 Q223.7344,75.0469 223.7344,76.0781 L223.7344,77.1719 Q223.7344,78.4063 224.625,79.2266 Q225.5156,80.0469 227.1094,80.0469 Q228.0469,80.0469 228.7031,79.7969 Q229.0938,79.6406 229.5156,79.2031 Q229.7813,78.9375 229.9297,78.8594 Q230.0781,78.7813 230.2813,78.7813 Q230.6094,78.7813 230.8672,79.0391 Q231.125,79.2969 231.125,79.6406 Q231.125,79.9844 230.7813,80.3906 Q230.2813,80.9688 229.4844,81.2969 Q228.4063,81.75 227.1094,81.75 Q225.5938,81.75 224.3906,81.125 Q223.4063,80.625 222.7188,79.5547 Q222.0313,78.4844 222.0313,77.2031 L222.0313,76.0469 Q222.0313,74.7188 222.6484,73.5703 Q223.2656,72.4219 224.3594,71.8047 Q225.4531,71.1875 226.6875,71.1875 Q227.4219,71.1875 228.0703,71.3516 Q228.7188,71.5156 229.2656,71.875 Z "/><text fill="#000000" font-family="sans-serif" font-size="14" font-weight="bold" lengthAdjust="spacingAndGlyphs" textLength="87" x="240.5" y="81.7285">GameHelper</text></a><!--class soen6441riskgame.utils.GraphChecker--><a target="_parent" xlink:actuate="onRequest" xlink:href="../../soen6441riskgame/utils/GraphChecker.html" xlink:show="new" xlink:title="soen6441riskgame.utils.GraphChecker" xlink:type="simple"><rect fill="#FEFECE" filter="url(#f6ikk7i6r6n9u)" height="32" id="soen6441riskgame.utils.GraphChecker" style="stroke: #A80036; stroke-width: 1.5;" width="134" x="40" y="152"/><ellipse cx="55" cy="168" fill="#ADD1B2" rx="11" ry="11" style="stroke: #A80036; stroke-width: 1.0;"/><path d="M57.7656,163.875 Q57.9219,163.6563 58.1094,163.5469 Q58.2969,163.4375 58.5156,163.4375 Q58.8906,163.4375 59.125,163.6953 Q59.3594,163.9531 59.3594,164.5625 L59.3594,166.0156 Q59.3594,166.625 59.125,166.8906 Q58.8906,167.1563 58.5156,167.1563 Q58.1719,167.1563 57.9688,166.9531 Q57.7656,166.7656 57.6563,166.25 Q57.6094,165.8906 57.4219,165.7031 Q57.0938,165.3281 56.4844,165.1094 Q55.875,164.8906 55.25,164.8906 Q54.4844,164.8906 53.8516,165.2188 Q53.2188,165.5469 52.7266,166.2969 Q52.2344,167.0469 52.2344,168.0781 L52.2344,169.1719 Q52.2344,170.4063 53.125,171.2266 Q54.0156,172.0469 55.6094,172.0469 Q56.5469,172.0469 57.2031,171.7969 Q57.5938,171.6406 58.0156,171.2031 Q58.2813,170.9375 58.4297,170.8594 Q58.5781,170.7813 58.7813,170.7813 Q59.1094,170.7813 59.3672,171.0391 Q59.625,171.2969 59.625,171.6406 Q59.625,171.9844 59.2813,172.3906 Q58.7813,172.9688 57.9844,173.2969 Q56.9063,173.75 55.6094,173.75 Q54.0938,173.75 52.8906,173.125 Q51.9063,172.625 51.2188,171.5547 Q50.5313,170.4844 50.5313,169.2031 L50.5313,168.0469 Q50.5313,166.7188 51.1484,165.5703 Q51.7656,164.4219 52.8594,163.8047 Q53.9531,163.1875 55.1875,163.1875 Q55.9219,163.1875 56.5703,163.3516 Q57.2188,163.5156 57.7656,163.875 Z "/><text fill="#000000" font-family="sans-serif" font-size="14" font-weight="bold" lengthAdjust="spacingAndGlyphs" textLength="102" x="69" y="173.7285">GraphChecker</text></a><!--class soen6441riskgame.utils.Parser--><a target="_parent" xlink:actuate="onRequest" xlink:href="../../soen6441riskgame/utils/Parser.html" xlink:show="new" xlink:title="soen6441riskgame.utils.Parser" xlink:type="simple"><rect fill="#FEFECE" filter="url(#f6ikk7i6r6n9u)" height="32" id="soen6441riskgame.utils.Parser" style="stroke: #A80036; stroke-width: 1.5;" width="78" x="209" y="152"/><ellipse cx="224" cy="168" fill="#ADD1B2" rx="11" ry="11" style="stroke: #A80036; stroke-width: 1.0;"/><path d="M226.7656,163.875 Q226.9219,163.6563 227.1094,163.5469 Q227.2969,163.4375 227.5156,163.4375 Q227.8906,163.4375 228.125,163.6953 Q228.3594,163.9531 228.3594,164.5625 L228.3594,166.0156 Q228.3594,166.625 228.125,166.8906 Q227.8906,167.1563 227.5156,167.1563 Q227.1719,167.1563 226.9688,166.9531 Q226.7656,166.7656 226.6563,166.25 Q226.6094,165.8906 226.4219,165.7031 Q226.0938,165.3281 225.4844,165.1094 Q224.875,164.8906 224.25,164.8906 Q223.4844,164.8906 222.8516,165.2188 Q222.2188,165.5469 221.7266,166.2969 Q221.2344,167.0469 221.2344,168.0781 L221.2344,169.1719 Q221.2344,170.4063 222.125,171.2266 Q223.0156,172.0469 224.6094,172.0469 Q225.5469,172.0469 226.2031,171.7969 Q226.5938,171.6406 227.0156,171.2031 Q227.2813,170.9375 227.4297,170.8594 Q227.5781,170.7813 227.7813,170.7813 Q228.1094,170.7813 228.3672,171.0391 Q228.625,171.2969 228.625,171.6406 Q228.625,171.9844 228.2813,172.3906 Q227.7813,172.9688 226.9844,173.2969 Q225.9063,173.75 224.6094,173.75 Q223.0938,173.75 221.8906,173.125 Q220.9063,172.625 220.2188,171.5547 Q219.5313,170.4844 219.5313,169.2031 L219.5313,168.0469 Q219.5313,166.7188 220.1484,165.5703 Q220.7656,164.4219 221.8594,163.8047 Q222.9531,163.1875 224.1875,163.1875 Q224.9219,163.1875 225.5703,163.3516 Q226.2188,163.5156 226.7656,163.875 Z "/><text fill="#000000" font-family="sans-serif" font-size="14" font-weight="bold" lengthAdjust="spacingAndGlyphs" textLength="46" x="238" y="173.7285">Parser</text></a><!--class soen6441riskgame.utils.presenter.WindowOutputStream--><a target="_parent" xlink:actuate="onRequest" xlink:href="../../soen6441riskgame/utils/presenter/WindowOutputStream.html" xlink:show="new" xlink:title="soen6441riskgame.utils.presenter.WindowOutputStream" xlink:type="simple"><rect fill="#FEFECE" filter="url(#f6ikk7i6r6n9u)" height="32" id="soen6441riskgame.utils.presenter.WindowOutputStream" style="stroke: #A80036; stroke-width: 1.5;" width="184" x="544" y="60"/><ellipse cx="559" cy="76" fill="#ADD1B2" rx="11" ry="11" style="stroke: #A80036; stroke-width: 1.0;"/><path d="M561.7656,71.875 Q561.9219,71.6563 562.1094,71.5469 Q562.2969,71.4375 562.5156,71.4375 Q562.8906,71.4375 563.125,71.6953 Q563.3594,71.9531 563.3594,72.5625 L563.3594,74.0156 Q563.3594,74.625 563.125,74.8906 Q562.8906,75.1563 562.5156,75.1563 Q562.1719,75.1563 561.9688,74.9531 Q561.7656,74.7656 561.6563,74.25 Q561.6094,73.8906 561.4219,73.7031 Q561.0938,73.3281 560.4844,73.1094 Q559.875,72.8906 559.25,72.8906 Q558.4844,72.8906 557.8516,73.2188 Q557.2188,73.5469 556.7266,74.2969 Q556.2344,75.0469 556.2344,76.0781 L556.2344,77.1719 Q556.2344,78.4063 557.125,79.2266 Q558.0156,80.0469 559.6094,80.0469 Q560.5469,80.0469 561.2031,79.7969 Q561.5938,79.6406 562.0156,79.2031 Q562.2813,78.9375 562.4297,78.8594 Q562.5781,78.7813 562.7813,78.7813 Q563.1094,78.7813 563.3672,79.0391 Q563.625,79.2969 563.625,79.6406 Q563.625,79.9844 563.2813,80.3906 Q562.7813,80.9688 561.9844,81.2969 Q560.9063,81.75 559.6094,81.75 Q558.0938,81.75 556.8906,81.125 Q555.9063,80.625 555.2188,79.5547 Q554.5313,78.4844 554.5313,77.2031 L554.5313,76.0469 Q554.5313,74.7188 555.1484,73.5703 Q555.7656,72.4219 556.8594,71.8047 Q557.9531,71.1875 559.1875,71.1875 Q559.9219,71.1875 560.5703,71.3516 Q561.2188,71.5156 561.7656,71.875 Z "/><text fill="#000000" font-family="sans-serif" font-size="14" font-weight="bold" lengthAdjust="spacingAndGlyphs" textLength="152" x="573" y="81.7285">WindowOutputStream</text></a><!--class soen6441riskgame.utils.presenter.WindowPane--><a target="_parent" xlink:actuate="onRequest" xlink:href="../../soen6441riskgame/utils/presenter/WindowPane.html" xlink:show="new" xlink:title="soen6441riskgame.utils.presenter.WindowPane" xlink:type="simple"><rect fill="#FEFECE" filter="url(#f6ikk7i6r6n9u)" height="32" id="soen6441riskgame.utils.presenter.WindowPane" style="stroke: #A80036; stroke-width: 1.5;" width="122" x="387" y="60"/><ellipse cx="402" cy="76" fill="#ADD1B2" rx="11" ry="11" style="stroke: #A80036; stroke-width: 1.0;"/><path d="M404.7656,71.875 Q404.9219,71.6563 405.1094,71.5469 Q405.2969,71.4375 405.5156,71.4375 Q405.8906,71.4375 406.125,71.6953 Q406.3594,71.9531 406.3594,72.5625 L406.3594,74.0156 Q406.3594,74.625 406.125,74.8906 Q405.8906,75.1563 405.5156,75.1563 Q405.1719,75.1563 404.9688,74.9531 Q404.7656,74.7656 404.6563,74.25 Q404.6094,73.8906 404.4219,73.7031 Q404.0938,73.3281 403.4844,73.1094 Q402.875,72.8906 402.25,72.8906 Q401.4844,72.8906 400.8516,73.2188 Q400.2188,73.5469 399.7266,74.2969 Q399.2344,75.0469 399.2344,76.0781 L399.2344,77.1719 Q399.2344,78.4063 400.125,79.2266 Q401.0156,80.0469 402.6094,80.0469 Q403.5469,80.0469 404.2031,79.7969 Q404.5938,79.6406 405.0156,79.2031 Q405.2813,78.9375 405.4297,78.8594 Q405.5781,78.7813 405.7813,78.7813 Q406.1094,78.7813 406.3672,79.0391 Q406.625,79.2969 406.625,79.6406 Q406.625,79.9844 406.2813,80.3906 Q405.7813,80.9688 404.9844,81.2969 Q403.9063,81.75 402.6094,81.75 Q401.0938,81.75 399.8906,81.125 Q398.9063,80.625 398.2188,79.5547 Q397.5313,78.4844 397.5313,77.2031 L397.5313,76.0469 Q397.5313,74.7188 398.1484,73.5703 Q398.7656,72.4219 399.8594,71.8047 Q400.9531,71.1875 402.1875,71.1875 Q402.9219,71.1875 403.5703,71.3516 Q404.2188,71.5156 404.7656,71.875 Z "/><text fill="#000000" font-family="sans-serif" font-size="14" font-weight="bold" lengthAdjust="spacingAndGlyphs" textLength="90" x="416" y="81.7285">WindowPane</text></a><!--link soen6441riskgame.utils.ConsolePrinter to soen6441riskgame.utils.GameHelper--><!--link soen6441riskgame.utils.ConsolePrinter to soen6441riskgame.utils.GraphChecker--><!--link soen6441riskgame.utils.GraphChecker to soen6441riskgame.utils.Parser--><!--
@startuml

skinparam svgLinkTarget _parent
skinparam linetype ortho
package soen6441riskgame.utils [[../../soen6441riskgame/utils/package-summary.html{soen6441riskgame.utils}]] #lightyellow {
}

class "<b><size:14>ConsolePrinter</b>" as soen6441riskgame.utils.ConsolePrinter  [[../../soen6441riskgame/utils/ConsolePrinter.html{soen6441riskgame.utils.ConsolePrinter}]] {
}

hide soen6441riskgame.utils.ConsolePrinter fields
hide soen6441riskgame.utils.ConsolePrinter methods

class "<b><size:14>GameHelper</b>" as soen6441riskgame.utils.GameHelper  [[../../soen6441riskgame/utils/GameHelper.html{soen6441riskgame.utils.GameHelper}]] {
}

hide soen6441riskgame.utils.GameHelper fields
hide soen6441riskgame.utils.GameHelper methods

class "<b><size:14>GraphChecker</b>" as soen6441riskgame.utils.GraphChecker  [[../../soen6441riskgame/utils/GraphChecker.html{soen6441riskgame.utils.GraphChecker}]] {
}

hide soen6441riskgame.utils.GraphChecker fields
hide soen6441riskgame.utils.GraphChecker methods

class "<b><size:14>Parser</b>" as soen6441riskgame.utils.Parser  [[../../soen6441riskgame/utils/Parser.html{soen6441riskgame.utils.Parser}]] {
}

hide soen6441riskgame.utils.Parser fields
hide soen6441riskgame.utils.Parser methods

package soen6441riskgame.utils.presenter [[../../soen6441riskgame/utils/presenter/package-summary.html{soen6441riskgame.utils.presenter}]] {
}

class "<b><size:14>WindowOutputStream</b>" as soen6441riskgame.utils.presenter.WindowOutputStream  [[../../soen6441riskgame/utils/presenter/WindowOutputStream.html{soen6441riskgame.utils.presenter.WindowOutputStream}]] {
}

hide soen6441riskgame.utils.presenter.WindowOutputStream fields
hide soen6441riskgame.utils.presenter.WindowOutputStream methods

class "<b><size:14>WindowPane</b>" as soen6441riskgame.utils.presenter.WindowPane  [[../../soen6441riskgame/utils/presenter/WindowPane.html{soen6441riskgame.utils.presenter.WindowPane}]] {
}

hide soen6441riskgame.utils.presenter.WindowPane fields
hide soen6441riskgame.utils.presenter.WindowPane methods


@enduml

PlantUML version 1.2017.15(Mon Jul 03 12:45:34 EDT 2017)
(GPL source distribution)
Java Runtime: Java(TM) SE Runtime Environment
JVM: Java HotSpot(TM) 64-Bit Server VM
Java Version: 1.8.0_231-b11
Operating System: Windows 10
OS Version: 10.0
Default Encoding: Cp1252
Language: en
Country: US
--></g></svg>