<?xml version="1.0" encoding="UTF-8" standalone="no"?><svg xmlns="http://www.w3.org/2000/svg" xmlns:xlink="http://www.w3.org/1999/xlink" contentScriptType="application/ecmascript" contentStyleType="text/css" height="212px" preserveAspectRatio="none" style="width:1244px;height:212px;" version="1.1" viewBox="0 0 1244 212" width="1244px" zoomAndPan="magnify"><defs><filter height="300%" id="f1306oqwoulkyh" width="300%" x="-1" y="-1"><feGaussianBlur result="blurOut" stdDeviation="2.0"/><feColorMatrix in="blurOut" result="blurOut2" type="matrix" values="0 0 0 0 0 0 0 0 0 0 0 0 0 0 0 0 0 0 .4 0"/><feOffset dx="4.0" dy="4.0" in="blurOut2" result="blurOut3"/><feBlend in="SourceGraphic" in2="blurOut3" mode="normal"/></filter></defs><g><!--cluster soen6441riskgame.utils--><a target="_parent" xlink:actuate="onRequest" xlink:href="../../soen6441riskgame/utils/package-summary.html" xlink:show="new" xlink:title="soen6441riskgame.utils" xlink:type="simple"><polygon fill="#FFFFE0" filter="url(#f1306oqwoulkyh)" points="22,24,193,24,200,47.6094,347,47.6094,347,200,22,200,22,24" style="stroke: #000000; stroke-width: 2.0;"/><line style="stroke: #000000; stroke-width: 2.0;" x1="22" x2="200" y1="47.6094" y2="47.6094"/><text fill="#000000" font-family="sans-serif" font-size="14" font-weight="bold" lengthAdjust="spacingAndGlyphs" textLength="165" x="26" y="40.5332">soen6441riskgame.utils</text></a><!--cluster soen6441riskgame.utils.map--><a target="_parent" xlink:actuate="onRequest" xlink:href="../../soen6441riskgame/utils/map/package-summary.html" xlink:show="new" xlink:title="soen6441riskgame.utils.map" xlink:type="simple"><polygon fill="#FFFFFF" filter="url(#f1306oqwoulkyh)" points="371,24,575,24,582,47.6094,825,47.6094,825,200,371,200,371,24" style="stroke: #000000; stroke-width: 2.0;"/><line style="stroke: #000000; stroke-width: 2.0;" x1="371" x2="582" y1="47.6094" y2="47.6094"/><text fill="#000000" font-family="sans-serif" font-size="14" font-weight="bold" lengthAdjust="spacingAndGlyphs" textLength="198" x="375" y="40.5332">soen6441riskgame.utils.map</text></a><!--cluster soen6441riskgame.utils.presenter--><a target="_parent" xlink:actuate="onRequest" xlink:href="../../soen6441riskgame/utils/presenter/package-summary.html" xlink:show="new" xlink:title="soen6441riskgame.utils.presenter" xlink:type="simple"><polygon fill="#FFFFFF" filter="url(#f1306oqwoulkyh)" points="849,24,1094,24,1101,47.6094,1222,47.6094,1222,108,849,108,849,24" style="stroke: #000000; stroke-width: 2.0;"/><line style="stroke: #000000; stroke-width: 2.0;" x1="849" x2="1101" y1="47.6094" y2="47.6094"/><text fill="#000000" font-family="sans-serif" font-size="14" font-weight="bold" lengthAdjust="spacingAndGlyphs" textLength="239" x="853" y="40.5332">soen6441riskgame.utils.presenter</text></a><!--class soen6441riskgame.utils.ConsolePrinter--><a target="_parent" xlink:actuate="onRequest" xlink:href="../../soen6441riskgame/utils/ConsolePrinter.html" xlink:show="new" xlink:title="soen6441riskgame.utils.ConsolePrinter" xlink:type="simple"><rect fill="#FEFECE" filter="url(#f1306oqwoulkyh)" height="32" id="soen6441riskgame.utils.ConsolePrinter" style="stroke: #A80036; stroke-width: 1.5;" width="138" x="38" y="60"/><ellipse cx="53" cy="76" fill="#ADD1B2" rx="11" ry="11" style="stroke: #A80036; stroke-width: 1.0;"/><path d="M55.7656,71.875 Q55.9219,71.6563 56.1094,71.5469 Q56.2969,71.4375 56.5156,71.4375 Q56.8906,71.4375 57.125,71.6953 Q57.3594,71.9531 57.3594,72.5625 L57.3594,74.0156 Q57.3594,74.625 57.125,74.8906 Q56.8906,75.1563 56.5156,75.1563 Q56.1719,75.1563 55.9688,74.9531 Q55.7656,74.7656 55.6563,74.25 Q55.6094,73.8906 55.4219,73.7031 Q55.0938,73.3281 54.4844,73.1094 Q53.875,72.8906 53.25,72.8906 Q52.4844,72.8906 51.8516,73.2188 Q51.2188,73.5469 50.7266,74.2969 Q50.2344,75.0469 50.2344,76.0781 L50.2344,77.1719 Q50.2344,78.4063 51.125,79.2266 Q52.0156,80.0469 53.6094,80.0469 Q54.5469,80.0469 55.2031,79.7969 Q55.5938,79.6406 56.0156,79.2031 Q56.2813,78.9375 56.4297,78.8594 Q56.5781,78.7813 56.7813,78.7813 Q57.1094,78.7813 57.3672,79.0391 Q57.625,79.2969 57.625,79.6406 Q57.625,79.9844 57.2813,80.3906 Q56.7813,80.9688 55.9844,81.2969 Q54.9063,81.75 53.6094,81.75 Q52.0938,81.75 50.8906,81.125 Q49.9063,80.625 49.2188,79.5547 Q48.5313,78.4844 48.5313,77.2031 L48.5313,76.0469 Q48.5313,74.7188 49.1484,73.5703 Q49.7656,72.4219 50.8594,71.8047 Q51.9531,71.1875 53.1875,71.1875 Q53.9219,71.1875 54.5703,71.3516 Q55.2188,71.5156 55.7656,71.875 Z "/><text fill="#000000" font-family="sans-serif" font-size="14" font-weight="bold" lengthAdjust="spacingAndGlyphs" textLength="106" x="67" y="81.7285">ConsolePrinter</text></a><!--class soen6441riskgame.utils.GameHelper--><a target="_parent" xlink:actuate="onRequest" xlink:href="../../soen6441riskgame/utils/GameHelper.html" xlink:show="new" xlink:title="soen6441riskgame.utils.GameHelper" xlink:type="simple"><rect fill="#FEFECE" filter="url(#f1306oqwoulkyh)" height="32" id="soen6441riskgame.utils.GameHelper" style="stroke: #A80036; stroke-width: 1.5;" width="119" x="211.5" y="60"/><ellipse cx="226.5" cy="76" fill="#ADD1B2" rx="11" ry="11" style="stroke: #A80036; stroke-width: 1.0;"/><path d="M229.2656,71.875 Q229.4219,71.6563 229.6094,71.5469 Q229.7969,71.4375 230.0156,71.4375 Q230.3906,71.4375 230.625,71.6953 Q230.8594,71.9531 230.8594,72.5625 L230.8594,74.0156 Q230.8594,74.625 230.625,74.8906 Q230.3906,75.1563 230.0156,75.1563 Q229.6719,75.1563 229.4688,74.9531 Q229.2656,74.7656 229.1563,74.25 Q229.1094,73.8906 228.9219,73.7031 Q228.5938,73.3281 227.9844,73.1094 Q227.375,72.8906 226.75,72.8906 Q225.9844,72.8906 225.3516,73.2188 Q224.7188,73.5469 224.2266,74.2969 Q223.7344,75.0469 223.7344,76.0781 L223.7344,77.1719 Q223.7344,78.4063 224.625,79.2266 Q225.5156,80.0469 227.1094,80.0469 Q228.0469,80.0469 228.7031,79.7969 Q229.0938,79.6406 229.5156,79.2031 Q229.7813,78.9375 229.9297,78.8594 Q230.0781,78.7813 230.2813,78.7813 Q230.6094,78.7813 230.8672,79.0391 Q231.125,79.2969 231.125,79.6406 Q231.125,79.9844 230.7813,80.3906 Q230.2813,80.9688 229.4844,81.2969 Q228.4063,81.75 227.1094,81.75 Q225.5938,81.75 224.3906,81.125 Q223.4063,80.625 222.7188,79.5547 Q222.0313,78.4844 222.0313,77.2031 L222.0313,76.0469 Q222.0313,74.7188 222.6484,73.5703 Q223.2656,72.4219 224.3594,71.8047 Q225.4531,71.1875 226.6875,71.1875 Q227.4219,71.1875 228.0703,71.3516 Q228.7188,71.5156 229.2656,71.875 Z "/><text fill="#000000" font-family="sans-serif" font-size="14" font-weight="bold" lengthAdjust="spacingAndGlyphs" textLength="87" x="240.5" y="81.7285">GameHelper</text></a><!--class soen6441riskgame.utils.GraphChecker--><a target="_parent" xlink:actuate="onRequest" xlink:href="../../soen6441riskgame/utils/GraphChecker.html" xlink:show="new" xlink:title="soen6441riskgame.utils.GraphChecker" xlink:type="simple"><rect fill="#FEFECE" filter="url(#f1306oqwoulkyh)" height="32" id="soen6441riskgame.utils.GraphChecker" style="stroke: #A80036; stroke-width: 1.5;" width="134" x="40" y="152"/><ellipse cx="55" cy="168" fill="#ADD1B2" rx="11" ry="11" style="stroke: #A80036; stroke-width: 1.0;"/><path d="M57.7656,163.875 Q57.9219,163.6563 58.1094,163.5469 Q58.2969,163.4375 58.5156,163.4375 Q58.8906,163.4375 59.125,163.6953 Q59.3594,163.9531 59.3594,164.5625 L59.3594,166.0156 Q59.3594,166.625 59.125,166.8906 Q58.8906,167.1563 58.5156,167.1563 Q58.1719,167.1563 57.9688,166.9531 Q57.7656,166.7656 57.6563,166.25 Q57.6094,165.8906 57.4219,165.7031 Q57.0938,165.3281 56.4844,165.1094 Q55.875,164.8906 55.25,164.8906 Q54.4844,164.8906 53.8516,165.2188 Q53.2188,165.5469 52.7266,166.2969 Q52.2344,167.0469 52.2344,168.0781 L52.2344,169.1719 Q52.2344,170.4063 53.125,171.2266 Q54.0156,172.0469 55.6094,172.0469 Q56.5469,172.0469 57.2031,171.7969 Q57.5938,171.6406 58.0156,171.2031 Q58.2813,170.9375 58.4297,170.8594 Q58.5781,170.7813 58.7813,170.7813 Q59.1094,170.7813 59.3672,171.0391 Q59.625,171.2969 59.625,171.6406 Q59.625,171.9844 59.2813,172.3906 Q58.7813,172.9688 57.9844,173.2969 Q56.9063,173.75 55.6094,173.75 Q54.0938,173.75 52.8906,173.125 Q51.9063,172.625 51.2188,171.5547 Q50.5313,170.4844 50.5313,169.2031 L50.5313,168.0469 Q50.5313,166.7188 51.1484,165.5703 Q51.7656,164.4219 52.8594,163.8047 Q53.9531,163.1875 55.1875,163.1875 Q55.9219,163.1875 56.5703,163.3516 Q57.2188,163.5156 57.7656,163.875 Z "/><text fill="#000000" font-family="sans-serif" font-size="14" font-weight="bold" lengthAdjust="spacingAndGlyphs" textLength="102" x="69" y="173.7285">GraphChecker</text></a><!--class soen6441riskgame.utils.Parser--><a target="_parent" xlink:actuate="onRequest" xlink:href="../../soen6441riskgame/utils/Parser.html" xlink:show="new" xlink:title="soen6441riskgame.utils.Parser" xlink:type="simple"><rect fill="#FEFECE" filter="url(#f1306oqwoulkyh)" height="32" id="soen6441riskgame.utils.Parser" style="stroke: #A80036; stroke-width: 1.5;" width="78" x="209" y="152"/><ellipse cx="224" cy="168" fill="#ADD1B2" rx="11" ry="11" style="stroke: #A80036; stroke-width: 1.0;"/><path d="M226.7656,163.875 Q226.9219,163.6563 227.1094,163.5469 Q227.2969,163.4375 227.5156,163.4375 Q227.8906,163.4375 228.125,163.6953 Q228.3594,163.9531 228.3594,164.5625 L228.3594,166.0156 Q228.3594,166.625 228.125,166.8906 Q227.8906,167.1563 227.5156,167.1563 Q227.1719,167.1563 226.9688,166.9531 Q226.7656,166.7656 226.6563,166.25 Q226.6094,165.8906 226.4219,165.7031 Q226.0938,165.3281 225.4844,165.1094 Q224.875,164.8906 224.25,164.8906 Q223.4844,164.8906 222.8516,165.2188 Q222.2188,165.5469 221.7266,166.2969 Q221.2344,167.0469 221.2344,168.0781 L221.2344,169.1719 Q221.2344,170.4063 222.125,171.2266 Q223.0156,172.0469 224.6094,172.0469 Q225.5469,172.0469 226.2031,171.7969 Q226.5938,171.6406 227.0156,171.2031 Q227.2813,170.9375 227.4297,170.8594 Q227.5781,170.7813 227.7813,170.7813 Q228.1094,170.7813 228.3672,171.0391 Q228.625,171.2969 228.625,171.6406 Q228.625,171.9844 228.2813,172.3906 Q227.7813,172.9688 226.9844,173.2969 Q225.9063,173.75 224.6094,173.75 Q223.0938,173.75 221.8906,173.125 Q220.9063,172.625 220.2188,171.5547 Q219.5313,170.4844 219.5313,169.2031 L219.5313,168.0469 Q219.5313,166.7188 220.1484,165.5703 Q220.7656,164.4219 221.8594,163.8047 Q222.9531,163.1875 224.1875,163.1875 Q224.9219,163.1875 225.5703,163.3516 Q226.2188,163.5156 226.7656,163.875 Z "/><text fill="#000000" font-family="sans-serif" font-size="14" font-weight="bold" lengthAdjust="spacingAndGlyphs" textLength="46" x="238" y="173.7285">Parser</text></a><!--class soen6441riskgame.utils.map.ConquestMapReadable--><a target="_parent" xlink:actuate="onRequest" xlink:href="../../soen6441riskgame/utils/map/ConquestMapReadable.html" xlink:show="new" xlink:title="soen6441riskgame.utils.map.ConquestMapReadable" xlink:type="simple"><rect fill="#FEFECE" filter="url(#f1306oqwoulkyh)" height="32" id="soen6441riskgame.utils.map.ConquestMapReadable" style="stroke: #A80036; stroke-width: 1.5;" width="187" x="387.5" y="60"/><ellipse cx="402.5" cy="76" fill="#B4A7E5" rx="11" ry="11" style="stroke: #A80036; stroke-width: 1.0;"/><path d="M403.4531,72.6406 L403.4531,79.2969 L405.1719,79.2969 Q405.7813,79.2969 406.0469,79.5313 Q406.3125,79.7656 406.3125,80.1563 Q406.3125,80.5313 406.0469,80.7656 Q405.7813,81 405.1719,81 L400.0313,81 Q399.4219,81 399.1563,80.7656 Q398.8906,80.5313 398.8906,80.1406 Q398.8906,79.7656 399.1563,79.5313 Q399.4219,79.2969 400.0313,79.2969 L401.75,79.2969 L401.75,72.6406 L400.0313,72.6406 Q399.4219,72.6406 399.1563,72.4063 Q398.8906,72.1719 398.8906,71.7813 Q398.8906,71.4063 399.1563,71.1719 Q399.4219,70.9375 400.0313,70.9375 L405.1719,70.9375 Q405.7813,70.9375 406.0469,71.1719 Q406.3125,71.4063 406.3125,71.7813 Q406.3125,72.1719 406.0469,72.4063 Q405.7813,72.6406 405.1719,72.6406 L403.4531,72.6406 Z "/><text fill="#000000" font-family="sans-serif" font-size="14" font-style="italic" font-weight="bold" lengthAdjust="spacingAndGlyphs" textLength="155" x="416.5" y="81.7285">ConquestMapReadable</text></a><!--class soen6441riskgame.utils.map.DominationMapReadable--><a target="_parent" xlink:actuate="onRequest" xlink:href="../../soen6441riskgame/utils/map/DominationMapReadable.html" xlink:show="new" xlink:title="soen6441riskgame.utils.map.DominationMapReadable" xlink:type="simple"><rect fill="#FEFECE" filter="url(#f1306oqwoulkyh)" height="32" id="soen6441riskgame.utils.map.DominationMapReadable" style="stroke: #A80036; stroke-width: 1.5;" width="199" x="609.5" y="60"/><ellipse cx="624.5" cy="76" fill="#B4A7E5" rx="11" ry="11" style="stroke: #A80036; stroke-width: 1.0;"/><path d="M625.4531,72.6406 L625.4531,79.2969 L627.1719,79.2969 Q627.7813,79.2969 628.0469,79.5313 Q628.3125,79.7656 628.3125,80.1563 Q628.3125,80.5313 628.0469,80.7656 Q627.7813,81 627.1719,81 L622.0313,81 Q621.4219,81 621.1563,80.7656 Q620.8906,80.5313 620.8906,80.1406 Q620.8906,79.7656 621.1563,79.5313 Q621.4219,79.2969 622.0313,79.2969 L623.75,79.2969 L623.75,72.6406 L622.0313,72.6406 Q621.4219,72.6406 621.1563,72.4063 Q620.8906,72.1719 620.8906,71.7813 Q620.8906,71.4063 621.1563,71.1719 Q621.4219,70.9375 622.0313,70.9375 L627.1719,70.9375 Q627.7813,70.9375 628.0469,71.1719 Q628.3125,71.4063 628.3125,71.7813 Q628.3125,72.1719 628.0469,72.4063 Q627.7813,72.6406 627.1719,72.6406 L625.4531,72.6406 Z "/><text fill="#000000" font-family="sans-serif" font-size="14" font-style="italic" font-weight="bold" lengthAdjust="spacingAndGlyphs" textLength="167" x="638.5" y="81.7285">DominationMapReadable</text></a><!--class soen6441riskgame.utils.map.MapReadable--><a target="_parent" xlink:actuate="onRequest" xlink:href="../../soen6441riskgame/utils/map/MapReadable.html" xlink:show="new" xlink:title="soen6441riskgame.utils.map.MapReadable" xlink:type="simple"><rect fill="#FEFECE" filter="url(#f1306oqwoulkyh)" height="32" id="soen6441riskgame.utils.map.MapReadable" style="stroke: #A80036; stroke-width: 1.5;" width="122" x="420" y="152"/><ellipse cx="435" cy="168" fill="#B4A7E5" rx="11" ry="11" style="stroke: #A80036; stroke-width: 1.0;"/><path d="M435.9531,164.6406 L435.9531,171.2969 L437.6719,171.2969 Q438.2813,171.2969 438.5469,171.5313 Q438.8125,171.7656 438.8125,172.1563 Q438.8125,172.5313 438.5469,172.7656 Q438.2813,173 437.6719,173 L432.5313,173 Q431.9219,173 431.6563,172.7656 Q431.3906,172.5313 431.3906,172.1406 Q431.3906,171.7656 431.6563,171.5313 Q431.9219,171.2969 432.5313,171.2969 L434.25,171.2969 L434.25,164.6406 L432.5313,164.6406 Q431.9219,164.6406 431.6563,164.4063 Q431.3906,164.1719 431.3906,163.7813 Q431.3906,163.4063 431.6563,163.1719 Q431.9219,162.9375 432.5313,162.9375 L437.6719,162.9375 Q438.2813,162.9375 438.5469,163.1719 Q438.8125,163.4063 438.8125,163.7813 Q438.8125,164.1719 438.5469,164.4063 Q438.2813,164.6406 437.6719,164.6406 L435.9531,164.6406 Z "/><text fill="#000000" font-family="sans-serif" font-size="14" font-style="italic" font-weight="bold" lengthAdjust="spacingAndGlyphs" textLength="90" x="449" y="173.7285">MapReadable</text></a><!--class soen6441riskgame.utils.map.MapReaderAdapter--><a target="_parent" xlink:actuate="onRequest" xlink:href="../../soen6441riskgame/utils/map/MapReaderAdapter.html" xlink:show="new" xlink:title="soen6441riskgame.utils.map.MapReaderAdapter" xlink:type="simple"><rect fill="#FEFECE" filter="url(#f1306oqwoulkyh)" height="32" id="soen6441riskgame.utils.map.MapReaderAdapter" style="stroke: #A80036; stroke-width: 1.5;" width="168" x="577" y="152"/><ellipse cx="592" cy="168" fill="#ADD1B2" rx="11" ry="11" style="stroke: #A80036; stroke-width: 1.0;"/><path d="M594.7656,163.875 Q594.9219,163.6563 595.1094,163.5469 Q595.2969,163.4375 595.5156,163.4375 Q595.8906,163.4375 596.125,163.6953 Q596.3594,163.9531 596.3594,164.5625 L596.3594,166.0156 Q596.3594,166.625 596.125,166.8906 Q595.8906,167.1563 595.5156,167.1563 Q595.1719,167.1563 594.9688,166.9531 Q594.7656,166.7656 594.6563,166.25 Q594.6094,165.8906 594.4219,165.7031 Q594.0938,165.3281 593.4844,165.1094 Q592.875,164.8906 592.25,164.8906 Q591.4844,164.8906 590.8516,165.2188 Q590.2188,165.5469 589.7266,166.2969 Q589.2344,167.0469 589.2344,168.0781 L589.2344,169.1719 Q589.2344,170.4063 590.125,171.2266 Q591.0156,172.0469 592.6094,172.0469 Q593.5469,172.0469 594.2031,171.7969 Q594.5938,171.6406 595.0156,171.2031 Q595.2813,170.9375 595.4297,170.8594 Q595.5781,170.7813 595.7813,170.7813 Q596.1094,170.7813 596.3672,171.0391 Q596.625,171.2969 596.625,171.6406 Q596.625,171.9844 596.2813,172.3906 Q595.7813,172.9688 594.9844,173.2969 Q593.9063,173.75 592.6094,173.75 Q591.0938,173.75 589.8906,173.125 Q588.9063,172.625 588.2188,171.5547 Q587.5313,170.4844 587.5313,169.2031 L587.5313,168.0469 Q587.5313,166.7188 588.1484,165.5703 Q588.7656,164.4219 589.8594,163.8047 Q590.9531,163.1875 592.1875,163.1875 Q592.9219,163.1875 593.5703,163.3516 Q594.2188,163.5156 594.7656,163.875 Z "/><text fill="#000000" font-family="sans-serif" font-size="14" font-weight="bold" lengthAdjust="spacingAndGlyphs" textLength="136" x="606" y="173.7285">MapReaderAdapter</text></a><!--class soen6441riskgame.utils.presenter.WindowOutputStream--><a target="_parent" xlink:actuate="onRequest" xlink:href="../../soen6441riskgame/utils/presenter/WindowOutputStream.html" xlink:show="new" xlink:title="soen6441riskgame.utils.presenter.WindowOutputStream" xlink:type="simple"><rect fill="#FEFECE" filter="url(#f1306oqwoulkyh)" height="32" id="soen6441riskgame.utils.presenter.WindowOutputStream" style="stroke: #A80036; stroke-width: 1.5;" width="184" x="1022" y="60"/><ellipse cx="1037" cy="76" fill="#ADD1B2" rx="11" ry="11" style="stroke: #A80036; stroke-width: 1.0;"/><path d="M1039.7656,71.875 Q1039.9219,71.6563 1040.1094,71.5469 Q1040.2969,71.4375 1040.5156,71.4375 Q1040.8906,71.4375 1041.125,71.6953 Q1041.3594,71.9531 1041.3594,72.5625 L1041.3594,74.0156 Q1041.3594,74.625 1041.125,74.8906 Q1040.8906,75.1563 1040.5156,75.1563 Q1040.1719,75.1563 1039.9688,74.9531 Q1039.7656,74.7656 1039.6563,74.25 Q1039.6094,73.8906 1039.4219,73.7031 Q1039.0938,73.3281 1038.4844,73.1094 Q1037.875,72.8906 1037.25,72.8906 Q1036.4844,72.8906 1035.8516,73.2188 Q1035.2188,73.5469 1034.7266,74.2969 Q1034.2344,75.0469 1034.2344,76.0781 L1034.2344,77.1719 Q1034.2344,78.4063 1035.125,79.2266 Q1036.0156,80.0469 1037.6094,80.0469 Q1038.5469,80.0469 1039.2031,79.7969 Q1039.5938,79.6406 1040.0156,79.2031 Q1040.2813,78.9375 1040.4297,78.8594 Q1040.5781,78.7813 1040.7813,78.7813 Q1041.1094,78.7813 1041.3672,79.0391 Q1041.625,79.2969 1041.625,79.6406 Q1041.625,79.9844 1041.2813,80.3906 Q1040.7813,80.9688 1039.9844,81.2969 Q1038.9063,81.75 1037.6094,81.75 Q1036.0938,81.75 1034.8906,81.125 Q1033.9063,80.625 1033.2188,79.5547 Q1032.5313,78.4844 1032.5313,77.2031 L1032.5313,76.0469 Q1032.5313,74.7188 1033.1484,73.5703 Q1033.7656,72.4219 1034.8594,71.8047 Q1035.9531,71.1875 1037.1875,71.1875 Q1037.9219,71.1875 1038.5703,71.3516 Q1039.2188,71.5156 1039.7656,71.875 Z "/><text fill="#000000" font-family="sans-serif" font-size="14" font-weight="bold" lengthAdjust="spacingAndGlyphs" textLength="152" x="1051" y="81.7285">WindowOutputStream</text></a><!--class soen6441riskgame.utils.presenter.WindowPane--><a target="_parent" xlink:actuate="onRequest" xlink:href="../../soen6441riskgame/utils/presenter/WindowPane.html" xlink:show="new" xlink:title="soen6441riskgame.utils.presenter.WindowPane" xlink:type="simple"><rect fill="#FEFECE" filter="url(#f1306oqwoulkyh)" height="32" id="soen6441riskgame.utils.presenter.WindowPane" style="stroke: #A80036; stroke-width: 1.5;" width="122" x="865" y="60"/><ellipse cx="880" cy="76" fill="#ADD1B2" rx="11" ry="11" style="stroke: #A80036; stroke-width: 1.0;"/><path d="M882.7656,71.875 Q882.9219,71.6563 883.1094,71.5469 Q883.2969,71.4375 883.5156,71.4375 Q883.8906,71.4375 884.125,71.6953 Q884.3594,71.9531 884.3594,72.5625 L884.3594,74.0156 Q884.3594,74.625 884.125,74.8906 Q883.8906,75.1563 883.5156,75.1563 Q883.1719,75.1563 882.9688,74.9531 Q882.7656,74.7656 882.6563,74.25 Q882.6094,73.8906 882.4219,73.7031 Q882.0938,73.3281 881.4844,73.1094 Q880.875,72.8906 880.25,72.8906 Q879.4844,72.8906 878.8516,73.2188 Q878.2188,73.5469 877.7266,74.2969 Q877.2344,75.0469 877.2344,76.0781 L877.2344,77.1719 Q877.2344,78.4063 878.125,79.2266 Q879.0156,80.0469 880.6094,80.0469 Q881.5469,80.0469 882.2031,79.7969 Q882.5938,79.6406 883.0156,79.2031 Q883.2813,78.9375 883.4297,78.8594 Q883.5781,78.7813 883.7813,78.7813 Q884.1094,78.7813 884.3672,79.0391 Q884.625,79.2969 884.625,79.6406 Q884.625,79.9844 884.2813,80.3906 Q883.7813,80.9688 882.9844,81.2969 Q881.9063,81.75 880.6094,81.75 Q879.0938,81.75 877.8906,81.125 Q876.9063,80.625 876.2188,79.5547 Q875.5313,78.4844 875.5313,77.2031 L875.5313,76.0469 Q875.5313,74.7188 876.1484,73.5703 Q876.7656,72.4219 877.8594,71.8047 Q878.9531,71.1875 880.1875,71.1875 Q880.9219,71.1875 881.5703,71.3516 Q882.2188,71.5156 882.7656,71.875 Z "/><text fill="#000000" font-family="sans-serif" font-size="14" font-weight="bold" lengthAdjust="spacingAndGlyphs" textLength="90" x="894" y="81.7285">WindowPane</text></a><!--link soen6441riskgame.utils.ConsolePrinter to soen6441riskgame.utils.GameHelper--><!--link soen6441riskgame.utils.ConsolePrinter to soen6441riskgame.utils.GraphChecker--><!--link soen6441riskgame.utils.GraphChecker to soen6441riskgame.utils.Parser--><!--link soen6441riskgame.utils.map.ConquestMapReadable to soen6441riskgame.utils.map.DominationMapReadable--><!--link soen6441riskgame.utils.map.ConquestMapReadable to soen6441riskgame.utils.map.MapReadable--><!--link soen6441riskgame.utils.map.MapReadable to soen6441riskgame.utils.map.MapReaderAdapter--><!--
@startuml

skinparam svgLinkTarget _parent
skinparam linetype ortho
package soen6441riskgame.utils [[../../soen6441riskgame/utils/package-summary.html{soen6441riskgame.utils}]] #lightyellow {
}

class "<b><size:14>ConsolePrinter</b>" as soen6441riskgame.utils.ConsolePrinter  [[../../soen6441riskgame/utils/ConsolePrinter.html{soen6441riskgame.utils.ConsolePrinter}]] {
}

hide soen6441riskgame.utils.ConsolePrinter fields
hide soen6441riskgame.utils.ConsolePrinter methods

class "<b><size:14>GameHelper</b>" as soen6441riskgame.utils.GameHelper  [[../../soen6441riskgame/utils/GameHelper.html{soen6441riskgame.utils.GameHelper}]] {
}

hide soen6441riskgame.utils.GameHelper fields
hide soen6441riskgame.utils.GameHelper methods

class "<b><size:14>GraphChecker</b>" as soen6441riskgame.utils.GraphChecker  [[../../soen6441riskgame/utils/GraphChecker.html{soen6441riskgame.utils.GraphChecker}]] {
}

hide soen6441riskgame.utils.GraphChecker fields
hide soen6441riskgame.utils.GraphChecker methods

class "<b><size:14>Parser</b>" as soen6441riskgame.utils.Parser  [[../../soen6441riskgame/utils/Parser.html{soen6441riskgame.utils.Parser}]] {
}

hide soen6441riskgame.utils.Parser fields
hide soen6441riskgame.utils.Parser methods

package soen6441riskgame.utils.map [[../../soen6441riskgame/utils/map/package-summary.html{soen6441riskgame.utils.map}]] {
}

interface "<b><size:14>ConquestMapReadable</b>" as soen6441riskgame.utils.map.ConquestMapReadable  [[../../soen6441riskgame/utils/map/ConquestMapReadable.html{soen6441riskgame.utils.map.ConquestMapReadable}]] {
}

hide soen6441riskgame.utils.map.ConquestMapReadable fields
hide soen6441riskgame.utils.map.ConquestMapReadable methods

interface "<b><size:14>DominationMapReadable</b>" as soen6441riskgame.utils.map.DominationMapReadable  [[../../soen6441riskgame/utils/map/DominationMapReadable.html{soen6441riskgame.utils.map.DominationMapReadable}]] {
}

hide soen6441riskgame.utils.map.DominationMapReadable fields
hide soen6441riskgame.utils.map.DominationMapReadable methods

interface "<b><size:14>MapReadable</b>" as soen6441riskgame.utils.map.MapReadable  [[../../soen6441riskgame/utils/map/MapReadable.html{soen6441riskgame.utils.map.MapReadable}]] {
}

hide soen6441riskgame.utils.map.MapReadable fields
hide soen6441riskgame.utils.map.MapReadable methods

class "<b><size:14>MapReaderAdapter</b>" as soen6441riskgame.utils.map.MapReaderAdapter  [[../../soen6441riskgame/utils/map/MapReaderAdapter.html{soen6441riskgame.utils.map.MapReaderAdapter}]] {
}

hide soen6441riskgame.utils.map.MapReaderAdapter fields
hide soen6441riskgame.utils.map.MapReaderAdapter methods

package soen6441riskgame.utils.presenter [[../../soen6441riskgame/utils/presenter/package-summary.html{soen6441riskgame.utils.presenter}]] {
}

class "<b><size:14>WindowOutputStream</b>" as soen6441riskgame.utils.presenter.WindowOutputStream  [[../../soen6441riskgame/utils/presenter/WindowOutputStream.html{soen6441riskgame.utils.presenter.WindowOutputStream}]] {
}

hide soen6441riskgame.utils.presenter.WindowOutputStream fields
hide soen6441riskgame.utils.presenter.WindowOutputStream methods

class "<b><size:14>WindowPane</b>" as soen6441riskgame.utils.presenter.WindowPane  [[../../soen6441riskgame/utils/presenter/WindowPane.html{soen6441riskgame.utils.presenter.WindowPane}]] {
}

hide soen6441riskgame.utils.presenter.WindowPane fields
hide soen6441riskgame.utils.presenter.WindowPane methods


@enduml

PlantUML version 1.2017.15(Mon Jul 03 12:45:34 EDT 2017)
(GPL source distribution)
Java Runtime: Java(TM) SE Runtime Environment
JVM: Java HotSpot(TM) 64-Bit Server VM
Java Version: 1.8.0_231-b11
Operating System: Windows 10
OS Version: 10.0
Default Encoding: Cp1252
Language: en
Country: US
--></g></svg>