<?xml version="1.0" encoding="UTF-8" standalone="no"?><svg xmlns="http://www.w3.org/2000/svg" xmlns:xlink="http://www.w3.org/1999/xlink" contentScriptType="application/ecmascript" contentStyleType="text/css" height="212px" preserveAspectRatio="none" style="width:780px;height:212px;" version="1.1" viewBox="0 0 780 212" width="780px" zoomAndPan="magnify"><defs><filter height="300%" id="fgui2sbv702vh" width="300%" x="-1" y="-1"><feGaussianBlur result="blurOut" stdDeviation="2.0"/><feColorMatrix in="blurOut" result="blurOut2" type="matrix" values="0 0 0 0 0 0 0 0 0 0 0 0 0 0 0 0 0 0 .4 0"/><feOffset dx="4.0" dy="4.0" in="blurOut2" result="blurOut3"/><feBlend in="SourceGraphic" in2="blurOut3" mode="normal"/></filter></defs><g><!--cluster soen6441riskgame.utils--><a target="_parent" xlink:actuate="onRequest" xlink:href="../../soen6441riskgame/utils/package-summary.html" xlink:show="new" xlink:title="soen6441riskgame.utils" xlink:type="simple"><polygon fill="#FFFFE0" filter="url(#fgui2sbv702vh)" points="22,24,193,24,200,47.6094,361,47.6094,361,200,22,200,22,24" style="stroke: #000000; stroke-width: 2.0;"/><line style="stroke: #000000; stroke-width: 2.0;" x1="22" x2="200" y1="47.6094" y2="47.6094"/><text fill="#000000" font-family="sans-serif" font-size="14" font-weight="bold" lengthAdjust="spacingAndGlyphs" textLength="165" x="26" y="40.5332">soen6441riskgame.utils</text></a><!--cluster soen6441riskgame.utils.presenter--><a target="_parent" xlink:actuate="onRequest" xlink:href="../../soen6441riskgame/utils/presenter/package-summary.html" xlink:show="new" xlink:title="soen6441riskgame.utils.presenter" xlink:type="simple"><polygon fill="#FFFFFF" filter="url(#fgui2sbv702vh)" points="385,24,630,24,637,47.6094,758,47.6094,758,108,385,108,385,24" style="stroke: #000000; stroke-width: 2.0;"/><line style="stroke: #000000; stroke-width: 2.0;" x1="385" x2="637" y1="47.6094" y2="47.6094"/><text fill="#000000" font-family="sans-serif" font-size="14" font-weight="bold" lengthAdjust="spacingAndGlyphs" textLength="239" x="389" y="40.5332">soen6441riskgame.utils.presenter</text></a><!--class soen6441riskgame.utils.ConsolePrinter--><a target="_parent" xlink:actuate="onRequest" xlink:href="../../soen6441riskgame/utils/ConsolePrinter.html" xlink:show="new" xlink:title="soen6441riskgame.utils.ConsolePrinter" xlink:type="simple"><rect fill="#FEFECE" filter="url(#fgui2sbv702vh)" height="32" id="soen6441riskgame.utils.ConsolePrinter" style="stroke: #A80036; stroke-width: 1.5;" width="138" x="38" y="60"/><ellipse cx="53" cy="76" fill="#ADD1B2" rx="11" ry="11" style="stroke: #A80036; stroke-width: 1.0;"/><path d="M55.7656,71.875 Q55.9219,71.6563 56.1094,71.5469 Q56.2969,71.4375 56.5156,71.4375 Q56.8906,71.4375 57.125,71.6953 Q57.3594,71.9531 57.3594,72.5625 L57.3594,74.0156 Q57.3594,74.625 57.125,74.8906 Q56.8906,75.1563 56.5156,75.1563 Q56.1719,75.1563 55.9688,74.9531 Q55.7656,74.7656 55.6563,74.25 Q55.6094,73.8906 55.4219,73.7031 Q55.0938,73.3281 54.4844,73.1094 Q53.875,72.8906 53.25,72.8906 Q52.4844,72.8906 51.8516,73.2188 Q51.2188,73.5469 50.7266,74.2969 Q50.2344,75.0469 50.2344,76.0781 L50.2344,77.1719 Q50.2344,78.4063 51.125,79.2266 Q52.0156,80.0469 53.6094,80.0469 Q54.5469,80.0469 55.2031,79.7969 Q55.5938,79.6406 56.0156,79.2031 Q56.2813,78.9375 56.4297,78.8594 Q56.5781,78.7813 56.7813,78.7813 Q57.1094,78.7813 57.3672,79.0391 Q57.625,79.2969 57.625,79.6406 Q57.625,79.9844 57.2813,80.3906 Q56.7813,80.9688 55.9844,81.2969 Q54.9063,81.75 53.6094,81.75 Q52.0938,81.75 50.8906,81.125 Q49.9063,80.625 49.2188,79.5547 Q48.5313,78.4844 48.5313,77.2031 L48.5313,76.0469 Q48.5313,74.7188 49.1484,73.5703 Q49.7656,72.4219 50.8594,71.8047 Q51.9531,71.1875 53.1875,71.1875 Q53.9219,71.1875 54.5703,71.3516 Q55.2188,71.5156 55.7656,71.875 Z "/><text fill="#000000" font-family="sans-serif" font-size="14" font-weight="bold" lengthAdjust="spacingAndGlyphs" textLength="106" x="67" y="81.7285">ConsolePrinter</text></a><!--class soen6441riskgame.utils.GraphChecker--><a target="_parent" xlink:actuate="onRequest" xlink:href="../../soen6441riskgame/utils/GraphChecker.html" xlink:show="new" xlink:title="soen6441riskgame.utils.GraphChecker" xlink:type="simple"><rect fill="#FEFECE" filter="url(#fgui2sbv702vh)" height="32" id="soen6441riskgame.utils.GraphChecker" style="stroke: #A80036; stroke-width: 1.5;" width="134" x="211" y="60"/><ellipse cx="226" cy="76" fill="#ADD1B2" rx="11" ry="11" style="stroke: #A80036; stroke-width: 1.0;"/><path d="M228.7656,71.875 Q228.9219,71.6563 229.1094,71.5469 Q229.2969,71.4375 229.5156,71.4375 Q229.8906,71.4375 230.125,71.6953 Q230.3594,71.9531 230.3594,72.5625 L230.3594,74.0156 Q230.3594,74.625 230.125,74.8906 Q229.8906,75.1563 229.5156,75.1563 Q229.1719,75.1563 228.9688,74.9531 Q228.7656,74.7656 228.6563,74.25 Q228.6094,73.8906 228.4219,73.7031 Q228.0938,73.3281 227.4844,73.1094 Q226.875,72.8906 226.25,72.8906 Q225.4844,72.8906 224.8516,73.2188 Q224.2188,73.5469 223.7266,74.2969 Q223.2344,75.0469 223.2344,76.0781 L223.2344,77.1719 Q223.2344,78.4063 224.125,79.2266 Q225.0156,80.0469 226.6094,80.0469 Q227.5469,80.0469 228.2031,79.7969 Q228.5938,79.6406 229.0156,79.2031 Q229.2813,78.9375 229.4297,78.8594 Q229.5781,78.7813 229.7813,78.7813 Q230.1094,78.7813 230.3672,79.0391 Q230.625,79.2969 230.625,79.6406 Q230.625,79.9844 230.2813,80.3906 Q229.7813,80.9688 228.9844,81.2969 Q227.9063,81.75 226.6094,81.75 Q225.0938,81.75 223.8906,81.125 Q222.9063,80.625 222.2188,79.5547 Q221.5313,78.4844 221.5313,77.2031 L221.5313,76.0469 Q221.5313,74.7188 222.1484,73.5703 Q222.7656,72.4219 223.8594,71.8047 Q224.9531,71.1875 226.1875,71.1875 Q226.9219,71.1875 227.5703,71.3516 Q228.2188,71.5156 228.7656,71.875 Z "/><text fill="#000000" font-family="sans-serif" font-size="14" font-weight="bold" lengthAdjust="spacingAndGlyphs" textLength="102" x="240" y="81.7285">GraphChecker</text></a><!--class soen6441riskgame.utils.Parser--><a target="_parent" xlink:actuate="onRequest" xlink:href="../../soen6441riskgame/utils/Parser.html" xlink:show="new" xlink:title="soen6441riskgame.utils.Parser" xlink:type="simple"><rect fill="#FEFECE" filter="url(#fgui2sbv702vh)" height="32" id="soen6441riskgame.utils.Parser" style="stroke: #A80036; stroke-width: 1.5;" width="78" x="68" y="152"/><ellipse cx="83" cy="168" fill="#ADD1B2" rx="11" ry="11" style="stroke: #A80036; stroke-width: 1.0;"/><path d="M85.7656,163.875 Q85.9219,163.6563 86.1094,163.5469 Q86.2969,163.4375 86.5156,163.4375 Q86.8906,163.4375 87.125,163.6953 Q87.3594,163.9531 87.3594,164.5625 L87.3594,166.0156 Q87.3594,166.625 87.125,166.8906 Q86.8906,167.1563 86.5156,167.1563 Q86.1719,167.1563 85.9688,166.9531 Q85.7656,166.7656 85.6563,166.25 Q85.6094,165.8906 85.4219,165.7031 Q85.0938,165.3281 84.4844,165.1094 Q83.875,164.8906 83.25,164.8906 Q82.4844,164.8906 81.8516,165.2188 Q81.2188,165.5469 80.7266,166.2969 Q80.2344,167.0469 80.2344,168.0781 L80.2344,169.1719 Q80.2344,170.4063 81.125,171.2266 Q82.0156,172.0469 83.6094,172.0469 Q84.5469,172.0469 85.2031,171.7969 Q85.5938,171.6406 86.0156,171.2031 Q86.2813,170.9375 86.4297,170.8594 Q86.5781,170.7813 86.7813,170.7813 Q87.1094,170.7813 87.3672,171.0391 Q87.625,171.2969 87.625,171.6406 Q87.625,171.9844 87.2813,172.3906 Q86.7813,172.9688 85.9844,173.2969 Q84.9063,173.75 83.6094,173.75 Q82.0938,173.75 80.8906,173.125 Q79.9063,172.625 79.2188,171.5547 Q78.5313,170.4844 78.5313,169.2031 L78.5313,168.0469 Q78.5313,166.7188 79.1484,165.5703 Q79.7656,164.4219 80.8594,163.8047 Q81.9531,163.1875 83.1875,163.1875 Q83.9219,163.1875 84.5703,163.3516 Q85.2188,163.5156 85.7656,163.875 Z "/><text fill="#000000" font-family="sans-serif" font-size="14" font-weight="bold" lengthAdjust="spacingAndGlyphs" textLength="46" x="97" y="173.7285">Parser</text></a><!--class soen6441riskgame.utils.presenter.WindowOutputStream--><a target="_parent" xlink:actuate="onRequest" xlink:href="../../soen6441riskgame/utils/presenter/WindowOutputStream.html" xlink:show="new" xlink:title="soen6441riskgame.utils.presenter.WindowOutputStream" xlink:type="simple"><rect fill="#FEFECE" filter="url(#fgui2sbv702vh)" height="32" id="soen6441riskgame.utils.presenter.WindowOutputStream" style="stroke: #A80036; stroke-width: 1.5;" width="184" x="558" y="60"/><ellipse cx="573" cy="76" fill="#ADD1B2" rx="11" ry="11" style="stroke: #A80036; stroke-width: 1.0;"/><path d="M575.7656,71.875 Q575.9219,71.6563 576.1094,71.5469 Q576.2969,71.4375 576.5156,71.4375 Q576.8906,71.4375 577.125,71.6953 Q577.3594,71.9531 577.3594,72.5625 L577.3594,74.0156 Q577.3594,74.625 577.125,74.8906 Q576.8906,75.1563 576.5156,75.1563 Q576.1719,75.1563 575.9688,74.9531 Q575.7656,74.7656 575.6563,74.25 Q575.6094,73.8906 575.4219,73.7031 Q575.0938,73.3281 574.4844,73.1094 Q573.875,72.8906 573.25,72.8906 Q572.4844,72.8906 571.8516,73.2188 Q571.2188,73.5469 570.7266,74.2969 Q570.2344,75.0469 570.2344,76.0781 L570.2344,77.1719 Q570.2344,78.4063 571.125,79.2266 Q572.0156,80.0469 573.6094,80.0469 Q574.5469,80.0469 575.2031,79.7969 Q575.5938,79.6406 576.0156,79.2031 Q576.2813,78.9375 576.4297,78.8594 Q576.5781,78.7813 576.7813,78.7813 Q577.1094,78.7813 577.3672,79.0391 Q577.625,79.2969 577.625,79.6406 Q577.625,79.9844 577.2813,80.3906 Q576.7813,80.9688 575.9844,81.2969 Q574.9063,81.75 573.6094,81.75 Q572.0938,81.75 570.8906,81.125 Q569.9063,80.625 569.2188,79.5547 Q568.5313,78.4844 568.5313,77.2031 L568.5313,76.0469 Q568.5313,74.7188 569.1484,73.5703 Q569.7656,72.4219 570.8594,71.8047 Q571.9531,71.1875 573.1875,71.1875 Q573.9219,71.1875 574.5703,71.3516 Q575.2188,71.5156 575.7656,71.875 Z "/><text fill="#000000" font-family="sans-serif" font-size="14" font-weight="bold" lengthAdjust="spacingAndGlyphs" textLength="152" x="587" y="81.7285">WindowOutputStream</text></a><!--class soen6441riskgame.utils.presenter.WindowPane--><a target="_parent" xlink:actuate="onRequest" xlink:href="../../soen6441riskgame/utils/presenter/WindowPane.html" xlink:show="new" xlink:title="soen6441riskgame.utils.presenter.WindowPane" xlink:type="simple"><rect fill="#FEFECE" filter="url(#fgui2sbv702vh)" height="32" id="soen6441riskgame.utils.presenter.WindowPane" style="stroke: #A80036; stroke-width: 1.5;" width="122" x="401" y="60"/><ellipse cx="416" cy="76" fill="#ADD1B2" rx="11" ry="11" style="stroke: #A80036; stroke-width: 1.0;"/><path d="M418.7656,71.875 Q418.9219,71.6563 419.1094,71.5469 Q419.2969,71.4375 419.5156,71.4375 Q419.8906,71.4375 420.125,71.6953 Q420.3594,71.9531 420.3594,72.5625 L420.3594,74.0156 Q420.3594,74.625 420.125,74.8906 Q419.8906,75.1563 419.5156,75.1563 Q419.1719,75.1563 418.9688,74.9531 Q418.7656,74.7656 418.6563,74.25 Q418.6094,73.8906 418.4219,73.7031 Q418.0938,73.3281 417.4844,73.1094 Q416.875,72.8906 416.25,72.8906 Q415.4844,72.8906 414.8516,73.2188 Q414.2188,73.5469 413.7266,74.2969 Q413.2344,75.0469 413.2344,76.0781 L413.2344,77.1719 Q413.2344,78.4063 414.125,79.2266 Q415.0156,80.0469 416.6094,80.0469 Q417.5469,80.0469 418.2031,79.7969 Q418.5938,79.6406 419.0156,79.2031 Q419.2813,78.9375 419.4297,78.8594 Q419.5781,78.7813 419.7813,78.7813 Q420.1094,78.7813 420.3672,79.0391 Q420.625,79.2969 420.625,79.6406 Q420.625,79.9844 420.2813,80.3906 Q419.7813,80.9688 418.9844,81.2969 Q417.9063,81.75 416.6094,81.75 Q415.0938,81.75 413.8906,81.125 Q412.9063,80.625 412.2188,79.5547 Q411.5313,78.4844 411.5313,77.2031 L411.5313,76.0469 Q411.5313,74.7188 412.1484,73.5703 Q412.7656,72.4219 413.8594,71.8047 Q414.9531,71.1875 416.1875,71.1875 Q416.9219,71.1875 417.5703,71.3516 Q418.2188,71.5156 418.7656,71.875 Z "/><text fill="#000000" font-family="sans-serif" font-size="14" font-weight="bold" lengthAdjust="spacingAndGlyphs" textLength="90" x="430" y="81.7285">WindowPane</text></a><!--link soen6441riskgame.utils.ConsolePrinter to soen6441riskgame.utils.GraphChecker--><!--link soen6441riskgame.utils.ConsolePrinter to soen6441riskgame.utils.Parser--><!--
@startuml

skinparam svgLinkTarget _parent
skinparam linetype ortho
package soen6441riskgame.utils [[../../soen6441riskgame/utils/package-summary.html{soen6441riskgame.utils}]] #lightyellow {
}

class "<b><size:14>ConsolePrinter</b>" as soen6441riskgame.utils.ConsolePrinter  [[../../soen6441riskgame/utils/ConsolePrinter.html{soen6441riskgame.utils.ConsolePrinter}]] {
}

hide soen6441riskgame.utils.ConsolePrinter fields
hide soen6441riskgame.utils.ConsolePrinter methods

class "<b><size:14>GraphChecker</b>" as soen6441riskgame.utils.GraphChecker  [[../../soen6441riskgame/utils/GraphChecker.html{soen6441riskgame.utils.GraphChecker}]] {
}

hide soen6441riskgame.utils.GraphChecker fields
hide soen6441riskgame.utils.GraphChecker methods

class "<b><size:14>Parser</b>" as soen6441riskgame.utils.Parser  [[../../soen6441riskgame/utils/Parser.html{soen6441riskgame.utils.Parser}]] {
}

hide soen6441riskgame.utils.Parser fields
hide soen6441riskgame.utils.Parser methods

package soen6441riskgame.utils.presenter [[../../soen6441riskgame/utils/presenter/package-summary.html{soen6441riskgame.utils.presenter}]] {
}

class "<b><size:14>WindowOutputStream</b>" as soen6441riskgame.utils.presenter.WindowOutputStream  [[../../soen6441riskgame/utils/presenter/WindowOutputStream.html{soen6441riskgame.utils.presenter.WindowOutputStream}]] {
}

hide soen6441riskgame.utils.presenter.WindowOutputStream fields
hide soen6441riskgame.utils.presenter.WindowOutputStream methods

class "<b><size:14>WindowPane</b>" as soen6441riskgame.utils.presenter.WindowPane  [[../../soen6441riskgame/utils/presenter/WindowPane.html{soen6441riskgame.utils.presenter.WindowPane}]] {
}

hide soen6441riskgame.utils.presenter.WindowPane fields
hide soen6441riskgame.utils.presenter.WindowPane methods


@enduml

PlantUML version 1.2017.15(Mon Jul 03 12:45:34 EDT 2017)
(GPL source distribution)
Java Runtime: Java(TM) SE Runtime Environment
JVM: Java HotSpot(TM) 64-Bit Server VM
Java Version: 1.8.0_231-b11
Operating System: Windows 10
OS Version: 10.0
Default Encoding: Cp1252
Language: en
Country: US
--></g></svg>