<?xml version="1.0" encoding="UTF-8" standalone="no"?><svg xmlns="http://www.w3.org/2000/svg" xmlns:xlink="http://www.w3.org/1999/xlink" contentScriptType="application/ecmascript" contentStyleType="text/css" height="282px" preserveAspectRatio="none" style="width:228px;height:282px;" version="1.1" viewBox="0 0 228 282" width="228px" zoomAndPan="magnify"><defs><filter height="300%" id="f19tbkv2n3t3zp" width="300%" x="-1" y="-1"><feGaussianBlur result="blurOut" stdDeviation="2.0"/><feColorMatrix in="blurOut" result="blurOut2" type="matrix" values="0 0 0 0 0 0 0 0 0 0 0 0 0 0 0 0 0 0 .4 0"/><feOffset dx="4.0" dy="4.0" in="blurOut2" result="blurOut3"/><feBlend in="SourceGraphic" in2="blurOut3" mode="normal"/></filter></defs><g><!--class soen6441riskgame.models.commands.GameCommands--><a target="_parent" xlink:actuate="onRequest" xlink:href="../../../soen6441riskgame/models/commands/GameCommands.html" xlink:show="new" xlink:title="soen6441riskgame.models.commands.GameCommands" xlink:type="simple"><rect fill="#FEFECE" filter="url(#f19tbkv2n3t3zp)" height="263.7266" id="soen6441riskgame.models.commands.GameCommands" style="stroke: #A80036; stroke-width: 1.5;" width="211" x="6" y="8"/><ellipse cx="21" cy="28.0938" fill="#ADD1B2" rx="11" ry="11" style="stroke: #A80036; stroke-width: 1.0;"/><path d="M23.7656,23.9688 Q23.9219,23.75 24.1094,23.6406 Q24.2969,23.5313 24.5156,23.5313 Q24.8906,23.5313 25.125,23.7891 Q25.3594,24.0469 25.3594,24.6563 L25.3594,26.1094 Q25.3594,26.7188 25.125,26.9844 Q24.8906,27.25 24.5156,27.25 Q24.1719,27.25 23.9688,27.0469 Q23.7656,26.8594 23.6563,26.3438 Q23.6094,25.9844 23.4219,25.7969 Q23.0938,25.4219 22.4844,25.2031 Q21.875,24.9844 21.25,24.9844 Q20.4844,24.9844 19.8516,25.3125 Q19.2188,25.6406 18.7266,26.3906 Q18.2344,27.1406 18.2344,28.1719 L18.2344,29.2656 Q18.2344,30.5 19.125,31.3203 Q20.0156,32.1406 21.6094,32.1406 Q22.5469,32.1406 23.2031,31.8906 Q23.5938,31.7344 24.0156,31.2969 Q24.2813,31.0313 24.4297,30.9531 Q24.5781,30.875 24.7813,30.875 Q25.1094,30.875 25.3672,31.1328 Q25.625,31.3906 25.625,31.7344 Q25.625,32.0781 25.2813,32.4844 Q24.7813,33.0625 23.9844,33.3906 Q22.9063,33.8438 21.6094,33.8438 Q20.0938,33.8438 18.8906,33.2188 Q17.9063,32.7188 17.2188,31.6484 Q16.5313,30.5781 16.5313,29.2969 L16.5313,28.1406 Q16.5313,26.8125 17.1484,25.6641 Q17.7656,24.5156 18.8594,23.8984 Q19.9531,23.2813 21.1875,23.2813 Q21.9219,23.2813 22.5703,23.4453 Q23.2188,23.6094 23.7656,23.9688 Z "/><text fill="#000000" font-family="sans-serif" font-size="14" font-weight="bold" lengthAdjust="spacingAndGlyphs" textLength="117" x="66" y="27.5332">GameCommands</text><text fill="#000000" font-family="sans-serif" font-size="10" lengthAdjust="spacingAndGlyphs" textLength="179" x="35" y="40.9902">soen6441riskgame.models.commands</text><line style="stroke: #A80036; stroke-width: 1.5;" x1="7" x2="216" y1="48.1875" y2="48.1875"/><ellipse cx="17" cy="60.6055" fill="none" rx="3" ry="3" style="stroke: #038048; stroke-width: 1.0;"/><text fill="#000000" font-family="sans-serif" font-size="11" lengthAdjust="spacingAndGlyphs" text-decoration="underline" textLength="102" x="26" y="63.6064">String GAMEPLAYER</text><line style="stroke: #000000; stroke-width: 1.0;" x1="26" x2="128" y1="65.6064" y2="65.6064"/><ellipse cx="17" cy="74.4414" fill="none" rx="3" ry="3" style="stroke: #038048; stroke-width: 1.0;"/><text fill="#000000" font-family="sans-serif" font-size="11" lengthAdjust="spacingAndGlyphs" text-decoration="underline" textLength="141" x="26" y="77.4424">String POPULATECOUNTRIES</text><line style="stroke: #000000; stroke-width: 1.0;" x1="26" x2="167" y1="79.4424" y2="79.4424"/><ellipse cx="17" cy="88.2773" fill="none" rx="3" ry="3" style="stroke: #038048; stroke-width: 1.0;"/><text fill="#000000" font-family="sans-serif" font-size="11" lengthAdjust="spacingAndGlyphs" text-decoration="underline" textLength="95" x="26" y="91.2783">String PLACEARMY</text><line style="stroke: #000000; stroke-width: 1.0;" x1="26" x2="121" y1="93.2783" y2="93.2783"/><ellipse cx="17" cy="102.1133" fill="none" rx="3" ry="3" style="stroke: #038048; stroke-width: 1.0;"/><text fill="#000000" font-family="sans-serif" font-size="11" lengthAdjust="spacingAndGlyphs" text-decoration="underline" textLength="84" x="26" y="105.1143">String PLACEALL</text><line style="stroke: #000000; stroke-width: 1.0;" x1="26" x2="110" y1="107.1143" y2="107.1143"/><ellipse cx="17" cy="115.9492" fill="none" rx="3" ry="3" style="stroke: #038048; stroke-width: 1.0;"/><text fill="#000000" font-family="sans-serif" font-size="11" lengthAdjust="spacingAndGlyphs" text-decoration="underline" textLength="87" x="26" y="118.9502">String REINFORCE</text><line style="stroke: #000000; stroke-width: 1.0;" x1="26" x2="113" y1="120.9502" y2="120.9502"/><ellipse cx="17" cy="129.7852" fill="none" rx="3" ry="3" style="stroke: #038048; stroke-width: 1.0;"/><text fill="#000000" font-family="sans-serif" font-size="11" lengthAdjust="spacingAndGlyphs" text-decoration="underline" textLength="73" x="26" y="132.7861">String ATTACK</text><line style="stroke: #000000; stroke-width: 1.0;" x1="26" x2="99" y1="134.7861" y2="134.7861"/><ellipse cx="17" cy="143.6211" fill="none" rx="3" ry="3" style="stroke: #038048; stroke-width: 1.0;"/><text fill="#000000" font-family="sans-serif" font-size="11" lengthAdjust="spacingAndGlyphs" text-decoration="underline" textLength="70" x="26" y="146.6221">String DEFEND</text><line style="stroke: #000000; stroke-width: 1.0;" x1="26" x2="96" y1="148.6221" y2="148.6221"/><ellipse cx="17" cy="157.457" fill="none" rx="3" ry="3" style="stroke: #038048; stroke-width: 1.0;"/><text fill="#000000" font-family="sans-serif" font-size="11" lengthAdjust="spacingAndGlyphs" text-decoration="underline" textLength="74" x="26" y="160.458">String FORTIFY</text><line style="stroke: #000000; stroke-width: 1.0;" x1="26" x2="100" y1="162.458" y2="162.458"/><ellipse cx="17" cy="171.293" fill="none" rx="3" ry="3" style="stroke: #038048; stroke-width: 1.0;"/><text fill="#000000" font-family="sans-serif" font-size="11" lengthAdjust="spacingAndGlyphs" text-decoration="underline" textLength="119" x="26" y="174.2939">String CURRENTPLAYER</text><line style="stroke: #000000; stroke-width: 1.0;" x1="26" x2="145" y1="176.2939" y2="176.2939"/><ellipse cx="17" cy="185.1289" fill="none" rx="3" ry="3" style="stroke: #038048; stroke-width: 1.0;"/><text fill="#000000" font-family="sans-serif" font-size="11" lengthAdjust="spacingAndGlyphs" text-decoration="underline" textLength="123" x="26" y="188.1299">String EXCHANGECARDS</text><line style="stroke: #000000; stroke-width: 1.0;" x1="26" x2="149" y1="190.1299" y2="190.1299"/><ellipse cx="17" cy="198.9648" fill="none" rx="3" ry="3" style="stroke: #038048; stroke-width: 1.0;"/><text fill="#000000" font-family="sans-serif" font-size="11" lengthAdjust="spacingAndGlyphs" text-decoration="underline" textLength="59" x="26" y="201.9658">String NONE</text><line style="stroke: #000000; stroke-width: 1.0;" x1="26" x2="85" y1="203.9658" y2="203.9658"/><ellipse cx="17" cy="212.8008" fill="none" rx="3" ry="3" style="stroke: #038048; stroke-width: 1.0;"/><text fill="#000000" font-family="sans-serif" font-size="11" lengthAdjust="spacingAndGlyphs" text-decoration="underline" textLength="52" x="26" y="215.8018">String EXIT</text><line style="stroke: #000000; stroke-width: 1.0;" x1="26" x2="78" y1="217.8018" y2="217.8018"/><ellipse cx="17" cy="226.6367" fill="none" rx="3" ry="3" style="stroke: #038048; stroke-width: 1.0;"/><text fill="#000000" font-family="sans-serif" font-size="11" lengthAdjust="spacingAndGlyphs" text-decoration="underline" textLength="103" x="26" y="229.6377">String ATTACKMOVE</text><line style="stroke: #000000; stroke-width: 1.0;" x1="26" x2="129" y1="231.6377" y2="231.6377"/><ellipse cx="17" cy="240.4727" fill="none" rx="3" ry="3" style="stroke: #038048; stroke-width: 1.0;"/><text fill="#000000" font-family="sans-serif" font-size="11" lengthAdjust="spacingAndGlyphs" text-decoration="underline" textLength="72" x="26" y="243.4736">String ALLOUT</text><line style="stroke: #000000; stroke-width: 1.0;" x1="26" x2="98" y1="245.4736" y2="245.4736"/><line style="stroke: #A80036; stroke-width: 1.5;" x1="7" x2="216" y1="249.8906" y2="249.8906"/><ellipse cx="17" cy="262.3086" fill="#84BE84" rx="3" ry="3" style="stroke: #038048; stroke-width: 1.0;"/><text fill="#000000" font-family="sans-serif" font-size="11" lengthAdjust="spacingAndGlyphs" textLength="89" x="26" y="265.3096">GameCommands()</text></a><!--
@startuml

skinparam svgLinkTarget _parent
skinparam linetype ortho
set namespaceSeparator none
class "<b><size:14>GameCommands</b>\n<size:10>soen6441riskgame.models.commands" as soen6441riskgame.models.commands.GameCommands  [[../../../soen6441riskgame/models/commands/GameCommands.html{soen6441riskgame.models.commands.GameCommands}]] {
{static} +String GAMEPLAYER
{static} +String POPULATECOUNTRIES
{static} +String PLACEARMY
{static} +String PLACEALL
{static} +String REINFORCE
{static} +String ATTACK
{static} +String DEFEND
{static} +String FORTIFY
{static} +String CURRENTPLAYER
{static} +String EXCHANGECARDS
{static} +String NONE
{static} +String EXIT
{static} +String ATTACKMOVE
{static} +String ALLOUT
+GameCommands()
}



@enduml

PlantUML version 1.2017.15(Mon Jul 03 12:45:34 EDT 2017)
(GPL source distribution)
Java Runtime: Java(TM) SE Runtime Environment
JVM: Java HotSpot(TM) 64-Bit Server VM
Java Version: 1.8.0_231-b11
Operating System: Windows 10
OS Version: 10.0
Default Encoding: Cp1252
Language: en
Country: US
--></g></svg>