<?xml version="1.0" encoding="UTF-8" standalone="no"?><svg xmlns="http://www.w3.org/2000/svg" xmlns:xlink="http://www.w3.org/1999/xlink" contentScriptType="application/ecmascript" contentStyleType="text/css" height="212px" preserveAspectRatio="none" style="width:442px;height:212px;" version="1.1" viewBox="0 0 442 212" width="442px" zoomAndPan="magnify"><defs><filter height="300%" id="f14bo9ss9h2rtv" width="300%" x="-1" y="-1"><feGaussianBlur result="blurOut" stdDeviation="2.0"/><feColorMatrix in="blurOut" result="blurOut2" type="matrix" values="0 0 0 0 0 0 0 0 0 0 0 0 0 0 0 0 0 0 .4 0"/><feOffset dx="4.0" dy="4.0" in="blurOut2" result="blurOut3"/><feBlend in="SourceGraphic" in2="blurOut3" mode="normal"/></filter></defs><g><!--cluster soen6441riskgame.models.commands--><a target="_parent" xlink:actuate="onRequest" xlink:href="../../../soen6441riskgame/models/commands/package-summary.html" xlink:show="new" xlink:title="soen6441riskgame.models.commands" xlink:type="simple"><polygon fill="#FFFFE0" filter="url(#f14bo9ss9h2rtv)" points="22,24,293,24,300,47.6094,420,47.6094,420,200,22,200,22,24" style="stroke: #000000; stroke-width: 2.0;"/><line style="stroke: #000000; stroke-width: 2.0;" x1="22" x2="300" y1="47.6094" y2="47.6094"/><text fill="#000000" font-family="sans-serif" font-size="14" font-weight="bold" lengthAdjust="spacingAndGlyphs" textLength="265" x="26" y="40.5332">soen6441riskgame.models.commands</text></a><!--class soen6441riskgame.models.commands.GameCommands--><a target="_parent" xlink:actuate="onRequest" xlink:href="../../../soen6441riskgame/models/commands/GameCommands.html" xlink:show="new" xlink:title="soen6441riskgame.models.commands.GameCommands" xlink:type="simple"><rect fill="#FEFECE" filter="url(#f14bo9ss9h2rtv)" height="32" id="soen6441riskgame.models.commands.GameCommands" style="stroke: #A80036; stroke-width: 1.5;" width="149" x="38.5" y="60"/><ellipse cx="53.5" cy="76" fill="#ADD1B2" rx="11" ry="11" style="stroke: #A80036; stroke-width: 1.0;"/><path d="M56.2656,71.875 Q56.4219,71.6563 56.6094,71.5469 Q56.7969,71.4375 57.0156,71.4375 Q57.3906,71.4375 57.625,71.6953 Q57.8594,71.9531 57.8594,72.5625 L57.8594,74.0156 Q57.8594,74.625 57.625,74.8906 Q57.3906,75.1563 57.0156,75.1563 Q56.6719,75.1563 56.4688,74.9531 Q56.2656,74.7656 56.1563,74.25 Q56.1094,73.8906 55.9219,73.7031 Q55.5938,73.3281 54.9844,73.1094 Q54.375,72.8906 53.75,72.8906 Q52.9844,72.8906 52.3516,73.2188 Q51.7188,73.5469 51.2266,74.2969 Q50.7344,75.0469 50.7344,76.0781 L50.7344,77.1719 Q50.7344,78.4063 51.625,79.2266 Q52.5156,80.0469 54.1094,80.0469 Q55.0469,80.0469 55.7031,79.7969 Q56.0938,79.6406 56.5156,79.2031 Q56.7813,78.9375 56.9297,78.8594 Q57.0781,78.7813 57.2813,78.7813 Q57.6094,78.7813 57.8672,79.0391 Q58.125,79.2969 58.125,79.6406 Q58.125,79.9844 57.7813,80.3906 Q57.2813,80.9688 56.4844,81.2969 Q55.4063,81.75 54.1094,81.75 Q52.5938,81.75 51.3906,81.125 Q50.4063,80.625 49.7188,79.5547 Q49.0313,78.4844 49.0313,77.2031 L49.0313,76.0469 Q49.0313,74.7188 49.6484,73.5703 Q50.2656,72.4219 51.3594,71.8047 Q52.4531,71.1875 53.6875,71.1875 Q54.4219,71.1875 55.0703,71.3516 Q55.7188,71.5156 56.2656,71.875 Z "/><text fill="#000000" font-family="sans-serif" font-size="14" font-weight="bold" lengthAdjust="spacingAndGlyphs" textLength="117" x="67.5" y="81.7285">GameCommands</text></a><!--class soen6441riskgame.models.commands.MapEditorCommands--><a target="_parent" xlink:actuate="onRequest" xlink:href="../../../soen6441riskgame/models/commands/MapEditorCommands.html" xlink:show="new" xlink:title="soen6441riskgame.models.commands.MapEditorCommands" xlink:type="simple"><rect fill="#FEFECE" filter="url(#f14bo9ss9h2rtv)" height="32" id="soen6441riskgame.models.commands.MapEditorCommands" style="stroke: #A80036; stroke-width: 1.5;" width="181" x="222.5" y="60"/><ellipse cx="237.5" cy="76" fill="#ADD1B2" rx="11" ry="11" style="stroke: #A80036; stroke-width: 1.0;"/><path d="M240.2656,71.875 Q240.4219,71.6563 240.6094,71.5469 Q240.7969,71.4375 241.0156,71.4375 Q241.3906,71.4375 241.625,71.6953 Q241.8594,71.9531 241.8594,72.5625 L241.8594,74.0156 Q241.8594,74.625 241.625,74.8906 Q241.3906,75.1563 241.0156,75.1563 Q240.6719,75.1563 240.4688,74.9531 Q240.2656,74.7656 240.1563,74.25 Q240.1094,73.8906 239.9219,73.7031 Q239.5938,73.3281 238.9844,73.1094 Q238.375,72.8906 237.75,72.8906 Q236.9844,72.8906 236.3516,73.2188 Q235.7188,73.5469 235.2266,74.2969 Q234.7344,75.0469 234.7344,76.0781 L234.7344,77.1719 Q234.7344,78.4063 235.625,79.2266 Q236.5156,80.0469 238.1094,80.0469 Q239.0469,80.0469 239.7031,79.7969 Q240.0938,79.6406 240.5156,79.2031 Q240.7813,78.9375 240.9297,78.8594 Q241.0781,78.7813 241.2813,78.7813 Q241.6094,78.7813 241.8672,79.0391 Q242.125,79.2969 242.125,79.6406 Q242.125,79.9844 241.7813,80.3906 Q241.2813,80.9688 240.4844,81.2969 Q239.4063,81.75 238.1094,81.75 Q236.5938,81.75 235.3906,81.125 Q234.4063,80.625 233.7188,79.5547 Q233.0313,78.4844 233.0313,77.2031 L233.0313,76.0469 Q233.0313,74.7188 233.6484,73.5703 Q234.2656,72.4219 235.3594,71.8047 Q236.4531,71.1875 237.6875,71.1875 Q238.4219,71.1875 239.0703,71.3516 Q239.7188,71.5156 240.2656,71.875 Z "/><text fill="#000000" font-family="sans-serif" font-size="14" font-weight="bold" lengthAdjust="spacingAndGlyphs" textLength="149" x="251.5" y="81.7285">MapEditorCommands</text></a><!--class soen6441riskgame.models.commands.TournamentCommands--><a target="_parent" xlink:actuate="onRequest" xlink:href="../../../soen6441riskgame/models/commands/TournamentCommands.html" xlink:show="new" xlink:title="soen6441riskgame.models.commands.TournamentCommands" xlink:type="simple"><rect fill="#FEFECE" filter="url(#f14bo9ss9h2rtv)" height="32" id="soen6441riskgame.models.commands.TournamentCommands" style="stroke: #A80036; stroke-width: 1.5;" width="193" x="38.5" y="152"/><ellipse cx="53.5" cy="168" fill="#ADD1B2" rx="11" ry="11" style="stroke: #A80036; stroke-width: 1.0;"/><path d="M56.2656,163.875 Q56.4219,163.6563 56.6094,163.5469 Q56.7969,163.4375 57.0156,163.4375 Q57.3906,163.4375 57.625,163.6953 Q57.8594,163.9531 57.8594,164.5625 L57.8594,166.0156 Q57.8594,166.625 57.625,166.8906 Q57.3906,167.1563 57.0156,167.1563 Q56.6719,167.1563 56.4688,166.9531 Q56.2656,166.7656 56.1563,166.25 Q56.1094,165.8906 55.9219,165.7031 Q55.5938,165.3281 54.9844,165.1094 Q54.375,164.8906 53.75,164.8906 Q52.9844,164.8906 52.3516,165.2188 Q51.7188,165.5469 51.2266,166.2969 Q50.7344,167.0469 50.7344,168.0781 L50.7344,169.1719 Q50.7344,170.4063 51.625,171.2266 Q52.5156,172.0469 54.1094,172.0469 Q55.0469,172.0469 55.7031,171.7969 Q56.0938,171.6406 56.5156,171.2031 Q56.7813,170.9375 56.9297,170.8594 Q57.0781,170.7813 57.2813,170.7813 Q57.6094,170.7813 57.8672,171.0391 Q58.125,171.2969 58.125,171.6406 Q58.125,171.9844 57.7813,172.3906 Q57.2813,172.9688 56.4844,173.2969 Q55.4063,173.75 54.1094,173.75 Q52.5938,173.75 51.3906,173.125 Q50.4063,172.625 49.7188,171.5547 Q49.0313,170.4844 49.0313,169.2031 L49.0313,168.0469 Q49.0313,166.7188 49.6484,165.5703 Q50.2656,164.4219 51.3594,163.8047 Q52.4531,163.1875 53.6875,163.1875 Q54.4219,163.1875 55.0703,163.3516 Q55.7188,163.5156 56.2656,163.875 Z "/><text fill="#000000" font-family="sans-serif" font-size="14" font-weight="bold" lengthAdjust="spacingAndGlyphs" textLength="161" x="67.5" y="173.7285">TournamentCommands</text></a><!--link soen6441riskgame.models.commands.GameCommands to soen6441riskgame.models.commands.MapEditorCommands--><!--link soen6441riskgame.models.commands.GameCommands to soen6441riskgame.models.commands.TournamentCommands--><!--
@startuml

skinparam svgLinkTarget _parent
skinparam linetype ortho
package soen6441riskgame.models.commands [[../../../soen6441riskgame/models/commands/package-summary.html{soen6441riskgame.models.commands}]] #lightyellow {
}

class "<b><size:14>GameCommands</b>" as soen6441riskgame.models.commands.GameCommands  [[../../../soen6441riskgame/models/commands/GameCommands.html{soen6441riskgame.models.commands.GameCommands}]] {
}

hide soen6441riskgame.models.commands.GameCommands fields
hide soen6441riskgame.models.commands.GameCommands methods

class "<b><size:14>MapEditorCommands</b>" as soen6441riskgame.models.commands.MapEditorCommands  [[../../../soen6441riskgame/models/commands/MapEditorCommands.html{soen6441riskgame.models.commands.MapEditorCommands}]] {
}

hide soen6441riskgame.models.commands.MapEditorCommands fields
hide soen6441riskgame.models.commands.MapEditorCommands methods

class "<b><size:14>TournamentCommands</b>" as soen6441riskgame.models.commands.TournamentCommands  [[../../../soen6441riskgame/models/commands/TournamentCommands.html{soen6441riskgame.models.commands.TournamentCommands}]] {
}

hide soen6441riskgame.models.commands.TournamentCommands fields
hide soen6441riskgame.models.commands.TournamentCommands methods


@enduml

PlantUML version 1.2017.15(Mon Jul 03 12:45:34 EDT 2017)
(GPL source distribution)
Java Runtime: Java(TM) SE Runtime Environment
JVM: Java HotSpot(TM) 64-Bit Server VM
Java Version: 1.8.0_231-b11
Operating System: Windows 10
OS Version: 10.0
Default Encoding: Cp1252
Language: en
Country: US
--></g></svg>