<?xml version="1.0" encoding="UTF-8" standalone="no"?><svg xmlns="http://www.w3.org/2000/svg" xmlns:xlink="http://www.w3.org/1999/xlink" contentScriptType="application/ecmascript" contentStyleType="text/css" height="158px" preserveAspectRatio="none" style="width:280px;height:158px;" version="1.1" viewBox="0 0 280 158" width="280px" zoomAndPan="magnify"><defs><filter height="300%" id="fsfia0v3xch8m" width="300%" x="-1" y="-1"><feGaussianBlur result="blurOut" stdDeviation="2.0"/><feColorMatrix in="blurOut" result="blurOut2" type="matrix" values="0 0 0 0 0 0 0 0 0 0 0 0 0 0 0 0 0 0 .4 0"/><feOffset dx="4.0" dy="4.0" in="blurOut2" result="blurOut3"/><feBlend in="SourceGraphic" in2="blurOut3" mode="normal"/></filter></defs><g><!--class soen6441riskgame.models.commands.TournamentCommands--><a target="_parent" xlink:actuate="onRequest" xlink:href="../../../soen6441riskgame/models/commands/TournamentCommands.html" xlink:show="new" xlink:title="soen6441riskgame.models.commands.TournamentCommands" xlink:type="simple"><rect fill="#FEFECE" filter="url(#fsfia0v3xch8m)" height="139.2031" id="soen6441riskgame.models.commands.TournamentCommands" style="stroke: #A80036; stroke-width: 1.5;" width="263" x="6" y="8"/><ellipse cx="44.4" cy="28.0938" fill="#ADD1B2" rx="11" ry="11" style="stroke: #A80036; stroke-width: 1.0;"/><path d="M47.1656,23.9688 Q47.3219,23.75 47.5094,23.6406 Q47.6969,23.5313 47.9156,23.5313 Q48.2906,23.5313 48.525,23.7891 Q48.7594,24.0469 48.7594,24.6563 L48.7594,26.1094 Q48.7594,26.7188 48.525,26.9844 Q48.2906,27.25 47.9156,27.25 Q47.5719,27.25 47.3688,27.0469 Q47.1656,26.8594 47.0563,26.3438 Q47.0094,25.9844 46.8219,25.7969 Q46.4938,25.4219 45.8844,25.2031 Q45.275,24.9844 44.65,24.9844 Q43.8844,24.9844 43.2516,25.3125 Q42.6188,25.6406 42.1266,26.3906 Q41.6344,27.1406 41.6344,28.1719 L41.6344,29.2656 Q41.6344,30.5 42.525,31.3203 Q43.4156,32.1406 45.0094,32.1406 Q45.9469,32.1406 46.6031,31.8906 Q46.9938,31.7344 47.4156,31.2969 Q47.6813,31.0313 47.8297,30.9531 Q47.9781,30.875 48.1813,30.875 Q48.5094,30.875 48.7672,31.1328 Q49.025,31.3906 49.025,31.7344 Q49.025,32.0781 48.6813,32.4844 Q48.1813,33.0625 47.3844,33.3906 Q46.3063,33.8438 45.0094,33.8438 Q43.4938,33.8438 42.2906,33.2188 Q41.3063,32.7188 40.6188,31.6484 Q39.9313,30.5781 39.9313,29.2969 L39.9313,28.1406 Q39.9313,26.8125 40.5484,25.6641 Q41.1656,24.5156 42.2594,23.8984 Q43.3531,23.2813 44.5875,23.2813 Q45.3219,23.2813 45.9703,23.4453 Q46.6188,23.6094 47.1656,23.9688 Z "/><text fill="#000000" font-family="sans-serif" font-size="14" font-weight="bold" lengthAdjust="spacingAndGlyphs" textLength="161" x="72.6" y="27.5332">TournamentCommands</text><text fill="#000000" font-family="sans-serif" font-size="10" lengthAdjust="spacingAndGlyphs" textLength="179" x="63.6" y="40.9902">soen6441riskgame.models.commands</text><line style="stroke: #A80036; stroke-width: 1.5;" x1="7" x2="268" y1="48.1875" y2="48.1875"/><ellipse cx="17" cy="60.6055" fill="none" rx="3" ry="3" style="stroke: #038048; stroke-width: 1.0;"/><text fill="#000000" font-family="sans-serif" font-size="11" lengthAdjust="spacingAndGlyphs" text-decoration="underline" textLength="101" x="26" y="63.6064">String TOURNAMENT</text><line style="stroke: #000000; stroke-width: 1.0;" x1="26" x2="127" y1="65.6064" y2="65.6064"/><ellipse cx="17" cy="74.4414" fill="none" rx="3" ry="3" style="stroke: #038048; stroke-width: 1.0;"/><text fill="#000000" font-family="sans-serif" font-size="11" lengthAdjust="spacingAndGlyphs" text-decoration="underline" textLength="156" x="26" y="77.4424">String TOURNAMENT_MAP_LIST</text><line style="stroke: #000000; stroke-width: 1.0;" x1="26" x2="182" y1="79.4424" y2="79.4424"/><ellipse cx="17" cy="88.2773" fill="none" rx="3" ry="3" style="stroke: #038048; stroke-width: 1.0;"/><text fill="#000000" font-family="sans-serif" font-size="11" lengthAdjust="spacingAndGlyphs" text-decoration="underline" textLength="237" x="26" y="91.2783">String TOURNAMENT_PLAYER_STRATEGY_LIST</text><line style="stroke: #000000; stroke-width: 1.0;" x1="26" x2="263" y1="93.2783" y2="93.2783"/><ellipse cx="17" cy="102.1133" fill="none" rx="3" ry="3" style="stroke: #038048; stroke-width: 1.0;"/><text fill="#000000" font-family="sans-serif" font-size="11" lengthAdjust="spacingAndGlyphs" text-decoration="underline" textLength="205" x="26" y="105.1143">String TOURNAMENT_NUMBER_OF_GAME</text><line style="stroke: #000000; stroke-width: 1.0;" x1="26" x2="231" y1="107.1143" y2="107.1143"/><ellipse cx="17" cy="115.9492" fill="none" rx="3" ry="3" style="stroke: #038048; stroke-width: 1.0;"/><text fill="#000000" font-family="sans-serif" font-size="11" lengthAdjust="spacingAndGlyphs" text-decoration="underline" textLength="231" x="26" y="118.9502">String TOURNAMENT_MAX_NUMBER_OF_TURN</text><line style="stroke: #000000; stroke-width: 1.0;" x1="26" x2="257" y1="120.9502" y2="120.9502"/><line style="stroke: #A80036; stroke-width: 1.5;" x1="7" x2="268" y1="125.3672" y2="125.3672"/><ellipse cx="17" cy="137.7852" fill="#84BE84" rx="3" ry="3" style="stroke: #038048; stroke-width: 1.0;"/><text fill="#000000" font-family="sans-serif" font-size="11" lengthAdjust="spacingAndGlyphs" textLength="118" x="26" y="140.7861">TournamentCommands()</text></a><!--
@startuml

skinparam svgLinkTarget _parent
skinparam linetype ortho
set namespaceSeparator none
class "<b><size:14>TournamentCommands</b>\n<size:10>soen6441riskgame.models.commands" as soen6441riskgame.models.commands.TournamentCommands  [[../../../soen6441riskgame/models/commands/TournamentCommands.html{soen6441riskgame.models.commands.TournamentCommands}]] {
{static} +String TOURNAMENT
{static} +String TOURNAMENT_MAP_LIST
{static} +String TOURNAMENT_PLAYER_STRATEGY_LIST
{static} +String TOURNAMENT_NUMBER_OF_GAME
{static} +String TOURNAMENT_MAX_NUMBER_OF_TURN
+TournamentCommands()
}



@enduml

PlantUML version 1.2017.15(Mon Jul 03 12:45:34 EDT 2017)
(GPL source distribution)
Java Runtime: Java(TM) SE Runtime Environment
JVM: Java HotSpot(TM) 64-Bit Server VM
Java Version: 1.8.0_231-b11
Operating System: Windows 10
OS Version: 10.0
Default Encoding: Cp1252
Language: en
Country: US
--></g></svg>