<?xml version="1.0" encoding="UTF-8" standalone="no"?><svg xmlns="http://www.w3.org/2000/svg" xmlns:xlink="http://www.w3.org/1999/xlink" contentScriptType="application/ecmascript" contentStyleType="text/css" height="729px" preserveAspectRatio="none" style="width:427px;height:729px;" version="1.1" viewBox="0 0 427 729" width="427px" zoomAndPan="magnify"><defs><filter height="300%" id="f15xtv3xwzz7qy" width="300%" x="-1" y="-1"><feGaussianBlur result="blurOut" stdDeviation="2.0"/><feColorMatrix in="blurOut" result="blurOut2" type="matrix" values="0 0 0 0 0 0 0 0 0 0 0 0 0 0 0 0 0 0 .4 0"/><feOffset dx="4.0" dy="4.0" in="blurOut2" result="blurOut3"/><feBlend in="SourceGraphic" in2="blurOut3" mode="normal"/></filter></defs><g><!--class soen6441riskgame.controllers.GameController--><a target="_parent" xlink:actuate="onRequest" xlink:href="../../soen6441riskgame/controllers/GameController.html" xlink:show="new" xlink:title="soen6441riskgame.controllers.GameController" xlink:type="simple"><rect fill="#FEFECE" filter="url(#f15xtv3xwzz7qy)" height="609.625" id="soen6441riskgame.controllers.GameController" style="stroke: #A80036; stroke-width: 1.5;" width="283" x="6" y="8"/><ellipse cx="73.75" cy="28.0938" fill="#ADD1B2" rx="11" ry="11" style="stroke: #A80036; stroke-width: 1.0;"/><path d="M76.5156,23.9688 Q76.6719,23.75 76.8594,23.6406 Q77.0469,23.5313 77.2656,23.5313 Q77.6406,23.5313 77.875,23.7891 Q78.1094,24.0469 78.1094,24.6563 L78.1094,26.1094 Q78.1094,26.7188 77.875,26.9844 Q77.6406,27.25 77.2656,27.25 Q76.9219,27.25 76.7188,27.0469 Q76.5156,26.8594 76.4063,26.3438 Q76.3594,25.9844 76.1719,25.7969 Q75.8438,25.4219 75.2344,25.2031 Q74.625,24.9844 74,24.9844 Q73.2344,24.9844 72.6016,25.3125 Q71.9688,25.6406 71.4766,26.3906 Q70.9844,27.1406 70.9844,28.1719 L70.9844,29.2656 Q70.9844,30.5 71.875,31.3203 Q72.7656,32.1406 74.3594,32.1406 Q75.2969,32.1406 75.9531,31.8906 Q76.3438,31.7344 76.7656,31.2969 Q77.0313,31.0313 77.1797,30.9531 Q77.3281,30.875 77.5313,30.875 Q77.8594,30.875 78.1172,31.1328 Q78.375,31.3906 78.375,31.7344 Q78.375,32.0781 78.0313,32.4844 Q77.5313,33.0625 76.7344,33.3906 Q75.6563,33.8438 74.3594,33.8438 Q72.8438,33.8438 71.6406,33.2188 Q70.6563,32.7188 69.9688,31.6484 Q69.2813,30.5781 69.2813,29.2969 L69.2813,28.1406 Q69.2813,26.8125 69.8984,25.6641 Q70.5156,24.5156 71.6094,23.8984 Q72.7031,23.2813 73.9375,23.2813 Q74.6719,23.2813 75.3203,23.4453 Q75.9688,23.6094 76.5156,23.9688 Z "/><text fill="#000000" font-family="sans-serif" font-size="14" font-weight="bold" lengthAdjust="spacingAndGlyphs" textLength="111" x="108.25" y="27.5332">GameController</text><text fill="#000000" font-family="sans-serif" font-size="10" lengthAdjust="spacingAndGlyphs" textLength="139" x="94.25" y="40.9902">soen6441riskgame.controllers</text><line style="stroke: #A80036; stroke-width: 1.5;" x1="7" x2="288" y1="48.1875" y2="48.1875"/><ellipse cx="17" cy="60.6055" fill="none" rx="3" ry="3" style="stroke: #038048; stroke-width: 1.0;"/><text fill="#000000" font-family="sans-serif" font-size="11" lengthAdjust="spacingAndGlyphs" text-decoration="underline" textLength="171" x="26" y="63.6064">int MINIMUM_NUMBER_OF_PLAYER</text><line style="stroke: #000000; stroke-width: 1.0;" x1="26" x2="197" y1="65.6064" y2="65.6064"/><ellipse cx="17" cy="74.4414" fill="none" rx="3" ry="3" style="stroke: #038048; stroke-width: 1.0;"/><text fill="#000000" font-family="sans-serif" font-size="11" lengthAdjust="spacingAndGlyphs" text-decoration="underline" textLength="177" x="26" y="77.4424">int MAXIMUM_NUMBER_OF_PLAYER</text><line style="stroke: #000000; stroke-width: 1.0;" x1="26" x2="203" y1="79.4424" y2="79.4424"/><ellipse cx="17" cy="88.2773" fill="none" rx="3" ry="3" style="stroke: #038048; stroke-width: 1.0;"/><text fill="#000000" font-family="sans-serif" font-size="11" lengthAdjust="spacingAndGlyphs" text-decoration="underline" textLength="238" x="26" y="91.2783">int MINIMUM_NUMBER_OF_ARMY_ON_COUNTRY</text><line style="stroke: #000000; stroke-width: 1.0;" x1="26" x2="264" y1="93.2783" y2="93.2783"/><ellipse cx="17" cy="102.1133" fill="none" rx="3" ry="3" style="stroke: #038048; stroke-width: 1.0;"/><text fill="#000000" font-family="sans-serif" font-size="11" lengthAdjust="spacingAndGlyphs" text-decoration="underline" textLength="95" x="26" y="105.1143">int attackerNumDice</text><line style="stroke: #000000; stroke-width: 1.0;" x1="26" x2="121" y1="107.1143" y2="107.1143"/><ellipse cx="17" cy="115.9492" fill="none" rx="3" ry="3" style="stroke: #038048; stroke-width: 1.0;"/><text fill="#000000" font-family="sans-serif" font-size="11" lengthAdjust="spacingAndGlyphs" text-decoration="underline" textLength="100" x="26" y="118.9502">int defenderNumDice</text><line style="stroke: #000000; stroke-width: 1.0;" x1="26" x2="126" y1="120.9502" y2="120.9502"/><ellipse cx="17" cy="129.7852" fill="none" rx="3" ry="3" style="stroke: #038048; stroke-width: 1.0;"/><text fill="#000000" font-family="sans-serif" font-size="11" lengthAdjust="spacingAndGlyphs" text-decoration="underline" textLength="122" x="26" y="132.7861">Country attackingCountry</text><line style="stroke: #000000; stroke-width: 1.0;" x1="26" x2="148" y1="134.7861" y2="134.7861"/><ellipse cx="17" cy="143.6211" fill="none" rx="3" ry="3" style="stroke: #038048; stroke-width: 1.0;"/><text fill="#000000" font-family="sans-serif" font-size="11" lengthAdjust="spacingAndGlyphs" text-decoration="underline" textLength="127" x="26" y="146.6221">Country defendingCountry</text><line style="stroke: #000000; stroke-width: 1.0;" x1="26" x2="153" y1="148.6221" y2="148.6221"/><ellipse cx="17" cy="157.457" fill="none" rx="3" ry="3" style="stroke: #038048; stroke-width: 1.0;"/><text fill="#000000" font-family="sans-serif" font-size="11" lengthAdjust="spacingAndGlyphs" text-decoration="underline" textLength="86" x="26" y="160.458">boolean alloutFlag</text><line style="stroke: #000000; stroke-width: 1.0;" x1="26" x2="112" y1="162.458" y2="162.458"/><ellipse cx="17" cy="171.293" fill="none" rx="3" ry="3" style="stroke: #038048; stroke-width: 1.0;"/><text fill="#000000" font-family="sans-serif" font-size="11" lengthAdjust="spacingAndGlyphs" text-decoration="underline" textLength="160" x="26" y="174.2939">boolean attackMoveCmdRequired</text><line style="stroke: #000000; stroke-width: 1.0;" x1="26" x2="186" y1="176.2939" y2="176.2939"/><line style="stroke: #A80036; stroke-width: 1.5;" x1="7" x2="288" y1="180.7109" y2="180.7109"/><ellipse cx="17" cy="193.1289" fill="#84BE84" rx="3" ry="3" style="stroke: #038048; stroke-width: 1.0;"/><text fill="#000000" font-family="sans-serif" font-size="11" lengthAdjust="spacingAndGlyphs" textLength="82" x="26" y="196.1299">GameController()</text><ellipse cx="17" cy="206.9648" fill="#84BE84" rx="3" ry="3" style="stroke: #038048; stroke-width: 1.0;"/><text fill="#000000" font-family="sans-serif" font-size="11" lengthAdjust="spacingAndGlyphs" textLength="221" x="26" y="209.9658">void handleGamePlayerCommand(String args)</text><ellipse cx="17" cy="220.8008" fill="#84BE84" rx="3" ry="3" style="stroke: #038048; stroke-width: 1.0;"/><text fill="#000000" font-family="sans-serif" font-size="11" lengthAdjust="spacingAndGlyphs" textLength="160" x="26" y="223.8018">boolean isNumberOfPlayerValid()</text><ellipse cx="17" cy="234.6367" fill="#84BE84" rx="3" ry="3" style="stroke: #038048; stroke-width: 1.0;"/><text fill="#000000" font-family="sans-serif" font-size="11" lengthAdjust="spacingAndGlyphs" textLength="118" x="26" y="237.6377">void populateCountries()</text><ellipse cx="17" cy="248.4727" fill="#84BE84" rx="3" ry="3" style="stroke: #038048; stroke-width: 1.0;"/><text fill="#000000" font-family="sans-serif" font-size="11" lengthAdjust="spacingAndGlyphs" textLength="159" x="26" y="251.4736">void initPlayersUnplacedArmies()</text><ellipse cx="17" cy="262.3086" fill="#84BE84" rx="3" ry="3" style="stroke: #038048; stroke-width: 1.0;"/><text fill="#000000" font-family="sans-serif" font-size="11" lengthAdjust="spacingAndGlyphs" textLength="257" x="26" y="265.3096">void handlePlaceArmyCommand(String countryName)</text><ellipse cx="17" cy="276.1445" fill="#84BE84" rx="3" ry="3" style="stroke: #038048; stroke-width: 1.0;"/><text fill="#000000" font-family="sans-serif" font-size="11" lengthAdjust="spacingAndGlyphs" textLength="148" x="26" y="279.1455">void handlePlaceAllCommand()</text><ellipse cx="17" cy="289.9805" fill="#84BE84" rx="3" ry="3" style="stroke: #038048; stroke-width: 1.0;"/><text fill="#000000" font-family="sans-serif" font-size="11" lengthAdjust="spacingAndGlyphs" textLength="122" x="26" y="292.9814">Player getCurrentPlayer()</text><ellipse cx="17" cy="303.8164" fill="#84BE84" rx="3" ry="3" style="stroke: #038048; stroke-width: 1.0;"/><text fill="#000000" font-family="sans-serif" font-size="11" lengthAdjust="spacingAndGlyphs" textLength="157" x="26" y="306.8174">Player startRoundRobinPlayers()</text><ellipse cx="17" cy="317.6523" fill="#84BE84" rx="3" ry="3" style="stroke: #038048; stroke-width: 1.0;"/><text fill="#000000" font-family="sans-serif" font-size="11" lengthAdjust="spacingAndGlyphs" textLength="114" x="26" y="320.6533">void turnToNextPlayer()</text><ellipse cx="17" cy="331.4883" fill="#84BE84" rx="3" ry="3" style="stroke: #038048; stroke-width: 1.0;"/><text fill="#000000" font-family="sans-serif" font-size="11" lengthAdjust="spacingAndGlyphs" textLength="125" x="26" y="334.4893">void showCurrentPlayer()</text><ellipse cx="17" cy="345.3242" fill="#84BE84" rx="3" ry="3" style="stroke: #038048; stroke-width: 1.0;"/><text fill="#000000" font-family="sans-serif" font-size="11" lengthAdjust="spacingAndGlyphs" textLength="144" x="26" y="348.3252">boolean enterReinforcement()</text><ellipse cx="17" cy="359.1602" fill="#84BE84" rx="3" ry="3" style="stroke: #038048; stroke-width: 1.0;"/><text fill="#000000" font-family="sans-serif" font-size="11" lengthAdjust="spacingAndGlyphs" textLength="210" x="26" y="362.1611">void handleReinforceCommand(String args)</text><ellipse cx="17" cy="372.9961" fill="#84BE84" rx="3" ry="3" style="stroke: #038048; stroke-width: 1.0;"/><text fill="#000000" font-family="sans-serif" font-size="11" lengthAdjust="spacingAndGlyphs" textLength="135" x="26" y="375.9971">boolean enterFortifyPhase()</text><ellipse cx="17" cy="386.832" fill="#84BE84" rx="3" ry="3" style="stroke: #038048; stroke-width: 1.0;"/><text fill="#000000" font-family="sans-serif" font-size="11" lengthAdjust="spacingAndGlyphs" textLength="254" x="26" y="389.833">void handleMultipleFortificationCommand(String args)</text><ellipse cx="17" cy="400.668" fill="#84BE84" rx="3" ry="3" style="stroke: #038048; stroke-width: 1.0;"/><text fill="#000000" font-family="sans-serif" font-size="11" lengthAdjust="spacingAndGlyphs" textLength="135" x="26" y="403.6689">boolean enterAttackPhase()</text><ellipse cx="17" cy="414.5039" fill="#84BE84" rx="3" ry="3" style="stroke: #038048; stroke-width: 1.0;"/><text fill="#000000" font-family="sans-serif" font-size="11" lengthAdjust="spacingAndGlyphs" textLength="194" x="26" y="417.5049">void handleAttackCommand(String args)</text><ellipse cx="17" cy="428.3398" fill="#84BE84" rx="3" ry="3" style="stroke: #038048; stroke-width: 1.0;"/><text fill="#000000" font-family="sans-serif" font-size="11" lengthAdjust="spacingAndGlyphs" textLength="198" x="26" y="431.3408">void handleDefendCommand(String args)</text><ellipse cx="17" cy="442.1758" fill="#84BE84" rx="3" ry="3" style="stroke: #038048; stroke-width: 1.0;"/><text fill="#000000" font-family="sans-serif" font-size="11" lengthAdjust="spacingAndGlyphs" textLength="220" x="26" y="445.1768">void handleAttackMoveCommand(String args)</text><ellipse cx="17" cy="456.0117" fill="#84BE84" rx="3" ry="3" style="stroke: #038048; stroke-width: 1.0;"/><text fill="#000000" font-family="sans-serif" font-size="11" lengthAdjust="spacingAndGlyphs" textLength="112" x="26" y="459.0127">boolean isAttackValid()</text><ellipse cx="17" cy="469.8477" fill="#84BE84" rx="3" ry="3" style="stroke: #038048; stroke-width: 1.0;"/><text fill="#000000" font-family="sans-serif" font-size="11" lengthAdjust="spacingAndGlyphs" textLength="110" x="26" y="472.8486">void endAttackPhase()</text><ellipse cx="17" cy="483.6836" fill="#84BE84" rx="3" ry="3" style="stroke: #038048; stroke-width: 1.0;"/><text fill="#000000" font-family="sans-serif" font-size="11" lengthAdjust="spacingAndGlyphs" textLength="134" x="26" y="486.6846">void setEndOfGamePhase()</text><ellipse cx="17" cy="497.5195" fill="#84BE84" rx="3" ry="3" style="stroke: #038048; stroke-width: 1.0;"/><text fill="#000000" font-family="sans-serif" font-size="11" lengthAdjust="spacingAndGlyphs" textLength="155" x="26" y="500.5205">void exchangeCard(String args)</text><rect fill="#F24D5C" height="6" style="stroke: #C82930; stroke-width: 1.0;" width="6" x="14" y="508.3555"/><text fill="#000000" font-family="sans-serif" font-size="11" lengthAdjust="spacingAndGlyphs" textLength="244" x="26" y="514.3564">Player getCurrentPlayer(boolean isShowMessage)</text><rect fill="#F24D5C" height="6" style="stroke: #C82930; stroke-width: 1.0;" width="6" x="14" y="522.1914"/><text fill="#000000" font-family="sans-serif" font-size="11" lengthAdjust="spacingAndGlyphs" textLength="194" x="26" y="528.1924">void handleFortifyCommand(String args)</text><rect fill="#F24D5C" height="6" style="stroke: #C82930; stroke-width: 1.0;" width="6" x="14" y="536.0273"/><text fill="#000000" font-family="sans-serif" font-size="11" lengthAdjust="spacingAndGlyphs" textLength="101" x="26" y="542.0283">void simulateAttack()</text><rect fill="#F24D5C" height="6" style="stroke: #C82930; stroke-width: 1.0;" width="6" x="14" y="549.8633"/><text fill="#000000" font-family="sans-serif" font-size="11" lengthAdjust="spacingAndGlyphs" textLength="153" x="26" y="555.8643">boolean furtherAttackPossible()</text><rect fill="#F24D5C" height="6" style="stroke: #C82930; stroke-width: 1.0;" width="6" x="14" y="563.6992"/><text fill="#000000" font-family="sans-serif" font-size="11" lengthAdjust="spacingAndGlyphs" textLength="178" x="26" y="569.7002">boolean isGameEnded(Player player)</text><rect fill="#F24D5C" height="6" style="stroke: #C82930; stroke-width: 1.0;" width="6" x="14" y="577.5352"/><text fill="#000000" font-family="sans-serif" font-size="11" lengthAdjust="spacingAndGlyphs" textLength="228" x="26" y="583.5361">int getMax(int inputArray,boolean second_max)</text><rect fill="#F24D5C" height="6" style="stroke: #C82930; stroke-width: 1.0;" width="6" x="14" y="591.3711"/><text fill="#000000" font-family="sans-serif" font-size="11" lengthAdjust="spacingAndGlyphs" textLength="57" x="26" y="597.3721">int rollDice()</text><rect fill="#F24D5C" height="6" style="stroke: #C82930; stroke-width: 1.0;" width="6" x="14" y="605.207"/><text fill="#000000" font-family="sans-serif" font-size="11" lengthAdjust="spacingAndGlyphs" textLength="164" x="26" y="611.208">CardSet buildCardSet(String args)</text></a><!--class soen6441riskgame.models.Country--><a target="_parent" xlink:actuate="onRequest" xlink:href="../../soen6441riskgame/models/Country.html" xlink:show="new" xlink:title="soen6441riskgame.models.Country" xlink:type="simple"><rect fill="#FFFFFF" filter="url(#f15xtv3xwzz7qy)" height="40.1875" id="soen6441riskgame.models.Country" style="stroke: #A80036; stroke-width: 1.5;" width="156" x="69.5" y="678"/><rect fill="#FFFFFF" height="40.1875" style="stroke: #A80036; stroke-width: 1.5;" width="156" x="69.5" y="678"/><ellipse cx="84.5" cy="698.0938" fill="#ADD1B2" rx="11" ry="11" style="stroke: #A80036; stroke-width: 1.0;"/><path d="M87.2656,693.9688 Q87.4219,693.75 87.6094,693.6406 Q87.7969,693.5313 88.0156,693.5313 Q88.3906,693.5313 88.625,693.7891 Q88.8594,694.0469 88.8594,694.6563 L88.8594,696.1094 Q88.8594,696.7188 88.625,696.9844 Q88.3906,697.25 88.0156,697.25 Q87.6719,697.25 87.4688,697.0469 Q87.2656,696.8594 87.1563,696.3438 Q87.1094,695.9844 86.9219,695.7969 Q86.5938,695.4219 85.9844,695.2031 Q85.375,694.9844 84.75,694.9844 Q83.9844,694.9844 83.3516,695.3125 Q82.7188,695.6406 82.2266,696.3906 Q81.7344,697.1406 81.7344,698.1719 L81.7344,699.2656 Q81.7344,700.5 82.625,701.3203 Q83.5156,702.1406 85.1094,702.1406 Q86.0469,702.1406 86.7031,701.8906 Q87.0938,701.7344 87.5156,701.2969 Q87.7813,701.0313 87.9297,700.9531 Q88.0781,700.875 88.2813,700.875 Q88.6094,700.875 88.8672,701.1328 Q89.125,701.3906 89.125,701.7344 Q89.125,702.0781 88.7813,702.4844 Q88.2813,703.0625 87.4844,703.3906 Q86.4063,703.8438 85.1094,703.8438 Q83.5938,703.8438 82.3906,703.2188 Q81.4063,702.7188 80.7188,701.6484 Q80.0313,700.5781 80.0313,699.2969 L80.0313,698.1406 Q80.0313,696.8125 80.6484,695.6641 Q81.2656,694.5156 82.3594,693.8984 Q83.4531,693.2813 84.6875,693.2813 Q85.4219,693.2813 86.0703,693.4453 Q86.7188,693.6094 87.2656,693.9688 Z "/><text fill="#000000" font-family="sans-serif" font-size="14" font-weight="bold" lengthAdjust="spacingAndGlyphs" textLength="55" x="133" y="697.5332">Country</text><text fill="#000000" font-family="sans-serif" font-size="10" lengthAdjust="spacingAndGlyphs" textLength="124" x="98.5" y="710.9902">soen6441riskgame.models</text></a><!--class soen6441riskgame.models.Player--><a target="_parent" xlink:actuate="onRequest" xlink:href="../../soen6441riskgame/models/Player.html" xlink:show="new" xlink:title="soen6441riskgame.models.Player" xlink:type="simple"><rect fill="#FFFFFF" filter="url(#f15xtv3xwzz7qy)" height="40.1875" id="soen6441riskgame.models.Player" style="stroke: #A80036; stroke-width: 1.5;" width="156" x="260.5" y="678"/><rect fill="#FFFFFF" height="40.1875" style="stroke: #A80036; stroke-width: 1.5;" width="156" x="260.5" y="678"/><ellipse cx="275.5" cy="698.0938" fill="#ADD1B2" rx="11" ry="11" style="stroke: #A80036; stroke-width: 1.0;"/><path d="M278.2656,693.9688 Q278.4219,693.75 278.6094,693.6406 Q278.7969,693.5313 279.0156,693.5313 Q279.3906,693.5313 279.625,693.7891 Q279.8594,694.0469 279.8594,694.6563 L279.8594,696.1094 Q279.8594,696.7188 279.625,696.9844 Q279.3906,697.25 279.0156,697.25 Q278.6719,697.25 278.4688,697.0469 Q278.2656,696.8594 278.1563,696.3438 Q278.1094,695.9844 277.9219,695.7969 Q277.5938,695.4219 276.9844,695.2031 Q276.375,694.9844 275.75,694.9844 Q274.9844,694.9844 274.3516,695.3125 Q273.7188,695.6406 273.2266,696.3906 Q272.7344,697.1406 272.7344,698.1719 L272.7344,699.2656 Q272.7344,700.5 273.625,701.3203 Q274.5156,702.1406 276.1094,702.1406 Q277.0469,702.1406 277.7031,701.8906 Q278.0938,701.7344 278.5156,701.2969 Q278.7813,701.0313 278.9297,700.9531 Q279.0781,700.875 279.2813,700.875 Q279.6094,700.875 279.8672,701.1328 Q280.125,701.3906 280.125,701.7344 Q280.125,702.0781 279.7813,702.4844 Q279.2813,703.0625 278.4844,703.3906 Q277.4063,703.8438 276.1094,703.8438 Q274.5938,703.8438 273.3906,703.2188 Q272.4063,702.7188 271.7188,701.6484 Q271.0313,700.5781 271.0313,699.2969 L271.0313,698.1406 Q271.0313,696.8125 271.6484,695.6641 Q272.2656,694.5156 273.3594,693.8984 Q274.4531,693.2813 275.6875,693.2813 Q276.4219,693.2813 277.0703,693.4453 Q277.7188,693.6094 278.2656,693.9688 Z "/><text fill="#000000" font-family="sans-serif" font-size="14" font-weight="bold" lengthAdjust="spacingAndGlyphs" textLength="43" x="330" y="697.5332">Player</text><text fill="#000000" font-family="sans-serif" font-size="10" lengthAdjust="spacingAndGlyphs" textLength="124" x="289.5" y="710.9902">soen6441riskgame.models</text></a><!--link soen6441riskgame.controllers.GameController to soen6441riskgame.models.Country--><path d="M173.5,618.2278 C173.5,618.2278 173.5,672.8975 173.5,672.8975 " fill="none" id="soen6441riskgame.controllers.GameController-soen6441riskgame.models.Country" style="stroke: #A80036; stroke-width: 1.0;"/><polygon fill="#A80036" points="173.5,677.8975,177.5,668.8975,173.5,672.8975,169.5,668.8975,173.5,677.8975" style="stroke: #A80036; stroke-width: 1.0;"/><text fill="#000000" font-family="sans-serif" font-size="13" lengthAdjust="spacingAndGlyphs" textLength="98" x="68.7438" y="667.1616">attackingCountry</text><!--link soen6441riskgame.controllers.GameController to soen6441riskgame.models.Country--><path d="M121.5,618.2278 C121.5,618.2278 121.5,672.8975 121.5,672.8975 " fill="none" id="soen6441riskgame.controllers.GameController-soen6441riskgame.models.Country" style="stroke: #A80036; stroke-width: 1.0;"/><polygon fill="#A80036" points="121.5,677.8975,125.5,668.8975,121.5,672.8975,117.5,668.8975,121.5,677.8975" style="stroke: #A80036; stroke-width: 1.0;"/><text fill="#000000" font-family="sans-serif" font-size="13" lengthAdjust="spacingAndGlyphs" textLength="100" x="-0.825" y="667.1616">defendingCountry</text><!--link soen6441riskgame.controllers.GameController to soen6441riskgame.models.Player--><path d="M274.75,618.2278 C274.75,618.2278 274.75,672.8975 274.75,672.8975 " fill="none" id="soen6441riskgame.controllers.GameController-soen6441riskgame.models.Player" style="stroke: #A80036; stroke-width: 1.0; stroke-dasharray: 7.0,7.0;"/><polygon fill="#A80036" points="274.75,677.8975,278.75,668.8975,274.75,672.8975,270.75,668.8975,274.75,677.8975" style="stroke: #A80036; stroke-width: 1.0;"/><!--
@startuml

skinparam svgLinkTarget _parent
skinparam linetype ortho
set namespaceSeparator none
class "<b><size:14>GameController</b>\n<size:10>soen6441riskgame.controllers" as soen6441riskgame.controllers.GameController  [[../../soen6441riskgame/controllers/GameController.html{soen6441riskgame.controllers.GameController}]] {
{static} +int MINIMUM_NUMBER_OF_PLAYER
{static} +int MAXIMUM_NUMBER_OF_PLAYER
{static} +int MINIMUM_NUMBER_OF_ARMY_ON_COUNTRY
{static} +int attackerNumDice
{static} +int defenderNumDice
{static} +Country attackingCountry
{static} +Country defendingCountry
{static} +boolean alloutFlag
{static} +boolean attackMoveCmdRequired
+GameController()
+void handleGamePlayerCommand(String args)
+boolean isNumberOfPlayerValid()
+void populateCountries()
+void initPlayersUnplacedArmies()
+void handlePlaceArmyCommand(String countryName)
+void handlePlaceAllCommand()
+Player getCurrentPlayer()
+Player startRoundRobinPlayers()
+void turnToNextPlayer()
+void showCurrentPlayer()
+boolean enterReinforcement()
+void handleReinforceCommand(String args)
+boolean enterFortifyPhase()
+void handleMultipleFortificationCommand(String args)
+boolean enterAttackPhase()
+void handleAttackCommand(String args)
+void handleDefendCommand(String args)
+void handleAttackMoveCommand(String args)
+boolean isAttackValid()
+void endAttackPhase()
+void setEndOfGamePhase()
+void exchangeCard(String args)
-Player getCurrentPlayer(boolean isShowMessage)
-void handleFortifyCommand(String args)
-void simulateAttack()
-boolean furtherAttackPossible()
-boolean isGameEnded(Player player)
-int getMax(int inputArray,boolean second_max)
-int rollDice()
-CardSet buildCardSet(String args)
}


class "<b><size:14>Country</b>\n<size:10>soen6441riskgame.models" as soen6441riskgame.models.Country  [[../../soen6441riskgame/models/Country.html{soen6441riskgame.models.Country}]] #white {
}

hide soen6441riskgame.models.Country fields
hide soen6441riskgame.models.Country methods

soen6441riskgame.controllers.GameController - ->  "attackingCountry" soen6441riskgame.models.Country

soen6441riskgame.controllers.GameController - ->  "defendingCountry" soen6441riskgame.models.Country

class "<b><size:14>Player</b>\n<size:10>soen6441riskgame.models" as soen6441riskgame.models.Player  [[../../soen6441riskgame/models/Player.html{soen6441riskgame.models.Player}]] #white {
}

hide soen6441riskgame.models.Player fields
hide soen6441riskgame.models.Player methods

soen6441riskgame.controllers.GameController ..> soen6441riskgame.models.Player



@enduml

PlantUML version 1.2017.15(Mon Jul 03 12:45:34 EDT 2017)
(GPL source distribution)
Java Runtime: Java(TM) SE Runtime Environment
JVM: Java HotSpot(TM) 64-Bit Server VM
Java Version: 1.8.0_231-b11
Operating System: Windows 10
OS Version: 10.0
Default Encoding: Cp1252
Language: en
Country: US
--></g></svg>