<?xml version="1.0" encoding="UTF-8" standalone="no"?><svg xmlns="http://www.w3.org/2000/svg" xmlns:xlink="http://www.w3.org/1999/xlink" contentScriptType="application/ecmascript" contentStyleType="text/css" height="773px" preserveAspectRatio="none" style="width:567px;height:773px;" version="1.1" viewBox="0 0 567 773" width="567px" zoomAndPan="magnify"><defs><filter height="300%" id="f1f0grotaj7v8p" width="300%" x="-1" y="-1"><feGaussianBlur result="blurOut" stdDeviation="2.0"/><feColorMatrix in="blurOut" result="blurOut2" type="matrix" values="0 0 0 0 0 0 0 0 0 0 0 0 0 0 0 0 0 0 .4 0"/><feOffset dx="4.0" dy="4.0" in="blurOut2" result="blurOut3"/><feBlend in="SourceGraphic" in2="blurOut3" mode="normal"/></filter></defs><g><!--class soen6441riskgame.controllers.GameController--><a target="_parent" xlink:actuate="onRequest" xlink:href="../../soen6441riskgame/controllers/GameController.html" xlink:show="new" xlink:title="soen6441riskgame.controllers.GameController" xlink:type="simple"><rect fill="#FEFECE" filter="url(#f1f0grotaj7v8p)" height="554.2813" id="soen6441riskgame.controllers.GameController" style="stroke: #A80036; stroke-width: 1.5;" width="550" x="6" y="108"/><ellipse cx="207.25" cy="128.0938" fill="#ADD1B2" rx="11" ry="11" style="stroke: #A80036; stroke-width: 1.0;"/><path d="M210.0156,123.9688 Q210.1719,123.75 210.3594,123.6406 Q210.5469,123.5313 210.7656,123.5313 Q211.1406,123.5313 211.375,123.7891 Q211.6094,124.0469 211.6094,124.6563 L211.6094,126.1094 Q211.6094,126.7188 211.375,126.9844 Q211.1406,127.25 210.7656,127.25 Q210.4219,127.25 210.2188,127.0469 Q210.0156,126.8594 209.9063,126.3438 Q209.8594,125.9844 209.6719,125.7969 Q209.3438,125.4219 208.7344,125.2031 Q208.125,124.9844 207.5,124.9844 Q206.7344,124.9844 206.1016,125.3125 Q205.4688,125.6406 204.9766,126.3906 Q204.4844,127.1406 204.4844,128.1719 L204.4844,129.2656 Q204.4844,130.5 205.375,131.3203 Q206.2656,132.1406 207.8594,132.1406 Q208.7969,132.1406 209.4531,131.8906 Q209.8438,131.7344 210.2656,131.2969 Q210.5313,131.0313 210.6797,130.9531 Q210.8281,130.875 211.0313,130.875 Q211.3594,130.875 211.6172,131.1328 Q211.875,131.3906 211.875,131.7344 Q211.875,132.0781 211.5313,132.4844 Q211.0313,133.0625 210.2344,133.3906 Q209.1563,133.8438 207.8594,133.8438 Q206.3438,133.8438 205.1406,133.2188 Q204.1563,132.7188 203.4688,131.6484 Q202.7813,130.5781 202.7813,129.2969 L202.7813,128.1406 Q202.7813,126.8125 203.3984,125.6641 Q204.0156,124.5156 205.1094,123.8984 Q206.2031,123.2813 207.4375,123.2813 Q208.1719,123.2813 208.8203,123.4453 Q209.4688,123.6094 210.0156,123.9688 Z "/><text fill="#000000" font-family="sans-serif" font-size="14" font-weight="bold" lengthAdjust="spacingAndGlyphs" textLength="111" x="241.75" y="127.5332">GameController</text><text fill="#000000" font-family="sans-serif" font-size="10" lengthAdjust="spacingAndGlyphs" textLength="139" x="227.75" y="140.9902">soen6441riskgame.controllers</text><line style="stroke: #A80036; stroke-width: 1.5;" x1="7" x2="555" y1="148.1875" y2="148.1875"/><rect fill="none" height="6" style="stroke: #C82930; stroke-width: 1.0;" width="6" x="14" y="157.6055"/><text fill="#000000" font-family="sans-serif" font-size="11" lengthAdjust="spacingAndGlyphs" text-decoration="underline" textLength="178" x="26" y="163.6064">int NUMBER_OF_CARD_IN_ONE_SET</text><line style="stroke: #000000; stroke-width: 1.0;" x1="26" x2="204" y1="165.6064" y2="165.6064"/><rect fill="none" height="6" style="stroke: #C82930; stroke-width: 1.0;" width="6" x="14" y="171.4414"/><text fill="#000000" font-family="sans-serif" font-size="11" lengthAdjust="spacingAndGlyphs" text-decoration="underline" textLength="189" x="26" y="177.4424">int MAXIMUM_ARMY_IN_ONE_ATTACK</text><line style="stroke: #000000; stroke-width: 1.0;" x1="26" x2="215" y1="179.4424" y2="179.4424"/><rect fill="none" height="6" style="stroke: #C82930; stroke-width: 1.0;" width="6" x="14" y="185.2773"/><text fill="#000000" font-family="sans-serif" font-size="11" lengthAdjust="spacingAndGlyphs" text-decoration="underline" textLength="161" x="26" y="191.2783">int MINIMUM_ARMY_TO_ATTACK</text><line style="stroke: #000000; stroke-width: 1.0;" x1="26" x2="187" y1="193.2783" y2="193.2783"/><rect fill="none" height="6" style="stroke: #C82930; stroke-width: 1.0;" width="6" x="14" y="199.1133"/><text fill="#000000" font-family="sans-serif" font-size="11" lengthAdjust="spacingAndGlyphs" text-decoration="underline" textLength="171" x="26" y="205.1143">int MINIMUM_NUMBER_OF_PLAYER</text><line style="stroke: #000000; stroke-width: 1.0;" x1="26" x2="197" y1="207.1143" y2="207.1143"/><rect fill="none" height="6" style="stroke: #C82930; stroke-width: 1.0;" width="6" x="14" y="212.9492"/><text fill="#000000" font-family="sans-serif" font-size="11" lengthAdjust="spacingAndGlyphs" text-decoration="underline" textLength="177" x="26" y="218.9502">int MAXIMUM_NUMBER_OF_PLAYER</text><line style="stroke: #000000; stroke-width: 1.0;" x1="26" x2="203" y1="220.9502" y2="220.9502"/><rect fill="none" height="6" style="stroke: #C82930; stroke-width: 1.0;" width="6" x="14" y="226.7852"/><text fill="#000000" font-family="sans-serif" font-size="11" lengthAdjust="spacingAndGlyphs" text-decoration="underline" textLength="238" x="26" y="232.7861">int MINIMUM_NUMBER_OF_ARMY_ON_COUNTRY</text><line style="stroke: #000000; stroke-width: 1.0;" x1="26" x2="264" y1="234.7861" y2="234.7861"/><line style="stroke: #A80036; stroke-width: 1.5;" x1="7" x2="555" y1="239.2031" y2="239.2031"/><ellipse cx="17" cy="251.6211" fill="#84BE84" rx="3" ry="3" style="stroke: #038048; stroke-width: 1.0;"/><text fill="#000000" font-family="sans-serif" font-size="11" lengthAdjust="spacingAndGlyphs" textLength="82" x="26" y="254.6221">GameController()</text><ellipse cx="17" cy="265.457" fill="#84BE84" rx="3" ry="3" style="stroke: #038048; stroke-width: 1.0;"/><text fill="#000000" font-family="sans-serif" font-size="11" lengthAdjust="spacingAndGlyphs" textLength="221" x="26" y="268.458">void handleGamePlayerCommand(String args)</text><ellipse cx="17" cy="279.293" fill="#84BE84" rx="3" ry="3" style="stroke: #038048; stroke-width: 1.0;"/><text fill="#000000" font-family="sans-serif" font-size="11" lengthAdjust="spacingAndGlyphs" textLength="160" x="26" y="282.2939">boolean isNumberOfPlayerValid()</text><ellipse cx="17" cy="293.1289" fill="#84BE84" rx="3" ry="3" style="stroke: #038048; stroke-width: 1.0;"/><text fill="#000000" font-family="sans-serif" font-size="11" lengthAdjust="spacingAndGlyphs" textLength="118" x="26" y="296.1299">void populateCountries()</text><ellipse cx="17" cy="306.9648" fill="#84BE84" rx="3" ry="3" style="stroke: #038048; stroke-width: 1.0;"/><text fill="#000000" font-family="sans-serif" font-size="11" lengthAdjust="spacingAndGlyphs" textLength="159" x="26" y="309.9658">void initPlayersUnplacedArmies()</text><ellipse cx="17" cy="320.8008" fill="#84BE84" rx="3" ry="3" style="stroke: #038048; stroke-width: 1.0;"/><text fill="#000000" font-family="sans-serif" font-size="11" lengthAdjust="spacingAndGlyphs" textLength="257" x="26" y="323.8018">void handlePlaceArmyCommand(String countryName)</text><ellipse cx="17" cy="334.6367" fill="#84BE84" rx="3" ry="3" style="stroke: #038048; stroke-width: 1.0;"/><text fill="#000000" font-family="sans-serif" font-size="11" lengthAdjust="spacingAndGlyphs" textLength="148" x="26" y="337.6377">void handlePlaceAllCommand()</text><ellipse cx="17" cy="348.4727" fill="#84BE84" rx="3" ry="3" style="stroke: #038048; stroke-width: 1.0;"/><text fill="#000000" font-family="sans-serif" font-size="11" lengthAdjust="spacingAndGlyphs" textLength="122" x="26" y="351.4736">Player getCurrentPlayer()</text><ellipse cx="17" cy="362.3086" fill="#84BE84" rx="3" ry="3" style="stroke: #038048; stroke-width: 1.0;"/><text fill="#000000" font-family="sans-serif" font-size="11" lengthAdjust="spacingAndGlyphs" textLength="157" x="26" y="365.3096">Player startRoundRobinPlayers()</text><ellipse cx="17" cy="376.1445" fill="#84BE84" rx="3" ry="3" style="stroke: #038048; stroke-width: 1.0;"/><text fill="#000000" font-family="sans-serif" font-size="11" lengthAdjust="spacingAndGlyphs" textLength="125" x="26" y="379.1455">void showCurrentPlayer()</text><ellipse cx="17" cy="389.9805" fill="#84BE84" rx="3" ry="3" style="stroke: #038048; stroke-width: 1.0;"/><text fill="#000000" font-family="sans-serif" font-size="11" lengthAdjust="spacingAndGlyphs" textLength="144" x="26" y="392.9814">boolean enterReinforcement()</text><ellipse cx="17" cy="403.8164" fill="#84BE84" rx="3" ry="3" style="stroke: #038048; stroke-width: 1.0;"/><text fill="#000000" font-family="sans-serif" font-size="11" lengthAdjust="spacingAndGlyphs" textLength="210" x="26" y="406.8174">void handleReinforceCommand(String args)</text><ellipse cx="17" cy="417.6523" fill="#84BE84" rx="3" ry="3" style="stroke: #038048; stroke-width: 1.0;"/><text fill="#000000" font-family="sans-serif" font-size="11" lengthAdjust="spacingAndGlyphs" textLength="135" x="26" y="420.6533">boolean enterFortifyPhase()</text><ellipse cx="17" cy="431.4883" fill="#84BE84" rx="3" ry="3" style="stroke: #038048; stroke-width: 1.0;"/><text fill="#000000" font-family="sans-serif" font-size="11" lengthAdjust="spacingAndGlyphs" textLength="254" x="26" y="434.4893">void handleMultipleFortificationCommand(String args)</text><ellipse cx="17" cy="445.3242" fill="#84BE84" rx="3" ry="3" style="stroke: #038048; stroke-width: 1.0;"/><text fill="#000000" font-family="sans-serif" font-size="11" lengthAdjust="spacingAndGlyphs" textLength="135" x="26" y="448.3252">boolean enterAttackPhase()</text><ellipse cx="17" cy="459.1602" fill="#84BE84" rx="3" ry="3" style="stroke: #038048; stroke-width: 1.0;"/><text fill="#000000" font-family="sans-serif" font-size="11" lengthAdjust="spacingAndGlyphs" textLength="194" x="26" y="462.1611">void handleAttackCommand(String args)</text><ellipse cx="17" cy="472.9961" fill="#84BE84" rx="3" ry="3" style="stroke: #038048; stroke-width: 1.0;"/><text fill="#000000" font-family="sans-serif" font-size="11" lengthAdjust="spacingAndGlyphs" textLength="198" x="26" y="475.9971">void handleDefendCommand(String args)</text><ellipse cx="17" cy="486.832" fill="#84BE84" rx="3" ry="3" style="stroke: #038048; stroke-width: 1.0;"/><text fill="#000000" font-family="sans-serif" font-size="11" lengthAdjust="spacingAndGlyphs" textLength="220" x="26" y="489.833">void handleAttackMoveCommand(String args)</text><ellipse cx="17" cy="500.668" fill="#84BE84" rx="3" ry="3" style="stroke: #038048; stroke-width: 1.0;"/><text fill="#000000" font-family="sans-serif" font-size="11" lengthAdjust="spacingAndGlyphs" textLength="155" x="26" y="503.6689">void exchangeCard(String args)</text><polygon fill="#4177AF" points="17,510.5039,13,516.5039,21,516.5039" style="stroke: #1963A0; stroke-width: 1.0;"/><text fill="#000000" font-family="sans-serif" font-size="11" lengthAdjust="spacingAndGlyphs" textLength="114" x="26" y="517.5049">void turnToNextPlayer()</text><polygon fill="#4177AF" points="17,524.3398,13,530.3398,21,530.3398" style="stroke: #1963A0; stroke-width: 1.0;"/><text fill="#000000" font-family="sans-serif" font-size="11" lengthAdjust="spacingAndGlyphs" textLength="524" x="26" y="531.3408">boolean isAttackValid(Country attackingCountry,int attackerNumDice,int defenderNumDice,boolean alloutFlag)</text><polygon fill="#4177AF" points="17,538.1758,13,544.1758,21,544.1758" style="stroke: #1963A0; stroke-width: 1.0;"/><text fill="#000000" font-family="sans-serif" font-size="11" lengthAdjust="spacingAndGlyphs" textLength="134" x="26" y="545.1768">void setEndOfGamePhase()</text><rect fill="#F24D5C" height="6" style="stroke: #C82930; stroke-width: 1.0;" width="6" x="14" y="553.0117"/><text fill="#000000" font-family="sans-serif" font-size="11" lengthAdjust="spacingAndGlyphs" textLength="244" x="26" y="559.0127">Player getCurrentPlayer(boolean isShowMessage)</text><rect fill="#F24D5C" height="6" style="stroke: #C82930; stroke-width: 1.0;" width="6" x="14" y="566.8477"/><text fill="#000000" font-family="sans-serif" font-size="11" lengthAdjust="spacingAndGlyphs" textLength="194" x="26" y="572.8486">void handleFortifyCommand(String args)</text><rect fill="#F24D5C" height="6" style="stroke: #C82930; stroke-width: 1.0;" width="6" x="14" y="580.6836"/><text fill="#000000" font-family="sans-serif" font-size="11" lengthAdjust="spacingAndGlyphs" textLength="284" x="26" y="586.6846">void simulateAttack(GameBoardPlaying gameBoardPlaying)</text><rect fill="#F24D5C" height="6" style="stroke: #C82930; stroke-width: 1.0;" width="6" x="14" y="594.5195"/><text fill="#000000" font-family="sans-serif" font-size="11" lengthAdjust="spacingAndGlyphs" textLength="115" x="26" y="600.5205">boolean isGameEnded()</text><rect fill="#F24D5C" height="6" style="stroke: #C82930; stroke-width: 1.0;" width="6" x="14" y="608.3555"/><text fill="#000000" font-family="sans-serif" font-size="11" lengthAdjust="spacingAndGlyphs" textLength="429" x="26" y="614.3564">boolean isAttackPreconditionsValid(Country attackingCountry,Country defendingCountry)</text><rect fill="#F24D5C" height="6" style="stroke: #C82930; stroke-width: 1.0;" width="6" x="14" y="622.1914"/><text fill="#000000" font-family="sans-serif" font-size="11" lengthAdjust="spacingAndGlyphs" textLength="342" x="26" y="628.1924">void attackResult(Country defendingCountry,Country attackingCountry)</text><rect fill="#F24D5C" height="6" style="stroke: #C82930; stroke-width: 1.0;" width="6" x="14" y="636.0273"/><text fill="#000000" font-family="sans-serif" font-size="11" lengthAdjust="spacingAndGlyphs" textLength="110" x="26" y="642.0283">void endAttackPhase()</text><rect fill="#F24D5C" height="6" style="stroke: #C82930; stroke-width: 1.0;" width="6" x="14" y="649.8633"/><text fill="#000000" font-family="sans-serif" font-size="11" lengthAdjust="spacingAndGlyphs" textLength="164" x="26" y="655.8643">CardSet buildCardSet(String args)</text></a><!--class soen6441riskgame.models.Player--><a target="_parent" xlink:actuate="onRequest" xlink:href="../../soen6441riskgame/models/Player.html" xlink:show="new" xlink:title="soen6441riskgame.models.Player" xlink:type="simple"><rect fill="#FFFFFF" filter="url(#f1f0grotaj7v8p)" height="40.1875" id="soen6441riskgame.models.Player" style="stroke: #A80036; stroke-width: 1.5;" width="156" x="203" y="722"/><rect fill="#FFFFFF" height="40.1875" style="stroke: #A80036; stroke-width: 1.5;" width="156" x="203" y="722"/><ellipse cx="218" cy="742.0938" fill="#ADD1B2" rx="11" ry="11" style="stroke: #A80036; stroke-width: 1.0;"/><path d="M220.7656,737.9688 Q220.9219,737.75 221.1094,737.6406 Q221.2969,737.5313 221.5156,737.5313 Q221.8906,737.5313 222.125,737.7891 Q222.3594,738.0469 222.3594,738.6563 L222.3594,740.1094 Q222.3594,740.7188 222.125,740.9844 Q221.8906,741.25 221.5156,741.25 Q221.1719,741.25 220.9688,741.0469 Q220.7656,740.8594 220.6563,740.3438 Q220.6094,739.9844 220.4219,739.7969 Q220.0938,739.4219 219.4844,739.2031 Q218.875,738.9844 218.25,738.9844 Q217.4844,738.9844 216.8516,739.3125 Q216.2188,739.6406 215.7266,740.3906 Q215.2344,741.1406 215.2344,742.1719 L215.2344,743.2656 Q215.2344,744.5 216.125,745.3203 Q217.0156,746.1406 218.6094,746.1406 Q219.5469,746.1406 220.2031,745.8906 Q220.5938,745.7344 221.0156,745.2969 Q221.2813,745.0313 221.4297,744.9531 Q221.5781,744.875 221.7813,744.875 Q222.1094,744.875 222.3672,745.1328 Q222.625,745.3906 222.625,745.7344 Q222.625,746.0781 222.2813,746.4844 Q221.7813,747.0625 220.9844,747.3906 Q219.9063,747.8438 218.6094,747.8438 Q217.0938,747.8438 215.8906,747.2188 Q214.9063,746.7188 214.2188,745.6484 Q213.5313,744.5781 213.5313,743.2969 L213.5313,742.1406 Q213.5313,740.8125 214.1484,739.6641 Q214.7656,738.5156 215.8594,737.8984 Q216.9531,737.2813 218.1875,737.2813 Q218.9219,737.2813 219.5703,737.4453 Q220.2188,737.6094 220.7656,737.9688 Z "/><text fill="#000000" font-family="sans-serif" font-size="14" font-weight="bold" lengthAdjust="spacingAndGlyphs" textLength="43" x="272.5" y="741.5332">Player</text><text fill="#000000" font-family="sans-serif" font-size="10" lengthAdjust="spacingAndGlyphs" textLength="124" x="232" y="754.9902">soen6441riskgame.models</text></a><!--class soen6441riskgame.controllers.TournamentController--><a target="_parent" xlink:actuate="onRequest" xlink:href="../../soen6441riskgame/controllers/TournamentController.html" xlink:show="new" xlink:title="soen6441riskgame.controllers.TournamentController" xlink:type="simple"><rect fill="#FEFECE" filter="url(#f1f0grotaj7v8p)" height="40.1875" id="soen6441riskgame.controllers.TournamentController" style="stroke: #A80036; stroke-width: 1.5;" width="187" x="187.5" y="8"/><ellipse cx="202.5" cy="28.0938" fill="#ADD1B2" rx="11" ry="11" style="stroke: #A80036; stroke-width: 1.0;"/><path d="M205.2656,23.9688 Q205.4219,23.75 205.6094,23.6406 Q205.7969,23.5313 206.0156,23.5313 Q206.3906,23.5313 206.625,23.7891 Q206.8594,24.0469 206.8594,24.6563 L206.8594,26.1094 Q206.8594,26.7188 206.625,26.9844 Q206.3906,27.25 206.0156,27.25 Q205.6719,27.25 205.4688,27.0469 Q205.2656,26.8594 205.1563,26.3438 Q205.1094,25.9844 204.9219,25.7969 Q204.5938,25.4219 203.9844,25.2031 Q203.375,24.9844 202.75,24.9844 Q201.9844,24.9844 201.3516,25.3125 Q200.7188,25.6406 200.2266,26.3906 Q199.7344,27.1406 199.7344,28.1719 L199.7344,29.2656 Q199.7344,30.5 200.625,31.3203 Q201.5156,32.1406 203.1094,32.1406 Q204.0469,32.1406 204.7031,31.8906 Q205.0938,31.7344 205.5156,31.2969 Q205.7813,31.0313 205.9297,30.9531 Q206.0781,30.875 206.2813,30.875 Q206.6094,30.875 206.8672,31.1328 Q207.125,31.3906 207.125,31.7344 Q207.125,32.0781 206.7813,32.4844 Q206.2813,33.0625 205.4844,33.3906 Q204.4063,33.8438 203.1094,33.8438 Q201.5938,33.8438 200.3906,33.2188 Q199.4063,32.7188 198.7188,31.6484 Q198.0313,30.5781 198.0313,29.2969 L198.0313,28.1406 Q198.0313,26.8125 198.6484,25.6641 Q199.2656,24.5156 200.3594,23.8984 Q201.4531,23.2813 202.6875,23.2813 Q203.4219,23.2813 204.0703,23.4453 Q204.7188,23.6094 205.2656,23.9688 Z "/><text fill="#000000" font-family="sans-serif" font-size="14" font-weight="bold" lengthAdjust="spacingAndGlyphs" textLength="155" x="216.5" y="27.5332">TournamentController</text><text fill="#000000" font-family="sans-serif" font-size="10" lengthAdjust="spacingAndGlyphs" textLength="139" x="224.5" y="40.9902">soen6441riskgame.controllers</text></a><!--link soen6441riskgame.controllers.GameController to soen6441riskgame.models.Player--><path d="M281,662.3266 C281,662.3266 281,716.7984 281,716.7984 " fill="none" id="soen6441riskgame.controllers.GameController-soen6441riskgame.models.Player" style="stroke: #A80036; stroke-width: 1.0; stroke-dasharray: 7.0,7.0;"/><polygon fill="#A80036" points="281,721.7984,285,712.7984,281,716.7984,277,712.7984,281,721.7984" style="stroke: #A80036; stroke-width: 1.0;"/><!--link soen6441riskgame.controllers.TournamentController to soen6441riskgame.controllers.GameController--><path d="M281,48.217 C281,48.217 281,102.72 281,102.72 " fill="none" id="soen6441riskgame.controllers.TournamentController-soen6441riskgame.controllers.GameController" style="stroke: #A80036; stroke-width: 1.0;"/><polygon fill="#A80036" points="281,107.72,285,98.72,281,102.72,277,98.72,281,107.72" style="stroke: #A80036; stroke-width: 1.0;"/><text fill="#000000" font-family="sans-serif" font-size="13" lengthAdjust="spacingAndGlyphs" textLength="87" x="192.7086" y="96.7469">gameController</text><!--
@startuml

skinparam svgLinkTarget _parent
skinparam linetype ortho
set namespaceSeparator none
class "<b><size:14>GameController</b>\n<size:10>soen6441riskgame.controllers" as soen6441riskgame.controllers.GameController  [[../../soen6441riskgame/controllers/GameController.html{soen6441riskgame.controllers.GameController}]] {
{static} -int NUMBER_OF_CARD_IN_ONE_SET
{static} -int MAXIMUM_ARMY_IN_ONE_ATTACK
{static} -int MINIMUM_ARMY_TO_ATTACK
{static} -int MINIMUM_NUMBER_OF_PLAYER
{static} -int MAXIMUM_NUMBER_OF_PLAYER
{static} -int MINIMUM_NUMBER_OF_ARMY_ON_COUNTRY
+GameController()
+void handleGamePlayerCommand(String args)
+boolean isNumberOfPlayerValid()
+void populateCountries()
+void initPlayersUnplacedArmies()
+void handlePlaceArmyCommand(String countryName)
+void handlePlaceAllCommand()
+Player getCurrentPlayer()
+Player startRoundRobinPlayers()
+void showCurrentPlayer()
+boolean enterReinforcement()
+void handleReinforceCommand(String args)
+boolean enterFortifyPhase()
+void handleMultipleFortificationCommand(String args)
+boolean enterAttackPhase()
+void handleAttackCommand(String args)
+void handleDefendCommand(String args)
+void handleAttackMoveCommand(String args)
+void exchangeCard(String args)
~void turnToNextPlayer()
~boolean isAttackValid(Country attackingCountry,int attackerNumDice,int defenderNumDice,boolean alloutFlag)
~void setEndOfGamePhase()
-Player getCurrentPlayer(boolean isShowMessage)
-void handleFortifyCommand(String args)
-void simulateAttack(GameBoardPlaying gameBoardPlaying)
-boolean isGameEnded()
-boolean isAttackPreconditionsValid(Country attackingCountry,Country defendingCountry)
-void attackResult(Country defendingCountry,Country attackingCountry)
-void endAttackPhase()
-CardSet buildCardSet(String args)
}


class "<b><size:14>Player</b>\n<size:10>soen6441riskgame.models" as soen6441riskgame.models.Player  [[../../soen6441riskgame/models/Player.html{soen6441riskgame.models.Player}]] #white {
}

hide soen6441riskgame.models.Player fields
hide soen6441riskgame.models.Player methods

soen6441riskgame.controllers.GameController ..> soen6441riskgame.models.Player




class "<b><size:14>TournamentController</b>\n<size:10>soen6441riskgame.controllers" as soen6441riskgame.controllers.TournamentController  [[../../soen6441riskgame/controllers/TournamentController.html{soen6441riskgame.controllers.TournamentController}]] {
}

hide soen6441riskgame.controllers.TournamentController fields
hide soen6441riskgame.controllers.TournamentController methods

soen6441riskgame.controllers.TournamentController - ->  "gameController" soen6441riskgame.controllers.GameController


@enduml

PlantUML version 1.2017.15(Mon Jul 03 12:45:34 EDT 2017)
(GPL source distribution)
Java Runtime: Java(TM) SE Runtime Environment
JVM: Java HotSpot(TM) 64-Bit Server VM
Java Version: 1.8.0_231-b11
Operating System: Windows 10
OS Version: 10.0
Default Encoding: Cp1252
Language: en
Country: US
--></g></svg>