<?xml version="1.0" encoding="UTF-8" standalone="no"?><svg xmlns="http://www.w3.org/2000/svg" xmlns:xlink="http://www.w3.org/1999/xlink" contentScriptType="application/ecmascript" contentStyleType="text/css" height="687px" preserveAspectRatio="none" style="width:300px;height:687px;" version="1.1" viewBox="0 0 300 687" width="300px" zoomAndPan="magnify"><defs><filter height="300%" id="fbjeqljjf72w" width="300%" x="-1" y="-1"><feGaussianBlur result="blurOut" stdDeviation="2.0"/><feColorMatrix in="blurOut" result="blurOut2" type="matrix" values="0 0 0 0 0 0 0 0 0 0 0 0 0 0 0 0 0 0 .4 0"/><feOffset dx="4.0" dy="4.0" in="blurOut2" result="blurOut3"/><feBlend in="SourceGraphic" in2="blurOut3" mode="normal"/></filter></defs><g><!--class soen6441riskgame.controllers.GameController--><a target="_parent" xlink:actuate="onRequest" xlink:href="../../soen6441riskgame/controllers/GameController.html" xlink:show="new" xlink:title="soen6441riskgame.controllers.GameController" xlink:type="simple"><rect fill="#FEFECE" filter="url(#fbjeqljjf72w)" height="568.1172" id="soen6441riskgame.controllers.GameController" style="stroke: #A80036; stroke-width: 1.5;" width="283" x="6" y="8"/><ellipse cx="73.75" cy="28.0938" fill="#ADD1B2" rx="11" ry="11" style="stroke: #A80036; stroke-width: 1.0;"/><path d="M76.5156,23.9688 Q76.6719,23.75 76.8594,23.6406 Q77.0469,23.5313 77.2656,23.5313 Q77.6406,23.5313 77.875,23.7891 Q78.1094,24.0469 78.1094,24.6563 L78.1094,26.1094 Q78.1094,26.7188 77.875,26.9844 Q77.6406,27.25 77.2656,27.25 Q76.9219,27.25 76.7188,27.0469 Q76.5156,26.8594 76.4063,26.3438 Q76.3594,25.9844 76.1719,25.7969 Q75.8438,25.4219 75.2344,25.2031 Q74.625,24.9844 74,24.9844 Q73.2344,24.9844 72.6016,25.3125 Q71.9688,25.6406 71.4766,26.3906 Q70.9844,27.1406 70.9844,28.1719 L70.9844,29.2656 Q70.9844,30.5 71.875,31.3203 Q72.7656,32.1406 74.3594,32.1406 Q75.2969,32.1406 75.9531,31.8906 Q76.3438,31.7344 76.7656,31.2969 Q77.0313,31.0313 77.1797,30.9531 Q77.3281,30.875 77.5313,30.875 Q77.8594,30.875 78.1172,31.1328 Q78.375,31.3906 78.375,31.7344 Q78.375,32.0781 78.0313,32.4844 Q77.5313,33.0625 76.7344,33.3906 Q75.6563,33.8438 74.3594,33.8438 Q72.8438,33.8438 71.6406,33.2188 Q70.6563,32.7188 69.9688,31.6484 Q69.2813,30.5781 69.2813,29.2969 L69.2813,28.1406 Q69.2813,26.8125 69.8984,25.6641 Q70.5156,24.5156 71.6094,23.8984 Q72.7031,23.2813 73.9375,23.2813 Q74.6719,23.2813 75.3203,23.4453 Q75.9688,23.6094 76.5156,23.9688 Z "/><text fill="#000000" font-family="sans-serif" font-size="14" font-weight="bold" lengthAdjust="spacingAndGlyphs" textLength="111" x="108.25" y="27.5332">GameController</text><text fill="#000000" font-family="sans-serif" font-size="10" lengthAdjust="spacingAndGlyphs" textLength="139" x="94.25" y="40.9902">soen6441riskgame.controllers</text><line style="stroke: #A80036; stroke-width: 1.5;" x1="7" x2="288" y1="48.1875" y2="48.1875"/><rect fill="none" height="6" style="stroke: #C82930; stroke-width: 1.0;" width="6" x="14" y="57.6055"/><text fill="#000000" font-family="sans-serif" font-size="11" lengthAdjust="spacingAndGlyphs" text-decoration="underline" textLength="178" x="26" y="63.6064">int NUMBER_OF_CARD_IN_ONE_SET</text><line style="stroke: #000000; stroke-width: 1.0;" x1="26" x2="204" y1="65.6064" y2="65.6064"/><rect fill="none" height="6" style="stroke: #C82930; stroke-width: 1.0;" width="6" x="14" y="71.4414"/><text fill="#000000" font-family="sans-serif" font-size="11" lengthAdjust="spacingAndGlyphs" text-decoration="underline" textLength="189" x="26" y="77.4424">int MAXIMUM_ARMY_IN_ONE_ATTACK</text><line style="stroke: #000000; stroke-width: 1.0;" x1="26" x2="215" y1="79.4424" y2="79.4424"/><rect fill="none" height="6" style="stroke: #C82930; stroke-width: 1.0;" width="6" x="14" y="85.2773"/><text fill="#000000" font-family="sans-serif" font-size="11" lengthAdjust="spacingAndGlyphs" text-decoration="underline" textLength="161" x="26" y="91.2783">int MINIMUM_ARMY_TO_ATTACK</text><line style="stroke: #000000; stroke-width: 1.0;" x1="26" x2="187" y1="93.2783" y2="93.2783"/><rect fill="none" height="6" style="stroke: #C82930; stroke-width: 1.0;" width="6" x="14" y="99.1133"/><text fill="#000000" font-family="sans-serif" font-size="11" lengthAdjust="spacingAndGlyphs" text-decoration="underline" textLength="171" x="26" y="105.1143">int MINIMUM_NUMBER_OF_PLAYER</text><line style="stroke: #000000; stroke-width: 1.0;" x1="26" x2="197" y1="107.1143" y2="107.1143"/><rect fill="none" height="6" style="stroke: #C82930; stroke-width: 1.0;" width="6" x="14" y="112.9492"/><text fill="#000000" font-family="sans-serif" font-size="11" lengthAdjust="spacingAndGlyphs" text-decoration="underline" textLength="177" x="26" y="118.9502">int MAXIMUM_NUMBER_OF_PLAYER</text><line style="stroke: #000000; stroke-width: 1.0;" x1="26" x2="203" y1="120.9502" y2="120.9502"/><rect fill="none" height="6" style="stroke: #C82930; stroke-width: 1.0;" width="6" x="14" y="126.7852"/><text fill="#000000" font-family="sans-serif" font-size="11" lengthAdjust="spacingAndGlyphs" text-decoration="underline" textLength="238" x="26" y="132.7861">int MINIMUM_NUMBER_OF_ARMY_ON_COUNTRY</text><line style="stroke: #000000; stroke-width: 1.0;" x1="26" x2="264" y1="134.7861" y2="134.7861"/><line style="stroke: #A80036; stroke-width: 1.5;" x1="7" x2="288" y1="139.2031" y2="139.2031"/><ellipse cx="17" cy="151.6211" fill="#84BE84" rx="3" ry="3" style="stroke: #038048; stroke-width: 1.0;"/><text fill="#000000" font-family="sans-serif" font-size="11" lengthAdjust="spacingAndGlyphs" textLength="82" x="26" y="154.6221">GameController()</text><ellipse cx="17" cy="165.457" fill="#84BE84" rx="3" ry="3" style="stroke: #038048; stroke-width: 1.0;"/><text fill="#000000" font-family="sans-serif" font-size="11" lengthAdjust="spacingAndGlyphs" textLength="221" x="26" y="168.458">void handleGamePlayerCommand(String args)</text><ellipse cx="17" cy="179.293" fill="#84BE84" rx="3" ry="3" style="stroke: #038048; stroke-width: 1.0;"/><text fill="#000000" font-family="sans-serif" font-size="11" lengthAdjust="spacingAndGlyphs" textLength="160" x="26" y="182.2939">boolean isNumberOfPlayerValid()</text><ellipse cx="17" cy="193.1289" fill="#84BE84" rx="3" ry="3" style="stroke: #038048; stroke-width: 1.0;"/><text fill="#000000" font-family="sans-serif" font-size="11" lengthAdjust="spacingAndGlyphs" textLength="118" x="26" y="196.1299">void populateCountries()</text><ellipse cx="17" cy="206.9648" fill="#84BE84" rx="3" ry="3" style="stroke: #038048; stroke-width: 1.0;"/><text fill="#000000" font-family="sans-serif" font-size="11" lengthAdjust="spacingAndGlyphs" textLength="159" x="26" y="209.9658">void initPlayersUnplacedArmies()</text><ellipse cx="17" cy="220.8008" fill="#84BE84" rx="3" ry="3" style="stroke: #038048; stroke-width: 1.0;"/><text fill="#000000" font-family="sans-serif" font-size="11" lengthAdjust="spacingAndGlyphs" textLength="257" x="26" y="223.8018">void handlePlaceArmyCommand(String countryName)</text><ellipse cx="17" cy="234.6367" fill="#84BE84" rx="3" ry="3" style="stroke: #038048; stroke-width: 1.0;"/><text fill="#000000" font-family="sans-serif" font-size="11" lengthAdjust="spacingAndGlyphs" textLength="148" x="26" y="237.6377">void handlePlaceAllCommand()</text><ellipse cx="17" cy="248.4727" fill="#84BE84" rx="3" ry="3" style="stroke: #038048; stroke-width: 1.0;"/><text fill="#000000" font-family="sans-serif" font-size="11" lengthAdjust="spacingAndGlyphs" textLength="122" x="26" y="251.4736">Player getCurrentPlayer()</text><ellipse cx="17" cy="262.3086" fill="#84BE84" rx="3" ry="3" style="stroke: #038048; stroke-width: 1.0;"/><text fill="#000000" font-family="sans-serif" font-size="11" lengthAdjust="spacingAndGlyphs" textLength="157" x="26" y="265.3096">Player startRoundRobinPlayers()</text><ellipse cx="17" cy="276.1445" fill="#84BE84" rx="3" ry="3" style="stroke: #038048; stroke-width: 1.0;"/><text fill="#000000" font-family="sans-serif" font-size="11" lengthAdjust="spacingAndGlyphs" textLength="125" x="26" y="279.1455">void showCurrentPlayer()</text><ellipse cx="17" cy="289.9805" fill="#84BE84" rx="3" ry="3" style="stroke: #038048; stroke-width: 1.0;"/><text fill="#000000" font-family="sans-serif" font-size="11" lengthAdjust="spacingAndGlyphs" textLength="144" x="26" y="292.9814">boolean enterReinforcement()</text><ellipse cx="17" cy="303.8164" fill="#84BE84" rx="3" ry="3" style="stroke: #038048; stroke-width: 1.0;"/><text fill="#000000" font-family="sans-serif" font-size="11" lengthAdjust="spacingAndGlyphs" textLength="210" x="26" y="306.8174">void handleReinforceCommand(String args)</text><ellipse cx="17" cy="317.6523" fill="#84BE84" rx="3" ry="3" style="stroke: #038048; stroke-width: 1.0;"/><text fill="#000000" font-family="sans-serif" font-size="11" lengthAdjust="spacingAndGlyphs" textLength="135" x="26" y="320.6533">boolean enterFortifyPhase()</text><ellipse cx="17" cy="331.4883" fill="#84BE84" rx="3" ry="3" style="stroke: #038048; stroke-width: 1.0;"/><text fill="#000000" font-family="sans-serif" font-size="11" lengthAdjust="spacingAndGlyphs" textLength="254" x="26" y="334.4893">void handleMultipleFortificationCommand(String args)</text><ellipse cx="17" cy="345.3242" fill="#84BE84" rx="3" ry="3" style="stroke: #038048; stroke-width: 1.0;"/><text fill="#000000" font-family="sans-serif" font-size="11" lengthAdjust="spacingAndGlyphs" textLength="135" x="26" y="348.3252">boolean enterAttackPhase()</text><ellipse cx="17" cy="359.1602" fill="#84BE84" rx="3" ry="3" style="stroke: #038048; stroke-width: 1.0;"/><text fill="#000000" font-family="sans-serif" font-size="11" lengthAdjust="spacingAndGlyphs" textLength="194" x="26" y="362.1611">void handleAttackCommand(String args)</text><ellipse cx="17" cy="372.9961" fill="#84BE84" rx="3" ry="3" style="stroke: #038048; stroke-width: 1.0;"/><text fill="#000000" font-family="sans-serif" font-size="11" lengthAdjust="spacingAndGlyphs" textLength="198" x="26" y="375.9971">void handleDefendCommand(String args)</text><ellipse cx="17" cy="386.832" fill="#84BE84" rx="3" ry="3" style="stroke: #038048; stroke-width: 1.0;"/><text fill="#000000" font-family="sans-serif" font-size="11" lengthAdjust="spacingAndGlyphs" textLength="220" x="26" y="389.833">void handleAttackMoveCommand(String args)</text><ellipse cx="17" cy="400.668" fill="#84BE84" rx="3" ry="3" style="stroke: #038048; stroke-width: 1.0;"/><text fill="#000000" font-family="sans-serif" font-size="11" lengthAdjust="spacingAndGlyphs" textLength="155" x="26" y="403.6689">void exchangeCard(String args)</text><polygon fill="#4177AF" points="17,410.5039,13,416.5039,21,416.5039" style="stroke: #1963A0; stroke-width: 1.0;"/><text fill="#000000" font-family="sans-serif" font-size="11" lengthAdjust="spacingAndGlyphs" textLength="114" x="26" y="417.5049">void turnToNextPlayer()</text><polygon fill="#4177AF" points="17,424.3398,13,430.3398,21,430.3398" style="stroke: #1963A0; stroke-width: 1.0;"/><text fill="#000000" font-family="sans-serif" font-size="11" lengthAdjust="spacingAndGlyphs" textLength="112" x="26" y="431.3408">boolean isAttackValid()</text><polygon fill="#4177AF" points="17,438.1758,13,444.1758,21,444.1758" style="stroke: #1963A0; stroke-width: 1.0;"/><text fill="#000000" font-family="sans-serif" font-size="11" lengthAdjust="spacingAndGlyphs" textLength="134" x="26" y="445.1768">void setEndOfGamePhase()</text><rect fill="#F24D5C" height="6" style="stroke: #C82930; stroke-width: 1.0;" width="6" x="14" y="453.0117"/><text fill="#000000" font-family="sans-serif" font-size="11" lengthAdjust="spacingAndGlyphs" textLength="244" x="26" y="459.0127">Player getCurrentPlayer(boolean isShowMessage)</text><rect fill="#F24D5C" height="6" style="stroke: #C82930; stroke-width: 1.0;" width="6" x="14" y="466.8477"/><text fill="#000000" font-family="sans-serif" font-size="11" lengthAdjust="spacingAndGlyphs" textLength="194" x="26" y="472.8486">void handleFortifyCommand(String args)</text><rect fill="#F24D5C" height="6" style="stroke: #C82930; stroke-width: 1.0;" width="6" x="14" y="480.6836"/><text fill="#000000" font-family="sans-serif" font-size="11" lengthAdjust="spacingAndGlyphs" textLength="101" x="26" y="486.6846">void simulateAttack()</text><rect fill="#F24D5C" height="6" style="stroke: #C82930; stroke-width: 1.0;" width="6" x="14" y="494.5195"/><text fill="#000000" font-family="sans-serif" font-size="11" lengthAdjust="spacingAndGlyphs" textLength="153" x="26" y="500.5205">boolean furtherAttackPossible()</text><rect fill="#F24D5C" height="6" style="stroke: #C82930; stroke-width: 1.0;" width="6" x="14" y="508.3555"/><text fill="#000000" font-family="sans-serif" font-size="11" lengthAdjust="spacingAndGlyphs" textLength="115" x="26" y="514.3564">boolean isGameEnded()</text><rect fill="#F24D5C" height="6" style="stroke: #C82930; stroke-width: 1.0;" width="6" x="14" y="522.1914"/><text fill="#000000" font-family="sans-serif" font-size="11" lengthAdjust="spacingAndGlyphs" textLength="177" x="26" y="528.1924">boolean isAttackPreconditionsValid()</text><rect fill="#F24D5C" height="6" style="stroke: #C82930; stroke-width: 1.0;" width="6" x="14" y="536.0273"/><text fill="#000000" font-family="sans-serif" font-size="11" lengthAdjust="spacingAndGlyphs" textLength="90" x="26" y="542.0283">void attackResult()</text><rect fill="#F24D5C" height="6" style="stroke: #C82930; stroke-width: 1.0;" width="6" x="14" y="549.8633"/><text fill="#000000" font-family="sans-serif" font-size="11" lengthAdjust="spacingAndGlyphs" textLength="110" x="26" y="555.8643">void endAttackPhase()</text><rect fill="#F24D5C" height="6" style="stroke: #C82930; stroke-width: 1.0;" width="6" x="14" y="563.6992"/><text fill="#000000" font-family="sans-serif" font-size="11" lengthAdjust="spacingAndGlyphs" textLength="164" x="26" y="569.7002">CardSet buildCardSet(String args)</text></a><!--class soen6441riskgame.models.Player--><a target="_parent" xlink:actuate="onRequest" xlink:href="../../soen6441riskgame/models/Player.html" xlink:show="new" xlink:title="soen6441riskgame.models.Player" xlink:type="simple"><rect fill="#FFFFFF" filter="url(#fbjeqljjf72w)" height="40.1875" id="soen6441riskgame.models.Player" style="stroke: #A80036; stroke-width: 1.5;" width="156" x="69.5" y="636"/><rect fill="#FFFFFF" height="40.1875" style="stroke: #A80036; stroke-width: 1.5;" width="156" x="69.5" y="636"/><ellipse cx="84.5" cy="656.0938" fill="#ADD1B2" rx="11" ry="11" style="stroke: #A80036; stroke-width: 1.0;"/><path d="M87.2656,651.9688 Q87.4219,651.75 87.6094,651.6406 Q87.7969,651.5313 88.0156,651.5313 Q88.3906,651.5313 88.625,651.7891 Q88.8594,652.0469 88.8594,652.6563 L88.8594,654.1094 Q88.8594,654.7188 88.625,654.9844 Q88.3906,655.25 88.0156,655.25 Q87.6719,655.25 87.4688,655.0469 Q87.2656,654.8594 87.1563,654.3438 Q87.1094,653.9844 86.9219,653.7969 Q86.5938,653.4219 85.9844,653.2031 Q85.375,652.9844 84.75,652.9844 Q83.9844,652.9844 83.3516,653.3125 Q82.7188,653.6406 82.2266,654.3906 Q81.7344,655.1406 81.7344,656.1719 L81.7344,657.2656 Q81.7344,658.5 82.625,659.3203 Q83.5156,660.1406 85.1094,660.1406 Q86.0469,660.1406 86.7031,659.8906 Q87.0938,659.7344 87.5156,659.2969 Q87.7813,659.0313 87.9297,658.9531 Q88.0781,658.875 88.2813,658.875 Q88.6094,658.875 88.8672,659.1328 Q89.125,659.3906 89.125,659.7344 Q89.125,660.0781 88.7813,660.4844 Q88.2813,661.0625 87.4844,661.3906 Q86.4063,661.8438 85.1094,661.8438 Q83.5938,661.8438 82.3906,661.2188 Q81.4063,660.7188 80.7188,659.6484 Q80.0313,658.5781 80.0313,657.2969 L80.0313,656.1406 Q80.0313,654.8125 80.6484,653.6641 Q81.2656,652.5156 82.3594,651.8984 Q83.4531,651.2813 84.6875,651.2813 Q85.4219,651.2813 86.0703,651.4453 Q86.7188,651.6094 87.2656,651.9688 Z "/><text fill="#000000" font-family="sans-serif" font-size="14" font-weight="bold" lengthAdjust="spacingAndGlyphs" textLength="43" x="139" y="655.5332">Player</text><text fill="#000000" font-family="sans-serif" font-size="10" lengthAdjust="spacingAndGlyphs" textLength="124" x="98.5" y="668.9902">soen6441riskgame.models</text></a><!--link soen6441riskgame.controllers.GameController to soen6441riskgame.models.Player--><path d="M147.5,576.1187 C147.5,576.1187 147.5,630.7746 147.5,630.7746 " fill="none" id="soen6441riskgame.controllers.GameController-soen6441riskgame.models.Player" style="stroke: #A80036; stroke-width: 1.0; stroke-dasharray: 7.0,7.0;"/><polygon fill="#A80036" points="147.5,635.7746,151.5,626.7746,147.5,630.7746,143.5,626.7746,147.5,635.7746" style="stroke: #A80036; stroke-width: 1.0;"/><!--
@startuml

skinparam svgLinkTarget _parent
skinparam linetype ortho
set namespaceSeparator none
class "<b><size:14>GameController</b>\n<size:10>soen6441riskgame.controllers" as soen6441riskgame.controllers.GameController  [[../../soen6441riskgame/controllers/GameController.html{soen6441riskgame.controllers.GameController}]] {
{static} -int NUMBER_OF_CARD_IN_ONE_SET
{static} -int MAXIMUM_ARMY_IN_ONE_ATTACK
{static} -int MINIMUM_ARMY_TO_ATTACK
{static} -int MINIMUM_NUMBER_OF_PLAYER
{static} -int MAXIMUM_NUMBER_OF_PLAYER
{static} -int MINIMUM_NUMBER_OF_ARMY_ON_COUNTRY
+GameController()
+void handleGamePlayerCommand(String args)
+boolean isNumberOfPlayerValid()
+void populateCountries()
+void initPlayersUnplacedArmies()
+void handlePlaceArmyCommand(String countryName)
+void handlePlaceAllCommand()
+Player getCurrentPlayer()
+Player startRoundRobinPlayers()
+void showCurrentPlayer()
+boolean enterReinforcement()
+void handleReinforceCommand(String args)
+boolean enterFortifyPhase()
+void handleMultipleFortificationCommand(String args)
+boolean enterAttackPhase()
+void handleAttackCommand(String args)
+void handleDefendCommand(String args)
+void handleAttackMoveCommand(String args)
+void exchangeCard(String args)
~void turnToNextPlayer()
~boolean isAttackValid()
~void setEndOfGamePhase()
-Player getCurrentPlayer(boolean isShowMessage)
-void handleFortifyCommand(String args)
-void simulateAttack()
-boolean furtherAttackPossible()
-boolean isGameEnded()
-boolean isAttackPreconditionsValid()
-void attackResult()
-void endAttackPhase()
-CardSet buildCardSet(String args)
}


class "<b><size:14>Player</b>\n<size:10>soen6441riskgame.models" as soen6441riskgame.models.Player  [[../../soen6441riskgame/models/Player.html{soen6441riskgame.models.Player}]] #white {
}

hide soen6441riskgame.models.Player fields
hide soen6441riskgame.models.Player methods

soen6441riskgame.controllers.GameController ..> soen6441riskgame.models.Player



@enduml

PlantUML version 1.2017.15(Mon Jul 03 12:45:34 EDT 2017)
(GPL source distribution)
Java Runtime: Java(TM) SE Runtime Environment
JVM: Java HotSpot(TM) 64-Bit Server VM
Java Version: 1.8.0_231-b11
Operating System: Windows 10
OS Version: 10.0
Default Encoding: Cp1252
Language: en
Country: US
--></g></svg>