<?xml version="1.0" encoding="UTF-8" standalone="no"?><svg xmlns="http://www.w3.org/2000/svg" xmlns:xlink="http://www.w3.org/1999/xlink" contentScriptType="application/ecmascript" contentStyleType="text/css" height="701px" preserveAspectRatio="none" style="width:488px;height:701px;" version="1.1" viewBox="0 0 488 701" width="488px" zoomAndPan="magnify"><defs><filter height="300%" id="f99d17k3ddcl" width="300%" x="-1" y="-1"><feGaussianBlur result="blurOut" stdDeviation="2.0"/><feColorMatrix in="blurOut" result="blurOut2" type="matrix" values="0 0 0 0 0 0 0 0 0 0 0 0 0 0 0 0 0 0 .4 0"/><feOffset dx="4.0" dy="4.0" in="blurOut2" result="blurOut3"/><feBlend in="SourceGraphic" in2="blurOut3" mode="normal"/></filter></defs><g><!--class soen6441riskgame.controllers.MapController--><a target="_parent" xlink:actuate="onRequest" xlink:href="../../soen6441riskgame/controllers/MapController.html" xlink:show="new" xlink:title="soen6441riskgame.controllers.MapController" xlink:type="simple"><rect fill="#FEFECE" filter="url(#f99d17k3ddcl)" height="581.9531" id="soen6441riskgame.controllers.MapController" style="stroke: #A80036; stroke-width: 1.5;" width="471" x="6" y="8"/><ellipse cx="167.75" cy="28.0938" fill="#ADD1B2" rx="11" ry="11" style="stroke: #A80036; stroke-width: 1.0;"/><path d="M170.5156,23.9688 Q170.6719,23.75 170.8594,23.6406 Q171.0469,23.5313 171.2656,23.5313 Q171.6406,23.5313 171.875,23.7891 Q172.1094,24.0469 172.1094,24.6563 L172.1094,26.1094 Q172.1094,26.7188 171.875,26.9844 Q171.6406,27.25 171.2656,27.25 Q170.9219,27.25 170.7188,27.0469 Q170.5156,26.8594 170.4063,26.3438 Q170.3594,25.9844 170.1719,25.7969 Q169.8438,25.4219 169.2344,25.2031 Q168.625,24.9844 168,24.9844 Q167.2344,24.9844 166.6016,25.3125 Q165.9688,25.6406 165.4766,26.3906 Q164.9844,27.1406 164.9844,28.1719 L164.9844,29.2656 Q164.9844,30.5 165.875,31.3203 Q166.7656,32.1406 168.3594,32.1406 Q169.2969,32.1406 169.9531,31.8906 Q170.3438,31.7344 170.7656,31.2969 Q171.0313,31.0313 171.1797,30.9531 Q171.3281,30.875 171.5313,30.875 Q171.8594,30.875 172.1172,31.1328 Q172.375,31.3906 172.375,31.7344 Q172.375,32.0781 172.0313,32.4844 Q171.5313,33.0625 170.7344,33.3906 Q169.6563,33.8438 168.3594,33.8438 Q166.8438,33.8438 165.6406,33.2188 Q164.6563,32.7188 163.9688,31.6484 Q163.2813,30.5781 163.2813,29.2969 L163.2813,28.1406 Q163.2813,26.8125 163.8984,25.6641 Q164.5156,24.5156 165.6094,23.8984 Q166.7031,23.2813 167.9375,23.2813 Q168.6719,23.2813 169.3203,23.4453 Q169.9688,23.6094 170.5156,23.9688 Z "/><text fill="#000000" font-family="sans-serif" font-size="14" font-weight="bold" lengthAdjust="spacingAndGlyphs" textLength="101" x="207.25" y="27.5332">MapController</text><text fill="#000000" font-family="sans-serif" font-size="10" lengthAdjust="spacingAndGlyphs" textLength="139" x="188.25" y="40.9902">soen6441riskgame.controllers</text><line style="stroke: #A80036; stroke-width: 1.5;" x1="7" x2="476" y1="48.1875" y2="48.1875"/><rect fill="none" height="6" style="stroke: #C82930; stroke-width: 1.0;" width="6" x="14" y="57.6055"/><text fill="#000000" font-family="sans-serif" font-size="11" lengthAdjust="spacingAndGlyphs" text-decoration="underline" textLength="189" x="26" y="63.6064">int MINIMUM_AMOUNT_OF_COUNTRIES</text><line style="stroke: #000000; stroke-width: 1.0;" x1="26" x2="215" y1="65.6064" y2="65.6064"/><line style="stroke: #A80036; stroke-width: 1.5;" x1="7" x2="476" y1="70.0234" y2="70.0234"/><ellipse cx="17" cy="82.4414" fill="#84BE84" rx="3" ry="3" style="stroke: #038048; stroke-width: 1.0;"/><text fill="#000000" font-family="sans-serif" font-size="11" lengthAdjust="spacingAndGlyphs" textLength="74" x="26" y="85.4424">MapController()</text><ellipse cx="17" cy="96.2773" fill="#84BE84" rx="3" ry="3" style="stroke: #038048; stroke-width: 1.0;"/><text fill="#000000" font-family="sans-serif" font-size="11" lengthAdjust="spacingAndGlyphs" textLength="345" x="26" y="99.2783">void addContinent(String continentName,String continentValue,int order)</text><ellipse cx="17" cy="110.1133" fill="#84BE84" rx="3" ry="3" style="stroke: #038048; stroke-width: 1.0;"/><text fill="#000000" font-family="sans-serif" font-size="11" lengthAdjust="spacingAndGlyphs" textLength="287" x="26" y="113.1143">void addCountry(String countryName,String continentName)</text><ellipse cx="17" cy="123.9492" fill="#84BE84" rx="3" ry="3" style="stroke: #038048; stroke-width: 1.0;"/><text fill="#000000" font-family="sans-serif" font-size="11" lengthAdjust="spacingAndGlyphs" textLength="328" x="26" y="126.9502">void addNeighbor(String countryName,String neighborCountryName)</text><ellipse cx="17" cy="137.7852" fill="#84BE84" rx="3" ry="3" style="stroke: #038048; stroke-width: 1.0;"/><text fill="#000000" font-family="sans-serif" font-size="11" lengthAdjust="spacingAndGlyphs" textLength="313" x="26" y="140.7861">void createNewCountry(String countryName,Continent continent)</text><ellipse cx="17" cy="151.6211" fill="#84BE84" rx="3" ry="3" style="stroke: #038048; stroke-width: 1.0;"/><text fill="#000000" font-family="sans-serif" font-size="11" lengthAdjust="spacingAndGlyphs" textLength="146" x="26" y="154.6221">void editContinent(String args)</text><ellipse cx="17" cy="165.457" fill="#84BE84" rx="3" ry="3" style="stroke: #038048; stroke-width: 1.0;"/><text fill="#000000" font-family="sans-serif" font-size="11" lengthAdjust="spacingAndGlyphs" textLength="139" x="26" y="168.458">void editCountry(String args)</text><ellipse cx="17" cy="179.293" fill="#84BE84" rx="3" ry="3" style="stroke: #038048; stroke-width: 1.0;"/><text fill="#000000" font-family="sans-serif" font-size="11" lengthAdjust="spacingAndGlyphs" textLength="140" x="26" y="182.2939">void editMap(String fileName)</text><ellipse cx="17" cy="193.1289" fill="#84BE84" rx="3" ry="3" style="stroke: #038048; stroke-width: 1.0;"/><text fill="#000000" font-family="sans-serif" font-size="11" lengthAdjust="spacingAndGlyphs" textLength="144" x="26" y="196.1299">void editNeighbor(String args)</text><ellipse cx="17" cy="206.9648" fill="#84BE84" rx="3" ry="3" style="stroke: #038048; stroke-width: 1.0;"/><text fill="#000000" font-family="sans-serif" font-size="11" lengthAdjust="spacingAndGlyphs" textLength="269" x="26" y="209.9658">Continent getContinentFromName(String continentName)</text><ellipse cx="17" cy="220.8008" fill="#84BE84" rx="3" ry="3" style="stroke: #038048; stroke-width: 1.0;"/><text fill="#000000" font-family="sans-serif" font-size="11" lengthAdjust="spacingAndGlyphs" textLength="239" x="26" y="223.8018">boolean isContinentExisted(String continentName)</text><ellipse cx="17" cy="234.6367" fill="#84BE84" rx="3" ry="3" style="stroke: #038048; stroke-width: 1.0;"/><text fill="#000000" font-family="sans-serif" font-size="11" lengthAdjust="spacingAndGlyphs" textLength="225" x="26" y="237.6377">boolean isCountryExisted(String countryName)</text><ellipse cx="17" cy="248.4727" fill="#84BE84" rx="3" ry="3" style="stroke: #038048; stroke-width: 1.0;"/><text fill="#000000" font-family="sans-serif" font-size="11" lengthAdjust="spacingAndGlyphs" textLength="143" x="26" y="251.4736">void loadMap(String fileName)</text><ellipse cx="17" cy="262.3086" fill="#84BE84" rx="3" ry="3" style="stroke: #038048; stroke-width: 1.0;"/><text fill="#000000" font-family="sans-serif" font-size="11" lengthAdjust="spacingAndGlyphs" textLength="214" x="26" y="265.3096">void removeContinent(String continentName)</text><ellipse cx="17" cy="276.1445" fill="#84BE84" rx="3" ry="3" style="stroke: #038048; stroke-width: 1.0;"/><text fill="#000000" font-family="sans-serif" font-size="11" lengthAdjust="spacingAndGlyphs" textLength="200" x="26" y="279.1455">void removeCountry(String countryName)</text><ellipse cx="17" cy="289.9805" fill="#84BE84" rx="3" ry="3" style="stroke: #038048; stroke-width: 1.0;"/><text fill="#000000" font-family="sans-serif" font-size="11" lengthAdjust="spacingAndGlyphs" textLength="346" x="26" y="292.9814">void removeNeighbor(String countryName,String neighborCountryName)</text><ellipse cx="17" cy="303.8164" fill="#84BE84" rx="3" ry="3" style="stroke: #038048; stroke-width: 1.0;"/><text fill="#000000" font-family="sans-serif" font-size="11" lengthAdjust="spacingAndGlyphs" textLength="76" x="26" y="306.8174">void resetMap()</text><ellipse cx="17" cy="317.6523" fill="#84BE84" rx="3" ry="3" style="stroke: #038048; stroke-width: 1.0;"/><text fill="#000000" font-family="sans-serif" font-size="11" lengthAdjust="spacingAndGlyphs" textLength="147" x="26" y="320.6533">void saveMap(String fileName)</text><ellipse cx="17" cy="331.4883" fill="#84BE84" rx="3" ry="3" style="stroke: #038048; stroke-width: 1.0;"/><text fill="#000000" font-family="sans-serif" font-size="11" lengthAdjust="spacingAndGlyphs" textLength="79" x="26" y="334.4893">void showMap()</text><ellipse cx="17" cy="345.3242" fill="#84BE84" rx="3" ry="3" style="stroke: #038048; stroke-width: 1.0;"/><text fill="#000000" font-family="sans-serif" font-size="11" lengthAdjust="spacingAndGlyphs" textLength="101" x="26" y="348.3252">boolean isMapValid()</text><ellipse cx="17" cy="359.1602" fill="#84BE84" rx="3" ry="3" style="stroke: #038048; stroke-width: 1.0;"/><text fill="#000000" font-family="sans-serif" font-size="11" lengthAdjust="spacingAndGlyphs" textLength="88" x="26" y="362.1611">void validateMap()</text><rect fill="#F24D5C" height="6" style="stroke: #C82930; stroke-width: 1.0;" width="6" x="14" y="369.9961"/><text fill="#000000" font-family="sans-serif" font-size="11" lengthAdjust="spacingAndGlyphs" textLength="283" x="26" y="375.9971">void addBorders(int countryOrder,int borderWithCountries)</text><rect fill="#F24D5C" height="6" style="stroke: #C82930; stroke-width: 1.0;" width="6" x="14" y="383.832"/><text fill="#000000" font-family="sans-serif" font-size="11" lengthAdjust="spacingAndGlyphs" textLength="445" x="26" y="389.833">void addCountryFromMapFile(int order,String name,int continentOrder,Coordinate coordinate)</text><rect fill="#F24D5C" height="6" style="stroke: #C82930; stroke-width: 1.0;" width="6" x="14" y="397.668"/><text fill="#000000" font-family="sans-serif" font-size="11" lengthAdjust="spacingAndGlyphs" textLength="196" x="26" y="403.6689">void increaseBorder(int newBorderSize)</text><rect fill="#F24D5C" height="6" style="stroke: #C82930; stroke-width: 1.0;" width="6" x="14" y="411.5039"/><text fill="#000000" font-family="sans-serif" font-size="11" lengthAdjust="spacingAndGlyphs" textLength="208" x="26" y="417.5049">ArrayList&lt;Continent&gt; getEmptyContinents()</text><rect fill="#F24D5C" height="6" style="stroke: #C82930; stroke-width: 1.0;" width="6" x="14" y="425.3398"/><text fill="#000000" font-family="sans-serif" font-size="11" lengthAdjust="spacingAndGlyphs" textLength="204" x="26" y="431.3408">ArrayList&lt;Country&gt; getIsolatedCountries()</text><rect fill="#F24D5C" height="6" style="stroke: #C82930; stroke-width: 1.0;" width="6" x="14" y="439.1758"/><text fill="#000000" font-family="sans-serif" font-size="11" lengthAdjust="spacingAndGlyphs" textLength="304" x="26" y="445.1768">boolean isNotEnoughCountries(int minimumNumberOfCountries)</text><rect fill="#F24D5C" height="6" style="stroke: #C82930; stroke-width: 1.0;" width="6" x="14" y="453.0117"/><text fill="#000000" font-family="sans-serif" font-size="11" lengthAdjust="spacingAndGlyphs" textLength="345" x="26" y="459.0127">boolean isStillInCurrentDataBlock(int currentLineIndex,List&lt;String&gt; lines)</text><rect fill="#F24D5C" height="6" style="stroke: #C82930; stroke-width: 1.0;" width="6" x="14" y="466.8477"/><text fill="#000000" font-family="sans-serif" font-size="11" lengthAdjust="spacingAndGlyphs" textLength="301" x="26" y="472.8486">int loadBordersFromFile(int currentLineIndex,List&lt;String&gt; lines)</text><rect fill="#F24D5C" height="6" style="stroke: #C82930; stroke-width: 1.0;" width="6" x="14" y="480.6836"/><text fill="#000000" font-family="sans-serif" font-size="11" lengthAdjust="spacingAndGlyphs" textLength="313" x="26" y="486.6846">int loadContinentsFromFile(int currentLineIndex,List&lt;String&gt; lines)</text><rect fill="#F24D5C" height="6" style="stroke: #C82930; stroke-width: 1.0;" width="6" x="14" y="494.5195"/><text fill="#000000" font-family="sans-serif" font-size="11" lengthAdjust="spacingAndGlyphs" textLength="308" x="26" y="500.5205">int loadCountriesFromFile(int currentLineIndex,List&lt;String&gt; lines)</text><rect fill="#F24D5C" height="6" style="stroke: #C82930; stroke-width: 1.0;" width="6" x="14" y="508.3555"/><text fill="#000000" font-family="sans-serif" font-size="11" lengthAdjust="spacingAndGlyphs" textLength="187" x="26" y="514.3564">void removeBorder(int borderLocation)</text><rect fill="#F24D5C" height="6" style="stroke: #C82930; stroke-width: 1.0;" width="6" x="14" y="522.1914"/><text fill="#000000" font-family="sans-serif" font-size="11" lengthAdjust="spacingAndGlyphs" textLength="200" x="26" y="528.1924">void writeBordersToFile(FileWriter writer)</text><rect fill="#F24D5C" height="6" style="stroke: #C82930; stroke-width: 1.0;" width="6" x="14" y="536.0273"/><text fill="#000000" font-family="sans-serif" font-size="11" lengthAdjust="spacingAndGlyphs" textLength="207" x="26" y="542.0283">void writeCountriesToFile(FileWriter writer)</text><rect fill="#F24D5C" height="6" style="stroke: #C82930; stroke-width: 1.0;" width="6" x="14" y="549.8633"/><text fill="#000000" font-family="sans-serif" font-size="11" lengthAdjust="spacingAndGlyphs" textLength="212" x="26" y="555.8643">void writeContinentsToFile(FileWriter writer)</text><rect fill="#F24D5C" height="6" style="stroke: #C82930; stroke-width: 1.0;" width="6" x="14" y="563.6992"/><text fill="#000000" font-family="sans-serif" font-size="11" lengthAdjust="spacingAndGlyphs" textLength="320" x="26" y="569.7002">void updateCountryContinent(Country country,Continent continent)</text><rect fill="#F24D5C" height="6" style="stroke: #C82930; stroke-width: 1.0;" width="6" x="14" y="577.5352"/><text fill="#000000" font-family="sans-serif" font-size="11" lengthAdjust="spacingAndGlyphs" textLength="250" x="26" y="583.5361">ArrayList&lt;Country&gt; getCountriesHaveNoContinent()</text></a><!--class soen6441riskgame.models.Continent--><a target="_parent" xlink:actuate="onRequest" xlink:href="../../soen6441riskgame/models/Continent.html" xlink:show="new" xlink:title="soen6441riskgame.models.Continent" xlink:type="simple"><rect fill="#FFFFFF" filter="url(#f99d17k3ddcl)" height="40.1875" id="soen6441riskgame.models.Continent" style="stroke: #A80036; stroke-width: 1.5;" width="156" x="68.5" y="650"/><rect fill="#FFFFFF" height="40.1875" style="stroke: #A80036; stroke-width: 1.5;" width="156" x="68.5" y="650"/><ellipse cx="83.5" cy="670.0938" fill="#ADD1B2" rx="11" ry="11" style="stroke: #A80036; stroke-width: 1.0;"/><path d="M86.2656,665.9688 Q86.4219,665.75 86.6094,665.6406 Q86.7969,665.5313 87.0156,665.5313 Q87.3906,665.5313 87.625,665.7891 Q87.8594,666.0469 87.8594,666.6563 L87.8594,668.1094 Q87.8594,668.7188 87.625,668.9844 Q87.3906,669.25 87.0156,669.25 Q86.6719,669.25 86.4688,669.0469 Q86.2656,668.8594 86.1563,668.3438 Q86.1094,667.9844 85.9219,667.7969 Q85.5938,667.4219 84.9844,667.2031 Q84.375,666.9844 83.75,666.9844 Q82.9844,666.9844 82.3516,667.3125 Q81.7188,667.6406 81.2266,668.3906 Q80.7344,669.1406 80.7344,670.1719 L80.7344,671.2656 Q80.7344,672.5 81.625,673.3203 Q82.5156,674.1406 84.1094,674.1406 Q85.0469,674.1406 85.7031,673.8906 Q86.0938,673.7344 86.5156,673.2969 Q86.7813,673.0313 86.9297,672.9531 Q87.0781,672.875 87.2813,672.875 Q87.6094,672.875 87.8672,673.1328 Q88.125,673.3906 88.125,673.7344 Q88.125,674.0781 87.7813,674.4844 Q87.2813,675.0625 86.4844,675.3906 Q85.4063,675.8438 84.1094,675.8438 Q82.5938,675.8438 81.3906,675.2188 Q80.4063,674.7188 79.7188,673.6484 Q79.0313,672.5781 79.0313,671.2969 L79.0313,670.1406 Q79.0313,668.8125 79.6484,667.6641 Q80.2656,666.5156 81.3594,665.8984 Q82.4531,665.2813 83.6875,665.2813 Q84.4219,665.2813 85.0703,665.4453 Q85.7188,665.6094 86.2656,665.9688 Z "/><text fill="#000000" font-family="sans-serif" font-size="14" font-weight="bold" lengthAdjust="spacingAndGlyphs" textLength="69" x="125" y="669.5332">Continent</text><text fill="#000000" font-family="sans-serif" font-size="10" lengthAdjust="spacingAndGlyphs" textLength="124" x="97.5" y="682.9902">soen6441riskgame.models</text></a><!--class soen6441riskgame.models.Country--><a target="_parent" xlink:actuate="onRequest" xlink:href="../../soen6441riskgame/models/Country.html" xlink:show="new" xlink:title="soen6441riskgame.models.Country" xlink:type="simple"><rect fill="#FFFFFF" filter="url(#f99d17k3ddcl)" height="40.1875" id="soen6441riskgame.models.Country" style="stroke: #A80036; stroke-width: 1.5;" width="156" x="259.5" y="650"/><rect fill="#FFFFFF" height="40.1875" style="stroke: #A80036; stroke-width: 1.5;" width="156" x="259.5" y="650"/><ellipse cx="274.5" cy="670.0938" fill="#ADD1B2" rx="11" ry="11" style="stroke: #A80036; stroke-width: 1.0;"/><path d="M277.2656,665.9688 Q277.4219,665.75 277.6094,665.6406 Q277.7969,665.5313 278.0156,665.5313 Q278.3906,665.5313 278.625,665.7891 Q278.8594,666.0469 278.8594,666.6563 L278.8594,668.1094 Q278.8594,668.7188 278.625,668.9844 Q278.3906,669.25 278.0156,669.25 Q277.6719,669.25 277.4688,669.0469 Q277.2656,668.8594 277.1563,668.3438 Q277.1094,667.9844 276.9219,667.7969 Q276.5938,667.4219 275.9844,667.2031 Q275.375,666.9844 274.75,666.9844 Q273.9844,666.9844 273.3516,667.3125 Q272.7188,667.6406 272.2266,668.3906 Q271.7344,669.1406 271.7344,670.1719 L271.7344,671.2656 Q271.7344,672.5 272.625,673.3203 Q273.5156,674.1406 275.1094,674.1406 Q276.0469,674.1406 276.7031,673.8906 Q277.0938,673.7344 277.5156,673.2969 Q277.7813,673.0313 277.9297,672.9531 Q278.0781,672.875 278.2813,672.875 Q278.6094,672.875 278.8672,673.1328 Q279.125,673.3906 279.125,673.7344 Q279.125,674.0781 278.7813,674.4844 Q278.2813,675.0625 277.4844,675.3906 Q276.4063,675.8438 275.1094,675.8438 Q273.5938,675.8438 272.3906,675.2188 Q271.4063,674.7188 270.7188,673.6484 Q270.0313,672.5781 270.0313,671.2969 L270.0313,670.1406 Q270.0313,668.8125 270.6484,667.6641 Q271.2656,666.5156 272.3594,665.8984 Q273.4531,665.2813 274.6875,665.2813 Q275.4219,665.2813 276.0703,665.4453 Q276.7188,665.6094 277.2656,665.9688 Z "/><text fill="#000000" font-family="sans-serif" font-size="14" font-weight="bold" lengthAdjust="spacingAndGlyphs" textLength="55" x="323" y="669.5332">Country</text><text fill="#000000" font-family="sans-serif" font-size="10" lengthAdjust="spacingAndGlyphs" textLength="124" x="288.5" y="682.9902">soen6441riskgame.models</text></a><!--link soen6441riskgame.controllers.MapController to soen6441riskgame.models.Continent--><path d="M146.5,590.4112 C146.5,590.4112 146.5,644.8869 146.5,644.8869 " fill="none" id="soen6441riskgame.controllers.MapController-soen6441riskgame.models.Continent" style="stroke: #A80036; stroke-width: 1.0; stroke-dasharray: 7.0,7.0;"/><polygon fill="#A80036" points="146.5,649.8869,150.5,640.8869,146.5,644.8869,142.5,640.8869,146.5,649.8869" style="stroke: #A80036; stroke-width: 1.0;"/><!--link soen6441riskgame.controllers.MapController to soen6441riskgame.models.Country--><path d="M337.5,590.4112 C337.5,590.4112 337.5,644.8869 337.5,644.8869 " fill="none" id="soen6441riskgame.controllers.MapController-soen6441riskgame.models.Country" style="stroke: #A80036; stroke-width: 1.0; stroke-dasharray: 7.0,7.0;"/><polygon fill="#A80036" points="337.5,649.8869,341.5,640.8869,337.5,644.8869,333.5,640.8869,337.5,649.8869" style="stroke: #A80036; stroke-width: 1.0;"/><!--
@startuml

skinparam svgLinkTarget _parent
skinparam linetype ortho
set namespaceSeparator none
class "<b><size:14>MapController</b>\n<size:10>soen6441riskgame.controllers" as soen6441riskgame.controllers.MapController  [[../../soen6441riskgame/controllers/MapController.html{soen6441riskgame.controllers.MapController}]] {
{static} -int MINIMUM_AMOUNT_OF_COUNTRIES
+MapController()
+void addContinent(String continentName,String continentValue,int order)
+void addCountry(String countryName,String continentName)
+void addNeighbor(String countryName,String neighborCountryName)
+void createNewCountry(String countryName,Continent continent)
+void editContinent(String args)
+void editCountry(String args)
+void editMap(String fileName)
+void editNeighbor(String args)
+Continent getContinentFromName(String continentName)
+boolean isContinentExisted(String continentName)
+boolean isCountryExisted(String countryName)
+void loadMap(String fileName)
+void removeContinent(String continentName)
+void removeCountry(String countryName)
+void removeNeighbor(String countryName,String neighborCountryName)
+void resetMap()
+void saveMap(String fileName)
+void showMap()
+boolean isMapValid()
+void validateMap()
-void addBorders(int countryOrder,int borderWithCountries)
-void addCountryFromMapFile(int order,String name,int continentOrder,Coordinate coordinate)
-void increaseBorder(int newBorderSize)
-ArrayList<Continent> getEmptyContinents()
-ArrayList<Country> getIsolatedCountries()
-boolean isNotEnoughCountries(int minimumNumberOfCountries)
-boolean isStillInCurrentDataBlock(int currentLineIndex,List<String> lines)
-int loadBordersFromFile(int currentLineIndex,List<String> lines)
-int loadContinentsFromFile(int currentLineIndex,List<String> lines)
-int loadCountriesFromFile(int currentLineIndex,List<String> lines)
-void removeBorder(int borderLocation)
-void writeBordersToFile(FileWriter writer)
-void writeCountriesToFile(FileWriter writer)
-void writeContinentsToFile(FileWriter writer)
-void updateCountryContinent(Country country,Continent continent)
-ArrayList<Country> getCountriesHaveNoContinent()
}



class "<b><size:14>Continent</b>\n<size:10>soen6441riskgame.models" as soen6441riskgame.models.Continent  [[../../soen6441riskgame/models/Continent.html{soen6441riskgame.models.Continent}]] #white {
}

hide soen6441riskgame.models.Continent fields
hide soen6441riskgame.models.Continent methods

soen6441riskgame.controllers.MapController ..> soen6441riskgame.models.Continent



class "<b><size:14>Country</b>\n<size:10>soen6441riskgame.models" as soen6441riskgame.models.Country  [[../../soen6441riskgame/models/Country.html{soen6441riskgame.models.Country}]] #white {
}

hide soen6441riskgame.models.Country fields
hide soen6441riskgame.models.Country methods

soen6441riskgame.controllers.MapController ..> soen6441riskgame.models.Country




@enduml

PlantUML version 1.2017.15(Mon Jul 03 12:45:34 EDT 2017)
(GPL source distribution)
Java Runtime: Java(TM) SE Runtime Environment
JVM: Java HotSpot(TM) 64-Bit Server VM
Java Version: 1.8.0_231-b11
Operating System: Windows 10
OS Version: 10.0
Default Encoding: Cp1252
Language: en
Country: US
--></g></svg>