<?xml version="1.0" encoding="UTF-8" standalone="no"?><svg xmlns="http://www.w3.org/2000/svg" xmlns:xlink="http://www.w3.org/1999/xlink" contentScriptType="application/ecmascript" contentStyleType="text/css" height="563px" preserveAspectRatio="none" style="width:865px;height:563px;" version="1.1" viewBox="0 0 865 563" width="865px" zoomAndPan="magnify"><defs><filter height="300%" id="f1xzwzoymeh2ns" width="300%" x="-1" y="-1"><feGaussianBlur result="blurOut" stdDeviation="2.0"/><feColorMatrix in="blurOut" result="blurOut2" type="matrix" values="0 0 0 0 0 0 0 0 0 0 0 0 0 0 0 0 0 0 .4 0"/><feOffset dx="4.0" dy="4.0" in="blurOut2" result="blurOut3"/><feBlend in="SourceGraphic" in2="blurOut3" mode="normal"/></filter></defs><g><!--class soen6441riskgame.controllers.MapController--><a target="_parent" xlink:actuate="onRequest" xlink:href="../../soen6441riskgame/controllers/MapController.html" xlink:show="new" xlink:title="soen6441riskgame.controllers.MapController" xlink:type="simple"><rect fill="#FEFECE" filter="url(#f1xzwzoymeh2ns)" height="443.5938" id="soen6441riskgame.controllers.MapController" style="stroke: #A80036; stroke-width: 1.5;" width="372" x="295" y="8"/><ellipse cx="407.25" cy="28.0938" fill="#ADD1B2" rx="11" ry="11" style="stroke: #A80036; stroke-width: 1.0;"/><path d="M410.0156,23.9688 Q410.1719,23.75 410.3594,23.6406 Q410.5469,23.5313 410.7656,23.5313 Q411.1406,23.5313 411.375,23.7891 Q411.6094,24.0469 411.6094,24.6563 L411.6094,26.1094 Q411.6094,26.7188 411.375,26.9844 Q411.1406,27.25 410.7656,27.25 Q410.4219,27.25 410.2188,27.0469 Q410.0156,26.8594 409.9063,26.3438 Q409.8594,25.9844 409.6719,25.7969 Q409.3438,25.4219 408.7344,25.2031 Q408.125,24.9844 407.5,24.9844 Q406.7344,24.9844 406.1016,25.3125 Q405.4688,25.6406 404.9766,26.3906 Q404.4844,27.1406 404.4844,28.1719 L404.4844,29.2656 Q404.4844,30.5 405.375,31.3203 Q406.2656,32.1406 407.8594,32.1406 Q408.7969,32.1406 409.4531,31.8906 Q409.8438,31.7344 410.2656,31.2969 Q410.5313,31.0313 410.6797,30.9531 Q410.8281,30.875 411.0313,30.875 Q411.3594,30.875 411.6172,31.1328 Q411.875,31.3906 411.875,31.7344 Q411.875,32.0781 411.5313,32.4844 Q411.0313,33.0625 410.2344,33.3906 Q409.1563,33.8438 407.8594,33.8438 Q406.3438,33.8438 405.1406,33.2188 Q404.1563,32.7188 403.4688,31.6484 Q402.7813,30.5781 402.7813,29.2969 L402.7813,28.1406 Q402.7813,26.8125 403.3984,25.6641 Q404.0156,24.5156 405.1094,23.8984 Q406.2031,23.2813 407.4375,23.2813 Q408.1719,23.2813 408.8203,23.4453 Q409.4688,23.6094 410.0156,23.9688 Z "/><text fill="#000000" font-family="sans-serif" font-size="14" font-weight="bold" lengthAdjust="spacingAndGlyphs" textLength="101" x="446.75" y="27.5332">MapController</text><text fill="#000000" font-family="sans-serif" font-size="10" lengthAdjust="spacingAndGlyphs" textLength="139" x="427.75" y="40.9902">soen6441riskgame.controllers</text><line style="stroke: #A80036; stroke-width: 1.5;" x1="296" x2="666" y1="48.1875" y2="48.1875"/><rect fill="none" height="6" style="stroke: #C82930; stroke-width: 1.0;" width="6" x="303" y="57.6055"/><text fill="#000000" font-family="sans-serif" font-size="11" lengthAdjust="spacingAndGlyphs" text-decoration="underline" textLength="189" x="315" y="63.6064">int MINIMUM_AMOUNT_OF_COUNTRIES</text><line style="stroke: #000000; stroke-width: 1.0;" x1="315" x2="504" y1="65.6064" y2="65.6064"/><rect fill="none" height="6" style="stroke: #C82930; stroke-width: 1.0;" width="6" x="303" y="71.4414"/><text fill="#000000" font-family="sans-serif" font-size="11" lengthAdjust="spacingAndGlyphs" textLength="226" x="315" y="77.4424">DominationMapReadable dominationMapReader</text><rect fill="none" height="6" style="stroke: #C82930; stroke-width: 1.0;" width="6" x="303" y="85.2773"/><text fill="#000000" font-family="sans-serif" font-size="11" lengthAdjust="spacingAndGlyphs" textLength="214" x="315" y="91.2783">ConquestMapReadable conquestMapReader</text><line style="stroke: #A80036; stroke-width: 1.5;" x1="296" x2="666" y1="97.6953" y2="97.6953"/><ellipse cx="306" cy="110.1133" fill="#84BE84" rx="3" ry="3" style="stroke: #038048; stroke-width: 1.0;"/><text fill="#000000" font-family="sans-serif" font-size="11" lengthAdjust="spacingAndGlyphs" textLength="74" x="315" y="113.1143">MapController()</text><ellipse cx="306" cy="123.9492" fill="#84BE84" rx="3" ry="3" style="stroke: #038048; stroke-width: 1.0;"/><text fill="#000000" font-family="sans-serif" font-size="11" lengthAdjust="spacingAndGlyphs" textLength="285" x="315" y="126.9502">void loadMap(String fileName,boolean isConquestMapType)</text><ellipse cx="306" cy="137.7852" fill="#84BE84" rx="3" ry="3" style="stroke: #038048; stroke-width: 1.0;"/><text fill="#000000" font-family="sans-serif" font-size="11" lengthAdjust="spacingAndGlyphs" textLength="143" x="315" y="140.7861">void loadMap(String fileName)</text><ellipse cx="306" cy="151.6211" fill="#84BE84" rx="3" ry="3" style="stroke: #038048; stroke-width: 1.0;"/><text fill="#000000" font-family="sans-serif" font-size="11" lengthAdjust="spacingAndGlyphs" textLength="345" x="315" y="154.6221">void addContinent(String continentName,String continentValue,int order)</text><ellipse cx="306" cy="165.457" fill="#84BE84" rx="3" ry="3" style="stroke: #038048; stroke-width: 1.0;"/><text fill="#000000" font-family="sans-serif" font-size="11" lengthAdjust="spacingAndGlyphs" textLength="287" x="315" y="168.458">void addCountry(String countryName,String continentName)</text><ellipse cx="306" cy="179.293" fill="#84BE84" rx="3" ry="3" style="stroke: #038048; stroke-width: 1.0;"/><text fill="#000000" font-family="sans-serif" font-size="11" lengthAdjust="spacingAndGlyphs" textLength="328" x="315" y="182.2939">void addNeighbor(String countryName,String neighborCountryName)</text><ellipse cx="306" cy="193.1289" fill="#84BE84" rx="3" ry="3" style="stroke: #038048; stroke-width: 1.0;"/><text fill="#000000" font-family="sans-serif" font-size="11" lengthAdjust="spacingAndGlyphs" textLength="313" x="315" y="196.1299">void createNewCountry(String countryName,Continent continent)</text><ellipse cx="306" cy="206.9648" fill="#84BE84" rx="3" ry="3" style="stroke: #038048; stroke-width: 1.0;"/><text fill="#000000" font-family="sans-serif" font-size="11" lengthAdjust="spacingAndGlyphs" textLength="146" x="315" y="209.9658">void editContinent(String args)</text><ellipse cx="306" cy="220.8008" fill="#84BE84" rx="3" ry="3" style="stroke: #038048; stroke-width: 1.0;"/><text fill="#000000" font-family="sans-serif" font-size="11" lengthAdjust="spacingAndGlyphs" textLength="139" x="315" y="223.8018">void editCountry(String args)</text><ellipse cx="306" cy="234.6367" fill="#84BE84" rx="3" ry="3" style="stroke: #038048; stroke-width: 1.0;"/><text fill="#000000" font-family="sans-serif" font-size="11" lengthAdjust="spacingAndGlyphs" textLength="140" x="315" y="237.6377">void editMap(String fileName)</text><ellipse cx="306" cy="248.4727" fill="#84BE84" rx="3" ry="3" style="stroke: #038048; stroke-width: 1.0;"/><text fill="#000000" font-family="sans-serif" font-size="11" lengthAdjust="spacingAndGlyphs" textLength="289" x="315" y="251.4736">void saveMap(String fileName,boolean isConquestMapType)</text><ellipse cx="306" cy="262.3086" fill="#84BE84" rx="3" ry="3" style="stroke: #038048; stroke-width: 1.0;"/><text fill="#000000" font-family="sans-serif" font-size="11" lengthAdjust="spacingAndGlyphs" textLength="147" x="315" y="265.3096">void saveMap(String fileName)</text><ellipse cx="306" cy="276.1445" fill="#84BE84" rx="3" ry="3" style="stroke: #038048; stroke-width: 1.0;"/><text fill="#000000" font-family="sans-serif" font-size="11" lengthAdjust="spacingAndGlyphs" textLength="144" x="315" y="279.1455">void editNeighbor(String args)</text><ellipse cx="306" cy="289.9805" fill="#84BE84" rx="3" ry="3" style="stroke: #038048; stroke-width: 1.0;"/><text fill="#000000" font-family="sans-serif" font-size="11" lengthAdjust="spacingAndGlyphs" textLength="214" x="315" y="292.9814">void removeContinent(String continentName)</text><ellipse cx="306" cy="303.8164" fill="#84BE84" rx="3" ry="3" style="stroke: #038048; stroke-width: 1.0;"/><text fill="#000000" font-family="sans-serif" font-size="11" lengthAdjust="spacingAndGlyphs" textLength="200" x="315" y="306.8174">void removeCountry(String countryName)</text><ellipse cx="306" cy="317.6523" fill="#84BE84" rx="3" ry="3" style="stroke: #038048; stroke-width: 1.0;"/><text fill="#000000" font-family="sans-serif" font-size="11" lengthAdjust="spacingAndGlyphs" textLength="346" x="315" y="320.6533">void removeNeighbor(String countryName,String neighborCountryName)</text><ellipse cx="306" cy="331.4883" fill="#84BE84" rx="3" ry="3" style="stroke: #038048; stroke-width: 1.0;"/><text fill="#000000" font-family="sans-serif" font-size="11" lengthAdjust="spacingAndGlyphs" textLength="79" x="315" y="334.4893">void showMap()</text><ellipse cx="306" cy="345.3242" fill="#84BE84" rx="3" ry="3" style="stroke: #038048; stroke-width: 1.0;"/><text fill="#000000" font-family="sans-serif" font-size="11" lengthAdjust="spacingAndGlyphs" textLength="101" x="315" y="348.3252">boolean isMapValid()</text><ellipse cx="306" cy="359.1602" fill="#84BE84" rx="3" ry="3" style="stroke: #038048; stroke-width: 1.0;"/><text fill="#000000" font-family="sans-serif" font-size="11" lengthAdjust="spacingAndGlyphs" textLength="88" x="315" y="362.1611">void validateMap()</text><rect fill="#F24D5C" height="6" style="stroke: #C82930; stroke-width: 1.0;" width="6" x="303" y="369.9961"/><text fill="#000000" font-family="sans-serif" font-size="11" lengthAdjust="spacingAndGlyphs" textLength="196" x="315" y="375.9971">void increaseBorder(int newBorderSize)</text><rect fill="#F24D5C" height="6" style="stroke: #C82930; stroke-width: 1.0;" width="6" x="303" y="383.832"/><text fill="#000000" font-family="sans-serif" font-size="11" lengthAdjust="spacingAndGlyphs" textLength="208" x="315" y="389.833">ArrayList&lt;Continent&gt; getEmptyContinents()</text><rect fill="#F24D5C" height="6" style="stroke: #C82930; stroke-width: 1.0;" width="6" x="303" y="397.668"/><text fill="#000000" font-family="sans-serif" font-size="11" lengthAdjust="spacingAndGlyphs" textLength="204" x="315" y="403.6689">ArrayList&lt;Country&gt; getIsolatedCountries()</text><rect fill="#F24D5C" height="6" style="stroke: #C82930; stroke-width: 1.0;" width="6" x="303" y="411.5039"/><text fill="#000000" font-family="sans-serif" font-size="11" lengthAdjust="spacingAndGlyphs" textLength="155" x="315" y="417.5049">boolean isNotEnoughCountries()</text><rect fill="#F24D5C" height="6" style="stroke: #C82930; stroke-width: 1.0;" width="6" x="303" y="425.3398"/><text fill="#000000" font-family="sans-serif" font-size="11" lengthAdjust="spacingAndGlyphs" textLength="187" x="315" y="431.3408">void removeBorder(int borderLocation)</text><rect fill="#F24D5C" height="6" style="stroke: #C82930; stroke-width: 1.0;" width="6" x="303" y="439.1758"/><text fill="#000000" font-family="sans-serif" font-size="11" lengthAdjust="spacingAndGlyphs" textLength="250" x="315" y="445.1768">ArrayList&lt;Country&gt; getCountriesHaveNoContinent()</text></a><!--class soen6441riskgame.utils.map.DominationMapReadable--><a target="_parent" xlink:actuate="onRequest" xlink:href="../../soen6441riskgame/utils/map/DominationMapReadable.html" xlink:show="new" xlink:title="soen6441riskgame.utils.map.DominationMapReadable" xlink:type="simple"><rect fill="#FFFFFF" filter="url(#f1xzwzoymeh2ns)" height="40.1875" id="soen6441riskgame.utils.map.DominationMapReadable" style="stroke: #A80036; stroke-width: 1.5;" width="199" x="50.5" y="512"/><rect fill="#FFFFFF" height="40.1875" style="stroke: #A80036; stroke-width: 1.5;" width="199" x="50.5" y="512"/><ellipse cx="65.5" cy="532.0938" fill="#B4A7E5" rx="11" ry="11" style="stroke: #A80036; stroke-width: 1.0;"/><path d="M66.4531,528.7344 L66.4531,535.3906 L68.1719,535.3906 Q68.7813,535.3906 69.0469,535.625 Q69.3125,535.8594 69.3125,536.25 Q69.3125,536.625 69.0469,536.8594 Q68.7813,537.0938 68.1719,537.0938 L63.0313,537.0938 Q62.4219,537.0938 62.1563,536.8594 Q61.8906,536.625 61.8906,536.2344 Q61.8906,535.8594 62.1563,535.625 Q62.4219,535.3906 63.0313,535.3906 L64.75,535.3906 L64.75,528.7344 L63.0313,528.7344 Q62.4219,528.7344 62.1563,528.5 Q61.8906,528.2656 61.8906,527.875 Q61.8906,527.5 62.1563,527.2656 Q62.4219,527.0313 63.0313,527.0313 L68.1719,527.0313 Q68.7813,527.0313 69.0469,527.2656 Q69.3125,527.5 69.3125,527.875 Q69.3125,528.2656 69.0469,528.5 Q68.7813,528.7344 68.1719,528.7344 L66.4531,528.7344 Z "/><text fill="#000000" font-family="sans-serif" font-size="14" font-style="italic" font-weight="bold" lengthAdjust="spacingAndGlyphs" textLength="167" x="79.5" y="531.5332">DominationMapReadable</text><text fill="#000000" font-family="sans-serif" font-size="10" font-style="italic" lengthAdjust="spacingAndGlyphs" textLength="133" x="96.5" y="544.9902">soen6441riskgame.utils.map</text></a><!--class soen6441riskgame.utils.map.ConquestMapReadable--><a target="_parent" xlink:actuate="onRequest" xlink:href="../../soen6441riskgame/utils/map/ConquestMapReadable.html" xlink:show="new" xlink:title="soen6441riskgame.utils.map.ConquestMapReadable" xlink:type="simple"><rect fill="#FFFFFF" filter="url(#f1xzwzoymeh2ns)" height="40.1875" id="soen6441riskgame.utils.map.ConquestMapReadable" style="stroke: #A80036; stroke-width: 1.5;" width="187" x="284.5" y="512"/><rect fill="#FFFFFF" height="40.1875" style="stroke: #A80036; stroke-width: 1.5;" width="187" x="284.5" y="512"/><ellipse cx="299.5" cy="532.0938" fill="#B4A7E5" rx="11" ry="11" style="stroke: #A80036; stroke-width: 1.0;"/><path d="M300.4531,528.7344 L300.4531,535.3906 L302.1719,535.3906 Q302.7813,535.3906 303.0469,535.625 Q303.3125,535.8594 303.3125,536.25 Q303.3125,536.625 303.0469,536.8594 Q302.7813,537.0938 302.1719,537.0938 L297.0313,537.0938 Q296.4219,537.0938 296.1563,536.8594 Q295.8906,536.625 295.8906,536.2344 Q295.8906,535.8594 296.1563,535.625 Q296.4219,535.3906 297.0313,535.3906 L298.75,535.3906 L298.75,528.7344 L297.0313,528.7344 Q296.4219,528.7344 296.1563,528.5 Q295.8906,528.2656 295.8906,527.875 Q295.8906,527.5 296.1563,527.2656 Q296.4219,527.0313 297.0313,527.0313 L302.1719,527.0313 Q302.7813,527.0313 303.0469,527.2656 Q303.3125,527.5 303.3125,527.875 Q303.3125,528.2656 303.0469,528.5 Q302.7813,528.7344 302.1719,528.7344 L300.4531,528.7344 Z "/><text fill="#000000" font-family="sans-serif" font-size="14" font-style="italic" font-weight="bold" lengthAdjust="spacingAndGlyphs" textLength="155" x="313.5" y="531.5332">ConquestMapReadable</text><text fill="#000000" font-family="sans-serif" font-size="10" font-style="italic" lengthAdjust="spacingAndGlyphs" textLength="133" x="324.5" y="544.9902">soen6441riskgame.utils.map</text></a><!--class soen6441riskgame.models.Continent--><a target="_parent" xlink:actuate="onRequest" xlink:href="../../soen6441riskgame/models/Continent.html" xlink:show="new" xlink:title="soen6441riskgame.models.Continent" xlink:type="simple"><rect fill="#FFFFFF" filter="url(#f1xzwzoymeh2ns)" height="40.1875" id="soen6441riskgame.models.Continent" style="stroke: #A80036; stroke-width: 1.5;" width="156" x="507" y="512"/><rect fill="#FFFFFF" height="40.1875" style="stroke: #A80036; stroke-width: 1.5;" width="156" x="507" y="512"/><ellipse cx="522" cy="532.0938" fill="#ADD1B2" rx="11" ry="11" style="stroke: #A80036; stroke-width: 1.0;"/><path d="M524.7656,527.9688 Q524.9219,527.75 525.1094,527.6406 Q525.2969,527.5313 525.5156,527.5313 Q525.8906,527.5313 526.125,527.7891 Q526.3594,528.0469 526.3594,528.6563 L526.3594,530.1094 Q526.3594,530.7188 526.125,530.9844 Q525.8906,531.25 525.5156,531.25 Q525.1719,531.25 524.9688,531.0469 Q524.7656,530.8594 524.6563,530.3438 Q524.6094,529.9844 524.4219,529.7969 Q524.0938,529.4219 523.4844,529.2031 Q522.875,528.9844 522.25,528.9844 Q521.4844,528.9844 520.8516,529.3125 Q520.2188,529.6406 519.7266,530.3906 Q519.2344,531.1406 519.2344,532.1719 L519.2344,533.2656 Q519.2344,534.5 520.125,535.3203 Q521.0156,536.1406 522.6094,536.1406 Q523.5469,536.1406 524.2031,535.8906 Q524.5938,535.7344 525.0156,535.2969 Q525.2813,535.0313 525.4297,534.9531 Q525.5781,534.875 525.7813,534.875 Q526.1094,534.875 526.3672,535.1328 Q526.625,535.3906 526.625,535.7344 Q526.625,536.0781 526.2813,536.4844 Q525.7813,537.0625 524.9844,537.3906 Q523.9063,537.8438 522.6094,537.8438 Q521.0938,537.8438 519.8906,537.2188 Q518.9063,536.7188 518.2188,535.6484 Q517.5313,534.5781 517.5313,533.2969 L517.5313,532.1406 Q517.5313,530.8125 518.1484,529.6641 Q518.7656,528.5156 519.8594,527.8984 Q520.9531,527.2813 522.1875,527.2813 Q522.9219,527.2813 523.5703,527.4453 Q524.2188,527.6094 524.7656,527.9688 Z "/><text fill="#000000" font-family="sans-serif" font-size="14" font-weight="bold" lengthAdjust="spacingAndGlyphs" textLength="69" x="563.5" y="531.5332">Continent</text><text fill="#000000" font-family="sans-serif" font-size="10" lengthAdjust="spacingAndGlyphs" textLength="124" x="536" y="544.9902">soen6441riskgame.models</text></a><!--class soen6441riskgame.models.Country--><a target="_parent" xlink:actuate="onRequest" xlink:href="../../soen6441riskgame/models/Country.html" xlink:show="new" xlink:title="soen6441riskgame.models.Country" xlink:type="simple"><rect fill="#FFFFFF" filter="url(#f1xzwzoymeh2ns)" height="40.1875" id="soen6441riskgame.models.Country" style="stroke: #A80036; stroke-width: 1.5;" width="156" x="698" y="512"/><rect fill="#FFFFFF" height="40.1875" style="stroke: #A80036; stroke-width: 1.5;" width="156" x="698" y="512"/><ellipse cx="713" cy="532.0938" fill="#ADD1B2" rx="11" ry="11" style="stroke: #A80036; stroke-width: 1.0;"/><path d="M715.7656,527.9688 Q715.9219,527.75 716.1094,527.6406 Q716.2969,527.5313 716.5156,527.5313 Q716.8906,527.5313 717.125,527.7891 Q717.3594,528.0469 717.3594,528.6563 L717.3594,530.1094 Q717.3594,530.7188 717.125,530.9844 Q716.8906,531.25 716.5156,531.25 Q716.1719,531.25 715.9688,531.0469 Q715.7656,530.8594 715.6563,530.3438 Q715.6094,529.9844 715.4219,529.7969 Q715.0938,529.4219 714.4844,529.2031 Q713.875,528.9844 713.25,528.9844 Q712.4844,528.9844 711.8516,529.3125 Q711.2188,529.6406 710.7266,530.3906 Q710.2344,531.1406 710.2344,532.1719 L710.2344,533.2656 Q710.2344,534.5 711.125,535.3203 Q712.0156,536.1406 713.6094,536.1406 Q714.5469,536.1406 715.2031,535.8906 Q715.5938,535.7344 716.0156,535.2969 Q716.2813,535.0313 716.4297,534.9531 Q716.5781,534.875 716.7813,534.875 Q717.1094,534.875 717.3672,535.1328 Q717.625,535.3906 717.625,535.7344 Q717.625,536.0781 717.2813,536.4844 Q716.7813,537.0625 715.9844,537.3906 Q714.9063,537.8438 713.6094,537.8438 Q712.0938,537.8438 710.8906,537.2188 Q709.9063,536.7188 709.2188,535.6484 Q708.5313,534.5781 708.5313,533.2969 L708.5313,532.1406 Q708.5313,530.8125 709.1484,529.6641 Q709.7656,528.5156 710.8594,527.8984 Q711.9531,527.2813 713.1875,527.2813 Q713.9219,527.2813 714.5703,527.4453 Q715.2188,527.6094 715.7656,527.9688 Z "/><text fill="#000000" font-family="sans-serif" font-size="14" font-weight="bold" lengthAdjust="spacingAndGlyphs" textLength="55" x="761.5" y="531.5332">Country</text><text fill="#000000" font-family="sans-serif" font-size="10" lengthAdjust="spacingAndGlyphs" textLength="124" x="727" y="544.9902">soen6441riskgame.models</text></a><!--link soen6441riskgame.controllers.MapController to soen6441riskgame.utils.map.DominationMapReadable--><path d="M294.7,230 C219.434,230 150,230 150,230 C150,230 150,506.716 150,506.716 " fill="none" id="soen6441riskgame.controllers.MapController-soen6441riskgame.utils.map.DominationMapReadable" style="stroke: #A80036; stroke-width: 1.0;"/><polygon fill="#A80036" points="150,511.716,154,502.716,150,506.716,146,502.716,150,511.716" style="stroke: #A80036; stroke-width: 1.0;"/><text fill="#000000" font-family="sans-serif" font-size="13" lengthAdjust="spacingAndGlyphs" textLength="129" x="2.8594" y="501.2793">dominationMapReader</text><!--link soen6441riskgame.controllers.MapController to soen6441riskgame.utils.map.ConquestMapReadable--><path d="M383.25,452.258 C383.25,452.258 383.25,506.7822 383.25,506.7822 " fill="none" id="soen6441riskgame.controllers.MapController-soen6441riskgame.utils.map.ConquestMapReadable" style="stroke: #A80036; stroke-width: 1.0;"/><polygon fill="#A80036" points="383.25,511.7822,387.25,502.7822,383.25,506.7822,379.25,502.7822,383.25,511.7822" style="stroke: #A80036; stroke-width: 1.0;"/><text fill="#000000" font-family="sans-serif" font-size="13" lengthAdjust="spacingAndGlyphs" textLength="119" x="248.3141" y="501.0124">conquestMapReader</text><!--link soen6441riskgame.controllers.MapController to soen6441riskgame.models.Continent--><path d="M585,452.258 C585,452.258 585,506.7822 585,506.7822 " fill="none" id="soen6441riskgame.controllers.MapController-soen6441riskgame.models.Continent" style="stroke: #A80036; stroke-width: 1.0; stroke-dasharray: 7.0,7.0;"/><polygon fill="#A80036" points="585,511.7822,589,502.7822,585,506.7822,581,502.7822,585,511.7822" style="stroke: #A80036; stroke-width: 1.0;"/><!--link soen6441riskgame.controllers.MapController to soen6441riskgame.models.Country--><path d="M667.41,230 C726.136,230 776,230 776,230 C776,230 776,506.716 776,506.716 " fill="none" id="soen6441riskgame.controllers.MapController-soen6441riskgame.models.Country" style="stroke: #A80036; stroke-width: 1.0; stroke-dasharray: 7.0,7.0;"/><polygon fill="#A80036" points="776,511.716,780,502.716,776,506.716,772,502.716,776,511.716" style="stroke: #A80036; stroke-width: 1.0;"/><!--
@startuml

skinparam svgLinkTarget _parent
skinparam linetype ortho
set namespaceSeparator none
class "<b><size:14>MapController</b>\n<size:10>soen6441riskgame.controllers" as soen6441riskgame.controllers.MapController  [[../../soen6441riskgame/controllers/MapController.html{soen6441riskgame.controllers.MapController}]] {
{static} -int MINIMUM_AMOUNT_OF_COUNTRIES
-DominationMapReadable dominationMapReader
-ConquestMapReadable conquestMapReader
+MapController()
+void loadMap(String fileName,boolean isConquestMapType)
+void loadMap(String fileName)
+void addContinent(String continentName,String continentValue,int order)
+void addCountry(String countryName,String continentName)
+void addNeighbor(String countryName,String neighborCountryName)
+void createNewCountry(String countryName,Continent continent)
+void editContinent(String args)
+void editCountry(String args)
+void editMap(String fileName)
+void saveMap(String fileName,boolean isConquestMapType)
+void saveMap(String fileName)
+void editNeighbor(String args)
+void removeContinent(String continentName)
+void removeCountry(String countryName)
+void removeNeighbor(String countryName,String neighborCountryName)
+void showMap()
+boolean isMapValid()
+void validateMap()
-void increaseBorder(int newBorderSize)
-ArrayList<Continent> getEmptyContinents()
-ArrayList<Country> getIsolatedCountries()
-boolean isNotEnoughCountries()
-void removeBorder(int borderLocation)
-ArrayList<Country> getCountriesHaveNoContinent()
}


interface "<b><size:14>DominationMapReadable</b>\n<size:10>soen6441riskgame.utils.map" as soen6441riskgame.utils.map.DominationMapReadable  [[../../soen6441riskgame/utils/map/DominationMapReadable.html{soen6441riskgame.utils.map.DominationMapReadable}]] #white {
}

hide soen6441riskgame.utils.map.DominationMapReadable fields
hide soen6441riskgame.utils.map.DominationMapReadable methods

soen6441riskgame.controllers.MapController - ->  "dominationMapReader" soen6441riskgame.utils.map.DominationMapReadable

interface "<b><size:14>ConquestMapReadable</b>\n<size:10>soen6441riskgame.utils.map" as soen6441riskgame.utils.map.ConquestMapReadable  [[../../soen6441riskgame/utils/map/ConquestMapReadable.html{soen6441riskgame.utils.map.ConquestMapReadable}]] #white {
}

hide soen6441riskgame.utils.map.ConquestMapReadable fields
hide soen6441riskgame.utils.map.ConquestMapReadable methods

soen6441riskgame.controllers.MapController - ->  "conquestMapReader" soen6441riskgame.utils.map.ConquestMapReadable

class "<b><size:14>Continent</b>\n<size:10>soen6441riskgame.models" as soen6441riskgame.models.Continent  [[../../soen6441riskgame/models/Continent.html{soen6441riskgame.models.Continent}]] #white {
}

hide soen6441riskgame.models.Continent fields
hide soen6441riskgame.models.Continent methods

soen6441riskgame.controllers.MapController ..> soen6441riskgame.models.Continent



class "<b><size:14>Country</b>\n<size:10>soen6441riskgame.models" as soen6441riskgame.models.Country  [[../../soen6441riskgame/models/Country.html{soen6441riskgame.models.Country}]] #white {
}

hide soen6441riskgame.models.Country fields
hide soen6441riskgame.models.Country methods

soen6441riskgame.controllers.MapController ..> soen6441riskgame.models.Country


@enduml

PlantUML version 1.2017.15(Mon Jul 03 12:45:34 EDT 2017)
(GPL source distribution)
Java Runtime: Java(TM) SE Runtime Environment
JVM: Java HotSpot(TM) 64-Bit Server VM
Java Version: 1.8.0_231-b11
Operating System: Windows 10
OS Version: 10.0
Default Encoding: Cp1252
Language: en
Country: US
--></g></svg>