<?xml version="1.0" encoding="UTF-8" standalone="no"?><svg xmlns="http://www.w3.org/2000/svg" xmlns:xlink="http://www.w3.org/1999/xlink" contentScriptType="application/ecmascript" contentStyleType="text/css" height="212px" preserveAspectRatio="none" style="width:640px;height:212px;" version="1.1" viewBox="0 0 640 212" width="640px" zoomAndPan="magnify"><defs><filter height="300%" id="f1d509s2ltoqvc" width="300%" x="-1" y="-1"><feGaussianBlur result="blurOut" stdDeviation="2.0"/><feColorMatrix in="blurOut" result="blurOut2" type="matrix" values="0 0 0 0 0 0 0 0 0 0 0 0 0 0 0 0 0 0 .4 0"/><feOffset dx="4.0" dy="4.0" in="blurOut2" result="blurOut3"/><feBlend in="SourceGraphic" in2="blurOut3" mode="normal"/></filter></defs><g><!--cluster soen6441riskgame.controllers--><a target="_parent" xlink:actuate="onRequest" xlink:href="../../soen6441riskgame/controllers/package-summary.html" xlink:show="new" xlink:title="soen6441riskgame.controllers" xlink:type="simple"><polygon fill="#FFFFE0" filter="url(#f1d509s2ltoqvc)" points="22,24,240,24,247,47.6094,618,47.6094,618,200,22,200,22,24" style="stroke: #000000; stroke-width: 2.0;"/><line style="stroke: #000000; stroke-width: 2.0;" x1="22" x2="247" y1="47.6094" y2="47.6094"/><text fill="#000000" font-family="sans-serif" font-size="14" font-weight="bold" lengthAdjust="spacingAndGlyphs" textLength="212" x="26" y="40.5332">soen6441riskgame.controllers</text></a><!--class soen6441riskgame.controllers.GameController--><a target="_parent" xlink:actuate="onRequest" xlink:href="../../soen6441riskgame/controllers/GameController.html" xlink:show="new" xlink:title="soen6441riskgame.controllers.GameController" xlink:type="simple"><rect fill="#FEFECE" filter="url(#f1d509s2ltoqvc)" height="32" id="soen6441riskgame.controllers.GameController" style="stroke: #A80036; stroke-width: 1.5;" width="143" x="60.5" y="152"/><ellipse cx="75.5" cy="168" fill="#ADD1B2" rx="11" ry="11" style="stroke: #A80036; stroke-width: 1.0;"/><path d="M78.2656,163.875 Q78.4219,163.6563 78.6094,163.5469 Q78.7969,163.4375 79.0156,163.4375 Q79.3906,163.4375 79.625,163.6953 Q79.8594,163.9531 79.8594,164.5625 L79.8594,166.0156 Q79.8594,166.625 79.625,166.8906 Q79.3906,167.1563 79.0156,167.1563 Q78.6719,167.1563 78.4688,166.9531 Q78.2656,166.7656 78.1563,166.25 Q78.1094,165.8906 77.9219,165.7031 Q77.5938,165.3281 76.9844,165.1094 Q76.375,164.8906 75.75,164.8906 Q74.9844,164.8906 74.3516,165.2188 Q73.7188,165.5469 73.2266,166.2969 Q72.7344,167.0469 72.7344,168.0781 L72.7344,169.1719 Q72.7344,170.4063 73.625,171.2266 Q74.5156,172.0469 76.1094,172.0469 Q77.0469,172.0469 77.7031,171.7969 Q78.0938,171.6406 78.5156,171.2031 Q78.7813,170.9375 78.9297,170.8594 Q79.0781,170.7813 79.2813,170.7813 Q79.6094,170.7813 79.8672,171.0391 Q80.125,171.2969 80.125,171.6406 Q80.125,171.9844 79.7813,172.3906 Q79.2813,172.9688 78.4844,173.2969 Q77.4063,173.75 76.1094,173.75 Q74.5938,173.75 73.3906,173.125 Q72.4063,172.625 71.7188,171.5547 Q71.0313,170.4844 71.0313,169.2031 L71.0313,168.0469 Q71.0313,166.7188 71.6484,165.5703 Q72.2656,164.4219 73.3594,163.8047 Q74.4531,163.1875 75.6875,163.1875 Q76.4219,163.1875 77.0703,163.3516 Q77.7188,163.5156 78.2656,163.875 Z "/><text fill="#000000" font-family="sans-serif" font-size="14" font-weight="bold" lengthAdjust="spacingAndGlyphs" textLength="111" x="89.5" y="173.7285">GameController</text></a><!--class soen6441riskgame.controllers.MapController--><a target="_parent" xlink:actuate="onRequest" xlink:href="../../soen6441riskgame/controllers/MapController.html" xlink:show="new" xlink:title="soen6441riskgame.controllers.MapController" xlink:type="simple"><rect fill="#FEFECE" filter="url(#f1d509s2ltoqvc)" height="32" id="soen6441riskgame.controllers.MapController" style="stroke: #A80036; stroke-width: 1.5;" width="133" x="468.5" y="60"/><ellipse cx="483.5" cy="76" fill="#ADD1B2" rx="11" ry="11" style="stroke: #A80036; stroke-width: 1.0;"/><path d="M486.2656,71.875 Q486.4219,71.6563 486.6094,71.5469 Q486.7969,71.4375 487.0156,71.4375 Q487.3906,71.4375 487.625,71.6953 Q487.8594,71.9531 487.8594,72.5625 L487.8594,74.0156 Q487.8594,74.625 487.625,74.8906 Q487.3906,75.1563 487.0156,75.1563 Q486.6719,75.1563 486.4688,74.9531 Q486.2656,74.7656 486.1563,74.25 Q486.1094,73.8906 485.9219,73.7031 Q485.5938,73.3281 484.9844,73.1094 Q484.375,72.8906 483.75,72.8906 Q482.9844,72.8906 482.3516,73.2188 Q481.7188,73.5469 481.2266,74.2969 Q480.7344,75.0469 480.7344,76.0781 L480.7344,77.1719 Q480.7344,78.4063 481.625,79.2266 Q482.5156,80.0469 484.1094,80.0469 Q485.0469,80.0469 485.7031,79.7969 Q486.0938,79.6406 486.5156,79.2031 Q486.7813,78.9375 486.9297,78.8594 Q487.0781,78.7813 487.2813,78.7813 Q487.6094,78.7813 487.8672,79.0391 Q488.125,79.2969 488.125,79.6406 Q488.125,79.9844 487.7813,80.3906 Q487.2813,80.9688 486.4844,81.2969 Q485.4063,81.75 484.1094,81.75 Q482.5938,81.75 481.3906,81.125 Q480.4063,80.625 479.7188,79.5547 Q479.0313,78.4844 479.0313,77.2031 L479.0313,76.0469 Q479.0313,74.7188 479.6484,73.5703 Q480.2656,72.4219 481.3594,71.8047 Q482.4531,71.1875 483.6875,71.1875 Q484.4219,71.1875 485.0703,71.3516 Q485.7188,71.5156 486.2656,71.875 Z "/><text fill="#000000" font-family="sans-serif" font-size="14" font-weight="bold" lengthAdjust="spacingAndGlyphs" textLength="101" x="497.5" y="81.7285">MapController</text></a><!--class soen6441riskgame.controllers.SaveLoadController--><a target="_parent" xlink:actuate="onRequest" xlink:href="../../soen6441riskgame/controllers/SaveLoadController.html" xlink:show="new" xlink:title="soen6441riskgame.controllers.SaveLoadController" xlink:type="simple"><rect fill="#FEFECE" filter="url(#f1d509s2ltoqvc)" height="32" id="soen6441riskgame.controllers.SaveLoadController" style="stroke: #A80036; stroke-width: 1.5;" width="172" x="261" y="60"/><ellipse cx="276" cy="76" fill="#ADD1B2" rx="11" ry="11" style="stroke: #A80036; stroke-width: 1.0;"/><path d="M278.7656,71.875 Q278.9219,71.6563 279.1094,71.5469 Q279.2969,71.4375 279.5156,71.4375 Q279.8906,71.4375 280.125,71.6953 Q280.3594,71.9531 280.3594,72.5625 L280.3594,74.0156 Q280.3594,74.625 280.125,74.8906 Q279.8906,75.1563 279.5156,75.1563 Q279.1719,75.1563 278.9688,74.9531 Q278.7656,74.7656 278.6563,74.25 Q278.6094,73.8906 278.4219,73.7031 Q278.0938,73.3281 277.4844,73.1094 Q276.875,72.8906 276.25,72.8906 Q275.4844,72.8906 274.8516,73.2188 Q274.2188,73.5469 273.7266,74.2969 Q273.2344,75.0469 273.2344,76.0781 L273.2344,77.1719 Q273.2344,78.4063 274.125,79.2266 Q275.0156,80.0469 276.6094,80.0469 Q277.5469,80.0469 278.2031,79.7969 Q278.5938,79.6406 279.0156,79.2031 Q279.2813,78.9375 279.4297,78.8594 Q279.5781,78.7813 279.7813,78.7813 Q280.1094,78.7813 280.3672,79.0391 Q280.625,79.2969 280.625,79.6406 Q280.625,79.9844 280.2813,80.3906 Q279.7813,80.9688 278.9844,81.2969 Q277.9063,81.75 276.6094,81.75 Q275.0938,81.75 273.8906,81.125 Q272.9063,80.625 272.2188,79.5547 Q271.5313,78.4844 271.5313,77.2031 L271.5313,76.0469 Q271.5313,74.7188 272.1484,73.5703 Q272.7656,72.4219 273.8594,71.8047 Q274.9531,71.1875 276.1875,71.1875 Q276.9219,71.1875 277.5703,71.3516 Q278.2188,71.5156 278.7656,71.875 Z "/><text fill="#000000" font-family="sans-serif" font-size="14" font-weight="bold" lengthAdjust="spacingAndGlyphs" textLength="140" x="290" y="81.7285">SaveLoadController</text></a><!--class soen6441riskgame.controllers.TournamentController--><a target="_parent" xlink:actuate="onRequest" xlink:href="../../soen6441riskgame/controllers/TournamentController.html" xlink:show="new" xlink:title="soen6441riskgame.controllers.TournamentController" xlink:type="simple"><rect fill="#FEFECE" filter="url(#f1d509s2ltoqvc)" height="32" id="soen6441riskgame.controllers.TournamentController" style="stroke: #A80036; stroke-width: 1.5;" width="187" x="38.5" y="60"/><ellipse cx="53.5" cy="76" fill="#ADD1B2" rx="11" ry="11" style="stroke: #A80036; stroke-width: 1.0;"/><path d="M56.2656,71.875 Q56.4219,71.6563 56.6094,71.5469 Q56.7969,71.4375 57.0156,71.4375 Q57.3906,71.4375 57.625,71.6953 Q57.8594,71.9531 57.8594,72.5625 L57.8594,74.0156 Q57.8594,74.625 57.625,74.8906 Q57.3906,75.1563 57.0156,75.1563 Q56.6719,75.1563 56.4688,74.9531 Q56.2656,74.7656 56.1563,74.25 Q56.1094,73.8906 55.9219,73.7031 Q55.5938,73.3281 54.9844,73.1094 Q54.375,72.8906 53.75,72.8906 Q52.9844,72.8906 52.3516,73.2188 Q51.7188,73.5469 51.2266,74.2969 Q50.7344,75.0469 50.7344,76.0781 L50.7344,77.1719 Q50.7344,78.4063 51.625,79.2266 Q52.5156,80.0469 54.1094,80.0469 Q55.0469,80.0469 55.7031,79.7969 Q56.0938,79.6406 56.5156,79.2031 Q56.7813,78.9375 56.9297,78.8594 Q57.0781,78.7813 57.2813,78.7813 Q57.6094,78.7813 57.8672,79.0391 Q58.125,79.2969 58.125,79.6406 Q58.125,79.9844 57.7813,80.3906 Q57.2813,80.9688 56.4844,81.2969 Q55.4063,81.75 54.1094,81.75 Q52.5938,81.75 51.3906,81.125 Q50.4063,80.625 49.7188,79.5547 Q49.0313,78.4844 49.0313,77.2031 L49.0313,76.0469 Q49.0313,74.7188 49.6484,73.5703 Q50.2656,72.4219 51.3594,71.8047 Q52.4531,71.1875 53.6875,71.1875 Q54.4219,71.1875 55.0703,71.3516 Q55.7188,71.5156 56.2656,71.875 Z "/><text fill="#000000" font-family="sans-serif" font-size="14" font-weight="bold" lengthAdjust="spacingAndGlyphs" textLength="155" x="67.5" y="81.7285">TournamentController</text></a><!--link soen6441riskgame.controllers.TournamentController to soen6441riskgame.controllers.GameController--><path d="M132,92.025 C132,92.025 132,146.8498 132,146.8498 " fill="none" id="soen6441riskgame.controllers.TournamentController-soen6441riskgame.controllers.GameController" style="stroke: #A80036; stroke-width: 1.0;"/><polygon fill="#A80036" points="132,151.8498,136,142.8498,132,146.8498,128,142.8498,132,151.8498" style="stroke: #A80036; stroke-width: 1.0;"/><text fill="#000000" font-family="sans-serif" font-size="13" lengthAdjust="spacingAndGlyphs" textLength="87" x="30.0469" y="141.1037">gameController</text><!--
@startuml

skinparam svgLinkTarget _parent
skinparam linetype ortho
package soen6441riskgame.controllers [[../../soen6441riskgame/controllers/package-summary.html{soen6441riskgame.controllers}]] #lightyellow {
}

class "<b><size:14>GameController</b>" as soen6441riskgame.controllers.GameController  [[../../soen6441riskgame/controllers/GameController.html{soen6441riskgame.controllers.GameController}]] {
}

hide soen6441riskgame.controllers.GameController fields
hide soen6441riskgame.controllers.GameController methods

class "<b><size:14>MapController</b>" as soen6441riskgame.controllers.MapController  [[../../soen6441riskgame/controllers/MapController.html{soen6441riskgame.controllers.MapController}]] {
}

hide soen6441riskgame.controllers.MapController fields
hide soen6441riskgame.controllers.MapController methods

class "<b><size:14>SaveLoadController</b>" as soen6441riskgame.controllers.SaveLoadController  [[../../soen6441riskgame/controllers/SaveLoadController.html{soen6441riskgame.controllers.SaveLoadController}]] {
}

hide soen6441riskgame.controllers.SaveLoadController fields
hide soen6441riskgame.controllers.SaveLoadController methods

class "<b><size:14>TournamentController</b>" as soen6441riskgame.controllers.TournamentController  [[../../soen6441riskgame/controllers/TournamentController.html{soen6441riskgame.controllers.TournamentController}]] {
}

hide soen6441riskgame.controllers.TournamentController fields
hide soen6441riskgame.controllers.TournamentController methods

soen6441riskgame.controllers.TournamentController - ->  "gameController" soen6441riskgame.controllers.GameController

@enduml

PlantUML version 1.2017.15(Mon Jul 03 12:45:34 EDT 2017)
(GPL source distribution)
Java Runtime: Java(TM) SE Runtime Environment
JVM: Java HotSpot(TM) 64-Bit Server VM
Java Version: 1.8.0_231-b11
Operating System: Windows 10
OS Version: 10.0
Default Encoding: Cp1252
Language: en
Country: US
--></g></svg>