<?xml version="1.0" encoding="UTF-8" standalone="no"?><svg xmlns="http://www.w3.org/2000/svg" xmlns:xlink="http://www.w3.org/1999/xlink" contentScriptType="application/ecmascript" contentStyleType="text/css" height="212px" preserveAspectRatio="none" style="width:388px;height:212px;" version="1.1" viewBox="0 0 388 212" width="388px" zoomAndPan="magnify"><defs><filter height="300%" id="f81ixsig36l47" width="300%" x="-1" y="-1"><feGaussianBlur result="blurOut" stdDeviation="2.0"/><feColorMatrix in="blurOut" result="blurOut2" type="matrix" values="0 0 0 0 0 0 0 0 0 0 0 0 0 0 0 0 0 0 .4 0"/><feOffset dx="4.0" dy="4.0" in="blurOut2" result="blurOut3"/><feBlend in="SourceGraphic" in2="blurOut3" mode="normal"/></filter></defs><g><!--cluster soen6441riskgame.controllers--><a target="_parent" xlink:actuate="onRequest" xlink:href="../../soen6441riskgame/controllers/package-summary.html" xlink:show="new" xlink:title="soen6441riskgame.controllers" xlink:type="simple"><polygon fill="#FFFFE0" filter="url(#f81ixsig36l47)" points="22,24,240,24,247,47.6094,366,47.6094,366,200,22,200,22,24" style="stroke: #000000; stroke-width: 2.0;"/><line style="stroke: #000000; stroke-width: 2.0;" x1="22" x2="247" y1="47.6094" y2="47.6094"/><text fill="#000000" font-family="sans-serif" font-size="14" font-weight="bold" lengthAdjust="spacingAndGlyphs" textLength="212" x="26" y="40.5332">soen6441riskgame.controllers</text></a><!--class soen6441riskgame.controllers.GameController--><a target="_parent" xlink:actuate="onRequest" xlink:href="../../soen6441riskgame/controllers/GameController.html" xlink:show="new" xlink:title="soen6441riskgame.controllers.GameController" xlink:type="simple"><rect fill="#FEFECE" filter="url(#f81ixsig36l47)" height="32" id="soen6441riskgame.controllers.GameController" style="stroke: #A80036; stroke-width: 1.5;" width="143" x="38.5" y="60"/><ellipse cx="53.5" cy="76" fill="#ADD1B2" rx="11" ry="11" style="stroke: #A80036; stroke-width: 1.0;"/><path d="M56.2656,71.875 Q56.4219,71.6563 56.6094,71.5469 Q56.7969,71.4375 57.0156,71.4375 Q57.3906,71.4375 57.625,71.6953 Q57.8594,71.9531 57.8594,72.5625 L57.8594,74.0156 Q57.8594,74.625 57.625,74.8906 Q57.3906,75.1563 57.0156,75.1563 Q56.6719,75.1563 56.4688,74.9531 Q56.2656,74.7656 56.1563,74.25 Q56.1094,73.8906 55.9219,73.7031 Q55.5938,73.3281 54.9844,73.1094 Q54.375,72.8906 53.75,72.8906 Q52.9844,72.8906 52.3516,73.2188 Q51.7188,73.5469 51.2266,74.2969 Q50.7344,75.0469 50.7344,76.0781 L50.7344,77.1719 Q50.7344,78.4063 51.625,79.2266 Q52.5156,80.0469 54.1094,80.0469 Q55.0469,80.0469 55.7031,79.7969 Q56.0938,79.6406 56.5156,79.2031 Q56.7813,78.9375 56.9297,78.8594 Q57.0781,78.7813 57.2813,78.7813 Q57.6094,78.7813 57.8672,79.0391 Q58.125,79.2969 58.125,79.6406 Q58.125,79.9844 57.7813,80.3906 Q57.2813,80.9688 56.4844,81.2969 Q55.4063,81.75 54.1094,81.75 Q52.5938,81.75 51.3906,81.125 Q50.4063,80.625 49.7188,79.5547 Q49.0313,78.4844 49.0313,77.2031 L49.0313,76.0469 Q49.0313,74.7188 49.6484,73.5703 Q50.2656,72.4219 51.3594,71.8047 Q52.4531,71.1875 53.6875,71.1875 Q54.4219,71.1875 55.0703,71.3516 Q55.7188,71.5156 56.2656,71.875 Z "/><text fill="#000000" font-family="sans-serif" font-size="14" font-weight="bold" lengthAdjust="spacingAndGlyphs" textLength="111" x="67.5" y="81.7285">GameController</text></a><!--class soen6441riskgame.controllers.MapController--><a target="_parent" xlink:actuate="onRequest" xlink:href="../../soen6441riskgame/controllers/MapController.html" xlink:show="new" xlink:title="soen6441riskgame.controllers.MapController" xlink:type="simple"><rect fill="#FEFECE" filter="url(#f81ixsig36l47)" height="32" id="soen6441riskgame.controllers.MapController" style="stroke: #A80036; stroke-width: 1.5;" width="133" x="216.5" y="60"/><ellipse cx="231.5" cy="76" fill="#ADD1B2" rx="11" ry="11" style="stroke: #A80036; stroke-width: 1.0;"/><path d="M234.2656,71.875 Q234.4219,71.6563 234.6094,71.5469 Q234.7969,71.4375 235.0156,71.4375 Q235.3906,71.4375 235.625,71.6953 Q235.8594,71.9531 235.8594,72.5625 L235.8594,74.0156 Q235.8594,74.625 235.625,74.8906 Q235.3906,75.1563 235.0156,75.1563 Q234.6719,75.1563 234.4688,74.9531 Q234.2656,74.7656 234.1563,74.25 Q234.1094,73.8906 233.9219,73.7031 Q233.5938,73.3281 232.9844,73.1094 Q232.375,72.8906 231.75,72.8906 Q230.9844,72.8906 230.3516,73.2188 Q229.7188,73.5469 229.2266,74.2969 Q228.7344,75.0469 228.7344,76.0781 L228.7344,77.1719 Q228.7344,78.4063 229.625,79.2266 Q230.5156,80.0469 232.1094,80.0469 Q233.0469,80.0469 233.7031,79.7969 Q234.0938,79.6406 234.5156,79.2031 Q234.7813,78.9375 234.9297,78.8594 Q235.0781,78.7813 235.2813,78.7813 Q235.6094,78.7813 235.8672,79.0391 Q236.125,79.2969 236.125,79.6406 Q236.125,79.9844 235.7813,80.3906 Q235.2813,80.9688 234.4844,81.2969 Q233.4063,81.75 232.1094,81.75 Q230.5938,81.75 229.3906,81.125 Q228.4063,80.625 227.7188,79.5547 Q227.0313,78.4844 227.0313,77.2031 L227.0313,76.0469 Q227.0313,74.7188 227.6484,73.5703 Q228.2656,72.4219 229.3594,71.8047 Q230.4531,71.1875 231.6875,71.1875 Q232.4219,71.1875 233.0703,71.3516 Q233.7188,71.5156 234.2656,71.875 Z "/><text fill="#000000" font-family="sans-serif" font-size="14" font-weight="bold" lengthAdjust="spacingAndGlyphs" textLength="101" x="245.5" y="81.7285">MapController</text></a><!--class soen6441riskgame.controllers.SaveLoadController--><a target="_parent" xlink:actuate="onRequest" xlink:href="../../soen6441riskgame/controllers/SaveLoadController.html" xlink:show="new" xlink:title="soen6441riskgame.controllers.SaveLoadController" xlink:type="simple"><rect fill="#FEFECE" filter="url(#f81ixsig36l47)" height="32" id="soen6441riskgame.controllers.SaveLoadController" style="stroke: #A80036; stroke-width: 1.5;" width="172" x="38" y="152"/><ellipse cx="53" cy="168" fill="#ADD1B2" rx="11" ry="11" style="stroke: #A80036; stroke-width: 1.0;"/><path d="M55.7656,163.875 Q55.9219,163.6563 56.1094,163.5469 Q56.2969,163.4375 56.5156,163.4375 Q56.8906,163.4375 57.125,163.6953 Q57.3594,163.9531 57.3594,164.5625 L57.3594,166.0156 Q57.3594,166.625 57.125,166.8906 Q56.8906,167.1563 56.5156,167.1563 Q56.1719,167.1563 55.9688,166.9531 Q55.7656,166.7656 55.6563,166.25 Q55.6094,165.8906 55.4219,165.7031 Q55.0938,165.3281 54.4844,165.1094 Q53.875,164.8906 53.25,164.8906 Q52.4844,164.8906 51.8516,165.2188 Q51.2188,165.5469 50.7266,166.2969 Q50.2344,167.0469 50.2344,168.0781 L50.2344,169.1719 Q50.2344,170.4063 51.125,171.2266 Q52.0156,172.0469 53.6094,172.0469 Q54.5469,172.0469 55.2031,171.7969 Q55.5938,171.6406 56.0156,171.2031 Q56.2813,170.9375 56.4297,170.8594 Q56.5781,170.7813 56.7813,170.7813 Q57.1094,170.7813 57.3672,171.0391 Q57.625,171.2969 57.625,171.6406 Q57.625,171.9844 57.2813,172.3906 Q56.7813,172.9688 55.9844,173.2969 Q54.9063,173.75 53.6094,173.75 Q52.0938,173.75 50.8906,173.125 Q49.9063,172.625 49.2188,171.5547 Q48.5313,170.4844 48.5313,169.2031 L48.5313,168.0469 Q48.5313,166.7188 49.1484,165.5703 Q49.7656,164.4219 50.8594,163.8047 Q51.9531,163.1875 53.1875,163.1875 Q53.9219,163.1875 54.5703,163.3516 Q55.2188,163.5156 55.7656,163.875 Z "/><text fill="#000000" font-family="sans-serif" font-size="14" font-weight="bold" lengthAdjust="spacingAndGlyphs" textLength="140" x="67" y="173.7285">SaveLoadController</text></a><!--link soen6441riskgame.controllers.GameController to soen6441riskgame.controllers.MapController--><!--link soen6441riskgame.controllers.GameController to soen6441riskgame.controllers.SaveLoadController--><!--
@startuml

skinparam svgLinkTarget _parent
skinparam linetype ortho
package soen6441riskgame.controllers [[../../soen6441riskgame/controllers/package-summary.html{soen6441riskgame.controllers}]] #lightyellow {
}

class "<b><size:14>GameController</b>" as soen6441riskgame.controllers.GameController  [[../../soen6441riskgame/controllers/GameController.html{soen6441riskgame.controllers.GameController}]] {
}

hide soen6441riskgame.controllers.GameController fields
hide soen6441riskgame.controllers.GameController methods

class "<b><size:14>MapController</b>" as soen6441riskgame.controllers.MapController  [[../../soen6441riskgame/controllers/MapController.html{soen6441riskgame.controllers.MapController}]] {
}

hide soen6441riskgame.controllers.MapController fields
hide soen6441riskgame.controllers.MapController methods

class "<b><size:14>SaveLoadController</b>" as soen6441riskgame.controllers.SaveLoadController  [[../../soen6441riskgame/controllers/SaveLoadController.html{soen6441riskgame.controllers.SaveLoadController}]] {
}

hide soen6441riskgame.controllers.SaveLoadController fields
hide soen6441riskgame.controllers.SaveLoadController methods


@enduml

PlantUML version 1.2017.15(Mon Jul 03 12:45:34 EDT 2017)
(GPL source distribution)
Java Runtime: Java(TM) SE Runtime Environment
JVM: Java HotSpot(TM) 64-Bit Server VM
Java Version: 1.8.0_231-b11
Operating System: Windows 10
OS Version: 10.0
Default Encoding: Cp1252
Language: en
Country: US
--></g></svg>