<?xml version="1.0" encoding="UTF-8" standalone="no"?><svg xmlns="http://www.w3.org/2000/svg" xmlns:xlink="http://www.w3.org/1999/xlink" contentScriptType="application/ecmascript" contentStyleType="text/css" height="231px" preserveAspectRatio="none" style="width:405px;height:231px;" version="1.1" viewBox="0 0 405 231" width="405px" zoomAndPan="magnify"><defs><filter height="300%" id="fty0m6prrk18w" width="300%" x="-1" y="-1"><feGaussianBlur result="blurOut" stdDeviation="2.0"/><feColorMatrix in="blurOut" result="blurOut2" type="matrix" values="0 0 0 0 0 0 0 0 0 0 0 0 0 0 0 0 0 0 .4 0"/><feOffset dx="4.0" dy="4.0" in="blurOut2" result="blurOut3"/><feBlend in="SourceGraphic" in2="blurOut3" mode="normal"/></filter></defs><g><!--class soen6441riskgame.controllers.SaveLoadController--><a target="_parent" xlink:actuate="onRequest" xlink:href="../../soen6441riskgame/controllers/SaveLoadController.html" xlink:show="new" xlink:title="soen6441riskgame.controllers.SaveLoadController" xlink:type="simple"><rect fill="#FEFECE" filter="url(#fty0m6prrk18w)" height="111.5313" id="soen6441riskgame.controllers.SaveLoadController" style="stroke: #A80036; stroke-width: 1.5;" width="265" x="53.5" y="8"/><ellipse cx="111.75" cy="28.0938" fill="#ADD1B2" rx="11" ry="11" style="stroke: #A80036; stroke-width: 1.0;"/><path d="M114.5156,23.9688 Q114.6719,23.75 114.8594,23.6406 Q115.0469,23.5313 115.2656,23.5313 Q115.6406,23.5313 115.875,23.7891 Q116.1094,24.0469 116.1094,24.6563 L116.1094,26.1094 Q116.1094,26.7188 115.875,26.9844 Q115.6406,27.25 115.2656,27.25 Q114.9219,27.25 114.7188,27.0469 Q114.5156,26.8594 114.4063,26.3438 Q114.3594,25.9844 114.1719,25.7969 Q113.8438,25.4219 113.2344,25.2031 Q112.625,24.9844 112,24.9844 Q111.2344,24.9844 110.6016,25.3125 Q109.9688,25.6406 109.4766,26.3906 Q108.9844,27.1406 108.9844,28.1719 L108.9844,29.2656 Q108.9844,30.5 109.875,31.3203 Q110.7656,32.1406 112.3594,32.1406 Q113.2969,32.1406 113.9531,31.8906 Q114.3438,31.7344 114.7656,31.2969 Q115.0313,31.0313 115.1797,30.9531 Q115.3281,30.875 115.5313,30.875 Q115.8594,30.875 116.1172,31.1328 Q116.375,31.3906 116.375,31.7344 Q116.375,32.0781 116.0313,32.4844 Q115.5313,33.0625 114.7344,33.3906 Q113.6563,33.8438 112.3594,33.8438 Q110.8438,33.8438 109.6406,33.2188 Q108.6563,32.7188 107.9688,31.6484 Q107.2813,30.5781 107.2813,29.2969 L107.2813,28.1406 Q107.2813,26.8125 107.8984,25.6641 Q108.5156,24.5156 109.6094,23.8984 Q110.7031,23.2813 111.9375,23.2813 Q112.6719,23.2813 113.3203,23.4453 Q113.9688,23.6094 114.5156,23.9688 Z "/><text fill="#000000" font-family="sans-serif" font-size="14" font-weight="bold" lengthAdjust="spacingAndGlyphs" textLength="140" x="132.25" y="27.5332">SaveLoadController</text><text fill="#000000" font-family="sans-serif" font-size="10" lengthAdjust="spacingAndGlyphs" textLength="139" x="132.75" y="40.9902">soen6441riskgame.controllers</text><line style="stroke: #A80036; stroke-width: 1.5;" x1="54.5" x2="317.5" y1="48.1875" y2="48.1875"/><line style="stroke: #A80036; stroke-width: 1.5;" x1="54.5" x2="317.5" y1="56.1875" y2="56.1875"/><ellipse cx="64.5" cy="68.6055" fill="#84BE84" rx="3" ry="3" style="stroke: #038048; stroke-width: 1.0;"/><text fill="#000000" font-family="sans-serif" font-size="11" lengthAdjust="spacingAndGlyphs" textLength="103" x="73.5" y="71.6064">SaveLoadController()</text><ellipse cx="64.5" cy="82.4414" fill="#84BE84" rx="3" ry="3" style="stroke: #038048; stroke-width: 1.0;"/><text fill="#000000" font-family="sans-serif" font-size="11" lengthAdjust="spacingAndGlyphs" textLength="221" x="73.5" y="85.4424">boolean saveGame(String saveGameFilePath)</text><ellipse cx="64.5" cy="96.2773" fill="#84BE84" rx="3" ry="3" style="stroke: #038048; stroke-width: 1.0;"/><text fill="#000000" font-family="sans-serif" font-size="11" lengthAdjust="spacingAndGlyphs" textLength="239" x="73.5" y="99.2783">SerializableGame deserialize(JsonReader reader)</text><ellipse cx="64.5" cy="110.1133" fill="#84BE84" rx="3" ry="3" style="stroke: #038048; stroke-width: 1.0;"/><text fill="#000000" font-family="sans-serif" font-size="11" lengthAdjust="spacingAndGlyphs" textLength="223" x="73.5" y="113.1143">boolean loadGame(String savedGameFilePath)</text></a><!--class com.google.gson.stream.JsonReader--><rect fill="#D3D3D3" filter="url(#fty0m6prrk18w)" height="40.1875" id="com.google.gson.stream.JsonReader" style="stroke: #A80036; stroke-width: 1.5;" width="148" x="6" y="180"/><rect fill="#D3D3D3" height="40.1875" style="stroke: #A80036; stroke-width: 1.5;" width="148" x="6" y="180"/><ellipse cx="21" cy="200.0938" fill="#ADD1B2" rx="11" ry="11" style="stroke: #A80036; stroke-width: 1.0;"/><path d="M23.7656,195.9688 Q23.9219,195.75 24.1094,195.6406 Q24.2969,195.5313 24.5156,195.5313 Q24.8906,195.5313 25.125,195.7891 Q25.3594,196.0469 25.3594,196.6563 L25.3594,198.1094 Q25.3594,198.7188 25.125,198.9844 Q24.8906,199.25 24.5156,199.25 Q24.1719,199.25 23.9688,199.0469 Q23.7656,198.8594 23.6563,198.3438 Q23.6094,197.9844 23.4219,197.7969 Q23.0938,197.4219 22.4844,197.2031 Q21.875,196.9844 21.25,196.9844 Q20.4844,196.9844 19.8516,197.3125 Q19.2188,197.6406 18.7266,198.3906 Q18.2344,199.1406 18.2344,200.1719 L18.2344,201.2656 Q18.2344,202.5 19.125,203.3203 Q20.0156,204.1406 21.6094,204.1406 Q22.5469,204.1406 23.2031,203.8906 Q23.5938,203.7344 24.0156,203.2969 Q24.2813,203.0313 24.4297,202.9531 Q24.5781,202.875 24.7813,202.875 Q25.1094,202.875 25.3672,203.1328 Q25.625,203.3906 25.625,203.7344 Q25.625,204.0781 25.2813,204.4844 Q24.7813,205.0625 23.9844,205.3906 Q22.9063,205.8438 21.6094,205.8438 Q20.0938,205.8438 18.8906,205.2188 Q17.9063,204.7188 17.2188,203.6484 Q16.5313,202.5781 16.5313,201.2969 L16.5313,200.1406 Q16.5313,198.8125 17.1484,197.6641 Q17.7656,196.5156 18.8594,195.8984 Q19.9531,195.2813 21.1875,195.2813 Q21.9219,195.2813 22.5703,195.4453 Q23.2188,195.6094 23.7656,195.9688 Z "/><text fill="#000000" font-family="sans-serif" font-size="14" font-weight="bold" lengthAdjust="spacingAndGlyphs" textLength="85" x="50.5" y="199.5332">JsonReader</text><text fill="#000000" font-family="sans-serif" font-size="10" lengthAdjust="spacingAndGlyphs" textLength="116" x="35" y="212.9902">com.google.gson.stream</text><!--class soen6441riskgame.models.serializers.SerializableGame--><a target="_parent" xlink:actuate="onRequest" xlink:href="../../soen6441riskgame/models/serializers/SerializableGame.html" xlink:show="new" xlink:title="soen6441riskgame.models.serializers.SerializableGame" xlink:type="simple"><rect fill="#FFFFFF" filter="url(#fty0m6prrk18w)" height="40.1875" id="soen6441riskgame.models.serializers.SerializableGame" style="stroke: #A80036; stroke-width: 1.5;" width="205" x="189.5" y="180"/><rect fill="#FFFFFF" height="40.1875" style="stroke: #A80036; stroke-width: 1.5;" width="205" x="189.5" y="180"/><ellipse cx="204.5" cy="200.0938" fill="#ADD1B2" rx="11" ry="11" style="stroke: #A80036; stroke-width: 1.0;"/><path d="M207.2656,195.9688 Q207.4219,195.75 207.6094,195.6406 Q207.7969,195.5313 208.0156,195.5313 Q208.3906,195.5313 208.625,195.7891 Q208.8594,196.0469 208.8594,196.6563 L208.8594,198.1094 Q208.8594,198.7188 208.625,198.9844 Q208.3906,199.25 208.0156,199.25 Q207.6719,199.25 207.4688,199.0469 Q207.2656,198.8594 207.1563,198.3438 Q207.1094,197.9844 206.9219,197.7969 Q206.5938,197.4219 205.9844,197.2031 Q205.375,196.9844 204.75,196.9844 Q203.9844,196.9844 203.3516,197.3125 Q202.7188,197.6406 202.2266,198.3906 Q201.7344,199.1406 201.7344,200.1719 L201.7344,201.2656 Q201.7344,202.5 202.625,203.3203 Q203.5156,204.1406 205.1094,204.1406 Q206.0469,204.1406 206.7031,203.8906 Q207.0938,203.7344 207.5156,203.2969 Q207.7813,203.0313 207.9297,202.9531 Q208.0781,202.875 208.2813,202.875 Q208.6094,202.875 208.8672,203.1328 Q209.125,203.3906 209.125,203.7344 Q209.125,204.0781 208.7813,204.4844 Q208.2813,205.0625 207.4844,205.3906 Q206.4063,205.8438 205.1094,205.8438 Q203.5938,205.8438 202.3906,205.2188 Q201.4063,204.7188 200.7188,203.6484 Q200.0313,202.5781 200.0313,201.2969 L200.0313,200.1406 Q200.0313,198.8125 200.6484,197.6641 Q201.2656,196.5156 202.3594,195.8984 Q203.4531,195.2813 204.6875,195.2813 Q205.4219,195.2813 206.0703,195.4453 Q206.7188,195.6094 207.2656,195.9688 Z "/><text fill="#000000" font-family="sans-serif" font-size="14" font-weight="bold" lengthAdjust="spacingAndGlyphs" textLength="121" x="244.5" y="199.5332">SerializableGame</text><text fill="#000000" font-family="sans-serif" font-size="10" lengthAdjust="spacingAndGlyphs" textLength="173" x="218.5" y="212.9902">soen6441riskgame.models.serializers</text></a><!--link soen6441riskgame.controllers.SaveLoadController to com.google.gson.stream.JsonReader--><path d="M103.75,120.1016 C103.75,120.1016 103.75,174.9304 103.75,174.9304 " fill="none" id="soen6441riskgame.controllers.SaveLoadController-com.google.gson.stream.JsonReader" style="stroke: #A80036; stroke-width: 1.0; stroke-dasharray: 7.0,7.0;"/><polygon fill="#A80036" points="103.75,179.9304,107.75,170.9304,103.75,174.9304,99.75,170.9304,103.75,179.9304" style="stroke: #A80036; stroke-width: 1.0;"/><!--link soen6441riskgame.controllers.SaveLoadController to soen6441riskgame.models.serializers.SerializableGame--><path d="M254,120.1016 C254,120.1016 254,174.9304 254,174.9304 " fill="none" id="soen6441riskgame.controllers.SaveLoadController-soen6441riskgame.models.serializers.SerializableGame" style="stroke: #A80036; stroke-width: 1.0; stroke-dasharray: 7.0,7.0;"/><polygon fill="#A80036" points="254,179.9304,258,170.9304,254,174.9304,250,170.9304,254,179.9304" style="stroke: #A80036; stroke-width: 1.0;"/><!--
@startuml

skinparam svgLinkTarget _parent
skinparam linetype ortho
set namespaceSeparator none
class "<b><size:14>SaveLoadController</b>\n<size:10>soen6441riskgame.controllers" as soen6441riskgame.controllers.SaveLoadController  [[../../soen6441riskgame/controllers/SaveLoadController.html{soen6441riskgame.controllers.SaveLoadController}]] {
+SaveLoadController()
+boolean saveGame(String saveGameFilePath)
+SerializableGame deserialize(JsonReader reader)
+boolean loadGame(String savedGameFilePath)
}


class "<b><size:14>JsonReader</b>\n<size:10>com.google.gson.stream" as com.google.gson.stream.JsonReader  #lightgrey {
}

hide com.google.gson.stream.JsonReader fields
hide com.google.gson.stream.JsonReader methods

soen6441riskgame.controllers.SaveLoadController ..> com.google.gson.stream.JsonReader

class "<b><size:14>SerializableGame</b>\n<size:10>soen6441riskgame.models.serializers" as soen6441riskgame.models.serializers.SerializableGame  [[../../soen6441riskgame/models/serializers/SerializableGame.html{soen6441riskgame.models.serializers.SerializableGame}]] #white {
}

hide soen6441riskgame.models.serializers.SerializableGame fields
hide soen6441riskgame.models.serializers.SerializableGame methods

soen6441riskgame.controllers.SaveLoadController ..> soen6441riskgame.models.serializers.SerializableGame


@enduml

PlantUML version 1.2017.15(Mon Jul 03 12:45:34 EDT 2017)
(GPL source distribution)
Java Runtime: Java(TM) SE Runtime Environment
JVM: Java HotSpot(TM) 64-Bit Server VM
Java Version: 1.8.0_231-b11
Operating System: Windows 10
OS Version: 10.0
Default Encoding: Cp1252
Language: en
Country: US
--></g></svg>