<?xml version="1.0" encoding="UTF-8" standalone="no"?><svg xmlns="http://www.w3.org/2000/svg" xmlns:xlink="http://www.w3.org/1999/xlink" contentScriptType="application/ecmascript" contentStyleType="text/css" height="130px" preserveAspectRatio="none" style="width:266px;height:130px;" version="1.1" viewBox="0 0 266 130" width="266px" zoomAndPan="magnify"><defs><filter height="300%" id="f1q50x6x7mi7mj" width="300%" x="-1" y="-1"><feGaussianBlur result="blurOut" stdDeviation="2.0"/><feColorMatrix in="blurOut" result="blurOut2" type="matrix" values="0 0 0 0 0 0 0 0 0 0 0 0 0 0 0 0 0 0 .4 0"/><feOffset dx="4.0" dy="4.0" in="blurOut2" result="blurOut3"/><feBlend in="SourceGraphic" in2="blurOut3" mode="normal"/></filter></defs><g><!--class soen6441riskgame.controllers.SaveLoadController--><a target="_parent" xlink:actuate="onRequest" xlink:href="../../soen6441riskgame/controllers/SaveLoadController.html" xlink:show="new" xlink:title="soen6441riskgame.controllers.SaveLoadController" xlink:type="simple"><rect fill="#FEFECE" filter="url(#f1q50x6x7mi7mj)" height="111.5313" id="soen6441riskgame.controllers.SaveLoadController" style="stroke: #A80036; stroke-width: 1.5;" width="249" x="6" y="8"/><ellipse cx="56.25" cy="28.0938" fill="#ADD1B2" rx="11" ry="11" style="stroke: #A80036; stroke-width: 1.0;"/><path d="M59.0156,23.9688 Q59.1719,23.75 59.3594,23.6406 Q59.5469,23.5313 59.7656,23.5313 Q60.1406,23.5313 60.375,23.7891 Q60.6094,24.0469 60.6094,24.6563 L60.6094,26.1094 Q60.6094,26.7188 60.375,26.9844 Q60.1406,27.25 59.7656,27.25 Q59.4219,27.25 59.2188,27.0469 Q59.0156,26.8594 58.9063,26.3438 Q58.8594,25.9844 58.6719,25.7969 Q58.3438,25.4219 57.7344,25.2031 Q57.125,24.9844 56.5,24.9844 Q55.7344,24.9844 55.1016,25.3125 Q54.4688,25.6406 53.9766,26.3906 Q53.4844,27.1406 53.4844,28.1719 L53.4844,29.2656 Q53.4844,30.5 54.375,31.3203 Q55.2656,32.1406 56.8594,32.1406 Q57.7969,32.1406 58.4531,31.8906 Q58.8438,31.7344 59.2656,31.2969 Q59.5313,31.0313 59.6797,30.9531 Q59.8281,30.875 60.0313,30.875 Q60.3594,30.875 60.6172,31.1328 Q60.875,31.3906 60.875,31.7344 Q60.875,32.0781 60.5313,32.4844 Q60.0313,33.0625 59.2344,33.3906 Q58.1563,33.8438 56.8594,33.8438 Q55.3438,33.8438 54.1406,33.2188 Q53.1563,32.7188 52.4688,31.6484 Q51.7813,30.5781 51.7813,29.2969 L51.7813,28.1406 Q51.7813,26.8125 52.3984,25.6641 Q53.0156,24.5156 54.1094,23.8984 Q55.2031,23.2813 56.4375,23.2813 Q57.1719,23.2813 57.8203,23.4453 Q58.4688,23.6094 59.0156,23.9688 Z "/><text fill="#000000" font-family="sans-serif" font-size="14" font-weight="bold" lengthAdjust="spacingAndGlyphs" textLength="140" x="76.75" y="27.5332">SaveLoadController</text><text fill="#000000" font-family="sans-serif" font-size="10" lengthAdjust="spacingAndGlyphs" textLength="139" x="77.25" y="40.9902">soen6441riskgame.controllers</text><line style="stroke: #A80036; stroke-width: 1.5;" x1="7" x2="254" y1="48.1875" y2="48.1875"/><line style="stroke: #A80036; stroke-width: 1.5;" x1="7" x2="254" y1="56.1875" y2="56.1875"/><ellipse cx="17" cy="68.6055" fill="#84BE84" rx="3" ry="3" style="stroke: #038048; stroke-width: 1.0;"/><text fill="#000000" font-family="sans-serif" font-size="11" lengthAdjust="spacingAndGlyphs" textLength="103" x="26" y="71.6064">SaveLoadController()</text><ellipse cx="17" cy="82.4414" fill="#84BE84" rx="3" ry="3" style="stroke: #038048; stroke-width: 1.0;"/><text fill="#000000" font-family="sans-serif" font-size="11" lengthAdjust="spacingAndGlyphs" textLength="221" x="26" y="85.4424">boolean saveGame(String saveGameFilePath)</text><ellipse cx="17" cy="96.2773" fill="#84BE84" rx="3" ry="3" style="stroke: #038048; stroke-width: 1.0;"/><text fill="#000000" font-family="sans-serif" font-size="11" lengthAdjust="spacingAndGlyphs" textLength="223" x="26" y="99.2783">boolean loadGame(String savedGameFilePath)</text><rect fill="#F24D5C" height="6" style="stroke: #C82930; stroke-width: 1.0;" width="6" x="14" y="107.1133"/><text fill="#000000" font-family="sans-serif" font-size="11" lengthAdjust="spacingAndGlyphs" textLength="176" x="26" y="113.1143">void deserialize(JsonReader reader)</text></a><!--
@startuml

skinparam svgLinkTarget _parent
skinparam linetype ortho
set namespaceSeparator none
class "<b><size:14>SaveLoadController</b>\n<size:10>soen6441riskgame.controllers" as soen6441riskgame.controllers.SaveLoadController  [[../../soen6441riskgame/controllers/SaveLoadController.html{soen6441riskgame.controllers.SaveLoadController}]] {
+SaveLoadController()
+boolean saveGame(String saveGameFilePath)
+boolean loadGame(String savedGameFilePath)
-void deserialize(JsonReader reader)
}




@enduml

PlantUML version 1.2017.15(Mon Jul 03 12:45:34 EDT 2017)
(GPL source distribution)
Java Runtime: Java(TM) SE Runtime Environment
JVM: Java HotSpot(TM) 64-Bit Server VM
Java Version: 1.8.0_231-b11
Operating System: Windows 10
OS Version: 10.0
Default Encoding: Cp1252
Language: en
Country: US
--></g></svg>