<?xml version="1.0" encoding="UTF-8" standalone="no"?><svg xmlns="http://www.w3.org/2000/svg" xmlns:xlink="http://www.w3.org/1999/xlink" contentScriptType="application/ecmascript" contentStyleType="text/css" height="231px" preserveAspectRatio="none" style="width:266px;height:231px;" version="1.1" viewBox="0 0 266 231" width="266px" zoomAndPan="magnify"><defs><filter height="300%" id="ftkk98t7s1gnb" width="300%" x="-1" y="-1"><feGaussianBlur result="blurOut" stdDeviation="2.0"/><feColorMatrix in="blurOut" result="blurOut2" type="matrix" values="0 0 0 0 0 0 0 0 0 0 0 0 0 0 0 0 0 0 .4 0"/><feOffset dx="4.0" dy="4.0" in="blurOut2" result="blurOut3"/><feBlend in="SourceGraphic" in2="blurOut3" mode="normal"/></filter></defs><g><!--class soen6441riskgame.controllers.SaveLoadController--><a target="_parent" xlink:actuate="onRequest" xlink:href="../../soen6441riskgame/controllers/SaveLoadController.html" xlink:show="new" xlink:title="soen6441riskgame.controllers.SaveLoadController" xlink:type="simple"><rect fill="#FEFECE" filter="url(#ftkk98t7s1gnb)" height="111.5313" id="soen6441riskgame.controllers.SaveLoadController" style="stroke: #A80036; stroke-width: 1.5;" width="249" x="6" y="8"/><ellipse cx="56.25" cy="28.0938" fill="#ADD1B2" rx="11" ry="11" style="stroke: #A80036; stroke-width: 1.0;"/><path d="M59.0156,23.9688 Q59.1719,23.75 59.3594,23.6406 Q59.5469,23.5313 59.7656,23.5313 Q60.1406,23.5313 60.375,23.7891 Q60.6094,24.0469 60.6094,24.6563 L60.6094,26.1094 Q60.6094,26.7188 60.375,26.9844 Q60.1406,27.25 59.7656,27.25 Q59.4219,27.25 59.2188,27.0469 Q59.0156,26.8594 58.9063,26.3438 Q58.8594,25.9844 58.6719,25.7969 Q58.3438,25.4219 57.7344,25.2031 Q57.125,24.9844 56.5,24.9844 Q55.7344,24.9844 55.1016,25.3125 Q54.4688,25.6406 53.9766,26.3906 Q53.4844,27.1406 53.4844,28.1719 L53.4844,29.2656 Q53.4844,30.5 54.375,31.3203 Q55.2656,32.1406 56.8594,32.1406 Q57.7969,32.1406 58.4531,31.8906 Q58.8438,31.7344 59.2656,31.2969 Q59.5313,31.0313 59.6797,30.9531 Q59.8281,30.875 60.0313,30.875 Q60.3594,30.875 60.6172,31.1328 Q60.875,31.3906 60.875,31.7344 Q60.875,32.0781 60.5313,32.4844 Q60.0313,33.0625 59.2344,33.3906 Q58.1563,33.8438 56.8594,33.8438 Q55.3438,33.8438 54.1406,33.2188 Q53.1563,32.7188 52.4688,31.6484 Q51.7813,30.5781 51.7813,29.2969 L51.7813,28.1406 Q51.7813,26.8125 52.3984,25.6641 Q53.0156,24.5156 54.1094,23.8984 Q55.2031,23.2813 56.4375,23.2813 Q57.1719,23.2813 57.8203,23.4453 Q58.4688,23.6094 59.0156,23.9688 Z "/><text fill="#000000" font-family="sans-serif" font-size="14" font-weight="bold" lengthAdjust="spacingAndGlyphs" textLength="140" x="76.75" y="27.5332">SaveLoadController</text><text fill="#000000" font-family="sans-serif" font-size="10" lengthAdjust="spacingAndGlyphs" textLength="139" x="77.25" y="40.9902">soen6441riskgame.controllers</text><line style="stroke: #A80036; stroke-width: 1.5;" x1="7" x2="254" y1="48.1875" y2="48.1875"/><line style="stroke: #A80036; stroke-width: 1.5;" x1="7" x2="254" y1="56.1875" y2="56.1875"/><ellipse cx="17" cy="68.6055" fill="#84BE84" rx="3" ry="3" style="stroke: #038048; stroke-width: 1.0;"/><text fill="#000000" font-family="sans-serif" font-size="11" lengthAdjust="spacingAndGlyphs" textLength="103" x="26" y="71.6064">SaveLoadController()</text><ellipse cx="17" cy="82.4414" fill="#84BE84" rx="3" ry="3" style="stroke: #038048; stroke-width: 1.0;"/><text fill="#000000" font-family="sans-serif" font-size="11" lengthAdjust="spacingAndGlyphs" textLength="221" x="26" y="85.4424">boolean saveGame(String saveGameFilePath)</text><ellipse cx="17" cy="96.2773" fill="#84BE84" rx="3" ry="3" style="stroke: #038048; stroke-width: 1.0;"/><text fill="#000000" font-family="sans-serif" font-size="11" lengthAdjust="spacingAndGlyphs" textLength="176" x="26" y="99.2783">void deserialize(JsonReader reader)</text><ellipse cx="17" cy="110.1133" fill="#84BE84" rx="3" ry="3" style="stroke: #038048; stroke-width: 1.0;"/><text fill="#000000" font-family="sans-serif" font-size="11" lengthAdjust="spacingAndGlyphs" textLength="223" x="26" y="113.1143">boolean loadGame(String savedGameFilePath)</text></a><!--class com.google.gson.stream.JsonReader--><rect fill="#D3D3D3" filter="url(#ftkk98t7s1gnb)" height="40.1875" id="com.google.gson.stream.JsonReader" style="stroke: #A80036; stroke-width: 1.5;" width="148" x="56.5" y="180"/><rect fill="#D3D3D3" height="40.1875" style="stroke: #A80036; stroke-width: 1.5;" width="148" x="56.5" y="180"/><ellipse cx="71.5" cy="200.0938" fill="#ADD1B2" rx="11" ry="11" style="stroke: #A80036; stroke-width: 1.0;"/><path d="M74.2656,195.9688 Q74.4219,195.75 74.6094,195.6406 Q74.7969,195.5313 75.0156,195.5313 Q75.3906,195.5313 75.625,195.7891 Q75.8594,196.0469 75.8594,196.6563 L75.8594,198.1094 Q75.8594,198.7188 75.625,198.9844 Q75.3906,199.25 75.0156,199.25 Q74.6719,199.25 74.4688,199.0469 Q74.2656,198.8594 74.1563,198.3438 Q74.1094,197.9844 73.9219,197.7969 Q73.5938,197.4219 72.9844,197.2031 Q72.375,196.9844 71.75,196.9844 Q70.9844,196.9844 70.3516,197.3125 Q69.7188,197.6406 69.2266,198.3906 Q68.7344,199.1406 68.7344,200.1719 L68.7344,201.2656 Q68.7344,202.5 69.625,203.3203 Q70.5156,204.1406 72.1094,204.1406 Q73.0469,204.1406 73.7031,203.8906 Q74.0938,203.7344 74.5156,203.2969 Q74.7813,203.0313 74.9297,202.9531 Q75.0781,202.875 75.2813,202.875 Q75.6094,202.875 75.8672,203.1328 Q76.125,203.3906 76.125,203.7344 Q76.125,204.0781 75.7813,204.4844 Q75.2813,205.0625 74.4844,205.3906 Q73.4063,205.8438 72.1094,205.8438 Q70.5938,205.8438 69.3906,205.2188 Q68.4063,204.7188 67.7188,203.6484 Q67.0313,202.5781 67.0313,201.2969 L67.0313,200.1406 Q67.0313,198.8125 67.6484,197.6641 Q68.2656,196.5156 69.3594,195.8984 Q70.4531,195.2813 71.6875,195.2813 Q72.4219,195.2813 73.0703,195.4453 Q73.7188,195.6094 74.2656,195.9688 Z "/><text fill="#000000" font-family="sans-serif" font-size="14" font-weight="bold" lengthAdjust="spacingAndGlyphs" textLength="85" x="101" y="199.5332">JsonReader</text><text fill="#000000" font-family="sans-serif" font-size="10" lengthAdjust="spacingAndGlyphs" textLength="116" x="85.5" y="212.9902">com.google.gson.stream</text><!--link soen6441riskgame.controllers.SaveLoadController to com.google.gson.stream.JsonReader--><path d="M130.5,120.1016 C130.5,120.1016 130.5,174.9304 130.5,174.9304 " fill="none" id="soen6441riskgame.controllers.SaveLoadController-com.google.gson.stream.JsonReader" style="stroke: #A80036; stroke-width: 1.0; stroke-dasharray: 7.0,7.0;"/><polygon fill="#A80036" points="130.5,179.9304,134.5,170.9304,130.5,174.9304,126.5,170.9304,130.5,179.9304" style="stroke: #A80036; stroke-width: 1.0;"/><!--
@startuml

skinparam svgLinkTarget _parent
skinparam linetype ortho
set namespaceSeparator none
class "<b><size:14>SaveLoadController</b>\n<size:10>soen6441riskgame.controllers" as soen6441riskgame.controllers.SaveLoadController  [[../../soen6441riskgame/controllers/SaveLoadController.html{soen6441riskgame.controllers.SaveLoadController}]] {
+SaveLoadController()
+boolean saveGame(String saveGameFilePath)
+void deserialize(JsonReader reader)
+boolean loadGame(String savedGameFilePath)
}


class "<b><size:14>JsonReader</b>\n<size:10>com.google.gson.stream" as com.google.gson.stream.JsonReader  #lightgrey {
}

hide com.google.gson.stream.JsonReader fields
hide com.google.gson.stream.JsonReader methods

soen6441riskgame.controllers.SaveLoadController ..> com.google.gson.stream.JsonReader


@enduml

PlantUML version 1.2017.15(Mon Jul 03 12:45:34 EDT 2017)
(GPL source distribution)
Java Runtime: Java(TM) SE Runtime Environment
JVM: Java HotSpot(TM) 64-Bit Server VM
Java Version: 1.8.0_231-b11
Operating System: Windows 10
OS Version: 10.0
Default Encoding: Cp1252
Language: en
Country: US
--></g></svg>