<?xml version="1.0" encoding="UTF-8" standalone="no"?><svg xmlns="http://www.w3.org/2000/svg" xmlns:xlink="http://www.w3.org/1999/xlink" contentScriptType="application/ecmascript" contentStyleType="text/css" height="424px" preserveAspectRatio="none" style="width:717px;height:424px;" version="1.1" viewBox="0 0 717 424" width="717px" zoomAndPan="magnify"><defs><filter height="300%" id="f9ptvrx54mzck" width="300%" x="-1" y="-1"><feGaussianBlur result="blurOut" stdDeviation="2.0"/><feColorMatrix in="blurOut" result="blurOut2" type="matrix" values="0 0 0 0 0 0 0 0 0 0 0 0 0 0 0 0 0 0 .4 0"/><feOffset dx="4.0" dy="4.0" in="blurOut2" result="blurOut3"/><feBlend in="SourceGraphic" in2="blurOut3" mode="normal"/></filter></defs><g><!--class soen6441riskgame.controllers.TournamentController--><a target="_parent" xlink:actuate="onRequest" xlink:href="../../soen6441riskgame/controllers/TournamentController.html" xlink:show="new" xlink:title="soen6441riskgame.controllers.TournamentController" xlink:type="simple"><rect fill="#FEFECE" filter="url(#f9ptvrx54mzck)" height="305.2344" id="soen6441riskgame.controllers.TournamentController" style="stroke: #A80036; stroke-width: 1.5;" width="352" x="6" y="8"/><ellipse cx="100.25" cy="28.0938" fill="#ADD1B2" rx="11" ry="11" style="stroke: #A80036; stroke-width: 1.0;"/><path d="M103.0156,23.9688 Q103.1719,23.75 103.3594,23.6406 Q103.5469,23.5313 103.7656,23.5313 Q104.1406,23.5313 104.375,23.7891 Q104.6094,24.0469 104.6094,24.6563 L104.6094,26.1094 Q104.6094,26.7188 104.375,26.9844 Q104.1406,27.25 103.7656,27.25 Q103.4219,27.25 103.2188,27.0469 Q103.0156,26.8594 102.9063,26.3438 Q102.8594,25.9844 102.6719,25.7969 Q102.3438,25.4219 101.7344,25.2031 Q101.125,24.9844 100.5,24.9844 Q99.7344,24.9844 99.1016,25.3125 Q98.4688,25.6406 97.9766,26.3906 Q97.4844,27.1406 97.4844,28.1719 L97.4844,29.2656 Q97.4844,30.5 98.375,31.3203 Q99.2656,32.1406 100.8594,32.1406 Q101.7969,32.1406 102.4531,31.8906 Q102.8438,31.7344 103.2656,31.2969 Q103.5313,31.0313 103.6797,30.9531 Q103.8281,30.875 104.0313,30.875 Q104.3594,30.875 104.6172,31.1328 Q104.875,31.3906 104.875,31.7344 Q104.875,32.0781 104.5313,32.4844 Q104.0313,33.0625 103.2344,33.3906 Q102.1563,33.8438 100.8594,33.8438 Q99.3438,33.8438 98.1406,33.2188 Q97.1563,32.7188 96.4688,31.6484 Q95.7813,30.5781 95.7813,29.2969 L95.7813,28.1406 Q95.7813,26.8125 96.3984,25.6641 Q97.0156,24.5156 98.1094,23.8984 Q99.2031,23.2813 100.4375,23.2813 Q101.1719,23.2813 101.8203,23.4453 Q102.4688,23.6094 103.0156,23.9688 Z "/><text fill="#000000" font-family="sans-serif" font-size="14" font-weight="bold" lengthAdjust="spacingAndGlyphs" textLength="155" x="120.75" y="27.5332">TournamentController</text><text fill="#000000" font-family="sans-serif" font-size="10" lengthAdjust="spacingAndGlyphs" textLength="139" x="128.75" y="40.9902">soen6441riskgame.controllers</text><line style="stroke: #A80036; stroke-width: 1.5;" x1="7" x2="357" y1="48.1875" y2="48.1875"/><ellipse cx="17" cy="60.6055" fill="none" rx="3" ry="3" style="stroke: #038048; stroke-width: 1.0;"/><text fill="#000000" font-family="sans-serif" font-size="11" lengthAdjust="spacingAndGlyphs" text-decoration="underline" textLength="117" x="26" y="63.6064">Boundary mapBoundary</text><line style="stroke: #000000; stroke-width: 1.0;" x1="26" x2="143" y1="65.6064" y2="65.6064"/><ellipse cx="17" cy="74.4414" fill="none" rx="3" ry="3" style="stroke: #038048; stroke-width: 1.0;"/><text fill="#000000" font-family="sans-serif" font-size="11" lengthAdjust="spacingAndGlyphs" text-decoration="underline" textLength="137" x="26" y="77.4424">Boundary strategyBoundary</text><line style="stroke: #000000; stroke-width: 1.0;" x1="26" x2="163" y1="79.4424" y2="79.4424"/><ellipse cx="17" cy="88.2773" fill="none" rx="3" ry="3" style="stroke: #038048; stroke-width: 1.0;"/><text fill="#000000" font-family="sans-serif" font-size="11" lengthAdjust="spacingAndGlyphs" text-decoration="underline" textLength="173" x="26" y="91.2783">Boundary numberOfGameBoundary</text><line style="stroke: #000000; stroke-width: 1.0;" x1="26" x2="199" y1="93.2783" y2="93.2783"/><ellipse cx="17" cy="102.1133" fill="none" rx="3" ry="3" style="stroke: #038048; stroke-width: 1.0;"/><text fill="#000000" font-family="sans-serif" font-size="11" lengthAdjust="spacingAndGlyphs" text-decoration="underline" textLength="188" x="26" y="105.1143">Boundary maxNumberOfTurnBoundary</text><line style="stroke: #000000; stroke-width: 1.0;" x1="26" x2="214" y1="107.1143" y2="107.1143"/><rect fill="none" height="6" style="stroke: #C82930; stroke-width: 1.0;" width="6" x="14" y="112.9492"/><text fill="#000000" font-family="sans-serif" font-size="11" lengthAdjust="spacingAndGlyphs" textLength="92" x="26" y="118.9502">Strategy strategies</text><rect fill="none" height="6" style="stroke: #C82930; stroke-width: 1.0;" width="6" x="14" y="126.7852"/><text fill="#000000" font-family="sans-serif" font-size="11" lengthAdjust="spacingAndGlyphs" textLength="57" x="26" y="132.7861">String maps</text><rect fill="none" height="6" style="stroke: #C82930; stroke-width: 1.0;" width="6" x="14" y="140.6211"/><text fill="#000000" font-family="sans-serif" font-size="11" lengthAdjust="spacingAndGlyphs" textLength="90" x="26" y="146.6221">int numberOfGame</text><rect fill="none" height="6" style="stroke: #C82930; stroke-width: 1.0;" width="6" x="14" y="154.457"/><text fill="#000000" font-family="sans-serif" font-size="11" lengthAdjust="spacingAndGlyphs" textLength="105" x="26" y="160.458">int maxNumberOfTurn</text><rect fill="none" height="6" style="stroke: #C82930; stroke-width: 1.0;" width="6" x="14" y="168.293"/><text fill="#000000" font-family="sans-serif" font-size="11" lengthAdjust="spacingAndGlyphs" textLength="149" x="26" y="174.2939">GameController gameController</text><line style="stroke: #A80036; stroke-width: 1.5;" x1="7" x2="357" y1="180.7109" y2="180.7109"/><ellipse cx="17" cy="193.1289" fill="#84BE84" rx="3" ry="3" style="stroke: #038048; stroke-width: 1.0;"/><text fill="#000000" font-family="sans-serif" font-size="11" lengthAdjust="spacingAndGlyphs" textLength="111" x="26" y="196.1299">TournamentController()</text><ellipse cx="17" cy="206.9648" fill="#84BE84" rx="3" ry="3" style="stroke: #038048; stroke-width: 1.0;"/><text fill="#000000" font-family="sans-serif" font-size="11" lengthAdjust="spacingAndGlyphs" textLength="195" x="26" y="209.9658">void enterTournament(List&lt;String&gt; args)</text><rect fill="#F24D5C" height="6" style="stroke: #C82930; stroke-width: 1.0;" width="6" x="14" y="217.8008"/><text fill="#000000" font-family="sans-serif" font-size="11" lengthAdjust="spacingAndGlyphs" textLength="179" x="26" y="223.8018">Player simulateGamePlay(String map)</text><rect fill="#F24D5C" height="6" style="stroke: #C82930; stroke-width: 1.0;" width="6" x="14" y="231.6367"/><text fill="#000000" font-family="sans-serif" font-size="11" lengthAdjust="spacingAndGlyphs" textLength="104" x="26" y="237.6377">void initializePlayers()</text><rect fill="#F24D5C" height="6" style="stroke: #C82930; stroke-width: 1.0;" width="6" x="14" y="245.4727"/><text fill="#000000" font-family="sans-serif" font-size="11" lengthAdjust="spacingAndGlyphs" textLength="224" x="26" y="251.4736">void parseTournamentParameters(String args)</text><rect fill="#F24D5C" height="6" style="stroke: #C82930; stroke-width: 1.0;" width="6" x="14" y="259.3086"/><text fill="#000000" font-family="sans-serif" font-size="11" lengthAdjust="spacingAndGlyphs" textLength="326" x="26" y="265.3096">ArrayList&lt;Strategy&gt; parsePlayerStrategies(String playerStrategies)</text><rect fill="#F24D5C" height="6" style="stroke: #C82930; stroke-width: 1.0;" width="6" x="14" y="273.1445"/><text fill="#000000" font-family="sans-serif" font-size="11" lengthAdjust="spacingAndGlyphs" textLength="107" x="26" y="279.1455">boolean isMapsValid()</text><rect fill="#F24D5C" height="6" style="stroke: #C82930; stroke-width: 1.0;" width="6" x="14" y="286.9805"/><text fill="#000000" font-family="sans-serif" font-size="11" lengthAdjust="spacingAndGlyphs" textLength="130" x="26" y="292.9814">boolean isStrategiesValid()</text><rect fill="#F24D5C" height="6" style="stroke: #C82930; stroke-width: 1.0;" width="6" x="14" y="300.8164"/><text fill="#000000" font-family="sans-serif" font-size="11" lengthAdjust="spacingAndGlyphs" textLength="138" x="26" y="306.8174">boolean isTournamentValid()</text></a><!--class soen6441riskgame.models.Boundary--><a target="_parent" xlink:actuate="onRequest" xlink:href="../../soen6441riskgame/models/Boundary.html" xlink:show="new" xlink:title="soen6441riskgame.models.Boundary" xlink:type="simple"><rect fill="#FFFFFF" filter="url(#f9ptvrx54mzck)" height="40.1875" id="soen6441riskgame.models.Boundary" style="stroke: #A80036; stroke-width: 1.5;" width="156" x="104" y="373"/><rect fill="#FFFFFF" height="40.1875" style="stroke: #A80036; stroke-width: 1.5;" width="156" x="104" y="373"/><ellipse cx="119" cy="393.0938" fill="#ADD1B2" rx="11" ry="11" style="stroke: #A80036; stroke-width: 1.0;"/><path d="M121.7656,388.9688 Q121.9219,388.75 122.1094,388.6406 Q122.2969,388.5313 122.5156,388.5313 Q122.8906,388.5313 123.125,388.7891 Q123.3594,389.0469 123.3594,389.6563 L123.3594,391.1094 Q123.3594,391.7188 123.125,391.9844 Q122.8906,392.25 122.5156,392.25 Q122.1719,392.25 121.9688,392.0469 Q121.7656,391.8594 121.6563,391.3438 Q121.6094,390.9844 121.4219,390.7969 Q121.0938,390.4219 120.4844,390.2031 Q119.875,389.9844 119.25,389.9844 Q118.4844,389.9844 117.8516,390.3125 Q117.2188,390.6406 116.7266,391.3906 Q116.2344,392.1406 116.2344,393.1719 L116.2344,394.2656 Q116.2344,395.5 117.125,396.3203 Q118.0156,397.1406 119.6094,397.1406 Q120.5469,397.1406 121.2031,396.8906 Q121.5938,396.7344 122.0156,396.2969 Q122.2813,396.0313 122.4297,395.9531 Q122.5781,395.875 122.7813,395.875 Q123.1094,395.875 123.3672,396.1328 Q123.625,396.3906 123.625,396.7344 Q123.625,397.0781 123.2813,397.4844 Q122.7813,398.0625 121.9844,398.3906 Q120.9063,398.8438 119.6094,398.8438 Q118.0938,398.8438 116.8906,398.2188 Q115.9063,397.7188 115.2188,396.6484 Q114.5313,395.5781 114.5313,394.2969 L114.5313,393.1406 Q114.5313,391.8125 115.1484,390.6641 Q115.7656,389.5156 116.8594,388.8984 Q117.9531,388.2813 119.1875,388.2813 Q119.9219,388.2813 120.5703,388.4453 Q121.2188,388.6094 121.7656,388.9688 Z "/><text fill="#000000" font-family="sans-serif" font-size="14" font-weight="bold" lengthAdjust="spacingAndGlyphs" textLength="67" x="161.5" y="392.5332">Boundary</text><text fill="#000000" font-family="sans-serif" font-size="10" lengthAdjust="spacingAndGlyphs" textLength="124" x="133" y="405.9902">soen6441riskgame.models</text></a><!--class soen6441riskgame.models.strategies.Strategy--><a target="_parent" xlink:actuate="onRequest" xlink:href="../../soen6441riskgame/models/strategies/Strategy.html" xlink:show="new" xlink:title="soen6441riskgame.models.strategies.Strategy" xlink:type="simple"><rect fill="#FFFFFF" filter="url(#f9ptvrx54mzck)" height="40.1875" id="soen6441riskgame.models.strategies.Strategy" style="stroke: #A80036; stroke-width: 1.5;" width="205" x="295.5" y="373"/><rect fill="#FFFFFF" height="40.1875" style="stroke: #A80036; stroke-width: 1.5;" width="205" x="295.5" y="373"/><ellipse cx="310.5" cy="393.0938" fill="#B4A7E5" rx="11" ry="11" style="stroke: #A80036; stroke-width: 1.0;"/><path d="M311.4531,389.7344 L311.4531,396.3906 L313.1719,396.3906 Q313.7813,396.3906 314.0469,396.625 Q314.3125,396.8594 314.3125,397.25 Q314.3125,397.625 314.0469,397.8594 Q313.7813,398.0938 313.1719,398.0938 L308.0313,398.0938 Q307.4219,398.0938 307.1563,397.8594 Q306.8906,397.625 306.8906,397.2344 Q306.8906,396.8594 307.1563,396.625 Q307.4219,396.3906 308.0313,396.3906 L309.75,396.3906 L309.75,389.7344 L308.0313,389.7344 Q307.4219,389.7344 307.1563,389.5 Q306.8906,389.2656 306.8906,388.875 Q306.8906,388.5 307.1563,388.2656 Q307.4219,388.0313 308.0313,388.0313 L313.1719,388.0313 Q313.7813,388.0313 314.0469,388.2656 Q314.3125,388.5 314.3125,388.875 Q314.3125,389.2656 314.0469,389.5 Q313.7813,389.7344 313.1719,389.7344 L311.4531,389.7344 Z "/><text fill="#000000" font-family="sans-serif" font-size="14" font-style="italic" font-weight="bold" lengthAdjust="spacingAndGlyphs" textLength="56" x="383" y="392.5332">Strategy</text><text fill="#000000" font-family="sans-serif" font-size="10" font-style="italic" lengthAdjust="spacingAndGlyphs" textLength="173" x="324.5" y="405.9902">soen6441riskgame.models.strategies</text></a><!--class soen6441riskgame.controllers.GameController--><a target="_parent" xlink:actuate="onRequest" xlink:href="../../soen6441riskgame/controllers/GameController.html" xlink:show="new" xlink:title="soen6441riskgame.controllers.GameController" xlink:type="simple"><rect fill="#FEFECE" filter="url(#f9ptvrx54mzck)" height="40.1875" id="soen6441riskgame.controllers.GameController" style="stroke: #A80036; stroke-width: 1.5;" width="171" x="535.5" y="373"/><ellipse cx="550.5" cy="393.0938" fill="#ADD1B2" rx="11" ry="11" style="stroke: #A80036; stroke-width: 1.0;"/><path d="M553.2656,388.9688 Q553.4219,388.75 553.6094,388.6406 Q553.7969,388.5313 554.0156,388.5313 Q554.3906,388.5313 554.625,388.7891 Q554.8594,389.0469 554.8594,389.6563 L554.8594,391.1094 Q554.8594,391.7188 554.625,391.9844 Q554.3906,392.25 554.0156,392.25 Q553.6719,392.25 553.4688,392.0469 Q553.2656,391.8594 553.1563,391.3438 Q553.1094,390.9844 552.9219,390.7969 Q552.5938,390.4219 551.9844,390.2031 Q551.375,389.9844 550.75,389.9844 Q549.9844,389.9844 549.3516,390.3125 Q548.7188,390.6406 548.2266,391.3906 Q547.7344,392.1406 547.7344,393.1719 L547.7344,394.2656 Q547.7344,395.5 548.625,396.3203 Q549.5156,397.1406 551.1094,397.1406 Q552.0469,397.1406 552.7031,396.8906 Q553.0938,396.7344 553.5156,396.2969 Q553.7813,396.0313 553.9297,395.9531 Q554.0781,395.875 554.2813,395.875 Q554.6094,395.875 554.8672,396.1328 Q555.125,396.3906 555.125,396.7344 Q555.125,397.0781 554.7813,397.4844 Q554.2813,398.0625 553.4844,398.3906 Q552.4063,398.8438 551.1094,398.8438 Q549.5938,398.8438 548.3906,398.2188 Q547.4063,397.7188 546.7188,396.6484 Q546.0313,395.5781 546.0313,394.2969 L546.0313,393.1406 Q546.0313,391.8125 546.6484,390.6641 Q547.2656,389.5156 548.3594,388.8984 Q549.4531,388.2813 550.6875,388.2813 Q551.4219,388.2813 552.0703,388.4453 Q552.7188,388.6094 553.2656,388.9688 Z "/><text fill="#000000" font-family="sans-serif" font-size="14" font-weight="bold" lengthAdjust="spacingAndGlyphs" textLength="111" x="578.5" y="392.5332">GameController</text><text fill="#000000" font-family="sans-serif" font-size="10" lengthAdjust="spacingAndGlyphs" textLength="139" x="564.5" y="405.9902">soen6441riskgame.controllers</text></a><!--link soen6441riskgame.controllers.TournamentController to soen6441riskgame.models.Boundary--><path d="M228.8,313.312 C228.8,313.312 228.8,367.8229 228.8,367.8229 " fill="none" id="soen6441riskgame.controllers.TournamentController-soen6441riskgame.models.Boundary" style="stroke: #A80036; stroke-width: 1.0;"/><polygon fill="#A80036" points="228.8,372.8229,232.8,363.8229,228.8,367.8229,224.8,363.8229,228.8,372.8229" style="stroke: #A80036; stroke-width: 1.0;"/><text fill="#000000" font-family="sans-serif" font-size="13" lengthAdjust="spacingAndGlyphs" textLength="80" x="150.7975" y="362.0651">mapBoundary</text><!--link soen6441riskgame.controllers.TournamentController to soen6441riskgame.models.Boundary--><path d="M135.2,313.312 C135.2,313.312 135.2,367.8229 135.2,367.8229 " fill="none" id="soen6441riskgame.controllers.TournamentController-soen6441riskgame.models.Boundary" style="stroke: #A80036; stroke-width: 1.0;"/><polygon fill="#A80036" points="135.2,372.8229,139.2,363.8229,135.2,367.8229,131.2,363.8229,135.2,372.8229" style="stroke: #A80036; stroke-width: 1.0;"/><text fill="#000000" font-family="sans-serif" font-size="13" lengthAdjust="spacingAndGlyphs" textLength="102" x="4.4712" y="362.0651">strategyBoundary</text><!--link soen6441riskgame.controllers.TournamentController to soen6441riskgame.models.Boundary--><path d="M166.4,313.312 C166.4,313.312 166.4,367.8229 166.4,367.8229 " fill="none" id="soen6441riskgame.controllers.TournamentController-soen6441riskgame.models.Boundary" style="stroke: #A80036; stroke-width: 1.0;"/><polygon fill="#A80036" points="166.4,372.8229,170.4,363.8229,166.4,367.8229,162.4,363.8229,166.4,372.8229" style="stroke: #A80036; stroke-width: 1.0;"/><text fill="#000000" font-family="sans-serif" font-size="13" lengthAdjust="spacingAndGlyphs" textLength="146" x="183.2613" y="362.0651">numberOfGameBoundary</text><!--link soen6441riskgame.controllers.TournamentController to soen6441riskgame.models.Boundary--><path d="M197.6,313.312 C197.6,313.312 197.6,367.8229 197.6,367.8229 " fill="none" id="soen6441riskgame.controllers.TournamentController-soen6441riskgame.models.Boundary" style="stroke: #A80036; stroke-width: 1.0;"/><polygon fill="#A80036" points="197.6,372.8229,201.6,363.8229,197.6,367.8229,193.6,363.8229,197.6,372.8229" style="stroke: #A80036; stroke-width: 1.0;"/><text fill="#000000" font-family="sans-serif" font-size="13" lengthAdjust="spacingAndGlyphs" textLength="163" x="-65.8975" y="367.873">maxNumberOfTurnBoundary</text><!--link soen6441riskgame.controllers.TournamentController to soen6441riskgame.models.strategies.Strategy--><path d="M326.75,313.312 C326.75,313.312 326.75,367.8229 326.75,367.8229 " fill="none" id="soen6441riskgame.controllers.TournamentController-soen6441riskgame.models.strategies.Strategy" style="stroke: #A80036; stroke-width: 1.0;"/><polygon fill="#A80036" points="326.75,372.8229,330.75,363.8229,326.75,367.8229,322.75,363.8229,326.75,372.8229" style="stroke: #A80036; stroke-width: 1.0;"/><text fill="#000000" font-family="sans-serif" font-size="13" lengthAdjust="spacingAndGlyphs" textLength="57" x="314.1922" y="362.0651">strategies</text><!--link soen6441riskgame.controllers.TournamentController to soen6441riskgame.controllers.GameController--><path d="M358.029,161 C480.162,161 621,161 621,161 C621,161 621,367.8174 621,367.8174 " fill="none" id="soen6441riskgame.controllers.TournamentController-soen6441riskgame.controllers.GameController" style="stroke: #A80036; stroke-width: 1.0;"/><polygon fill="#A80036" points="621,372.8174,625,363.8174,621,367.8174,617,363.8174,621,372.8174" style="stroke: #A80036; stroke-width: 1.0;"/><text fill="#000000" font-family="sans-serif" font-size="13" lengthAdjust="spacingAndGlyphs" textLength="87" x="521.2219" y="362.058">gameController</text><!--
@startuml

skinparam svgLinkTarget _parent
skinparam linetype ortho
set namespaceSeparator none
class "<b><size:14>TournamentController</b>\n<size:10>soen6441riskgame.controllers" as soen6441riskgame.controllers.TournamentController  [[../../soen6441riskgame/controllers/TournamentController.html{soen6441riskgame.controllers.TournamentController}]] {
{static} +Boundary mapBoundary
{static} +Boundary strategyBoundary
{static} +Boundary numberOfGameBoundary
{static} +Boundary maxNumberOfTurnBoundary
-Strategy strategies
-String maps
-int numberOfGame
-int maxNumberOfTurn
-GameController gameController
+TournamentController()
+void enterTournament(List<String> args)
-Player simulateGamePlay(String map)
-void initializePlayers()
-void parseTournamentParameters(String args)
-ArrayList<Strategy> parsePlayerStrategies(String playerStrategies)
-boolean isMapsValid()
-boolean isStrategiesValid()
-boolean isTournamentValid()
}


class "<b><size:14>Boundary</b>\n<size:10>soen6441riskgame.models" as soen6441riskgame.models.Boundary  [[../../soen6441riskgame/models/Boundary.html{soen6441riskgame.models.Boundary}]] #white {
}

hide soen6441riskgame.models.Boundary fields
hide soen6441riskgame.models.Boundary methods

soen6441riskgame.controllers.TournamentController - ->  "mapBoundary" soen6441riskgame.models.Boundary

soen6441riskgame.controllers.TournamentController - ->  "strategyBoundary" soen6441riskgame.models.Boundary

soen6441riskgame.controllers.TournamentController - ->  "numberOfGameBoundary" soen6441riskgame.models.Boundary

soen6441riskgame.controllers.TournamentController - ->  "maxNumberOfTurnBoundary" soen6441riskgame.models.Boundary

interface "<b><size:14>Strategy</b>\n<size:10>soen6441riskgame.models.strategies" as soen6441riskgame.models.strategies.Strategy  [[../../soen6441riskgame/models/strategies/Strategy.html{soen6441riskgame.models.strategies.Strategy}]] #white {
}

hide soen6441riskgame.models.strategies.Strategy fields
hide soen6441riskgame.models.strategies.Strategy methods

soen6441riskgame.controllers.TournamentController - ->  "strategies" soen6441riskgame.models.strategies.Strategy

class "<b><size:14>GameController</b>\n<size:10>soen6441riskgame.controllers" as soen6441riskgame.controllers.GameController  [[../../soen6441riskgame/controllers/GameController.html{soen6441riskgame.controllers.GameController}]] {
}

hide soen6441riskgame.controllers.GameController fields
hide soen6441riskgame.controllers.GameController methods

soen6441riskgame.controllers.TournamentController - ->  "gameController" soen6441riskgame.controllers.GameController





@enduml

PlantUML version 1.2017.15(Mon Jul 03 12:45:34 EDT 2017)
(GPL source distribution)
Java Runtime: Java(TM) SE Runtime Environment
JVM: Java HotSpot(TM) 64-Bit Server VM
Java Version: 1.8.0_231-b11
Operating System: Windows 10
OS Version: 10.0
Default Encoding: Cp1252
Language: en
Country: US
--></g></svg>