<?xml version="1.0" encoding="UTF-8" standalone="no"?><svg xmlns="http://www.w3.org/2000/svg" xmlns:xlink="http://www.w3.org/1999/xlink" contentScriptType="application/ecmascript" contentStyleType="text/css" height="189px" preserveAspectRatio="none" style="width:244px;height:189px;" version="1.1" viewBox="0 0 244 189" width="244px" zoomAndPan="magnify"><defs><filter height="300%" id="fddvhqfem4j7y" width="300%" x="-1" y="-1"><feGaussianBlur result="blurOut" stdDeviation="2.0"/><feColorMatrix in="blurOut" result="blurOut2" type="matrix" values="0 0 0 0 0 0 0 0 0 0 0 0 0 0 0 0 0 0 .4 0"/><feOffset dx="4.0" dy="4.0" in="blurOut2" result="blurOut3"/><feBlend in="SourceGraphic" in2="blurOut3" mode="normal"/></filter></defs><g><!--class soen6441riskgame.models.serializers.NameOnlySerializable--><a target="_parent" xlink:actuate="onRequest" xlink:href="../../../soen6441riskgame/models/serializers/NameOnlySerializable.html" xlink:show="new" xlink:title="soen6441riskgame.models.serializers.NameOnlySerializable" xlink:type="simple"><rect fill="#FEFECE" filter="url(#fddvhqfem4j7y)" height="70.0234" id="soen6441riskgame.models.serializers.NameOnlySerializable" style="stroke: #A80036; stroke-width: 1.5;" width="205" x="17" y="108"/><ellipse cx="32" cy="128.0938" fill="#ADD1B2" rx="11" ry="11" style="stroke: #A80036; stroke-width: 1.0;"/><path d="M34.7656,123.9688 Q34.9219,123.75 35.1094,123.6406 Q35.2969,123.5313 35.5156,123.5313 Q35.8906,123.5313 36.125,123.7891 Q36.3594,124.0469 36.3594,124.6563 L36.3594,126.1094 Q36.3594,126.7188 36.125,126.9844 Q35.8906,127.25 35.5156,127.25 Q35.1719,127.25 34.9688,127.0469 Q34.7656,126.8594 34.6563,126.3438 Q34.6094,125.9844 34.4219,125.7969 Q34.0938,125.4219 33.4844,125.2031 Q32.875,124.9844 32.25,124.9844 Q31.4844,124.9844 30.8516,125.3125 Q30.2188,125.6406 29.7266,126.3906 Q29.2344,127.1406 29.2344,128.1719 L29.2344,129.2656 Q29.2344,130.5 30.125,131.3203 Q31.0156,132.1406 32.6094,132.1406 Q33.5469,132.1406 34.2031,131.8906 Q34.5938,131.7344 35.0156,131.2969 Q35.2813,131.0313 35.4297,130.9531 Q35.5781,130.875 35.7813,130.875 Q36.1094,130.875 36.3672,131.1328 Q36.625,131.3906 36.625,131.7344 Q36.625,132.0781 36.2813,132.4844 Q35.7813,133.0625 34.9844,133.3906 Q33.9063,133.8438 32.6094,133.8438 Q31.0938,133.8438 29.8906,133.2188 Q28.9063,132.7188 28.2188,131.6484 Q27.5313,130.5781 27.5313,129.2969 L27.5313,128.1406 Q27.5313,126.8125 28.1484,125.6641 Q28.7656,124.5156 29.8594,123.8984 Q30.9531,123.2813 32.1875,123.2813 Q32.9219,123.2813 33.5703,123.4453 Q34.2188,123.6094 34.7656,123.9688 Z "/><text fill="#000000" font-family="sans-serif" font-size="14" font-weight="bold" lengthAdjust="spacingAndGlyphs" textLength="151" x="57" y="127.5332">NameOnlySerializable</text><text fill="#000000" font-family="sans-serif" font-size="10" lengthAdjust="spacingAndGlyphs" textLength="173" x="46" y="140.9902">soen6441riskgame.models.serializers</text><line style="stroke: #A80036; stroke-width: 1.5;" x1="18" x2="221" y1="148.1875" y2="148.1875"/><line style="stroke: #A80036; stroke-width: 1.5;" x1="18" x2="221" y1="156.1875" y2="156.1875"/><ellipse cx="28" cy="168.6055" fill="#84BE84" rx="3" ry="3" style="stroke: #038048; stroke-width: 1.0;"/><text fill="#000000" font-family="sans-serif" font-size="11" lengthAdjust="spacingAndGlyphs" textLength="112" x="37" y="171.6064">NameOnlySerializable()</text></a><!--class soen6441riskgame.models.serializers.ArrayNameOnlyJsonAdapter--><a target="_parent" xlink:actuate="onRequest" xlink:href="../../../soen6441riskgame/models/serializers/ArrayNameOnlyJsonAdapter.html" xlink:show="new" xlink:title="soen6441riskgame.models.serializers.ArrayNameOnlyJsonAdapter" xlink:type="simple"><rect fill="#FEFECE" filter="url(#fddvhqfem4j7y)" height="40.1875" id="soen6441riskgame.models.serializers.ArrayNameOnlyJsonAdapter" style="stroke: #A80036; stroke-width: 1.5;" width="227" x="6" y="8"/><ellipse cx="21" cy="28.0938" fill="#ADD1B2" rx="11" ry="11" style="stroke: #A80036; stroke-width: 1.0;"/><path d="M23.7656,23.9688 Q23.9219,23.75 24.1094,23.6406 Q24.2969,23.5313 24.5156,23.5313 Q24.8906,23.5313 25.125,23.7891 Q25.3594,24.0469 25.3594,24.6563 L25.3594,26.1094 Q25.3594,26.7188 25.125,26.9844 Q24.8906,27.25 24.5156,27.25 Q24.1719,27.25 23.9688,27.0469 Q23.7656,26.8594 23.6563,26.3438 Q23.6094,25.9844 23.4219,25.7969 Q23.0938,25.4219 22.4844,25.2031 Q21.875,24.9844 21.25,24.9844 Q20.4844,24.9844 19.8516,25.3125 Q19.2188,25.6406 18.7266,26.3906 Q18.2344,27.1406 18.2344,28.1719 L18.2344,29.2656 Q18.2344,30.5 19.125,31.3203 Q20.0156,32.1406 21.6094,32.1406 Q22.5469,32.1406 23.2031,31.8906 Q23.5938,31.7344 24.0156,31.2969 Q24.2813,31.0313 24.4297,30.9531 Q24.5781,30.875 24.7813,30.875 Q25.1094,30.875 25.3672,31.1328 Q25.625,31.3906 25.625,31.7344 Q25.625,32.0781 25.2813,32.4844 Q24.7813,33.0625 23.9844,33.3906 Q22.9063,33.8438 21.6094,33.8438 Q20.0938,33.8438 18.8906,33.2188 Q17.9063,32.7188 17.2188,31.6484 Q16.5313,30.5781 16.5313,29.2969 L16.5313,28.1406 Q16.5313,26.8125 17.1484,25.6641 Q17.7656,24.5156 18.8594,23.8984 Q19.9531,23.2813 21.1875,23.2813 Q21.9219,23.2813 22.5703,23.4453 Q23.2188,23.6094 23.7656,23.9688 Z "/><text fill="#000000" font-family="sans-serif" font-size="14" font-weight="bold" lengthAdjust="spacingAndGlyphs" textLength="195" x="35" y="27.5332">ArrayNameOnlyJsonAdapter</text><text fill="#000000" font-family="sans-serif" font-size="10" lengthAdjust="spacingAndGlyphs" textLength="173" x="46" y="40.9902">soen6441riskgame.models.serializers</text></a><!--link soen6441riskgame.models.serializers.ArrayNameOnlyJsonAdapter to soen6441riskgame.models.serializers.NameOnlySerializable--><path d="M119.5,48.031 C119.5,48.031 119.5,102.8713 119.5,102.8713 " fill="none" id="soen6441riskgame.models.serializers.ArrayNameOnlyJsonAdapter-soen6441riskgame.models.serializers.NameOnlySerializable" style="stroke: #A80036; stroke-width: 1.0; stroke-dasharray: 7.0,7.0;"/><polygon fill="#A80036" points="119.5,107.8713,123.5,98.8713,119.5,102.8713,115.5,98.8713,119.5,107.8713" style="stroke: #A80036; stroke-width: 1.0;"/><!--
@startuml

skinparam svgLinkTarget _parent
skinparam linetype ortho
set namespaceSeparator none
class "<b><size:14>NameOnlySerializable</b>\n<size:10>soen6441riskgame.models.serializers" as soen6441riskgame.models.serializers.NameOnlySerializable  [[../../../soen6441riskgame/models/serializers/NameOnlySerializable.html{soen6441riskgame.models.serializers.NameOnlySerializable}]] {
+NameOnlySerializable()
}


class "<b><size:14>ArrayNameOnlyJsonAdapter</b>\n<size:10>soen6441riskgame.models.serializers" as soen6441riskgame.models.serializers.ArrayNameOnlyJsonAdapter  [[../../../soen6441riskgame/models/serializers/ArrayNameOnlyJsonAdapter.html{soen6441riskgame.models.serializers.ArrayNameOnlyJsonAdapter}]] {
}

hide soen6441riskgame.models.serializers.ArrayNameOnlyJsonAdapter fields
hide soen6441riskgame.models.serializers.ArrayNameOnlyJsonAdapter methods

soen6441riskgame.models.serializers.ArrayNameOnlyJsonAdapter ..> soen6441riskgame.models.serializers.NameOnlySerializable


@enduml

PlantUML version 1.2017.15(Mon Jul 03 12:45:34 EDT 2017)
(GPL source distribution)
Java Runtime: Java(TM) SE Runtime Environment
JVM: Java HotSpot(TM) 64-Bit Server VM
Java Version: 1.8.0_231-b11
Operating System: Windows 10
OS Version: 10.0
Default Encoding: Cp1252
Language: en
Country: US
--></g></svg>