<?xml version="1.0" encoding="UTF-8" standalone="no"?><svg xmlns="http://www.w3.org/2000/svg" xmlns:xlink="http://www.w3.org/1999/xlink" contentScriptType="application/ecmascript" contentStyleType="text/css" height="217px" preserveAspectRatio="none" style="width:1103px;height:217px;" version="1.1" viewBox="0 0 1103 217" width="1103px" zoomAndPan="magnify"><defs><filter height="300%" id="f18dejuc0gyyho" width="300%" x="-1" y="-1"><feGaussianBlur result="blurOut" stdDeviation="2.0"/><feColorMatrix in="blurOut" result="blurOut2" type="matrix" values="0 0 0 0 0 0 0 0 0 0 0 0 0 0 0 0 0 0 .4 0"/><feOffset dx="4.0" dy="4.0" in="blurOut2" result="blurOut3"/><feBlend in="SourceGraphic" in2="blurOut3" mode="normal"/></filter></defs><g><!--class soen6441riskgame.models.serializers.NameOnlyJsonAdapter--><a target="_parent" xlink:actuate="onRequest" xlink:href="../../../soen6441riskgame/models/serializers/NameOnlyJsonAdapter.html" xlink:show="new" xlink:title="soen6441riskgame.models.serializers.NameOnlyJsonAdapter" xlink:type="simple"><rect fill="#FEFECE" filter="url(#f18dejuc0gyyho)" height="97.6953" id="soen6441riskgame.models.serializers.NameOnlyJsonAdapter" style="stroke: #A80036; stroke-width: 1.5;" width="288" x="500.5" y="8"/><ellipse cx="553.75" cy="28.0938" fill="#ADD1B2" rx="11" ry="11" style="stroke: #A80036; stroke-width: 1.0;"/><path d="M556.5156,23.9688 Q556.6719,23.75 556.8594,23.6406 Q557.0469,23.5313 557.2656,23.5313 Q557.6406,23.5313 557.875,23.7891 Q558.1094,24.0469 558.1094,24.6563 L558.1094,26.1094 Q558.1094,26.7188 557.875,26.9844 Q557.6406,27.25 557.2656,27.25 Q556.9219,27.25 556.7188,27.0469 Q556.5156,26.8594 556.4063,26.3438 Q556.3594,25.9844 556.1719,25.7969 Q555.8438,25.4219 555.2344,25.2031 Q554.625,24.9844 554,24.9844 Q553.2344,24.9844 552.6016,25.3125 Q551.9688,25.6406 551.4766,26.3906 Q550.9844,27.1406 550.9844,28.1719 L550.9844,29.2656 Q550.9844,30.5 551.875,31.3203 Q552.7656,32.1406 554.3594,32.1406 Q555.2969,32.1406 555.9531,31.8906 Q556.3438,31.7344 556.7656,31.2969 Q557.0313,31.0313 557.1797,30.9531 Q557.3281,30.875 557.5313,30.875 Q557.8594,30.875 558.1172,31.1328 Q558.375,31.3906 558.375,31.7344 Q558.375,32.0781 558.0313,32.4844 Q557.5313,33.0625 556.7344,33.3906 Q555.6563,33.8438 554.3594,33.8438 Q552.8438,33.8438 551.6406,33.2188 Q550.6563,32.7188 549.9688,31.6484 Q549.2813,30.5781 549.2813,29.2969 L549.2813,28.1406 Q549.2813,26.8125 549.8984,25.6641 Q550.5156,24.5156 551.6094,23.8984 Q552.7031,23.2813 553.9375,23.2813 Q554.6719,23.2813 555.3203,23.4453 Q555.9688,23.6094 556.5156,23.9688 Z "/><text fill="#000000" font-family="sans-serif" font-size="14" font-weight="bold" lengthAdjust="spacingAndGlyphs" textLength="159" x="581.25" y="27.5332">NameOnlyJsonAdapter</text><text fill="#000000" font-family="sans-serif" font-size="10" lengthAdjust="spacingAndGlyphs" textLength="173" x="574.25" y="40.9902">soen6441riskgame.models.serializers</text><line style="stroke: #A80036; stroke-width: 1.5;" x1="501.5" x2="787.5" y1="48.1875" y2="48.1875"/><line style="stroke: #A80036; stroke-width: 1.5;" x1="501.5" x2="787.5" y1="56.1875" y2="56.1875"/><ellipse cx="511.5" cy="68.6055" fill="#84BE84" rx="3" ry="3" style="stroke: #038048; stroke-width: 1.0;"/><text fill="#000000" font-family="sans-serif" font-size="11" lengthAdjust="spacingAndGlyphs" textLength="119" x="520.5" y="71.6064">NameOnlyJsonAdapter()</text><ellipse cx="511.5" cy="82.4414" fill="#84BE84" rx="3" ry="3" style="stroke: #038048; stroke-width: 1.0;"/><text fill="#000000" font-family="sans-serif" font-size="11" lengthAdjust="spacingAndGlyphs" textLength="262" x="520.5" y="85.4424">void write(JsonWriter out,NameOnlySerializable value)</text><ellipse cx="511.5" cy="96.2773" fill="#84BE84" rx="3" ry="3" style="stroke: #038048; stroke-width: 1.0;"/><text fill="#000000" font-family="sans-serif" font-size="11" lengthAdjust="spacingAndGlyphs" textLength="147" x="520.5" y="99.2783">Continent read(JsonReader in)</text></a><!--class com.google.gson.TypeAdapterNameOnlySerializable--><rect fill="#D3D3D3" filter="url(#f18dejuc0gyyho)" height="40.1875" id="com.google.gson.TypeAdapterNameOnlySerializable" style="stroke: #A80036; stroke-width: 1.5;" width="287" x="6" y="166"/><rect fill="#D3D3D3" height="40.1875" style="stroke: #A80036; stroke-width: 1.5;" width="287" x="6" y="166"/><ellipse cx="21" cy="186.0938" fill="#ADD1B2" rx="11" ry="11" style="stroke: #A80036; stroke-width: 1.0;"/><path d="M23.7656,181.9688 Q23.9219,181.75 24.1094,181.6406 Q24.2969,181.5313 24.5156,181.5313 Q24.8906,181.5313 25.125,181.7891 Q25.3594,182.0469 25.3594,182.6563 L25.3594,184.1094 Q25.3594,184.7188 25.125,184.9844 Q24.8906,185.25 24.5156,185.25 Q24.1719,185.25 23.9688,185.0469 Q23.7656,184.8594 23.6563,184.3438 Q23.6094,183.9844 23.4219,183.7969 Q23.0938,183.4219 22.4844,183.2031 Q21.875,182.9844 21.25,182.9844 Q20.4844,182.9844 19.8516,183.3125 Q19.2188,183.6406 18.7266,184.3906 Q18.2344,185.1406 18.2344,186.1719 L18.2344,187.2656 Q18.2344,188.5 19.125,189.3203 Q20.0156,190.1406 21.6094,190.1406 Q22.5469,190.1406 23.2031,189.8906 Q23.5938,189.7344 24.0156,189.2969 Q24.2813,189.0313 24.4297,188.9531 Q24.5781,188.875 24.7813,188.875 Q25.1094,188.875 25.3672,189.1328 Q25.625,189.3906 25.625,189.7344 Q25.625,190.0781 25.2813,190.4844 Q24.7813,191.0625 23.9844,191.3906 Q22.9063,191.8438 21.6094,191.8438 Q20.0938,191.8438 18.8906,191.2188 Q17.9063,190.7188 17.2188,189.6484 Q16.5313,188.5781 16.5313,187.2969 L16.5313,186.1406 Q16.5313,184.8125 17.1484,183.6641 Q17.7656,182.5156 18.8594,181.8984 Q19.9531,181.2813 21.1875,181.2813 Q21.9219,181.2813 22.5703,181.4453 Q23.2188,181.6094 23.7656,181.9688 Z "/><text fill="#000000" font-family="sans-serif" font-size="14" font-weight="bold" lengthAdjust="spacingAndGlyphs" textLength="255" x="35" y="185.5332">TypeAdapter&lt;NameOnlySerializable&gt;</text><text fill="#000000" font-family="sans-serif" font-size="10" lengthAdjust="spacingAndGlyphs" textLength="82" x="121.5" y="198.9902">com.google.gson</text><!--class soen6441riskgame.models.serializers.NameOnlySerializable--><a target="_parent" xlink:actuate="onRequest" xlink:href="../../../soen6441riskgame/models/serializers/NameOnlySerializable.html" xlink:show="new" xlink:title="soen6441riskgame.models.serializers.NameOnlySerializable" xlink:type="simple"><rect fill="#FEFECE" filter="url(#f18dejuc0gyyho)" height="40.1875" id="soen6441riskgame.models.serializers.NameOnlySerializable" style="stroke: #A80036; stroke-width: 1.5;" width="207" x="328" y="166"/><ellipse cx="343" cy="186.0938" fill="#B4A7E5" rx="11" ry="11" style="stroke: #A80036; stroke-width: 1.0;"/><path d="M343.9531,182.7344 L343.9531,189.3906 L345.6719,189.3906 Q346.2813,189.3906 346.5469,189.625 Q346.8125,189.8594 346.8125,190.25 Q346.8125,190.625 346.5469,190.8594 Q346.2813,191.0938 345.6719,191.0938 L340.5313,191.0938 Q339.9219,191.0938 339.6563,190.8594 Q339.3906,190.625 339.3906,190.2344 Q339.3906,189.8594 339.6563,189.625 Q339.9219,189.3906 340.5313,189.3906 L342.25,189.3906 L342.25,182.7344 L340.5313,182.7344 Q339.9219,182.7344 339.6563,182.5 Q339.3906,182.2656 339.3906,181.875 Q339.3906,181.5 339.6563,181.2656 Q339.9219,181.0313 340.5313,181.0313 L345.6719,181.0313 Q346.2813,181.0313 346.5469,181.2656 Q346.8125,181.5 346.8125,181.875 Q346.8125,182.2656 346.5469,182.5 Q346.2813,182.7344 345.6719,182.7344 L343.9531,182.7344 Z "/><text fill="#000000" font-family="sans-serif" font-size="14" font-style="italic" font-weight="bold" lengthAdjust="spacingAndGlyphs" textLength="146" x="371.5" y="185.5332">NameOnlySerializable</text><text fill="#000000" font-family="sans-serif" font-size="10" font-style="italic" lengthAdjust="spacingAndGlyphs" textLength="175" x="357" y="198.9902">soen6441riskgame.models.serializers</text></a><!--class com.google.gson.stream.JsonWriter--><rect fill="#D3D3D3" filter="url(#f18dejuc0gyyho)" height="40.1875" id="com.google.gson.stream.JsonWriter" style="stroke: #A80036; stroke-width: 1.5;" width="148" x="570.5" y="166"/><rect fill="#D3D3D3" height="40.1875" style="stroke: #A80036; stroke-width: 1.5;" width="148" x="570.5" y="166"/><ellipse cx="585.5" cy="186.0938" fill="#ADD1B2" rx="11" ry="11" style="stroke: #A80036; stroke-width: 1.0;"/><path d="M588.2656,181.9688 Q588.4219,181.75 588.6094,181.6406 Q588.7969,181.5313 589.0156,181.5313 Q589.3906,181.5313 589.625,181.7891 Q589.8594,182.0469 589.8594,182.6563 L589.8594,184.1094 Q589.8594,184.7188 589.625,184.9844 Q589.3906,185.25 589.0156,185.25 Q588.6719,185.25 588.4688,185.0469 Q588.2656,184.8594 588.1563,184.3438 Q588.1094,183.9844 587.9219,183.7969 Q587.5938,183.4219 586.9844,183.2031 Q586.375,182.9844 585.75,182.9844 Q584.9844,182.9844 584.3516,183.3125 Q583.7188,183.6406 583.2266,184.3906 Q582.7344,185.1406 582.7344,186.1719 L582.7344,187.2656 Q582.7344,188.5 583.625,189.3203 Q584.5156,190.1406 586.1094,190.1406 Q587.0469,190.1406 587.7031,189.8906 Q588.0938,189.7344 588.5156,189.2969 Q588.7813,189.0313 588.9297,188.9531 Q589.0781,188.875 589.2813,188.875 Q589.6094,188.875 589.8672,189.1328 Q590.125,189.3906 590.125,189.7344 Q590.125,190.0781 589.7813,190.4844 Q589.2813,191.0625 588.4844,191.3906 Q587.4063,191.8438 586.1094,191.8438 Q584.5938,191.8438 583.3906,191.2188 Q582.4063,190.7188 581.7188,189.6484 Q581.0313,188.5781 581.0313,187.2969 L581.0313,186.1406 Q581.0313,184.8125 581.6484,183.6641 Q582.2656,182.5156 583.3594,181.8984 Q584.4531,181.2813 585.6875,181.2813 Q586.4219,181.2813 587.0703,181.4453 Q587.7188,181.6094 588.2656,181.9688 Z "/><text fill="#000000" font-family="sans-serif" font-size="14" font-weight="bold" lengthAdjust="spacingAndGlyphs" textLength="77" x="619" y="185.5332">JsonWriter</text><text fill="#000000" font-family="sans-serif" font-size="10" lengthAdjust="spacingAndGlyphs" textLength="116" x="599.5" y="198.9902">com.google.gson.stream</text><!--class com.google.gson.stream.JsonReader--><rect fill="#D3D3D3" filter="url(#f18dejuc0gyyho)" height="40.1875" id="com.google.gson.stream.JsonReader" style="stroke: #A80036; stroke-width: 1.5;" width="148" x="753.5" y="166"/><rect fill="#D3D3D3" height="40.1875" style="stroke: #A80036; stroke-width: 1.5;" width="148" x="753.5" y="166"/><ellipse cx="768.5" cy="186.0938" fill="#ADD1B2" rx="11" ry="11" style="stroke: #A80036; stroke-width: 1.0;"/><path d="M771.2656,181.9688 Q771.4219,181.75 771.6094,181.6406 Q771.7969,181.5313 772.0156,181.5313 Q772.3906,181.5313 772.625,181.7891 Q772.8594,182.0469 772.8594,182.6563 L772.8594,184.1094 Q772.8594,184.7188 772.625,184.9844 Q772.3906,185.25 772.0156,185.25 Q771.6719,185.25 771.4688,185.0469 Q771.2656,184.8594 771.1563,184.3438 Q771.1094,183.9844 770.9219,183.7969 Q770.5938,183.4219 769.9844,183.2031 Q769.375,182.9844 768.75,182.9844 Q767.9844,182.9844 767.3516,183.3125 Q766.7188,183.6406 766.2266,184.3906 Q765.7344,185.1406 765.7344,186.1719 L765.7344,187.2656 Q765.7344,188.5 766.625,189.3203 Q767.5156,190.1406 769.1094,190.1406 Q770.0469,190.1406 770.7031,189.8906 Q771.0938,189.7344 771.5156,189.2969 Q771.7813,189.0313 771.9297,188.9531 Q772.0781,188.875 772.2813,188.875 Q772.6094,188.875 772.8672,189.1328 Q773.125,189.3906 773.125,189.7344 Q773.125,190.0781 772.7813,190.4844 Q772.2813,191.0625 771.4844,191.3906 Q770.4063,191.8438 769.1094,191.8438 Q767.5938,191.8438 766.3906,191.2188 Q765.4063,190.7188 764.7188,189.6484 Q764.0313,188.5781 764.0313,187.2969 L764.0313,186.1406 Q764.0313,184.8125 764.6484,183.6641 Q765.2656,182.5156 766.3594,181.8984 Q767.4531,181.2813 768.6875,181.2813 Q769.4219,181.2813 770.0703,181.4453 Q770.7188,181.6094 771.2656,181.9688 Z "/><text fill="#000000" font-family="sans-serif" font-size="14" font-weight="bold" lengthAdjust="spacingAndGlyphs" textLength="85" x="798" y="185.5332">JsonReader</text><text fill="#000000" font-family="sans-serif" font-size="10" lengthAdjust="spacingAndGlyphs" textLength="116" x="782.5" y="198.9902">com.google.gson.stream</text><!--class soen6441riskgame.models.Continent--><a target="_parent" xlink:actuate="onRequest" xlink:href="../../../soen6441riskgame/models/Continent.html" xlink:show="new" xlink:title="soen6441riskgame.models.Continent" xlink:type="simple"><rect fill="#FFFFFF" filter="url(#f18dejuc0gyyho)" height="40.1875" id="soen6441riskgame.models.Continent" style="stroke: #A80036; stroke-width: 1.5;" width="156" x="936.5" y="166"/><rect fill="#FFFFFF" height="40.1875" style="stroke: #A80036; stroke-width: 1.5;" width="156" x="936.5" y="166"/><ellipse cx="951.5" cy="186.0938" fill="#ADD1B2" rx="11" ry="11" style="stroke: #A80036; stroke-width: 1.0;"/><path d="M954.2656,181.9688 Q954.4219,181.75 954.6094,181.6406 Q954.7969,181.5313 955.0156,181.5313 Q955.3906,181.5313 955.625,181.7891 Q955.8594,182.0469 955.8594,182.6563 L955.8594,184.1094 Q955.8594,184.7188 955.625,184.9844 Q955.3906,185.25 955.0156,185.25 Q954.6719,185.25 954.4688,185.0469 Q954.2656,184.8594 954.1563,184.3438 Q954.1094,183.9844 953.9219,183.7969 Q953.5938,183.4219 952.9844,183.2031 Q952.375,182.9844 951.75,182.9844 Q950.9844,182.9844 950.3516,183.3125 Q949.7188,183.6406 949.2266,184.3906 Q948.7344,185.1406 948.7344,186.1719 L948.7344,187.2656 Q948.7344,188.5 949.625,189.3203 Q950.5156,190.1406 952.1094,190.1406 Q953.0469,190.1406 953.7031,189.8906 Q954.0938,189.7344 954.5156,189.2969 Q954.7813,189.0313 954.9297,188.9531 Q955.0781,188.875 955.2813,188.875 Q955.6094,188.875 955.8672,189.1328 Q956.125,189.3906 956.125,189.7344 Q956.125,190.0781 955.7813,190.4844 Q955.2813,191.0625 954.4844,191.3906 Q953.4063,191.8438 952.1094,191.8438 Q950.5938,191.8438 949.3906,191.2188 Q948.4063,190.7188 947.7188,189.6484 Q947.0313,188.5781 947.0313,187.2969 L947.0313,186.1406 Q947.0313,184.8125 947.6484,183.6641 Q948.2656,182.5156 949.3594,181.8984 Q950.4531,181.2813 951.6875,181.2813 Q952.4219,181.2813 953.0703,181.4453 Q953.7188,181.6094 954.2656,181.9688 Z "/><text fill="#000000" font-family="sans-serif" font-size="14" font-weight="bold" lengthAdjust="spacingAndGlyphs" textLength="69" x="993" y="185.5332">Continent</text><text fill="#000000" font-family="sans-serif" font-size="10" lengthAdjust="spacingAndGlyphs" textLength="124" x="965.5" y="198.9902">soen6441riskgame.models</text></a><!--link soen6441riskgame.models.serializers.NameOnlyJsonAdapter to com.google.gson.TypeAdapterNameOnlySerializable--><path d="M500.328,57 C354.2,57 149.5,57 149.5,57 C149.5,57 149.5,145.8437 149.5,145.8437 " fill="none" id="soen6441riskgame.models.serializers.NameOnlyJsonAdapter-com.google.gson.TypeAdapterNameOnlySerializable" style="stroke: #A80036; stroke-width: 1.0;"/><polygon fill="none" points="156.5,145.8438,149.5,165.8437,142.5,145.8437,156.5,145.8438" style="stroke: #A80036; stroke-width: 1.0;"/><!--link soen6441riskgame.models.serializers.NameOnlyJsonAdapter to soen6441riskgame.models.serializers.NameOnlySerializable--><path d="M517.75,106.1374 C517.75,106.1374 517.75,160.9521 517.75,160.9521 " fill="none" id="soen6441riskgame.models.serializers.NameOnlyJsonAdapter-soen6441riskgame.models.serializers.NameOnlySerializable" style="stroke: #A80036; stroke-width: 1.0; stroke-dasharray: 7.0,7.0;"/><polygon fill="#A80036" points="517.75,165.9521,521.75,156.9521,517.75,160.9521,513.75,156.9521,517.75,165.9521" style="stroke: #A80036; stroke-width: 1.0;"/><!--link soen6441riskgame.models.serializers.NameOnlyJsonAdapter to com.google.gson.stream.JsonWriter--><path d="M644.5,106.1374 C644.5,106.1374 644.5,160.9521 644.5,160.9521 " fill="none" id="soen6441riskgame.models.serializers.NameOnlyJsonAdapter-com.google.gson.stream.JsonWriter" style="stroke: #A80036; stroke-width: 1.0; stroke-dasharray: 7.0,7.0;"/><polygon fill="#A80036" points="644.5,165.9521,648.5,156.9521,644.5,160.9521,640.5,156.9521,644.5,165.9521" style="stroke: #A80036; stroke-width: 1.0;"/><!--link soen6441riskgame.models.serializers.NameOnlyJsonAdapter to com.google.gson.stream.JsonReader--><path d="M771,106.1374 C771,106.1374 771,160.9521 771,160.9521 " fill="none" id="soen6441riskgame.models.serializers.NameOnlyJsonAdapter-com.google.gson.stream.JsonReader" style="stroke: #A80036; stroke-width: 1.0; stroke-dasharray: 7.0,7.0;"/><polygon fill="#A80036" points="771,165.9521,775,156.9521,771,160.9521,767,156.9521,771,165.9521" style="stroke: #A80036; stroke-width: 1.0;"/><!--link soen6441riskgame.models.serializers.NameOnlyJsonAdapter to soen6441riskgame.models.Continent--><path d="M788.611,57 C892.501,57 1014.5,57 1014.5,57 C1014.5,57 1014.5,160.8437 1014.5,160.8437 " fill="none" id="soen6441riskgame.models.serializers.NameOnlyJsonAdapter-soen6441riskgame.models.Continent" style="stroke: #A80036; stroke-width: 1.0; stroke-dasharray: 7.0,7.0;"/><polygon fill="#A80036" points="1014.5,165.8437,1018.5,156.8437,1014.5,160.8437,1010.5,156.8437,1014.5,165.8437" style="stroke: #A80036; stroke-width: 1.0;"/><!--
@startuml

skinparam svgLinkTarget _parent
skinparam linetype ortho
set namespaceSeparator none
class "<b><size:14>NameOnlyJsonAdapter</b>\n<size:10>soen6441riskgame.models.serializers" as soen6441riskgame.models.serializers.NameOnlyJsonAdapter  [[../../../soen6441riskgame/models/serializers/NameOnlyJsonAdapter.html{soen6441riskgame.models.serializers.NameOnlyJsonAdapter}]] {
+NameOnlyJsonAdapter()
+void write(JsonWriter out,NameOnlySerializable value)
+Continent read(JsonReader in)
}


class "<b><size:14>TypeAdapter<NameOnlySerializable></b>\n<size:10>com.google.gson" as com.google.gson.TypeAdapterNameOnlySerializable  #lightgrey {
}

hide com.google.gson.TypeAdapterNameOnlySerializable fields
hide com.google.gson.TypeAdapterNameOnlySerializable methods

soen6441riskgame.models.serializers.NameOnlyJsonAdapter - -|> com.google.gson.TypeAdapterNameOnlySerializable

interface "<b><size:14>NameOnlySerializable</b>\n<size:10>soen6441riskgame.models.serializers" as soen6441riskgame.models.serializers.NameOnlySerializable  [[../../../soen6441riskgame/models/serializers/NameOnlySerializable.html{soen6441riskgame.models.serializers.NameOnlySerializable}]] {
}

hide soen6441riskgame.models.serializers.NameOnlySerializable fields
hide soen6441riskgame.models.serializers.NameOnlySerializable methods

soen6441riskgame.models.serializers.NameOnlyJsonAdapter ..> soen6441riskgame.models.serializers.NameOnlySerializable

class "<b><size:14>JsonWriter</b>\n<size:10>com.google.gson.stream" as com.google.gson.stream.JsonWriter  #lightgrey {
}

hide com.google.gson.stream.JsonWriter fields
hide com.google.gson.stream.JsonWriter methods

soen6441riskgame.models.serializers.NameOnlyJsonAdapter ..> com.google.gson.stream.JsonWriter

class "<b><size:14>JsonReader</b>\n<size:10>com.google.gson.stream" as com.google.gson.stream.JsonReader  #lightgrey {
}

hide com.google.gson.stream.JsonReader fields
hide com.google.gson.stream.JsonReader methods

soen6441riskgame.models.serializers.NameOnlyJsonAdapter ..> com.google.gson.stream.JsonReader

class "<b><size:14>Continent</b>\n<size:10>soen6441riskgame.models" as soen6441riskgame.models.Continent  [[../../../soen6441riskgame/models/Continent.html{soen6441riskgame.models.Continent}]] #white {
}

hide soen6441riskgame.models.Continent fields
hide soen6441riskgame.models.Continent methods

soen6441riskgame.models.serializers.NameOnlyJsonAdapter ..> soen6441riskgame.models.Continent


@enduml

PlantUML version 1.2017.15(Mon Jul 03 12:45:34 EDT 2017)
(GPL source distribution)
Java Runtime: Java(TM) SE Runtime Environment
JVM: Java HotSpot(TM) 64-Bit Server VM
Java Version: 1.8.0_231-b11
Operating System: Windows 10
OS Version: 10.0
Default Encoding: Cp1252
Language: en
Country: US
--></g></svg>