<?xml version="1.0" encoding="UTF-8" standalone="no"?><svg xmlns="http://www.w3.org/2000/svg" xmlns:xlink="http://www.w3.org/1999/xlink" contentScriptType="application/ecmascript" contentStyleType="text/css" height="202px" preserveAspectRatio="none" style="width:795px;height:202px;" version="1.1" viewBox="0 0 795 202" width="795px" zoomAndPan="magnify"><defs><filter height="300%" id="f1bypk6m10dz03" width="300%" x="-1" y="-1"><feGaussianBlur result="blurOut" stdDeviation="2.0"/><feColorMatrix in="blurOut" result="blurOut2" type="matrix" values="0 0 0 0 0 0 0 0 0 0 0 0 0 0 0 0 0 0 .4 0"/><feOffset dx="4.0" dy="4.0" in="blurOut2" result="blurOut3"/><feBlend in="SourceGraphic" in2="blurOut3" mode="normal"/></filter></defs><g><!--class soen6441riskgame.models.serializers.NameOnlySerializable--><a target="_parent" xlink:actuate="onRequest" xlink:href="../../../soen6441riskgame/models/serializers/NameOnlySerializable.html" xlink:show="new" xlink:title="soen6441riskgame.models.serializers.NameOnlySerializable" xlink:type="simple"><rect fill="#FEFECE" filter="url(#f1bypk6m10dz03)" height="83.8594" id="soen6441riskgame.models.serializers.NameOnlySerializable" style="stroke: #A80036; stroke-width: 1.5;" width="207" x="266.5" y="108"/><ellipse cx="281.5" cy="128.0938" fill="#B4A7E5" rx="11" ry="11" style="stroke: #A80036; stroke-width: 1.0;"/><path d="M282.4531,124.7344 L282.4531,131.3906 L284.1719,131.3906 Q284.7813,131.3906 285.0469,131.625 Q285.3125,131.8594 285.3125,132.25 Q285.3125,132.625 285.0469,132.8594 Q284.7813,133.0938 284.1719,133.0938 L279.0313,133.0938 Q278.4219,133.0938 278.1563,132.8594 Q277.8906,132.625 277.8906,132.2344 Q277.8906,131.8594 278.1563,131.625 Q278.4219,131.3906 279.0313,131.3906 L280.75,131.3906 L280.75,124.7344 L279.0313,124.7344 Q278.4219,124.7344 278.1563,124.5 Q277.8906,124.2656 277.8906,123.875 Q277.8906,123.5 278.1563,123.2656 Q278.4219,123.0313 279.0313,123.0313 L284.1719,123.0313 Q284.7813,123.0313 285.0469,123.2656 Q285.3125,123.5 285.3125,123.875 Q285.3125,124.2656 285.0469,124.5 Q284.7813,124.7344 284.1719,124.7344 L282.4531,124.7344 Z "/><text fill="#000000" font-family="sans-serif" font-size="14" font-style="italic" font-weight="bold" lengthAdjust="spacingAndGlyphs" textLength="146" x="310" y="127.5332">NameOnlySerializable</text><text fill="#000000" font-family="sans-serif" font-size="10" font-style="italic" lengthAdjust="spacingAndGlyphs" textLength="175" x="295.5" y="140.9902">soen6441riskgame.models.serializers</text><line style="stroke: #A80036; stroke-width: 1.5;" x1="267.5" x2="472.5" y1="148.1875" y2="148.1875"/><line style="stroke: #A80036; stroke-width: 1.5;" x1="267.5" x2="472.5" y1="156.1875" y2="156.1875"/><ellipse cx="277.5" cy="168.6055" fill="#84BE84" rx="3" ry="3" style="stroke: #038048; stroke-width: 1.0;"/><text fill="#000000" font-family="sans-serif" font-size="11" font-style="italic" lengthAdjust="spacingAndGlyphs" textLength="125" x="286.5" y="171.6064">String getPropertyName()</text><ellipse cx="277.5" cy="182.4414" fill="#84BE84" rx="3" ry="3" style="stroke: #038048; stroke-width: 1.0;"/><text fill="#000000" font-family="sans-serif" font-size="11" font-style="italic" lengthAdjust="spacingAndGlyphs" textLength="124" x="286.5" y="185.4424">String getPropertyValue()</text></a><!--class soen6441riskgame.models.Continent--><a target="_parent" xlink:actuate="onRequest" xlink:href="../../../soen6441riskgame/models/Continent.html" xlink:show="new" xlink:title="soen6441riskgame.models.Continent" xlink:type="simple"><rect fill="#FFFFFF" filter="url(#f1bypk6m10dz03)" height="40.1875" id="soen6441riskgame.models.Continent" style="stroke: #A80036; stroke-width: 1.5;" width="156" x="6" y="8"/><rect fill="#FFFFFF" height="40.1875" style="stroke: #A80036; stroke-width: 1.5;" width="156" x="6" y="8"/><ellipse cx="21" cy="28.0938" fill="#ADD1B2" rx="11" ry="11" style="stroke: #A80036; stroke-width: 1.0;"/><path d="M23.7656,23.9688 Q23.9219,23.75 24.1094,23.6406 Q24.2969,23.5313 24.5156,23.5313 Q24.8906,23.5313 25.125,23.7891 Q25.3594,24.0469 25.3594,24.6563 L25.3594,26.1094 Q25.3594,26.7188 25.125,26.9844 Q24.8906,27.25 24.5156,27.25 Q24.1719,27.25 23.9688,27.0469 Q23.7656,26.8594 23.6563,26.3438 Q23.6094,25.9844 23.4219,25.7969 Q23.0938,25.4219 22.4844,25.2031 Q21.875,24.9844 21.25,24.9844 Q20.4844,24.9844 19.8516,25.3125 Q19.2188,25.6406 18.7266,26.3906 Q18.2344,27.1406 18.2344,28.1719 L18.2344,29.2656 Q18.2344,30.5 19.125,31.3203 Q20.0156,32.1406 21.6094,32.1406 Q22.5469,32.1406 23.2031,31.8906 Q23.5938,31.7344 24.0156,31.2969 Q24.2813,31.0313 24.4297,30.9531 Q24.5781,30.875 24.7813,30.875 Q25.1094,30.875 25.3672,31.1328 Q25.625,31.3906 25.625,31.7344 Q25.625,32.0781 25.2813,32.4844 Q24.7813,33.0625 23.9844,33.3906 Q22.9063,33.8438 21.6094,33.8438 Q20.0938,33.8438 18.8906,33.2188 Q17.9063,32.7188 17.2188,31.6484 Q16.5313,30.5781 16.5313,29.2969 L16.5313,28.1406 Q16.5313,26.8125 17.1484,25.6641 Q17.7656,24.5156 18.8594,23.8984 Q19.9531,23.2813 21.1875,23.2813 Q21.9219,23.2813 22.5703,23.4453 Q23.2188,23.6094 23.7656,23.9688 Z "/><text fill="#000000" font-family="sans-serif" font-size="14" font-weight="bold" lengthAdjust="spacingAndGlyphs" textLength="69" x="62.5" y="27.5332">Continent</text><text fill="#000000" font-family="sans-serif" font-size="10" lengthAdjust="spacingAndGlyphs" textLength="124" x="35" y="40.9902">soen6441riskgame.models</text></a><!--class soen6441riskgame.models.Country--><a target="_parent" xlink:actuate="onRequest" xlink:href="../../../soen6441riskgame/models/Country.html" xlink:show="new" xlink:title="soen6441riskgame.models.Country" xlink:type="simple"><rect fill="#FFFFFF" filter="url(#f1bypk6m10dz03)" height="40.1875" id="soen6441riskgame.models.Country" style="stroke: #A80036; stroke-width: 1.5;" width="156" x="197" y="8"/><rect fill="#FFFFFF" height="40.1875" style="stroke: #A80036; stroke-width: 1.5;" width="156" x="197" y="8"/><ellipse cx="212" cy="28.0938" fill="#ADD1B2" rx="11" ry="11" style="stroke: #A80036; stroke-width: 1.0;"/><path d="M214.7656,23.9688 Q214.9219,23.75 215.1094,23.6406 Q215.2969,23.5313 215.5156,23.5313 Q215.8906,23.5313 216.125,23.7891 Q216.3594,24.0469 216.3594,24.6563 L216.3594,26.1094 Q216.3594,26.7188 216.125,26.9844 Q215.8906,27.25 215.5156,27.25 Q215.1719,27.25 214.9688,27.0469 Q214.7656,26.8594 214.6563,26.3438 Q214.6094,25.9844 214.4219,25.7969 Q214.0938,25.4219 213.4844,25.2031 Q212.875,24.9844 212.25,24.9844 Q211.4844,24.9844 210.8516,25.3125 Q210.2188,25.6406 209.7266,26.3906 Q209.2344,27.1406 209.2344,28.1719 L209.2344,29.2656 Q209.2344,30.5 210.125,31.3203 Q211.0156,32.1406 212.6094,32.1406 Q213.5469,32.1406 214.2031,31.8906 Q214.5938,31.7344 215.0156,31.2969 Q215.2813,31.0313 215.4297,30.9531 Q215.5781,30.875 215.7813,30.875 Q216.1094,30.875 216.3672,31.1328 Q216.625,31.3906 216.625,31.7344 Q216.625,32.0781 216.2813,32.4844 Q215.7813,33.0625 214.9844,33.3906 Q213.9063,33.8438 212.6094,33.8438 Q211.0938,33.8438 209.8906,33.2188 Q208.9063,32.7188 208.2188,31.6484 Q207.5313,30.5781 207.5313,29.2969 L207.5313,28.1406 Q207.5313,26.8125 208.1484,25.6641 Q208.7656,24.5156 209.8594,23.8984 Q210.9531,23.2813 212.1875,23.2813 Q212.9219,23.2813 213.5703,23.4453 Q214.2188,23.6094 214.7656,23.9688 Z "/><text fill="#000000" font-family="sans-serif" font-size="14" font-weight="bold" lengthAdjust="spacingAndGlyphs" textLength="55" x="260.5" y="27.5332">Country</text><text fill="#000000" font-family="sans-serif" font-size="10" lengthAdjust="spacingAndGlyphs" textLength="124" x="226" y="40.9902">soen6441riskgame.models</text></a><!--class soen6441riskgame.models.Player--><a target="_parent" xlink:actuate="onRequest" xlink:href="../../../soen6441riskgame/models/Player.html" xlink:show="new" xlink:title="soen6441riskgame.models.Player" xlink:type="simple"><rect fill="#FFFFFF" filter="url(#f1bypk6m10dz03)" height="40.1875" id="soen6441riskgame.models.Player" style="stroke: #A80036; stroke-width: 1.5;" width="156" x="388" y="8"/><rect fill="#FFFFFF" height="40.1875" style="stroke: #A80036; stroke-width: 1.5;" width="156" x="388" y="8"/><ellipse cx="403" cy="28.0938" fill="#ADD1B2" rx="11" ry="11" style="stroke: #A80036; stroke-width: 1.0;"/><path d="M405.7656,23.9688 Q405.9219,23.75 406.1094,23.6406 Q406.2969,23.5313 406.5156,23.5313 Q406.8906,23.5313 407.125,23.7891 Q407.3594,24.0469 407.3594,24.6563 L407.3594,26.1094 Q407.3594,26.7188 407.125,26.9844 Q406.8906,27.25 406.5156,27.25 Q406.1719,27.25 405.9688,27.0469 Q405.7656,26.8594 405.6563,26.3438 Q405.6094,25.9844 405.4219,25.7969 Q405.0938,25.4219 404.4844,25.2031 Q403.875,24.9844 403.25,24.9844 Q402.4844,24.9844 401.8516,25.3125 Q401.2188,25.6406 400.7266,26.3906 Q400.2344,27.1406 400.2344,28.1719 L400.2344,29.2656 Q400.2344,30.5 401.125,31.3203 Q402.0156,32.1406 403.6094,32.1406 Q404.5469,32.1406 405.2031,31.8906 Q405.5938,31.7344 406.0156,31.2969 Q406.2813,31.0313 406.4297,30.9531 Q406.5781,30.875 406.7813,30.875 Q407.1094,30.875 407.3672,31.1328 Q407.625,31.3906 407.625,31.7344 Q407.625,32.0781 407.2813,32.4844 Q406.7813,33.0625 405.9844,33.3906 Q404.9063,33.8438 403.6094,33.8438 Q402.0938,33.8438 400.8906,33.2188 Q399.9063,32.7188 399.2188,31.6484 Q398.5313,30.5781 398.5313,29.2969 L398.5313,28.1406 Q398.5313,26.8125 399.1484,25.6641 Q399.7656,24.5156 400.8594,23.8984 Q401.9531,23.2813 403.1875,23.2813 Q403.9219,23.2813 404.5703,23.4453 Q405.2188,23.6094 405.7656,23.9688 Z "/><text fill="#000000" font-family="sans-serif" font-size="14" font-weight="bold" lengthAdjust="spacingAndGlyphs" textLength="43" x="457.5" y="27.5332">Player</text><text fill="#000000" font-family="sans-serif" font-size="10" lengthAdjust="spacingAndGlyphs" textLength="124" x="417" y="40.9902">soen6441riskgame.models</text></a><!--class soen6441riskgame.models.serializers.NameOnlyJsonAdapter--><a target="_parent" xlink:actuate="onRequest" xlink:href="../../../soen6441riskgame/models/serializers/NameOnlyJsonAdapter.html" xlink:show="new" xlink:title="soen6441riskgame.models.serializers.NameOnlyJsonAdapter" xlink:type="simple"><rect fill="#FEFECE" filter="url(#f1bypk6m10dz03)" height="40.1875" id="soen6441riskgame.models.serializers.NameOnlyJsonAdapter" style="stroke: #A80036; stroke-width: 1.5;" width="205" x="579.5" y="8"/><ellipse cx="594.5" cy="28.0938" fill="#ADD1B2" rx="11" ry="11" style="stroke: #A80036; stroke-width: 1.0;"/><path d="M597.2656,23.9688 Q597.4219,23.75 597.6094,23.6406 Q597.7969,23.5313 598.0156,23.5313 Q598.3906,23.5313 598.625,23.7891 Q598.8594,24.0469 598.8594,24.6563 L598.8594,26.1094 Q598.8594,26.7188 598.625,26.9844 Q598.3906,27.25 598.0156,27.25 Q597.6719,27.25 597.4688,27.0469 Q597.2656,26.8594 597.1563,26.3438 Q597.1094,25.9844 596.9219,25.7969 Q596.5938,25.4219 595.9844,25.2031 Q595.375,24.9844 594.75,24.9844 Q593.9844,24.9844 593.3516,25.3125 Q592.7188,25.6406 592.2266,26.3906 Q591.7344,27.1406 591.7344,28.1719 L591.7344,29.2656 Q591.7344,30.5 592.625,31.3203 Q593.5156,32.1406 595.1094,32.1406 Q596.0469,32.1406 596.7031,31.8906 Q597.0938,31.7344 597.5156,31.2969 Q597.7813,31.0313 597.9297,30.9531 Q598.0781,30.875 598.2813,30.875 Q598.6094,30.875 598.8672,31.1328 Q599.125,31.3906 599.125,31.7344 Q599.125,32.0781 598.7813,32.4844 Q598.2813,33.0625 597.4844,33.3906 Q596.4063,33.8438 595.1094,33.8438 Q593.5938,33.8438 592.3906,33.2188 Q591.4063,32.7188 590.7188,31.6484 Q590.0313,30.5781 590.0313,29.2969 L590.0313,28.1406 Q590.0313,26.8125 590.6484,25.6641 Q591.2656,24.5156 592.3594,23.8984 Q593.4531,23.2813 594.6875,23.2813 Q595.4219,23.2813 596.0703,23.4453 Q596.7188,23.6094 597.2656,23.9688 Z "/><text fill="#000000" font-family="sans-serif" font-size="14" font-weight="bold" lengthAdjust="spacingAndGlyphs" textLength="159" x="615.5" y="27.5332">NameOnlyJsonAdapter</text><text fill="#000000" font-family="sans-serif" font-size="10" lengthAdjust="spacingAndGlyphs" textLength="173" x="608.5" y="40.9902">soen6441riskgame.models.serializers</text></a><!--link soen6441riskgame.models.Continent to soen6441riskgame.models.serializers.NameOnlySerializable--><path d="M84,48.146 C84,82.797 84,150 84,150 C84,150 246.343,150 246.343,150 " fill="none" id="soen6441riskgame.models.Continent-soen6441riskgame.models.serializers.NameOnlySerializable" style="stroke: #A80036; stroke-width: 1.0; stroke-dasharray: 7.0,7.0;"/><polygon fill="none" points="246.343,142.9999,266.343,150,246.343,156.9999,246.343,142.9999" style="stroke: #A80036; stroke-width: 1.0;"/><!--link soen6441riskgame.models.Country to soen6441riskgame.models.serializers.NameOnlySerializable--><path d="M309.75,48.146 C309.75,48.146 309.75,87.804 309.75,87.804 " fill="none" id="soen6441riskgame.models.Country-soen6441riskgame.models.serializers.NameOnlySerializable" style="stroke: #A80036; stroke-width: 1.0; stroke-dasharray: 7.0,7.0;"/><polygon fill="none" points="316.75,87.804,309.75,107.8036,302.75,87.804,316.75,87.804" style="stroke: #A80036; stroke-width: 1.0;"/><!--link soen6441riskgame.models.Player to soen6441riskgame.models.serializers.NameOnlySerializable--><path d="M430.75,48.146 C430.75,48.146 430.75,87.804 430.75,87.804 " fill="none" id="soen6441riskgame.models.Player-soen6441riskgame.models.serializers.NameOnlySerializable" style="stroke: #A80036; stroke-width: 1.0; stroke-dasharray: 7.0,7.0;"/><polygon fill="none" points="437.75,87.804,430.75,107.8036,423.75,87.804,437.75,87.804" style="stroke: #A80036; stroke-width: 1.0;"/><!--link soen6441riskgame.models.serializers.NameOnlyJsonAdapter to soen6441riskgame.models.serializers.NameOnlySerializable--><path d="M682,48.146 C682,82.797 682,150 682,150 C682,150 478.891,150 478.891,150 " fill="none" id="soen6441riskgame.models.serializers.NameOnlyJsonAdapter-soen6441riskgame.models.serializers.NameOnlySerializable" style="stroke: #A80036; stroke-width: 1.0; stroke-dasharray: 7.0,7.0;"/><polygon fill="#A80036" points="473.891,150,482.891,154,478.891,150,482.891,146,473.891,150" style="stroke: #A80036; stroke-width: 1.0;"/><!--
@startuml

skinparam svgLinkTarget _parent
skinparam linetype ortho
set namespaceSeparator none
interface "<b><size:14>NameOnlySerializable</b>\n<size:10>soen6441riskgame.models.serializers" as soen6441riskgame.models.serializers.NameOnlySerializable  [[../../../soen6441riskgame/models/serializers/NameOnlySerializable.html{soen6441riskgame.models.serializers.NameOnlySerializable}]] {
{abstract} +String getPropertyName()
{abstract} +String getPropertyValue()
}


class "<b><size:14>Continent</b>\n<size:10>soen6441riskgame.models" as soen6441riskgame.models.Continent  [[../../../soen6441riskgame/models/Continent.html{soen6441riskgame.models.Continent}]] #white {
}

hide soen6441riskgame.models.Continent fields
hide soen6441riskgame.models.Continent methods

soen6441riskgame.models.Continent ..|> soen6441riskgame.models.serializers.NameOnlySerializable

class "<b><size:14>Country</b>\n<size:10>soen6441riskgame.models" as soen6441riskgame.models.Country  [[../../../soen6441riskgame/models/Country.html{soen6441riskgame.models.Country}]] #white {
}

hide soen6441riskgame.models.Country fields
hide soen6441riskgame.models.Country methods

soen6441riskgame.models.Country ..|> soen6441riskgame.models.serializers.NameOnlySerializable

class "<b><size:14>Player</b>\n<size:10>soen6441riskgame.models" as soen6441riskgame.models.Player  [[../../../soen6441riskgame/models/Player.html{soen6441riskgame.models.Player}]] #white {
}

hide soen6441riskgame.models.Player fields
hide soen6441riskgame.models.Player methods

soen6441riskgame.models.Player ..|> soen6441riskgame.models.serializers.NameOnlySerializable

class "<b><size:14>NameOnlyJsonAdapter</b>\n<size:10>soen6441riskgame.models.serializers" as soen6441riskgame.models.serializers.NameOnlyJsonAdapter  [[../../../soen6441riskgame/models/serializers/NameOnlyJsonAdapter.html{soen6441riskgame.models.serializers.NameOnlyJsonAdapter}]] {
}

hide soen6441riskgame.models.serializers.NameOnlyJsonAdapter fields
hide soen6441riskgame.models.serializers.NameOnlyJsonAdapter methods

soen6441riskgame.models.serializers.NameOnlyJsonAdapter ..> soen6441riskgame.models.serializers.NameOnlySerializable


@enduml

PlantUML version 1.2017.15(Mon Jul 03 12:45:34 EDT 2017)
(GPL source distribution)
Java Runtime: Java(TM) SE Runtime Environment
JVM: Java HotSpot(TM) 64-Bit Server VM
Java Version: 1.8.0_231-b11
Operating System: Windows 10
OS Version: 10.0
Default Encoding: Cp1252
Language: en
Country: US
--></g></svg>