<?xml version="1.0" encoding="UTF-8" standalone="no"?><svg xmlns="http://www.w3.org/2000/svg" xmlns:xlink="http://www.w3.org/1999/xlink" contentScriptType="application/ecmascript" contentStyleType="text/css" height="217px" preserveAspectRatio="none" style="width:1074px;height:217px;" version="1.1" viewBox="0 0 1074 217" width="1074px" zoomAndPan="magnify"><defs><filter height="300%" id="f1bblm05ojvyog" width="300%" x="-1" y="-1"><feGaussianBlur result="blurOut" stdDeviation="2.0"/><feColorMatrix in="blurOut" result="blurOut2" type="matrix" values="0 0 0 0 0 0 0 0 0 0 0 0 0 0 0 0 0 0 .4 0"/><feOffset dx="4.0" dy="4.0" in="blurOut2" result="blurOut3"/><feBlend in="SourceGraphic" in2="blurOut3" mode="normal"/></filter></defs><g><!--class soen6441riskgame.models.serializers.NameOnlyJsonAdapter--><a target="_parent" xlink:actuate="onRequest" xlink:href="../../../soen6441riskgame/models/serializers/NameOnlyJsonAdapter.html" xlink:show="new" xlink:title="soen6441riskgame.models.serializers.NameOnlyJsonAdapter" xlink:type="simple"><rect fill="#FEFECE" filter="url(#f1bblm05ojvyog)" height="97.6953" id="soen6441riskgame.models.serializers.NameOnlyJsonAdapter" style="stroke: #A80036; stroke-width: 1.5;" width="288" x="471.5" y="8"/><ellipse cx="524.75" cy="28.0938" fill="#ADD1B2" rx="11" ry="11" style="stroke: #A80036; stroke-width: 1.0;"/><path d="M527.5156,23.9688 Q527.6719,23.75 527.8594,23.6406 Q528.0469,23.5313 528.2656,23.5313 Q528.6406,23.5313 528.875,23.7891 Q529.1094,24.0469 529.1094,24.6563 L529.1094,26.1094 Q529.1094,26.7188 528.875,26.9844 Q528.6406,27.25 528.2656,27.25 Q527.9219,27.25 527.7188,27.0469 Q527.5156,26.8594 527.4063,26.3438 Q527.3594,25.9844 527.1719,25.7969 Q526.8438,25.4219 526.2344,25.2031 Q525.625,24.9844 525,24.9844 Q524.2344,24.9844 523.6016,25.3125 Q522.9688,25.6406 522.4766,26.3906 Q521.9844,27.1406 521.9844,28.1719 L521.9844,29.2656 Q521.9844,30.5 522.875,31.3203 Q523.7656,32.1406 525.3594,32.1406 Q526.2969,32.1406 526.9531,31.8906 Q527.3438,31.7344 527.7656,31.2969 Q528.0313,31.0313 528.1797,30.9531 Q528.3281,30.875 528.5313,30.875 Q528.8594,30.875 529.1172,31.1328 Q529.375,31.3906 529.375,31.7344 Q529.375,32.0781 529.0313,32.4844 Q528.5313,33.0625 527.7344,33.3906 Q526.6563,33.8438 525.3594,33.8438 Q523.8438,33.8438 522.6406,33.2188 Q521.6563,32.7188 520.9688,31.6484 Q520.2813,30.5781 520.2813,29.2969 L520.2813,28.1406 Q520.2813,26.8125 520.8984,25.6641 Q521.5156,24.5156 522.6094,23.8984 Q523.7031,23.2813 524.9375,23.2813 Q525.6719,23.2813 526.3203,23.4453 Q526.9688,23.6094 527.5156,23.9688 Z "/><text fill="#000000" font-family="sans-serif" font-size="14" font-weight="bold" lengthAdjust="spacingAndGlyphs" textLength="159" x="552.25" y="27.5332">NameOnlyJsonAdapter</text><text fill="#000000" font-family="sans-serif" font-size="10" lengthAdjust="spacingAndGlyphs" textLength="173" x="545.25" y="40.9902">soen6441riskgame.models.serializers</text><line style="stroke: #A80036; stroke-width: 1.5;" x1="472.5" x2="758.5" y1="48.1875" y2="48.1875"/><line style="stroke: #A80036; stroke-width: 1.5;" x1="472.5" x2="758.5" y1="56.1875" y2="56.1875"/><ellipse cx="482.5" cy="68.6055" fill="#84BE84" rx="3" ry="3" style="stroke: #038048; stroke-width: 1.0;"/><text fill="#000000" font-family="sans-serif" font-size="11" lengthAdjust="spacingAndGlyphs" textLength="119" x="491.5" y="71.6064">NameOnlyJsonAdapter()</text><ellipse cx="482.5" cy="82.4414" fill="#84BE84" rx="3" ry="3" style="stroke: #038048; stroke-width: 1.0;"/><text fill="#000000" font-family="sans-serif" font-size="11" lengthAdjust="spacingAndGlyphs" textLength="262" x="491.5" y="85.4424">void write(JsonWriter out,NameOnlySerializable value)</text><ellipse cx="482.5" cy="96.2773" fill="#84BE84" rx="3" ry="3" style="stroke: #038048; stroke-width: 1.0;"/><text fill="#000000" font-family="sans-serif" font-size="11" lengthAdjust="spacingAndGlyphs" textLength="147" x="491.5" y="99.2783">Continent read(JsonReader in)</text></a><!--class com.google.gson.TypeAdapterNameOnlySerializable--><rect fill="#D3D3D3" filter="url(#f1bblm05ojvyog)" height="40.1875" id="com.google.gson.TypeAdapterNameOnlySerializable" style="stroke: #A80036; stroke-width: 1.5;" width="287" x="6" y="166"/><rect fill="#D3D3D3" height="40.1875" style="stroke: #A80036; stroke-width: 1.5;" width="287" x="6" y="166"/><ellipse cx="21" cy="186.0938" fill="#ADD1B2" rx="11" ry="11" style="stroke: #A80036; stroke-width: 1.0;"/><path d="M23.7656,181.9688 Q23.9219,181.75 24.1094,181.6406 Q24.2969,181.5313 24.5156,181.5313 Q24.8906,181.5313 25.125,181.7891 Q25.3594,182.0469 25.3594,182.6563 L25.3594,184.1094 Q25.3594,184.7188 25.125,184.9844 Q24.8906,185.25 24.5156,185.25 Q24.1719,185.25 23.9688,185.0469 Q23.7656,184.8594 23.6563,184.3438 Q23.6094,183.9844 23.4219,183.7969 Q23.0938,183.4219 22.4844,183.2031 Q21.875,182.9844 21.25,182.9844 Q20.4844,182.9844 19.8516,183.3125 Q19.2188,183.6406 18.7266,184.3906 Q18.2344,185.1406 18.2344,186.1719 L18.2344,187.2656 Q18.2344,188.5 19.125,189.3203 Q20.0156,190.1406 21.6094,190.1406 Q22.5469,190.1406 23.2031,189.8906 Q23.5938,189.7344 24.0156,189.2969 Q24.2813,189.0313 24.4297,188.9531 Q24.5781,188.875 24.7813,188.875 Q25.1094,188.875 25.3672,189.1328 Q25.625,189.3906 25.625,189.7344 Q25.625,190.0781 25.2813,190.4844 Q24.7813,191.0625 23.9844,191.3906 Q22.9063,191.8438 21.6094,191.8438 Q20.0938,191.8438 18.8906,191.2188 Q17.9063,190.7188 17.2188,189.6484 Q16.5313,188.5781 16.5313,187.2969 L16.5313,186.1406 Q16.5313,184.8125 17.1484,183.6641 Q17.7656,182.5156 18.8594,181.8984 Q19.9531,181.2813 21.1875,181.2813 Q21.9219,181.2813 22.5703,181.4453 Q23.2188,181.6094 23.7656,181.9688 Z "/><text fill="#000000" font-family="sans-serif" font-size="14" font-weight="bold" lengthAdjust="spacingAndGlyphs" textLength="255" x="35" y="185.5332">TypeAdapter&lt;NameOnlySerializable&gt;</text><text fill="#000000" font-family="sans-serif" font-size="10" lengthAdjust="spacingAndGlyphs" textLength="82" x="121.5" y="198.9902">com.google.gson</text><!--class soen6441riskgame.models.NameOnlySerializable--><a target="_parent" xlink:actuate="onRequest" xlink:href="../../../soen6441riskgame/models/NameOnlySerializable.html" xlink:show="new" xlink:title="soen6441riskgame.models.NameOnlySerializable" xlink:type="simple"><rect fill="#FFFFFF" filter="url(#f1bblm05ojvyog)" height="40.1875" id="soen6441riskgame.models.NameOnlySerializable" style="stroke: #A80036; stroke-width: 1.5;" width="178" x="328.5" y="166"/><rect fill="#FFFFFF" height="40.1875" style="stroke: #A80036; stroke-width: 1.5;" width="178" x="328.5" y="166"/><ellipse cx="343.5" cy="186.0938" fill="#B4A7E5" rx="11" ry="11" style="stroke: #A80036; stroke-width: 1.0;"/><path d="M344.4531,182.7344 L344.4531,189.3906 L346.1719,189.3906 Q346.7813,189.3906 347.0469,189.625 Q347.3125,189.8594 347.3125,190.25 Q347.3125,190.625 347.0469,190.8594 Q346.7813,191.0938 346.1719,191.0938 L341.0313,191.0938 Q340.4219,191.0938 340.1563,190.8594 Q339.8906,190.625 339.8906,190.2344 Q339.8906,189.8594 340.1563,189.625 Q340.4219,189.3906 341.0313,189.3906 L342.75,189.3906 L342.75,182.7344 L341.0313,182.7344 Q340.4219,182.7344 340.1563,182.5 Q339.8906,182.2656 339.8906,181.875 Q339.8906,181.5 340.1563,181.2656 Q340.4219,181.0313 341.0313,181.0313 L346.1719,181.0313 Q346.7813,181.0313 347.0469,181.2656 Q347.3125,181.5 347.3125,181.875 Q347.3125,182.2656 347.0469,182.5 Q346.7813,182.7344 346.1719,182.7344 L344.4531,182.7344 Z "/><text fill="#000000" font-family="sans-serif" font-size="14" font-style="italic" font-weight="bold" lengthAdjust="spacingAndGlyphs" textLength="146" x="357.5" y="185.5332">NameOnlySerializable</text><text fill="#000000" font-family="sans-serif" font-size="10" font-style="italic" lengthAdjust="spacingAndGlyphs" textLength="124" x="368.5" y="198.9902">soen6441riskgame.models</text></a><!--class com.google.gson.stream.JsonWriter--><rect fill="#D3D3D3" filter="url(#f1bblm05ojvyog)" height="40.1875" id="com.google.gson.stream.JsonWriter" style="stroke: #A80036; stroke-width: 1.5;" width="148" x="541.5" y="166"/><rect fill="#D3D3D3" height="40.1875" style="stroke: #A80036; stroke-width: 1.5;" width="148" x="541.5" y="166"/><ellipse cx="556.5" cy="186.0938" fill="#ADD1B2" rx="11" ry="11" style="stroke: #A80036; stroke-width: 1.0;"/><path d="M559.2656,181.9688 Q559.4219,181.75 559.6094,181.6406 Q559.7969,181.5313 560.0156,181.5313 Q560.3906,181.5313 560.625,181.7891 Q560.8594,182.0469 560.8594,182.6563 L560.8594,184.1094 Q560.8594,184.7188 560.625,184.9844 Q560.3906,185.25 560.0156,185.25 Q559.6719,185.25 559.4688,185.0469 Q559.2656,184.8594 559.1563,184.3438 Q559.1094,183.9844 558.9219,183.7969 Q558.5938,183.4219 557.9844,183.2031 Q557.375,182.9844 556.75,182.9844 Q555.9844,182.9844 555.3516,183.3125 Q554.7188,183.6406 554.2266,184.3906 Q553.7344,185.1406 553.7344,186.1719 L553.7344,187.2656 Q553.7344,188.5 554.625,189.3203 Q555.5156,190.1406 557.1094,190.1406 Q558.0469,190.1406 558.7031,189.8906 Q559.0938,189.7344 559.5156,189.2969 Q559.7813,189.0313 559.9297,188.9531 Q560.0781,188.875 560.2813,188.875 Q560.6094,188.875 560.8672,189.1328 Q561.125,189.3906 561.125,189.7344 Q561.125,190.0781 560.7813,190.4844 Q560.2813,191.0625 559.4844,191.3906 Q558.4063,191.8438 557.1094,191.8438 Q555.5938,191.8438 554.3906,191.2188 Q553.4063,190.7188 552.7188,189.6484 Q552.0313,188.5781 552.0313,187.2969 L552.0313,186.1406 Q552.0313,184.8125 552.6484,183.6641 Q553.2656,182.5156 554.3594,181.8984 Q555.4531,181.2813 556.6875,181.2813 Q557.4219,181.2813 558.0703,181.4453 Q558.7188,181.6094 559.2656,181.9688 Z "/><text fill="#000000" font-family="sans-serif" font-size="14" font-weight="bold" lengthAdjust="spacingAndGlyphs" textLength="77" x="590" y="185.5332">JsonWriter</text><text fill="#000000" font-family="sans-serif" font-size="10" lengthAdjust="spacingAndGlyphs" textLength="116" x="570.5" y="198.9902">com.google.gson.stream</text><!--class com.google.gson.stream.JsonReader--><rect fill="#D3D3D3" filter="url(#f1bblm05ojvyog)" height="40.1875" id="com.google.gson.stream.JsonReader" style="stroke: #A80036; stroke-width: 1.5;" width="148" x="724.5" y="166"/><rect fill="#D3D3D3" height="40.1875" style="stroke: #A80036; stroke-width: 1.5;" width="148" x="724.5" y="166"/><ellipse cx="739.5" cy="186.0938" fill="#ADD1B2" rx="11" ry="11" style="stroke: #A80036; stroke-width: 1.0;"/><path d="M742.2656,181.9688 Q742.4219,181.75 742.6094,181.6406 Q742.7969,181.5313 743.0156,181.5313 Q743.3906,181.5313 743.625,181.7891 Q743.8594,182.0469 743.8594,182.6563 L743.8594,184.1094 Q743.8594,184.7188 743.625,184.9844 Q743.3906,185.25 743.0156,185.25 Q742.6719,185.25 742.4688,185.0469 Q742.2656,184.8594 742.1563,184.3438 Q742.1094,183.9844 741.9219,183.7969 Q741.5938,183.4219 740.9844,183.2031 Q740.375,182.9844 739.75,182.9844 Q738.9844,182.9844 738.3516,183.3125 Q737.7188,183.6406 737.2266,184.3906 Q736.7344,185.1406 736.7344,186.1719 L736.7344,187.2656 Q736.7344,188.5 737.625,189.3203 Q738.5156,190.1406 740.1094,190.1406 Q741.0469,190.1406 741.7031,189.8906 Q742.0938,189.7344 742.5156,189.2969 Q742.7813,189.0313 742.9297,188.9531 Q743.0781,188.875 743.2813,188.875 Q743.6094,188.875 743.8672,189.1328 Q744.125,189.3906 744.125,189.7344 Q744.125,190.0781 743.7813,190.4844 Q743.2813,191.0625 742.4844,191.3906 Q741.4063,191.8438 740.1094,191.8438 Q738.5938,191.8438 737.3906,191.2188 Q736.4063,190.7188 735.7188,189.6484 Q735.0313,188.5781 735.0313,187.2969 L735.0313,186.1406 Q735.0313,184.8125 735.6484,183.6641 Q736.2656,182.5156 737.3594,181.8984 Q738.4531,181.2813 739.6875,181.2813 Q740.4219,181.2813 741.0703,181.4453 Q741.7188,181.6094 742.2656,181.9688 Z "/><text fill="#000000" font-family="sans-serif" font-size="14" font-weight="bold" lengthAdjust="spacingAndGlyphs" textLength="85" x="769" y="185.5332">JsonReader</text><text fill="#000000" font-family="sans-serif" font-size="10" lengthAdjust="spacingAndGlyphs" textLength="116" x="753.5" y="198.9902">com.google.gson.stream</text><!--class soen6441riskgame.models.Continent--><a target="_parent" xlink:actuate="onRequest" xlink:href="../../../soen6441riskgame/models/Continent.html" xlink:show="new" xlink:title="soen6441riskgame.models.Continent" xlink:type="simple"><rect fill="#FFFFFF" filter="url(#f1bblm05ojvyog)" height="40.1875" id="soen6441riskgame.models.Continent" style="stroke: #A80036; stroke-width: 1.5;" width="156" x="907.5" y="166"/><rect fill="#FFFFFF" height="40.1875" style="stroke: #A80036; stroke-width: 1.5;" width="156" x="907.5" y="166"/><ellipse cx="922.5" cy="186.0938" fill="#ADD1B2" rx="11" ry="11" style="stroke: #A80036; stroke-width: 1.0;"/><path d="M925.2656,181.9688 Q925.4219,181.75 925.6094,181.6406 Q925.7969,181.5313 926.0156,181.5313 Q926.3906,181.5313 926.625,181.7891 Q926.8594,182.0469 926.8594,182.6563 L926.8594,184.1094 Q926.8594,184.7188 926.625,184.9844 Q926.3906,185.25 926.0156,185.25 Q925.6719,185.25 925.4688,185.0469 Q925.2656,184.8594 925.1563,184.3438 Q925.1094,183.9844 924.9219,183.7969 Q924.5938,183.4219 923.9844,183.2031 Q923.375,182.9844 922.75,182.9844 Q921.9844,182.9844 921.3516,183.3125 Q920.7188,183.6406 920.2266,184.3906 Q919.7344,185.1406 919.7344,186.1719 L919.7344,187.2656 Q919.7344,188.5 920.625,189.3203 Q921.5156,190.1406 923.1094,190.1406 Q924.0469,190.1406 924.7031,189.8906 Q925.0938,189.7344 925.5156,189.2969 Q925.7813,189.0313 925.9297,188.9531 Q926.0781,188.875 926.2813,188.875 Q926.6094,188.875 926.8672,189.1328 Q927.125,189.3906 927.125,189.7344 Q927.125,190.0781 926.7813,190.4844 Q926.2813,191.0625 925.4844,191.3906 Q924.4063,191.8438 923.1094,191.8438 Q921.5938,191.8438 920.3906,191.2188 Q919.4063,190.7188 918.7188,189.6484 Q918.0313,188.5781 918.0313,187.2969 L918.0313,186.1406 Q918.0313,184.8125 918.6484,183.6641 Q919.2656,182.5156 920.3594,181.8984 Q921.4531,181.2813 922.6875,181.2813 Q923.4219,181.2813 924.0703,181.4453 Q924.7188,181.6094 925.2656,181.9688 Z "/><text fill="#000000" font-family="sans-serif" font-size="14" font-weight="bold" lengthAdjust="spacingAndGlyphs" textLength="69" x="964" y="185.5332">Continent</text><text fill="#000000" font-family="sans-serif" font-size="10" lengthAdjust="spacingAndGlyphs" textLength="124" x="936.5" y="198.9902">soen6441riskgame.models</text></a><!--link soen6441riskgame.models.serializers.NameOnlyJsonAdapter to com.google.gson.TypeAdapterNameOnlySerializable--><path d="M471.246,57 C334.387,57 149.5,57 149.5,57 C149.5,57 149.5,145.8437 149.5,145.8437 " fill="none" id="soen6441riskgame.models.serializers.NameOnlyJsonAdapter-com.google.gson.TypeAdapterNameOnlySerializable" style="stroke: #A80036; stroke-width: 1.0;"/><polygon fill="none" points="156.5,145.8438,149.5,165.8437,142.5,145.8437,156.5,145.8438" style="stroke: #A80036; stroke-width: 1.0;"/><!--link soen6441riskgame.models.serializers.NameOnlyJsonAdapter to soen6441riskgame.models.NameOnlySerializable--><path d="M489,106.1374 C489,106.1374 489,160.9521 489,160.9521 " fill="none" id="soen6441riskgame.models.serializers.NameOnlyJsonAdapter-soen6441riskgame.models.NameOnlySerializable" style="stroke: #A80036; stroke-width: 1.0; stroke-dasharray: 7.0,7.0;"/><polygon fill="#A80036" points="489,165.9521,493,156.9521,489,160.9521,485,156.9521,489,165.9521" style="stroke: #A80036; stroke-width: 1.0;"/><!--link soen6441riskgame.models.serializers.NameOnlyJsonAdapter to com.google.gson.stream.JsonWriter--><path d="M615.5,106.1374 C615.5,106.1374 615.5,160.9521 615.5,160.9521 " fill="none" id="soen6441riskgame.models.serializers.NameOnlyJsonAdapter-com.google.gson.stream.JsonWriter" style="stroke: #A80036; stroke-width: 1.0; stroke-dasharray: 7.0,7.0;"/><polygon fill="#A80036" points="615.5,165.9521,619.5,156.9521,615.5,160.9521,611.5,156.9521,615.5,165.9521" style="stroke: #A80036; stroke-width: 1.0;"/><!--link soen6441riskgame.models.serializers.NameOnlyJsonAdapter to com.google.gson.stream.JsonReader--><path d="M742,106.1374 C742,106.1374 742,160.9521 742,160.9521 " fill="none" id="soen6441riskgame.models.serializers.NameOnlyJsonAdapter-com.google.gson.stream.JsonReader" style="stroke: #A80036; stroke-width: 1.0; stroke-dasharray: 7.0,7.0;"/><polygon fill="#A80036" points="742,165.9521,746,156.9521,742,160.9521,738,156.9521,742,165.9521" style="stroke: #A80036; stroke-width: 1.0;"/><!--link soen6441riskgame.models.serializers.NameOnlyJsonAdapter to soen6441riskgame.models.Continent--><path d="M759.611,57 C863.501,57 985.5,57 985.5,57 C985.5,57 985.5,160.8437 985.5,160.8437 " fill="none" id="soen6441riskgame.models.serializers.NameOnlyJsonAdapter-soen6441riskgame.models.Continent" style="stroke: #A80036; stroke-width: 1.0; stroke-dasharray: 7.0,7.0;"/><polygon fill="#A80036" points="985.5,165.8437,989.5,156.8437,985.5,160.8437,981.5,156.8437,985.5,165.8437" style="stroke: #A80036; stroke-width: 1.0;"/><!--
@startuml

skinparam svgLinkTarget _parent
skinparam linetype ortho
set namespaceSeparator none
class "<b><size:14>NameOnlyJsonAdapter</b>\n<size:10>soen6441riskgame.models.serializers" as soen6441riskgame.models.serializers.NameOnlyJsonAdapter  [[../../../soen6441riskgame/models/serializers/NameOnlyJsonAdapter.html{soen6441riskgame.models.serializers.NameOnlyJsonAdapter}]] {
+NameOnlyJsonAdapter()
+void write(JsonWriter out,NameOnlySerializable value)
+Continent read(JsonReader in)
}


class "<b><size:14>TypeAdapter<NameOnlySerializable></b>\n<size:10>com.google.gson" as com.google.gson.TypeAdapterNameOnlySerializable  #lightgrey {
}

hide com.google.gson.TypeAdapterNameOnlySerializable fields
hide com.google.gson.TypeAdapterNameOnlySerializable methods

soen6441riskgame.models.serializers.NameOnlyJsonAdapter - -|> com.google.gson.TypeAdapterNameOnlySerializable

interface "<b><size:14>NameOnlySerializable</b>\n<size:10>soen6441riskgame.models" as soen6441riskgame.models.NameOnlySerializable  [[../../../soen6441riskgame/models/NameOnlySerializable.html{soen6441riskgame.models.NameOnlySerializable}]] #white {
}

hide soen6441riskgame.models.NameOnlySerializable fields
hide soen6441riskgame.models.NameOnlySerializable methods

soen6441riskgame.models.serializers.NameOnlyJsonAdapter ..> soen6441riskgame.models.NameOnlySerializable

class "<b><size:14>JsonWriter</b>\n<size:10>com.google.gson.stream" as com.google.gson.stream.JsonWriter  #lightgrey {
}

hide com.google.gson.stream.JsonWriter fields
hide com.google.gson.stream.JsonWriter methods

soen6441riskgame.models.serializers.NameOnlyJsonAdapter ..> com.google.gson.stream.JsonWriter

class "<b><size:14>JsonReader</b>\n<size:10>com.google.gson.stream" as com.google.gson.stream.JsonReader  #lightgrey {
}

hide com.google.gson.stream.JsonReader fields
hide com.google.gson.stream.JsonReader methods

soen6441riskgame.models.serializers.NameOnlyJsonAdapter ..> com.google.gson.stream.JsonReader

class "<b><size:14>Continent</b>\n<size:10>soen6441riskgame.models" as soen6441riskgame.models.Continent  [[../../../soen6441riskgame/models/Continent.html{soen6441riskgame.models.Continent}]] #white {
}

hide soen6441riskgame.models.Continent fields
hide soen6441riskgame.models.Continent methods

soen6441riskgame.models.serializers.NameOnlyJsonAdapter ..> soen6441riskgame.models.Continent


@enduml

PlantUML version 1.2017.15(Mon Jul 03 12:45:34 EDT 2017)
(GPL source distribution)
Java Runtime: Java(TM) SE Runtime Environment
JVM: Java HotSpot(TM) 64-Bit Server VM
Java Version: 1.8.0_231-b11
Operating System: Windows 10
OS Version: 10.0
Default Encoding: Cp1252
Language: en
Country: US
--></g></svg>