<?xml version="1.0" encoding="UTF-8" standalone="no"?><svg xmlns="http://www.w3.org/2000/svg" xmlns:xlink="http://www.w3.org/1999/xlink" contentScriptType="application/ecmascript" contentStyleType="text/css" height="212px" preserveAspectRatio="none" style="width:773px;height:212px;" version="1.1" viewBox="0 0 773 212" width="773px" zoomAndPan="magnify"><defs><filter height="300%" id="f1gxgorus8rij7" width="300%" x="-1" y="-1"><feGaussianBlur result="blurOut" stdDeviation="2.0"/><feColorMatrix in="blurOut" result="blurOut2" type="matrix" values="0 0 0 0 0 0 0 0 0 0 0 0 0 0 0 0 0 0 .4 0"/><feOffset dx="4.0" dy="4.0" in="blurOut2" result="blurOut3"/><feBlend in="SourceGraphic" in2="blurOut3" mode="normal"/></filter></defs><g><!--cluster soen6441riskgame.models.serializers--><a target="_parent" xlink:actuate="onRequest" xlink:href="../../../soen6441riskgame/models/serializers/package-summary.html" xlink:show="new" xlink:title="soen6441riskgame.models.serializers" xlink:type="simple"><polygon fill="#FFFFE0" filter="url(#f1gxgorus8rij7)" points="22,24,291,24,298,47.6094,751,47.6094,751,200,22,200,22,24" style="stroke: #000000; stroke-width: 2.0;"/><line style="stroke: #000000; stroke-width: 2.0;" x1="22" x2="298" y1="47.6094" y2="47.6094"/><text fill="#000000" font-family="sans-serif" font-size="14" font-weight="bold" lengthAdjust="spacingAndGlyphs" textLength="263" x="26" y="40.5332">soen6441riskgame.models.serializers</text></a><!--class soen6441riskgame.models.serializers.ArrayNameOnlyJsonAdapter--><a target="_parent" xlink:actuate="onRequest" xlink:href="../../../soen6441riskgame/models/serializers/ArrayNameOnlyJsonAdapter.html" xlink:show="new" xlink:title="soen6441riskgame.models.serializers.ArrayNameOnlyJsonAdapter" xlink:type="simple"><rect fill="#FEFECE" filter="url(#f1gxgorus8rij7)" height="32" id="soen6441riskgame.models.serializers.ArrayNameOnlyJsonAdapter" style="stroke: #A80036; stroke-width: 1.5;" width="227" x="507.5" y="60"/><ellipse cx="522.5" cy="76" fill="#ADD1B2" rx="11" ry="11" style="stroke: #A80036; stroke-width: 1.0;"/><path d="M525.2656,71.875 Q525.4219,71.6563 525.6094,71.5469 Q525.7969,71.4375 526.0156,71.4375 Q526.3906,71.4375 526.625,71.6953 Q526.8594,71.9531 526.8594,72.5625 L526.8594,74.0156 Q526.8594,74.625 526.625,74.8906 Q526.3906,75.1563 526.0156,75.1563 Q525.6719,75.1563 525.4688,74.9531 Q525.2656,74.7656 525.1563,74.25 Q525.1094,73.8906 524.9219,73.7031 Q524.5938,73.3281 523.9844,73.1094 Q523.375,72.8906 522.75,72.8906 Q521.9844,72.8906 521.3516,73.2188 Q520.7188,73.5469 520.2266,74.2969 Q519.7344,75.0469 519.7344,76.0781 L519.7344,77.1719 Q519.7344,78.4063 520.625,79.2266 Q521.5156,80.0469 523.1094,80.0469 Q524.0469,80.0469 524.7031,79.7969 Q525.0938,79.6406 525.5156,79.2031 Q525.7813,78.9375 525.9297,78.8594 Q526.0781,78.7813 526.2813,78.7813 Q526.6094,78.7813 526.8672,79.0391 Q527.125,79.2969 527.125,79.6406 Q527.125,79.9844 526.7813,80.3906 Q526.2813,80.9688 525.4844,81.2969 Q524.4063,81.75 523.1094,81.75 Q521.5938,81.75 520.3906,81.125 Q519.4063,80.625 518.7188,79.5547 Q518.0313,78.4844 518.0313,77.2031 L518.0313,76.0469 Q518.0313,74.7188 518.6484,73.5703 Q519.2656,72.4219 520.3594,71.8047 Q521.4531,71.1875 522.6875,71.1875 Q523.4219,71.1875 524.0703,71.3516 Q524.7188,71.5156 525.2656,71.875 Z "/><text fill="#000000" font-family="sans-serif" font-size="14" font-weight="bold" lengthAdjust="spacingAndGlyphs" textLength="195" x="536.5" y="81.7285">ArrayNameOnlyJsonAdapter</text></a><!--class soen6441riskgame.models.serializers.NameOnlyJsonAdapter--><a target="_parent" xlink:actuate="onRequest" xlink:href="../../../soen6441riskgame/models/serializers/NameOnlyJsonAdapter.html" xlink:show="new" xlink:title="soen6441riskgame.models.serializers.NameOnlyJsonAdapter" xlink:type="simple"><rect fill="#FEFECE" filter="url(#f1gxgorus8rij7)" height="32" id="soen6441riskgame.models.serializers.NameOnlyJsonAdapter" style="stroke: #A80036; stroke-width: 1.5;" width="191" x="281.5" y="60"/><ellipse cx="296.5" cy="76" fill="#ADD1B2" rx="11" ry="11" style="stroke: #A80036; stroke-width: 1.0;"/><path d="M299.2656,71.875 Q299.4219,71.6563 299.6094,71.5469 Q299.7969,71.4375 300.0156,71.4375 Q300.3906,71.4375 300.625,71.6953 Q300.8594,71.9531 300.8594,72.5625 L300.8594,74.0156 Q300.8594,74.625 300.625,74.8906 Q300.3906,75.1563 300.0156,75.1563 Q299.6719,75.1563 299.4688,74.9531 Q299.2656,74.7656 299.1563,74.25 Q299.1094,73.8906 298.9219,73.7031 Q298.5938,73.3281 297.9844,73.1094 Q297.375,72.8906 296.75,72.8906 Q295.9844,72.8906 295.3516,73.2188 Q294.7188,73.5469 294.2266,74.2969 Q293.7344,75.0469 293.7344,76.0781 L293.7344,77.1719 Q293.7344,78.4063 294.625,79.2266 Q295.5156,80.0469 297.1094,80.0469 Q298.0469,80.0469 298.7031,79.7969 Q299.0938,79.6406 299.5156,79.2031 Q299.7813,78.9375 299.9297,78.8594 Q300.0781,78.7813 300.2813,78.7813 Q300.6094,78.7813 300.8672,79.0391 Q301.125,79.2969 301.125,79.6406 Q301.125,79.9844 300.7813,80.3906 Q300.2813,80.9688 299.4844,81.2969 Q298.4063,81.75 297.1094,81.75 Q295.5938,81.75 294.3906,81.125 Q293.4063,80.625 292.7188,79.5547 Q292.0313,78.4844 292.0313,77.2031 L292.0313,76.0469 Q292.0313,74.7188 292.6484,73.5703 Q293.2656,72.4219 294.3594,71.8047 Q295.4531,71.1875 296.6875,71.1875 Q297.4219,71.1875 298.0703,71.3516 Q298.7188,71.5156 299.2656,71.875 Z "/><text fill="#000000" font-family="sans-serif" font-size="14" font-weight="bold" lengthAdjust="spacingAndGlyphs" textLength="159" x="310.5" y="81.7285">NameOnlyJsonAdapter</text></a><!--class soen6441riskgame.models.serializers.NameOnlySerializable--><a target="_parent" xlink:actuate="onRequest" xlink:href="../../../soen6441riskgame/models/serializers/NameOnlySerializable.html" xlink:show="new" xlink:title="soen6441riskgame.models.serializers.NameOnlySerializable" xlink:type="simple"><rect fill="#FEFECE" filter="url(#f1gxgorus8rij7)" height="32" id="soen6441riskgame.models.serializers.NameOnlySerializable" style="stroke: #A80036; stroke-width: 1.5;" width="183" x="529.5" y="152"/><ellipse cx="544.5" cy="168" fill="#ADD1B2" rx="11" ry="11" style="stroke: #A80036; stroke-width: 1.0;"/><path d="M547.2656,163.875 Q547.4219,163.6563 547.6094,163.5469 Q547.7969,163.4375 548.0156,163.4375 Q548.3906,163.4375 548.625,163.6953 Q548.8594,163.9531 548.8594,164.5625 L548.8594,166.0156 Q548.8594,166.625 548.625,166.8906 Q548.3906,167.1563 548.0156,167.1563 Q547.6719,167.1563 547.4688,166.9531 Q547.2656,166.7656 547.1563,166.25 Q547.1094,165.8906 546.9219,165.7031 Q546.5938,165.3281 545.9844,165.1094 Q545.375,164.8906 544.75,164.8906 Q543.9844,164.8906 543.3516,165.2188 Q542.7188,165.5469 542.2266,166.2969 Q541.7344,167.0469 541.7344,168.0781 L541.7344,169.1719 Q541.7344,170.4063 542.625,171.2266 Q543.5156,172.0469 545.1094,172.0469 Q546.0469,172.0469 546.7031,171.7969 Q547.0938,171.6406 547.5156,171.2031 Q547.7813,170.9375 547.9297,170.8594 Q548.0781,170.7813 548.2813,170.7813 Q548.6094,170.7813 548.8672,171.0391 Q549.125,171.2969 549.125,171.6406 Q549.125,171.9844 548.7813,172.3906 Q548.2813,172.9688 547.4844,173.2969 Q546.4063,173.75 545.1094,173.75 Q543.5938,173.75 542.3906,173.125 Q541.4063,172.625 540.7188,171.5547 Q540.0313,170.4844 540.0313,169.2031 L540.0313,168.0469 Q540.0313,166.7188 540.6484,165.5703 Q541.2656,164.4219 542.3594,163.8047 Q543.4531,163.1875 544.6875,163.1875 Q545.4219,163.1875 546.0703,163.3516 Q546.7188,163.5156 547.2656,163.875 Z "/><text fill="#000000" font-family="sans-serif" font-size="14" font-weight="bold" lengthAdjust="spacingAndGlyphs" textLength="151" x="558.5" y="173.7285">NameOnlySerializable</text></a><!--class soen6441riskgame.models.serializers.SerializableGame--><a target="_parent" xlink:actuate="onRequest" xlink:href="../../../soen6441riskgame/models/serializers/SerializableGame.html" xlink:show="new" xlink:title="soen6441riskgame.models.serializers.SerializableGame" xlink:type="simple"><rect fill="#FEFECE" filter="url(#f1gxgorus8rij7)" height="32" id="soen6441riskgame.models.serializers.SerializableGame" style="stroke: #A80036; stroke-width: 1.5;" width="153" x="65.5" y="152"/><ellipse cx="80.5" cy="168" fill="#ADD1B2" rx="11" ry="11" style="stroke: #A80036; stroke-width: 1.0;"/><path d="M83.2656,163.875 Q83.4219,163.6563 83.6094,163.5469 Q83.7969,163.4375 84.0156,163.4375 Q84.3906,163.4375 84.625,163.6953 Q84.8594,163.9531 84.8594,164.5625 L84.8594,166.0156 Q84.8594,166.625 84.625,166.8906 Q84.3906,167.1563 84.0156,167.1563 Q83.6719,167.1563 83.4688,166.9531 Q83.2656,166.7656 83.1563,166.25 Q83.1094,165.8906 82.9219,165.7031 Q82.5938,165.3281 81.9844,165.1094 Q81.375,164.8906 80.75,164.8906 Q79.9844,164.8906 79.3516,165.2188 Q78.7188,165.5469 78.2266,166.2969 Q77.7344,167.0469 77.7344,168.0781 L77.7344,169.1719 Q77.7344,170.4063 78.625,171.2266 Q79.5156,172.0469 81.1094,172.0469 Q82.0469,172.0469 82.7031,171.7969 Q83.0938,171.6406 83.5156,171.2031 Q83.7813,170.9375 83.9297,170.8594 Q84.0781,170.7813 84.2813,170.7813 Q84.6094,170.7813 84.8672,171.0391 Q85.125,171.2969 85.125,171.6406 Q85.125,171.9844 84.7813,172.3906 Q84.2813,172.9688 83.4844,173.2969 Q82.4063,173.75 81.1094,173.75 Q79.5938,173.75 78.3906,173.125 Q77.4063,172.625 76.7188,171.5547 Q76.0313,170.4844 76.0313,169.2031 L76.0313,168.0469 Q76.0313,166.7188 76.6484,165.5703 Q77.2656,164.4219 78.3594,163.8047 Q79.4531,163.1875 80.6875,163.1875 Q81.4219,163.1875 82.0703,163.3516 Q82.7188,163.5156 83.2656,163.875 Z "/><text fill="#000000" font-family="sans-serif" font-size="14" font-weight="bold" lengthAdjust="spacingAndGlyphs" textLength="121" x="94.5" y="173.7285">SerializableGame</text></a><!--class soen6441riskgame.models.serializers.SerializableGame.Builder--><a target="_parent" xlink:actuate="onRequest" xlink:href="../../../soen6441riskgame/models/serializers/SerializableGame.Builder.html" xlink:show="new" xlink:title="soen6441riskgame.models.serializers.SerializableGame.Builder" xlink:type="simple"><rect fill="#FEFECE" filter="url(#f1gxgorus8rij7)" height="32" id="soen6441riskgame.models.serializers.SerializableGame.Builder" style="stroke: #A80036; stroke-width: 1.5;" width="208" x="38" y="60"/><ellipse cx="53" cy="76" fill="#ADD1B2" rx="11" ry="11" style="stroke: #A80036; stroke-width: 1.0;"/><path d="M55.7656,71.875 Q55.9219,71.6563 56.1094,71.5469 Q56.2969,71.4375 56.5156,71.4375 Q56.8906,71.4375 57.125,71.6953 Q57.3594,71.9531 57.3594,72.5625 L57.3594,74.0156 Q57.3594,74.625 57.125,74.8906 Q56.8906,75.1563 56.5156,75.1563 Q56.1719,75.1563 55.9688,74.9531 Q55.7656,74.7656 55.6563,74.25 Q55.6094,73.8906 55.4219,73.7031 Q55.0938,73.3281 54.4844,73.1094 Q53.875,72.8906 53.25,72.8906 Q52.4844,72.8906 51.8516,73.2188 Q51.2188,73.5469 50.7266,74.2969 Q50.2344,75.0469 50.2344,76.0781 L50.2344,77.1719 Q50.2344,78.4063 51.125,79.2266 Q52.0156,80.0469 53.6094,80.0469 Q54.5469,80.0469 55.2031,79.7969 Q55.5938,79.6406 56.0156,79.2031 Q56.2813,78.9375 56.4297,78.8594 Q56.5781,78.7813 56.7813,78.7813 Q57.1094,78.7813 57.3672,79.0391 Q57.625,79.2969 57.625,79.6406 Q57.625,79.9844 57.2813,80.3906 Q56.7813,80.9688 55.9844,81.2969 Q54.9063,81.75 53.6094,81.75 Q52.0938,81.75 50.8906,81.125 Q49.9063,80.625 49.2188,79.5547 Q48.5313,78.4844 48.5313,77.2031 L48.5313,76.0469 Q48.5313,74.7188 49.1484,73.5703 Q49.7656,72.4219 50.8594,71.8047 Q51.9531,71.1875 53.1875,71.1875 Q53.9219,71.1875 54.5703,71.3516 Q55.2188,71.5156 55.7656,71.875 Z "/><text fill="#000000" font-family="sans-serif" font-size="14" font-weight="bold" lengthAdjust="spacingAndGlyphs" textLength="176" x="67" y="81.7285">SerializableGame.Builder</text></a><!--link soen6441riskgame.models.serializers.ArrayNameOnlyJsonAdapter to soen6441riskgame.models.serializers.NameOnlySerializable--><path d="M621,92.025 C621,92.025 621,146.8498 621,146.8498 " fill="none" id="soen6441riskgame.models.serializers.ArrayNameOnlyJsonAdapter-soen6441riskgame.models.serializers.NameOnlySerializable" style="stroke: #A80036; stroke-width: 1.0; stroke-dasharray: 7.0,7.0;"/><polygon fill="#A80036" points="621,151.8498,625,142.8498,621,146.8498,617,142.8498,621,151.8498" style="stroke: #A80036; stroke-width: 1.0;"/><!--link soen6441riskgame.models.serializers.SerializableGame.Builder to soen6441riskgame.models.serializers.SerializableGame--><path d="M142,92.025 C142,92.025 142,146.8498 142,146.8498 " fill="none" id="soen6441riskgame.models.serializers.SerializableGame.Builder-soen6441riskgame.models.serializers.SerializableGame" style="stroke: #A80036; stroke-width: 1.0; stroke-dasharray: 7.0,7.0;"/><polygon fill="#A80036" points="142,151.8498,146,142.8498,142,146.8498,138,142.8498,142,151.8498" style="stroke: #A80036; stroke-width: 1.0;"/><!--
@startuml

skinparam svgLinkTarget _parent
skinparam linetype ortho
package soen6441riskgame.models.serializers [[../../../soen6441riskgame/models/serializers/package-summary.html{soen6441riskgame.models.serializers}]] #lightyellow {
}

class "<b><size:14>ArrayNameOnlyJsonAdapter</b>" as soen6441riskgame.models.serializers.ArrayNameOnlyJsonAdapter  [[../../../soen6441riskgame/models/serializers/ArrayNameOnlyJsonAdapter.html{soen6441riskgame.models.serializers.ArrayNameOnlyJsonAdapter}]] {
}

hide soen6441riskgame.models.serializers.ArrayNameOnlyJsonAdapter fields
hide soen6441riskgame.models.serializers.ArrayNameOnlyJsonAdapter methods

class "<b><size:14>NameOnlyJsonAdapter</b>" as soen6441riskgame.models.serializers.NameOnlyJsonAdapter  [[../../../soen6441riskgame/models/serializers/NameOnlyJsonAdapter.html{soen6441riskgame.models.serializers.NameOnlyJsonAdapter}]] {
}

hide soen6441riskgame.models.serializers.NameOnlyJsonAdapter fields
hide soen6441riskgame.models.serializers.NameOnlyJsonAdapter methods

class "<b><size:14>NameOnlySerializable</b>" as soen6441riskgame.models.serializers.NameOnlySerializable  [[../../../soen6441riskgame/models/serializers/NameOnlySerializable.html{soen6441riskgame.models.serializers.NameOnlySerializable}]] {
}

hide soen6441riskgame.models.serializers.NameOnlySerializable fields
hide soen6441riskgame.models.serializers.NameOnlySerializable methods

class "<b><size:14>SerializableGame</b>" as soen6441riskgame.models.serializers.SerializableGame  [[../../../soen6441riskgame/models/serializers/SerializableGame.html{soen6441riskgame.models.serializers.SerializableGame}]] {
}

hide soen6441riskgame.models.serializers.SerializableGame fields
hide soen6441riskgame.models.serializers.SerializableGame methods

class "<b><size:14>SerializableGame.Builder</b>" as soen6441riskgame.models.serializers.SerializableGame.Builder  [[../../../soen6441riskgame/models/serializers/SerializableGame.Builder.html{soen6441riskgame.models.serializers.SerializableGame.Builder}]] {
}

hide soen6441riskgame.models.serializers.SerializableGame.Builder fields
hide soen6441riskgame.models.serializers.SerializableGame.Builder methods

soen6441riskgame.models.serializers.ArrayNameOnlyJsonAdapter ..> soen6441riskgame.models.serializers.NameOnlySerializable
soen6441riskgame.models.serializers.SerializableGame.Builder ..> soen6441riskgame.models.serializers.SerializableGame

@enduml

PlantUML version 1.2017.15(Mon Jul 03 12:45:34 EDT 2017)
(GPL source distribution)
Java Runtime: Java(TM) SE Runtime Environment
JVM: Java HotSpot(TM) 64-Bit Server VM
Java Version: 1.8.0_231-b11
Operating System: Windows 10
OS Version: 10.0
Default Encoding: Cp1252
Language: en
Country: US
--></g></svg>