<?xml version="1.0" encoding="UTF-8" standalone="no"?><svg xmlns="http://www.w3.org/2000/svg" xmlns:xlink="http://www.w3.org/1999/xlink" contentScriptType="application/ecmascript" contentStyleType="text/css" height="212px" preserveAspectRatio="none" style="width:323px;height:212px;" version="1.1" viewBox="0 0 323 212" width="323px" zoomAndPan="magnify"><defs><filter height="300%" id="f110240jve92ca" width="300%" x="-1" y="-1"><feGaussianBlur result="blurOut" stdDeviation="2.0"/><feColorMatrix in="blurOut" result="blurOut2" type="matrix" values="0 0 0 0 0 0 0 0 0 0 0 0 0 0 0 0 0 0 .4 0"/><feOffset dx="4.0" dy="4.0" in="blurOut2" result="blurOut3"/><feBlend in="SourceGraphic" in2="blurOut3" mode="normal"/></filter></defs><g><!--cluster soen6441riskgame.models.serializers--><a target="_parent" xlink:actuate="onRequest" xlink:href="../../../soen6441riskgame/models/serializers/package-summary.html" xlink:show="new" xlink:title="soen6441riskgame.models.serializers" xlink:type="simple"><polygon fill="#FFFFE0" filter="url(#f110240jve92ca)" points="22,24,291,24,298,47.6094,301,47.6094,301,200,22,200,22,24" style="stroke: #000000; stroke-width: 2.0;"/><line style="stroke: #000000; stroke-width: 2.0;" x1="22" x2="298" y1="47.6094" y2="47.6094"/><text fill="#000000" font-family="sans-serif" font-size="14" font-weight="bold" lengthAdjust="spacingAndGlyphs" textLength="263" x="26" y="40.5332">soen6441riskgame.models.serializers</text></a><!--class soen6441riskgame.models.serializers.SerializableGame--><a target="_parent" xlink:actuate="onRequest" xlink:href="../../../soen6441riskgame/models/serializers/SerializableGame.html" xlink:show="new" xlink:title="soen6441riskgame.models.serializers.SerializableGame" xlink:type="simple"><rect fill="#FEFECE" filter="url(#f110240jve92ca)" height="32" id="soen6441riskgame.models.serializers.SerializableGame" style="stroke: #A80036; stroke-width: 1.5;" width="153" x="84.5" y="152"/><ellipse cx="99.5" cy="168" fill="#ADD1B2" rx="11" ry="11" style="stroke: #A80036; stroke-width: 1.0;"/><path d="M102.2656,163.875 Q102.4219,163.6563 102.6094,163.5469 Q102.7969,163.4375 103.0156,163.4375 Q103.3906,163.4375 103.625,163.6953 Q103.8594,163.9531 103.8594,164.5625 L103.8594,166.0156 Q103.8594,166.625 103.625,166.8906 Q103.3906,167.1563 103.0156,167.1563 Q102.6719,167.1563 102.4688,166.9531 Q102.2656,166.7656 102.1563,166.25 Q102.1094,165.8906 101.9219,165.7031 Q101.5938,165.3281 100.9844,165.1094 Q100.375,164.8906 99.75,164.8906 Q98.9844,164.8906 98.3516,165.2188 Q97.7188,165.5469 97.2266,166.2969 Q96.7344,167.0469 96.7344,168.0781 L96.7344,169.1719 Q96.7344,170.4063 97.625,171.2266 Q98.5156,172.0469 100.1094,172.0469 Q101.0469,172.0469 101.7031,171.7969 Q102.0938,171.6406 102.5156,171.2031 Q102.7813,170.9375 102.9297,170.8594 Q103.0781,170.7813 103.2813,170.7813 Q103.6094,170.7813 103.8672,171.0391 Q104.125,171.2969 104.125,171.6406 Q104.125,171.9844 103.7813,172.3906 Q103.2813,172.9688 102.4844,173.2969 Q101.4063,173.75 100.1094,173.75 Q98.5938,173.75 97.3906,173.125 Q96.4063,172.625 95.7188,171.5547 Q95.0313,170.4844 95.0313,169.2031 L95.0313,168.0469 Q95.0313,166.7188 95.6484,165.5703 Q96.2656,164.4219 97.3594,163.8047 Q98.4531,163.1875 99.6875,163.1875 Q100.4219,163.1875 101.0703,163.3516 Q101.7188,163.5156 102.2656,163.875 Z "/><text fill="#000000" font-family="sans-serif" font-size="14" font-weight="bold" lengthAdjust="spacingAndGlyphs" textLength="121" x="113.5" y="173.7285">SerializableGame</text></a><!--class soen6441riskgame.models.serializers.SerializableGame.Builder--><a target="_parent" xlink:actuate="onRequest" xlink:href="../../../soen6441riskgame/models/serializers/SerializableGame.Builder.html" xlink:show="new" xlink:title="soen6441riskgame.models.serializers.SerializableGame.Builder" xlink:type="simple"><rect fill="#FEFECE" filter="url(#f110240jve92ca)" height="32" id="soen6441riskgame.models.serializers.SerializableGame.Builder" style="stroke: #A80036; stroke-width: 1.5;" width="208" x="57" y="60"/><ellipse cx="72" cy="76" fill="#ADD1B2" rx="11" ry="11" style="stroke: #A80036; stroke-width: 1.0;"/><path d="M74.7656,71.875 Q74.9219,71.6563 75.1094,71.5469 Q75.2969,71.4375 75.5156,71.4375 Q75.8906,71.4375 76.125,71.6953 Q76.3594,71.9531 76.3594,72.5625 L76.3594,74.0156 Q76.3594,74.625 76.125,74.8906 Q75.8906,75.1563 75.5156,75.1563 Q75.1719,75.1563 74.9688,74.9531 Q74.7656,74.7656 74.6563,74.25 Q74.6094,73.8906 74.4219,73.7031 Q74.0938,73.3281 73.4844,73.1094 Q72.875,72.8906 72.25,72.8906 Q71.4844,72.8906 70.8516,73.2188 Q70.2188,73.5469 69.7266,74.2969 Q69.2344,75.0469 69.2344,76.0781 L69.2344,77.1719 Q69.2344,78.4063 70.125,79.2266 Q71.0156,80.0469 72.6094,80.0469 Q73.5469,80.0469 74.2031,79.7969 Q74.5938,79.6406 75.0156,79.2031 Q75.2813,78.9375 75.4297,78.8594 Q75.5781,78.7813 75.7813,78.7813 Q76.1094,78.7813 76.3672,79.0391 Q76.625,79.2969 76.625,79.6406 Q76.625,79.9844 76.2813,80.3906 Q75.7813,80.9688 74.9844,81.2969 Q73.9063,81.75 72.6094,81.75 Q71.0938,81.75 69.8906,81.125 Q68.9063,80.625 68.2188,79.5547 Q67.5313,78.4844 67.5313,77.2031 L67.5313,76.0469 Q67.5313,74.7188 68.1484,73.5703 Q68.7656,72.4219 69.8594,71.8047 Q70.9531,71.1875 72.1875,71.1875 Q72.9219,71.1875 73.5703,71.3516 Q74.2188,71.5156 74.7656,71.875 Z "/><text fill="#000000" font-family="sans-serif" font-size="14" font-weight="bold" lengthAdjust="spacingAndGlyphs" textLength="176" x="86" y="81.7285">SerializableGame.Builder</text></a><!--link soen6441riskgame.models.serializers.SerializableGame.Builder to soen6441riskgame.models.serializers.SerializableGame--><path d="M161,92.025 C161,92.025 161,146.8498 161,146.8498 " fill="none" id="soen6441riskgame.models.serializers.SerializableGame.Builder-soen6441riskgame.models.serializers.SerializableGame" style="stroke: #A80036; stroke-width: 1.0; stroke-dasharray: 7.0,7.0;"/><polygon fill="#A80036" points="161,151.8498,165,142.8498,161,146.8498,157,142.8498,161,151.8498" style="stroke: #A80036; stroke-width: 1.0;"/><!--
@startuml

skinparam svgLinkTarget _parent
skinparam linetype ortho
package soen6441riskgame.models.serializers [[../../../soen6441riskgame/models/serializers/package-summary.html{soen6441riskgame.models.serializers}]] #lightyellow {
}

class "<b><size:14>SerializableGame</b>" as soen6441riskgame.models.serializers.SerializableGame  [[../../../soen6441riskgame/models/serializers/SerializableGame.html{soen6441riskgame.models.serializers.SerializableGame}]] {
}

hide soen6441riskgame.models.serializers.SerializableGame fields
hide soen6441riskgame.models.serializers.SerializableGame methods

class "<b><size:14>SerializableGame.Builder</b>" as soen6441riskgame.models.serializers.SerializableGame.Builder  [[../../../soen6441riskgame/models/serializers/SerializableGame.Builder.html{soen6441riskgame.models.serializers.SerializableGame.Builder}]] {
}

hide soen6441riskgame.models.serializers.SerializableGame.Builder fields
hide soen6441riskgame.models.serializers.SerializableGame.Builder methods

soen6441riskgame.models.serializers.SerializableGame.Builder ..> soen6441riskgame.models.serializers.SerializableGame

@enduml

PlantUML version 1.2017.15(Mon Jul 03 12:45:34 EDT 2017)
(GPL source distribution)
Java Runtime: Java(TM) SE Runtime Environment
JVM: Java HotSpot(TM) 64-Bit Server VM
Java Version: 1.8.0_231-b11
Operating System: Windows 10
OS Version: 10.0
Default Encoding: Cp1252
Language: en
Country: US
--></g></svg>