<?xml version="1.0" encoding="UTF-8" standalone="no"?><svg xmlns="http://www.w3.org/2000/svg" xmlns:xlink="http://www.w3.org/1999/xlink" contentScriptType="application/ecmascript" contentStyleType="text/css" height="391px" preserveAspectRatio="none" style="width:929px;height:391px;" version="1.1" viewBox="0 0 929 391" width="929px" zoomAndPan="magnify"><defs><filter height="300%" id="fmx32re2u5lpb" width="300%" x="-1" y="-1"><feGaussianBlur result="blurOut" stdDeviation="2.0"/><feColorMatrix in="blurOut" result="blurOut2" type="matrix" values="0 0 0 0 0 0 0 0 0 0 0 0 0 0 0 0 0 0 .4 0"/><feOffset dx="4.0" dy="4.0" in="blurOut2" result="blurOut3"/><feBlend in="SourceGraphic" in2="blurOut3" mode="normal"/></filter></defs><g><!--class soen6441riskgame.models.serializers.SerializableGame--><a target="_parent" xlink:actuate="onRequest" xlink:href="../../../soen6441riskgame/models/serializers/SerializableGame.html" xlink:show="new" xlink:title="soen6441riskgame.models.serializers.SerializableGame" xlink:type="simple"><rect fill="#FEFECE" filter="url(#fmx32re2u5lpb)" height="166.875" id="soen6441riskgame.models.serializers.SerializableGame" style="stroke: #A80036; stroke-width: 1.5;" width="205" x="363.5" y="108"/><ellipse cx="378.5" cy="128.0938" fill="#ADD1B2" rx="11" ry="11" style="stroke: #A80036; stroke-width: 1.0;"/><path d="M381.2656,123.9688 Q381.4219,123.75 381.6094,123.6406 Q381.7969,123.5313 382.0156,123.5313 Q382.3906,123.5313 382.625,123.7891 Q382.8594,124.0469 382.8594,124.6563 L382.8594,126.1094 Q382.8594,126.7188 382.625,126.9844 Q382.3906,127.25 382.0156,127.25 Q381.6719,127.25 381.4688,127.0469 Q381.2656,126.8594 381.1563,126.3438 Q381.1094,125.9844 380.9219,125.7969 Q380.5938,125.4219 379.9844,125.2031 Q379.375,124.9844 378.75,124.9844 Q377.9844,124.9844 377.3516,125.3125 Q376.7188,125.6406 376.2266,126.3906 Q375.7344,127.1406 375.7344,128.1719 L375.7344,129.2656 Q375.7344,130.5 376.625,131.3203 Q377.5156,132.1406 379.1094,132.1406 Q380.0469,132.1406 380.7031,131.8906 Q381.0938,131.7344 381.5156,131.2969 Q381.7813,131.0313 381.9297,130.9531 Q382.0781,130.875 382.2813,130.875 Q382.6094,130.875 382.8672,131.1328 Q383.125,131.3906 383.125,131.7344 Q383.125,132.0781 382.7813,132.4844 Q382.2813,133.0625 381.4844,133.3906 Q380.4063,133.8438 379.1094,133.8438 Q377.5938,133.8438 376.3906,133.2188 Q375.4063,132.7188 374.7188,131.6484 Q374.0313,130.5781 374.0313,129.2969 L374.0313,128.1406 Q374.0313,126.8125 374.6484,125.6641 Q375.2656,124.5156 376.3594,123.8984 Q377.4531,123.2813 378.6875,123.2813 Q379.4219,123.2813 380.0703,123.4453 Q380.7188,123.6094 381.2656,123.9688 Z "/><text fill="#000000" font-family="sans-serif" font-size="14" font-weight="bold" lengthAdjust="spacingAndGlyphs" textLength="121" x="418.5" y="127.5332">SerializableGame</text><text fill="#000000" font-family="sans-serif" font-size="10" lengthAdjust="spacingAndGlyphs" textLength="173" x="392.5" y="140.9902">soen6441riskgame.models.serializers</text><line style="stroke: #A80036; stroke-width: 1.5;" x1="364.5" x2="567.5" y1="148.1875" y2="148.1875"/><rect fill="none" height="6" style="stroke: #C82930; stroke-width: 1.0;" width="6" x="371.5" y="157.6055"/><text fill="#000000" font-family="sans-serif" font-size="11" lengthAdjust="spacingAndGlyphs" textLength="115" x="383.5" y="163.6064">List&lt;Country&gt; countries</text><rect fill="none" height="6" style="stroke: #C82930; stroke-width: 1.0;" width="6" x="371.5" y="171.4414"/><text fill="#000000" font-family="sans-serif" font-size="11" lengthAdjust="spacingAndGlyphs" textLength="127" x="383.5" y="177.4424">List&lt;Continent&gt; continents</text><rect fill="none" height="6" style="stroke: #C82930; stroke-width: 1.0;" width="6" x="371.5" y="185.2773"/><text fill="#000000" font-family="sans-serif" font-size="11" lengthAdjust="spacingAndGlyphs" textLength="98" x="383.5" y="191.2783">List&lt;Player&gt; players</text><rect fill="none" height="6" style="stroke: #C82930; stroke-width: 1.0;" width="6" x="371.5" y="199.1133"/><text fill="#000000" font-family="sans-serif" font-size="11" lengthAdjust="spacingAndGlyphs" textLength="52" x="383.5" y="205.1143">int borders</text><rect fill="none" height="6" style="stroke: #C82930; stroke-width: 1.0;" width="6" x="371.5" y="212.9492"/><text fill="#000000" font-family="sans-serif" font-size="11" lengthAdjust="spacingAndGlyphs" textLength="54" x="383.5" y="218.9502">Card cards</text><line style="stroke: #A80036; stroke-width: 1.5;" x1="364.5" x2="567.5" y1="225.3672" y2="225.3672"/><ellipse cx="374.5" cy="237.7852" fill="#84BE84" rx="3" ry="3" style="stroke: #038048; stroke-width: 1.0;"/><text fill="#000000" font-family="sans-serif" font-size="11" lengthAdjust="spacingAndGlyphs" textLength="91" x="383.5" y="240.7861">SerializableGame()</text><ellipse cx="374.5" cy="251.6211" fill="#84BE84" rx="3" ry="3" style="stroke: #038048; stroke-width: 1.0;"/><text fill="#000000" font-family="sans-serif" font-size="11" lengthAdjust="spacingAndGlyphs" textLength="79" x="383.5" y="254.6221">String serialize()</text><ellipse cx="374.5" cy="265.457" fill="#84BE84" rx="3" ry="3" style="stroke: #038048; stroke-width: 1.0;"/><text fill="#000000" font-family="sans-serif" font-size="11" lengthAdjust="spacingAndGlyphs" textLength="176" x="383.5" y="268.458">void deserialize(JsonReader reader)</text></a><!--class soen6441riskgame.controllers.SaveLoadController--><a target="_parent" xlink:actuate="onRequest" xlink:href="../../../soen6441riskgame/controllers/SaveLoadController.html" xlink:show="new" xlink:title="soen6441riskgame.controllers.SaveLoadController" xlink:type="simple"><rect fill="#FFFFFF" filter="url(#fmx32re2u5lpb)" height="40.1875" id="soen6441riskgame.controllers.SaveLoadController" style="stroke: #A80036; stroke-width: 1.5;" width="172" x="268" y="8"/><rect fill="#FFFFFF" height="40.1875" style="stroke: #A80036; stroke-width: 1.5;" width="172" x="268" y="8"/><ellipse cx="283" cy="28.0938" fill="#ADD1B2" rx="11" ry="11" style="stroke: #A80036; stroke-width: 1.0;"/><path d="M285.7656,23.9688 Q285.9219,23.75 286.1094,23.6406 Q286.2969,23.5313 286.5156,23.5313 Q286.8906,23.5313 287.125,23.7891 Q287.3594,24.0469 287.3594,24.6563 L287.3594,26.1094 Q287.3594,26.7188 287.125,26.9844 Q286.8906,27.25 286.5156,27.25 Q286.1719,27.25 285.9688,27.0469 Q285.7656,26.8594 285.6563,26.3438 Q285.6094,25.9844 285.4219,25.7969 Q285.0938,25.4219 284.4844,25.2031 Q283.875,24.9844 283.25,24.9844 Q282.4844,24.9844 281.8516,25.3125 Q281.2188,25.6406 280.7266,26.3906 Q280.2344,27.1406 280.2344,28.1719 L280.2344,29.2656 Q280.2344,30.5 281.125,31.3203 Q282.0156,32.1406 283.6094,32.1406 Q284.5469,32.1406 285.2031,31.8906 Q285.5938,31.7344 286.0156,31.2969 Q286.2813,31.0313 286.4297,30.9531 Q286.5781,30.875 286.7813,30.875 Q287.1094,30.875 287.3672,31.1328 Q287.625,31.3906 287.625,31.7344 Q287.625,32.0781 287.2813,32.4844 Q286.7813,33.0625 285.9844,33.3906 Q284.9063,33.8438 283.6094,33.8438 Q282.0938,33.8438 280.8906,33.2188 Q279.9063,32.7188 279.2188,31.6484 Q278.5313,30.5781 278.5313,29.2969 L278.5313,28.1406 Q278.5313,26.8125 279.1484,25.6641 Q279.7656,24.5156 280.8594,23.8984 Q281.9531,23.2813 283.1875,23.2813 Q283.9219,23.2813 284.5703,23.4453 Q285.2188,23.6094 285.7656,23.9688 Z "/><text fill="#000000" font-family="sans-serif" font-size="14" font-weight="bold" lengthAdjust="spacingAndGlyphs" textLength="140" x="297" y="27.5332">SaveLoadController</text><text fill="#000000" font-family="sans-serif" font-size="10" lengthAdjust="spacingAndGlyphs" textLength="139" x="297.5" y="40.9902">soen6441riskgame.controllers</text></a><!--class soen6441riskgame.models.Country--><a target="_parent" xlink:actuate="onRequest" xlink:href="../../../soen6441riskgame/models/Country.html" xlink:show="new" xlink:title="soen6441riskgame.models.Country" xlink:type="simple"><rect fill="#FFFFFF" filter="url(#fmx32re2u5lpb)" height="40.1875" id="soen6441riskgame.models.Country" style="stroke: #A80036; stroke-width: 1.5;" width="156" x="6" y="335"/><rect fill="#FFFFFF" height="40.1875" style="stroke: #A80036; stroke-width: 1.5;" width="156" x="6" y="335"/><ellipse cx="21" cy="355.0938" fill="#ADD1B2" rx="11" ry="11" style="stroke: #A80036; stroke-width: 1.0;"/><path d="M23.7656,350.9688 Q23.9219,350.75 24.1094,350.6406 Q24.2969,350.5313 24.5156,350.5313 Q24.8906,350.5313 25.125,350.7891 Q25.3594,351.0469 25.3594,351.6563 L25.3594,353.1094 Q25.3594,353.7188 25.125,353.9844 Q24.8906,354.25 24.5156,354.25 Q24.1719,354.25 23.9688,354.0469 Q23.7656,353.8594 23.6563,353.3438 Q23.6094,352.9844 23.4219,352.7969 Q23.0938,352.4219 22.4844,352.2031 Q21.875,351.9844 21.25,351.9844 Q20.4844,351.9844 19.8516,352.3125 Q19.2188,352.6406 18.7266,353.3906 Q18.2344,354.1406 18.2344,355.1719 L18.2344,356.2656 Q18.2344,357.5 19.125,358.3203 Q20.0156,359.1406 21.6094,359.1406 Q22.5469,359.1406 23.2031,358.8906 Q23.5938,358.7344 24.0156,358.2969 Q24.2813,358.0313 24.4297,357.9531 Q24.5781,357.875 24.7813,357.875 Q25.1094,357.875 25.3672,358.1328 Q25.625,358.3906 25.625,358.7344 Q25.625,359.0781 25.2813,359.4844 Q24.7813,360.0625 23.9844,360.3906 Q22.9063,360.8438 21.6094,360.8438 Q20.0938,360.8438 18.8906,360.2188 Q17.9063,359.7188 17.2188,358.6484 Q16.5313,357.5781 16.5313,356.2969 L16.5313,355.1406 Q16.5313,353.8125 17.1484,352.6641 Q17.7656,351.5156 18.8594,350.8984 Q19.9531,350.2813 21.1875,350.2813 Q21.9219,350.2813 22.5703,350.4453 Q23.2188,350.6094 23.7656,350.9688 Z "/><text fill="#000000" font-family="sans-serif" font-size="14" font-weight="bold" lengthAdjust="spacingAndGlyphs" textLength="55" x="69.5" y="354.5332">Country</text><text fill="#000000" font-family="sans-serif" font-size="10" lengthAdjust="spacingAndGlyphs" textLength="124" x="35" y="367.9902">soen6441riskgame.models</text></a><!--class soen6441riskgame.models.Continent--><a target="_parent" xlink:actuate="onRequest" xlink:href="../../../soen6441riskgame/models/Continent.html" xlink:show="new" xlink:title="soen6441riskgame.models.Continent" xlink:type="simple"><rect fill="#FFFFFF" filter="url(#fmx32re2u5lpb)" height="40.1875" id="soen6441riskgame.models.Continent" style="stroke: #A80036; stroke-width: 1.5;" width="156" x="197" y="335"/><rect fill="#FFFFFF" height="40.1875" style="stroke: #A80036; stroke-width: 1.5;" width="156" x="197" y="335"/><ellipse cx="212" cy="355.0938" fill="#ADD1B2" rx="11" ry="11" style="stroke: #A80036; stroke-width: 1.0;"/><path d="M214.7656,350.9688 Q214.9219,350.75 215.1094,350.6406 Q215.2969,350.5313 215.5156,350.5313 Q215.8906,350.5313 216.125,350.7891 Q216.3594,351.0469 216.3594,351.6563 L216.3594,353.1094 Q216.3594,353.7188 216.125,353.9844 Q215.8906,354.25 215.5156,354.25 Q215.1719,354.25 214.9688,354.0469 Q214.7656,353.8594 214.6563,353.3438 Q214.6094,352.9844 214.4219,352.7969 Q214.0938,352.4219 213.4844,352.2031 Q212.875,351.9844 212.25,351.9844 Q211.4844,351.9844 210.8516,352.3125 Q210.2188,352.6406 209.7266,353.3906 Q209.2344,354.1406 209.2344,355.1719 L209.2344,356.2656 Q209.2344,357.5 210.125,358.3203 Q211.0156,359.1406 212.6094,359.1406 Q213.5469,359.1406 214.2031,358.8906 Q214.5938,358.7344 215.0156,358.2969 Q215.2813,358.0313 215.4297,357.9531 Q215.5781,357.875 215.7813,357.875 Q216.1094,357.875 216.3672,358.1328 Q216.625,358.3906 216.625,358.7344 Q216.625,359.0781 216.2813,359.4844 Q215.7813,360.0625 214.9844,360.3906 Q213.9063,360.8438 212.6094,360.8438 Q211.0938,360.8438 209.8906,360.2188 Q208.9063,359.7188 208.2188,358.6484 Q207.5313,357.5781 207.5313,356.2969 L207.5313,355.1406 Q207.5313,353.8125 208.1484,352.6641 Q208.7656,351.5156 209.8594,350.8984 Q210.9531,350.2813 212.1875,350.2813 Q212.9219,350.2813 213.5703,350.4453 Q214.2188,350.6094 214.7656,350.9688 Z "/><text fill="#000000" font-family="sans-serif" font-size="14" font-weight="bold" lengthAdjust="spacingAndGlyphs" textLength="69" x="253.5" y="354.5332">Continent</text><text fill="#000000" font-family="sans-serif" font-size="10" lengthAdjust="spacingAndGlyphs" textLength="124" x="226" y="367.9902">soen6441riskgame.models</text></a><!--class soen6441riskgame.models.Player--><a target="_parent" xlink:actuate="onRequest" xlink:href="../../../soen6441riskgame/models/Player.html" xlink:show="new" xlink:title="soen6441riskgame.models.Player" xlink:type="simple"><rect fill="#FFFFFF" filter="url(#fmx32re2u5lpb)" height="40.1875" id="soen6441riskgame.models.Player" style="stroke: #A80036; stroke-width: 1.5;" width="156" x="388" y="335"/><rect fill="#FFFFFF" height="40.1875" style="stroke: #A80036; stroke-width: 1.5;" width="156" x="388" y="335"/><ellipse cx="403" cy="355.0938" fill="#ADD1B2" rx="11" ry="11" style="stroke: #A80036; stroke-width: 1.0;"/><path d="M405.7656,350.9688 Q405.9219,350.75 406.1094,350.6406 Q406.2969,350.5313 406.5156,350.5313 Q406.8906,350.5313 407.125,350.7891 Q407.3594,351.0469 407.3594,351.6563 L407.3594,353.1094 Q407.3594,353.7188 407.125,353.9844 Q406.8906,354.25 406.5156,354.25 Q406.1719,354.25 405.9688,354.0469 Q405.7656,353.8594 405.6563,353.3438 Q405.6094,352.9844 405.4219,352.7969 Q405.0938,352.4219 404.4844,352.2031 Q403.875,351.9844 403.25,351.9844 Q402.4844,351.9844 401.8516,352.3125 Q401.2188,352.6406 400.7266,353.3906 Q400.2344,354.1406 400.2344,355.1719 L400.2344,356.2656 Q400.2344,357.5 401.125,358.3203 Q402.0156,359.1406 403.6094,359.1406 Q404.5469,359.1406 405.2031,358.8906 Q405.5938,358.7344 406.0156,358.2969 Q406.2813,358.0313 406.4297,357.9531 Q406.5781,357.875 406.7813,357.875 Q407.1094,357.875 407.3672,358.1328 Q407.625,358.3906 407.625,358.7344 Q407.625,359.0781 407.2813,359.4844 Q406.7813,360.0625 405.9844,360.3906 Q404.9063,360.8438 403.6094,360.8438 Q402.0938,360.8438 400.8906,360.2188 Q399.9063,359.7188 399.2188,358.6484 Q398.5313,357.5781 398.5313,356.2969 L398.5313,355.1406 Q398.5313,353.8125 399.1484,352.6641 Q399.7656,351.5156 400.8594,350.8984 Q401.9531,350.2813 403.1875,350.2813 Q403.9219,350.2813 404.5703,350.4453 Q405.2188,350.6094 405.7656,350.9688 Z "/><text fill="#000000" font-family="sans-serif" font-size="14" font-weight="bold" lengthAdjust="spacingAndGlyphs" textLength="43" x="457.5" y="354.5332">Player</text><text fill="#000000" font-family="sans-serif" font-size="10" lengthAdjust="spacingAndGlyphs" textLength="124" x="417" y="367.9902">soen6441riskgame.models</text></a><!--class soen6441riskgame.models.Card--><a target="_parent" xlink:actuate="onRequest" xlink:href="../../../soen6441riskgame/models/Card.html" xlink:show="new" xlink:title="soen6441riskgame.models.Card" xlink:type="simple"><rect fill="#FFFFFF" filter="url(#fmx32re2u5lpb)" height="40.1875" id="soen6441riskgame.models.Card" style="stroke: #A80036; stroke-width: 1.5;" width="156" x="579" y="335"/><rect fill="#FFFFFF" height="40.1875" style="stroke: #A80036; stroke-width: 1.5;" width="156" x="579" y="335"/><ellipse cx="594" cy="355.0938" fill="#ADD1B2" rx="11" ry="11" style="stroke: #A80036; stroke-width: 1.0;"/><path d="M596.7656,350.9688 Q596.9219,350.75 597.1094,350.6406 Q597.2969,350.5313 597.5156,350.5313 Q597.8906,350.5313 598.125,350.7891 Q598.3594,351.0469 598.3594,351.6563 L598.3594,353.1094 Q598.3594,353.7188 598.125,353.9844 Q597.8906,354.25 597.5156,354.25 Q597.1719,354.25 596.9688,354.0469 Q596.7656,353.8594 596.6563,353.3438 Q596.6094,352.9844 596.4219,352.7969 Q596.0938,352.4219 595.4844,352.2031 Q594.875,351.9844 594.25,351.9844 Q593.4844,351.9844 592.8516,352.3125 Q592.2188,352.6406 591.7266,353.3906 Q591.2344,354.1406 591.2344,355.1719 L591.2344,356.2656 Q591.2344,357.5 592.125,358.3203 Q593.0156,359.1406 594.6094,359.1406 Q595.5469,359.1406 596.2031,358.8906 Q596.5938,358.7344 597.0156,358.2969 Q597.2813,358.0313 597.4297,357.9531 Q597.5781,357.875 597.7813,357.875 Q598.1094,357.875 598.3672,358.1328 Q598.625,358.3906 598.625,358.7344 Q598.625,359.0781 598.2813,359.4844 Q597.7813,360.0625 596.9844,360.3906 Q595.9063,360.8438 594.6094,360.8438 Q593.0938,360.8438 591.8906,360.2188 Q590.9063,359.7188 590.2188,358.6484 Q589.5313,357.5781 589.5313,356.2969 L589.5313,355.1406 Q589.5313,353.8125 590.1484,352.6641 Q590.7656,351.5156 591.8594,350.8984 Q592.9531,350.2813 594.1875,350.2813 Q594.9219,350.2813 595.5703,350.4453 Q596.2188,350.6094 596.7656,350.9688 Z "/><text fill="#000000" font-family="sans-serif" font-size="14" font-weight="bold" lengthAdjust="spacingAndGlyphs" textLength="33" x="653.5" y="354.5332">Card</text><text fill="#000000" font-family="sans-serif" font-size="10" lengthAdjust="spacingAndGlyphs" textLength="124" x="608" y="367.9902">soen6441riskgame.models</text></a><!--class com.google.gson.stream.JsonReader--><rect fill="#D3D3D3" filter="url(#fmx32re2u5lpb)" height="40.1875" id="com.google.gson.stream.JsonReader" style="stroke: #A80036; stroke-width: 1.5;" width="148" x="770" y="335"/><rect fill="#D3D3D3" height="40.1875" style="stroke: #A80036; stroke-width: 1.5;" width="148" x="770" y="335"/><ellipse cx="785" cy="355.0938" fill="#ADD1B2" rx="11" ry="11" style="stroke: #A80036; stroke-width: 1.0;"/><path d="M787.7656,350.9688 Q787.9219,350.75 788.1094,350.6406 Q788.2969,350.5313 788.5156,350.5313 Q788.8906,350.5313 789.125,350.7891 Q789.3594,351.0469 789.3594,351.6563 L789.3594,353.1094 Q789.3594,353.7188 789.125,353.9844 Q788.8906,354.25 788.5156,354.25 Q788.1719,354.25 787.9688,354.0469 Q787.7656,353.8594 787.6563,353.3438 Q787.6094,352.9844 787.4219,352.7969 Q787.0938,352.4219 786.4844,352.2031 Q785.875,351.9844 785.25,351.9844 Q784.4844,351.9844 783.8516,352.3125 Q783.2188,352.6406 782.7266,353.3906 Q782.2344,354.1406 782.2344,355.1719 L782.2344,356.2656 Q782.2344,357.5 783.125,358.3203 Q784.0156,359.1406 785.6094,359.1406 Q786.5469,359.1406 787.2031,358.8906 Q787.5938,358.7344 788.0156,358.2969 Q788.2813,358.0313 788.4297,357.9531 Q788.5781,357.875 788.7813,357.875 Q789.1094,357.875 789.3672,358.1328 Q789.625,358.3906 789.625,358.7344 Q789.625,359.0781 789.2813,359.4844 Q788.7813,360.0625 787.9844,360.3906 Q786.9063,360.8438 785.6094,360.8438 Q784.0938,360.8438 782.8906,360.2188 Q781.9063,359.7188 781.2188,358.6484 Q780.5313,357.5781 780.5313,356.2969 L780.5313,355.1406 Q780.5313,353.8125 781.1484,352.6641 Q781.7656,351.5156 782.8594,350.8984 Q783.9531,350.2813 785.1875,350.2813 Q785.9219,350.2813 786.5703,350.4453 Q787.2188,350.6094 787.7656,350.9688 Z "/><text fill="#000000" font-family="sans-serif" font-size="14" font-weight="bold" lengthAdjust="spacingAndGlyphs" textLength="85" x="814.5" y="354.5332">JsonReader</text><text fill="#000000" font-family="sans-serif" font-size="10" lengthAdjust="spacingAndGlyphs" textLength="116" x="799" y="367.9902">com.google.gson.stream</text><!--class soen6441riskgame.models.serializers.SerializableGame.Builder--><a target="_parent" xlink:actuate="onRequest" xlink:href="../../../soen6441riskgame/models/serializers/SerializableGame.Builder.html" xlink:show="new" xlink:title="soen6441riskgame.models.serializers.SerializableGame.Builder" xlink:type="simple"><rect fill="#FEFECE" filter="url(#fmx32re2u5lpb)" height="40.1875" id="soen6441riskgame.models.serializers.SerializableGame.Builder" style="stroke: #A80036; stroke-width: 1.5;" width="208" x="475" y="8"/><ellipse cx="490" cy="28.0938" fill="#ADD1B2" rx="11" ry="11" style="stroke: #A80036; stroke-width: 1.0;"/><path d="M492.7656,23.9688 Q492.9219,23.75 493.1094,23.6406 Q493.2969,23.5313 493.5156,23.5313 Q493.8906,23.5313 494.125,23.7891 Q494.3594,24.0469 494.3594,24.6563 L494.3594,26.1094 Q494.3594,26.7188 494.125,26.9844 Q493.8906,27.25 493.5156,27.25 Q493.1719,27.25 492.9688,27.0469 Q492.7656,26.8594 492.6563,26.3438 Q492.6094,25.9844 492.4219,25.7969 Q492.0938,25.4219 491.4844,25.2031 Q490.875,24.9844 490.25,24.9844 Q489.4844,24.9844 488.8516,25.3125 Q488.2188,25.6406 487.7266,26.3906 Q487.2344,27.1406 487.2344,28.1719 L487.2344,29.2656 Q487.2344,30.5 488.125,31.3203 Q489.0156,32.1406 490.6094,32.1406 Q491.5469,32.1406 492.2031,31.8906 Q492.5938,31.7344 493.0156,31.2969 Q493.2813,31.0313 493.4297,30.9531 Q493.5781,30.875 493.7813,30.875 Q494.1094,30.875 494.3672,31.1328 Q494.625,31.3906 494.625,31.7344 Q494.625,32.0781 494.2813,32.4844 Q493.7813,33.0625 492.9844,33.3906 Q491.9063,33.8438 490.6094,33.8438 Q489.0938,33.8438 487.8906,33.2188 Q486.9063,32.7188 486.2188,31.6484 Q485.5313,30.5781 485.5313,29.2969 L485.5313,28.1406 Q485.5313,26.8125 486.1484,25.6641 Q486.7656,24.5156 487.8594,23.8984 Q488.9531,23.2813 490.1875,23.2813 Q490.9219,23.2813 491.5703,23.4453 Q492.2188,23.6094 492.7656,23.9688 Z "/><text fill="#000000" font-family="sans-serif" font-size="14" font-weight="bold" lengthAdjust="spacingAndGlyphs" textLength="176" x="504" y="27.5332">SerializableGame.Builder</text><text fill="#000000" font-family="sans-serif" font-size="10" lengthAdjust="spacingAndGlyphs" textLength="173" x="505.5" y="40.9902">soen6441riskgame.models.serializers</text></a><!--link soen6441riskgame.controllers.SaveLoadController to soen6441riskgame.models.serializers.SerializableGame--><path d="M401.75,48.048 C401.75,48.048 401.75,102.759 401.75,102.759 " fill="none" id="soen6441riskgame.controllers.SaveLoadController-soen6441riskgame.models.serializers.SerializableGame" style="stroke: #A80036; stroke-width: 1.0; stroke-dasharray: 7.0,7.0;"/><polygon fill="#A80036" points="401.75,107.759,405.75,98.759,401.75,102.759,397.75,98.759,401.75,107.759" style="stroke: #A80036; stroke-width: 1.0;"/><!--link soen6441riskgame.models.serializers.SerializableGame to soen6441riskgame.models.Country--><path d="M363.38,192 C250.232,192 84,192 84,192 C84,192 84,329.6855 84,329.6855 " fill="none" id="soen6441riskgame.models.serializers.SerializableGame-soen6441riskgame.models.Country" style="stroke: #A80036; stroke-width: 1.0;"/><polygon fill="#A80036" points="84,334.6855,88,325.6855,84,329.6855,80,325.6855,84,334.6855" style="stroke: #A80036; stroke-width: 1.0;"/><text fill="#000000" font-family="sans-serif" font-size="13" lengthAdjust="spacingAndGlyphs" textLength="62" x="13.2813" y="324.2402">countries *</text><!--link soen6441riskgame.models.serializers.SerializableGame to soen6441riskgame.models.Continent--><path d="M375.75,275.1659 C375.75,315.3924 375.75,355 375.75,355 C375.75,355 358.14,355 358.14,355 " fill="none" id="soen6441riskgame.models.serializers.SerializableGame-soen6441riskgame.models.Continent" style="stroke: #A80036; stroke-width: 1.0;"/><polygon fill="#A80036" points="353.14,355,362.14,359,358.14,355,362.14,351,353.14,355" style="stroke: #A80036; stroke-width: 1.0;"/><text fill="#000000" font-family="sans-serif" font-size="13" lengthAdjust="spacingAndGlyphs" textLength="69" x="311.6696" y="377.9732">continents *</text><!--link soen6441riskgame.models.serializers.SerializableGame to soen6441riskgame.models.Player--><path d="M466,275.1659 C466,275.1659 466,329.88 466,329.88 " fill="none" id="soen6441riskgame.models.serializers.SerializableGame-soen6441riskgame.models.Player" style="stroke: #A80036; stroke-width: 1.0;"/><polygon fill="#A80036" points="466,334.88,470,325.88,466,329.88,462,325.88,466,334.88" style="stroke: #A80036; stroke-width: 1.0;"/><text fill="#000000" font-family="sans-serif" font-size="13" lengthAdjust="spacingAndGlyphs" textLength="51" x="407.5094" y="324.139">players *</text><!--link soen6441riskgame.models.serializers.SerializableGame to soen6441riskgame.models.Card--><path d="M556.25,275.1659 C556.25,315.3924 556.25,355 556.25,355 C556.25,355 573.86,355 573.86,355 " fill="none" id="soen6441riskgame.models.serializers.SerializableGame-soen6441riskgame.models.Card" style="stroke: #A80036; stroke-width: 1.0;"/><polygon fill="#A80036" points="578.86,355,569.86,351,573.86,355,569.86,359,578.86,355" style="stroke: #A80036; stroke-width: 1.0;"/><text fill="#000000" font-family="sans-serif" font-size="13" lengthAdjust="spacingAndGlyphs" textLength="32" x="538.7611" y="350.8639">cards</text><!--link soen6441riskgame.models.serializers.SerializableGame to com.google.gson.stream.JsonReader--><path d="M568.791,192 C680.724,192 844,192 844,192 C844,192 844,329.6855 844,329.6855 " fill="none" id="soen6441riskgame.models.serializers.SerializableGame-com.google.gson.stream.JsonReader" style="stroke: #A80036; stroke-width: 1.0; stroke-dasharray: 7.0,7.0;"/><polygon fill="#A80036" points="844,334.6855,848,325.6855,844,329.6855,840,325.6855,844,334.6855" style="stroke: #A80036; stroke-width: 1.0;"/><!--link soen6441riskgame.models.serializers.SerializableGame.Builder to soen6441riskgame.models.serializers.SerializableGame--><path d="M521.75,48.048 C521.75,48.048 521.75,102.759 521.75,102.759 " fill="none" id="soen6441riskgame.models.serializers.SerializableGame.Builder-soen6441riskgame.models.serializers.SerializableGame" style="stroke: #A80036; stroke-width: 1.0; stroke-dasharray: 7.0,7.0;"/><polygon fill="#A80036" points="521.75,107.759,525.75,98.759,521.75,102.759,517.75,98.759,521.75,107.759" style="stroke: #A80036; stroke-width: 1.0;"/><!--
@startuml

skinparam svgLinkTarget _parent
skinparam linetype ortho
set namespaceSeparator none
class "<b><size:14>SerializableGame</b>\n<size:10>soen6441riskgame.models.serializers" as soen6441riskgame.models.serializers.SerializableGame  [[../../../soen6441riskgame/models/serializers/SerializableGame.html{soen6441riskgame.models.serializers.SerializableGame}]] {
-List<Country> countries
-List<Continent> continents
-List<Player> players
-int borders
-Card cards
+SerializableGame()
+String serialize()
+void deserialize(JsonReader reader)
}


class "<b><size:14>SaveLoadController</b>\n<size:10>soen6441riskgame.controllers" as soen6441riskgame.controllers.SaveLoadController  [[../../../soen6441riskgame/controllers/SaveLoadController.html{soen6441riskgame.controllers.SaveLoadController}]] #white {
}

hide soen6441riskgame.controllers.SaveLoadController fields
hide soen6441riskgame.controllers.SaveLoadController methods

soen6441riskgame.controllers.SaveLoadController ..> soen6441riskgame.models.serializers.SerializableGame


class "<b><size:14>Country</b>\n<size:10>soen6441riskgame.models" as soen6441riskgame.models.Country  [[../../../soen6441riskgame/models/Country.html{soen6441riskgame.models.Country}]] #white {
}

hide soen6441riskgame.models.Country fields
hide soen6441riskgame.models.Country methods

soen6441riskgame.models.serializers.SerializableGame - ->  "countries *" soen6441riskgame.models.Country


class "<b><size:14>Continent</b>\n<size:10>soen6441riskgame.models" as soen6441riskgame.models.Continent  [[../../../soen6441riskgame/models/Continent.html{soen6441riskgame.models.Continent}]] #white {
}

hide soen6441riskgame.models.Continent fields
hide soen6441riskgame.models.Continent methods

soen6441riskgame.models.serializers.SerializableGame - ->  "continents *" soen6441riskgame.models.Continent


class "<b><size:14>Player</b>\n<size:10>soen6441riskgame.models" as soen6441riskgame.models.Player  [[../../../soen6441riskgame/models/Player.html{soen6441riskgame.models.Player}]] #white {
}

hide soen6441riskgame.models.Player fields
hide soen6441riskgame.models.Player methods

soen6441riskgame.models.serializers.SerializableGame - ->  "players *" soen6441riskgame.models.Player

class "<b><size:14>Card</b>\n<size:10>soen6441riskgame.models" as soen6441riskgame.models.Card  [[../../../soen6441riskgame/models/Card.html{soen6441riskgame.models.Card}]] #white {
}

hide soen6441riskgame.models.Card fields
hide soen6441riskgame.models.Card methods

soen6441riskgame.models.serializers.SerializableGame - ->  "cards" soen6441riskgame.models.Card

class "<b><size:14>JsonReader</b>\n<size:10>com.google.gson.stream" as com.google.gson.stream.JsonReader  #lightgrey {
}

hide com.google.gson.stream.JsonReader fields
hide com.google.gson.stream.JsonReader methods

soen6441riskgame.models.serializers.SerializableGame ..> com.google.gson.stream.JsonReader

class "<b><size:14>SerializableGame.Builder</b>\n<size:10>soen6441riskgame.models.serializers" as soen6441riskgame.models.serializers.SerializableGame.Builder  [[../../../soen6441riskgame/models/serializers/SerializableGame.Builder.html{soen6441riskgame.models.serializers.SerializableGame.Builder}]] {
}

hide soen6441riskgame.models.serializers.SerializableGame.Builder fields
hide soen6441riskgame.models.serializers.SerializableGame.Builder methods

soen6441riskgame.models.serializers.SerializableGame.Builder ..> soen6441riskgame.models.serializers.SerializableGame


@enduml

PlantUML version 1.2017.15(Mon Jul 03 12:45:34 EDT 2017)
(GPL source distribution)
Java Runtime: Java(TM) SE Runtime Environment
JVM: Java HotSpot(TM) 64-Bit Server VM
Java Version: 1.8.0_231-b11
Operating System: Windows 10
OS Version: 10.0
Default Encoding: Cp1252
Language: en
Country: US
--></g></svg>