<?xml version="1.0" encoding="UTF-8" standalone="no"?><svg xmlns="http://www.w3.org/2000/svg" xmlns:xlink="http://www.w3.org/1999/xlink" contentScriptType="application/ecmascript" contentStyleType="text/css" height="372px" preserveAspectRatio="none" style="width:746px;height:372px;" version="1.1" viewBox="0 0 746 372" width="746px" zoomAndPan="magnify"><defs><filter height="300%" id="f1kmou7ggkgjwa" width="300%" x="-1" y="-1"><feGaussianBlur result="blurOut" stdDeviation="2.0"/><feColorMatrix in="blurOut" result="blurOut2" type="matrix" values="0 0 0 0 0 0 0 0 0 0 0 0 0 0 0 0 0 0 .4 0"/><feOffset dx="4.0" dy="4.0" in="blurOut2" result="blurOut3"/><feBlend in="SourceGraphic" in2="blurOut3" mode="normal"/></filter></defs><g><!--class soen6441riskgame.models.serializers.SerializableGame--><a target="_parent" xlink:actuate="onRequest" xlink:href="../../../soen6441riskgame/models/serializers/SerializableGame.html" xlink:show="new" xlink:title="soen6441riskgame.models.serializers.SerializableGame" xlink:type="simple"><rect fill="#FEFECE" filter="url(#f1kmou7ggkgjwa)" height="153.0391" id="soen6441riskgame.models.serializers.SerializableGame" style="stroke: #A80036; stroke-width: 1.5;" width="205" x="267.5" y="108"/><ellipse cx="282.5" cy="128.0938" fill="#ADD1B2" rx="11" ry="11" style="stroke: #A80036; stroke-width: 1.0;"/><path d="M285.2656,123.9688 Q285.4219,123.75 285.6094,123.6406 Q285.7969,123.5313 286.0156,123.5313 Q286.3906,123.5313 286.625,123.7891 Q286.8594,124.0469 286.8594,124.6563 L286.8594,126.1094 Q286.8594,126.7188 286.625,126.9844 Q286.3906,127.25 286.0156,127.25 Q285.6719,127.25 285.4688,127.0469 Q285.2656,126.8594 285.1563,126.3438 Q285.1094,125.9844 284.9219,125.7969 Q284.5938,125.4219 283.9844,125.2031 Q283.375,124.9844 282.75,124.9844 Q281.9844,124.9844 281.3516,125.3125 Q280.7188,125.6406 280.2266,126.3906 Q279.7344,127.1406 279.7344,128.1719 L279.7344,129.2656 Q279.7344,130.5 280.625,131.3203 Q281.5156,132.1406 283.1094,132.1406 Q284.0469,132.1406 284.7031,131.8906 Q285.0938,131.7344 285.5156,131.2969 Q285.7813,131.0313 285.9297,130.9531 Q286.0781,130.875 286.2813,130.875 Q286.6094,130.875 286.8672,131.1328 Q287.125,131.3906 287.125,131.7344 Q287.125,132.0781 286.7813,132.4844 Q286.2813,133.0625 285.4844,133.3906 Q284.4063,133.8438 283.1094,133.8438 Q281.5938,133.8438 280.3906,133.2188 Q279.4063,132.7188 278.7188,131.6484 Q278.0313,130.5781 278.0313,129.2969 L278.0313,128.1406 Q278.0313,126.8125 278.6484,125.6641 Q279.2656,124.5156 280.3594,123.8984 Q281.4531,123.2813 282.6875,123.2813 Q283.4219,123.2813 284.0703,123.4453 Q284.7188,123.6094 285.2656,123.9688 Z "/><text fill="#000000" font-family="sans-serif" font-size="14" font-weight="bold" lengthAdjust="spacingAndGlyphs" textLength="121" x="322.5" y="127.5332">SerializableGame</text><text fill="#000000" font-family="sans-serif" font-size="10" lengthAdjust="spacingAndGlyphs" textLength="173" x="296.5" y="140.9902">soen6441riskgame.models.serializers</text><line style="stroke: #A80036; stroke-width: 1.5;" x1="268.5" x2="471.5" y1="148.1875" y2="148.1875"/><rect fill="none" height="6" style="stroke: #C82930; stroke-width: 1.0;" width="6" x="275.5" y="157.6055"/><text fill="#000000" font-family="sans-serif" font-size="11" lengthAdjust="spacingAndGlyphs" textLength="143" x="287.5" y="163.6064">ArrayList&lt;Country&gt; countries</text><rect fill="none" height="6" style="stroke: #C82930; stroke-width: 1.0;" width="6" x="275.5" y="171.4414"/><text fill="#000000" font-family="sans-serif" font-size="11" lengthAdjust="spacingAndGlyphs" textLength="155" x="287.5" y="177.4424">ArrayList&lt;Continent&gt; continents</text><rect fill="none" height="6" style="stroke: #C82930; stroke-width: 1.0;" width="6" x="275.5" y="185.2773"/><text fill="#000000" font-family="sans-serif" font-size="11" lengthAdjust="spacingAndGlyphs" textLength="126" x="287.5" y="191.2783">ArrayList&lt;Player&gt; players</text><rect fill="none" height="6" style="stroke: #C82930; stroke-width: 1.0;" width="6" x="275.5" y="199.1133"/><text fill="#000000" font-family="sans-serif" font-size="11" lengthAdjust="spacingAndGlyphs" textLength="52" x="287.5" y="205.1143">int borders</text><rect fill="none" height="6" style="stroke: #C82930; stroke-width: 1.0;" width="6" x="275.5" y="212.9492"/><text fill="#000000" font-family="sans-serif" font-size="11" lengthAdjust="spacingAndGlyphs" textLength="54" x="287.5" y="218.9502">Card cards</text><line style="stroke: #A80036; stroke-width: 1.5;" x1="268.5" x2="471.5" y1="225.3672" y2="225.3672"/><ellipse cx="278.5" cy="237.7852" fill="#84BE84" rx="3" ry="3" style="stroke: #038048; stroke-width: 1.0;"/><text fill="#000000" font-family="sans-serif" font-size="11" lengthAdjust="spacingAndGlyphs" textLength="91" x="287.5" y="240.7861">SerializableGame()</text><ellipse cx="278.5" cy="251.6211" fill="#84BE84" rx="3" ry="3" style="stroke: #038048; stroke-width: 1.0;"/><text fill="#000000" font-family="sans-serif" font-size="11" lengthAdjust="spacingAndGlyphs" textLength="79" x="287.5" y="254.6221">String serialize()</text></a><!--class soen6441riskgame.models.Country--><a target="_parent" xlink:actuate="onRequest" xlink:href="../../../soen6441riskgame/models/Country.html" xlink:show="new" xlink:title="soen6441riskgame.models.Country" xlink:type="simple"><rect fill="#FFFFFF" filter="url(#f1kmou7ggkgjwa)" height="40.1875" id="soen6441riskgame.models.Country" style="stroke: #A80036; stroke-width: 1.5;" width="156" x="6" y="321"/><rect fill="#FFFFFF" height="40.1875" style="stroke: #A80036; stroke-width: 1.5;" width="156" x="6" y="321"/><ellipse cx="21" cy="341.0938" fill="#ADD1B2" rx="11" ry="11" style="stroke: #A80036; stroke-width: 1.0;"/><path d="M23.7656,336.9688 Q23.9219,336.75 24.1094,336.6406 Q24.2969,336.5313 24.5156,336.5313 Q24.8906,336.5313 25.125,336.7891 Q25.3594,337.0469 25.3594,337.6563 L25.3594,339.1094 Q25.3594,339.7188 25.125,339.9844 Q24.8906,340.25 24.5156,340.25 Q24.1719,340.25 23.9688,340.0469 Q23.7656,339.8594 23.6563,339.3438 Q23.6094,338.9844 23.4219,338.7969 Q23.0938,338.4219 22.4844,338.2031 Q21.875,337.9844 21.25,337.9844 Q20.4844,337.9844 19.8516,338.3125 Q19.2188,338.6406 18.7266,339.3906 Q18.2344,340.1406 18.2344,341.1719 L18.2344,342.2656 Q18.2344,343.5 19.125,344.3203 Q20.0156,345.1406 21.6094,345.1406 Q22.5469,345.1406 23.2031,344.8906 Q23.5938,344.7344 24.0156,344.2969 Q24.2813,344.0313 24.4297,343.9531 Q24.5781,343.875 24.7813,343.875 Q25.1094,343.875 25.3672,344.1328 Q25.625,344.3906 25.625,344.7344 Q25.625,345.0781 25.2813,345.4844 Q24.7813,346.0625 23.9844,346.3906 Q22.9063,346.8438 21.6094,346.8438 Q20.0938,346.8438 18.8906,346.2188 Q17.9063,345.7188 17.2188,344.6484 Q16.5313,343.5781 16.5313,342.2969 L16.5313,341.1406 Q16.5313,339.8125 17.1484,338.6641 Q17.7656,337.5156 18.8594,336.8984 Q19.9531,336.2813 21.1875,336.2813 Q21.9219,336.2813 22.5703,336.4453 Q23.2188,336.6094 23.7656,336.9688 Z "/><text fill="#000000" font-family="sans-serif" font-size="14" font-weight="bold" lengthAdjust="spacingAndGlyphs" textLength="55" x="69.5" y="340.5332">Country</text><text fill="#000000" font-family="sans-serif" font-size="10" lengthAdjust="spacingAndGlyphs" textLength="124" x="35" y="353.9902">soen6441riskgame.models</text></a><!--class soen6441riskgame.models.Continent--><a target="_parent" xlink:actuate="onRequest" xlink:href="../../../soen6441riskgame/models/Continent.html" xlink:show="new" xlink:title="soen6441riskgame.models.Continent" xlink:type="simple"><rect fill="#FFFFFF" filter="url(#f1kmou7ggkgjwa)" height="40.1875" id="soen6441riskgame.models.Continent" style="stroke: #A80036; stroke-width: 1.5;" width="156" x="197" y="321"/><rect fill="#FFFFFF" height="40.1875" style="stroke: #A80036; stroke-width: 1.5;" width="156" x="197" y="321"/><ellipse cx="212" cy="341.0938" fill="#ADD1B2" rx="11" ry="11" style="stroke: #A80036; stroke-width: 1.0;"/><path d="M214.7656,336.9688 Q214.9219,336.75 215.1094,336.6406 Q215.2969,336.5313 215.5156,336.5313 Q215.8906,336.5313 216.125,336.7891 Q216.3594,337.0469 216.3594,337.6563 L216.3594,339.1094 Q216.3594,339.7188 216.125,339.9844 Q215.8906,340.25 215.5156,340.25 Q215.1719,340.25 214.9688,340.0469 Q214.7656,339.8594 214.6563,339.3438 Q214.6094,338.9844 214.4219,338.7969 Q214.0938,338.4219 213.4844,338.2031 Q212.875,337.9844 212.25,337.9844 Q211.4844,337.9844 210.8516,338.3125 Q210.2188,338.6406 209.7266,339.3906 Q209.2344,340.1406 209.2344,341.1719 L209.2344,342.2656 Q209.2344,343.5 210.125,344.3203 Q211.0156,345.1406 212.6094,345.1406 Q213.5469,345.1406 214.2031,344.8906 Q214.5938,344.7344 215.0156,344.2969 Q215.2813,344.0313 215.4297,343.9531 Q215.5781,343.875 215.7813,343.875 Q216.1094,343.875 216.3672,344.1328 Q216.625,344.3906 216.625,344.7344 Q216.625,345.0781 216.2813,345.4844 Q215.7813,346.0625 214.9844,346.3906 Q213.9063,346.8438 212.6094,346.8438 Q211.0938,346.8438 209.8906,346.2188 Q208.9063,345.7188 208.2188,344.6484 Q207.5313,343.5781 207.5313,342.2969 L207.5313,341.1406 Q207.5313,339.8125 208.1484,338.6641 Q208.7656,337.5156 209.8594,336.8984 Q210.9531,336.2813 212.1875,336.2813 Q212.9219,336.2813 213.5703,336.4453 Q214.2188,336.6094 214.7656,336.9688 Z "/><text fill="#000000" font-family="sans-serif" font-size="14" font-weight="bold" lengthAdjust="spacingAndGlyphs" textLength="69" x="253.5" y="340.5332">Continent</text><text fill="#000000" font-family="sans-serif" font-size="10" lengthAdjust="spacingAndGlyphs" textLength="124" x="226" y="353.9902">soen6441riskgame.models</text></a><!--class soen6441riskgame.models.Player--><a target="_parent" xlink:actuate="onRequest" xlink:href="../../../soen6441riskgame/models/Player.html" xlink:show="new" xlink:title="soen6441riskgame.models.Player" xlink:type="simple"><rect fill="#FFFFFF" filter="url(#f1kmou7ggkgjwa)" height="40.1875" id="soen6441riskgame.models.Player" style="stroke: #A80036; stroke-width: 1.5;" width="156" x="388" y="321"/><rect fill="#FFFFFF" height="40.1875" style="stroke: #A80036; stroke-width: 1.5;" width="156" x="388" y="321"/><ellipse cx="403" cy="341.0938" fill="#ADD1B2" rx="11" ry="11" style="stroke: #A80036; stroke-width: 1.0;"/><path d="M405.7656,336.9688 Q405.9219,336.75 406.1094,336.6406 Q406.2969,336.5313 406.5156,336.5313 Q406.8906,336.5313 407.125,336.7891 Q407.3594,337.0469 407.3594,337.6563 L407.3594,339.1094 Q407.3594,339.7188 407.125,339.9844 Q406.8906,340.25 406.5156,340.25 Q406.1719,340.25 405.9688,340.0469 Q405.7656,339.8594 405.6563,339.3438 Q405.6094,338.9844 405.4219,338.7969 Q405.0938,338.4219 404.4844,338.2031 Q403.875,337.9844 403.25,337.9844 Q402.4844,337.9844 401.8516,338.3125 Q401.2188,338.6406 400.7266,339.3906 Q400.2344,340.1406 400.2344,341.1719 L400.2344,342.2656 Q400.2344,343.5 401.125,344.3203 Q402.0156,345.1406 403.6094,345.1406 Q404.5469,345.1406 405.2031,344.8906 Q405.5938,344.7344 406.0156,344.2969 Q406.2813,344.0313 406.4297,343.9531 Q406.5781,343.875 406.7813,343.875 Q407.1094,343.875 407.3672,344.1328 Q407.625,344.3906 407.625,344.7344 Q407.625,345.0781 407.2813,345.4844 Q406.7813,346.0625 405.9844,346.3906 Q404.9063,346.8438 403.6094,346.8438 Q402.0938,346.8438 400.8906,346.2188 Q399.9063,345.7188 399.2188,344.6484 Q398.5313,343.5781 398.5313,342.2969 L398.5313,341.1406 Q398.5313,339.8125 399.1484,338.6641 Q399.7656,337.5156 400.8594,336.8984 Q401.9531,336.2813 403.1875,336.2813 Q403.9219,336.2813 404.5703,336.4453 Q405.2188,336.6094 405.7656,336.9688 Z "/><text fill="#000000" font-family="sans-serif" font-size="14" font-weight="bold" lengthAdjust="spacingAndGlyphs" textLength="43" x="457.5" y="340.5332">Player</text><text fill="#000000" font-family="sans-serif" font-size="10" lengthAdjust="spacingAndGlyphs" textLength="124" x="417" y="353.9902">soen6441riskgame.models</text></a><!--class soen6441riskgame.models.Card--><a target="_parent" xlink:actuate="onRequest" xlink:href="../../../soen6441riskgame/models/Card.html" xlink:show="new" xlink:title="soen6441riskgame.models.Card" xlink:type="simple"><rect fill="#FFFFFF" filter="url(#f1kmou7ggkgjwa)" height="40.1875" id="soen6441riskgame.models.Card" style="stroke: #A80036; stroke-width: 1.5;" width="156" x="579" y="321"/><rect fill="#FFFFFF" height="40.1875" style="stroke: #A80036; stroke-width: 1.5;" width="156" x="579" y="321"/><ellipse cx="594" cy="341.0938" fill="#ADD1B2" rx="11" ry="11" style="stroke: #A80036; stroke-width: 1.0;"/><path d="M596.7656,336.9688 Q596.9219,336.75 597.1094,336.6406 Q597.2969,336.5313 597.5156,336.5313 Q597.8906,336.5313 598.125,336.7891 Q598.3594,337.0469 598.3594,337.6563 L598.3594,339.1094 Q598.3594,339.7188 598.125,339.9844 Q597.8906,340.25 597.5156,340.25 Q597.1719,340.25 596.9688,340.0469 Q596.7656,339.8594 596.6563,339.3438 Q596.6094,338.9844 596.4219,338.7969 Q596.0938,338.4219 595.4844,338.2031 Q594.875,337.9844 594.25,337.9844 Q593.4844,337.9844 592.8516,338.3125 Q592.2188,338.6406 591.7266,339.3906 Q591.2344,340.1406 591.2344,341.1719 L591.2344,342.2656 Q591.2344,343.5 592.125,344.3203 Q593.0156,345.1406 594.6094,345.1406 Q595.5469,345.1406 596.2031,344.8906 Q596.5938,344.7344 597.0156,344.2969 Q597.2813,344.0313 597.4297,343.9531 Q597.5781,343.875 597.7813,343.875 Q598.1094,343.875 598.3672,344.1328 Q598.625,344.3906 598.625,344.7344 Q598.625,345.0781 598.2813,345.4844 Q597.7813,346.0625 596.9844,346.3906 Q595.9063,346.8438 594.6094,346.8438 Q593.0938,346.8438 591.8906,346.2188 Q590.9063,345.7188 590.2188,344.6484 Q589.5313,343.5781 589.5313,342.2969 L589.5313,341.1406 Q589.5313,339.8125 590.1484,338.6641 Q590.7656,337.5156 591.8594,336.8984 Q592.9531,336.2813 594.1875,336.2813 Q594.9219,336.2813 595.5703,336.4453 Q596.2188,336.6094 596.7656,336.9688 Z "/><text fill="#000000" font-family="sans-serif" font-size="14" font-weight="bold" lengthAdjust="spacingAndGlyphs" textLength="33" x="653.5" y="340.5332">Card</text><text fill="#000000" font-family="sans-serif" font-size="10" lengthAdjust="spacingAndGlyphs" textLength="124" x="608" y="353.9902">soen6441riskgame.models</text></a><!--class soen6441riskgame.models.serializers.SerializableGame.Builder--><a target="_parent" xlink:actuate="onRequest" xlink:href="../../../soen6441riskgame/models/serializers/SerializableGame.Builder.html" xlink:show="new" xlink:title="soen6441riskgame.models.serializers.SerializableGame.Builder" xlink:type="simple"><rect fill="#FEFECE" filter="url(#f1kmou7ggkgjwa)" height="40.1875" id="soen6441riskgame.models.serializers.SerializableGame.Builder" style="stroke: #A80036; stroke-width: 1.5;" width="208" x="266" y="8"/><ellipse cx="281" cy="28.0938" fill="#ADD1B2" rx="11" ry="11" style="stroke: #A80036; stroke-width: 1.0;"/><path d="M283.7656,23.9688 Q283.9219,23.75 284.1094,23.6406 Q284.2969,23.5313 284.5156,23.5313 Q284.8906,23.5313 285.125,23.7891 Q285.3594,24.0469 285.3594,24.6563 L285.3594,26.1094 Q285.3594,26.7188 285.125,26.9844 Q284.8906,27.25 284.5156,27.25 Q284.1719,27.25 283.9688,27.0469 Q283.7656,26.8594 283.6563,26.3438 Q283.6094,25.9844 283.4219,25.7969 Q283.0938,25.4219 282.4844,25.2031 Q281.875,24.9844 281.25,24.9844 Q280.4844,24.9844 279.8516,25.3125 Q279.2188,25.6406 278.7266,26.3906 Q278.2344,27.1406 278.2344,28.1719 L278.2344,29.2656 Q278.2344,30.5 279.125,31.3203 Q280.0156,32.1406 281.6094,32.1406 Q282.5469,32.1406 283.2031,31.8906 Q283.5938,31.7344 284.0156,31.2969 Q284.2813,31.0313 284.4297,30.9531 Q284.5781,30.875 284.7813,30.875 Q285.1094,30.875 285.3672,31.1328 Q285.625,31.3906 285.625,31.7344 Q285.625,32.0781 285.2813,32.4844 Q284.7813,33.0625 283.9844,33.3906 Q282.9063,33.8438 281.6094,33.8438 Q280.0938,33.8438 278.8906,33.2188 Q277.9063,32.7188 277.2188,31.6484 Q276.5313,30.5781 276.5313,29.2969 L276.5313,28.1406 Q276.5313,26.8125 277.1484,25.6641 Q277.7656,24.5156 278.8594,23.8984 Q279.9531,23.2813 281.1875,23.2813 Q281.9219,23.2813 282.5703,23.4453 Q283.2188,23.6094 283.7656,23.9688 Z "/><text fill="#000000" font-family="sans-serif" font-size="14" font-weight="bold" lengthAdjust="spacingAndGlyphs" textLength="176" x="295" y="27.5332">SerializableGame.Builder</text><text fill="#000000" font-family="sans-serif" font-size="10" lengthAdjust="spacingAndGlyphs" textLength="173" x="296.5" y="40.9902">soen6441riskgame.models.serializers</text></a><!--link soen6441riskgame.models.serializers.SerializableGame to soen6441riskgame.models.Country--><path d="M267.151,185 C185.158,185 84,185 84,185 C84,185 84,315.9251 84,315.9251 " fill="none" id="soen6441riskgame.models.serializers.SerializableGame-soen6441riskgame.models.Country" style="stroke: #A80036; stroke-width: 1.0; stroke-dasharray: 7.0,7.0;"/><polygon fill="#A80036" points="84,320.9251,88,311.9251,84,315.9251,80,311.9251,84,320.9251" style="stroke: #A80036; stroke-width: 1.0;"/><!--link soen6441riskgame.models.serializers.SerializableGame to soen6441riskgame.models.Continent--><path d="M310.25,261.3746 C310.25,261.3746 310.25,315.7533 310.25,315.7533 " fill="none" id="soen6441riskgame.models.serializers.SerializableGame-soen6441riskgame.models.Continent" style="stroke: #A80036; stroke-width: 1.0; stroke-dasharray: 7.0,7.0;"/><polygon fill="#A80036" points="310.25,320.7533,314.25,311.7533,310.25,315.7533,306.25,311.7533,310.25,320.7533" style="stroke: #A80036; stroke-width: 1.0;"/><!--link soen6441riskgame.models.serializers.SerializableGame to soen6441riskgame.models.Player--><path d="M430.25,261.3746 C430.25,261.3746 430.25,315.7533 430.25,315.7533 " fill="none" id="soen6441riskgame.models.serializers.SerializableGame-soen6441riskgame.models.Player" style="stroke: #A80036; stroke-width: 1.0; stroke-dasharray: 7.0,7.0;"/><polygon fill="#A80036" points="430.25,320.7533,434.25,311.7533,430.25,315.7533,426.25,311.7533,430.25,320.7533" style="stroke: #A80036; stroke-width: 1.0;"/><!--link soen6441riskgame.models.serializers.SerializableGame to soen6441riskgame.models.Card--><path d="M472.803,185 C555.155,185 657,185 657,185 C657,185 657,315.9251 657,315.9251 " fill="none" id="soen6441riskgame.models.serializers.SerializableGame-soen6441riskgame.models.Card" style="stroke: #A80036; stroke-width: 1.0;"/><polygon fill="#A80036" points="657,320.9251,661,311.9251,657,315.9251,653,311.9251,657,320.9251" style="stroke: #A80036; stroke-width: 1.0;"/><text fill="#000000" font-family="sans-serif" font-size="13" lengthAdjust="spacingAndGlyphs" textLength="32" x="620.3" y="310.1973">cards</text><!--link soen6441riskgame.models.serializers.SerializableGame.Builder to soen6441riskgame.models.serializers.SerializableGame--><path d="M370,48.139 C370,48.139 370,102.727 370,102.727 " fill="none" id="soen6441riskgame.models.serializers.SerializableGame.Builder-soen6441riskgame.models.serializers.SerializableGame" style="stroke: #A80036; stroke-width: 1.0; stroke-dasharray: 7.0,7.0;"/><polygon fill="#A80036" points="370,107.727,374,98.727,370,102.727,366,98.727,370,107.727" style="stroke: #A80036; stroke-width: 1.0;"/><!--
@startuml

skinparam svgLinkTarget _parent
skinparam linetype ortho
set namespaceSeparator none
class "<b><size:14>SerializableGame</b>\n<size:10>soen6441riskgame.models.serializers" as soen6441riskgame.models.serializers.SerializableGame  [[../../../soen6441riskgame/models/serializers/SerializableGame.html{soen6441riskgame.models.serializers.SerializableGame}]] {
-ArrayList<Country> countries
-ArrayList<Continent> continents
-ArrayList<Player> players
-int borders
-Card cards
+SerializableGame()
+String serialize()
}



class "<b><size:14>Country</b>\n<size:10>soen6441riskgame.models" as soen6441riskgame.models.Country  [[../../../soen6441riskgame/models/Country.html{soen6441riskgame.models.Country}]] #white {
}

hide soen6441riskgame.models.Country fields
hide soen6441riskgame.models.Country methods

soen6441riskgame.models.serializers.SerializableGame ..> soen6441riskgame.models.Country


class "<b><size:14>Continent</b>\n<size:10>soen6441riskgame.models" as soen6441riskgame.models.Continent  [[../../../soen6441riskgame/models/Continent.html{soen6441riskgame.models.Continent}]] #white {
}

hide soen6441riskgame.models.Continent fields
hide soen6441riskgame.models.Continent methods

soen6441riskgame.models.serializers.SerializableGame ..> soen6441riskgame.models.Continent


class "<b><size:14>Player</b>\n<size:10>soen6441riskgame.models" as soen6441riskgame.models.Player  [[../../../soen6441riskgame/models/Player.html{soen6441riskgame.models.Player}]] #white {
}

hide soen6441riskgame.models.Player fields
hide soen6441riskgame.models.Player methods

soen6441riskgame.models.serializers.SerializableGame ..> soen6441riskgame.models.Player

class "<b><size:14>Card</b>\n<size:10>soen6441riskgame.models" as soen6441riskgame.models.Card  [[../../../soen6441riskgame/models/Card.html{soen6441riskgame.models.Card}]] #white {
}

hide soen6441riskgame.models.Card fields
hide soen6441riskgame.models.Card methods

soen6441riskgame.models.serializers.SerializableGame - ->  "cards" soen6441riskgame.models.Card

class "<b><size:14>SerializableGame.Builder</b>\n<size:10>soen6441riskgame.models.serializers" as soen6441riskgame.models.serializers.SerializableGame.Builder  [[../../../soen6441riskgame/models/serializers/SerializableGame.Builder.html{soen6441riskgame.models.serializers.SerializableGame.Builder}]] {
}

hide soen6441riskgame.models.serializers.SerializableGame.Builder fields
hide soen6441riskgame.models.serializers.SerializableGame.Builder methods

soen6441riskgame.models.serializers.SerializableGame.Builder ..> soen6441riskgame.models.serializers.SerializableGame


@enduml

PlantUML version 1.2017.15(Mon Jul 03 12:45:34 EDT 2017)
(GPL source distribution)
Java Runtime: Java(TM) SE Runtime Environment
JVM: Java HotSpot(TM) 64-Bit Server VM
Java Version: 1.8.0_231-b11
Operating System: Windows 10
OS Version: 10.0
Default Encoding: Cp1252
Language: en
Country: US
--></g></svg>