<?xml version="1.0" encoding="UTF-8" standalone="no"?><svg xmlns="http://www.w3.org/2000/svg" xmlns:xlink="http://www.w3.org/1999/xlink" contentScriptType="application/ecmascript" contentStyleType="text/css" height="341px" preserveAspectRatio="none" style="width:986px;height:341px;" version="1.1" viewBox="0 0 986 341" width="986px" zoomAndPan="magnify"><defs><filter height="300%" id="f1hpd7p5qjkqob" width="300%" x="-1" y="-1"><feGaussianBlur result="blurOut" stdDeviation="2.0"/><feColorMatrix in="blurOut" result="blurOut2" type="matrix" values="0 0 0 0 0 0 0 0 0 0 0 0 0 0 0 0 0 0 .4 0"/><feOffset dx="4.0" dy="4.0" in="blurOut2" result="blurOut3"/><feBlend in="SourceGraphic" in2="blurOut3" mode="normal"/></filter></defs><g><!--class soen6441riskgame.models.serializers.SerializableGame.Builder--><a target="_parent" xlink:actuate="onRequest" xlink:href="../../../soen6441riskgame/models/serializers/SerializableGame.Builder.html" xlink:show="new" xlink:title="soen6441riskgame.models.serializers.SerializableGame.Builder" xlink:type="simple"><rect fill="#FEFECE" filter="url(#f1hpd7p5qjkqob)" height="222.2188" id="soen6441riskgame.models.serializers.SerializableGame.Builder" style="stroke: #A80036; stroke-width: 1.5;" width="349" x="291.5" y="8"/><ellipse cx="373.75" cy="28.0938" fill="#ADD1B2" rx="11" ry="11" style="stroke: #A80036; stroke-width: 1.0;"/><path d="M376.5156,23.9688 Q376.6719,23.75 376.8594,23.6406 Q377.0469,23.5313 377.2656,23.5313 Q377.6406,23.5313 377.875,23.7891 Q378.1094,24.0469 378.1094,24.6563 L378.1094,26.1094 Q378.1094,26.7188 377.875,26.9844 Q377.6406,27.25 377.2656,27.25 Q376.9219,27.25 376.7188,27.0469 Q376.5156,26.8594 376.4063,26.3438 Q376.3594,25.9844 376.1719,25.7969 Q375.8438,25.4219 375.2344,25.2031 Q374.625,24.9844 374,24.9844 Q373.2344,24.9844 372.6016,25.3125 Q371.9688,25.6406 371.4766,26.3906 Q370.9844,27.1406 370.9844,28.1719 L370.9844,29.2656 Q370.9844,30.5 371.875,31.3203 Q372.7656,32.1406 374.3594,32.1406 Q375.2969,32.1406 375.9531,31.8906 Q376.3438,31.7344 376.7656,31.2969 Q377.0313,31.0313 377.1797,30.9531 Q377.3281,30.875 377.5313,30.875 Q377.8594,30.875 378.1172,31.1328 Q378.375,31.3906 378.375,31.7344 Q378.375,32.0781 378.0313,32.4844 Q377.5313,33.0625 376.7344,33.3906 Q375.6563,33.8438 374.3594,33.8438 Q372.8438,33.8438 371.6406,33.2188 Q370.6563,32.7188 369.9688,31.6484 Q369.2813,30.5781 369.2813,29.2969 L369.2813,28.1406 Q369.2813,26.8125 369.8984,25.6641 Q370.5156,24.5156 371.6094,23.8984 Q372.7031,23.2813 373.9375,23.2813 Q374.6719,23.2813 375.3203,23.4453 Q375.9688,23.6094 376.5156,23.9688 Z "/><text fill="#000000" font-family="sans-serif" font-size="14" font-weight="bold" lengthAdjust="spacingAndGlyphs" textLength="176" x="394.25" y="27.5332">SerializableGame.Builder</text><text fill="#000000" font-family="sans-serif" font-size="10" lengthAdjust="spacingAndGlyphs" textLength="173" x="395.75" y="40.9902">soen6441riskgame.models.serializers</text><line style="stroke: #A80036; stroke-width: 1.5;" x1="292.5" x2="639.5" y1="48.1875" y2="48.1875"/><rect fill="none" height="6" style="stroke: #C82930; stroke-width: 1.0;" width="6" x="299.5" y="57.6055"/><text fill="#000000" font-family="sans-serif" font-size="11" lengthAdjust="spacingAndGlyphs" textLength="115" x="311.5" y="63.6064">List&lt;Country&gt; countries</text><rect fill="none" height="6" style="stroke: #C82930; stroke-width: 1.0;" width="6" x="299.5" y="71.4414"/><text fill="#000000" font-family="sans-serif" font-size="11" lengthAdjust="spacingAndGlyphs" textLength="127" x="311.5" y="77.4424">List&lt;Continent&gt; continents</text><rect fill="none" height="6" style="stroke: #C82930; stroke-width: 1.0;" width="6" x="299.5" y="85.2773"/><text fill="#000000" font-family="sans-serif" font-size="11" lengthAdjust="spacingAndGlyphs" textLength="98" x="311.5" y="91.2783">List&lt;Player&gt; players</text><rect fill="none" height="6" style="stroke: #C82930; stroke-width: 1.0;" width="6" x="299.5" y="99.1133"/><text fill="#000000" font-family="sans-serif" font-size="11" lengthAdjust="spacingAndGlyphs" textLength="52" x="311.5" y="105.1143">int borders</text><rect fill="none" height="6" style="stroke: #C82930; stroke-width: 1.0;" width="6" x="299.5" y="112.9492"/><text fill="#000000" font-family="sans-serif" font-size="11" lengthAdjust="spacingAndGlyphs" textLength="54" x="311.5" y="118.9502">Card cards</text><line style="stroke: #A80036; stroke-width: 1.5;" x1="292.5" x2="639.5" y1="125.3672" y2="125.3672"/><ellipse cx="302.5" cy="137.7852" fill="#84BE84" rx="3" ry="3" style="stroke: #038048; stroke-width: 1.0;"/><text fill="#000000" font-family="sans-serif" font-size="11" lengthAdjust="spacingAndGlyphs" textLength="41" x="311.5" y="140.7861">Builder()</text><ellipse cx="302.5" cy="151.6211" fill="#84BE84" rx="3" ry="3" style="stroke: #038048; stroke-width: 1.0;"/><text fill="#000000" font-family="sans-serif" font-size="11" lengthAdjust="spacingAndGlyphs" textLength="323" x="311.5" y="154.6221">SerializableGame.Builder setContinents(List&lt;Continent&gt; continents)</text><ellipse cx="302.5" cy="165.457" fill="#84BE84" rx="3" ry="3" style="stroke: #038048; stroke-width: 1.0;"/><text fill="#000000" font-family="sans-serif" font-size="11" lengthAdjust="spacingAndGlyphs" textLength="306" x="311.5" y="168.458">SerializableGame.Builder setCountries(List&lt;Country&gt; countries)</text><ellipse cx="302.5" cy="179.293" fill="#84BE84" rx="3" ry="3" style="stroke: #038048; stroke-width: 1.0;"/><text fill="#000000" font-family="sans-serif" font-size="11" lengthAdjust="spacingAndGlyphs" textLength="279" x="311.5" y="182.2939">SerializableGame.Builder setPlayers(List&lt;Player&gt; players)</text><ellipse cx="302.5" cy="193.1289" fill="#84BE84" rx="3" ry="3" style="stroke: #038048; stroke-width: 1.0;"/><text fill="#000000" font-family="sans-serif" font-size="11" lengthAdjust="spacingAndGlyphs" textLength="236" x="311.5" y="196.1299">SerializableGame.Builder setBorders(int borders)</text><ellipse cx="302.5" cy="206.9648" fill="#84BE84" rx="3" ry="3" style="stroke: #038048; stroke-width: 1.0;"/><text fill="#000000" font-family="sans-serif" font-size="11" lengthAdjust="spacingAndGlyphs" textLength="228" x="311.5" y="209.9658">SerializableGame.Builder setCards(Card cards)</text><ellipse cx="302.5" cy="220.8008" fill="#84BE84" rx="3" ry="3" style="stroke: #038048; stroke-width: 1.0;"/><text fill="#000000" font-family="sans-serif" font-size="11" lengthAdjust="spacingAndGlyphs" textLength="116" x="311.5" y="223.8018">SerializableGame build()</text></a><!--class soen6441riskgame.models.Country--><a target="_parent" xlink:actuate="onRequest" xlink:href="../../../soen6441riskgame/models/Country.html" xlink:show="new" xlink:title="soen6441riskgame.models.Country" xlink:type="simple"><rect fill="#FFFFFF" filter="url(#f1hpd7p5qjkqob)" height="40.1875" id="soen6441riskgame.models.Country" style="stroke: #A80036; stroke-width: 1.5;" width="156" x="6" y="290"/><rect fill="#FFFFFF" height="40.1875" style="stroke: #A80036; stroke-width: 1.5;" width="156" x="6" y="290"/><ellipse cx="21" cy="310.0938" fill="#ADD1B2" rx="11" ry="11" style="stroke: #A80036; stroke-width: 1.0;"/><path d="M23.7656,305.9688 Q23.9219,305.75 24.1094,305.6406 Q24.2969,305.5313 24.5156,305.5313 Q24.8906,305.5313 25.125,305.7891 Q25.3594,306.0469 25.3594,306.6563 L25.3594,308.1094 Q25.3594,308.7188 25.125,308.9844 Q24.8906,309.25 24.5156,309.25 Q24.1719,309.25 23.9688,309.0469 Q23.7656,308.8594 23.6563,308.3438 Q23.6094,307.9844 23.4219,307.7969 Q23.0938,307.4219 22.4844,307.2031 Q21.875,306.9844 21.25,306.9844 Q20.4844,306.9844 19.8516,307.3125 Q19.2188,307.6406 18.7266,308.3906 Q18.2344,309.1406 18.2344,310.1719 L18.2344,311.2656 Q18.2344,312.5 19.125,313.3203 Q20.0156,314.1406 21.6094,314.1406 Q22.5469,314.1406 23.2031,313.8906 Q23.5938,313.7344 24.0156,313.2969 Q24.2813,313.0313 24.4297,312.9531 Q24.5781,312.875 24.7813,312.875 Q25.1094,312.875 25.3672,313.1328 Q25.625,313.3906 25.625,313.7344 Q25.625,314.0781 25.2813,314.4844 Q24.7813,315.0625 23.9844,315.3906 Q22.9063,315.8438 21.6094,315.8438 Q20.0938,315.8438 18.8906,315.2188 Q17.9063,314.7188 17.2188,313.6484 Q16.5313,312.5781 16.5313,311.2969 L16.5313,310.1406 Q16.5313,308.8125 17.1484,307.6641 Q17.7656,306.5156 18.8594,305.8984 Q19.9531,305.2813 21.1875,305.2813 Q21.9219,305.2813 22.5703,305.4453 Q23.2188,305.6094 23.7656,305.9688 Z "/><text fill="#000000" font-family="sans-serif" font-size="14" font-weight="bold" lengthAdjust="spacingAndGlyphs" textLength="55" x="69.5" y="309.5332">Country</text><text fill="#000000" font-family="sans-serif" font-size="10" lengthAdjust="spacingAndGlyphs" textLength="124" x="35" y="322.9902">soen6441riskgame.models</text></a><!--class soen6441riskgame.models.Continent--><a target="_parent" xlink:actuate="onRequest" xlink:href="../../../soen6441riskgame/models/Continent.html" xlink:show="new" xlink:title="soen6441riskgame.models.Continent" xlink:type="simple"><rect fill="#FFFFFF" filter="url(#f1hpd7p5qjkqob)" height="40.1875" id="soen6441riskgame.models.Continent" style="stroke: #A80036; stroke-width: 1.5;" width="156" x="197" y="290"/><rect fill="#FFFFFF" height="40.1875" style="stroke: #A80036; stroke-width: 1.5;" width="156" x="197" y="290"/><ellipse cx="212" cy="310.0938" fill="#ADD1B2" rx="11" ry="11" style="stroke: #A80036; stroke-width: 1.0;"/><path d="M214.7656,305.9688 Q214.9219,305.75 215.1094,305.6406 Q215.2969,305.5313 215.5156,305.5313 Q215.8906,305.5313 216.125,305.7891 Q216.3594,306.0469 216.3594,306.6563 L216.3594,308.1094 Q216.3594,308.7188 216.125,308.9844 Q215.8906,309.25 215.5156,309.25 Q215.1719,309.25 214.9688,309.0469 Q214.7656,308.8594 214.6563,308.3438 Q214.6094,307.9844 214.4219,307.7969 Q214.0938,307.4219 213.4844,307.2031 Q212.875,306.9844 212.25,306.9844 Q211.4844,306.9844 210.8516,307.3125 Q210.2188,307.6406 209.7266,308.3906 Q209.2344,309.1406 209.2344,310.1719 L209.2344,311.2656 Q209.2344,312.5 210.125,313.3203 Q211.0156,314.1406 212.6094,314.1406 Q213.5469,314.1406 214.2031,313.8906 Q214.5938,313.7344 215.0156,313.2969 Q215.2813,313.0313 215.4297,312.9531 Q215.5781,312.875 215.7813,312.875 Q216.1094,312.875 216.3672,313.1328 Q216.625,313.3906 216.625,313.7344 Q216.625,314.0781 216.2813,314.4844 Q215.7813,315.0625 214.9844,315.3906 Q213.9063,315.8438 212.6094,315.8438 Q211.0938,315.8438 209.8906,315.2188 Q208.9063,314.7188 208.2188,313.6484 Q207.5313,312.5781 207.5313,311.2969 L207.5313,310.1406 Q207.5313,308.8125 208.1484,307.6641 Q208.7656,306.5156 209.8594,305.8984 Q210.9531,305.2813 212.1875,305.2813 Q212.9219,305.2813 213.5703,305.4453 Q214.2188,305.6094 214.7656,305.9688 Z "/><text fill="#000000" font-family="sans-serif" font-size="14" font-weight="bold" lengthAdjust="spacingAndGlyphs" textLength="69" x="253.5" y="309.5332">Continent</text><text fill="#000000" font-family="sans-serif" font-size="10" lengthAdjust="spacingAndGlyphs" textLength="124" x="226" y="322.9902">soen6441riskgame.models</text></a><!--class soen6441riskgame.models.Player--><a target="_parent" xlink:actuate="onRequest" xlink:href="../../../soen6441riskgame/models/Player.html" xlink:show="new" xlink:title="soen6441riskgame.models.Player" xlink:type="simple"><rect fill="#FFFFFF" filter="url(#f1hpd7p5qjkqob)" height="40.1875" id="soen6441riskgame.models.Player" style="stroke: #A80036; stroke-width: 1.5;" width="156" x="388" y="290"/><rect fill="#FFFFFF" height="40.1875" style="stroke: #A80036; stroke-width: 1.5;" width="156" x="388" y="290"/><ellipse cx="403" cy="310.0938" fill="#ADD1B2" rx="11" ry="11" style="stroke: #A80036; stroke-width: 1.0;"/><path d="M405.7656,305.9688 Q405.9219,305.75 406.1094,305.6406 Q406.2969,305.5313 406.5156,305.5313 Q406.8906,305.5313 407.125,305.7891 Q407.3594,306.0469 407.3594,306.6563 L407.3594,308.1094 Q407.3594,308.7188 407.125,308.9844 Q406.8906,309.25 406.5156,309.25 Q406.1719,309.25 405.9688,309.0469 Q405.7656,308.8594 405.6563,308.3438 Q405.6094,307.9844 405.4219,307.7969 Q405.0938,307.4219 404.4844,307.2031 Q403.875,306.9844 403.25,306.9844 Q402.4844,306.9844 401.8516,307.3125 Q401.2188,307.6406 400.7266,308.3906 Q400.2344,309.1406 400.2344,310.1719 L400.2344,311.2656 Q400.2344,312.5 401.125,313.3203 Q402.0156,314.1406 403.6094,314.1406 Q404.5469,314.1406 405.2031,313.8906 Q405.5938,313.7344 406.0156,313.2969 Q406.2813,313.0313 406.4297,312.9531 Q406.5781,312.875 406.7813,312.875 Q407.1094,312.875 407.3672,313.1328 Q407.625,313.3906 407.625,313.7344 Q407.625,314.0781 407.2813,314.4844 Q406.7813,315.0625 405.9844,315.3906 Q404.9063,315.8438 403.6094,315.8438 Q402.0938,315.8438 400.8906,315.2188 Q399.9063,314.7188 399.2188,313.6484 Q398.5313,312.5781 398.5313,311.2969 L398.5313,310.1406 Q398.5313,308.8125 399.1484,307.6641 Q399.7656,306.5156 400.8594,305.8984 Q401.9531,305.2813 403.1875,305.2813 Q403.9219,305.2813 404.5703,305.4453 Q405.2188,305.6094 405.7656,305.9688 Z "/><text fill="#000000" font-family="sans-serif" font-size="14" font-weight="bold" lengthAdjust="spacingAndGlyphs" textLength="43" x="457.5" y="309.5332">Player</text><text fill="#000000" font-family="sans-serif" font-size="10" lengthAdjust="spacingAndGlyphs" textLength="124" x="417" y="322.9902">soen6441riskgame.models</text></a><!--class soen6441riskgame.models.Card--><a target="_parent" xlink:actuate="onRequest" xlink:href="../../../soen6441riskgame/models/Card.html" xlink:show="new" xlink:title="soen6441riskgame.models.Card" xlink:type="simple"><rect fill="#FFFFFF" filter="url(#f1hpd7p5qjkqob)" height="40.1875" id="soen6441riskgame.models.Card" style="stroke: #A80036; stroke-width: 1.5;" width="156" x="579" y="290"/><rect fill="#FFFFFF" height="40.1875" style="stroke: #A80036; stroke-width: 1.5;" width="156" x="579" y="290"/><ellipse cx="594" cy="310.0938" fill="#ADD1B2" rx="11" ry="11" style="stroke: #A80036; stroke-width: 1.0;"/><path d="M596.7656,305.9688 Q596.9219,305.75 597.1094,305.6406 Q597.2969,305.5313 597.5156,305.5313 Q597.8906,305.5313 598.125,305.7891 Q598.3594,306.0469 598.3594,306.6563 L598.3594,308.1094 Q598.3594,308.7188 598.125,308.9844 Q597.8906,309.25 597.5156,309.25 Q597.1719,309.25 596.9688,309.0469 Q596.7656,308.8594 596.6563,308.3438 Q596.6094,307.9844 596.4219,307.7969 Q596.0938,307.4219 595.4844,307.2031 Q594.875,306.9844 594.25,306.9844 Q593.4844,306.9844 592.8516,307.3125 Q592.2188,307.6406 591.7266,308.3906 Q591.2344,309.1406 591.2344,310.1719 L591.2344,311.2656 Q591.2344,312.5 592.125,313.3203 Q593.0156,314.1406 594.6094,314.1406 Q595.5469,314.1406 596.2031,313.8906 Q596.5938,313.7344 597.0156,313.2969 Q597.2813,313.0313 597.4297,312.9531 Q597.5781,312.875 597.7813,312.875 Q598.1094,312.875 598.3672,313.1328 Q598.625,313.3906 598.625,313.7344 Q598.625,314.0781 598.2813,314.4844 Q597.7813,315.0625 596.9844,315.3906 Q595.9063,315.8438 594.6094,315.8438 Q593.0938,315.8438 591.8906,315.2188 Q590.9063,314.7188 590.2188,313.6484 Q589.5313,312.5781 589.5313,311.2969 L589.5313,310.1406 Q589.5313,308.8125 590.1484,307.6641 Q590.7656,306.5156 591.8594,305.8984 Q592.9531,305.2813 594.1875,305.2813 Q594.9219,305.2813 595.5703,305.4453 Q596.2188,305.6094 596.7656,305.9688 Z "/><text fill="#000000" font-family="sans-serif" font-size="14" font-weight="bold" lengthAdjust="spacingAndGlyphs" textLength="33" x="653.5" y="309.5332">Card</text><text fill="#000000" font-family="sans-serif" font-size="10" lengthAdjust="spacingAndGlyphs" textLength="124" x="608" y="322.9902">soen6441riskgame.models</text></a><!--class soen6441riskgame.models.serializers.SerializableGame--><a target="_parent" xlink:actuate="onRequest" xlink:href="../../../soen6441riskgame/models/serializers/SerializableGame.html" xlink:show="new" xlink:title="soen6441riskgame.models.serializers.SerializableGame" xlink:type="simple"><rect fill="#FEFECE" filter="url(#f1hpd7p5qjkqob)" height="40.1875" id="soen6441riskgame.models.serializers.SerializableGame" style="stroke: #A80036; stroke-width: 1.5;" width="205" x="770.5" y="290"/><ellipse cx="785.5" cy="310.0938" fill="#ADD1B2" rx="11" ry="11" style="stroke: #A80036; stroke-width: 1.0;"/><path d="M788.2656,305.9688 Q788.4219,305.75 788.6094,305.6406 Q788.7969,305.5313 789.0156,305.5313 Q789.3906,305.5313 789.625,305.7891 Q789.8594,306.0469 789.8594,306.6563 L789.8594,308.1094 Q789.8594,308.7188 789.625,308.9844 Q789.3906,309.25 789.0156,309.25 Q788.6719,309.25 788.4688,309.0469 Q788.2656,308.8594 788.1563,308.3438 Q788.1094,307.9844 787.9219,307.7969 Q787.5938,307.4219 786.9844,307.2031 Q786.375,306.9844 785.75,306.9844 Q784.9844,306.9844 784.3516,307.3125 Q783.7188,307.6406 783.2266,308.3906 Q782.7344,309.1406 782.7344,310.1719 L782.7344,311.2656 Q782.7344,312.5 783.625,313.3203 Q784.5156,314.1406 786.1094,314.1406 Q787.0469,314.1406 787.7031,313.8906 Q788.0938,313.7344 788.5156,313.2969 Q788.7813,313.0313 788.9297,312.9531 Q789.0781,312.875 789.2813,312.875 Q789.6094,312.875 789.8672,313.1328 Q790.125,313.3906 790.125,313.7344 Q790.125,314.0781 789.7813,314.4844 Q789.2813,315.0625 788.4844,315.3906 Q787.4063,315.8438 786.1094,315.8438 Q784.5938,315.8438 783.3906,315.2188 Q782.4063,314.7188 781.7188,313.6484 Q781.0313,312.5781 781.0313,311.2969 L781.0313,310.1406 Q781.0313,308.8125 781.6484,307.6641 Q782.2656,306.5156 783.3594,305.8984 Q784.4531,305.2813 785.6875,305.2813 Q786.4219,305.2813 787.0703,305.4453 Q787.7188,305.6094 788.2656,305.9688 Z "/><text fill="#000000" font-family="sans-serif" font-size="14" font-weight="bold" lengthAdjust="spacingAndGlyphs" textLength="121" x="825.5" y="309.5332">SerializableGame</text><text fill="#000000" font-family="sans-serif" font-size="10" lengthAdjust="spacingAndGlyphs" textLength="173" x="799.5" y="322.9902">soen6441riskgame.models.serializers</text></a><!--link soen6441riskgame.models.serializers.SerializableGame.Builder to soen6441riskgame.models.Country--><path d="M291.489,119 C190.822,119 84,119 84,119 C84,119 84,284.9207 84,284.9207 " fill="none" id="soen6441riskgame.models.serializers.SerializableGame.Builder-soen6441riskgame.models.Country" style="stroke: #A80036; stroke-width: 1.0;"/><polygon fill="#A80036" points="84,289.9207,88,280.9207,84,284.9207,80,280.9207,84,289.9207" style="stroke: #A80036; stroke-width: 1.0;"/><text fill="#000000" font-family="sans-serif" font-size="13" lengthAdjust="spacingAndGlyphs" textLength="62" x="12.8937" y="279.1916">countries *</text><!--link soen6441riskgame.models.serializers.SerializableGame.Builder to soen6441riskgame.models.Continent--><path d="M322.25,230.1055 C322.25,230.1055 322.25,284.8081 322.25,284.8081 " fill="none" id="soen6441riskgame.models.serializers.SerializableGame.Builder-soen6441riskgame.models.Continent" style="stroke: #A80036; stroke-width: 1.0;"/><polygon fill="#A80036" points="322.25,289.8081,326.25,280.8081,322.25,284.8081,318.25,280.8081,322.25,289.8081" style="stroke: #A80036; stroke-width: 1.0;"/><text fill="#000000" font-family="sans-serif" font-size="13" lengthAdjust="spacingAndGlyphs" textLength="69" x="256.9953" y="279.0459">continents *</text><!--link soen6441riskgame.models.serializers.SerializableGame.Builder to soen6441riskgame.models.Player--><path d="M466,230.1055 C466,230.1055 466,284.8081 466,284.8081 " fill="none" id="soen6441riskgame.models.serializers.SerializableGame.Builder-soen6441riskgame.models.Player" style="stroke: #A80036; stroke-width: 1.0;"/><polygon fill="#A80036" points="466,289.8081,470,280.8081,466,284.8081,462,280.8081,466,289.8081" style="stroke: #A80036; stroke-width: 1.0;"/><text fill="#000000" font-family="sans-serif" font-size="13" lengthAdjust="spacingAndGlyphs" textLength="51" x="407.5094" y="279.0459">players *</text><!--link soen6441riskgame.models.serializers.SerializableGame.Builder to soen6441riskgame.models.Card--><path d="M609.75,230.1055 C609.75,230.1055 609.75,284.8081 609.75,284.8081 " fill="none" id="soen6441riskgame.models.serializers.SerializableGame.Builder-soen6441riskgame.models.Card" style="stroke: #A80036; stroke-width: 1.0;"/><polygon fill="#A80036" points="609.75,289.8081,613.75,280.8081,609.75,284.8081,605.75,280.8081,609.75,289.8081" style="stroke: #A80036; stroke-width: 1.0;"/><text fill="#000000" font-family="sans-serif" font-size="13" lengthAdjust="spacingAndGlyphs" textLength="32" x="559.1703" y="279.0459">cards</text><!--link soen6441riskgame.models.serializers.SerializableGame.Builder to soen6441riskgame.models.serializers.SerializableGame--><path d="M640.671,119 C751.06,119 873,119 873,119 C873,119 873,284.9207 873,284.9207 " fill="none" id="soen6441riskgame.models.serializers.SerializableGame.Builder-soen6441riskgame.models.serializers.SerializableGame" style="stroke: #A80036; stroke-width: 1.0; stroke-dasharray: 7.0,7.0;"/><polygon fill="#A80036" points="873,289.9207,877,280.9207,873,284.9207,869,280.9207,873,289.9207" style="stroke: #A80036; stroke-width: 1.0;"/><!--
@startuml

skinparam svgLinkTarget _parent
skinparam linetype ortho
set namespaceSeparator none
class "<b><size:14>SerializableGame.Builder</b>\n<size:10>soen6441riskgame.models.serializers" as soen6441riskgame.models.serializers.SerializableGame.Builder  [[../../../soen6441riskgame/models/serializers/SerializableGame.Builder.html{soen6441riskgame.models.serializers.SerializableGame.Builder}]] {
-List<Country> countries
-List<Continent> continents
-List<Player> players
-int borders
-Card cards
+Builder()
+SerializableGame.Builder setContinents(List<Continent> continents)
+SerializableGame.Builder setCountries(List<Country> countries)
+SerializableGame.Builder setPlayers(List<Player> players)
+SerializableGame.Builder setBorders(int borders)
+SerializableGame.Builder setCards(Card cards)
+SerializableGame build()
}



class "<b><size:14>Country</b>\n<size:10>soen6441riskgame.models" as soen6441riskgame.models.Country  [[../../../soen6441riskgame/models/Country.html{soen6441riskgame.models.Country}]] #white {
}

hide soen6441riskgame.models.Country fields
hide soen6441riskgame.models.Country methods

soen6441riskgame.models.serializers.SerializableGame.Builder - ->  "countries *" soen6441riskgame.models.Country


class "<b><size:14>Continent</b>\n<size:10>soen6441riskgame.models" as soen6441riskgame.models.Continent  [[../../../soen6441riskgame/models/Continent.html{soen6441riskgame.models.Continent}]] #white {
}

hide soen6441riskgame.models.Continent fields
hide soen6441riskgame.models.Continent methods

soen6441riskgame.models.serializers.SerializableGame.Builder - ->  "continents *" soen6441riskgame.models.Continent


class "<b><size:14>Player</b>\n<size:10>soen6441riskgame.models" as soen6441riskgame.models.Player  [[../../../soen6441riskgame/models/Player.html{soen6441riskgame.models.Player}]] #white {
}

hide soen6441riskgame.models.Player fields
hide soen6441riskgame.models.Player methods

soen6441riskgame.models.serializers.SerializableGame.Builder - ->  "players *" soen6441riskgame.models.Player

class "<b><size:14>Card</b>\n<size:10>soen6441riskgame.models" as soen6441riskgame.models.Card  [[../../../soen6441riskgame/models/Card.html{soen6441riskgame.models.Card}]] #white {
}

hide soen6441riskgame.models.Card fields
hide soen6441riskgame.models.Card methods

soen6441riskgame.models.serializers.SerializableGame.Builder - ->  "cards" soen6441riskgame.models.Card

class "<b><size:14>SerializableGame</b>\n<size:10>soen6441riskgame.models.serializers" as soen6441riskgame.models.serializers.SerializableGame  [[../../../soen6441riskgame/models/serializers/SerializableGame.html{soen6441riskgame.models.serializers.SerializableGame}]] {
}

hide soen6441riskgame.models.serializers.SerializableGame fields
hide soen6441riskgame.models.serializers.SerializableGame methods

soen6441riskgame.models.serializers.SerializableGame.Builder ..> soen6441riskgame.models.serializers.SerializableGame


@enduml

PlantUML version 1.2017.15(Mon Jul 03 12:45:34 EDT 2017)
(GPL source distribution)
Java Runtime: Java(TM) SE Runtime Environment
JVM: Java HotSpot(TM) 64-Bit Server VM
Java Version: 1.8.0_231-b11
Operating System: Windows 10
OS Version: 10.0
Default Encoding: Cp1252
Language: en
Country: US
--></g></svg>