<?xml version="1.0" encoding="UTF-8" standalone="no"?><svg xmlns="http://www.w3.org/2000/svg" xmlns:xlink="http://www.w3.org/1999/xlink" contentScriptType="application/ecmascript" contentStyleType="text/css" height="383px" preserveAspectRatio="none" style="width:1186px;height:383px;" version="1.1" viewBox="0 0 1186 383" width="1186px" zoomAndPan="magnify"><defs><filter height="300%" id="fqdwutdqx4y1h" width="300%" x="-1" y="-1"><feGaussianBlur result="blurOut" stdDeviation="2.0"/><feColorMatrix in="blurOut" result="blurOut2" type="matrix" values="0 0 0 0 0 0 0 0 0 0 0 0 0 0 0 0 0 0 .4 0"/><feOffset dx="4.0" dy="4.0" in="blurOut2" result="blurOut3"/><feBlend in="SourceGraphic" in2="blurOut3" mode="normal"/></filter></defs><g><!--class soen6441riskgame.models.serializers.SerializableGame.Builder--><a target="_parent" xlink:actuate="onRequest" xlink:href="../../../soen6441riskgame/models/serializers/SerializableGame.Builder.html" xlink:show="new" xlink:title="soen6441riskgame.models.serializers.SerializableGame.Builder" xlink:type="simple"><rect fill="#FEFECE" filter="url(#fqdwutdqx4y1h)" height="263.7266" id="soen6441riskgame.models.serializers.SerializableGame.Builder" style="stroke: #A80036; stroke-width: 1.5;" width="445" x="338.5" y="8"/><ellipse cx="468.75" cy="28.0938" fill="#ADD1B2" rx="11" ry="11" style="stroke: #A80036; stroke-width: 1.0;"/><path d="M471.5156,23.9688 Q471.6719,23.75 471.8594,23.6406 Q472.0469,23.5313 472.2656,23.5313 Q472.6406,23.5313 472.875,23.7891 Q473.1094,24.0469 473.1094,24.6563 L473.1094,26.1094 Q473.1094,26.7188 472.875,26.9844 Q472.6406,27.25 472.2656,27.25 Q471.9219,27.25 471.7188,27.0469 Q471.5156,26.8594 471.4063,26.3438 Q471.3594,25.9844 471.1719,25.7969 Q470.8438,25.4219 470.2344,25.2031 Q469.625,24.9844 469,24.9844 Q468.2344,24.9844 467.6016,25.3125 Q466.9688,25.6406 466.4766,26.3906 Q465.9844,27.1406 465.9844,28.1719 L465.9844,29.2656 Q465.9844,30.5 466.875,31.3203 Q467.7656,32.1406 469.3594,32.1406 Q470.2969,32.1406 470.9531,31.8906 Q471.3438,31.7344 471.7656,31.2969 Q472.0313,31.0313 472.1797,30.9531 Q472.3281,30.875 472.5313,30.875 Q472.8594,30.875 473.1172,31.1328 Q473.375,31.3906 473.375,31.7344 Q473.375,32.0781 473.0313,32.4844 Q472.5313,33.0625 471.7344,33.3906 Q470.6563,33.8438 469.3594,33.8438 Q467.8438,33.8438 466.6406,33.2188 Q465.6563,32.7188 464.9688,31.6484 Q464.2813,30.5781 464.2813,29.2969 L464.2813,28.1406 Q464.2813,26.8125 464.8984,25.6641 Q465.5156,24.5156 466.6094,23.8984 Q467.7031,23.2813 468.9375,23.2813 Q469.6719,23.2813 470.3203,23.4453 Q470.9688,23.6094 471.5156,23.9688 Z "/><text fill="#000000" font-family="sans-serif" font-size="14" font-weight="bold" lengthAdjust="spacingAndGlyphs" textLength="176" x="489.25" y="27.5332">SerializableGame.Builder</text><text fill="#000000" font-family="sans-serif" font-size="10" lengthAdjust="spacingAndGlyphs" textLength="173" x="490.75" y="40.9902">soen6441riskgame.models.serializers</text><line style="stroke: #A80036; stroke-width: 1.5;" x1="339.5" x2="782.5" y1="48.1875" y2="48.1875"/><rect fill="none" height="6" style="stroke: #C82930; stroke-width: 1.0;" width="6" x="346.5" y="57.6055"/><text fill="#000000" font-family="sans-serif" font-size="11" lengthAdjust="spacingAndGlyphs" textLength="115" x="358.5" y="63.6064">List&lt;Country&gt; countries</text><rect fill="none" height="6" style="stroke: #C82930; stroke-width: 1.0;" width="6" x="346.5" y="71.4414"/><text fill="#000000" font-family="sans-serif" font-size="11" lengthAdjust="spacingAndGlyphs" textLength="127" x="358.5" y="77.4424">List&lt;Continent&gt; continents</text><rect fill="none" height="6" style="stroke: #C82930; stroke-width: 1.0;" width="6" x="346.5" y="85.2773"/><text fill="#000000" font-family="sans-serif" font-size="11" lengthAdjust="spacingAndGlyphs" textLength="98" x="358.5" y="91.2783">List&lt;Player&gt; players</text><rect fill="none" height="6" style="stroke: #C82930; stroke-width: 1.0;" width="6" x="346.5" y="99.1133"/><text fill="#000000" font-family="sans-serif" font-size="11" lengthAdjust="spacingAndGlyphs" textLength="52" x="358.5" y="105.1143">int borders</text><rect fill="none" height="6" style="stroke: #C82930; stroke-width: 1.0;" width="6" x="346.5" y="112.9492"/><text fill="#000000" font-family="sans-serif" font-size="11" lengthAdjust="spacingAndGlyphs" textLength="54" x="358.5" y="118.9502">Card cards</text><rect fill="none" height="6" style="stroke: #C82930; stroke-width: 1.0;" width="6" x="346.5" y="126.7852"/><text fill="#000000" font-family="sans-serif" font-size="11" lengthAdjust="spacingAndGlyphs" textLength="183" x="358.5" y="132.7861">GameBoardPlaying gameBoardPlaying</text><line style="stroke: #A80036; stroke-width: 1.5;" x1="339.5" x2="782.5" y1="139.2031" y2="139.2031"/><ellipse cx="349.5" cy="151.6211" fill="#84BE84" rx="3" ry="3" style="stroke: #038048; stroke-width: 1.0;"/><text fill="#000000" font-family="sans-serif" font-size="11" lengthAdjust="spacingAndGlyphs" textLength="41" x="358.5" y="154.6221">Builder()</text><ellipse cx="349.5" cy="165.457" fill="#84BE84" rx="3" ry="3" style="stroke: #038048; stroke-width: 1.0;"/><text fill="#000000" font-family="sans-serif" font-size="11" lengthAdjust="spacingAndGlyphs" textLength="323" x="358.5" y="168.458">SerializableGame.Builder setContinents(List&lt;Continent&gt; continents)</text><ellipse cx="349.5" cy="179.293" fill="#84BE84" rx="3" ry="3" style="stroke: #038048; stroke-width: 1.0;"/><text fill="#000000" font-family="sans-serif" font-size="11" lengthAdjust="spacingAndGlyphs" textLength="306" x="358.5" y="182.2939">SerializableGame.Builder setCountries(List&lt;Country&gt; countries)</text><ellipse cx="349.5" cy="193.1289" fill="#84BE84" rx="3" ry="3" style="stroke: #038048; stroke-width: 1.0;"/><text fill="#000000" font-family="sans-serif" font-size="11" lengthAdjust="spacingAndGlyphs" textLength="279" x="358.5" y="196.1299">SerializableGame.Builder setPlayers(List&lt;Player&gt; players)</text><ellipse cx="349.5" cy="206.9648" fill="#84BE84" rx="3" ry="3" style="stroke: #038048; stroke-width: 1.0;"/><text fill="#000000" font-family="sans-serif" font-size="11" lengthAdjust="spacingAndGlyphs" textLength="236" x="358.5" y="209.9658">SerializableGame.Builder setBorders(int borders)</text><ellipse cx="349.5" cy="220.8008" fill="#84BE84" rx="3" ry="3" style="stroke: #038048; stroke-width: 1.0;"/><text fill="#000000" font-family="sans-serif" font-size="11" lengthAdjust="spacingAndGlyphs" textLength="228" x="358.5" y="223.8018">SerializableGame.Builder setCards(Card cards)</text><ellipse cx="349.5" cy="234.6367" fill="#84BE84" rx="3" ry="3" style="stroke: #038048; stroke-width: 1.0;"/><text fill="#000000" font-family="sans-serif" font-size="11" lengthAdjust="spacingAndGlyphs" textLength="419" x="358.5" y="237.6377">SerializableGame.Builder setGameBoardPlaying(GameBoardPlaying gameBoardPlaying)</text><ellipse cx="349.5" cy="248.4727" fill="#84BE84" rx="3" ry="3" style="stroke: #038048; stroke-width: 1.0;"/><text fill="#000000" font-family="sans-serif" font-size="11" lengthAdjust="spacingAndGlyphs" textLength="116" x="358.5" y="251.4736">SerializableGame build()</text><ellipse cx="349.5" cy="262.3086" fill="#84BE84" rx="3" ry="3" style="stroke: #038048; stroke-width: 1.0;"/><text fill="#000000" font-family="sans-serif" font-size="11" lengthAdjust="spacingAndGlyphs" textLength="115" x="358.5" y="265.3096">void reconstructGame()</text></a><!--class soen6441riskgame.models.Country--><a target="_parent" xlink:actuate="onRequest" xlink:href="../../../soen6441riskgame/models/Country.html" xlink:show="new" xlink:title="soen6441riskgame.models.Country" xlink:type="simple"><rect fill="#FFFFFF" filter="url(#fqdwutdqx4y1h)" height="40.1875" id="soen6441riskgame.models.Country" style="stroke: #A80036; stroke-width: 1.5;" width="156" x="6" y="332"/><rect fill="#FFFFFF" height="40.1875" style="stroke: #A80036; stroke-width: 1.5;" width="156" x="6" y="332"/><ellipse cx="21" cy="352.0938" fill="#ADD1B2" rx="11" ry="11" style="stroke: #A80036; stroke-width: 1.0;"/><path d="M23.7656,347.9688 Q23.9219,347.75 24.1094,347.6406 Q24.2969,347.5313 24.5156,347.5313 Q24.8906,347.5313 25.125,347.7891 Q25.3594,348.0469 25.3594,348.6563 L25.3594,350.1094 Q25.3594,350.7188 25.125,350.9844 Q24.8906,351.25 24.5156,351.25 Q24.1719,351.25 23.9688,351.0469 Q23.7656,350.8594 23.6563,350.3438 Q23.6094,349.9844 23.4219,349.7969 Q23.0938,349.4219 22.4844,349.2031 Q21.875,348.9844 21.25,348.9844 Q20.4844,348.9844 19.8516,349.3125 Q19.2188,349.6406 18.7266,350.3906 Q18.2344,351.1406 18.2344,352.1719 L18.2344,353.2656 Q18.2344,354.5 19.125,355.3203 Q20.0156,356.1406 21.6094,356.1406 Q22.5469,356.1406 23.2031,355.8906 Q23.5938,355.7344 24.0156,355.2969 Q24.2813,355.0313 24.4297,354.9531 Q24.5781,354.875 24.7813,354.875 Q25.1094,354.875 25.3672,355.1328 Q25.625,355.3906 25.625,355.7344 Q25.625,356.0781 25.2813,356.4844 Q24.7813,357.0625 23.9844,357.3906 Q22.9063,357.8438 21.6094,357.8438 Q20.0938,357.8438 18.8906,357.2188 Q17.9063,356.7188 17.2188,355.6484 Q16.5313,354.5781 16.5313,353.2969 L16.5313,352.1406 Q16.5313,350.8125 17.1484,349.6641 Q17.7656,348.5156 18.8594,347.8984 Q19.9531,347.2813 21.1875,347.2813 Q21.9219,347.2813 22.5703,347.4453 Q23.2188,347.6094 23.7656,347.9688 Z "/><text fill="#000000" font-family="sans-serif" font-size="14" font-weight="bold" lengthAdjust="spacingAndGlyphs" textLength="55" x="69.5" y="351.5332">Country</text><text fill="#000000" font-family="sans-serif" font-size="10" lengthAdjust="spacingAndGlyphs" textLength="124" x="35" y="364.9902">soen6441riskgame.models</text></a><!--class soen6441riskgame.models.Continent--><a target="_parent" xlink:actuate="onRequest" xlink:href="../../../soen6441riskgame/models/Continent.html" xlink:show="new" xlink:title="soen6441riskgame.models.Continent" xlink:type="simple"><rect fill="#FFFFFF" filter="url(#fqdwutdqx4y1h)" height="40.1875" id="soen6441riskgame.models.Continent" style="stroke: #A80036; stroke-width: 1.5;" width="156" x="197" y="332"/><rect fill="#FFFFFF" height="40.1875" style="stroke: #A80036; stroke-width: 1.5;" width="156" x="197" y="332"/><ellipse cx="212" cy="352.0938" fill="#ADD1B2" rx="11" ry="11" style="stroke: #A80036; stroke-width: 1.0;"/><path d="M214.7656,347.9688 Q214.9219,347.75 215.1094,347.6406 Q215.2969,347.5313 215.5156,347.5313 Q215.8906,347.5313 216.125,347.7891 Q216.3594,348.0469 216.3594,348.6563 L216.3594,350.1094 Q216.3594,350.7188 216.125,350.9844 Q215.8906,351.25 215.5156,351.25 Q215.1719,351.25 214.9688,351.0469 Q214.7656,350.8594 214.6563,350.3438 Q214.6094,349.9844 214.4219,349.7969 Q214.0938,349.4219 213.4844,349.2031 Q212.875,348.9844 212.25,348.9844 Q211.4844,348.9844 210.8516,349.3125 Q210.2188,349.6406 209.7266,350.3906 Q209.2344,351.1406 209.2344,352.1719 L209.2344,353.2656 Q209.2344,354.5 210.125,355.3203 Q211.0156,356.1406 212.6094,356.1406 Q213.5469,356.1406 214.2031,355.8906 Q214.5938,355.7344 215.0156,355.2969 Q215.2813,355.0313 215.4297,354.9531 Q215.5781,354.875 215.7813,354.875 Q216.1094,354.875 216.3672,355.1328 Q216.625,355.3906 216.625,355.7344 Q216.625,356.0781 216.2813,356.4844 Q215.7813,357.0625 214.9844,357.3906 Q213.9063,357.8438 212.6094,357.8438 Q211.0938,357.8438 209.8906,357.2188 Q208.9063,356.7188 208.2188,355.6484 Q207.5313,354.5781 207.5313,353.2969 L207.5313,352.1406 Q207.5313,350.8125 208.1484,349.6641 Q208.7656,348.5156 209.8594,347.8984 Q210.9531,347.2813 212.1875,347.2813 Q212.9219,347.2813 213.5703,347.4453 Q214.2188,347.6094 214.7656,347.9688 Z "/><text fill="#000000" font-family="sans-serif" font-size="14" font-weight="bold" lengthAdjust="spacingAndGlyphs" textLength="69" x="253.5" y="351.5332">Continent</text><text fill="#000000" font-family="sans-serif" font-size="10" lengthAdjust="spacingAndGlyphs" textLength="124" x="226" y="364.9902">soen6441riskgame.models</text></a><!--class soen6441riskgame.models.Player--><a target="_parent" xlink:actuate="onRequest" xlink:href="../../../soen6441riskgame/models/Player.html" xlink:show="new" xlink:title="soen6441riskgame.models.Player" xlink:type="simple"><rect fill="#FFFFFF" filter="url(#fqdwutdqx4y1h)" height="40.1875" id="soen6441riskgame.models.Player" style="stroke: #A80036; stroke-width: 1.5;" width="156" x="388" y="332"/><rect fill="#FFFFFF" height="40.1875" style="stroke: #A80036; stroke-width: 1.5;" width="156" x="388" y="332"/><ellipse cx="403" cy="352.0938" fill="#ADD1B2" rx="11" ry="11" style="stroke: #A80036; stroke-width: 1.0;"/><path d="M405.7656,347.9688 Q405.9219,347.75 406.1094,347.6406 Q406.2969,347.5313 406.5156,347.5313 Q406.8906,347.5313 407.125,347.7891 Q407.3594,348.0469 407.3594,348.6563 L407.3594,350.1094 Q407.3594,350.7188 407.125,350.9844 Q406.8906,351.25 406.5156,351.25 Q406.1719,351.25 405.9688,351.0469 Q405.7656,350.8594 405.6563,350.3438 Q405.6094,349.9844 405.4219,349.7969 Q405.0938,349.4219 404.4844,349.2031 Q403.875,348.9844 403.25,348.9844 Q402.4844,348.9844 401.8516,349.3125 Q401.2188,349.6406 400.7266,350.3906 Q400.2344,351.1406 400.2344,352.1719 L400.2344,353.2656 Q400.2344,354.5 401.125,355.3203 Q402.0156,356.1406 403.6094,356.1406 Q404.5469,356.1406 405.2031,355.8906 Q405.5938,355.7344 406.0156,355.2969 Q406.2813,355.0313 406.4297,354.9531 Q406.5781,354.875 406.7813,354.875 Q407.1094,354.875 407.3672,355.1328 Q407.625,355.3906 407.625,355.7344 Q407.625,356.0781 407.2813,356.4844 Q406.7813,357.0625 405.9844,357.3906 Q404.9063,357.8438 403.6094,357.8438 Q402.0938,357.8438 400.8906,357.2188 Q399.9063,356.7188 399.2188,355.6484 Q398.5313,354.5781 398.5313,353.2969 L398.5313,352.1406 Q398.5313,350.8125 399.1484,349.6641 Q399.7656,348.5156 400.8594,347.8984 Q401.9531,347.2813 403.1875,347.2813 Q403.9219,347.2813 404.5703,347.4453 Q405.2188,347.6094 405.7656,347.9688 Z "/><text fill="#000000" font-family="sans-serif" font-size="14" font-weight="bold" lengthAdjust="spacingAndGlyphs" textLength="43" x="457.5" y="351.5332">Player</text><text fill="#000000" font-family="sans-serif" font-size="10" lengthAdjust="spacingAndGlyphs" textLength="124" x="417" y="364.9902">soen6441riskgame.models</text></a><!--class soen6441riskgame.models.Card--><a target="_parent" xlink:actuate="onRequest" xlink:href="../../../soen6441riskgame/models/Card.html" xlink:show="new" xlink:title="soen6441riskgame.models.Card" xlink:type="simple"><rect fill="#FFFFFF" filter="url(#fqdwutdqx4y1h)" height="40.1875" id="soen6441riskgame.models.Card" style="stroke: #A80036; stroke-width: 1.5;" width="156" x="579" y="332"/><rect fill="#FFFFFF" height="40.1875" style="stroke: #A80036; stroke-width: 1.5;" width="156" x="579" y="332"/><ellipse cx="594" cy="352.0938" fill="#ADD1B2" rx="11" ry="11" style="stroke: #A80036; stroke-width: 1.0;"/><path d="M596.7656,347.9688 Q596.9219,347.75 597.1094,347.6406 Q597.2969,347.5313 597.5156,347.5313 Q597.8906,347.5313 598.125,347.7891 Q598.3594,348.0469 598.3594,348.6563 L598.3594,350.1094 Q598.3594,350.7188 598.125,350.9844 Q597.8906,351.25 597.5156,351.25 Q597.1719,351.25 596.9688,351.0469 Q596.7656,350.8594 596.6563,350.3438 Q596.6094,349.9844 596.4219,349.7969 Q596.0938,349.4219 595.4844,349.2031 Q594.875,348.9844 594.25,348.9844 Q593.4844,348.9844 592.8516,349.3125 Q592.2188,349.6406 591.7266,350.3906 Q591.2344,351.1406 591.2344,352.1719 L591.2344,353.2656 Q591.2344,354.5 592.125,355.3203 Q593.0156,356.1406 594.6094,356.1406 Q595.5469,356.1406 596.2031,355.8906 Q596.5938,355.7344 597.0156,355.2969 Q597.2813,355.0313 597.4297,354.9531 Q597.5781,354.875 597.7813,354.875 Q598.1094,354.875 598.3672,355.1328 Q598.625,355.3906 598.625,355.7344 Q598.625,356.0781 598.2813,356.4844 Q597.7813,357.0625 596.9844,357.3906 Q595.9063,357.8438 594.6094,357.8438 Q593.0938,357.8438 591.8906,357.2188 Q590.9063,356.7188 590.2188,355.6484 Q589.5313,354.5781 589.5313,353.2969 L589.5313,352.1406 Q589.5313,350.8125 590.1484,349.6641 Q590.7656,348.5156 591.8594,347.8984 Q592.9531,347.2813 594.1875,347.2813 Q594.9219,347.2813 595.5703,347.4453 Q596.2188,347.6094 596.7656,347.9688 Z "/><text fill="#000000" font-family="sans-serif" font-size="14" font-weight="bold" lengthAdjust="spacingAndGlyphs" textLength="33" x="653.5" y="351.5332">Card</text><text fill="#000000" font-family="sans-serif" font-size="10" lengthAdjust="spacingAndGlyphs" textLength="124" x="608" y="364.9902">soen6441riskgame.models</text></a><!--class soen6441riskgame.singleton.GameBoardPlaying--><a target="_parent" xlink:actuate="onRequest" xlink:href="../../../soen6441riskgame/singleton/GameBoardPlaying.html" xlink:show="new" xlink:title="soen6441riskgame.singleton.GameBoardPlaying" xlink:type="simple"><rect fill="#FFFFFF" filter="url(#fqdwutdqx4y1h)" height="40.1875" id="soen6441riskgame.singleton.GameBoardPlaying" style="stroke: #A80036; stroke-width: 1.5;" width="165" x="770.5" y="332"/><rect fill="#FFFFFF" height="40.1875" style="stroke: #A80036; stroke-width: 1.5;" width="165" x="770.5" y="332"/><ellipse cx="785.5" cy="352.0938" fill="#ADD1B2" rx="11" ry="11" style="stroke: #A80036; stroke-width: 1.0;"/><path d="M788.2656,347.9688 Q788.4219,347.75 788.6094,347.6406 Q788.7969,347.5313 789.0156,347.5313 Q789.3906,347.5313 789.625,347.7891 Q789.8594,348.0469 789.8594,348.6563 L789.8594,350.1094 Q789.8594,350.7188 789.625,350.9844 Q789.3906,351.25 789.0156,351.25 Q788.6719,351.25 788.4688,351.0469 Q788.2656,350.8594 788.1563,350.3438 Q788.1094,349.9844 787.9219,349.7969 Q787.5938,349.4219 786.9844,349.2031 Q786.375,348.9844 785.75,348.9844 Q784.9844,348.9844 784.3516,349.3125 Q783.7188,349.6406 783.2266,350.3906 Q782.7344,351.1406 782.7344,352.1719 L782.7344,353.2656 Q782.7344,354.5 783.625,355.3203 Q784.5156,356.1406 786.1094,356.1406 Q787.0469,356.1406 787.7031,355.8906 Q788.0938,355.7344 788.5156,355.2969 Q788.7813,355.0313 788.9297,354.9531 Q789.0781,354.875 789.2813,354.875 Q789.6094,354.875 789.8672,355.1328 Q790.125,355.3906 790.125,355.7344 Q790.125,356.0781 789.7813,356.4844 Q789.2813,357.0625 788.4844,357.3906 Q787.4063,357.8438 786.1094,357.8438 Q784.5938,357.8438 783.3906,357.2188 Q782.4063,356.7188 781.7188,355.6484 Q781.0313,354.5781 781.0313,353.2969 L781.0313,352.1406 Q781.0313,350.8125 781.6484,349.6641 Q782.2656,348.5156 783.3594,347.8984 Q784.4531,347.2813 785.6875,347.2813 Q786.4219,347.2813 787.0703,347.4453 Q787.7188,347.6094 788.2656,347.9688 Z "/><text fill="#000000" font-family="sans-serif" font-size="14" font-weight="bold" lengthAdjust="spacingAndGlyphs" textLength="132" x="800" y="351.5332">GameBoardPlaying</text><text fill="#000000" font-family="sans-serif" font-size="10" lengthAdjust="spacingAndGlyphs" textLength="133" x="799.5" y="364.9902">soen6441riskgame.singleton</text></a><!--class soen6441riskgame.models.serializers.SerializableGame--><a target="_parent" xlink:actuate="onRequest" xlink:href="../../../soen6441riskgame/models/serializers/SerializableGame.html" xlink:show="new" xlink:title="soen6441riskgame.models.serializers.SerializableGame" xlink:type="simple"><rect fill="#FEFECE" filter="url(#fqdwutdqx4y1h)" height="40.1875" id="soen6441riskgame.models.serializers.SerializableGame" style="stroke: #A80036; stroke-width: 1.5;" width="205" x="970.5" y="332"/><ellipse cx="985.5" cy="352.0938" fill="#ADD1B2" rx="11" ry="11" style="stroke: #A80036; stroke-width: 1.0;"/><path d="M988.2656,347.9688 Q988.4219,347.75 988.6094,347.6406 Q988.7969,347.5313 989.0156,347.5313 Q989.3906,347.5313 989.625,347.7891 Q989.8594,348.0469 989.8594,348.6563 L989.8594,350.1094 Q989.8594,350.7188 989.625,350.9844 Q989.3906,351.25 989.0156,351.25 Q988.6719,351.25 988.4688,351.0469 Q988.2656,350.8594 988.1563,350.3438 Q988.1094,349.9844 987.9219,349.7969 Q987.5938,349.4219 986.9844,349.2031 Q986.375,348.9844 985.75,348.9844 Q984.9844,348.9844 984.3516,349.3125 Q983.7188,349.6406 983.2266,350.3906 Q982.7344,351.1406 982.7344,352.1719 L982.7344,353.2656 Q982.7344,354.5 983.625,355.3203 Q984.5156,356.1406 986.1094,356.1406 Q987.0469,356.1406 987.7031,355.8906 Q988.0938,355.7344 988.5156,355.2969 Q988.7813,355.0313 988.9297,354.9531 Q989.0781,354.875 989.2813,354.875 Q989.6094,354.875 989.8672,355.1328 Q990.125,355.3906 990.125,355.7344 Q990.125,356.0781 989.7813,356.4844 Q989.2813,357.0625 988.4844,357.3906 Q987.4063,357.8438 986.1094,357.8438 Q984.5938,357.8438 983.3906,357.2188 Q982.4063,356.7188 981.7188,355.6484 Q981.0313,354.5781 981.0313,353.2969 L981.0313,352.1406 Q981.0313,350.8125 981.6484,349.6641 Q982.2656,348.5156 983.3594,347.8984 Q984.4531,347.2813 985.6875,347.2813 Q986.4219,347.2813 987.0703,347.4453 Q987.7188,347.6094 988.2656,347.9688 Z "/><text fill="#000000" font-family="sans-serif" font-size="14" font-weight="bold" lengthAdjust="spacingAndGlyphs" textLength="121" x="1025.5" y="351.5332">SerializableGame</text><text fill="#000000" font-family="sans-serif" font-size="10" lengthAdjust="spacingAndGlyphs" textLength="173" x="999.5" y="364.9902">soen6441riskgame.models.serializers</text></a><!--link soen6441riskgame.models.serializers.SerializableGame.Builder to soen6441riskgame.models.Country--><path d="M338.211,140 C213.961,140 84,140 84,140 C84,140 84,326.6725 84,326.6725 " fill="none" id="soen6441riskgame.models.serializers.SerializableGame.Builder-soen6441riskgame.models.Country" style="stroke: #A80036; stroke-width: 1.0;"/><polygon fill="#A80036" points="84,331.6725,88,322.6725,84,326.6725,80,322.6725,84,331.6725" style="stroke: #A80036; stroke-width: 1.0;"/><text fill="#000000" font-family="sans-serif" font-size="13" lengthAdjust="spacingAndGlyphs" textLength="62" x="13.2813" y="321.2236">countries *</text><!--link soen6441riskgame.models.serializers.SerializableGame.Builder to soen6441riskgame.models.Continent--><path d="M345.75,272.154 C345.75,272.154 345.75,326.8352 345.75,326.8352 " fill="none" id="soen6441riskgame.models.serializers.SerializableGame.Builder-soen6441riskgame.models.Continent" style="stroke: #A80036; stroke-width: 1.0;"/><polygon fill="#A80036" points="345.75,331.8352,349.75,322.8352,345.75,326.8352,341.75,322.8352,345.75,331.8352" style="stroke: #A80036; stroke-width: 1.0;"/><text fill="#000000" font-family="sans-serif" font-size="13" lengthAdjust="spacingAndGlyphs" textLength="69" x="287.3984" y="321.081">continents *</text><!--link soen6441riskgame.models.serializers.SerializableGame.Builder to soen6441riskgame.models.Player--><path d="M466,272.154 C466,272.154 466,326.8352 466,326.8352 " fill="none" id="soen6441riskgame.models.serializers.SerializableGame.Builder-soen6441riskgame.models.Player" style="stroke: #A80036; stroke-width: 1.0;"/><polygon fill="#A80036" points="466,331.8352,470,322.8352,466,326.8352,462,322.8352,466,331.8352" style="stroke: #A80036; stroke-width: 1.0;"/><text fill="#000000" font-family="sans-serif" font-size="13" lengthAdjust="spacingAndGlyphs" textLength="51" x="407.5094" y="321.081">players *</text><!--link soen6441riskgame.models.serializers.SerializableGame.Builder to soen6441riskgame.models.Card--><path d="M657,272.154 C657,272.154 657,326.8352 657,326.8352 " fill="none" id="soen6441riskgame.models.serializers.SerializableGame.Builder-soen6441riskgame.models.Card" style="stroke: #A80036; stroke-width: 1.0;"/><polygon fill="#A80036" points="657,331.8352,661,322.8352,657,326.8352,653,322.8352,657,331.8352" style="stroke: #A80036; stroke-width: 1.0;"/><text fill="#000000" font-family="sans-serif" font-size="13" lengthAdjust="spacingAndGlyphs" textLength="32" x="620.3" y="321.081">cards</text><!--link soen6441riskgame.models.serializers.SerializableGame.Builder to soen6441riskgame.singleton.GameBoardPlaying--><path d="M777,272.154 C777,272.154 777,326.8352 777,326.8352 " fill="none" id="soen6441riskgame.models.serializers.SerializableGame.Builder-soen6441riskgame.singleton.GameBoardPlaying" style="stroke: #A80036; stroke-width: 1.0;"/><polygon fill="#A80036" points="777,331.8352,781,322.8352,777,326.8352,773,322.8352,777,331.8352" style="stroke: #A80036; stroke-width: 1.0;"/><text fill="#000000" font-family="sans-serif" font-size="13" lengthAdjust="spacingAndGlyphs" textLength="109" x="687.2406" y="321.081">gameBoardPlaying</text><!--link soen6441riskgame.models.serializers.SerializableGame.Builder to soen6441riskgame.models.serializers.SerializableGame--><path d="M783.709,140 C921.783,140 1073,140 1073,140 C1073,140 1073,326.6725 1073,326.6725 " fill="none" id="soen6441riskgame.models.serializers.SerializableGame.Builder-soen6441riskgame.models.serializers.SerializableGame" style="stroke: #A80036; stroke-width: 1.0; stroke-dasharray: 7.0,7.0;"/><polygon fill="#A80036" points="1073,331.6725,1077,322.6725,1073,326.6725,1069,322.6725,1073,331.6725" style="stroke: #A80036; stroke-width: 1.0;"/><!--
@startuml

skinparam svgLinkTarget _parent
skinparam linetype ortho
set namespaceSeparator none
class "<b><size:14>SerializableGame.Builder</b>\n<size:10>soen6441riskgame.models.serializers" as soen6441riskgame.models.serializers.SerializableGame.Builder  [[../../../soen6441riskgame/models/serializers/SerializableGame.Builder.html{soen6441riskgame.models.serializers.SerializableGame.Builder}]] {
-List<Country> countries
-List<Continent> continents
-List<Player> players
-int borders
-Card cards
-GameBoardPlaying gameBoardPlaying
+Builder()
+SerializableGame.Builder setContinents(List<Continent> continents)
+SerializableGame.Builder setCountries(List<Country> countries)
+SerializableGame.Builder setPlayers(List<Player> players)
+SerializableGame.Builder setBorders(int borders)
+SerializableGame.Builder setCards(Card cards)
+SerializableGame.Builder setGameBoardPlaying(GameBoardPlaying gameBoardPlaying)
+SerializableGame build()
+void reconstructGame()
}



class "<b><size:14>Country</b>\n<size:10>soen6441riskgame.models" as soen6441riskgame.models.Country  [[../../../soen6441riskgame/models/Country.html{soen6441riskgame.models.Country}]] #white {
}

hide soen6441riskgame.models.Country fields
hide soen6441riskgame.models.Country methods

soen6441riskgame.models.serializers.SerializableGame.Builder - ->  "countries *" soen6441riskgame.models.Country


class "<b><size:14>Continent</b>\n<size:10>soen6441riskgame.models" as soen6441riskgame.models.Continent  [[../../../soen6441riskgame/models/Continent.html{soen6441riskgame.models.Continent}]] #white {
}

hide soen6441riskgame.models.Continent fields
hide soen6441riskgame.models.Continent methods

soen6441riskgame.models.serializers.SerializableGame.Builder - ->  "continents *" soen6441riskgame.models.Continent


class "<b><size:14>Player</b>\n<size:10>soen6441riskgame.models" as soen6441riskgame.models.Player  [[../../../soen6441riskgame/models/Player.html{soen6441riskgame.models.Player}]] #white {
}

hide soen6441riskgame.models.Player fields
hide soen6441riskgame.models.Player methods

soen6441riskgame.models.serializers.SerializableGame.Builder - ->  "players *" soen6441riskgame.models.Player

class "<b><size:14>Card</b>\n<size:10>soen6441riskgame.models" as soen6441riskgame.models.Card  [[../../../soen6441riskgame/models/Card.html{soen6441riskgame.models.Card}]] #white {
}

hide soen6441riskgame.models.Card fields
hide soen6441riskgame.models.Card methods

soen6441riskgame.models.serializers.SerializableGame.Builder - ->  "cards" soen6441riskgame.models.Card

class "<b><size:14>GameBoardPlaying</b>\n<size:10>soen6441riskgame.singleton" as soen6441riskgame.singleton.GameBoardPlaying  [[../../../soen6441riskgame/singleton/GameBoardPlaying.html{soen6441riskgame.singleton.GameBoardPlaying}]] #white {
}

hide soen6441riskgame.singleton.GameBoardPlaying fields
hide soen6441riskgame.singleton.GameBoardPlaying methods

soen6441riskgame.models.serializers.SerializableGame.Builder - ->  "gameBoardPlaying" soen6441riskgame.singleton.GameBoardPlaying

class "<b><size:14>SerializableGame</b>\n<size:10>soen6441riskgame.models.serializers" as soen6441riskgame.models.serializers.SerializableGame  [[../../../soen6441riskgame/models/serializers/SerializableGame.html{soen6441riskgame.models.serializers.SerializableGame}]] {
}

hide soen6441riskgame.models.serializers.SerializableGame fields
hide soen6441riskgame.models.serializers.SerializableGame methods

soen6441riskgame.models.serializers.SerializableGame.Builder ..> soen6441riskgame.models.serializers.SerializableGame


@enduml

PlantUML version 1.2017.15(Mon Jul 03 12:45:34 EDT 2017)
(GPL source distribution)
Java Runtime: Java(TM) SE Runtime Environment
JVM: Java HotSpot(TM) 64-Bit Server VM
Java Version: 1.8.0_231-b11
Operating System: Windows 10
OS Version: 10.0
Default Encoding: Cp1252
Language: en
Country: US
--></g></svg>