<?xml version="1.0" encoding="UTF-8" standalone="no"?><svg xmlns="http://www.w3.org/2000/svg" xmlns:xlink="http://www.w3.org/1999/xlink" contentScriptType="application/ecmascript" contentStyleType="text/css" height="303px" preserveAspectRatio="none" style="width:247px;height:303px;" version="1.1" viewBox="0 0 247 303" width="247px" zoomAndPan="magnify"><defs><filter height="300%" id="f5lbcjkdetw1g" width="300%" x="-1" y="-1"><feGaussianBlur result="blurOut" stdDeviation="2.0"/><feColorMatrix in="blurOut" result="blurOut2" type="matrix" values="0 0 0 0 0 0 0 0 0 0 0 0 0 0 0 0 0 0 .4 0"/><feOffset dx="4.0" dy="4.0" in="blurOut2" result="blurOut3"/><feBlend in="SourceGraphic" in2="blurOut3" mode="normal"/></filter></defs><g><!--class soen6441riskgame.views.ExchangeCardView--><a target="_parent" xlink:actuate="onRequest" xlink:href="../../soen6441riskgame/views/ExchangeCardView.html" xlink:show="new" xlink:title="soen6441riskgame.views.ExchangeCardView" xlink:type="simple"><rect fill="#FEFECE" filter="url(#f5lbcjkdetw1g)" height="83.8594" id="soen6441riskgame.views.ExchangeCardView" style="stroke: #A80036; stroke-width: 1.5;" width="208" x="28" y="108"/><ellipse cx="61.45" cy="128.0938" fill="#ADD1B2" rx="11" ry="11" style="stroke: #A80036; stroke-width: 1.0;"/><path d="M64.2156,123.9688 Q64.3719,123.75 64.5594,123.6406 Q64.7469,123.5313 64.9656,123.5313 Q65.3406,123.5313 65.575,123.7891 Q65.8094,124.0469 65.8094,124.6563 L65.8094,126.1094 Q65.8094,126.7188 65.575,126.9844 Q65.3406,127.25 64.9656,127.25 Q64.6219,127.25 64.4188,127.0469 Q64.2156,126.8594 64.1063,126.3438 Q64.0594,125.9844 63.8719,125.7969 Q63.5438,125.4219 62.9344,125.2031 Q62.325,124.9844 61.7,124.9844 Q60.9344,124.9844 60.3016,125.3125 Q59.6688,125.6406 59.1766,126.3906 Q58.6844,127.1406 58.6844,128.1719 L58.6844,129.2656 Q58.6844,130.5 59.575,131.3203 Q60.4656,132.1406 62.0594,132.1406 Q62.9969,132.1406 63.6531,131.8906 Q64.0438,131.7344 64.4656,131.2969 Q64.7313,131.0313 64.8797,130.9531 Q65.0281,130.875 65.2313,130.875 Q65.5594,130.875 65.8172,131.1328 Q66.075,131.3906 66.075,131.7344 Q66.075,132.0781 65.7313,132.4844 Q65.2313,133.0625 64.4344,133.3906 Q63.3563,133.8438 62.0594,133.8438 Q60.5438,133.8438 59.3406,133.2188 Q58.3563,132.7188 57.6688,131.6484 Q56.9813,130.5781 56.9813,129.2969 L56.9813,128.1406 Q56.9813,126.8125 57.5984,125.6641 Q58.2156,124.5156 59.3094,123.8984 Q60.4031,123.2813 61.6375,123.2813 Q62.3719,123.2813 63.0203,123.4453 Q63.6688,123.6094 64.2156,123.9688 Z "/><text fill="#000000" font-family="sans-serif" font-size="14" font-weight="bold" lengthAdjust="spacingAndGlyphs" textLength="135" x="79.55" y="127.5332">ExchangeCardView</text><text fill="#000000" font-family="sans-serif" font-size="10" lengthAdjust="spacingAndGlyphs" textLength="115" x="89.55" y="140.9902">soen6441riskgame.views</text><line style="stroke: #A80036; stroke-width: 1.5;" x1="29" x2="235" y1="148.1875" y2="148.1875"/><line style="stroke: #A80036; stroke-width: 1.5;" x1="29" x2="235" y1="156.1875" y2="156.1875"/><ellipse cx="39" cy="168.6055" fill="#84BE84" rx="3" ry="3" style="stroke: #038048; stroke-width: 1.0;"/><text fill="#000000" font-family="sans-serif" font-size="11" lengthAdjust="spacingAndGlyphs" textLength="105" x="48" y="171.6064">ExchangeCardView()</text><ellipse cx="39" cy="182.4414" fill="#84BE84" rx="3" ry="3" style="stroke: #038048; stroke-width: 1.0;"/><text fill="#000000" font-family="sans-serif" font-size="11" lengthAdjust="spacingAndGlyphs" textLength="182" x="48" y="185.4424">void update(Observable o,Object arg)</text></a><!--class soen6441riskgame.singleton.GameBoard--><a target="_parent" xlink:actuate="onRequest" xlink:href="../../soen6441riskgame/singleton/GameBoard.html" xlink:show="new" xlink:title="soen6441riskgame.singleton.GameBoard" xlink:type="simple"><rect fill="#FFFFFF" filter="url(#f5lbcjkdetw1g)" height="40.1875" id="soen6441riskgame.singleton.GameBoard" style="stroke: #A80036; stroke-width: 1.5;" width="165" x="49.5" y="8"/><rect fill="#FFFFFF" height="40.1875" style="stroke: #A80036; stroke-width: 1.5;" width="165" x="49.5" y="8"/><ellipse cx="64.5" cy="28.0938" fill="#ADD1B2" rx="11" ry="11" style="stroke: #A80036; stroke-width: 1.0;"/><path d="M67.2656,23.9688 Q67.4219,23.75 67.6094,23.6406 Q67.7969,23.5313 68.0156,23.5313 Q68.3906,23.5313 68.625,23.7891 Q68.8594,24.0469 68.8594,24.6563 L68.8594,26.1094 Q68.8594,26.7188 68.625,26.9844 Q68.3906,27.25 68.0156,27.25 Q67.6719,27.25 67.4688,27.0469 Q67.2656,26.8594 67.1563,26.3438 Q67.1094,25.9844 66.9219,25.7969 Q66.5938,25.4219 65.9844,25.2031 Q65.375,24.9844 64.75,24.9844 Q63.9844,24.9844 63.3516,25.3125 Q62.7188,25.6406 62.2266,26.3906 Q61.7344,27.1406 61.7344,28.1719 L61.7344,29.2656 Q61.7344,30.5 62.625,31.3203 Q63.5156,32.1406 65.1094,32.1406 Q66.0469,32.1406 66.7031,31.8906 Q67.0938,31.7344 67.5156,31.2969 Q67.7813,31.0313 67.9297,30.9531 Q68.0781,30.875 68.2813,30.875 Q68.6094,30.875 68.8672,31.1328 Q69.125,31.3906 69.125,31.7344 Q69.125,32.0781 68.7813,32.4844 Q68.2813,33.0625 67.4844,33.3906 Q66.4063,33.8438 65.1094,33.8438 Q63.5938,33.8438 62.3906,33.2188 Q61.4063,32.7188 60.7188,31.6484 Q60.0313,30.5781 60.0313,29.2969 L60.0313,28.1406 Q60.0313,26.8125 60.6484,25.6641 Q61.2656,24.5156 62.3594,23.8984 Q63.4531,23.2813 64.6875,23.2813 Q65.4219,23.2813 66.0703,23.4453 Q66.7188,23.6094 67.2656,23.9688 Z "/><text fill="#000000" font-family="sans-serif" font-size="14" font-weight="bold" lengthAdjust="spacingAndGlyphs" textLength="82" x="104" y="27.5332">GameBoard</text><text fill="#000000" font-family="sans-serif" font-size="10" lengthAdjust="spacingAndGlyphs" textLength="133" x="78.5" y="40.9902">soen6441riskgame.singleton</text></a><!--class soen6441riskgame.views.SeparatedView--><a target="_parent" xlink:actuate="onRequest" xlink:href="../../soen6441riskgame/views/SeparatedView.html" xlink:show="new" xlink:title="soen6441riskgame.views.SeparatedView" xlink:type="simple"><rect fill="#FEFECE" filter="url(#f5lbcjkdetw1g)" height="40.1875" id="soen6441riskgame.views.SeparatedView" style="stroke: #A80036; stroke-width: 1.5;" width="147" x="58.5" y="252"/><ellipse cx="73.5" cy="272.0938" fill="#ADD1B2" rx="11" ry="11" style="stroke: #A80036; stroke-width: 1.0;"/><path d="M76.2656,267.9688 Q76.4219,267.75 76.6094,267.6406 Q76.7969,267.5313 77.0156,267.5313 Q77.3906,267.5313 77.625,267.7891 Q77.8594,268.0469 77.8594,268.6563 L77.8594,270.1094 Q77.8594,270.7188 77.625,270.9844 Q77.3906,271.25 77.0156,271.25 Q76.6719,271.25 76.4688,271.0469 Q76.2656,270.8594 76.1563,270.3438 Q76.1094,269.9844 75.9219,269.7969 Q75.5938,269.4219 74.9844,269.2031 Q74.375,268.9844 73.75,268.9844 Q72.9844,268.9844 72.3516,269.3125 Q71.7188,269.6406 71.2266,270.3906 Q70.7344,271.1406 70.7344,272.1719 L70.7344,273.2656 Q70.7344,274.5 71.625,275.3203 Q72.5156,276.1406 74.1094,276.1406 Q75.0469,276.1406 75.7031,275.8906 Q76.0938,275.7344 76.5156,275.2969 Q76.7813,275.0313 76.9297,274.9531 Q77.0781,274.875 77.2813,274.875 Q77.6094,274.875 77.8672,275.1328 Q78.125,275.3906 78.125,275.7344 Q78.125,276.0781 77.7813,276.4844 Q77.2813,277.0625 76.4844,277.3906 Q75.4063,277.8438 74.1094,277.8438 Q72.5938,277.8438 71.3906,277.2188 Q70.4063,276.7188 69.7188,275.6484 Q69.0313,274.5781 69.0313,273.2969 L69.0313,272.1406 Q69.0313,270.8125 69.6484,269.6641 Q70.2656,268.5156 71.3594,267.8984 Q72.4531,267.2813 73.6875,267.2813 Q74.4219,267.2813 75.0703,267.4453 Q75.7188,267.6094 76.2656,267.9688 Z "/><text fill="#000000" font-family="sans-serif" font-size="14" font-weight="bold" lengthAdjust="spacingAndGlyphs" textLength="105" x="92.5" y="271.5332">SeparatedView</text><text fill="#000000" font-family="sans-serif" font-size="10" lengthAdjust="spacingAndGlyphs" textLength="115" x="87.5" y="284.9902">soen6441riskgame.views</text></a><!--link soen6441riskgame.singleton.GameBoard to soen6441riskgame.views.ExchangeCardView--><path d="M132,48.146 C132,48.146 132,102.804 132,102.804 " fill="none" id="soen6441riskgame.singleton.GameBoard-soen6441riskgame.views.ExchangeCardView" style="stroke: #A80036; stroke-width: 1.0;"/><polygon fill="#A80036" points="132,107.804,136,98.804,132,102.804,128,98.804,132,107.804" style="stroke: #A80036; stroke-width: 1.0;"/><text fill="#000000" font-family="sans-serif" font-size="13" lengthAdjust="spacingAndGlyphs" textLength="111" x="11.8078" y="97.0262">exchangeCardView</text><!--link soen6441riskgame.views.ExchangeCardView to soen6441riskgame.views.SeparatedView--><path d="M132,192.3273 C132,192.3273 132,231.9727 132,231.9727 " fill="none" id="soen6441riskgame.views.ExchangeCardView-soen6441riskgame.views.SeparatedView" style="stroke: #A80036; stroke-width: 1.0;"/><polygon fill="none" points="139,231.9727,132,251.9727,125,231.9726,139,231.9727" style="stroke: #A80036; stroke-width: 1.0;"/><!--
@startuml

skinparam svgLinkTarget _parent
skinparam linetype ortho
set namespaceSeparator none
class "<b><size:14>ExchangeCardView</b>\n<size:10>soen6441riskgame.views" as soen6441riskgame.views.ExchangeCardView  [[../../soen6441riskgame/views/ExchangeCardView.html{soen6441riskgame.views.ExchangeCardView}]] {
+ExchangeCardView()
+void update(Observable o,Object arg)
}


class "<b><size:14>GameBoard</b>\n<size:10>soen6441riskgame.singleton" as soen6441riskgame.singleton.GameBoard  [[../../soen6441riskgame/singleton/GameBoard.html{soen6441riskgame.singleton.GameBoard}]] #white {
}

hide soen6441riskgame.singleton.GameBoard fields
hide soen6441riskgame.singleton.GameBoard methods

soen6441riskgame.singleton.GameBoard - ->  "exchangeCardView" soen6441riskgame.views.ExchangeCardView

class "<b><size:14>SeparatedView</b>\n<size:10>soen6441riskgame.views" as soen6441riskgame.views.SeparatedView  [[../../soen6441riskgame/views/SeparatedView.html{soen6441riskgame.views.SeparatedView}]] {
}

hide soen6441riskgame.views.SeparatedView fields
hide soen6441riskgame.views.SeparatedView methods

soen6441riskgame.views.ExchangeCardView - -|> soen6441riskgame.views.SeparatedView




@enduml

PlantUML version 1.2017.15(Mon Jul 03 12:45:34 EDT 2017)
(GPL source distribution)
Java Runtime: Java(TM) SE Runtime Environment
JVM: Java HotSpot(TM) 64-Bit Server VM
Java Version: 1.8.0_231-b11
Operating System: Windows 10
OS Version: 10.0
Default Encoding: Cp1252
Language: en
Country: US
--></g></svg>