<?xml version="1.0" encoding="UTF-8" standalone="no"?><svg xmlns="http://www.w3.org/2000/svg" xmlns:xlink="http://www.w3.org/1999/xlink" contentScriptType="application/ecmascript" contentStyleType="text/css" height="212px" preserveAspectRatio="none" style="width:658px;height:212px;" version="1.1" viewBox="0 0 658 212" width="658px" zoomAndPan="magnify"><defs><filter height="300%" id="f1krhfwlmz0o6d" width="300%" x="-1" y="-1"><feGaussianBlur result="blurOut" stdDeviation="2.0"/><feColorMatrix in="blurOut" result="blurOut2" type="matrix" values="0 0 0 0 0 0 0 0 0 0 0 0 0 0 0 0 0 0 .4 0"/><feOffset dx="4.0" dy="4.0" in="blurOut2" result="blurOut3"/><feBlend in="SourceGraphic" in2="blurOut3" mode="normal"/></filter></defs><g><!--cluster soen6441riskgame.views--><a target="_parent" xlink:actuate="onRequest" xlink:href="../../soen6441riskgame/views/package-summary.html" xlink:show="new" xlink:title="soen6441riskgame.views" xlink:type="simple"><polygon fill="#FFFFE0" filter="url(#f1krhfwlmz0o6d)" points="22,24,204,24,211,47.6094,636,47.6094,636,200,22,200,22,24" style="stroke: #000000; stroke-width: 2.0;"/><line style="stroke: #000000; stroke-width: 2.0;" x1="22" x2="211" y1="47.6094" y2="47.6094"/><text fill="#000000" font-family="sans-serif" font-size="14" font-weight="bold" lengthAdjust="spacingAndGlyphs" textLength="176" x="26" y="40.5332">soen6441riskgame.views</text></a><!--class soen6441riskgame.views.ExchangeCardView--><a target="_parent" xlink:actuate="onRequest" xlink:href="../../soen6441riskgame/views/ExchangeCardView.html" xlink:show="new" xlink:title="soen6441riskgame.views.ExchangeCardView" xlink:type="simple"><rect fill="#FEFECE" filter="url(#f1krhfwlmz0o6d)" height="32" id="soen6441riskgame.views.ExchangeCardView" style="stroke: #A80036; stroke-width: 1.5;" width="167" x="452.5" y="60"/><ellipse cx="467.5" cy="76" fill="#ADD1B2" rx="11" ry="11" style="stroke: #A80036; stroke-width: 1.0;"/><path d="M470.2656,71.875 Q470.4219,71.6563 470.6094,71.5469 Q470.7969,71.4375 471.0156,71.4375 Q471.3906,71.4375 471.625,71.6953 Q471.8594,71.9531 471.8594,72.5625 L471.8594,74.0156 Q471.8594,74.625 471.625,74.8906 Q471.3906,75.1563 471.0156,75.1563 Q470.6719,75.1563 470.4688,74.9531 Q470.2656,74.7656 470.1563,74.25 Q470.1094,73.8906 469.9219,73.7031 Q469.5938,73.3281 468.9844,73.1094 Q468.375,72.8906 467.75,72.8906 Q466.9844,72.8906 466.3516,73.2188 Q465.7188,73.5469 465.2266,74.2969 Q464.7344,75.0469 464.7344,76.0781 L464.7344,77.1719 Q464.7344,78.4063 465.625,79.2266 Q466.5156,80.0469 468.1094,80.0469 Q469.0469,80.0469 469.7031,79.7969 Q470.0938,79.6406 470.5156,79.2031 Q470.7813,78.9375 470.9297,78.8594 Q471.0781,78.7813 471.2813,78.7813 Q471.6094,78.7813 471.8672,79.0391 Q472.125,79.2969 472.125,79.6406 Q472.125,79.9844 471.7813,80.3906 Q471.2813,80.9688 470.4844,81.2969 Q469.4063,81.75 468.1094,81.75 Q466.5938,81.75 465.3906,81.125 Q464.4063,80.625 463.7188,79.5547 Q463.0313,78.4844 463.0313,77.2031 L463.0313,76.0469 Q463.0313,74.7188 463.6484,73.5703 Q464.2656,72.4219 465.3594,71.8047 Q466.4531,71.1875 467.6875,71.1875 Q468.4219,71.1875 469.0703,71.3516 Q469.7188,71.5156 470.2656,71.875 Z "/><text fill="#000000" font-family="sans-serif" font-size="14" font-weight="bold" lengthAdjust="spacingAndGlyphs" textLength="135" x="481.5" y="81.7285">ExchangeCardView</text></a><!--class soen6441riskgame.views.PhaseView--><a target="_parent" xlink:actuate="onRequest" xlink:href="../../soen6441riskgame/views/PhaseView.html" xlink:show="new" xlink:title="soen6441riskgame.views.PhaseView" xlink:type="simple"><rect fill="#FEFECE" filter="url(#f1krhfwlmz0o6d)" height="32" id="soen6441riskgame.views.PhaseView" style="stroke: #A80036; stroke-width: 1.5;" width="108" x="309" y="60"/><ellipse cx="324" cy="76" fill="#ADD1B2" rx="11" ry="11" style="stroke: #A80036; stroke-width: 1.0;"/><path d="M326.7656,71.875 Q326.9219,71.6563 327.1094,71.5469 Q327.2969,71.4375 327.5156,71.4375 Q327.8906,71.4375 328.125,71.6953 Q328.3594,71.9531 328.3594,72.5625 L328.3594,74.0156 Q328.3594,74.625 328.125,74.8906 Q327.8906,75.1563 327.5156,75.1563 Q327.1719,75.1563 326.9688,74.9531 Q326.7656,74.7656 326.6563,74.25 Q326.6094,73.8906 326.4219,73.7031 Q326.0938,73.3281 325.4844,73.1094 Q324.875,72.8906 324.25,72.8906 Q323.4844,72.8906 322.8516,73.2188 Q322.2188,73.5469 321.7266,74.2969 Q321.2344,75.0469 321.2344,76.0781 L321.2344,77.1719 Q321.2344,78.4063 322.125,79.2266 Q323.0156,80.0469 324.6094,80.0469 Q325.5469,80.0469 326.2031,79.7969 Q326.5938,79.6406 327.0156,79.2031 Q327.2813,78.9375 327.4297,78.8594 Q327.5781,78.7813 327.7813,78.7813 Q328.1094,78.7813 328.3672,79.0391 Q328.625,79.2969 328.625,79.6406 Q328.625,79.9844 328.2813,80.3906 Q327.7813,80.9688 326.9844,81.2969 Q325.9063,81.75 324.6094,81.75 Q323.0938,81.75 321.8906,81.125 Q320.9063,80.625 320.2188,79.5547 Q319.5313,78.4844 319.5313,77.2031 L319.5313,76.0469 Q319.5313,74.7188 320.1484,73.5703 Q320.7656,72.4219 321.8594,71.8047 Q322.9531,71.1875 324.1875,71.1875 Q324.9219,71.1875 325.5703,71.3516 Q326.2188,71.5156 326.7656,71.875 Z "/><text fill="#000000" font-family="sans-serif" font-size="14" font-weight="bold" lengthAdjust="spacingAndGlyphs" textLength="76" x="338" y="81.7285">PhaseView</text></a><!--class soen6441riskgame.views.PlayersWorldDominationView--><a target="_parent" xlink:actuate="onRequest" xlink:href="../../soen6441riskgame/views/PlayersWorldDominationView.html" xlink:show="new" xlink:title="soen6441riskgame.views.PlayersWorldDominationView" xlink:type="simple"><rect fill="#FEFECE" filter="url(#f1krhfwlmz0o6d)" height="32" id="soen6441riskgame.views.PlayersWorldDominationView" style="stroke: #A80036; stroke-width: 1.5;" width="236" x="38" y="60"/><ellipse cx="53" cy="76" fill="#ADD1B2" rx="11" ry="11" style="stroke: #A80036; stroke-width: 1.0;"/><path d="M55.7656,71.875 Q55.9219,71.6563 56.1094,71.5469 Q56.2969,71.4375 56.5156,71.4375 Q56.8906,71.4375 57.125,71.6953 Q57.3594,71.9531 57.3594,72.5625 L57.3594,74.0156 Q57.3594,74.625 57.125,74.8906 Q56.8906,75.1563 56.5156,75.1563 Q56.1719,75.1563 55.9688,74.9531 Q55.7656,74.7656 55.6563,74.25 Q55.6094,73.8906 55.4219,73.7031 Q55.0938,73.3281 54.4844,73.1094 Q53.875,72.8906 53.25,72.8906 Q52.4844,72.8906 51.8516,73.2188 Q51.2188,73.5469 50.7266,74.2969 Q50.2344,75.0469 50.2344,76.0781 L50.2344,77.1719 Q50.2344,78.4063 51.125,79.2266 Q52.0156,80.0469 53.6094,80.0469 Q54.5469,80.0469 55.2031,79.7969 Q55.5938,79.6406 56.0156,79.2031 Q56.2813,78.9375 56.4297,78.8594 Q56.5781,78.7813 56.7813,78.7813 Q57.1094,78.7813 57.3672,79.0391 Q57.625,79.2969 57.625,79.6406 Q57.625,79.9844 57.2813,80.3906 Q56.7813,80.9688 55.9844,81.2969 Q54.9063,81.75 53.6094,81.75 Q52.0938,81.75 50.8906,81.125 Q49.9063,80.625 49.2188,79.5547 Q48.5313,78.4844 48.5313,77.2031 L48.5313,76.0469 Q48.5313,74.7188 49.1484,73.5703 Q49.7656,72.4219 50.8594,71.8047 Q51.9531,71.1875 53.1875,71.1875 Q53.9219,71.1875 54.5703,71.3516 Q55.2188,71.5156 55.7656,71.875 Z "/><text fill="#000000" font-family="sans-serif" font-size="14" font-weight="bold" lengthAdjust="spacingAndGlyphs" textLength="204" x="67" y="81.7285">PlayersWorldDominationView</text></a><!--class soen6441riskgame.views.SeparatedView--><a target="_parent" xlink:actuate="onRequest" xlink:href="../../soen6441riskgame/views/SeparatedView.html" xlink:show="new" xlink:title="soen6441riskgame.views.SeparatedView" xlink:type="simple"><rect fill="#FEFECE" filter="url(#f1krhfwlmz0o6d)" height="32" id="soen6441riskgame.views.SeparatedView" style="stroke: #A80036; stroke-width: 1.5;" width="137" x="294.5" y="152"/><ellipse cx="309.5" cy="168" fill="#ADD1B2" rx="11" ry="11" style="stroke: #A80036; stroke-width: 1.0;"/><path d="M312.2656,163.875 Q312.4219,163.6563 312.6094,163.5469 Q312.7969,163.4375 313.0156,163.4375 Q313.3906,163.4375 313.625,163.6953 Q313.8594,163.9531 313.8594,164.5625 L313.8594,166.0156 Q313.8594,166.625 313.625,166.8906 Q313.3906,167.1563 313.0156,167.1563 Q312.6719,167.1563 312.4688,166.9531 Q312.2656,166.7656 312.1563,166.25 Q312.1094,165.8906 311.9219,165.7031 Q311.5938,165.3281 310.9844,165.1094 Q310.375,164.8906 309.75,164.8906 Q308.9844,164.8906 308.3516,165.2188 Q307.7188,165.5469 307.2266,166.2969 Q306.7344,167.0469 306.7344,168.0781 L306.7344,169.1719 Q306.7344,170.4063 307.625,171.2266 Q308.5156,172.0469 310.1094,172.0469 Q311.0469,172.0469 311.7031,171.7969 Q312.0938,171.6406 312.5156,171.2031 Q312.7813,170.9375 312.9297,170.8594 Q313.0781,170.7813 313.2813,170.7813 Q313.6094,170.7813 313.8672,171.0391 Q314.125,171.2969 314.125,171.6406 Q314.125,171.9844 313.7813,172.3906 Q313.2813,172.9688 312.4844,173.2969 Q311.4063,173.75 310.1094,173.75 Q308.5938,173.75 307.3906,173.125 Q306.4063,172.625 305.7188,171.5547 Q305.0313,170.4844 305.0313,169.2031 L305.0313,168.0469 Q305.0313,166.7188 305.6484,165.5703 Q306.2656,164.4219 307.3594,163.8047 Q308.4531,163.1875 309.6875,163.1875 Q310.4219,163.1875 311.0703,163.3516 Q311.7188,163.5156 312.2656,163.875 Z "/><text fill="#000000" font-family="sans-serif" font-size="14" font-weight="bold" lengthAdjust="spacingAndGlyphs" textLength="105" x="323.5" y="173.7285">SeparatedView</text></a><!--link soen6441riskgame.views.ExchangeCardView to soen6441riskgame.views.SeparatedView--><path d="M452.449,76 C436.282,76 424.25,76 424.25,76 C424.25,76 424.25,131.9748 424.25,131.9748 " fill="none" id="soen6441riskgame.views.ExchangeCardView-soen6441riskgame.views.SeparatedView" style="stroke: #A80036; stroke-width: 1.0;"/><polygon fill="none" points="431.25,131.9749,424.25,151.9748,417.25,131.9748,431.25,131.9749" style="stroke: #A80036; stroke-width: 1.0;"/><!--link soen6441riskgame.views.PhaseView to soen6441riskgame.views.SeparatedView--><path d="M363,92.025 C363,92.025 363,131.8498 363,131.8498 " fill="none" id="soen6441riskgame.views.PhaseView-soen6441riskgame.views.SeparatedView" style="stroke: #A80036; stroke-width: 1.0;"/><polygon fill="none" points="370,131.8498,363,151.8498,356,131.8497,370,131.8498" style="stroke: #A80036; stroke-width: 1.0;"/><!--link soen6441riskgame.views.PlayersWorldDominationView to soen6441riskgame.views.SeparatedView--><path d="M274.336,76 C290.539,76 301.75,76 301.75,76 C301.75,76 301.75,131.9748 301.75,131.9748 " fill="none" id="soen6441riskgame.views.PlayersWorldDominationView-soen6441riskgame.views.SeparatedView" style="stroke: #A80036; stroke-width: 1.0;"/><polygon fill="none" points="308.75,131.9749,301.75,151.9748,294.75,131.9748,308.75,131.9749" style="stroke: #A80036; stroke-width: 1.0;"/><!--
@startuml

skinparam svgLinkTarget _parent
skinparam linetype ortho
package soen6441riskgame.views [[../../soen6441riskgame/views/package-summary.html{soen6441riskgame.views}]] #lightyellow {
}

class "<b><size:14>ExchangeCardView</b>" as soen6441riskgame.views.ExchangeCardView  [[../../soen6441riskgame/views/ExchangeCardView.html{soen6441riskgame.views.ExchangeCardView}]] {
}

hide soen6441riskgame.views.ExchangeCardView fields
hide soen6441riskgame.views.ExchangeCardView methods

class "<b><size:14>PhaseView</b>" as soen6441riskgame.views.PhaseView  [[../../soen6441riskgame/views/PhaseView.html{soen6441riskgame.views.PhaseView}]] {
}

hide soen6441riskgame.views.PhaseView fields
hide soen6441riskgame.views.PhaseView methods

class "<b><size:14>PlayersWorldDominationView</b>" as soen6441riskgame.views.PlayersWorldDominationView  [[../../soen6441riskgame/views/PlayersWorldDominationView.html{soen6441riskgame.views.PlayersWorldDominationView}]] {
}

hide soen6441riskgame.views.PlayersWorldDominationView fields
hide soen6441riskgame.views.PlayersWorldDominationView methods

class "<b><size:14>SeparatedView</b>" as soen6441riskgame.views.SeparatedView  [[../../soen6441riskgame/views/SeparatedView.html{soen6441riskgame.views.SeparatedView}]] {
}

hide soen6441riskgame.views.SeparatedView fields
hide soen6441riskgame.views.SeparatedView methods

soen6441riskgame.views.ExchangeCardView - -|> soen6441riskgame.views.SeparatedView
soen6441riskgame.views.PhaseView - -|> soen6441riskgame.views.SeparatedView
soen6441riskgame.views.PlayersWorldDominationView - -|> soen6441riskgame.views.SeparatedView

@enduml

PlantUML version 1.2017.15(Mon Jul 03 12:45:34 EDT 2017)
(GPL source distribution)
Java Runtime: Java(TM) SE Runtime Environment
JVM: Java HotSpot(TM) 64-Bit Server VM
Java Version: 1.8.0_231-b11
Operating System: Windows 10
OS Version: 10.0
Default Encoding: Cp1252
Language: en
Country: US
--></g></svg>