<?xml version="1.0" encoding="UTF-8" standalone="no"?><svg xmlns="http://www.w3.org/2000/svg" xmlns:xlink="http://www.w3.org/1999/xlink" contentScriptType="application/ecmascript" contentStyleType="text/css" height="303px" preserveAspectRatio="none" style="width:225px;height:303px;" version="1.1" viewBox="0 0 225 303" width="225px" zoomAndPan="magnify"><defs><filter height="300%" id="fmw9na5tc2qrh" width="300%" x="-1" y="-1"><feGaussianBlur result="blurOut" stdDeviation="2.0"/><feColorMatrix in="blurOut" result="blurOut2" type="matrix" values="0 0 0 0 0 0 0 0 0 0 0 0 0 0 0 0 0 0 .4 0"/><feOffset dx="4.0" dy="4.0" in="blurOut2" result="blurOut3"/><feBlend in="SourceGraphic" in2="blurOut3" mode="normal"/></filter></defs><g><!--class soen6441riskgame.views.PhaseView--><a target="_parent" xlink:actuate="onRequest" xlink:href="../../soen6441riskgame/views/PhaseView.html" xlink:show="new" xlink:title="soen6441riskgame.views.PhaseView" xlink:type="simple"><rect fill="#FEFECE" filter="url(#fmw9na5tc2qrh)" height="83.8594" id="soen6441riskgame.views.PhaseView" style="stroke: #A80036; stroke-width: 1.5;" width="208" x="6" y="108"/><ellipse cx="48.45" cy="128.0938" fill="#ADD1B2" rx="11" ry="11" style="stroke: #A80036; stroke-width: 1.0;"/><path d="M51.2156,123.9688 Q51.3719,123.75 51.5594,123.6406 Q51.7469,123.5313 51.9656,123.5313 Q52.3406,123.5313 52.575,123.7891 Q52.8094,124.0469 52.8094,124.6563 L52.8094,126.1094 Q52.8094,126.7188 52.575,126.9844 Q52.3406,127.25 51.9656,127.25 Q51.6219,127.25 51.4188,127.0469 Q51.2156,126.8594 51.1063,126.3438 Q51.0594,125.9844 50.8719,125.7969 Q50.5438,125.4219 49.9344,125.2031 Q49.325,124.9844 48.7,124.9844 Q47.9344,124.9844 47.3016,125.3125 Q46.6688,125.6406 46.1766,126.3906 Q45.6844,127.1406 45.6844,128.1719 L45.6844,129.2656 Q45.6844,130.5 46.575,131.3203 Q47.4656,132.1406 49.0594,132.1406 Q49.9969,132.1406 50.6531,131.8906 Q51.0438,131.7344 51.4656,131.2969 Q51.7313,131.0313 51.8797,130.9531 Q52.0281,130.875 52.2313,130.875 Q52.5594,130.875 52.8172,131.1328 Q53.075,131.3906 53.075,131.7344 Q53.075,132.0781 52.7313,132.4844 Q52.2313,133.0625 51.4344,133.3906 Q50.3563,133.8438 49.0594,133.8438 Q47.5438,133.8438 46.3406,133.2188 Q45.3563,132.7188 44.6688,131.6484 Q43.9813,130.5781 43.9813,129.2969 L43.9813,128.1406 Q43.9813,126.8125 44.5984,125.6641 Q45.2156,124.5156 46.3094,123.8984 Q47.4031,123.2813 48.6375,123.2813 Q49.3719,123.2813 50.0203,123.4453 Q50.6688,123.6094 51.2156,123.9688 Z "/><text fill="#000000" font-family="sans-serif" font-size="14" font-weight="bold" lengthAdjust="spacingAndGlyphs" textLength="76" x="88.05" y="127.5332">PhaseView</text><text fill="#000000" font-family="sans-serif" font-size="10" lengthAdjust="spacingAndGlyphs" textLength="115" x="68.55" y="140.9902">soen6441riskgame.views</text><line style="stroke: #A80036; stroke-width: 1.5;" x1="7" x2="213" y1="148.1875" y2="148.1875"/><line style="stroke: #A80036; stroke-width: 1.5;" x1="7" x2="213" y1="156.1875" y2="156.1875"/><ellipse cx="17" cy="168.6055" fill="#84BE84" rx="3" ry="3" style="stroke: #038048; stroke-width: 1.0;"/><text fill="#000000" font-family="sans-serif" font-size="11" lengthAdjust="spacingAndGlyphs" textLength="64" x="26" y="171.6064">PhaseView()</text><ellipse cx="17" cy="182.4414" fill="#84BE84" rx="3" ry="3" style="stroke: #038048; stroke-width: 1.0;"/><text fill="#000000" font-family="sans-serif" font-size="11" lengthAdjust="spacingAndGlyphs" textLength="182" x="26" y="185.4424">void update(Observable o,Object arg)</text></a><!--class soen6441riskgame.singleton.GameBoardPlayer--><a target="_parent" xlink:actuate="onRequest" xlink:href="../../soen6441riskgame/singleton/GameBoardPlayer.html" xlink:show="new" xlink:title="soen6441riskgame.singleton.GameBoardPlayer" xlink:type="simple"><rect fill="#FFFFFF" filter="url(#fmw9na5tc2qrh)" height="40.1875" id="soen6441riskgame.singleton.GameBoardPlayer" style="stroke: #A80036; stroke-width: 1.5;" width="165" x="27.5" y="8"/><rect fill="#FFFFFF" height="40.1875" style="stroke: #A80036; stroke-width: 1.5;" width="165" x="27.5" y="8"/><ellipse cx="42.5" cy="28.0938" fill="#ADD1B2" rx="11" ry="11" style="stroke: #A80036; stroke-width: 1.0;"/><path d="M45.2656,23.9688 Q45.4219,23.75 45.6094,23.6406 Q45.7969,23.5313 46.0156,23.5313 Q46.3906,23.5313 46.625,23.7891 Q46.8594,24.0469 46.8594,24.6563 L46.8594,26.1094 Q46.8594,26.7188 46.625,26.9844 Q46.3906,27.25 46.0156,27.25 Q45.6719,27.25 45.4688,27.0469 Q45.2656,26.8594 45.1563,26.3438 Q45.1094,25.9844 44.9219,25.7969 Q44.5938,25.4219 43.9844,25.2031 Q43.375,24.9844 42.75,24.9844 Q41.9844,24.9844 41.3516,25.3125 Q40.7188,25.6406 40.2266,26.3906 Q39.7344,27.1406 39.7344,28.1719 L39.7344,29.2656 Q39.7344,30.5 40.625,31.3203 Q41.5156,32.1406 43.1094,32.1406 Q44.0469,32.1406 44.7031,31.8906 Q45.0938,31.7344 45.5156,31.2969 Q45.7813,31.0313 45.9297,30.9531 Q46.0781,30.875 46.2813,30.875 Q46.6094,30.875 46.8672,31.1328 Q47.125,31.3906 47.125,31.7344 Q47.125,32.0781 46.7813,32.4844 Q46.2813,33.0625 45.4844,33.3906 Q44.4063,33.8438 43.1094,33.8438 Q41.5938,33.8438 40.3906,33.2188 Q39.4063,32.7188 38.7188,31.6484 Q38.0313,30.5781 38.0313,29.2969 L38.0313,28.1406 Q38.0313,26.8125 38.6484,25.6641 Q39.2656,24.5156 40.3594,23.8984 Q41.4531,23.2813 42.6875,23.2813 Q43.4219,23.2813 44.0703,23.4453 Q44.7188,23.6094 45.2656,23.9688 Z "/><text fill="#000000" font-family="sans-serif" font-size="14" font-weight="bold" lengthAdjust="spacingAndGlyphs" textLength="125" x="60.5" y="27.5332">GameBoardPlayer</text><text fill="#000000" font-family="sans-serif" font-size="10" lengthAdjust="spacingAndGlyphs" textLength="133" x="56.5" y="40.9902">soen6441riskgame.singleton</text></a><!--class soen6441riskgame.views.SeparatedView--><a target="_parent" xlink:actuate="onRequest" xlink:href="../../soen6441riskgame/views/SeparatedView.html" xlink:show="new" xlink:title="soen6441riskgame.views.SeparatedView" xlink:type="simple"><rect fill="#FEFECE" filter="url(#fmw9na5tc2qrh)" height="40.1875" id="soen6441riskgame.views.SeparatedView" style="stroke: #A80036; stroke-width: 1.5;" width="147" x="36.5" y="252"/><ellipse cx="51.5" cy="272.0938" fill="#ADD1B2" rx="11" ry="11" style="stroke: #A80036; stroke-width: 1.0;"/><path d="M54.2656,267.9688 Q54.4219,267.75 54.6094,267.6406 Q54.7969,267.5313 55.0156,267.5313 Q55.3906,267.5313 55.625,267.7891 Q55.8594,268.0469 55.8594,268.6563 L55.8594,270.1094 Q55.8594,270.7188 55.625,270.9844 Q55.3906,271.25 55.0156,271.25 Q54.6719,271.25 54.4688,271.0469 Q54.2656,270.8594 54.1563,270.3438 Q54.1094,269.9844 53.9219,269.7969 Q53.5938,269.4219 52.9844,269.2031 Q52.375,268.9844 51.75,268.9844 Q50.9844,268.9844 50.3516,269.3125 Q49.7188,269.6406 49.2266,270.3906 Q48.7344,271.1406 48.7344,272.1719 L48.7344,273.2656 Q48.7344,274.5 49.625,275.3203 Q50.5156,276.1406 52.1094,276.1406 Q53.0469,276.1406 53.7031,275.8906 Q54.0938,275.7344 54.5156,275.2969 Q54.7813,275.0313 54.9297,274.9531 Q55.0781,274.875 55.2813,274.875 Q55.6094,274.875 55.8672,275.1328 Q56.125,275.3906 56.125,275.7344 Q56.125,276.0781 55.7813,276.4844 Q55.2813,277.0625 54.4844,277.3906 Q53.4063,277.8438 52.1094,277.8438 Q50.5938,277.8438 49.3906,277.2188 Q48.4063,276.7188 47.7188,275.6484 Q47.0313,274.5781 47.0313,273.2969 L47.0313,272.1406 Q47.0313,270.8125 47.6484,269.6641 Q48.2656,268.5156 49.3594,267.8984 Q50.4531,267.2813 51.6875,267.2813 Q52.4219,267.2813 53.0703,267.4453 Q53.7188,267.6094 54.2656,267.9688 Z "/><text fill="#000000" font-family="sans-serif" font-size="14" font-weight="bold" lengthAdjust="spacingAndGlyphs" textLength="105" x="70.5" y="271.5332">SeparatedView</text><text fill="#000000" font-family="sans-serif" font-size="10" lengthAdjust="spacingAndGlyphs" textLength="115" x="65.5" y="284.9902">soen6441riskgame.views</text></a><!--link soen6441riskgame.singleton.GameBoardPlayer to soen6441riskgame.views.PhaseView--><path d="M110,48.146 C110,48.146 110,102.804 110,102.804 " fill="none" id="soen6441riskgame.singleton.GameBoardPlayer-soen6441riskgame.views.PhaseView" style="stroke: #A80036; stroke-width: 1.0;"/><polygon fill="#A80036" points="110,107.804,114,98.804,110,102.804,106,98.804,110,107.804" style="stroke: #A80036; stroke-width: 1.0;"/><text fill="#000000" font-family="sans-serif" font-size="13" lengthAdjust="spacingAndGlyphs" textLength="63" x="41.7828" y="97.0262">phaseView</text><!--link soen6441riskgame.views.PhaseView to soen6441riskgame.views.SeparatedView--><path d="M110,192.3273 C110,192.3273 110,231.9727 110,231.9727 " fill="none" id="soen6441riskgame.views.PhaseView-soen6441riskgame.views.SeparatedView" style="stroke: #A80036; stroke-width: 1.0;"/><polygon fill="none" points="117,231.9727,110,251.9727,103.0001,231.9726,117,231.9727" style="stroke: #A80036; stroke-width: 1.0;"/><!--
@startuml

skinparam svgLinkTarget _parent
skinparam linetype ortho
set namespaceSeparator none
class "<b><size:14>PhaseView</b>\n<size:10>soen6441riskgame.views" as soen6441riskgame.views.PhaseView  [[../../soen6441riskgame/views/PhaseView.html{soen6441riskgame.views.PhaseView}]] {
+PhaseView()
+void update(Observable o,Object arg)
}


class "<b><size:14>GameBoardPlayer</b>\n<size:10>soen6441riskgame.singleton" as soen6441riskgame.singleton.GameBoardPlayer  [[../../soen6441riskgame/singleton/GameBoardPlayer.html{soen6441riskgame.singleton.GameBoardPlayer}]] #white {
}

hide soen6441riskgame.singleton.GameBoardPlayer fields
hide soen6441riskgame.singleton.GameBoardPlayer methods

soen6441riskgame.singleton.GameBoardPlayer - ->  "phaseView" soen6441riskgame.views.PhaseView

class "<b><size:14>SeparatedView</b>\n<size:10>soen6441riskgame.views" as soen6441riskgame.views.SeparatedView  [[../../soen6441riskgame/views/SeparatedView.html{soen6441riskgame.views.SeparatedView}]] {
}

hide soen6441riskgame.views.SeparatedView fields
hide soen6441riskgame.views.SeparatedView methods

soen6441riskgame.views.PhaseView - -|> soen6441riskgame.views.SeparatedView




@enduml

PlantUML version 1.2017.15(Mon Jul 03 12:45:34 EDT 2017)
(GPL source distribution)
Java Runtime: Java(TM) SE Runtime Environment
JVM: Java HotSpot(TM) 64-Bit Server VM
Java Version: 1.8.0_231-b11
Operating System: Windows 10
OS Version: 10.0
Default Encoding: Cp1252
Language: en
Country: US
--></g></svg>