<?xml version="1.0" encoding="UTF-8" standalone="no"?><svg xmlns="http://www.w3.org/2000/svg" xmlns:xlink="http://www.w3.org/1999/xlink" contentScriptType="application/ecmascript" contentStyleType="text/css" height="303px" preserveAspectRatio="none" style="width:319px;height:303px;" version="1.1" viewBox="0 0 319 303" width="319px" zoomAndPan="magnify"><defs><filter height="300%" id="fto8i7kkx7waw" width="300%" x="-1" y="-1"><feGaussianBlur result="blurOut" stdDeviation="2.0"/><feColorMatrix in="blurOut" result="blurOut2" type="matrix" values="0 0 0 0 0 0 0 0 0 0 0 0 0 0 0 0 0 0 .4 0"/><feOffset dx="4.0" dy="4.0" in="blurOut2" result="blurOut3"/><feBlend in="SourceGraphic" in2="blurOut3" mode="normal"/></filter></defs><g><!--class soen6441riskgame.views.PlayersWorldDominationView--><a target="_parent" xlink:actuate="onRequest" xlink:href="../../soen6441riskgame/views/PlayersWorldDominationView.html" xlink:show="new" xlink:title="soen6441riskgame.views.PlayersWorldDominationView" xlink:type="simple"><rect fill="#FEFECE" filter="url(#fto8i7kkx7waw)" height="83.8594" id="soen6441riskgame.views.PlayersWorldDominationView" style="stroke: #A80036; stroke-width: 1.5;" width="236" x="72" y="108"/><ellipse cx="87" cy="128.0938" fill="#ADD1B2" rx="11" ry="11" style="stroke: #A80036; stroke-width: 1.0;"/><path d="M89.7656,123.9688 Q89.9219,123.75 90.1094,123.6406 Q90.2969,123.5313 90.5156,123.5313 Q90.8906,123.5313 91.125,123.7891 Q91.3594,124.0469 91.3594,124.6563 L91.3594,126.1094 Q91.3594,126.7188 91.125,126.9844 Q90.8906,127.25 90.5156,127.25 Q90.1719,127.25 89.9688,127.0469 Q89.7656,126.8594 89.6563,126.3438 Q89.6094,125.9844 89.4219,125.7969 Q89.0938,125.4219 88.4844,125.2031 Q87.875,124.9844 87.25,124.9844 Q86.4844,124.9844 85.8516,125.3125 Q85.2188,125.6406 84.7266,126.3906 Q84.2344,127.1406 84.2344,128.1719 L84.2344,129.2656 Q84.2344,130.5 85.125,131.3203 Q86.0156,132.1406 87.6094,132.1406 Q88.5469,132.1406 89.2031,131.8906 Q89.5938,131.7344 90.0156,131.2969 Q90.2813,131.0313 90.4297,130.9531 Q90.5781,130.875 90.7813,130.875 Q91.1094,130.875 91.3672,131.1328 Q91.625,131.3906 91.625,131.7344 Q91.625,132.0781 91.2813,132.4844 Q90.7813,133.0625 89.9844,133.3906 Q88.9063,133.8438 87.6094,133.8438 Q86.0938,133.8438 84.8906,133.2188 Q83.9063,132.7188 83.2188,131.6484 Q82.5313,130.5781 82.5313,129.2969 L82.5313,128.1406 Q82.5313,126.8125 83.1484,125.6641 Q83.7656,124.5156 84.8594,123.8984 Q85.9531,123.2813 87.1875,123.2813 Q87.9219,123.2813 88.5703,123.4453 Q89.2188,123.6094 89.7656,123.9688 Z "/><text fill="#000000" font-family="sans-serif" font-size="14" font-weight="bold" lengthAdjust="spacingAndGlyphs" textLength="204" x="101" y="127.5332">PlayersWorldDominationView</text><text fill="#000000" font-family="sans-serif" font-size="10" lengthAdjust="spacingAndGlyphs" textLength="115" x="145.5" y="140.9902">soen6441riskgame.views</text><line style="stroke: #A80036; stroke-width: 1.5;" x1="73" x2="307" y1="148.1875" y2="148.1875"/><line style="stroke: #A80036; stroke-width: 1.5;" x1="73" x2="307" y1="156.1875" y2="156.1875"/><ellipse cx="83" cy="168.6055" fill="#84BE84" rx="3" ry="3" style="stroke: #038048; stroke-width: 1.0;"/><text fill="#000000" font-family="sans-serif" font-size="11" lengthAdjust="spacingAndGlyphs" textLength="150" x="92" y="171.6064">PlayersWorldDominationView()</text><ellipse cx="83" cy="182.4414" fill="#84BE84" rx="3" ry="3" style="stroke: #038048; stroke-width: 1.0;"/><text fill="#000000" font-family="sans-serif" font-size="11" lengthAdjust="spacingAndGlyphs" textLength="182" x="92" y="185.4424">void update(Observable o,Object arg)</text></a><!--class soen6441riskgame.singleton.GameBoardMap--><a target="_parent" xlink:actuate="onRequest" xlink:href="../../soen6441riskgame/singleton/GameBoardMap.html" xlink:show="new" xlink:title="soen6441riskgame.singleton.GameBoardMap" xlink:type="simple"><rect fill="#FFFFFF" filter="url(#fto8i7kkx7waw)" height="40.1875" id="soen6441riskgame.singleton.GameBoardMap" style="stroke: #A80036; stroke-width: 1.5;" width="165" x="107.5" y="8"/><rect fill="#FFFFFF" height="40.1875" style="stroke: #A80036; stroke-width: 1.5;" width="165" x="107.5" y="8"/><ellipse cx="122.5" cy="28.0938" fill="#ADD1B2" rx="11" ry="11" style="stroke: #A80036; stroke-width: 1.0;"/><path d="M125.2656,23.9688 Q125.4219,23.75 125.6094,23.6406 Q125.7969,23.5313 126.0156,23.5313 Q126.3906,23.5313 126.625,23.7891 Q126.8594,24.0469 126.8594,24.6563 L126.8594,26.1094 Q126.8594,26.7188 126.625,26.9844 Q126.3906,27.25 126.0156,27.25 Q125.6719,27.25 125.4688,27.0469 Q125.2656,26.8594 125.1563,26.3438 Q125.1094,25.9844 124.9219,25.7969 Q124.5938,25.4219 123.9844,25.2031 Q123.375,24.9844 122.75,24.9844 Q121.9844,24.9844 121.3516,25.3125 Q120.7188,25.6406 120.2266,26.3906 Q119.7344,27.1406 119.7344,28.1719 L119.7344,29.2656 Q119.7344,30.5 120.625,31.3203 Q121.5156,32.1406 123.1094,32.1406 Q124.0469,32.1406 124.7031,31.8906 Q125.0938,31.7344 125.5156,31.2969 Q125.7813,31.0313 125.9297,30.9531 Q126.0781,30.875 126.2813,30.875 Q126.6094,30.875 126.8672,31.1328 Q127.125,31.3906 127.125,31.7344 Q127.125,32.0781 126.7813,32.4844 Q126.2813,33.0625 125.4844,33.3906 Q124.4063,33.8438 123.1094,33.8438 Q121.5938,33.8438 120.3906,33.2188 Q119.4063,32.7188 118.7188,31.6484 Q118.0313,30.5781 118.0313,29.2969 L118.0313,28.1406 Q118.0313,26.8125 118.6484,25.6641 Q119.2656,24.5156 120.3594,23.8984 Q121.4531,23.2813 122.6875,23.2813 Q123.4219,23.2813 124.0703,23.4453 Q124.7188,23.6094 125.2656,23.9688 Z "/><text fill="#000000" font-family="sans-serif" font-size="14" font-weight="bold" lengthAdjust="spacingAndGlyphs" textLength="112" x="147" y="27.5332">GameBoardMap</text><text fill="#000000" font-family="sans-serif" font-size="10" lengthAdjust="spacingAndGlyphs" textLength="133" x="136.5" y="40.9902">soen6441riskgame.singleton</text></a><!--class soen6441riskgame.views.SeparatedView--><a target="_parent" xlink:actuate="onRequest" xlink:href="../../soen6441riskgame/views/SeparatedView.html" xlink:show="new" xlink:title="soen6441riskgame.views.SeparatedView" xlink:type="simple"><rect fill="#FEFECE" filter="url(#fto8i7kkx7waw)" height="40.1875" id="soen6441riskgame.views.SeparatedView" style="stroke: #A80036; stroke-width: 1.5;" width="147" x="116.5" y="252"/><ellipse cx="131.5" cy="272.0938" fill="#ADD1B2" rx="11" ry="11" style="stroke: #A80036; stroke-width: 1.0;"/><path d="M134.2656,267.9688 Q134.4219,267.75 134.6094,267.6406 Q134.7969,267.5313 135.0156,267.5313 Q135.3906,267.5313 135.625,267.7891 Q135.8594,268.0469 135.8594,268.6563 L135.8594,270.1094 Q135.8594,270.7188 135.625,270.9844 Q135.3906,271.25 135.0156,271.25 Q134.6719,271.25 134.4688,271.0469 Q134.2656,270.8594 134.1563,270.3438 Q134.1094,269.9844 133.9219,269.7969 Q133.5938,269.4219 132.9844,269.2031 Q132.375,268.9844 131.75,268.9844 Q130.9844,268.9844 130.3516,269.3125 Q129.7188,269.6406 129.2266,270.3906 Q128.7344,271.1406 128.7344,272.1719 L128.7344,273.2656 Q128.7344,274.5 129.625,275.3203 Q130.5156,276.1406 132.1094,276.1406 Q133.0469,276.1406 133.7031,275.8906 Q134.0938,275.7344 134.5156,275.2969 Q134.7813,275.0313 134.9297,274.9531 Q135.0781,274.875 135.2813,274.875 Q135.6094,274.875 135.8672,275.1328 Q136.125,275.3906 136.125,275.7344 Q136.125,276.0781 135.7813,276.4844 Q135.2813,277.0625 134.4844,277.3906 Q133.4063,277.8438 132.1094,277.8438 Q130.5938,277.8438 129.3906,277.2188 Q128.4063,276.7188 127.7188,275.6484 Q127.0313,274.5781 127.0313,273.2969 L127.0313,272.1406 Q127.0313,270.8125 127.6484,269.6641 Q128.2656,268.5156 129.3594,267.8984 Q130.4531,267.2813 131.6875,267.2813 Q132.4219,267.2813 133.0703,267.4453 Q133.7188,267.6094 134.2656,267.9688 Z "/><text fill="#000000" font-family="sans-serif" font-size="14" font-weight="bold" lengthAdjust="spacingAndGlyphs" textLength="105" x="150.5" y="271.5332">SeparatedView</text><text fill="#000000" font-family="sans-serif" font-size="10" lengthAdjust="spacingAndGlyphs" textLength="115" x="145.5" y="284.9902">soen6441riskgame.views</text></a><!--link soen6441riskgame.singleton.GameBoardMap to soen6441riskgame.views.PlayersWorldDominationView--><path d="M190,48.146 C190,48.146 190,102.804 190,102.804 " fill="none" id="soen6441riskgame.singleton.GameBoardMap-soen6441riskgame.views.PlayersWorldDominationView" style="stroke: #A80036; stroke-width: 1.0;"/><polygon fill="#A80036" points="190,107.804,194,98.804,190,102.804,186,98.804,190,107.804" style="stroke: #A80036; stroke-width: 1.0;"/><text fill="#000000" font-family="sans-serif" font-size="13" lengthAdjust="spacingAndGlyphs" textLength="169" x="7.0047" y="97.0262">playersWorldDominationView</text><!--link soen6441riskgame.views.PlayersWorldDominationView to soen6441riskgame.views.SeparatedView--><path d="M190,192.3273 C190,192.3273 190,231.9727 190,231.9727 " fill="none" id="soen6441riskgame.views.PlayersWorldDominationView-soen6441riskgame.views.SeparatedView" style="stroke: #A80036; stroke-width: 1.0;"/><polygon fill="none" points="197,231.9727,190,251.9727,183,231.9726,197,231.9727" style="stroke: #A80036; stroke-width: 1.0;"/><!--
@startuml

skinparam svgLinkTarget _parent
skinparam linetype ortho
set namespaceSeparator none
class "<b><size:14>PlayersWorldDominationView</b>\n<size:10>soen6441riskgame.views" as soen6441riskgame.views.PlayersWorldDominationView  [[../../soen6441riskgame/views/PlayersWorldDominationView.html{soen6441riskgame.views.PlayersWorldDominationView}]] {
+PlayersWorldDominationView()
+void update(Observable o,Object arg)
}


class "<b><size:14>GameBoardMap</b>\n<size:10>soen6441riskgame.singleton" as soen6441riskgame.singleton.GameBoardMap  [[../../soen6441riskgame/singleton/GameBoardMap.html{soen6441riskgame.singleton.GameBoardMap}]] #white {
}

hide soen6441riskgame.singleton.GameBoardMap fields
hide soen6441riskgame.singleton.GameBoardMap methods

soen6441riskgame.singleton.GameBoardMap - ->  "playersWorldDominationView" soen6441riskgame.views.PlayersWorldDominationView

class "<b><size:14>SeparatedView</b>\n<size:10>soen6441riskgame.views" as soen6441riskgame.views.SeparatedView  [[../../soen6441riskgame/views/SeparatedView.html{soen6441riskgame.views.SeparatedView}]] {
}

hide soen6441riskgame.views.SeparatedView fields
hide soen6441riskgame.views.SeparatedView methods

soen6441riskgame.views.PlayersWorldDominationView - -|> soen6441riskgame.views.SeparatedView




@enduml

PlantUML version 1.2017.15(Mon Jul 03 12:45:34 EDT 2017)
(GPL source distribution)
Java Runtime: Java(TM) SE Runtime Environment
JVM: Java HotSpot(TM) 64-Bit Server VM
Java Version: 1.8.0_231-b11
Operating System: Windows 10
OS Version: 10.0
Default Encoding: Cp1252
Language: en
Country: US
--></g></svg>