<?xml version="1.0" encoding="UTF-8" standalone="no"?><svg xmlns="http://www.w3.org/2000/svg" xmlns:xlink="http://www.w3.org/1999/xlink" contentScriptType="application/ecmascript" contentStyleType="text/css" height="331px" preserveAspectRatio="none" style="width:637px;height:331px;" version="1.1" viewBox="0 0 637 331" width="637px" zoomAndPan="magnify"><defs><filter height="300%" id="fhdphabp1d3v0" width="300%" x="-1" y="-1"><feGaussianBlur result="blurOut" stdDeviation="2.0"/><feColorMatrix in="blurOut" result="blurOut2" type="matrix" values="0 0 0 0 0 0 0 0 0 0 0 0 0 0 0 0 0 0 .4 0"/><feOffset dx="4.0" dy="4.0" in="blurOut2" result="blurOut3"/><feBlend in="SourceGraphic" in2="blurOut3" mode="normal"/></filter></defs><g><!--class soen6441riskgame.views.SeparatedView--><a target="_parent" xlink:actuate="onRequest" xlink:href="../../soen6441riskgame/views/SeparatedView.html" xlink:show="new" xlink:title="soen6441riskgame.views.SeparatedView" xlink:type="simple"><rect fill="#FEFECE" filter="url(#fhdphabp1d3v0)" height="111.5313" id="soen6441riskgame.views.SeparatedView" style="stroke: #A80036; stroke-width: 1.5;" width="192" x="185.5" y="108"/><ellipse cx="220.75" cy="128.0938" fill="#ADD1B2" rx="11" ry="11" style="stroke: #A80036; stroke-width: 1.0;"/><path d="M223.5156,123.9688 Q223.6719,123.75 223.8594,123.6406 Q224.0469,123.5313 224.2656,123.5313 Q224.6406,123.5313 224.875,123.7891 Q225.1094,124.0469 225.1094,124.6563 L225.1094,126.1094 Q225.1094,126.7188 224.875,126.9844 Q224.6406,127.25 224.2656,127.25 Q223.9219,127.25 223.7188,127.0469 Q223.5156,126.8594 223.4063,126.3438 Q223.3594,125.9844 223.1719,125.7969 Q222.8438,125.4219 222.2344,125.2031 Q221.625,124.9844 221,124.9844 Q220.2344,124.9844 219.6016,125.3125 Q218.9688,125.6406 218.4766,126.3906 Q217.9844,127.1406 217.9844,128.1719 L217.9844,129.2656 Q217.9844,130.5 218.875,131.3203 Q219.7656,132.1406 221.3594,132.1406 Q222.2969,132.1406 222.9531,131.8906 Q223.3438,131.7344 223.7656,131.2969 Q224.0313,131.0313 224.1797,130.9531 Q224.3281,130.875 224.5313,130.875 Q224.8594,130.875 225.1172,131.1328 Q225.375,131.3906 225.375,131.7344 Q225.375,132.0781 225.0313,132.4844 Q224.5313,133.0625 223.7344,133.3906 Q222.6563,133.8438 221.3594,133.8438 Q219.8438,133.8438 218.6406,133.2188 Q217.6563,132.7188 216.9688,131.6484 Q216.2813,130.5781 216.2813,129.2969 L216.2813,128.1406 Q216.2813,126.8125 216.8984,125.6641 Q217.5156,124.5156 218.6094,123.8984 Q219.7031,123.2813 220.9375,123.2813 Q221.6719,123.2813 222.3203,123.4453 Q222.9688,123.6094 223.5156,123.9688 Z "/><text fill="#000000" font-family="sans-serif" font-size="14" font-weight="bold" lengthAdjust="spacingAndGlyphs" textLength="105" x="244.25" y="127.5332">SeparatedView</text><text fill="#000000" font-family="sans-serif" font-size="10" lengthAdjust="spacingAndGlyphs" textLength="115" x="239.25" y="140.9902">soen6441riskgame.views</text><line style="stroke: #A80036; stroke-width: 1.5;" x1="186.5" x2="376.5" y1="148.1875" y2="148.1875"/><polygon fill="none" points="196.5,155.6055,200.5,159.6055,196.5,163.6055,192.5,159.6055" style="stroke: #B38D22; stroke-width: 1.0;"/><text fill="#000000" font-family="sans-serif" font-size="11" lengthAdjust="spacingAndGlyphs" textLength="114" x="205.5" y="163.6064">WindowPane presenter</text><polygon fill="none" points="196.5,169.4414,200.5,173.4414,196.5,177.4414,192.5,173.4414" style="stroke: #B38D22; stroke-width: 1.0;"/><text fill="#000000" font-family="sans-serif" font-size="11" lengthAdjust="spacingAndGlyphs" textLength="113" x="205.5" y="177.4424">PrintStream printStream</text><line style="stroke: #A80036; stroke-width: 1.5;" x1="186.5" x2="376.5" y1="183.8594" y2="183.8594"/><ellipse cx="196.5" cy="196.2773" fill="#84BE84" rx="3" ry="3" style="stroke: #038048; stroke-width: 1.0;"/><text fill="#000000" font-family="sans-serif" font-size="11" lengthAdjust="spacingAndGlyphs" textLength="166" x="205.5" y="199.2783">SeparatedView(String viewName)</text><ellipse cx="196.5" cy="210.1133" fill="#84BE84" rx="3" ry="3" style="stroke: #038048; stroke-width: 1.0;"/><text fill="#000000" font-family="sans-serif" font-size="11" lengthAdjust="spacingAndGlyphs" textLength="81" x="205.5" y="213.1143">void clearView()</text></a><!--class soen6441riskgame.views.ExchangeCardView--><a target="_parent" xlink:actuate="onRequest" xlink:href="../../soen6441riskgame/views/ExchangeCardView.html" xlink:show="new" xlink:title="soen6441riskgame.views.ExchangeCardView" xlink:type="simple"><rect fill="#FEFECE" filter="url(#fhdphabp1d3v0)" height="40.1875" id="soen6441riskgame.views.ExchangeCardView" style="stroke: #A80036; stroke-width: 1.5;" width="167" x="6" y="8"/><ellipse cx="21" cy="28.0938" fill="#ADD1B2" rx="11" ry="11" style="stroke: #A80036; stroke-width: 1.0;"/><path d="M23.7656,23.9688 Q23.9219,23.75 24.1094,23.6406 Q24.2969,23.5313 24.5156,23.5313 Q24.8906,23.5313 25.125,23.7891 Q25.3594,24.0469 25.3594,24.6563 L25.3594,26.1094 Q25.3594,26.7188 25.125,26.9844 Q24.8906,27.25 24.5156,27.25 Q24.1719,27.25 23.9688,27.0469 Q23.7656,26.8594 23.6563,26.3438 Q23.6094,25.9844 23.4219,25.7969 Q23.0938,25.4219 22.4844,25.2031 Q21.875,24.9844 21.25,24.9844 Q20.4844,24.9844 19.8516,25.3125 Q19.2188,25.6406 18.7266,26.3906 Q18.2344,27.1406 18.2344,28.1719 L18.2344,29.2656 Q18.2344,30.5 19.125,31.3203 Q20.0156,32.1406 21.6094,32.1406 Q22.5469,32.1406 23.2031,31.8906 Q23.5938,31.7344 24.0156,31.2969 Q24.2813,31.0313 24.4297,30.9531 Q24.5781,30.875 24.7813,30.875 Q25.1094,30.875 25.3672,31.1328 Q25.625,31.3906 25.625,31.7344 Q25.625,32.0781 25.2813,32.4844 Q24.7813,33.0625 23.9844,33.3906 Q22.9063,33.8438 21.6094,33.8438 Q20.0938,33.8438 18.8906,33.2188 Q17.9063,32.7188 17.2188,31.6484 Q16.5313,30.5781 16.5313,29.2969 L16.5313,28.1406 Q16.5313,26.8125 17.1484,25.6641 Q17.7656,24.5156 18.8594,23.8984 Q19.9531,23.2813 21.1875,23.2813 Q21.9219,23.2813 22.5703,23.4453 Q23.2188,23.6094 23.7656,23.9688 Z "/><text fill="#000000" font-family="sans-serif" font-size="14" font-weight="bold" lengthAdjust="spacingAndGlyphs" textLength="135" x="35" y="27.5332">ExchangeCardView</text><text fill="#000000" font-family="sans-serif" font-size="10" lengthAdjust="spacingAndGlyphs" textLength="115" x="45" y="40.9902">soen6441riskgame.views</text></a><!--class soen6441riskgame.views.PhaseView--><a target="_parent" xlink:actuate="onRequest" xlink:href="../../soen6441riskgame/views/PhaseView.html" xlink:show="new" xlink:title="soen6441riskgame.views.PhaseView" xlink:type="simple"><rect fill="#FEFECE" filter="url(#fhdphabp1d3v0)" height="40.1875" id="soen6441riskgame.views.PhaseView" style="stroke: #A80036; stroke-width: 1.5;" width="147" x="208" y="8"/><ellipse cx="223" cy="28.0938" fill="#ADD1B2" rx="11" ry="11" style="stroke: #A80036; stroke-width: 1.0;"/><path d="M225.7656,23.9688 Q225.9219,23.75 226.1094,23.6406 Q226.2969,23.5313 226.5156,23.5313 Q226.8906,23.5313 227.125,23.7891 Q227.3594,24.0469 227.3594,24.6563 L227.3594,26.1094 Q227.3594,26.7188 227.125,26.9844 Q226.8906,27.25 226.5156,27.25 Q226.1719,27.25 225.9688,27.0469 Q225.7656,26.8594 225.6563,26.3438 Q225.6094,25.9844 225.4219,25.7969 Q225.0938,25.4219 224.4844,25.2031 Q223.875,24.9844 223.25,24.9844 Q222.4844,24.9844 221.8516,25.3125 Q221.2188,25.6406 220.7266,26.3906 Q220.2344,27.1406 220.2344,28.1719 L220.2344,29.2656 Q220.2344,30.5 221.125,31.3203 Q222.0156,32.1406 223.6094,32.1406 Q224.5469,32.1406 225.2031,31.8906 Q225.5938,31.7344 226.0156,31.2969 Q226.2813,31.0313 226.4297,30.9531 Q226.5781,30.875 226.7813,30.875 Q227.1094,30.875 227.3672,31.1328 Q227.625,31.3906 227.625,31.7344 Q227.625,32.0781 227.2813,32.4844 Q226.7813,33.0625 225.9844,33.3906 Q224.9063,33.8438 223.6094,33.8438 Q222.0938,33.8438 220.8906,33.2188 Q219.9063,32.7188 219.2188,31.6484 Q218.5313,30.5781 218.5313,29.2969 L218.5313,28.1406 Q218.5313,26.8125 219.1484,25.6641 Q219.7656,24.5156 220.8594,23.8984 Q221.9531,23.2813 223.1875,23.2813 Q223.9219,23.2813 224.5703,23.4453 Q225.2188,23.6094 225.7656,23.9688 Z "/><text fill="#000000" font-family="sans-serif" font-size="14" font-weight="bold" lengthAdjust="spacingAndGlyphs" textLength="76" x="256.5" y="27.5332">PhaseView</text><text fill="#000000" font-family="sans-serif" font-size="10" lengthAdjust="spacingAndGlyphs" textLength="115" x="237" y="40.9902">soen6441riskgame.views</text></a><!--class soen6441riskgame.views.PlayersWorldDominationView--><a target="_parent" xlink:actuate="onRequest" xlink:href="../../soen6441riskgame/views/PlayersWorldDominationView.html" xlink:show="new" xlink:title="soen6441riskgame.views.PlayersWorldDominationView" xlink:type="simple"><rect fill="#FEFECE" filter="url(#fhdphabp1d3v0)" height="40.1875" id="soen6441riskgame.views.PlayersWorldDominationView" style="stroke: #A80036; stroke-width: 1.5;" width="236" x="390.5" y="8"/><ellipse cx="405.5" cy="28.0938" fill="#ADD1B2" rx="11" ry="11" style="stroke: #A80036; stroke-width: 1.0;"/><path d="M408.2656,23.9688 Q408.4219,23.75 408.6094,23.6406 Q408.7969,23.5313 409.0156,23.5313 Q409.3906,23.5313 409.625,23.7891 Q409.8594,24.0469 409.8594,24.6563 L409.8594,26.1094 Q409.8594,26.7188 409.625,26.9844 Q409.3906,27.25 409.0156,27.25 Q408.6719,27.25 408.4688,27.0469 Q408.2656,26.8594 408.1563,26.3438 Q408.1094,25.9844 407.9219,25.7969 Q407.5938,25.4219 406.9844,25.2031 Q406.375,24.9844 405.75,24.9844 Q404.9844,24.9844 404.3516,25.3125 Q403.7188,25.6406 403.2266,26.3906 Q402.7344,27.1406 402.7344,28.1719 L402.7344,29.2656 Q402.7344,30.5 403.625,31.3203 Q404.5156,32.1406 406.1094,32.1406 Q407.0469,32.1406 407.7031,31.8906 Q408.0938,31.7344 408.5156,31.2969 Q408.7813,31.0313 408.9297,30.9531 Q409.0781,30.875 409.2813,30.875 Q409.6094,30.875 409.8672,31.1328 Q410.125,31.3906 410.125,31.7344 Q410.125,32.0781 409.7813,32.4844 Q409.2813,33.0625 408.4844,33.3906 Q407.4063,33.8438 406.1094,33.8438 Q404.5938,33.8438 403.3906,33.2188 Q402.4063,32.7188 401.7188,31.6484 Q401.0313,30.5781 401.0313,29.2969 L401.0313,28.1406 Q401.0313,26.8125 401.6484,25.6641 Q402.2656,24.5156 403.3594,23.8984 Q404.4531,23.2813 405.6875,23.2813 Q406.4219,23.2813 407.0703,23.4453 Q407.7188,23.6094 408.2656,23.9688 Z "/><text fill="#000000" font-family="sans-serif" font-size="14" font-weight="bold" lengthAdjust="spacingAndGlyphs" textLength="204" x="419.5" y="27.5332">PlayersWorldDominationView</text><text fill="#000000" font-family="sans-serif" font-size="10" lengthAdjust="spacingAndGlyphs" textLength="115" x="464" y="40.9902">soen6441riskgame.views</text></a><!--class soen6441riskgame.utils.presenter.WindowPane--><a target="_parent" xlink:actuate="onRequest" xlink:href="../../soen6441riskgame/utils/presenter/WindowPane.html" xlink:show="new" xlink:title="soen6441riskgame.utils.presenter.WindowPane" xlink:type="simple"><rect fill="#FFFFFF" filter="url(#fhdphabp1d3v0)" height="40.1875" id="soen6441riskgame.utils.presenter.WindowPane" style="stroke: #A80036; stroke-width: 1.5;" width="187" x="95" y="280"/><rect fill="#FFFFFF" height="40.1875" style="stroke: #A80036; stroke-width: 1.5;" width="187" x="95" y="280"/><ellipse cx="110" cy="300.0938" fill="#ADD1B2" rx="11" ry="11" style="stroke: #A80036; stroke-width: 1.0;"/><path d="M112.7656,295.9688 Q112.9219,295.75 113.1094,295.6406 Q113.2969,295.5313 113.5156,295.5313 Q113.8906,295.5313 114.125,295.7891 Q114.3594,296.0469 114.3594,296.6563 L114.3594,298.1094 Q114.3594,298.7188 114.125,298.9844 Q113.8906,299.25 113.5156,299.25 Q113.1719,299.25 112.9688,299.0469 Q112.7656,298.8594 112.6563,298.3438 Q112.6094,297.9844 112.4219,297.7969 Q112.0938,297.4219 111.4844,297.2031 Q110.875,296.9844 110.25,296.9844 Q109.4844,296.9844 108.8516,297.3125 Q108.2188,297.6406 107.7266,298.3906 Q107.2344,299.1406 107.2344,300.1719 L107.2344,301.2656 Q107.2344,302.5 108.125,303.3203 Q109.0156,304.1406 110.6094,304.1406 Q111.5469,304.1406 112.2031,303.8906 Q112.5938,303.7344 113.0156,303.2969 Q113.2813,303.0313 113.4297,302.9531 Q113.5781,302.875 113.7813,302.875 Q114.1094,302.875 114.3672,303.1328 Q114.625,303.3906 114.625,303.7344 Q114.625,304.0781 114.2813,304.4844 Q113.7813,305.0625 112.9844,305.3906 Q111.9063,305.8438 110.6094,305.8438 Q109.0938,305.8438 107.8906,305.2188 Q106.9063,304.7188 106.2188,303.6484 Q105.5313,302.5781 105.5313,301.2969 L105.5313,300.1406 Q105.5313,298.8125 106.1484,297.6641 Q106.7656,296.5156 107.8594,295.8984 Q108.9531,295.2813 110.1875,295.2813 Q110.9219,295.2813 111.5703,295.4453 Q112.2188,295.6094 112.7656,295.9688 Z "/><text fill="#000000" font-family="sans-serif" font-size="14" font-weight="bold" lengthAdjust="spacingAndGlyphs" textLength="90" x="156.5" y="299.5332">WindowPane</text><text fill="#000000" font-family="sans-serif" font-size="10" lengthAdjust="spacingAndGlyphs" textLength="155" x="124" y="312.9902">soen6441riskgame.utils.presenter</text></a><!--class java.io.PrintStream--><rect fill="#D3D3D3" filter="url(#fhdphabp1d3v0)" height="40.1875" id="java.io.PrintStream" style="stroke: #A80036; stroke-width: 1.5;" width="114" x="317.5" y="280"/><rect fill="#D3D3D3" height="40.1875" style="stroke: #A80036; stroke-width: 1.5;" width="114" x="317.5" y="280"/><ellipse cx="332.5" cy="300.0938" fill="#ADD1B2" rx="11" ry="11" style="stroke: #A80036; stroke-width: 1.0;"/><path d="M335.2656,295.9688 Q335.4219,295.75 335.6094,295.6406 Q335.7969,295.5313 336.0156,295.5313 Q336.3906,295.5313 336.625,295.7891 Q336.8594,296.0469 336.8594,296.6563 L336.8594,298.1094 Q336.8594,298.7188 336.625,298.9844 Q336.3906,299.25 336.0156,299.25 Q335.6719,299.25 335.4688,299.0469 Q335.2656,298.8594 335.1563,298.3438 Q335.1094,297.9844 334.9219,297.7969 Q334.5938,297.4219 333.9844,297.2031 Q333.375,296.9844 332.75,296.9844 Q331.9844,296.9844 331.3516,297.3125 Q330.7188,297.6406 330.2266,298.3906 Q329.7344,299.1406 329.7344,300.1719 L329.7344,301.2656 Q329.7344,302.5 330.625,303.3203 Q331.5156,304.1406 333.1094,304.1406 Q334.0469,304.1406 334.7031,303.8906 Q335.0938,303.7344 335.5156,303.2969 Q335.7813,303.0313 335.9297,302.9531 Q336.0781,302.875 336.2813,302.875 Q336.6094,302.875 336.8672,303.1328 Q337.125,303.3906 337.125,303.7344 Q337.125,304.0781 336.7813,304.4844 Q336.2813,305.0625 335.4844,305.3906 Q334.4063,305.8438 333.1094,305.8438 Q331.5938,305.8438 330.3906,305.2188 Q329.4063,304.7188 328.7188,303.6484 Q328.0313,302.5781 328.0313,301.2969 L328.0313,300.1406 Q328.0313,298.8125 328.6484,297.6641 Q329.2656,296.5156 330.3594,295.8984 Q331.4531,295.2813 332.6875,295.2813 Q333.4219,295.2813 334.0703,295.4453 Q334.7188,295.6094 335.2656,295.9688 Z "/><text fill="#000000" font-family="sans-serif" font-size="14" font-weight="bold" lengthAdjust="spacingAndGlyphs" textLength="82" x="346.5" y="299.5332">PrintStream</text><text fill="#000000" font-family="sans-serif" font-size="10" lengthAdjust="spacingAndGlyphs" textLength="32" x="371.5" y="312.9902">java.io</text><!--link soen6441riskgame.views.ExchangeCardView to soen6441riskgame.views.SeparatedView--><path d="M173.214,28 C186.921,28 196.75,28 196.75,28 C196.75,28 196.75,87.898 196.75,87.898 " fill="none" id="soen6441riskgame.views.ExchangeCardView-soen6441riskgame.views.SeparatedView" style="stroke: #A80036; stroke-width: 1.0;"/><polygon fill="none" points="203.75,87.898,196.75,107.898,189.75,87.898,203.75,87.898" style="stroke: #A80036; stroke-width: 1.0;"/><!--link soen6441riskgame.views.PhaseView to soen6441riskgame.views.SeparatedView--><path d="M281.5,48.067 C281.5,48.067 281.5,87.966 281.5,87.966 " fill="none" id="soen6441riskgame.views.PhaseView-soen6441riskgame.views.SeparatedView" style="stroke: #A80036; stroke-width: 1.0;"/><polygon fill="none" points="288.5,87.966,281.5,107.966,274.5,87.966,288.5,87.966" style="stroke: #A80036; stroke-width: 1.0;"/><!--link soen6441riskgame.views.PlayersWorldDominationView to soen6441riskgame.views.SeparatedView--><path d="M390.381,28 C375.994,28 366.25,28 366.25,28 C366.25,28 366.25,87.898 366.25,87.898 " fill="none" id="soen6441riskgame.views.PlayersWorldDominationView-soen6441riskgame.views.SeparatedView" style="stroke: #A80036; stroke-width: 1.0;"/><polygon fill="none" points="373.25,87.898,366.25,107.898,359.25,87.898,373.25,87.898" style="stroke: #A80036; stroke-width: 1.0;"/><!--link soen6441riskgame.views.SeparatedView to soen6441riskgame.utils.presenter.WindowPane--><path d="M233.75,220.1016 C233.75,220.1016 233.75,274.9304 233.75,274.9304 " fill="none" id="soen6441riskgame.views.SeparatedView-soen6441riskgame.utils.presenter.WindowPane" style="stroke: #A80036; stroke-width: 1.0;"/><polygon fill="#A80036" points="233.75,279.9304,237.75,270.9304,233.75,274.9304,229.75,270.9304,233.75,279.9304" style="stroke: #A80036; stroke-width: 1.0;"/><text fill="#000000" font-family="sans-serif" font-size="13" lengthAdjust="spacingAndGlyphs" textLength="54" x="185.1109" y="269.2042">presenter</text><!--link soen6441riskgame.views.SeparatedView to java.io.PrintStream--><path d="M347.5,220.1016 C347.5,220.1016 347.5,274.9304 347.5,274.9304 " fill="none" id="soen6441riskgame.views.SeparatedView-java.io.PrintStream" style="stroke: #A80036; stroke-width: 1.0;"/><polygon fill="#A80036" points="347.5,279.9304,351.5,270.9304,347.5,274.9304,343.5,270.9304,347.5,279.9304" style="stroke: #A80036; stroke-width: 1.0;"/><text fill="#000000" font-family="sans-serif" font-size="13" lengthAdjust="spacingAndGlyphs" textLength="67" x="279.6122" y="269.0683">printStream</text><!--
@startuml

skinparam svgLinkTarget _parent
skinparam linetype ortho
set namespaceSeparator none
class "<b><size:14>SeparatedView</b>\n<size:10>soen6441riskgame.views" as soen6441riskgame.views.SeparatedView  [[../../soen6441riskgame/views/SeparatedView.html{soen6441riskgame.views.SeparatedView}]] {
#WindowPane presenter
#PrintStream printStream
+SeparatedView(String viewName)
+void clearView()
}


class "<b><size:14>ExchangeCardView</b>\n<size:10>soen6441riskgame.views" as soen6441riskgame.views.ExchangeCardView  [[../../soen6441riskgame/views/ExchangeCardView.html{soen6441riskgame.views.ExchangeCardView}]] {
}

hide soen6441riskgame.views.ExchangeCardView fields
hide soen6441riskgame.views.ExchangeCardView methods

soen6441riskgame.views.ExchangeCardView - -|> soen6441riskgame.views.SeparatedView

class "<b><size:14>PhaseView</b>\n<size:10>soen6441riskgame.views" as soen6441riskgame.views.PhaseView  [[../../soen6441riskgame/views/PhaseView.html{soen6441riskgame.views.PhaseView}]] {
}

hide soen6441riskgame.views.PhaseView fields
hide soen6441riskgame.views.PhaseView methods

soen6441riskgame.views.PhaseView - -|> soen6441riskgame.views.SeparatedView

class "<b><size:14>PlayersWorldDominationView</b>\n<size:10>soen6441riskgame.views" as soen6441riskgame.views.PlayersWorldDominationView  [[../../soen6441riskgame/views/PlayersWorldDominationView.html{soen6441riskgame.views.PlayersWorldDominationView}]] {
}

hide soen6441riskgame.views.PlayersWorldDominationView fields
hide soen6441riskgame.views.PlayersWorldDominationView methods

soen6441riskgame.views.PlayersWorldDominationView - -|> soen6441riskgame.views.SeparatedView

class "<b><size:14>WindowPane</b>\n<size:10>soen6441riskgame.utils.presenter" as soen6441riskgame.utils.presenter.WindowPane  [[../../soen6441riskgame/utils/presenter/WindowPane.html{soen6441riskgame.utils.presenter.WindowPane}]] #white {
}

hide soen6441riskgame.utils.presenter.WindowPane fields
hide soen6441riskgame.utils.presenter.WindowPane methods

soen6441riskgame.views.SeparatedView - ->  "presenter" soen6441riskgame.utils.presenter.WindowPane

class "<b><size:14>PrintStream</b>\n<size:10>java.io" as java.io.PrintStream  #lightgrey {
}

hide java.io.PrintStream fields
hide java.io.PrintStream methods

soen6441riskgame.views.SeparatedView - ->  "printStream" java.io.PrintStream


@enduml

PlantUML version 1.2017.15(Mon Jul 03 12:45:34 EDT 2017)
(GPL source distribution)
Java Runtime: Java(TM) SE Runtime Environment
JVM: Java HotSpot(TM) 64-Bit Server VM
Java Version: 1.8.0_231-b11
Operating System: Windows 10
OS Version: 10.0
Default Encoding: Cp1252
Language: en
Country: US
--></g></svg>