<?xml version="1.0" encoding="UTF-8" standalone="no"?><svg xmlns="http://www.w3.org/2000/svg" xmlns:xlink="http://www.w3.org/1999/xlink" contentScriptType="application/ecmascript" contentStyleType="text/css" height="580px" preserveAspectRatio="none" style="width:1550px;height:580px;" version="1.1" viewBox="0 0 1550 580" width="1550px" zoomAndPan="magnify"><defs><filter height="300%" id="f1x7j3vwr6x8ii" width="300%" x="-1" y="-1"><feGaussianBlur result="blurOut" stdDeviation="2.0"/><feColorMatrix in="blurOut" result="blurOut2" type="matrix" values="0 0 0 0 0 0 0 0 0 0 0 0 0 0 0 0 0 0 .4 0"/><feOffset dx="4.0" dy="4.0" in="blurOut2" result="blurOut3"/><feBlend in="SourceGraphic" in2="blurOut3" mode="normal"/></filter></defs><g><!--class soen6441riskgame.singleton.GameBoard--><a target="_parent" xlink:actuate="onRequest" xlink:href="../../soen6441riskgame/singleton/GameBoard.html" xlink:show="new" xlink:title="soen6441riskgame.singleton.GameBoard" xlink:type="simple"><rect fill="#FEFECE" filter="url(#f1x7j3vwr6x8ii)" height="360.5781" id="soen6441riskgame.singleton.GameBoard" style="stroke: #A80036; stroke-width: 1.5;" width="308" x="669" y="108"/><ellipse cx="752.25" cy="128.0938" fill="#ADD1B2" rx="11" ry="11" style="stroke: #A80036; stroke-width: 1.0;"/><path d="M755.0156,123.9688 Q755.1719,123.75 755.3594,123.6406 Q755.5469,123.5313 755.7656,123.5313 Q756.1406,123.5313 756.375,123.7891 Q756.6094,124.0469 756.6094,124.6563 L756.6094,126.1094 Q756.6094,126.7188 756.375,126.9844 Q756.1406,127.25 755.7656,127.25 Q755.4219,127.25 755.2188,127.0469 Q755.0156,126.8594 754.9063,126.3438 Q754.8594,125.9844 754.6719,125.7969 Q754.3438,125.4219 753.7344,125.2031 Q753.125,124.9844 752.5,124.9844 Q751.7344,124.9844 751.1016,125.3125 Q750.4688,125.6406 749.9766,126.3906 Q749.4844,127.1406 749.4844,128.1719 L749.4844,129.2656 Q749.4844,130.5 750.375,131.3203 Q751.2656,132.1406 752.8594,132.1406 Q753.7969,132.1406 754.4531,131.8906 Q754.8438,131.7344 755.2656,131.2969 Q755.5313,131.0313 755.6797,130.9531 Q755.8281,130.875 756.0313,130.875 Q756.3594,130.875 756.6172,131.1328 Q756.875,131.3906 756.875,131.7344 Q756.875,132.0781 756.5313,132.4844 Q756.0313,133.0625 755.2344,133.3906 Q754.1563,133.8438 752.8594,133.8438 Q751.3438,133.8438 750.1406,133.2188 Q749.1563,132.7188 748.4688,131.6484 Q747.7813,130.5781 747.7813,129.2969 L747.7813,128.1406 Q747.7813,126.8125 748.3984,125.6641 Q749.0156,124.5156 750.1094,123.8984 Q751.2031,123.2813 752.4375,123.2813 Q753.1719,123.2813 753.8203,123.4453 Q754.4688,123.6094 755.0156,123.9688 Z "/><text fill="#000000" font-family="sans-serif" font-size="14" font-weight="bold" lengthAdjust="spacingAndGlyphs" textLength="82" x="798.25" y="127.5332">GameBoard</text><text fill="#000000" font-family="sans-serif" font-size="10" lengthAdjust="spacingAndGlyphs" textLength="133" x="772.75" y="140.9902">soen6441riskgame.singleton</text><line style="stroke: #A80036; stroke-width: 1.5;" x1="670" x2="976" y1="148.1875" y2="148.1875"/><ellipse cx="680" cy="160.6055" fill="none" rx="3" ry="3" style="stroke: #038048; stroke-width: 1.0;"/><text fill="#000000" font-family="sans-serif" font-size="11" lengthAdjust="spacingAndGlyphs" textLength="156" x="689" y="163.6064">PrintStream standardPrintStream</text><rect fill="none" height="6" style="stroke: #C82930; stroke-width: 1.0;" width="6" x="677" y="171.4414"/><text fill="#000000" font-family="sans-serif" font-size="11" lengthAdjust="spacingAndGlyphs" text-decoration="underline" textLength="118" x="689" y="177.4424">int NUMBER_OF_CARDS</text><line style="stroke: #000000; stroke-width: 1.0;" x1="689" x2="807" y1="179.4424" y2="179.4424"/><rect fill="none" height="6" style="stroke: #C82930; stroke-width: 1.0;" width="6" x="677" y="185.2773"/><text fill="#000000" font-family="sans-serif" font-size="11" lengthAdjust="spacingAndGlyphs" text-decoration="underline" textLength="101" x="689" y="191.2783">GameBoard instance</text><line style="stroke: #000000; stroke-width: 1.0;" x1="689" x2="790" y1="193.2783" y2="193.2783"/><rect fill="none" height="6" style="stroke: #C82930; stroke-width: 1.0;" width="6" x="677" y="199.1133"/><text fill="#000000" font-family="sans-serif" font-size="11" lengthAdjust="spacingAndGlyphs" textLength="175" x="689" y="205.1143">GameBoardPlayer gameBoardPlayer</text><rect fill="none" height="6" style="stroke: #C82930; stroke-width: 1.0;" width="6" x="677" y="212.9492"/><text fill="#000000" font-family="sans-serif" font-size="11" lengthAdjust="spacingAndGlyphs" textLength="155" x="689" y="218.9502">GameBoardMap gameBoardMap</text><rect fill="none" height="6" style="stroke: #C82930; stroke-width: 1.0;" width="6" x="677" y="226.7852"/><text fill="#000000" font-family="sans-serif" font-size="11" lengthAdjust="spacingAndGlyphs" textLength="183" x="689" y="232.7861">GameBoardPlaying gameBoardPlaying</text><rect fill="none" height="6" style="stroke: #C82930; stroke-width: 1.0;" width="6" x="677" y="240.6211"/><text fill="#000000" font-family="sans-serif" font-size="11" lengthAdjust="spacingAndGlyphs" textLength="197" x="689" y="246.6221">ExchangeCardView exchangeCardView</text><rect fill="none" height="6" style="stroke: #C82930; stroke-width: 1.0;" width="6" x="677" y="254.457"/><text fill="#000000" font-family="sans-serif" font-size="11" lengthAdjust="spacingAndGlyphs" textLength="54" x="689" y="260.458">Card cards</text><line style="stroke: #A80036; stroke-width: 1.5;" x1="670" x2="976" y1="266.875" y2="266.875"/><ellipse cx="680" cy="279.293" fill="#84BE84" rx="3" ry="3" style="stroke: #038048; stroke-width: 1.0;"/><text fill="#000000" font-family="sans-serif" font-size="11" lengthAdjust="spacingAndGlyphs" textLength="65" x="689" y="282.2939">GameBoard()</text><ellipse cx="680" cy="293.1289" fill="#84BE84" rx="3" ry="3" style="stroke: #038048; stroke-width: 1.0;"/><text fill="#000000" font-family="sans-serif" font-size="11" lengthAdjust="spacingAndGlyphs" textLength="73" x="689" y="296.1299">void initCards()</text><ellipse cx="680" cy="306.9648" fill="#84BE84" rx="3" ry="3" style="stroke: #038048; stroke-width: 1.0;"/><text fill="#000000" font-family="sans-serif" font-size="11" lengthAdjust="spacingAndGlyphs" textLength="244" x="689" y="309.9658">Card getSpecificCardForTest(CardType cardType)</text><ellipse cx="680" cy="320.8008" fill="#84BE84" rx="3" ry="3" style="stroke: #038048; stroke-width: 1.0;"/><text fill="#000000" font-family="sans-serif" font-size="11" lengthAdjust="spacingAndGlyphs" textLength="119" x="689" y="323.8018">Card getCardsForSave()</text><ellipse cx="680" cy="334.6367" fill="#84BE84" rx="3" ry="3" style="stroke: #038048; stroke-width: 1.0;"/><text fill="#000000" font-family="sans-serif" font-size="11" lengthAdjust="spacingAndGlyphs" textLength="177" x="689" y="337.6377">void loadCardFromSave(Card cards)</text><ellipse cx="680" cy="348.4727" fill="#84BE84" rx="3" ry="3" style="stroke: #038048; stroke-width: 1.0;"/><text fill="#000000" font-family="sans-serif" font-size="11" lengthAdjust="spacingAndGlyphs" textLength="282" x="689" y="351.4736">void loadGameBoardPlaying(GameBoardPlaying serialized)</text><ellipse cx="680" cy="362.3086" fill="#84BE84" rx="3" ry="3" style="stroke: #038048; stroke-width: 1.0;"/><text fill="#000000" font-family="sans-serif" font-size="11" lengthAdjust="spacingAndGlyphs" textLength="155" x="689" y="365.3096">Card getRandomAvailableCard()</text><ellipse cx="680" cy="376.1445" fill="#84BE84" rx="3" ry="3" style="stroke: #038048; stroke-width: 1.0;"/><text fill="#000000" font-family="sans-serif" font-size="11" lengthAdjust="spacingAndGlyphs" textLength="220" x="689" y="379.1455">ExchangeCardView getExchangeCardView()</text><ellipse cx="680" cy="389.9805" fill="#84BE84" rx="3" ry="3" style="stroke: #038048; stroke-width: 1.0;"/><text fill="#000000" font-family="sans-serif" font-size="11" lengthAdjust="spacingAndGlyphs" textLength="200" x="689" y="392.9814">GameBoardPlayer getGameBoardPlayer()</text><ellipse cx="680" cy="403.8164" fill="#84BE84" rx="3" ry="3" style="stroke: #038048; stroke-width: 1.0;"/><text fill="#000000" font-family="sans-serif" font-size="11" lengthAdjust="spacingAndGlyphs" textLength="180" x="689" y="406.8174">GameBoardMap getGameBoardMap()</text><ellipse cx="680" cy="417.6523" fill="#84BE84" rx="3" ry="3" style="stroke: #038048; stroke-width: 1.0;"/><text fill="#000000" font-family="sans-serif" font-size="11" lengthAdjust="spacingAndGlyphs" textLength="208" x="689" y="420.6533">GameBoardPlaying getGameBoardPlaying()</text><ellipse cx="680" cy="431.4883" fill="#84BE84" rx="3" ry="3" style="stroke: #038048; stroke-width: 1.0;"/><text fill="#000000" font-family="sans-serif" font-size="11" lengthAdjust="spacingAndGlyphs" text-decoration="underline" textLength="280" x="689" y="434.4893">void setTestingInstance(GameBoard newTestingInstance)</text><line style="stroke: #000000; stroke-width: 1.0;" x1="689" x2="969" y1="436.4893" y2="436.4893"/><ellipse cx="680" cy="445.3242" fill="#84BE84" rx="3" ry="3" style="stroke: #038048; stroke-width: 1.0;"/><text fill="#000000" font-family="sans-serif" font-size="11" lengthAdjust="spacingAndGlyphs" text-decoration="underline" textLength="124" x="689" y="448.3252">GameBoard getInstance()</text><line style="stroke: #000000; stroke-width: 1.0;" x1="689" x2="813" y1="450.3252" y2="450.3252"/><ellipse cx="680" cy="459.1602" fill="#84BE84" rx="3" ry="3" style="stroke: #038048; stroke-width: 1.0;"/><text fill="#000000" font-family="sans-serif" font-size="11" lengthAdjust="spacingAndGlyphs" textLength="56" x="689" y="462.1611">void reset()</text></a><!--class soen6441riskgame.models.strategies.AggressiveStrategy--><a target="_parent" xlink:actuate="onRequest" xlink:href="../../soen6441riskgame/models/strategies/AggressiveStrategy.html" xlink:show="new" xlink:title="soen6441riskgame.models.strategies.AggressiveStrategy" xlink:type="simple"><rect fill="#FFFFFF" filter="url(#f1x7j3vwr6x8ii)" height="40.1875" id="soen6441riskgame.models.strategies.AggressiveStrategy" style="stroke: #A80036; stroke-width: 1.5;" width="203" x="364.5" y="8"/><rect fill="#FFFFFF" height="40.1875" style="stroke: #A80036; stroke-width: 1.5;" width="203" x="364.5" y="8"/><ellipse cx="379.5" cy="28.0938" fill="#ADD1B2" rx="11" ry="11" style="stroke: #A80036; stroke-width: 1.0;"/><path d="M382.2656,23.9688 Q382.4219,23.75 382.6094,23.6406 Q382.7969,23.5313 383.0156,23.5313 Q383.3906,23.5313 383.625,23.7891 Q383.8594,24.0469 383.8594,24.6563 L383.8594,26.1094 Q383.8594,26.7188 383.625,26.9844 Q383.3906,27.25 383.0156,27.25 Q382.6719,27.25 382.4688,27.0469 Q382.2656,26.8594 382.1563,26.3438 Q382.1094,25.9844 381.9219,25.7969 Q381.5938,25.4219 380.9844,25.2031 Q380.375,24.9844 379.75,24.9844 Q378.9844,24.9844 378.3516,25.3125 Q377.7188,25.6406 377.2266,26.3906 Q376.7344,27.1406 376.7344,28.1719 L376.7344,29.2656 Q376.7344,30.5 377.625,31.3203 Q378.5156,32.1406 380.1094,32.1406 Q381.0469,32.1406 381.7031,31.8906 Q382.0938,31.7344 382.5156,31.2969 Q382.7813,31.0313 382.9297,30.9531 Q383.0781,30.875 383.2813,30.875 Q383.6094,30.875 383.8672,31.1328 Q384.125,31.3906 384.125,31.7344 Q384.125,32.0781 383.7813,32.4844 Q383.2813,33.0625 382.4844,33.3906 Q381.4063,33.8438 380.1094,33.8438 Q378.5938,33.8438 377.3906,33.2188 Q376.4063,32.7188 375.7188,31.6484 Q375.0313,30.5781 375.0313,29.2969 L375.0313,28.1406 Q375.0313,26.8125 375.6484,25.6641 Q376.2656,24.5156 377.3594,23.8984 Q378.4531,23.2813 379.6875,23.2813 Q380.4219,23.2813 381.0703,23.4453 Q381.7188,23.6094 382.2656,23.9688 Z "/><text fill="#000000" font-family="sans-serif" font-size="14" font-weight="bold" lengthAdjust="spacingAndGlyphs" textLength="138" x="410" y="27.5332">AggressiveStrategy</text><text fill="#000000" font-family="sans-serif" font-size="10" lengthAdjust="spacingAndGlyphs" textLength="171" x="393.5" y="40.9902">soen6441riskgame.models.strategies</text></a><!--class soen6441riskgame.models.strategies.BenevolentStrategy--><a target="_parent" xlink:actuate="onRequest" xlink:href="../../soen6441riskgame/models/strategies/BenevolentStrategy.html" xlink:show="new" xlink:title="soen6441riskgame.models.strategies.BenevolentStrategy" xlink:type="simple"><rect fill="#FFFFFF" filter="url(#f1x7j3vwr6x8ii)" height="40.1875" id="soen6441riskgame.models.strategies.BenevolentStrategy" style="stroke: #A80036; stroke-width: 1.5;" width="203" x="602.5" y="8"/><rect fill="#FFFFFF" height="40.1875" style="stroke: #A80036; stroke-width: 1.5;" width="203" x="602.5" y="8"/><ellipse cx="617.5" cy="28.0938" fill="#ADD1B2" rx="11" ry="11" style="stroke: #A80036; stroke-width: 1.0;"/><path d="M620.2656,23.9688 Q620.4219,23.75 620.6094,23.6406 Q620.7969,23.5313 621.0156,23.5313 Q621.3906,23.5313 621.625,23.7891 Q621.8594,24.0469 621.8594,24.6563 L621.8594,26.1094 Q621.8594,26.7188 621.625,26.9844 Q621.3906,27.25 621.0156,27.25 Q620.6719,27.25 620.4688,27.0469 Q620.2656,26.8594 620.1563,26.3438 Q620.1094,25.9844 619.9219,25.7969 Q619.5938,25.4219 618.9844,25.2031 Q618.375,24.9844 617.75,24.9844 Q616.9844,24.9844 616.3516,25.3125 Q615.7188,25.6406 615.2266,26.3906 Q614.7344,27.1406 614.7344,28.1719 L614.7344,29.2656 Q614.7344,30.5 615.625,31.3203 Q616.5156,32.1406 618.1094,32.1406 Q619.0469,32.1406 619.7031,31.8906 Q620.0938,31.7344 620.5156,31.2969 Q620.7813,31.0313 620.9297,30.9531 Q621.0781,30.875 621.2813,30.875 Q621.6094,30.875 621.8672,31.1328 Q622.125,31.3906 622.125,31.7344 Q622.125,32.0781 621.7813,32.4844 Q621.2813,33.0625 620.4844,33.3906 Q619.4063,33.8438 618.1094,33.8438 Q616.5938,33.8438 615.3906,33.2188 Q614.4063,32.7188 613.7188,31.6484 Q613.0313,30.5781 613.0313,29.2969 L613.0313,28.1406 Q613.0313,26.8125 613.6484,25.6641 Q614.2656,24.5156 615.3594,23.8984 Q616.4531,23.2813 617.6875,23.2813 Q618.4219,23.2813 619.0703,23.4453 Q619.7188,23.6094 620.2656,23.9688 Z "/><text fill="#000000" font-family="sans-serif" font-size="14" font-weight="bold" lengthAdjust="spacingAndGlyphs" textLength="140" x="647" y="27.5332">BenevolentStrategy</text><text fill="#000000" font-family="sans-serif" font-size="10" lengthAdjust="spacingAndGlyphs" textLength="171" x="631.5" y="40.9902">soen6441riskgame.models.strategies</text></a><!--class soen6441riskgame.models.strategies.IStrategy--><a target="_parent" xlink:actuate="onRequest" xlink:href="../../soen6441riskgame/models/strategies/IStrategy.html" xlink:show="new" xlink:title="soen6441riskgame.models.strategies.IStrategy" xlink:type="simple"><rect fill="#FFFFFF" filter="url(#f1x7j3vwr6x8ii)" height="40.1875" id="soen6441riskgame.models.strategies.IStrategy" style="stroke: #A80036; stroke-width: 1.5;" width="205" x="840.5" y="8"/><rect fill="#FFFFFF" height="40.1875" style="stroke: #A80036; stroke-width: 1.5;" width="205" x="840.5" y="8"/><ellipse cx="855.5" cy="28.0938" fill="#B4A7E5" rx="11" ry="11" style="stroke: #A80036; stroke-width: 1.0;"/><path d="M856.4531,24.7344 L856.4531,31.3906 L858.1719,31.3906 Q858.7813,31.3906 859.0469,31.625 Q859.3125,31.8594 859.3125,32.25 Q859.3125,32.625 859.0469,32.8594 Q858.7813,33.0938 858.1719,33.0938 L853.0313,33.0938 Q852.4219,33.0938 852.1563,32.8594 Q851.8906,32.625 851.8906,32.2344 Q851.8906,31.8594 852.1563,31.625 Q852.4219,31.3906 853.0313,31.3906 L854.75,31.3906 L854.75,24.7344 L853.0313,24.7344 Q852.4219,24.7344 852.1563,24.5 Q851.8906,24.2656 851.8906,23.875 Q851.8906,23.5 852.1563,23.2656 Q852.4219,23.0313 853.0313,23.0313 L858.1719,23.0313 Q858.7813,23.0313 859.0469,23.2656 Q859.3125,23.5 859.3125,23.875 Q859.3125,24.2656 859.0469,24.5 Q858.7813,24.7344 858.1719,24.7344 L856.4531,24.7344 Z "/><text fill="#000000" font-family="sans-serif" font-size="14" font-style="italic" font-weight="bold" lengthAdjust="spacingAndGlyphs" textLength="59" x="926.5" y="27.5332">IStrategy</text><text fill="#000000" font-family="sans-serif" font-size="10" font-style="italic" lengthAdjust="spacingAndGlyphs" textLength="173" x="869.5" y="40.9902">soen6441riskgame.models.strategies</text></a><!--class soen6441riskgame.models.strategies.RandomStrategy--><a target="_parent" xlink:actuate="onRequest" xlink:href="../../soen6441riskgame/models/strategies/RandomStrategy.html" xlink:show="new" xlink:title="soen6441riskgame.models.strategies.RandomStrategy" xlink:type="simple"><rect fill="#FFFFFF" filter="url(#f1x7j3vwr6x8ii)" height="40.1875" id="soen6441riskgame.models.strategies.RandomStrategy" style="stroke: #A80036; stroke-width: 1.5;" width="203" x="1080.5" y="8"/><rect fill="#FFFFFF" height="40.1875" style="stroke: #A80036; stroke-width: 1.5;" width="203" x="1080.5" y="8"/><ellipse cx="1095.5" cy="28.0938" fill="#ADD1B2" rx="11" ry="11" style="stroke: #A80036; stroke-width: 1.0;"/><path d="M1098.2656,23.9688 Q1098.4219,23.75 1098.6094,23.6406 Q1098.7969,23.5313 1099.0156,23.5313 Q1099.3906,23.5313 1099.625,23.7891 Q1099.8594,24.0469 1099.8594,24.6563 L1099.8594,26.1094 Q1099.8594,26.7188 1099.625,26.9844 Q1099.3906,27.25 1099.0156,27.25 Q1098.6719,27.25 1098.4688,27.0469 Q1098.2656,26.8594 1098.1563,26.3438 Q1098.1094,25.9844 1097.9219,25.7969 Q1097.5938,25.4219 1096.9844,25.2031 Q1096.375,24.9844 1095.75,24.9844 Q1094.9844,24.9844 1094.3516,25.3125 Q1093.7188,25.6406 1093.2266,26.3906 Q1092.7344,27.1406 1092.7344,28.1719 L1092.7344,29.2656 Q1092.7344,30.5 1093.625,31.3203 Q1094.5156,32.1406 1096.1094,32.1406 Q1097.0469,32.1406 1097.7031,31.8906 Q1098.0938,31.7344 1098.5156,31.2969 Q1098.7813,31.0313 1098.9297,30.9531 Q1099.0781,30.875 1099.2813,30.875 Q1099.6094,30.875 1099.8672,31.1328 Q1100.125,31.3906 1100.125,31.7344 Q1100.125,32.0781 1099.7813,32.4844 Q1099.2813,33.0625 1098.4844,33.3906 Q1097.4063,33.8438 1096.1094,33.8438 Q1094.5938,33.8438 1093.3906,33.2188 Q1092.4063,32.7188 1091.7188,31.6484 Q1091.0313,30.5781 1091.0313,29.2969 L1091.0313,28.1406 Q1091.0313,26.8125 1091.6484,25.6641 Q1092.2656,24.5156 1093.3594,23.8984 Q1094.4531,23.2813 1095.6875,23.2813 Q1096.4219,23.2813 1097.0703,23.4453 Q1097.7188,23.6094 1098.2656,23.9688 Z "/><text fill="#000000" font-family="sans-serif" font-size="14" font-weight="bold" lengthAdjust="spacingAndGlyphs" textLength="115" x="1137.5" y="27.5332">RandomStrategy</text><text fill="#000000" font-family="sans-serif" font-size="10" lengthAdjust="spacingAndGlyphs" textLength="171" x="1109.5" y="40.9902">soen6441riskgame.models.strategies</text></a><!--class soen6441riskgame.singleton.GameBoardPlayer--><a target="_parent" xlink:actuate="onRequest" xlink:href="../../soen6441riskgame/singleton/GameBoardPlayer.html" xlink:show="new" xlink:title="soen6441riskgame.singleton.GameBoardPlayer" xlink:type="simple"><rect fill="#FEFECE" filter="url(#f1x7j3vwr6x8ii)" height="40.1875" id="soen6441riskgame.singleton.GameBoardPlayer" style="stroke: #A80036; stroke-width: 1.5;" width="165" x="41.5" y="529"/><ellipse cx="56.5" cy="549.0938" fill="#ADD1B2" rx="11" ry="11" style="stroke: #A80036; stroke-width: 1.0;"/><path d="M59.2656,544.9688 Q59.4219,544.75 59.6094,544.6406 Q59.7969,544.5313 60.0156,544.5313 Q60.3906,544.5313 60.625,544.7891 Q60.8594,545.0469 60.8594,545.6563 L60.8594,547.1094 Q60.8594,547.7188 60.625,547.9844 Q60.3906,548.25 60.0156,548.25 Q59.6719,548.25 59.4688,548.0469 Q59.2656,547.8594 59.1563,547.3438 Q59.1094,546.9844 58.9219,546.7969 Q58.5938,546.4219 57.9844,546.2031 Q57.375,545.9844 56.75,545.9844 Q55.9844,545.9844 55.3516,546.3125 Q54.7188,546.6406 54.2266,547.3906 Q53.7344,548.1406 53.7344,549.1719 L53.7344,550.2656 Q53.7344,551.5 54.625,552.3203 Q55.5156,553.1406 57.1094,553.1406 Q58.0469,553.1406 58.7031,552.8906 Q59.0938,552.7344 59.5156,552.2969 Q59.7813,552.0313 59.9297,551.9531 Q60.0781,551.875 60.2813,551.875 Q60.6094,551.875 60.8672,552.1328 Q61.125,552.3906 61.125,552.7344 Q61.125,553.0781 60.7813,553.4844 Q60.2813,554.0625 59.4844,554.3906 Q58.4063,554.8438 57.1094,554.8438 Q55.5938,554.8438 54.3906,554.2188 Q53.4063,553.7188 52.7188,552.6484 Q52.0313,551.5781 52.0313,550.2969 L52.0313,549.1406 Q52.0313,547.8125 52.6484,546.6641 Q53.2656,545.5156 54.3594,544.8984 Q55.4531,544.2813 56.6875,544.2813 Q57.4219,544.2813 58.0703,544.4453 Q58.7188,544.6094 59.2656,544.9688 Z "/><text fill="#000000" font-family="sans-serif" font-size="14" font-weight="bold" lengthAdjust="spacingAndGlyphs" textLength="125" x="74.5" y="548.5332">GameBoardPlayer</text><text fill="#000000" font-family="sans-serif" font-size="10" lengthAdjust="spacingAndGlyphs" textLength="133" x="70.5" y="561.9902">soen6441riskgame.singleton</text></a><!--class soen6441riskgame.singleton.GameBoardMap--><a target="_parent" xlink:actuate="onRequest" xlink:href="../../soen6441riskgame/singleton/GameBoardMap.html" xlink:show="new" xlink:title="soen6441riskgame.singleton.GameBoardMap" xlink:type="simple"><rect fill="#FEFECE" filter="url(#f1x7j3vwr6x8ii)" height="40.1875" id="soen6441riskgame.singleton.GameBoardMap" style="stroke: #A80036; stroke-width: 1.5;" width="165" x="241.5" y="529"/><ellipse cx="256.5" cy="549.0938" fill="#ADD1B2" rx="11" ry="11" style="stroke: #A80036; stroke-width: 1.0;"/><path d="M259.2656,544.9688 Q259.4219,544.75 259.6094,544.6406 Q259.7969,544.5313 260.0156,544.5313 Q260.3906,544.5313 260.625,544.7891 Q260.8594,545.0469 260.8594,545.6563 L260.8594,547.1094 Q260.8594,547.7188 260.625,547.9844 Q260.3906,548.25 260.0156,548.25 Q259.6719,548.25 259.4688,548.0469 Q259.2656,547.8594 259.1563,547.3438 Q259.1094,546.9844 258.9219,546.7969 Q258.5938,546.4219 257.9844,546.2031 Q257.375,545.9844 256.75,545.9844 Q255.9844,545.9844 255.3516,546.3125 Q254.7188,546.6406 254.2266,547.3906 Q253.7344,548.1406 253.7344,549.1719 L253.7344,550.2656 Q253.7344,551.5 254.625,552.3203 Q255.5156,553.1406 257.1094,553.1406 Q258.0469,553.1406 258.7031,552.8906 Q259.0938,552.7344 259.5156,552.2969 Q259.7813,552.0313 259.9297,551.9531 Q260.0781,551.875 260.2813,551.875 Q260.6094,551.875 260.8672,552.1328 Q261.125,552.3906 261.125,552.7344 Q261.125,553.0781 260.7813,553.4844 Q260.2813,554.0625 259.4844,554.3906 Q258.4063,554.8438 257.1094,554.8438 Q255.5938,554.8438 254.3906,554.2188 Q253.4063,553.7188 252.7188,552.6484 Q252.0313,551.5781 252.0313,550.2969 L252.0313,549.1406 Q252.0313,547.8125 252.6484,546.6641 Q253.2656,545.5156 254.3594,544.8984 Q255.4531,544.2813 256.6875,544.2813 Q257.4219,544.2813 258.0703,544.4453 Q258.7188,544.6094 259.2656,544.9688 Z "/><text fill="#000000" font-family="sans-serif" font-size="14" font-weight="bold" lengthAdjust="spacingAndGlyphs" textLength="112" x="281" y="548.5332">GameBoardMap</text><text fill="#000000" font-family="sans-serif" font-size="10" lengthAdjust="spacingAndGlyphs" textLength="133" x="270.5" y="561.9902">soen6441riskgame.singleton</text></a><!--class soen6441riskgame.singleton.GameBoardPlaying--><a target="_parent" xlink:actuate="onRequest" xlink:href="../../soen6441riskgame/singleton/GameBoardPlaying.html" xlink:show="new" xlink:title="soen6441riskgame.singleton.GameBoardPlaying" xlink:type="simple"><rect fill="#FEFECE" filter="url(#f1x7j3vwr6x8ii)" height="40.1875" id="soen6441riskgame.singleton.GameBoardPlaying" style="stroke: #A80036; stroke-width: 1.5;" width="165" x="441.5" y="529"/><ellipse cx="456.5" cy="549.0938" fill="#ADD1B2" rx="11" ry="11" style="stroke: #A80036; stroke-width: 1.0;"/><path d="M459.2656,544.9688 Q459.4219,544.75 459.6094,544.6406 Q459.7969,544.5313 460.0156,544.5313 Q460.3906,544.5313 460.625,544.7891 Q460.8594,545.0469 460.8594,545.6563 L460.8594,547.1094 Q460.8594,547.7188 460.625,547.9844 Q460.3906,548.25 460.0156,548.25 Q459.6719,548.25 459.4688,548.0469 Q459.2656,547.8594 459.1563,547.3438 Q459.1094,546.9844 458.9219,546.7969 Q458.5938,546.4219 457.9844,546.2031 Q457.375,545.9844 456.75,545.9844 Q455.9844,545.9844 455.3516,546.3125 Q454.7188,546.6406 454.2266,547.3906 Q453.7344,548.1406 453.7344,549.1719 L453.7344,550.2656 Q453.7344,551.5 454.625,552.3203 Q455.5156,553.1406 457.1094,553.1406 Q458.0469,553.1406 458.7031,552.8906 Q459.0938,552.7344 459.5156,552.2969 Q459.7813,552.0313 459.9297,551.9531 Q460.0781,551.875 460.2813,551.875 Q460.6094,551.875 460.8672,552.1328 Q461.125,552.3906 461.125,552.7344 Q461.125,553.0781 460.7813,553.4844 Q460.2813,554.0625 459.4844,554.3906 Q458.4063,554.8438 457.1094,554.8438 Q455.5938,554.8438 454.3906,554.2188 Q453.4063,553.7188 452.7188,552.6484 Q452.0313,551.5781 452.0313,550.2969 L452.0313,549.1406 Q452.0313,547.8125 452.6484,546.6641 Q453.2656,545.5156 454.3594,544.8984 Q455.4531,544.2813 456.6875,544.2813 Q457.4219,544.2813 458.0703,544.4453 Q458.7188,544.6094 459.2656,544.9688 Z "/><text fill="#000000" font-family="sans-serif" font-size="14" font-weight="bold" lengthAdjust="spacingAndGlyphs" textLength="132" x="471" y="548.5332">GameBoardPlaying</text><text fill="#000000" font-family="sans-serif" font-size="10" lengthAdjust="spacingAndGlyphs" textLength="133" x="470.5" y="561.9902">soen6441riskgame.singleton</text></a><!--class soen6441riskgame.views.ExchangeCardView--><a target="_parent" xlink:actuate="onRequest" xlink:href="../../soen6441riskgame/views/ExchangeCardView.html" xlink:show="new" xlink:title="soen6441riskgame.views.ExchangeCardView" xlink:type="simple"><rect fill="#FFFFFF" filter="url(#f1x7j3vwr6x8ii)" height="40.1875" id="soen6441riskgame.views.ExchangeCardView" style="stroke: #A80036; stroke-width: 1.5;" width="167" x="641.5" y="529"/><rect fill="#FFFFFF" height="40.1875" style="stroke: #A80036; stroke-width: 1.5;" width="167" x="641.5" y="529"/><ellipse cx="656.5" cy="549.0938" fill="#ADD1B2" rx="11" ry="11" style="stroke: #A80036; stroke-width: 1.0;"/><path d="M659.2656,544.9688 Q659.4219,544.75 659.6094,544.6406 Q659.7969,544.5313 660.0156,544.5313 Q660.3906,544.5313 660.625,544.7891 Q660.8594,545.0469 660.8594,545.6563 L660.8594,547.1094 Q660.8594,547.7188 660.625,547.9844 Q660.3906,548.25 660.0156,548.25 Q659.6719,548.25 659.4688,548.0469 Q659.2656,547.8594 659.1563,547.3438 Q659.1094,546.9844 658.9219,546.7969 Q658.5938,546.4219 657.9844,546.2031 Q657.375,545.9844 656.75,545.9844 Q655.9844,545.9844 655.3516,546.3125 Q654.7188,546.6406 654.2266,547.3906 Q653.7344,548.1406 653.7344,549.1719 L653.7344,550.2656 Q653.7344,551.5 654.625,552.3203 Q655.5156,553.1406 657.1094,553.1406 Q658.0469,553.1406 658.7031,552.8906 Q659.0938,552.7344 659.5156,552.2969 Q659.7813,552.0313 659.9297,551.9531 Q660.0781,551.875 660.2813,551.875 Q660.6094,551.875 660.8672,552.1328 Q661.125,552.3906 661.125,552.7344 Q661.125,553.0781 660.7813,553.4844 Q660.2813,554.0625 659.4844,554.3906 Q658.4063,554.8438 657.1094,554.8438 Q655.5938,554.8438 654.3906,554.2188 Q653.4063,553.7188 652.7188,552.6484 Q652.0313,551.5781 652.0313,550.2969 L652.0313,549.1406 Q652.0313,547.8125 652.6484,546.6641 Q653.2656,545.5156 654.3594,544.8984 Q655.4531,544.2813 656.6875,544.2813 Q657.4219,544.2813 658.0703,544.4453 Q658.7188,544.6094 659.2656,544.9688 Z "/><text fill="#000000" font-family="sans-serif" font-size="14" font-weight="bold" lengthAdjust="spacingAndGlyphs" textLength="135" x="670.5" y="548.5332">ExchangeCardView</text><text fill="#000000" font-family="sans-serif" font-size="10" lengthAdjust="spacingAndGlyphs" textLength="115" x="680.5" y="561.9902">soen6441riskgame.views</text></a><!--class soen6441riskgame.models.Card--><a target="_parent" xlink:actuate="onRequest" xlink:href="../../soen6441riskgame/models/Card.html" xlink:show="new" xlink:title="soen6441riskgame.models.Card" xlink:type="simple"><rect fill="#FFFFFF" filter="url(#f1x7j3vwr6x8ii)" height="40.1875" id="soen6441riskgame.models.Card" style="stroke: #A80036; stroke-width: 1.5;" width="156" x="844" y="529"/><rect fill="#FFFFFF" height="40.1875" style="stroke: #A80036; stroke-width: 1.5;" width="156" x="844" y="529"/><ellipse cx="859" cy="549.0938" fill="#ADD1B2" rx="11" ry="11" style="stroke: #A80036; stroke-width: 1.0;"/><path d="M861.7656,544.9688 Q861.9219,544.75 862.1094,544.6406 Q862.2969,544.5313 862.5156,544.5313 Q862.8906,544.5313 863.125,544.7891 Q863.3594,545.0469 863.3594,545.6563 L863.3594,547.1094 Q863.3594,547.7188 863.125,547.9844 Q862.8906,548.25 862.5156,548.25 Q862.1719,548.25 861.9688,548.0469 Q861.7656,547.8594 861.6563,547.3438 Q861.6094,546.9844 861.4219,546.7969 Q861.0938,546.4219 860.4844,546.2031 Q859.875,545.9844 859.25,545.9844 Q858.4844,545.9844 857.8516,546.3125 Q857.2188,546.6406 856.7266,547.3906 Q856.2344,548.1406 856.2344,549.1719 L856.2344,550.2656 Q856.2344,551.5 857.125,552.3203 Q858.0156,553.1406 859.6094,553.1406 Q860.5469,553.1406 861.2031,552.8906 Q861.5938,552.7344 862.0156,552.2969 Q862.2813,552.0313 862.4297,551.9531 Q862.5781,551.875 862.7813,551.875 Q863.1094,551.875 863.3672,552.1328 Q863.625,552.3906 863.625,552.7344 Q863.625,553.0781 863.2813,553.4844 Q862.7813,554.0625 861.9844,554.3906 Q860.9063,554.8438 859.6094,554.8438 Q858.0938,554.8438 856.8906,554.2188 Q855.9063,553.7188 855.2188,552.6484 Q854.5313,551.5781 854.5313,550.2969 L854.5313,549.1406 Q854.5313,547.8125 855.1484,546.6641 Q855.7656,545.5156 856.8594,544.8984 Q857.9531,544.2813 859.1875,544.2813 Q859.9219,544.2813 860.5703,544.4453 Q861.2188,544.6094 861.7656,544.9688 Z "/><text fill="#000000" font-family="sans-serif" font-size="14" font-weight="bold" lengthAdjust="spacingAndGlyphs" textLength="33" x="918.5" y="548.5332">Card</text><text fill="#000000" font-family="sans-serif" font-size="10" lengthAdjust="spacingAndGlyphs" textLength="124" x="873" y="561.9902">soen6441riskgame.models</text></a><!--class java.io.PrintStream--><rect fill="#D3D3D3" filter="url(#f1x7j3vwr6x8ii)" height="40.1875" id="java.io.PrintStream" style="stroke: #A80036; stroke-width: 1.5;" width="114" x="1035" y="529"/><rect fill="#D3D3D3" height="40.1875" style="stroke: #A80036; stroke-width: 1.5;" width="114" x="1035" y="529"/><ellipse cx="1050" cy="549.0938" fill="#ADD1B2" rx="11" ry="11" style="stroke: #A80036; stroke-width: 1.0;"/><path d="M1052.7656,544.9688 Q1052.9219,544.75 1053.1094,544.6406 Q1053.2969,544.5313 1053.5156,544.5313 Q1053.8906,544.5313 1054.125,544.7891 Q1054.3594,545.0469 1054.3594,545.6563 L1054.3594,547.1094 Q1054.3594,547.7188 1054.125,547.9844 Q1053.8906,548.25 1053.5156,548.25 Q1053.1719,548.25 1052.9688,548.0469 Q1052.7656,547.8594 1052.6563,547.3438 Q1052.6094,546.9844 1052.4219,546.7969 Q1052.0938,546.4219 1051.4844,546.2031 Q1050.875,545.9844 1050.25,545.9844 Q1049.4844,545.9844 1048.8516,546.3125 Q1048.2188,546.6406 1047.7266,547.3906 Q1047.2344,548.1406 1047.2344,549.1719 L1047.2344,550.2656 Q1047.2344,551.5 1048.125,552.3203 Q1049.0156,553.1406 1050.6094,553.1406 Q1051.5469,553.1406 1052.2031,552.8906 Q1052.5938,552.7344 1053.0156,552.2969 Q1053.2813,552.0313 1053.4297,551.9531 Q1053.5781,551.875 1053.7813,551.875 Q1054.1094,551.875 1054.3672,552.1328 Q1054.625,552.3906 1054.625,552.7344 Q1054.625,553.0781 1054.2813,553.4844 Q1053.7813,554.0625 1052.9844,554.3906 Q1051.9063,554.8438 1050.6094,554.8438 Q1049.0938,554.8438 1047.8906,554.2188 Q1046.9063,553.7188 1046.2188,552.6484 Q1045.5313,551.5781 1045.5313,550.2969 L1045.5313,549.1406 Q1045.5313,547.8125 1046.1484,546.6641 Q1046.7656,545.5156 1047.8594,544.8984 Q1048.9531,544.2813 1050.1875,544.2813 Q1050.9219,544.2813 1051.5703,544.4453 Q1052.2188,544.6094 1052.7656,544.9688 Z "/><text fill="#000000" font-family="sans-serif" font-size="14" font-weight="bold" lengthAdjust="spacingAndGlyphs" textLength="82" x="1064" y="548.5332">PrintStream</text><text fill="#000000" font-family="sans-serif" font-size="10" lengthAdjust="spacingAndGlyphs" textLength="32" x="1089" y="561.9902">java.io</text><!--class soen6441riskgame.singleton.Resettable--><a target="_parent" xlink:actuate="onRequest" xlink:href="../../soen6441riskgame/singleton/Resettable.html" xlink:show="new" xlink:title="soen6441riskgame.singleton.Resettable" xlink:type="simple"><rect fill="#FEFECE" filter="url(#f1x7j3vwr6x8ii)" height="40.1875" id="soen6441riskgame.singleton.Resettable" style="stroke: #A80036; stroke-width: 1.5;" width="167" x="1184.5" y="529"/><ellipse cx="1199.5" cy="549.0938" fill="#B4A7E5" rx="11" ry="11" style="stroke: #A80036; stroke-width: 1.0;"/><path d="M1200.4531,545.7344 L1200.4531,552.3906 L1202.1719,552.3906 Q1202.7813,552.3906 1203.0469,552.625 Q1203.3125,552.8594 1203.3125,553.25 Q1203.3125,553.625 1203.0469,553.8594 Q1202.7813,554.0938 1202.1719,554.0938 L1197.0313,554.0938 Q1196.4219,554.0938 1196.1563,553.8594 Q1195.8906,553.625 1195.8906,553.2344 Q1195.8906,552.8594 1196.1563,552.625 Q1196.4219,552.3906 1197.0313,552.3906 L1198.75,552.3906 L1198.75,545.7344 L1197.0313,545.7344 Q1196.4219,545.7344 1196.1563,545.5 Q1195.8906,545.2656 1195.8906,544.875 Q1195.8906,544.5 1196.1563,544.2656 Q1196.4219,544.0313 1197.0313,544.0313 L1202.1719,544.0313 Q1202.7813,544.0313 1203.0469,544.2656 Q1203.3125,544.5 1203.3125,544.875 Q1203.3125,545.2656 1203.0469,545.5 Q1202.7813,545.7344 1202.1719,545.7344 L1200.4531,545.7344 Z "/><text fill="#000000" font-family="sans-serif" font-size="14" font-style="italic" font-weight="bold" lengthAdjust="spacingAndGlyphs" textLength="72" x="1245" y="548.5332">Resettable</text><text fill="#000000" font-family="sans-serif" font-size="10" font-style="italic" lengthAdjust="spacingAndGlyphs" textLength="135" x="1213.5" y="561.9902">soen6441riskgame.singleton</text></a><!--class soen6441riskgame.enums.CardType--><a target="_parent" xlink:actuate="onRequest" xlink:href="../../soen6441riskgame/enums/CardType.html" xlink:show="new" xlink:title="soen6441riskgame.enums.CardType" xlink:type="simple"><rect fill="#FFFFFF" filter="url(#f1x7j3vwr6x8ii)" height="40.1875" id="soen6441riskgame.enums.CardType" style="stroke: #A80036; stroke-width: 1.5;" width="153" x="1386.5" y="529"/><rect fill="#FFFFFF" height="40.1875" style="stroke: #A80036; stroke-width: 1.5;" width="153" x="1386.5" y="529"/><ellipse cx="1401.5" cy="549.0938" fill="#EB937F" rx="11" ry="11" style="stroke: #A80036; stroke-width: 1.0;"/><path d="M1400.3594,549.8906 L1400.3594,552.3906 L1404.6875,552.3906 L1404.6875,551.4688 Q1404.6875,550.8594 1404.9297,550.5938 Q1405.1719,550.3281 1405.5469,550.3281 Q1405.9219,550.3281 1406.1563,550.5938 Q1406.3906,550.8594 1406.3906,551.4688 L1406.3906,554.0938 L1398.3906,554.0938 Q1397.7656,554.0938 1397.5078,553.8594 Q1397.25,553.625 1397.25,553.2344 Q1397.25,552.8594 1397.5156,552.625 Q1397.7813,552.3906 1398.3906,552.3906 L1398.6563,552.3906 L1398.6563,545.7344 L1398.3906,545.7344 Q1397.7656,545.7344 1397.5078,545.5 Q1397.25,545.2656 1397.25,544.875 Q1397.25,544.5 1397.5078,544.2656 Q1397.7656,544.0313 1398.3906,544.0313 L1406.0156,544.0313 L1406.0156,546.625 Q1406.0156,547.2344 1405.7891,547.4922 Q1405.5625,547.75 1405.1719,547.75 Q1404.7969,547.75 1404.5625,547.4922 Q1404.3281,547.2344 1404.3281,546.625 L1404.3281,545.7344 L1400.3594,545.7344 L1400.3594,548.1875 L1401.8438,548.1875 Q1401.8438,547.5313 1401.9688,547.3438 Q1402.2344,546.9375 1402.7031,546.9375 Q1403.0781,546.9375 1403.3125,547.1953 Q1403.5469,547.4531 1403.5469,548.0625 L1403.5469,550.0313 Q1403.5469,550.5781 1403.4219,550.7656 Q1403.1563,551.1563 1402.7031,551.1563 Q1402.2344,551.1563 1401.9688,550.75 Q1401.8438,550.5625 1401.8438,549.8906 L1400.3594,549.8906 Z "/><text fill="#000000" font-family="sans-serif" font-size="14" font-weight="bold" lengthAdjust="spacingAndGlyphs" textLength="66" x="1443" y="548.5332">CardType</text><text fill="#000000" font-family="sans-serif" font-size="10" lengthAdjust="spacingAndGlyphs" textLength="121" x="1415.5" y="561.9902">soen6441riskgame.enums</text></a><!--link soen6441riskgame.models.strategies.AggressiveStrategy to soen6441riskgame.singleton.GameBoard--><path d="M504.5,48.002 C504.5,89.475 504.5,181 504.5,181 C504.5,181 663.881,181 663.881,181 " fill="none" id="soen6441riskgame.models.strategies.AggressiveStrategy-soen6441riskgame.singleton.GameBoard" style="stroke: #A80036; stroke-width: 1.0; stroke-dasharray: 7.0,7.0;"/><polygon fill="#A80036" points="668.881,181,659.881,177,663.881,181,659.881,185,668.881,181" style="stroke: #A80036; stroke-width: 1.0;"/><!--link soen6441riskgame.models.strategies.BenevolentStrategy to soen6441riskgame.singleton.GameBoard--><path d="M737.25,48.008 C737.25,48.008 737.25,102.765 737.25,102.765 " fill="none" id="soen6441riskgame.models.strategies.BenevolentStrategy-soen6441riskgame.singleton.GameBoard" style="stroke: #A80036; stroke-width: 1.0; stroke-dasharray: 7.0,7.0;"/><polygon fill="#A80036" points="737.25,107.765,741.25,98.765,737.25,102.765,733.25,98.765,737.25,107.765" style="stroke: #A80036; stroke-width: 1.0;"/><!--link soen6441riskgame.models.strategies.IStrategy to soen6441riskgame.singleton.GameBoard--><path d="M886,48.008 C886,48.008 886,102.765 886,102.765 " fill="none" id="soen6441riskgame.models.strategies.IStrategy-soen6441riskgame.singleton.GameBoard" style="stroke: #A80036; stroke-width: 1.0; stroke-dasharray: 7.0,7.0;"/><polygon fill="#A80036" points="886,107.765,890,98.765,886,102.765,882,98.765,886,107.765" style="stroke: #A80036; stroke-width: 1.0;"/><!--link soen6441riskgame.models.strategies.RandomStrategy to soen6441riskgame.singleton.GameBoard--><path d="M1114.75,48.002 C1114.75,89.475 1114.75,181 1114.75,181 C1114.75,181 982.418,181 982.418,181 " fill="none" id="soen6441riskgame.models.strategies.RandomStrategy-soen6441riskgame.singleton.GameBoard" style="stroke: #A80036; stroke-width: 1.0; stroke-dasharray: 7.0,7.0;"/><polygon fill="#A80036" points="977.418,181,986.418,185,982.418,181,986.418,177,977.418,181" style="stroke: #A80036; stroke-width: 1.0;"/><!--link soen6441riskgame.singleton.GameBoard to soen6441riskgame.singleton.GameBoard--><path d="M931.5,107.713 C931.5,89.757 931.5,78 931.5,78 C931.5,78 988.5,78 988.5,78 C988.5,78 988.5,499 988.5,499 C988.5,499 932.667,499 932.667,499 C932.667,499 932.667,474.2869 932.667,474.2869 " fill="none" id="soen6441riskgame.singleton.GameBoard-soen6441riskgame.singleton.GameBoard" style="stroke: #A80036; stroke-width: 1.0;"/><polygon fill="#A80036" points="932.667,469.2869,928.667,478.2869,932.667,474.2869,936.667,478.2869,932.667,469.2869" style="stroke: #A80036; stroke-width: 1.0;"/><text fill="#000000" font-family="sans-serif" font-size="13" lengthAdjust="spacingAndGlyphs" textLength="49" x="886.9938" y="490.1716">instance</text><!--link soen6441riskgame.singleton.GameBoard to soen6441riskgame.singleton.GameBoardPlayer--><path d="M668.736,253 C462.888,253 124,253 124,253 C124,253 124,523.6547 124,523.6547 " fill="none" id="soen6441riskgame.singleton.GameBoard-soen6441riskgame.singleton.GameBoardPlayer" style="stroke: #A80036; stroke-width: 1.0;"/><polygon fill="#A80036" points="124,528.6547,128,519.6547,124,523.6547,120,519.6547,124,528.6547" style="stroke: #A80036; stroke-width: 1.0;"/><text fill="#000000" font-family="sans-serif" font-size="13" lengthAdjust="spacingAndGlyphs" textLength="103" x="6.5156" y="518.2008">gameBoardPlayer</text><!--link soen6441riskgame.singleton.GameBoard to soen6441riskgame.singleton.GameBoardMap--><path d="M668.754,325 C542.795,325 385.5,325 385.5,325 C385.5,325 385.5,523.7264 385.5,523.7264 " fill="none" id="soen6441riskgame.singleton.GameBoard-soen6441riskgame.singleton.GameBoardMap" style="stroke: #A80036; stroke-width: 1.0;"/><polygon fill="#A80036" points="385.5,528.7264,389.5,519.7264,385.5,523.7264,381.5,519.7264,385.5,528.7264" style="stroke: #A80036; stroke-width: 1.0;"/><text fill="#000000" font-family="sans-serif" font-size="13" lengthAdjust="spacingAndGlyphs" textLength="91" x="299" y="518.2926">gameBoardMap</text><!--link soen6441riskgame.singleton.GameBoard to soen6441riskgame.singleton.GameBoardPlaying--><path d="M668.91,397 C623.154,397 585,397 585,397 C585,397 585,523.8156 585,523.8156 " fill="none" id="soen6441riskgame.singleton.GameBoard-soen6441riskgame.singleton.GameBoardPlaying" style="stroke: #A80036; stroke-width: 1.0;"/><polygon fill="#A80036" points="585,528.8156,589,519.8156,585,523.8156,581,519.8156,585,528.8156" style="stroke: #A80036; stroke-width: 1.0;"/><text fill="#000000" font-family="sans-serif" font-size="13" lengthAdjust="spacingAndGlyphs" textLength="109" x="477.9094" y="518.0556">gameBoardPlaying</text><!--link soen6441riskgame.singleton.GameBoard to soen6441riskgame.views.ExchangeCardView--><path d="M738.75,469.0711 C738.75,469.0711 738.75,523.7225 738.75,523.7225 " fill="none" id="soen6441riskgame.singleton.GameBoard-soen6441riskgame.views.ExchangeCardView" style="stroke: #A80036; stroke-width: 1.0;"/><polygon fill="#A80036" points="738.75,528.7225,742.75,519.7225,738.75,523.7225,734.75,519.7225,738.75,528.7225" style="stroke: #A80036; stroke-width: 1.0;"/><text fill="#000000" font-family="sans-serif" font-size="13" lengthAdjust="spacingAndGlyphs" textLength="111" x="616.0078" y="518.2876">exchangeCardView</text><!--link soen6441riskgame.singleton.GameBoard to soen6441riskgame.models.Card--><path d="M888.333,469.0711 C888.333,469.0711 888.333,523.7225 888.333,523.7225 " fill="none" id="soen6441riskgame.singleton.GameBoard-soen6441riskgame.models.Card" style="stroke: #A80036; stroke-width: 1.0;"/><polygon fill="#A80036" points="888.333,528.7225,892.333,519.7225,888.333,523.7225,884.333,519.7225,888.333,528.7225" style="stroke: #A80036; stroke-width: 1.0;"/><text fill="#000000" font-family="sans-serif" font-size="13" lengthAdjust="spacingAndGlyphs" textLength="32" x="842.3642" y="518.2876">cards</text><!--link soen6441riskgame.singleton.GameBoard to java.io.PrintStream--><path d="M977.12,397 C1012.648,397 1040.25,397 1040.25,397 C1040.25,397 1040.25,523.8156 1040.25,523.8156 " fill="none" id="soen6441riskgame.singleton.GameBoard-java.io.PrintStream" style="stroke: #A80036; stroke-width: 1.0;"/><polygon fill="#A80036" points="1040.25,528.8156,1044.25,519.8156,1040.25,523.8156,1036.25,519.8156,1040.25,528.8156" style="stroke: #A80036; stroke-width: 1.0;"/><text fill="#000000" font-family="sans-serif" font-size="13" lengthAdjust="spacingAndGlyphs" textLength="119" x="938.5078" y="518.0556">standardPrintStream</text><!--link soen6441riskgame.singleton.GameBoard to soen6441riskgame.singleton.Resettable--><path d="M977.211,325 C1093.83,325 1234,325 1234,325 C1234,325 1234,508.7264 1234,508.7264 " fill="none" id="soen6441riskgame.singleton.GameBoard-soen6441riskgame.singleton.Resettable" style="stroke: #A80036; stroke-width: 1.0; stroke-dasharray: 7.0,7.0;"/><polygon fill="none" points="1241,508.7265,1234,528.7264,1227,508.7264,1241,508.7265" style="stroke: #A80036; stroke-width: 1.0;"/><!--link soen6441riskgame.singleton.GameBoard to soen6441riskgame.enums.CardType--><path d="M977.11,253 C1166.49,253 1463,253 1463,253 C1463,253 1463,523.6547 1463,523.6547 " fill="none" id="soen6441riskgame.singleton.GameBoard-soen6441riskgame.enums.CardType" style="stroke: #A80036; stroke-width: 1.0; stroke-dasharray: 7.0,7.0;"/><polygon fill="#A80036" points="1463,528.6547,1467,519.6547,1463,523.6547,1459,519.6547,1463,528.6547" style="stroke: #A80036; stroke-width: 1.0;"/><!--
@startuml

skinparam svgLinkTarget _parent
skinparam linetype ortho
set namespaceSeparator none
class "<b><size:14>GameBoard</b>\n<size:10>soen6441riskgame.singleton" as soen6441riskgame.singleton.GameBoard  [[../../soen6441riskgame/singleton/GameBoard.html{soen6441riskgame.singleton.GameBoard}]] {
+PrintStream standardPrintStream
{static} -int NUMBER_OF_CARDS
{static} -GameBoard instance
-GameBoardPlayer gameBoardPlayer
-GameBoardMap gameBoardMap
-GameBoardPlaying gameBoardPlaying
-ExchangeCardView exchangeCardView
-Card cards
+GameBoard()
+void initCards()
+Card getSpecificCardForTest(CardType cardType)
+Card getCardsForSave()
+void loadCardFromSave(Card cards)
+void loadGameBoardPlaying(GameBoardPlaying serialized)
+Card getRandomAvailableCard()
+ExchangeCardView getExchangeCardView()
+GameBoardPlayer getGameBoardPlayer()
+GameBoardMap getGameBoardMap()
+GameBoardPlaying getGameBoardPlaying()
{static} +void setTestingInstance(GameBoard newTestingInstance)
{static} +GameBoard getInstance()
+void reset()
}


class "<b><size:14>AggressiveStrategy</b>\n<size:10>soen6441riskgame.models.strategies" as soen6441riskgame.models.strategies.AggressiveStrategy  [[../../soen6441riskgame/models/strategies/AggressiveStrategy.html{soen6441riskgame.models.strategies.AggressiveStrategy}]] #white {
}

hide soen6441riskgame.models.strategies.AggressiveStrategy fields
hide soen6441riskgame.models.strategies.AggressiveStrategy methods

soen6441riskgame.models.strategies.AggressiveStrategy ..> soen6441riskgame.singleton.GameBoard

class "<b><size:14>BenevolentStrategy</b>\n<size:10>soen6441riskgame.models.strategies" as soen6441riskgame.models.strategies.BenevolentStrategy  [[../../soen6441riskgame/models/strategies/BenevolentStrategy.html{soen6441riskgame.models.strategies.BenevolentStrategy}]] #white {
}

hide soen6441riskgame.models.strategies.BenevolentStrategy fields
hide soen6441riskgame.models.strategies.BenevolentStrategy methods

soen6441riskgame.models.strategies.BenevolentStrategy ..> soen6441riskgame.singleton.GameBoard

interface "<b><size:14>IStrategy</b>\n<size:10>soen6441riskgame.models.strategies" as soen6441riskgame.models.strategies.IStrategy  [[../../soen6441riskgame/models/strategies/IStrategy.html{soen6441riskgame.models.strategies.IStrategy}]] #white {
}

hide soen6441riskgame.models.strategies.IStrategy fields
hide soen6441riskgame.models.strategies.IStrategy methods

soen6441riskgame.models.strategies.IStrategy ..> soen6441riskgame.singleton.GameBoard

class "<b><size:14>RandomStrategy</b>\n<size:10>soen6441riskgame.models.strategies" as soen6441riskgame.models.strategies.RandomStrategy  [[../../soen6441riskgame/models/strategies/RandomStrategy.html{soen6441riskgame.models.strategies.RandomStrategy}]] #white {
}

hide soen6441riskgame.models.strategies.RandomStrategy fields
hide soen6441riskgame.models.strategies.RandomStrategy methods

soen6441riskgame.models.strategies.RandomStrategy ..> soen6441riskgame.singleton.GameBoard

soen6441riskgame.singleton.GameBoard - ->  "instance" soen6441riskgame.singleton.GameBoard

class "<b><size:14>GameBoardPlayer</b>\n<size:10>soen6441riskgame.singleton" as soen6441riskgame.singleton.GameBoardPlayer  [[../../soen6441riskgame/singleton/GameBoardPlayer.html{soen6441riskgame.singleton.GameBoardPlayer}]] {
}

hide soen6441riskgame.singleton.GameBoardPlayer fields
hide soen6441riskgame.singleton.GameBoardPlayer methods

soen6441riskgame.singleton.GameBoard - ->  "gameBoardPlayer" soen6441riskgame.singleton.GameBoardPlayer

class "<b><size:14>GameBoardMap</b>\n<size:10>soen6441riskgame.singleton" as soen6441riskgame.singleton.GameBoardMap  [[../../soen6441riskgame/singleton/GameBoardMap.html{soen6441riskgame.singleton.GameBoardMap}]] {
}

hide soen6441riskgame.singleton.GameBoardMap fields
hide soen6441riskgame.singleton.GameBoardMap methods

soen6441riskgame.singleton.GameBoard - ->  "gameBoardMap" soen6441riskgame.singleton.GameBoardMap

class "<b><size:14>GameBoardPlaying</b>\n<size:10>soen6441riskgame.singleton" as soen6441riskgame.singleton.GameBoardPlaying  [[../../soen6441riskgame/singleton/GameBoardPlaying.html{soen6441riskgame.singleton.GameBoardPlaying}]] {
}

hide soen6441riskgame.singleton.GameBoardPlaying fields
hide soen6441riskgame.singleton.GameBoardPlaying methods

soen6441riskgame.singleton.GameBoard - ->  "gameBoardPlaying" soen6441riskgame.singleton.GameBoardPlaying

class "<b><size:14>ExchangeCardView</b>\n<size:10>soen6441riskgame.views" as soen6441riskgame.views.ExchangeCardView  [[../../soen6441riskgame/views/ExchangeCardView.html{soen6441riskgame.views.ExchangeCardView}]] #white {
}

hide soen6441riskgame.views.ExchangeCardView fields
hide soen6441riskgame.views.ExchangeCardView methods

soen6441riskgame.singleton.GameBoard - ->  "exchangeCardView" soen6441riskgame.views.ExchangeCardView

class "<b><size:14>Card</b>\n<size:10>soen6441riskgame.models" as soen6441riskgame.models.Card  [[../../soen6441riskgame/models/Card.html{soen6441riskgame.models.Card}]] #white {
}

hide soen6441riskgame.models.Card fields
hide soen6441riskgame.models.Card methods

soen6441riskgame.singleton.GameBoard - ->  "cards" soen6441riskgame.models.Card

class "<b><size:14>PrintStream</b>\n<size:10>java.io" as java.io.PrintStream  #lightgrey {
}

hide java.io.PrintStream fields
hide java.io.PrintStream methods

soen6441riskgame.singleton.GameBoard - ->  "standardPrintStream" java.io.PrintStream

interface "<b><size:14>Resettable</b>\n<size:10>soen6441riskgame.singleton" as soen6441riskgame.singleton.Resettable  [[../../soen6441riskgame/singleton/Resettable.html{soen6441riskgame.singleton.Resettable}]] {
}

hide soen6441riskgame.singleton.Resettable fields
hide soen6441riskgame.singleton.Resettable methods

soen6441riskgame.singleton.GameBoard ..|> soen6441riskgame.singleton.Resettable

enum "<b><size:14>CardType</b>\n<size:10>soen6441riskgame.enums" as soen6441riskgame.enums.CardType  [[../../soen6441riskgame/enums/CardType.html{soen6441riskgame.enums.CardType}]] #white {
}

hide soen6441riskgame.enums.CardType fields
hide soen6441riskgame.enums.CardType methods

soen6441riskgame.singleton.GameBoard ..> soen6441riskgame.enums.CardType


@enduml

PlantUML version 1.2017.15(Mon Jul 03 12:45:34 EDT 2017)
(GPL source distribution)
Java Runtime: Java(TM) SE Runtime Environment
JVM: Java HotSpot(TM) 64-Bit Server VM
Java Version: 1.8.0_231-b11
Operating System: Windows 10
OS Version: 10.0
Default Encoding: Cp1252
Language: en
Country: US
--></g></svg>