<?xml version="1.0" encoding="UTF-8" standalone="no"?><svg xmlns="http://www.w3.org/2000/svg" xmlns:xlink="http://www.w3.org/1999/xlink" contentScriptType="application/ecmascript" contentStyleType="text/css" height="498px" preserveAspectRatio="none" style="width:1550px;height:498px;" version="1.1" viewBox="0 0 1550 498" width="1550px" zoomAndPan="magnify"><defs><filter height="300%" id="fq03qoyr7nqgb" width="300%" x="-1" y="-1"><feGaussianBlur result="blurOut" stdDeviation="2.0"/><feColorMatrix in="blurOut" result="blurOut2" type="matrix" values="0 0 0 0 0 0 0 0 0 0 0 0 0 0 0 0 0 0 .4 0"/><feOffset dx="4.0" dy="4.0" in="blurOut2" result="blurOut3"/><feBlend in="SourceGraphic" in2="blurOut3" mode="normal"/></filter></defs><g><!--class soen6441riskgame.singleton.GameBoard--><a target="_parent" xlink:actuate="onRequest" xlink:href="../../soen6441riskgame/singleton/GameBoard.html" xlink:show="new" xlink:title="soen6441riskgame.singleton.GameBoard" xlink:type="simple"><rect fill="#FEFECE" filter="url(#fq03qoyr7nqgb)" height="360.5781" id="soen6441riskgame.singleton.GameBoard" style="stroke: #A80036; stroke-width: 1.5;" width="308" x="669" y="26"/><ellipse cx="752.25" cy="46.0938" fill="#ADD1B2" rx="11" ry="11" style="stroke: #A80036; stroke-width: 1.0;"/><path d="M755.0156,41.9688 Q755.1719,41.75 755.3594,41.6406 Q755.5469,41.5313 755.7656,41.5313 Q756.1406,41.5313 756.375,41.7891 Q756.6094,42.0469 756.6094,42.6563 L756.6094,44.1094 Q756.6094,44.7188 756.375,44.9844 Q756.1406,45.25 755.7656,45.25 Q755.4219,45.25 755.2188,45.0469 Q755.0156,44.8594 754.9063,44.3438 Q754.8594,43.9844 754.6719,43.7969 Q754.3438,43.4219 753.7344,43.2031 Q753.125,42.9844 752.5,42.9844 Q751.7344,42.9844 751.1016,43.3125 Q750.4688,43.6406 749.9766,44.3906 Q749.4844,45.1406 749.4844,46.1719 L749.4844,47.2656 Q749.4844,48.5 750.375,49.3203 Q751.2656,50.1406 752.8594,50.1406 Q753.7969,50.1406 754.4531,49.8906 Q754.8438,49.7344 755.2656,49.2969 Q755.5313,49.0313 755.6797,48.9531 Q755.8281,48.875 756.0313,48.875 Q756.3594,48.875 756.6172,49.1328 Q756.875,49.3906 756.875,49.7344 Q756.875,50.0781 756.5313,50.4844 Q756.0313,51.0625 755.2344,51.3906 Q754.1563,51.8438 752.8594,51.8438 Q751.3438,51.8438 750.1406,51.2188 Q749.1563,50.7188 748.4688,49.6484 Q747.7813,48.5781 747.7813,47.2969 L747.7813,46.1406 Q747.7813,44.8125 748.3984,43.6641 Q749.0156,42.5156 750.1094,41.8984 Q751.2031,41.2813 752.4375,41.2813 Q753.1719,41.2813 753.8203,41.4453 Q754.4688,41.6094 755.0156,41.9688 Z "/><text fill="#000000" font-family="sans-serif" font-size="14" font-weight="bold" lengthAdjust="spacingAndGlyphs" textLength="82" x="798.25" y="45.5332">GameBoard</text><text fill="#000000" font-family="sans-serif" font-size="10" lengthAdjust="spacingAndGlyphs" textLength="133" x="772.75" y="58.9902">soen6441riskgame.singleton</text><line style="stroke: #A80036; stroke-width: 1.5;" x1="670" x2="976" y1="66.1875" y2="66.1875"/><ellipse cx="680" cy="78.6055" fill="none" rx="3" ry="3" style="stroke: #038048; stroke-width: 1.0;"/><text fill="#000000" font-family="sans-serif" font-size="11" lengthAdjust="spacingAndGlyphs" textLength="156" x="689" y="81.6064">PrintStream standardPrintStream</text><rect fill="none" height="6" style="stroke: #C82930; stroke-width: 1.0;" width="6" x="677" y="89.4414"/><text fill="#000000" font-family="sans-serif" font-size="11" lengthAdjust="spacingAndGlyphs" text-decoration="underline" textLength="118" x="689" y="95.4424">int NUMBER_OF_CARDS</text><line style="stroke: #000000; stroke-width: 1.0;" x1="689" x2="807" y1="97.4424" y2="97.4424"/><rect fill="none" height="6" style="stroke: #C82930; stroke-width: 1.0;" width="6" x="677" y="103.2773"/><text fill="#000000" font-family="sans-serif" font-size="11" lengthAdjust="spacingAndGlyphs" text-decoration="underline" textLength="101" x="689" y="109.2783">GameBoard instance</text><line style="stroke: #000000; stroke-width: 1.0;" x1="689" x2="790" y1="111.2783" y2="111.2783"/><rect fill="none" height="6" style="stroke: #C82930; stroke-width: 1.0;" width="6" x="677" y="117.1133"/><text fill="#000000" font-family="sans-serif" font-size="11" lengthAdjust="spacingAndGlyphs" textLength="175" x="689" y="123.1143">GameBoardPlayer gameBoardPlayer</text><rect fill="none" height="6" style="stroke: #C82930; stroke-width: 1.0;" width="6" x="677" y="130.9492"/><text fill="#000000" font-family="sans-serif" font-size="11" lengthAdjust="spacingAndGlyphs" textLength="155" x="689" y="136.9502">GameBoardMap gameBoardMap</text><rect fill="none" height="6" style="stroke: #C82930; stroke-width: 1.0;" width="6" x="677" y="144.7852"/><text fill="#000000" font-family="sans-serif" font-size="11" lengthAdjust="spacingAndGlyphs" textLength="183" x="689" y="150.7861">GameBoardPlaying gameBoardPlaying</text><rect fill="none" height="6" style="stroke: #C82930; stroke-width: 1.0;" width="6" x="677" y="158.6211"/><text fill="#000000" font-family="sans-serif" font-size="11" lengthAdjust="spacingAndGlyphs" textLength="197" x="689" y="164.6221">ExchangeCardView exchangeCardView</text><rect fill="none" height="6" style="stroke: #C82930; stroke-width: 1.0;" width="6" x="677" y="172.457"/><text fill="#000000" font-family="sans-serif" font-size="11" lengthAdjust="spacingAndGlyphs" textLength="54" x="689" y="178.458">Card cards</text><line style="stroke: #A80036; stroke-width: 1.5;" x1="670" x2="976" y1="184.875" y2="184.875"/><ellipse cx="680" cy="197.293" fill="#84BE84" rx="3" ry="3" style="stroke: #038048; stroke-width: 1.0;"/><text fill="#000000" font-family="sans-serif" font-size="11" lengthAdjust="spacingAndGlyphs" textLength="65" x="689" y="200.2939">GameBoard()</text><ellipse cx="680" cy="211.1289" fill="#84BE84" rx="3" ry="3" style="stroke: #038048; stroke-width: 1.0;"/><text fill="#000000" font-family="sans-serif" font-size="11" lengthAdjust="spacingAndGlyphs" textLength="73" x="689" y="214.1299">void initCards()</text><ellipse cx="680" cy="224.9648" fill="#84BE84" rx="3" ry="3" style="stroke: #038048; stroke-width: 1.0;"/><text fill="#000000" font-family="sans-serif" font-size="11" lengthAdjust="spacingAndGlyphs" textLength="244" x="689" y="227.9658">Card getSpecificCardForTest(CardType cardType)</text><ellipse cx="680" cy="238.8008" fill="#84BE84" rx="3" ry="3" style="stroke: #038048; stroke-width: 1.0;"/><text fill="#000000" font-family="sans-serif" font-size="11" lengthAdjust="spacingAndGlyphs" textLength="119" x="689" y="241.8018">Card getCardsForSave()</text><ellipse cx="680" cy="252.6367" fill="#84BE84" rx="3" ry="3" style="stroke: #038048; stroke-width: 1.0;"/><text fill="#000000" font-family="sans-serif" font-size="11" lengthAdjust="spacingAndGlyphs" textLength="177" x="689" y="255.6377">void loadCardFromSave(Card cards)</text><ellipse cx="680" cy="266.4727" fill="#84BE84" rx="3" ry="3" style="stroke: #038048; stroke-width: 1.0;"/><text fill="#000000" font-family="sans-serif" font-size="11" lengthAdjust="spacingAndGlyphs" textLength="282" x="689" y="269.4736">void loadGameBoardPlaying(GameBoardPlaying serialized)</text><ellipse cx="680" cy="280.3086" fill="#84BE84" rx="3" ry="3" style="stroke: #038048; stroke-width: 1.0;"/><text fill="#000000" font-family="sans-serif" font-size="11" lengthAdjust="spacingAndGlyphs" textLength="155" x="689" y="283.3096">Card getRandomAvailableCard()</text><ellipse cx="680" cy="294.1445" fill="#84BE84" rx="3" ry="3" style="stroke: #038048; stroke-width: 1.0;"/><text fill="#000000" font-family="sans-serif" font-size="11" lengthAdjust="spacingAndGlyphs" textLength="220" x="689" y="297.1455">ExchangeCardView getExchangeCardView()</text><ellipse cx="680" cy="307.9805" fill="#84BE84" rx="3" ry="3" style="stroke: #038048; stroke-width: 1.0;"/><text fill="#000000" font-family="sans-serif" font-size="11" lengthAdjust="spacingAndGlyphs" textLength="200" x="689" y="310.9814">GameBoardPlayer getGameBoardPlayer()</text><ellipse cx="680" cy="321.8164" fill="#84BE84" rx="3" ry="3" style="stroke: #038048; stroke-width: 1.0;"/><text fill="#000000" font-family="sans-serif" font-size="11" lengthAdjust="spacingAndGlyphs" textLength="180" x="689" y="324.8174">GameBoardMap getGameBoardMap()</text><ellipse cx="680" cy="335.6523" fill="#84BE84" rx="3" ry="3" style="stroke: #038048; stroke-width: 1.0;"/><text fill="#000000" font-family="sans-serif" font-size="11" lengthAdjust="spacingAndGlyphs" textLength="208" x="689" y="338.6533">GameBoardPlaying getGameBoardPlaying()</text><ellipse cx="680" cy="349.4883" fill="#84BE84" rx="3" ry="3" style="stroke: #038048; stroke-width: 1.0;"/><text fill="#000000" font-family="sans-serif" font-size="11" lengthAdjust="spacingAndGlyphs" text-decoration="underline" textLength="280" x="689" y="352.4893">void setTestingInstance(GameBoard newTestingInstance)</text><line style="stroke: #000000; stroke-width: 1.0;" x1="689" x2="969" y1="354.4893" y2="354.4893"/><ellipse cx="680" cy="363.3242" fill="#84BE84" rx="3" ry="3" style="stroke: #038048; stroke-width: 1.0;"/><text fill="#000000" font-family="sans-serif" font-size="11" lengthAdjust="spacingAndGlyphs" text-decoration="underline" textLength="124" x="689" y="366.3252">GameBoard getInstance()</text><line style="stroke: #000000; stroke-width: 1.0;" x1="689" x2="813" y1="368.3252" y2="368.3252"/><ellipse cx="680" cy="377.1602" fill="#84BE84" rx="3" ry="3" style="stroke: #038048; stroke-width: 1.0;"/><text fill="#000000" font-family="sans-serif" font-size="11" lengthAdjust="spacingAndGlyphs" textLength="56" x="689" y="380.1611">void reset()</text></a><!--class soen6441riskgame.singleton.GameBoardPlayer--><a target="_parent" xlink:actuate="onRequest" xlink:href="../../soen6441riskgame/singleton/GameBoardPlayer.html" xlink:show="new" xlink:title="soen6441riskgame.singleton.GameBoardPlayer" xlink:type="simple"><rect fill="#FEFECE" filter="url(#fq03qoyr7nqgb)" height="40.1875" id="soen6441riskgame.singleton.GameBoardPlayer" style="stroke: #A80036; stroke-width: 1.5;" width="165" x="41.5" y="447"/><ellipse cx="56.5" cy="467.0938" fill="#ADD1B2" rx="11" ry="11" style="stroke: #A80036; stroke-width: 1.0;"/><path d="M59.2656,462.9688 Q59.4219,462.75 59.6094,462.6406 Q59.7969,462.5313 60.0156,462.5313 Q60.3906,462.5313 60.625,462.7891 Q60.8594,463.0469 60.8594,463.6563 L60.8594,465.1094 Q60.8594,465.7188 60.625,465.9844 Q60.3906,466.25 60.0156,466.25 Q59.6719,466.25 59.4688,466.0469 Q59.2656,465.8594 59.1563,465.3438 Q59.1094,464.9844 58.9219,464.7969 Q58.5938,464.4219 57.9844,464.2031 Q57.375,463.9844 56.75,463.9844 Q55.9844,463.9844 55.3516,464.3125 Q54.7188,464.6406 54.2266,465.3906 Q53.7344,466.1406 53.7344,467.1719 L53.7344,468.2656 Q53.7344,469.5 54.625,470.3203 Q55.5156,471.1406 57.1094,471.1406 Q58.0469,471.1406 58.7031,470.8906 Q59.0938,470.7344 59.5156,470.2969 Q59.7813,470.0313 59.9297,469.9531 Q60.0781,469.875 60.2813,469.875 Q60.6094,469.875 60.8672,470.1328 Q61.125,470.3906 61.125,470.7344 Q61.125,471.0781 60.7813,471.4844 Q60.2813,472.0625 59.4844,472.3906 Q58.4063,472.8438 57.1094,472.8438 Q55.5938,472.8438 54.3906,472.2188 Q53.4063,471.7188 52.7188,470.6484 Q52.0313,469.5781 52.0313,468.2969 L52.0313,467.1406 Q52.0313,465.8125 52.6484,464.6641 Q53.2656,463.5156 54.3594,462.8984 Q55.4531,462.2813 56.6875,462.2813 Q57.4219,462.2813 58.0703,462.4453 Q58.7188,462.6094 59.2656,462.9688 Z "/><text fill="#000000" font-family="sans-serif" font-size="14" font-weight="bold" lengthAdjust="spacingAndGlyphs" textLength="125" x="74.5" y="466.5332">GameBoardPlayer</text><text fill="#000000" font-family="sans-serif" font-size="10" lengthAdjust="spacingAndGlyphs" textLength="133" x="70.5" y="479.9902">soen6441riskgame.singleton</text></a><!--class soen6441riskgame.singleton.GameBoardMap--><a target="_parent" xlink:actuate="onRequest" xlink:href="../../soen6441riskgame/singleton/GameBoardMap.html" xlink:show="new" xlink:title="soen6441riskgame.singleton.GameBoardMap" xlink:type="simple"><rect fill="#FEFECE" filter="url(#fq03qoyr7nqgb)" height="40.1875" id="soen6441riskgame.singleton.GameBoardMap" style="stroke: #A80036; stroke-width: 1.5;" width="165" x="241.5" y="447"/><ellipse cx="256.5" cy="467.0938" fill="#ADD1B2" rx="11" ry="11" style="stroke: #A80036; stroke-width: 1.0;"/><path d="M259.2656,462.9688 Q259.4219,462.75 259.6094,462.6406 Q259.7969,462.5313 260.0156,462.5313 Q260.3906,462.5313 260.625,462.7891 Q260.8594,463.0469 260.8594,463.6563 L260.8594,465.1094 Q260.8594,465.7188 260.625,465.9844 Q260.3906,466.25 260.0156,466.25 Q259.6719,466.25 259.4688,466.0469 Q259.2656,465.8594 259.1563,465.3438 Q259.1094,464.9844 258.9219,464.7969 Q258.5938,464.4219 257.9844,464.2031 Q257.375,463.9844 256.75,463.9844 Q255.9844,463.9844 255.3516,464.3125 Q254.7188,464.6406 254.2266,465.3906 Q253.7344,466.1406 253.7344,467.1719 L253.7344,468.2656 Q253.7344,469.5 254.625,470.3203 Q255.5156,471.1406 257.1094,471.1406 Q258.0469,471.1406 258.7031,470.8906 Q259.0938,470.7344 259.5156,470.2969 Q259.7813,470.0313 259.9297,469.9531 Q260.0781,469.875 260.2813,469.875 Q260.6094,469.875 260.8672,470.1328 Q261.125,470.3906 261.125,470.7344 Q261.125,471.0781 260.7813,471.4844 Q260.2813,472.0625 259.4844,472.3906 Q258.4063,472.8438 257.1094,472.8438 Q255.5938,472.8438 254.3906,472.2188 Q253.4063,471.7188 252.7188,470.6484 Q252.0313,469.5781 252.0313,468.2969 L252.0313,467.1406 Q252.0313,465.8125 252.6484,464.6641 Q253.2656,463.5156 254.3594,462.8984 Q255.4531,462.2813 256.6875,462.2813 Q257.4219,462.2813 258.0703,462.4453 Q258.7188,462.6094 259.2656,462.9688 Z "/><text fill="#000000" font-family="sans-serif" font-size="14" font-weight="bold" lengthAdjust="spacingAndGlyphs" textLength="112" x="281" y="466.5332">GameBoardMap</text><text fill="#000000" font-family="sans-serif" font-size="10" lengthAdjust="spacingAndGlyphs" textLength="133" x="270.5" y="479.9902">soen6441riskgame.singleton</text></a><!--class soen6441riskgame.singleton.GameBoardPlaying--><a target="_parent" xlink:actuate="onRequest" xlink:href="../../soen6441riskgame/singleton/GameBoardPlaying.html" xlink:show="new" xlink:title="soen6441riskgame.singleton.GameBoardPlaying" xlink:type="simple"><rect fill="#FEFECE" filter="url(#fq03qoyr7nqgb)" height="40.1875" id="soen6441riskgame.singleton.GameBoardPlaying" style="stroke: #A80036; stroke-width: 1.5;" width="165" x="441.5" y="447"/><ellipse cx="456.5" cy="467.0938" fill="#ADD1B2" rx="11" ry="11" style="stroke: #A80036; stroke-width: 1.0;"/><path d="M459.2656,462.9688 Q459.4219,462.75 459.6094,462.6406 Q459.7969,462.5313 460.0156,462.5313 Q460.3906,462.5313 460.625,462.7891 Q460.8594,463.0469 460.8594,463.6563 L460.8594,465.1094 Q460.8594,465.7188 460.625,465.9844 Q460.3906,466.25 460.0156,466.25 Q459.6719,466.25 459.4688,466.0469 Q459.2656,465.8594 459.1563,465.3438 Q459.1094,464.9844 458.9219,464.7969 Q458.5938,464.4219 457.9844,464.2031 Q457.375,463.9844 456.75,463.9844 Q455.9844,463.9844 455.3516,464.3125 Q454.7188,464.6406 454.2266,465.3906 Q453.7344,466.1406 453.7344,467.1719 L453.7344,468.2656 Q453.7344,469.5 454.625,470.3203 Q455.5156,471.1406 457.1094,471.1406 Q458.0469,471.1406 458.7031,470.8906 Q459.0938,470.7344 459.5156,470.2969 Q459.7813,470.0313 459.9297,469.9531 Q460.0781,469.875 460.2813,469.875 Q460.6094,469.875 460.8672,470.1328 Q461.125,470.3906 461.125,470.7344 Q461.125,471.0781 460.7813,471.4844 Q460.2813,472.0625 459.4844,472.3906 Q458.4063,472.8438 457.1094,472.8438 Q455.5938,472.8438 454.3906,472.2188 Q453.4063,471.7188 452.7188,470.6484 Q452.0313,469.5781 452.0313,468.2969 L452.0313,467.1406 Q452.0313,465.8125 452.6484,464.6641 Q453.2656,463.5156 454.3594,462.8984 Q455.4531,462.2813 456.6875,462.2813 Q457.4219,462.2813 458.0703,462.4453 Q458.7188,462.6094 459.2656,462.9688 Z "/><text fill="#000000" font-family="sans-serif" font-size="14" font-weight="bold" lengthAdjust="spacingAndGlyphs" textLength="132" x="471" y="466.5332">GameBoardPlaying</text><text fill="#000000" font-family="sans-serif" font-size="10" lengthAdjust="spacingAndGlyphs" textLength="133" x="470.5" y="479.9902">soen6441riskgame.singleton</text></a><!--class soen6441riskgame.views.ExchangeCardView--><a target="_parent" xlink:actuate="onRequest" xlink:href="../../soen6441riskgame/views/ExchangeCardView.html" xlink:show="new" xlink:title="soen6441riskgame.views.ExchangeCardView" xlink:type="simple"><rect fill="#FFFFFF" filter="url(#fq03qoyr7nqgb)" height="40.1875" id="soen6441riskgame.views.ExchangeCardView" style="stroke: #A80036; stroke-width: 1.5;" width="167" x="641.5" y="447"/><rect fill="#FFFFFF" height="40.1875" style="stroke: #A80036; stroke-width: 1.5;" width="167" x="641.5" y="447"/><ellipse cx="656.5" cy="467.0938" fill="#ADD1B2" rx="11" ry="11" style="stroke: #A80036; stroke-width: 1.0;"/><path d="M659.2656,462.9688 Q659.4219,462.75 659.6094,462.6406 Q659.7969,462.5313 660.0156,462.5313 Q660.3906,462.5313 660.625,462.7891 Q660.8594,463.0469 660.8594,463.6563 L660.8594,465.1094 Q660.8594,465.7188 660.625,465.9844 Q660.3906,466.25 660.0156,466.25 Q659.6719,466.25 659.4688,466.0469 Q659.2656,465.8594 659.1563,465.3438 Q659.1094,464.9844 658.9219,464.7969 Q658.5938,464.4219 657.9844,464.2031 Q657.375,463.9844 656.75,463.9844 Q655.9844,463.9844 655.3516,464.3125 Q654.7188,464.6406 654.2266,465.3906 Q653.7344,466.1406 653.7344,467.1719 L653.7344,468.2656 Q653.7344,469.5 654.625,470.3203 Q655.5156,471.1406 657.1094,471.1406 Q658.0469,471.1406 658.7031,470.8906 Q659.0938,470.7344 659.5156,470.2969 Q659.7813,470.0313 659.9297,469.9531 Q660.0781,469.875 660.2813,469.875 Q660.6094,469.875 660.8672,470.1328 Q661.125,470.3906 661.125,470.7344 Q661.125,471.0781 660.7813,471.4844 Q660.2813,472.0625 659.4844,472.3906 Q658.4063,472.8438 657.1094,472.8438 Q655.5938,472.8438 654.3906,472.2188 Q653.4063,471.7188 652.7188,470.6484 Q652.0313,469.5781 652.0313,468.2969 L652.0313,467.1406 Q652.0313,465.8125 652.6484,464.6641 Q653.2656,463.5156 654.3594,462.8984 Q655.4531,462.2813 656.6875,462.2813 Q657.4219,462.2813 658.0703,462.4453 Q658.7188,462.6094 659.2656,462.9688 Z "/><text fill="#000000" font-family="sans-serif" font-size="14" font-weight="bold" lengthAdjust="spacingAndGlyphs" textLength="135" x="670.5" y="466.5332">ExchangeCardView</text><text fill="#000000" font-family="sans-serif" font-size="10" lengthAdjust="spacingAndGlyphs" textLength="115" x="680.5" y="479.9902">soen6441riskgame.views</text></a><!--class soen6441riskgame.models.Card--><a target="_parent" xlink:actuate="onRequest" xlink:href="../../soen6441riskgame/models/Card.html" xlink:show="new" xlink:title="soen6441riskgame.models.Card" xlink:type="simple"><rect fill="#FFFFFF" filter="url(#fq03qoyr7nqgb)" height="40.1875" id="soen6441riskgame.models.Card" style="stroke: #A80036; stroke-width: 1.5;" width="156" x="844" y="447"/><rect fill="#FFFFFF" height="40.1875" style="stroke: #A80036; stroke-width: 1.5;" width="156" x="844" y="447"/><ellipse cx="859" cy="467.0938" fill="#ADD1B2" rx="11" ry="11" style="stroke: #A80036; stroke-width: 1.0;"/><path d="M861.7656,462.9688 Q861.9219,462.75 862.1094,462.6406 Q862.2969,462.5313 862.5156,462.5313 Q862.8906,462.5313 863.125,462.7891 Q863.3594,463.0469 863.3594,463.6563 L863.3594,465.1094 Q863.3594,465.7188 863.125,465.9844 Q862.8906,466.25 862.5156,466.25 Q862.1719,466.25 861.9688,466.0469 Q861.7656,465.8594 861.6563,465.3438 Q861.6094,464.9844 861.4219,464.7969 Q861.0938,464.4219 860.4844,464.2031 Q859.875,463.9844 859.25,463.9844 Q858.4844,463.9844 857.8516,464.3125 Q857.2188,464.6406 856.7266,465.3906 Q856.2344,466.1406 856.2344,467.1719 L856.2344,468.2656 Q856.2344,469.5 857.125,470.3203 Q858.0156,471.1406 859.6094,471.1406 Q860.5469,471.1406 861.2031,470.8906 Q861.5938,470.7344 862.0156,470.2969 Q862.2813,470.0313 862.4297,469.9531 Q862.5781,469.875 862.7813,469.875 Q863.1094,469.875 863.3672,470.1328 Q863.625,470.3906 863.625,470.7344 Q863.625,471.0781 863.2813,471.4844 Q862.7813,472.0625 861.9844,472.3906 Q860.9063,472.8438 859.6094,472.8438 Q858.0938,472.8438 856.8906,472.2188 Q855.9063,471.7188 855.2188,470.6484 Q854.5313,469.5781 854.5313,468.2969 L854.5313,467.1406 Q854.5313,465.8125 855.1484,464.6641 Q855.7656,463.5156 856.8594,462.8984 Q857.9531,462.2813 859.1875,462.2813 Q859.9219,462.2813 860.5703,462.4453 Q861.2188,462.6094 861.7656,462.9688 Z "/><text fill="#000000" font-family="sans-serif" font-size="14" font-weight="bold" lengthAdjust="spacingAndGlyphs" textLength="33" x="918.5" y="466.5332">Card</text><text fill="#000000" font-family="sans-serif" font-size="10" lengthAdjust="spacingAndGlyphs" textLength="124" x="873" y="479.9902">soen6441riskgame.models</text></a><!--class java.io.PrintStream--><rect fill="#D3D3D3" filter="url(#fq03qoyr7nqgb)" height="40.1875" id="java.io.PrintStream" style="stroke: #A80036; stroke-width: 1.5;" width="114" x="1035" y="447"/><rect fill="#D3D3D3" height="40.1875" style="stroke: #A80036; stroke-width: 1.5;" width="114" x="1035" y="447"/><ellipse cx="1050" cy="467.0938" fill="#ADD1B2" rx="11" ry="11" style="stroke: #A80036; stroke-width: 1.0;"/><path d="M1052.7656,462.9688 Q1052.9219,462.75 1053.1094,462.6406 Q1053.2969,462.5313 1053.5156,462.5313 Q1053.8906,462.5313 1054.125,462.7891 Q1054.3594,463.0469 1054.3594,463.6563 L1054.3594,465.1094 Q1054.3594,465.7188 1054.125,465.9844 Q1053.8906,466.25 1053.5156,466.25 Q1053.1719,466.25 1052.9688,466.0469 Q1052.7656,465.8594 1052.6563,465.3438 Q1052.6094,464.9844 1052.4219,464.7969 Q1052.0938,464.4219 1051.4844,464.2031 Q1050.875,463.9844 1050.25,463.9844 Q1049.4844,463.9844 1048.8516,464.3125 Q1048.2188,464.6406 1047.7266,465.3906 Q1047.2344,466.1406 1047.2344,467.1719 L1047.2344,468.2656 Q1047.2344,469.5 1048.125,470.3203 Q1049.0156,471.1406 1050.6094,471.1406 Q1051.5469,471.1406 1052.2031,470.8906 Q1052.5938,470.7344 1053.0156,470.2969 Q1053.2813,470.0313 1053.4297,469.9531 Q1053.5781,469.875 1053.7813,469.875 Q1054.1094,469.875 1054.3672,470.1328 Q1054.625,470.3906 1054.625,470.7344 Q1054.625,471.0781 1054.2813,471.4844 Q1053.7813,472.0625 1052.9844,472.3906 Q1051.9063,472.8438 1050.6094,472.8438 Q1049.0938,472.8438 1047.8906,472.2188 Q1046.9063,471.7188 1046.2188,470.6484 Q1045.5313,469.5781 1045.5313,468.2969 L1045.5313,467.1406 Q1045.5313,465.8125 1046.1484,464.6641 Q1046.7656,463.5156 1047.8594,462.8984 Q1048.9531,462.2813 1050.1875,462.2813 Q1050.9219,462.2813 1051.5703,462.4453 Q1052.2188,462.6094 1052.7656,462.9688 Z "/><text fill="#000000" font-family="sans-serif" font-size="14" font-weight="bold" lengthAdjust="spacingAndGlyphs" textLength="82" x="1064" y="466.5332">PrintStream</text><text fill="#000000" font-family="sans-serif" font-size="10" lengthAdjust="spacingAndGlyphs" textLength="32" x="1089" y="479.9902">java.io</text><!--class soen6441riskgame.singleton.Resettable--><a target="_parent" xlink:actuate="onRequest" xlink:href="../../soen6441riskgame/singleton/Resettable.html" xlink:show="new" xlink:title="soen6441riskgame.singleton.Resettable" xlink:type="simple"><rect fill="#FEFECE" filter="url(#fq03qoyr7nqgb)" height="40.1875" id="soen6441riskgame.singleton.Resettable" style="stroke: #A80036; stroke-width: 1.5;" width="167" x="1184.5" y="447"/><ellipse cx="1199.5" cy="467.0938" fill="#B4A7E5" rx="11" ry="11" style="stroke: #A80036; stroke-width: 1.0;"/><path d="M1200.4531,463.7344 L1200.4531,470.3906 L1202.1719,470.3906 Q1202.7813,470.3906 1203.0469,470.625 Q1203.3125,470.8594 1203.3125,471.25 Q1203.3125,471.625 1203.0469,471.8594 Q1202.7813,472.0938 1202.1719,472.0938 L1197.0313,472.0938 Q1196.4219,472.0938 1196.1563,471.8594 Q1195.8906,471.625 1195.8906,471.2344 Q1195.8906,470.8594 1196.1563,470.625 Q1196.4219,470.3906 1197.0313,470.3906 L1198.75,470.3906 L1198.75,463.7344 L1197.0313,463.7344 Q1196.4219,463.7344 1196.1563,463.5 Q1195.8906,463.2656 1195.8906,462.875 Q1195.8906,462.5 1196.1563,462.2656 Q1196.4219,462.0313 1197.0313,462.0313 L1202.1719,462.0313 Q1202.7813,462.0313 1203.0469,462.2656 Q1203.3125,462.5 1203.3125,462.875 Q1203.3125,463.2656 1203.0469,463.5 Q1202.7813,463.7344 1202.1719,463.7344 L1200.4531,463.7344 Z "/><text fill="#000000" font-family="sans-serif" font-size="14" font-style="italic" font-weight="bold" lengthAdjust="spacingAndGlyphs" textLength="72" x="1245" y="466.5332">Resettable</text><text fill="#000000" font-family="sans-serif" font-size="10" font-style="italic" lengthAdjust="spacingAndGlyphs" textLength="135" x="1213.5" y="479.9902">soen6441riskgame.singleton</text></a><!--class soen6441riskgame.enums.CardType--><a target="_parent" xlink:actuate="onRequest" xlink:href="../../soen6441riskgame/enums/CardType.html" xlink:show="new" xlink:title="soen6441riskgame.enums.CardType" xlink:type="simple"><rect fill="#FFFFFF" filter="url(#fq03qoyr7nqgb)" height="40.1875" id="soen6441riskgame.enums.CardType" style="stroke: #A80036; stroke-width: 1.5;" width="153" x="1386.5" y="447"/><rect fill="#FFFFFF" height="40.1875" style="stroke: #A80036; stroke-width: 1.5;" width="153" x="1386.5" y="447"/><ellipse cx="1401.5" cy="467.0938" fill="#EB937F" rx="11" ry="11" style="stroke: #A80036; stroke-width: 1.0;"/><path d="M1400.3594,467.8906 L1400.3594,470.3906 L1404.6875,470.3906 L1404.6875,469.4688 Q1404.6875,468.8594 1404.9297,468.5938 Q1405.1719,468.3281 1405.5469,468.3281 Q1405.9219,468.3281 1406.1563,468.5938 Q1406.3906,468.8594 1406.3906,469.4688 L1406.3906,472.0938 L1398.3906,472.0938 Q1397.7656,472.0938 1397.5078,471.8594 Q1397.25,471.625 1397.25,471.2344 Q1397.25,470.8594 1397.5156,470.625 Q1397.7813,470.3906 1398.3906,470.3906 L1398.6563,470.3906 L1398.6563,463.7344 L1398.3906,463.7344 Q1397.7656,463.7344 1397.5078,463.5 Q1397.25,463.2656 1397.25,462.875 Q1397.25,462.5 1397.5078,462.2656 Q1397.7656,462.0313 1398.3906,462.0313 L1406.0156,462.0313 L1406.0156,464.625 Q1406.0156,465.2344 1405.7891,465.4922 Q1405.5625,465.75 1405.1719,465.75 Q1404.7969,465.75 1404.5625,465.4922 Q1404.3281,465.2344 1404.3281,464.625 L1404.3281,463.7344 L1400.3594,463.7344 L1400.3594,466.1875 L1401.8438,466.1875 Q1401.8438,465.5313 1401.9688,465.3438 Q1402.2344,464.9375 1402.7031,464.9375 Q1403.0781,464.9375 1403.3125,465.1953 Q1403.5469,465.4531 1403.5469,466.0625 L1403.5469,468.0313 Q1403.5469,468.5781 1403.4219,468.7656 Q1403.1563,469.1563 1402.7031,469.1563 Q1402.2344,469.1563 1401.9688,468.75 Q1401.8438,468.5625 1401.8438,467.8906 L1400.3594,467.8906 Z "/><text fill="#000000" font-family="sans-serif" font-size="14" font-weight="bold" lengthAdjust="spacingAndGlyphs" textLength="66" x="1443" y="466.5332">CardType</text><text fill="#000000" font-family="sans-serif" font-size="10" lengthAdjust="spacingAndGlyphs" textLength="121" x="1415.5" y="479.9902">soen6441riskgame.enums</text></a><!--link soen6441riskgame.singleton.GameBoard to soen6441riskgame.singleton.GameBoard--><path d="M823,25.966 C823,14.834 823,8 823,8 C823,8 988.5,8 988.5,8 C988.5,8 988.5,417 988.5,417 C988.5,417 932.667,417 932.667,417 C932.667,417 932.667,392.2869 932.667,392.2869 " fill="none" id="soen6441riskgame.singleton.GameBoard-soen6441riskgame.singleton.GameBoard" style="stroke: #A80036; stroke-width: 1.0;"/><polygon fill="#A80036" points="932.667,387.2869,928.667,396.2869,932.667,392.2869,936.667,396.2869,932.667,387.2869" style="stroke: #A80036; stroke-width: 1.0;"/><text fill="#000000" font-family="sans-serif" font-size="13" lengthAdjust="spacingAndGlyphs" textLength="49" x="886.9938" y="408.1716">instance</text><!--link soen6441riskgame.singleton.GameBoard to soen6441riskgame.singleton.GameBoardPlayer--><path d="M668.736,117 C462.888,117 124,117 124,117 C124,117 124,441.9254 124,441.9254 " fill="none" id="soen6441riskgame.singleton.GameBoard-soen6441riskgame.singleton.GameBoardPlayer" style="stroke: #A80036; stroke-width: 1.0;"/><polygon fill="#A80036" points="124,446.9254,128,437.9254,124,441.9254,120,437.9254,124,446.9254" style="stroke: #A80036; stroke-width: 1.0;"/><text fill="#000000" font-family="sans-serif" font-size="13" lengthAdjust="spacingAndGlyphs" textLength="103" x="5.8719" y="436.1977">gameBoardPlayer</text><!--link soen6441riskgame.singleton.GameBoard to soen6441riskgame.singleton.GameBoardMap--><path d="M668.871,207 C522.286,207 324,207 324,207 C324,207 324,441.5982 324,441.5982 " fill="none" id="soen6441riskgame.singleton.GameBoard-soen6441riskgame.singleton.GameBoardMap" style="stroke: #A80036; stroke-width: 1.0;"/><polygon fill="#A80036" points="324,446.5982,328,437.5982,324,441.5982,320,437.5982,324,446.5982" style="stroke: #A80036; stroke-width: 1.0;"/><text fill="#000000" font-family="sans-serif" font-size="13" lengthAdjust="spacingAndGlyphs" textLength="91" x="220.2031" y="436.1284">gameBoardMap</text><!--link soen6441riskgame.singleton.GameBoard to soen6441riskgame.singleton.GameBoardPlaying--><path d="M668.683,297 C595.573,297 524,297 524,297 C524,297 524,441.8312 524,441.8312 " fill="none" id="soen6441riskgame.singleton.GameBoard-soen6441riskgame.singleton.GameBoardPlaying" style="stroke: #A80036; stroke-width: 1.0;"/><polygon fill="#A80036" points="524,446.8312,528,437.8312,524,441.8312,520,437.8312,524,446.8312" style="stroke: #A80036; stroke-width: 1.0;"/><text fill="#000000" font-family="sans-serif" font-size="13" lengthAdjust="spacingAndGlyphs" textLength="109" x="398.9906" y="436.0758">gameBoardPlaying</text><!--link soen6441riskgame.singleton.GameBoard to soen6441riskgame.views.ExchangeCardView--><path d="M738.75,387.0711 C738.75,387.0711 738.75,441.7225 738.75,441.7225 " fill="none" id="soen6441riskgame.singleton.GameBoard-soen6441riskgame.views.ExchangeCardView" style="stroke: #A80036; stroke-width: 1.0;"/><polygon fill="#A80036" points="738.75,446.7225,742.75,437.7225,738.75,441.7225,734.75,437.7225,738.75,446.7225" style="stroke: #A80036; stroke-width: 1.0;"/><text fill="#000000" font-family="sans-serif" font-size="13" lengthAdjust="spacingAndGlyphs" textLength="111" x="616.0078" y="436.2876">exchangeCardView</text><!--link soen6441riskgame.singleton.GameBoard to soen6441riskgame.models.Card--><path d="M888.333,387.0711 C888.333,387.0711 888.333,441.7225 888.333,441.7225 " fill="none" id="soen6441riskgame.singleton.GameBoard-soen6441riskgame.models.Card" style="stroke: #A80036; stroke-width: 1.0;"/><polygon fill="#A80036" points="888.333,446.7225,892.333,437.7225,888.333,441.7225,884.333,437.7225,888.333,446.7225" style="stroke: #A80036; stroke-width: 1.0;"/><text fill="#000000" font-family="sans-serif" font-size="13" lengthAdjust="spacingAndGlyphs" textLength="32" x="842.3642" y="436.2876">cards</text><!--link soen6441riskgame.singleton.GameBoard to java.io.PrintStream--><path d="M977.14,297 C1037.24,297 1092,297 1092,297 C1092,297 1092,441.8312 1092,441.8312 " fill="none" id="soen6441riskgame.singleton.GameBoard-java.io.PrintStream" style="stroke: #A80036; stroke-width: 1.0;"/><polygon fill="#A80036" points="1092,446.8312,1096,437.8312,1092,441.8312,1088,437.8312,1092,446.8312" style="stroke: #A80036; stroke-width: 1.0;"/><text fill="#000000" font-family="sans-serif" font-size="13" lengthAdjust="spacingAndGlyphs" textLength="119" x="1005.4594" y="436.0758">standardPrintStream</text><!--link soen6441riskgame.singleton.GameBoard to soen6441riskgame.singleton.Resettable--><path d="M977.079,207 C1105.65,207 1268,207 1268,207 C1268,207 1268,426.5982 1268,426.5982 " fill="none" id="soen6441riskgame.singleton.GameBoard-soen6441riskgame.singleton.Resettable" style="stroke: #A80036; stroke-width: 1.0; stroke-dasharray: 7.0,7.0;"/><polygon fill="none" points="1275,426.5983,1268,446.5982,1261,426.5982,1275,426.5983" style="stroke: #A80036; stroke-width: 1.0;"/><!--link soen6441riskgame.singleton.GameBoard to soen6441riskgame.enums.CardType--><path d="M977.11,117 C1166.49,117 1463,117 1463,117 C1463,117 1463,441.9254 1463,441.9254 " fill="none" id="soen6441riskgame.singleton.GameBoard-soen6441riskgame.enums.CardType" style="stroke: #A80036; stroke-width: 1.0; stroke-dasharray: 7.0,7.0;"/><polygon fill="#A80036" points="1463,446.9254,1467,437.9254,1463,441.9254,1459,437.9254,1463,446.9254" style="stroke: #A80036; stroke-width: 1.0;"/><!--
@startuml

skinparam svgLinkTarget _parent
skinparam linetype ortho
set namespaceSeparator none
class "<b><size:14>GameBoard</b>\n<size:10>soen6441riskgame.singleton" as soen6441riskgame.singleton.GameBoard  [[../../soen6441riskgame/singleton/GameBoard.html{soen6441riskgame.singleton.GameBoard}]] {
+PrintStream standardPrintStream
{static} -int NUMBER_OF_CARDS
{static} -GameBoard instance
-GameBoardPlayer gameBoardPlayer
-GameBoardMap gameBoardMap
-GameBoardPlaying gameBoardPlaying
-ExchangeCardView exchangeCardView
-Card cards
+GameBoard()
+void initCards()
+Card getSpecificCardForTest(CardType cardType)
+Card getCardsForSave()
+void loadCardFromSave(Card cards)
+void loadGameBoardPlaying(GameBoardPlaying serialized)
+Card getRandomAvailableCard()
+ExchangeCardView getExchangeCardView()
+GameBoardPlayer getGameBoardPlayer()
+GameBoardMap getGameBoardMap()
+GameBoardPlaying getGameBoardPlaying()
{static} +void setTestingInstance(GameBoard newTestingInstance)
{static} +GameBoard getInstance()
+void reset()
}


soen6441riskgame.singleton.GameBoard - ->  "instance" soen6441riskgame.singleton.GameBoard

class "<b><size:14>GameBoardPlayer</b>\n<size:10>soen6441riskgame.singleton" as soen6441riskgame.singleton.GameBoardPlayer  [[../../soen6441riskgame/singleton/GameBoardPlayer.html{soen6441riskgame.singleton.GameBoardPlayer}]] {
}

hide soen6441riskgame.singleton.GameBoardPlayer fields
hide soen6441riskgame.singleton.GameBoardPlayer methods

soen6441riskgame.singleton.GameBoard - ->  "gameBoardPlayer" soen6441riskgame.singleton.GameBoardPlayer

class "<b><size:14>GameBoardMap</b>\n<size:10>soen6441riskgame.singleton" as soen6441riskgame.singleton.GameBoardMap  [[../../soen6441riskgame/singleton/GameBoardMap.html{soen6441riskgame.singleton.GameBoardMap}]] {
}

hide soen6441riskgame.singleton.GameBoardMap fields
hide soen6441riskgame.singleton.GameBoardMap methods

soen6441riskgame.singleton.GameBoard - ->  "gameBoardMap" soen6441riskgame.singleton.GameBoardMap

class "<b><size:14>GameBoardPlaying</b>\n<size:10>soen6441riskgame.singleton" as soen6441riskgame.singleton.GameBoardPlaying  [[../../soen6441riskgame/singleton/GameBoardPlaying.html{soen6441riskgame.singleton.GameBoardPlaying}]] {
}

hide soen6441riskgame.singleton.GameBoardPlaying fields
hide soen6441riskgame.singleton.GameBoardPlaying methods

soen6441riskgame.singleton.GameBoard - ->  "gameBoardPlaying" soen6441riskgame.singleton.GameBoardPlaying

class "<b><size:14>ExchangeCardView</b>\n<size:10>soen6441riskgame.views" as soen6441riskgame.views.ExchangeCardView  [[../../soen6441riskgame/views/ExchangeCardView.html{soen6441riskgame.views.ExchangeCardView}]] #white {
}

hide soen6441riskgame.views.ExchangeCardView fields
hide soen6441riskgame.views.ExchangeCardView methods

soen6441riskgame.singleton.GameBoard - ->  "exchangeCardView" soen6441riskgame.views.ExchangeCardView

class "<b><size:14>Card</b>\n<size:10>soen6441riskgame.models" as soen6441riskgame.models.Card  [[../../soen6441riskgame/models/Card.html{soen6441riskgame.models.Card}]] #white {
}

hide soen6441riskgame.models.Card fields
hide soen6441riskgame.models.Card methods

soen6441riskgame.singleton.GameBoard - ->  "cards" soen6441riskgame.models.Card

class "<b><size:14>PrintStream</b>\n<size:10>java.io" as java.io.PrintStream  #lightgrey {
}

hide java.io.PrintStream fields
hide java.io.PrintStream methods

soen6441riskgame.singleton.GameBoard - ->  "standardPrintStream" java.io.PrintStream

interface "<b><size:14>Resettable</b>\n<size:10>soen6441riskgame.singleton" as soen6441riskgame.singleton.Resettable  [[../../soen6441riskgame/singleton/Resettable.html{soen6441riskgame.singleton.Resettable}]] {
}

hide soen6441riskgame.singleton.Resettable fields
hide soen6441riskgame.singleton.Resettable methods

soen6441riskgame.singleton.GameBoard ..|> soen6441riskgame.singleton.Resettable

enum "<b><size:14>CardType</b>\n<size:10>soen6441riskgame.enums" as soen6441riskgame.enums.CardType  [[../../soen6441riskgame/enums/CardType.html{soen6441riskgame.enums.CardType}]] #white {
}

hide soen6441riskgame.enums.CardType fields
hide soen6441riskgame.enums.CardType methods

soen6441riskgame.singleton.GameBoard ..> soen6441riskgame.enums.CardType


@enduml

PlantUML version 1.2017.15(Mon Jul 03 12:45:34 EDT 2017)
(GPL source distribution)
Java Runtime: Java(TM) SE Runtime Environment
JVM: Java HotSpot(TM) 64-Bit Server VM
Java Version: 1.8.0_231-b11
Operating System: Windows 10
OS Version: 10.0
Default Encoding: Cp1252
Language: en
Country: US
--></g></svg>