<?xml version="1.0" encoding="UTF-8" standalone="no"?><svg xmlns="http://www.w3.org/2000/svg" xmlns:xlink="http://www.w3.org/1999/xlink" contentScriptType="application/ecmascript" contentStyleType="text/css" height="607px" preserveAspectRatio="none" style="width:666px;height:607px;" version="1.1" viewBox="0 0 666 607" width="666px" zoomAndPan="magnify"><defs><filter height="300%" id="f1208ksupky4v9" width="300%" x="-1" y="-1"><feGaussianBlur result="blurOut" stdDeviation="2.0"/><feColorMatrix in="blurOut" result="blurOut2" type="matrix" values="0 0 0 0 0 0 0 0 0 0 0 0 0 0 0 0 0 0 .4 0"/><feOffset dx="4.0" dy="4.0" in="blurOut2" result="blurOut3"/><feBlend in="SourceGraphic" in2="blurOut3" mode="normal"/></filter></defs><g><!--class soen6441riskgame.singleton.GameBoardPlaying--><a target="_parent" xlink:actuate="onRequest" xlink:href="../../soen6441riskgame/singleton/GameBoardPlaying.html" xlink:show="new" xlink:title="soen6441riskgame.singleton.GameBoardPlaying" xlink:type="simple"><rect fill="#FEFECE" filter="url(#f1208ksupky4v9)" height="388.25" id="soen6441riskgame.singleton.GameBoardPlaying" style="stroke: #A80036; stroke-width: 1.5;" width="353" x="174" y="108"/><ellipse cx="279.75" cy="128.0938" fill="#ADD1B2" rx="11" ry="11" style="stroke: #A80036; stroke-width: 1.0;"/><path d="M282.5156,123.9688 Q282.6719,123.75 282.8594,123.6406 Q283.0469,123.5313 283.2656,123.5313 Q283.6406,123.5313 283.875,123.7891 Q284.1094,124.0469 284.1094,124.6563 L284.1094,126.1094 Q284.1094,126.7188 283.875,126.9844 Q283.6406,127.25 283.2656,127.25 Q282.9219,127.25 282.7188,127.0469 Q282.5156,126.8594 282.4063,126.3438 Q282.3594,125.9844 282.1719,125.7969 Q281.8438,125.4219 281.2344,125.2031 Q280.625,124.9844 280,124.9844 Q279.2344,124.9844 278.6016,125.3125 Q277.9688,125.6406 277.4766,126.3906 Q276.9844,127.1406 276.9844,128.1719 L276.9844,129.2656 Q276.9844,130.5 277.875,131.3203 Q278.7656,132.1406 280.3594,132.1406 Q281.2969,132.1406 281.9531,131.8906 Q282.3438,131.7344 282.7656,131.2969 Q283.0313,131.0313 283.1797,130.9531 Q283.3281,130.875 283.5313,130.875 Q283.8594,130.875 284.1172,131.1328 Q284.375,131.3906 284.375,131.7344 Q284.375,132.0781 284.0313,132.4844 Q283.5313,133.0625 282.7344,133.3906 Q281.6563,133.8438 280.3594,133.8438 Q278.8438,133.8438 277.6406,133.2188 Q276.6563,132.7188 275.9688,131.6484 Q275.2813,130.5781 275.2813,129.2969 L275.2813,128.1406 Q275.2813,126.8125 275.8984,125.6641 Q276.5156,124.5156 277.6094,123.8984 Q278.7031,123.2813 279.9375,123.2813 Q280.6719,123.2813 281.3203,123.4453 Q281.9688,123.6094 282.5156,123.9688 Z "/><text fill="#000000" font-family="sans-serif" font-size="14" font-weight="bold" lengthAdjust="spacingAndGlyphs" textLength="132" x="300.75" y="127.5332">GameBoardPlaying</text><text fill="#000000" font-family="sans-serif" font-size="10" lengthAdjust="spacingAndGlyphs" textLength="133" x="300.25" y="140.9902">soen6441riskgame.singleton</text><line style="stroke: #A80036; stroke-width: 1.5;" x1="175" x2="526" y1="148.1875" y2="148.1875"/><rect fill="none" height="6" style="stroke: #C82930; stroke-width: 1.0;" width="6" x="182" y="157.6055"/><text fill="#000000" font-family="sans-serif" font-size="11" lengthAdjust="spacingAndGlyphs" textLength="95" x="194" y="163.6064">int attackerNumDice</text><rect fill="none" height="6" style="stroke: #C82930; stroke-width: 1.0;" width="6" x="182" y="171.4414"/><text fill="#000000" font-family="sans-serif" font-size="11" lengthAdjust="spacingAndGlyphs" textLength="100" x="194" y="177.4424">int defenderNumDice</text><rect fill="none" height="6" style="stroke: #C82930; stroke-width: 1.0;" width="6" x="182" y="185.2773"/><text fill="#000000" font-family="sans-serif" font-size="11" lengthAdjust="spacingAndGlyphs" textLength="122" x="194" y="191.2783">Country attackingCountry</text><rect fill="none" height="6" style="stroke: #C82930; stroke-width: 1.0;" width="6" x="182" y="199.1133"/><text fill="#000000" font-family="sans-serif" font-size="11" lengthAdjust="spacingAndGlyphs" textLength="139" x="194" y="205.1143">String attackingCountryName</text><rect fill="none" height="6" style="stroke: #C82930; stroke-width: 1.0;" width="6" x="182" y="212.9492"/><text fill="#000000" font-family="sans-serif" font-size="11" lengthAdjust="spacingAndGlyphs" textLength="127" x="194" y="218.9502">Country defendingCountry</text><rect fill="none" height="6" style="stroke: #C82930; stroke-width: 1.0;" width="6" x="182" y="226.7852"/><text fill="#000000" font-family="sans-serif" font-size="11" lengthAdjust="spacingAndGlyphs" textLength="140" x="194" y="232.7861">String defendingCountyName</text><rect fill="none" height="6" style="stroke: #C82930; stroke-width: 1.0;" width="6" x="182" y="240.6211"/><text fill="#000000" font-family="sans-serif" font-size="11" lengthAdjust="spacingAndGlyphs" textLength="86" x="194" y="246.6221">boolean alloutFlag</text><rect fill="none" height="6" style="stroke: #C82930; stroke-width: 1.0;" width="6" x="182" y="254.457"/><text fill="#000000" font-family="sans-serif" font-size="11" lengthAdjust="spacingAndGlyphs" textLength="160" x="194" y="260.458">boolean attackMoveCmdRequired</text><line style="stroke: #A80036; stroke-width: 1.5;" x1="175" x2="526" y1="266.875" y2="266.875"/><ellipse cx="185" cy="279.293" fill="#84BE84" rx="3" ry="3" style="stroke: #038048; stroke-width: 1.0;"/><text fill="#000000" font-family="sans-serif" font-size="11" lengthAdjust="spacingAndGlyphs" textLength="99" x="194" y="282.2939">GameBoardPlaying()</text><ellipse cx="185" cy="293.1289" fill="#84BE84" rx="3" ry="3" style="stroke: #038048; stroke-width: 1.0;"/><text fill="#000000" font-family="sans-serif" font-size="11" lengthAdjust="spacingAndGlyphs" textLength="120" x="194" y="296.1299">int getAttackerNumDice()</text><ellipse cx="185" cy="306.9648" fill="#84BE84" rx="3" ry="3" style="stroke: #038048; stroke-width: 1.0;"/><text fill="#000000" font-family="sans-serif" font-size="11" lengthAdjust="spacingAndGlyphs" textLength="224" x="194" y="309.9658">void setAttackerNumDice(int attackerNumDice)</text><ellipse cx="185" cy="320.8008" fill="#84BE84" rx="3" ry="3" style="stroke: #038048; stroke-width: 1.0;"/><text fill="#000000" font-family="sans-serif" font-size="11" lengthAdjust="spacingAndGlyphs" textLength="124" x="194" y="323.8018">int getDefenderNumDice()</text><ellipse cx="185" cy="334.6367" fill="#84BE84" rx="3" ry="3" style="stroke: #038048; stroke-width: 1.0;"/><text fill="#000000" font-family="sans-serif" font-size="11" lengthAdjust="spacingAndGlyphs" textLength="233" x="194" y="337.6377">void setDefenderNumDice(int defenderNumDice)</text><ellipse cx="185" cy="348.4727" fill="#84BE84" rx="3" ry="3" style="stroke: #038048; stroke-width: 1.0;"/><text fill="#000000" font-family="sans-serif" font-size="11" lengthAdjust="spacingAndGlyphs" textLength="147" x="194" y="351.4736">Country getAttackingCountry()</text><ellipse cx="185" cy="362.3086" fill="#84BE84" rx="3" ry="3" style="stroke: #038048; stroke-width: 1.0;"/><text fill="#000000" font-family="sans-serif" font-size="11" lengthAdjust="spacingAndGlyphs" textLength="251" x="194" y="365.3096">void setAttackingCountry(Country attackingCountry)</text><ellipse cx="185" cy="376.1445" fill="#84BE84" rx="3" ry="3" style="stroke: #038048; stroke-width: 1.0;"/><text fill="#000000" font-family="sans-serif" font-size="11" lengthAdjust="spacingAndGlyphs" textLength="151" x="194" y="379.1455">Country getDefendingCountry()</text><ellipse cx="185" cy="389.9805" fill="#84BE84" rx="3" ry="3" style="stroke: #038048; stroke-width: 1.0;"/><text fill="#000000" font-family="sans-serif" font-size="11" lengthAdjust="spacingAndGlyphs" textLength="260" x="194" y="392.9814">void setDefendingCountry(Country defendingCountry)</text><ellipse cx="185" cy="403.8164" fill="#84BE84" rx="3" ry="3" style="stroke: #038048; stroke-width: 1.0;"/><text fill="#000000" font-family="sans-serif" font-size="11" lengthAdjust="spacingAndGlyphs" textLength="104" x="194" y="406.8174">boolean isAlloutFlag()</text><ellipse cx="185" cy="417.6523" fill="#84BE84" rx="3" ry="3" style="stroke: #038048; stroke-width: 1.0;"/><text fill="#000000" font-family="sans-serif" font-size="11" lengthAdjust="spacingAndGlyphs" textLength="179" x="194" y="420.6533">void setAlloutFlag(boolean alloutFlag)</text><ellipse cx="185" cy="431.4883" fill="#84BE84" rx="3" ry="3" style="stroke: #038048; stroke-width: 1.0;"/><text fill="#000000" font-family="sans-serif" font-size="11" lengthAdjust="spacingAndGlyphs" textLength="178" x="194" y="434.4893">boolean isAttackMoveCmdRequired()</text><ellipse cx="185" cy="445.3242" fill="#84BE84" rx="3" ry="3" style="stroke: #038048; stroke-width: 1.0;"/><text fill="#000000" font-family="sans-serif" font-size="11" lengthAdjust="spacingAndGlyphs" textLength="327" x="194" y="448.3252">void setAttackMoveCmdRequired(boolean attackMoveCmdRequired)</text><ellipse cx="185" cy="459.1602" fill="#84BE84" rx="3" ry="3" style="stroke: #038048; stroke-width: 1.0;"/><text fill="#000000" font-family="sans-serif" font-size="11" lengthAdjust="spacingAndGlyphs" textLength="164" x="194" y="462.1611">String getAttackingCountryName()</text><ellipse cx="185" cy="472.9961" fill="#84BE84" rx="3" ry="3" style="stroke: #038048; stroke-width: 1.0;"/><text fill="#000000" font-family="sans-serif" font-size="11" lengthAdjust="spacingAndGlyphs" textLength="164" x="194" y="475.9971">String getDefendingCountyName()</text><ellipse cx="185" cy="486.832" fill="#84BE84" rx="3" ry="3" style="stroke: #038048; stroke-width: 1.0;"/><text fill="#000000" font-family="sans-serif" font-size="11" lengthAdjust="spacingAndGlyphs" textLength="56" x="194" y="489.833">void reset()</text></a><!--class soen6441riskgame.models.serializers.SerializableGame--><a target="_parent" xlink:actuate="onRequest" xlink:href="../../soen6441riskgame/models/serializers/SerializableGame.html" xlink:show="new" xlink:title="soen6441riskgame.models.serializers.SerializableGame" xlink:type="simple"><rect fill="#FFFFFF" filter="url(#f1208ksupky4v9)" height="40.1875" id="soen6441riskgame.models.serializers.SerializableGame" style="stroke: #A80036; stroke-width: 1.5;" width="205" x="6" y="8"/><rect fill="#FFFFFF" height="40.1875" style="stroke: #A80036; stroke-width: 1.5;" width="205" x="6" y="8"/><ellipse cx="21" cy="28.0938" fill="#ADD1B2" rx="11" ry="11" style="stroke: #A80036; stroke-width: 1.0;"/><path d="M23.7656,23.9688 Q23.9219,23.75 24.1094,23.6406 Q24.2969,23.5313 24.5156,23.5313 Q24.8906,23.5313 25.125,23.7891 Q25.3594,24.0469 25.3594,24.6563 L25.3594,26.1094 Q25.3594,26.7188 25.125,26.9844 Q24.8906,27.25 24.5156,27.25 Q24.1719,27.25 23.9688,27.0469 Q23.7656,26.8594 23.6563,26.3438 Q23.6094,25.9844 23.4219,25.7969 Q23.0938,25.4219 22.4844,25.2031 Q21.875,24.9844 21.25,24.9844 Q20.4844,24.9844 19.8516,25.3125 Q19.2188,25.6406 18.7266,26.3906 Q18.2344,27.1406 18.2344,28.1719 L18.2344,29.2656 Q18.2344,30.5 19.125,31.3203 Q20.0156,32.1406 21.6094,32.1406 Q22.5469,32.1406 23.2031,31.8906 Q23.5938,31.7344 24.0156,31.2969 Q24.2813,31.0313 24.4297,30.9531 Q24.5781,30.875 24.7813,30.875 Q25.1094,30.875 25.3672,31.1328 Q25.625,31.3906 25.625,31.7344 Q25.625,32.0781 25.2813,32.4844 Q24.7813,33.0625 23.9844,33.3906 Q22.9063,33.8438 21.6094,33.8438 Q20.0938,33.8438 18.8906,33.2188 Q17.9063,32.7188 17.2188,31.6484 Q16.5313,30.5781 16.5313,29.2969 L16.5313,28.1406 Q16.5313,26.8125 17.1484,25.6641 Q17.7656,24.5156 18.8594,23.8984 Q19.9531,23.2813 21.1875,23.2813 Q21.9219,23.2813 22.5703,23.4453 Q23.2188,23.6094 23.7656,23.9688 Z "/><text fill="#000000" font-family="sans-serif" font-size="14" font-weight="bold" lengthAdjust="spacingAndGlyphs" textLength="121" x="61" y="27.5332">SerializableGame</text><text fill="#000000" font-family="sans-serif" font-size="10" lengthAdjust="spacingAndGlyphs" textLength="173" x="35" y="40.9902">soen6441riskgame.models.serializers</text></a><!--class soen6441riskgame.models.serializers.SerializableGame.Builder--><a target="_parent" xlink:actuate="onRequest" xlink:href="../../soen6441riskgame/models/serializers/SerializableGame.Builder.html" xlink:show="new" xlink:title="soen6441riskgame.models.serializers.SerializableGame.Builder" xlink:type="simple"><rect fill="#FFFFFF" filter="url(#f1208ksupky4v9)" height="40.1875" id="soen6441riskgame.models.serializers.SerializableGame.Builder" style="stroke: #A80036; stroke-width: 1.5;" width="208" x="246.5" y="8"/><rect fill="#FFFFFF" height="40.1875" style="stroke: #A80036; stroke-width: 1.5;" width="208" x="246.5" y="8"/><ellipse cx="261.5" cy="28.0938" fill="#ADD1B2" rx="11" ry="11" style="stroke: #A80036; stroke-width: 1.0;"/><path d="M264.2656,23.9688 Q264.4219,23.75 264.6094,23.6406 Q264.7969,23.5313 265.0156,23.5313 Q265.3906,23.5313 265.625,23.7891 Q265.8594,24.0469 265.8594,24.6563 L265.8594,26.1094 Q265.8594,26.7188 265.625,26.9844 Q265.3906,27.25 265.0156,27.25 Q264.6719,27.25 264.4688,27.0469 Q264.2656,26.8594 264.1563,26.3438 Q264.1094,25.9844 263.9219,25.7969 Q263.5938,25.4219 262.9844,25.2031 Q262.375,24.9844 261.75,24.9844 Q260.9844,24.9844 260.3516,25.3125 Q259.7188,25.6406 259.2266,26.3906 Q258.7344,27.1406 258.7344,28.1719 L258.7344,29.2656 Q258.7344,30.5 259.625,31.3203 Q260.5156,32.1406 262.1094,32.1406 Q263.0469,32.1406 263.7031,31.8906 Q264.0938,31.7344 264.5156,31.2969 Q264.7813,31.0313 264.9297,30.9531 Q265.0781,30.875 265.2813,30.875 Q265.6094,30.875 265.8672,31.1328 Q266.125,31.3906 266.125,31.7344 Q266.125,32.0781 265.7813,32.4844 Q265.2813,33.0625 264.4844,33.3906 Q263.4063,33.8438 262.1094,33.8438 Q260.5938,33.8438 259.3906,33.2188 Q258.4063,32.7188 257.7188,31.6484 Q257.0313,30.5781 257.0313,29.2969 L257.0313,28.1406 Q257.0313,26.8125 257.6484,25.6641 Q258.2656,24.5156 259.3594,23.8984 Q260.4531,23.2813 261.6875,23.2813 Q262.4219,23.2813 263.0703,23.4453 Q263.7188,23.6094 264.2656,23.9688 Z "/><text fill="#000000" font-family="sans-serif" font-size="14" font-weight="bold" lengthAdjust="spacingAndGlyphs" textLength="176" x="275.5" y="27.5332">SerializableGame.Builder</text><text fill="#000000" font-family="sans-serif" font-size="10" lengthAdjust="spacingAndGlyphs" textLength="173" x="277" y="40.9902">soen6441riskgame.models.serializers</text></a><!--class soen6441riskgame.singleton.GameBoard--><a target="_parent" xlink:actuate="onRequest" xlink:href="../../soen6441riskgame/singleton/GameBoard.html" xlink:show="new" xlink:title="soen6441riskgame.singleton.GameBoard" xlink:type="simple"><rect fill="#FEFECE" filter="url(#f1208ksupky4v9)" height="40.1875" id="soen6441riskgame.singleton.GameBoard" style="stroke: #A80036; stroke-width: 1.5;" width="165" x="490" y="8"/><ellipse cx="505" cy="28.0938" fill="#ADD1B2" rx="11" ry="11" style="stroke: #A80036; stroke-width: 1.0;"/><path d="M507.7656,23.9688 Q507.9219,23.75 508.1094,23.6406 Q508.2969,23.5313 508.5156,23.5313 Q508.8906,23.5313 509.125,23.7891 Q509.3594,24.0469 509.3594,24.6563 L509.3594,26.1094 Q509.3594,26.7188 509.125,26.9844 Q508.8906,27.25 508.5156,27.25 Q508.1719,27.25 507.9688,27.0469 Q507.7656,26.8594 507.6563,26.3438 Q507.6094,25.9844 507.4219,25.7969 Q507.0938,25.4219 506.4844,25.2031 Q505.875,24.9844 505.25,24.9844 Q504.4844,24.9844 503.8516,25.3125 Q503.2188,25.6406 502.7266,26.3906 Q502.2344,27.1406 502.2344,28.1719 L502.2344,29.2656 Q502.2344,30.5 503.125,31.3203 Q504.0156,32.1406 505.6094,32.1406 Q506.5469,32.1406 507.2031,31.8906 Q507.5938,31.7344 508.0156,31.2969 Q508.2813,31.0313 508.4297,30.9531 Q508.5781,30.875 508.7813,30.875 Q509.1094,30.875 509.3672,31.1328 Q509.625,31.3906 509.625,31.7344 Q509.625,32.0781 509.2813,32.4844 Q508.7813,33.0625 507.9844,33.3906 Q506.9063,33.8438 505.6094,33.8438 Q504.0938,33.8438 502.8906,33.2188 Q501.9063,32.7188 501.2188,31.6484 Q500.5313,30.5781 500.5313,29.2969 L500.5313,28.1406 Q500.5313,26.8125 501.1484,25.6641 Q501.7656,24.5156 502.8594,23.8984 Q503.9531,23.2813 505.1875,23.2813 Q505.9219,23.2813 506.5703,23.4453 Q507.2188,23.6094 507.7656,23.9688 Z "/><text fill="#000000" font-family="sans-serif" font-size="14" font-weight="bold" lengthAdjust="spacingAndGlyphs" textLength="82" x="544.5" y="27.5332">GameBoard</text><text fill="#000000" font-family="sans-serif" font-size="10" lengthAdjust="spacingAndGlyphs" textLength="133" x="519" y="40.9902">soen6441riskgame.singleton</text></a><!--class soen6441riskgame.models.Country--><a target="_parent" xlink:actuate="onRequest" xlink:href="../../soen6441riskgame/models/Country.html" xlink:show="new" xlink:title="soen6441riskgame.models.Country" xlink:type="simple"><rect fill="#FFFFFF" filter="url(#f1208ksupky4v9)" height="40.1875" id="soen6441riskgame.models.Country" style="stroke: #A80036; stroke-width: 1.5;" width="156" x="272.5" y="556"/><rect fill="#FFFFFF" height="40.1875" style="stroke: #A80036; stroke-width: 1.5;" width="156" x="272.5" y="556"/><ellipse cx="287.5" cy="576.0938" fill="#ADD1B2" rx="11" ry="11" style="stroke: #A80036; stroke-width: 1.0;"/><path d="M290.2656,571.9688 Q290.4219,571.75 290.6094,571.6406 Q290.7969,571.5313 291.0156,571.5313 Q291.3906,571.5313 291.625,571.7891 Q291.8594,572.0469 291.8594,572.6563 L291.8594,574.1094 Q291.8594,574.7188 291.625,574.9844 Q291.3906,575.25 291.0156,575.25 Q290.6719,575.25 290.4688,575.0469 Q290.2656,574.8594 290.1563,574.3438 Q290.1094,573.9844 289.9219,573.7969 Q289.5938,573.4219 288.9844,573.2031 Q288.375,572.9844 287.75,572.9844 Q286.9844,572.9844 286.3516,573.3125 Q285.7188,573.6406 285.2266,574.3906 Q284.7344,575.1406 284.7344,576.1719 L284.7344,577.2656 Q284.7344,578.5 285.625,579.3203 Q286.5156,580.1406 288.1094,580.1406 Q289.0469,580.1406 289.7031,579.8906 Q290.0938,579.7344 290.5156,579.2969 Q290.7813,579.0313 290.9297,578.9531 Q291.0781,578.875 291.2813,578.875 Q291.6094,578.875 291.8672,579.1328 Q292.125,579.3906 292.125,579.7344 Q292.125,580.0781 291.7813,580.4844 Q291.2813,581.0625 290.4844,581.3906 Q289.4063,581.8438 288.1094,581.8438 Q286.5938,581.8438 285.3906,581.2188 Q284.4063,580.7188 283.7188,579.6484 Q283.0313,578.5781 283.0313,577.2969 L283.0313,576.1406 Q283.0313,574.8125 283.6484,573.6641 Q284.2656,572.5156 285.3594,571.8984 Q286.4531,571.2813 287.6875,571.2813 Q288.4219,571.2813 289.0703,571.4453 Q289.7188,571.6094 290.2656,571.9688 Z "/><text fill="#000000" font-family="sans-serif" font-size="14" font-weight="bold" lengthAdjust="spacingAndGlyphs" textLength="55" x="336" y="575.5332">Country</text><text fill="#000000" font-family="sans-serif" font-size="10" lengthAdjust="spacingAndGlyphs" textLength="124" x="301.5" y="588.9902">soen6441riskgame.models</text></a><!--class soen6441riskgame.singleton.Resettable--><a target="_parent" xlink:actuate="onRequest" xlink:href="../../soen6441riskgame/singleton/Resettable.html" xlink:show="new" xlink:title="soen6441riskgame.singleton.Resettable" xlink:type="simple"><rect fill="#FEFECE" filter="url(#f1208ksupky4v9)" height="40.1875" id="soen6441riskgame.singleton.Resettable" style="stroke: #A80036; stroke-width: 1.5;" width="167" x="464" y="556"/><ellipse cx="479" cy="576.0938" fill="#B4A7E5" rx="11" ry="11" style="stroke: #A80036; stroke-width: 1.0;"/><path d="M479.9531,572.7344 L479.9531,579.3906 L481.6719,579.3906 Q482.2813,579.3906 482.5469,579.625 Q482.8125,579.8594 482.8125,580.25 Q482.8125,580.625 482.5469,580.8594 Q482.2813,581.0938 481.6719,581.0938 L476.5313,581.0938 Q475.9219,581.0938 475.6563,580.8594 Q475.3906,580.625 475.3906,580.2344 Q475.3906,579.8594 475.6563,579.625 Q475.9219,579.3906 476.5313,579.3906 L478.25,579.3906 L478.25,572.7344 L476.5313,572.7344 Q475.9219,572.7344 475.6563,572.5 Q475.3906,572.2656 475.3906,571.875 Q475.3906,571.5 475.6563,571.2656 Q475.9219,571.0313 476.5313,571.0313 L481.6719,571.0313 Q482.2813,571.0313 482.5469,571.2656 Q482.8125,571.5 482.8125,571.875 Q482.8125,572.2656 482.5469,572.5 Q482.2813,572.7344 481.6719,572.7344 L479.9531,572.7344 Z "/><text fill="#000000" font-family="sans-serif" font-size="14" font-style="italic" font-weight="bold" lengthAdjust="spacingAndGlyphs" textLength="72" x="524.5" y="575.5332">Resettable</text><text fill="#000000" font-family="sans-serif" font-size="10" font-style="italic" lengthAdjust="spacingAndGlyphs" textLength="135" x="493" y="588.9902">soen6441riskgame.singleton</text></a><!--link soen6441riskgame.models.serializers.SerializableGame to soen6441riskgame.singleton.GameBoardPlaying--><path d="M192.5,48.148 C192.5,48.148 192.5,102.984 192.5,102.984 " fill="none" id="soen6441riskgame.models.serializers.SerializableGame-soen6441riskgame.singleton.GameBoardPlaying" style="stroke: #A80036; stroke-width: 1.0;"/><polygon fill="#A80036" points="192.5,107.984,196.5,98.984,192.5,102.984,188.5,98.984,192.5,107.984" style="stroke: #A80036; stroke-width: 1.0;"/><text fill="#000000" font-family="sans-serif" font-size="13" lengthAdjust="spacingAndGlyphs" textLength="109" x="74.5352" y="96.9587">gameBoardPlaying</text><!--link soen6441riskgame.models.serializers.SerializableGame.Builder to soen6441riskgame.singleton.GameBoardPlaying--><path d="M350.5,48.148 C350.5,48.148 350.5,102.984 350.5,102.984 " fill="none" id="soen6441riskgame.models.serializers.SerializableGame.Builder-soen6441riskgame.singleton.GameBoardPlaying" style="stroke: #A80036; stroke-width: 1.0;"/><polygon fill="#A80036" points="350.5,107.984,354.5,98.984,350.5,102.984,346.5,98.984,350.5,107.984" style="stroke: #A80036; stroke-width: 1.0;"/><text fill="#000000" font-family="sans-serif" font-size="13" lengthAdjust="spacingAndGlyphs" textLength="109" x="239.2008" y="96.9587">gameBoardPlaying</text><!--link soen6441riskgame.singleton.GameBoard to soen6441riskgame.singleton.GameBoardPlaying--><path d="M508.5,48.148 C508.5,48.148 508.5,102.984 508.5,102.984 " fill="none" id="soen6441riskgame.singleton.GameBoard-soen6441riskgame.singleton.GameBoardPlaying" style="stroke: #A80036; stroke-width: 1.0;"/><polygon fill="#A80036" points="508.5,107.984,512.5,98.984,508.5,102.984,504.5,98.984,508.5,107.984" style="stroke: #A80036; stroke-width: 1.0;"/><text fill="#000000" font-family="sans-serif" font-size="13" lengthAdjust="spacingAndGlyphs" textLength="109" x="403.8664" y="96.9587">gameBoardPlaying</text><!--link soen6441riskgame.singleton.GameBoardPlaying to soen6441riskgame.models.Country--><path d="M376.5,496.0113 C376.5,496.0113 376.5,550.8226 376.5,550.8226 " fill="none" id="soen6441riskgame.singleton.GameBoardPlaying-soen6441riskgame.models.Country" style="stroke: #A80036; stroke-width: 1.0;"/><polygon fill="#A80036" points="376.5,555.8226,380.5,546.8226,376.5,550.8226,372.5,546.8226,376.5,555.8226" style="stroke: #A80036; stroke-width: 1.0;"/><text fill="#000000" font-family="sans-serif" font-size="13" lengthAdjust="spacingAndGlyphs" textLength="98" x="271.7438" y="545.0647">attackingCountry</text><!--link soen6441riskgame.singleton.GameBoardPlaying to soen6441riskgame.models.Country--><path d="M324.5,496.0113 C324.5,496.0113 324.5,550.8226 324.5,550.8226 " fill="none" id="soen6441riskgame.singleton.GameBoardPlaying-soen6441riskgame.models.Country" style="stroke: #A80036; stroke-width: 1.0;"/><polygon fill="#A80036" points="324.5,555.8226,328.5,546.8226,324.5,550.8226,320.5,546.8226,324.5,555.8226" style="stroke: #A80036; stroke-width: 1.0;"/><text fill="#000000" font-family="sans-serif" font-size="13" lengthAdjust="spacingAndGlyphs" textLength="100" x="202.175" y="545.0647">defendingCountry</text><!--link soen6441riskgame.singleton.GameBoardPlaying to soen6441riskgame.singleton.Resettable--><path d="M495.5,496.0113 C495.5,496.0113 495.5,535.8226 495.5,535.8226 " fill="none" id="soen6441riskgame.singleton.GameBoardPlaying-soen6441riskgame.singleton.Resettable" style="stroke: #A80036; stroke-width: 1.0; stroke-dasharray: 7.0,7.0;"/><polygon fill="none" points="502.5,535.8226,495.5,555.8226,488.5,535.8226,502.5,535.8226" style="stroke: #A80036; stroke-width: 1.0;"/><!--
@startuml

skinparam svgLinkTarget _parent
skinparam linetype ortho
set namespaceSeparator none
class "<b><size:14>GameBoardPlaying</b>\n<size:10>soen6441riskgame.singleton" as soen6441riskgame.singleton.GameBoardPlaying  [[../../soen6441riskgame/singleton/GameBoardPlaying.html{soen6441riskgame.singleton.GameBoardPlaying}]] {
-int attackerNumDice
-int defenderNumDice
-Country attackingCountry
-String attackingCountryName
-Country defendingCountry
-String defendingCountyName
-boolean alloutFlag
-boolean attackMoveCmdRequired
+GameBoardPlaying()
+int getAttackerNumDice()
+void setAttackerNumDice(int attackerNumDice)
+int getDefenderNumDice()
+void setDefenderNumDice(int defenderNumDice)
+Country getAttackingCountry()
+void setAttackingCountry(Country attackingCountry)
+Country getDefendingCountry()
+void setDefendingCountry(Country defendingCountry)
+boolean isAlloutFlag()
+void setAlloutFlag(boolean alloutFlag)
+boolean isAttackMoveCmdRequired()
+void setAttackMoveCmdRequired(boolean attackMoveCmdRequired)
+String getAttackingCountryName()
+String getDefendingCountyName()
+void reset()
}



class "<b><size:14>SerializableGame</b>\n<size:10>soen6441riskgame.models.serializers" as soen6441riskgame.models.serializers.SerializableGame  [[../../soen6441riskgame/models/serializers/SerializableGame.html{soen6441riskgame.models.serializers.SerializableGame}]] #white {
}

hide soen6441riskgame.models.serializers.SerializableGame fields
hide soen6441riskgame.models.serializers.SerializableGame methods

soen6441riskgame.models.serializers.SerializableGame - ->  "gameBoardPlaying" soen6441riskgame.singleton.GameBoardPlaying

class "<b><size:14>SerializableGame.Builder</b>\n<size:10>soen6441riskgame.models.serializers" as soen6441riskgame.models.serializers.SerializableGame.Builder  [[../../soen6441riskgame/models/serializers/SerializableGame.Builder.html{soen6441riskgame.models.serializers.SerializableGame.Builder}]] #white {
}

hide soen6441riskgame.models.serializers.SerializableGame.Builder fields
hide soen6441riskgame.models.serializers.SerializableGame.Builder methods

soen6441riskgame.models.serializers.SerializableGame.Builder - ->  "gameBoardPlaying" soen6441riskgame.singleton.GameBoardPlaying

class "<b><size:14>GameBoard</b>\n<size:10>soen6441riskgame.singleton" as soen6441riskgame.singleton.GameBoard  [[../../soen6441riskgame/singleton/GameBoard.html{soen6441riskgame.singleton.GameBoard}]] {
}

hide soen6441riskgame.singleton.GameBoard fields
hide soen6441riskgame.singleton.GameBoard methods

soen6441riskgame.singleton.GameBoard - ->  "gameBoardPlaying" soen6441riskgame.singleton.GameBoardPlaying

class "<b><size:14>Country</b>\n<size:10>soen6441riskgame.models" as soen6441riskgame.models.Country  [[../../soen6441riskgame/models/Country.html{soen6441riskgame.models.Country}]] #white {
}

hide soen6441riskgame.models.Country fields
hide soen6441riskgame.models.Country methods

soen6441riskgame.singleton.GameBoardPlaying - ->  "attackingCountry" soen6441riskgame.models.Country

soen6441riskgame.singleton.GameBoardPlaying - ->  "defendingCountry" soen6441riskgame.models.Country

interface "<b><size:14>Resettable</b>\n<size:10>soen6441riskgame.singleton" as soen6441riskgame.singleton.Resettable  [[../../soen6441riskgame/singleton/Resettable.html{soen6441riskgame.singleton.Resettable}]] {
}

hide soen6441riskgame.singleton.Resettable fields
hide soen6441riskgame.singleton.Resettable methods

soen6441riskgame.singleton.GameBoardPlaying ..|> soen6441riskgame.singleton.Resettable


@enduml

PlantUML version 1.2017.15(Mon Jul 03 12:45:34 EDT 2017)
(GPL source distribution)
Java Runtime: Java(TM) SE Runtime Environment
JVM: Java HotSpot(TM) 64-Bit Server VM
Java Version: 1.8.0_231-b11
Operating System: Windows 10
OS Version: 10.0
Default Encoding: Cp1252
Language: en
Country: US
--></g></svg>