<?xml version="1.0" encoding="UTF-8" standalone="no"?><svg xmlns="http://www.w3.org/2000/svg" xmlns:xlink="http://www.w3.org/1999/xlink" contentScriptType="application/ecmascript" contentStyleType="text/css" height="566px" preserveAspectRatio="none" style="width:903px;height:566px;" version="1.1" viewBox="0 0 903 566" width="903px" zoomAndPan="magnify"><defs><filter height="300%" id="fj5078auq4o5u" width="300%" x="-1" y="-1"><feGaussianBlur result="blurOut" stdDeviation="2.0"/><feColorMatrix in="blurOut" result="blurOut2" type="matrix" values="0 0 0 0 0 0 0 0 0 0 0 0 0 0 0 0 0 0 .4 0"/><feOffset dx="4.0" dy="4.0" in="blurOut2" result="blurOut3"/><feBlend in="SourceGraphic" in2="blurOut3" mode="normal"/></filter></defs><g><!--class soen6441riskgame.singleton.GameBoardMap--><a target="_parent" xlink:actuate="onRequest" xlink:href="../../soen6441riskgame/singleton/GameBoardMap.html" xlink:show="new" xlink:title="soen6441riskgame.singleton.GameBoardMap" xlink:type="simple"><rect fill="#FEFECE" filter="url(#fj5078auq4o5u)" height="346.7422" id="soen6441riskgame.singleton.GameBoardMap" style="stroke: #A80036; stroke-width: 1.5;" width="346" x="343" y="108"/><ellipse cx="445.25" cy="128.0938" fill="#ADD1B2" rx="11" ry="11" style="stroke: #A80036; stroke-width: 1.0;"/><path d="M448.0156,123.9688 Q448.1719,123.75 448.3594,123.6406 Q448.5469,123.5313 448.7656,123.5313 Q449.1406,123.5313 449.375,123.7891 Q449.6094,124.0469 449.6094,124.6563 L449.6094,126.1094 Q449.6094,126.7188 449.375,126.9844 Q449.1406,127.25 448.7656,127.25 Q448.4219,127.25 448.2188,127.0469 Q448.0156,126.8594 447.9063,126.3438 Q447.8594,125.9844 447.6719,125.7969 Q447.3438,125.4219 446.7344,125.2031 Q446.125,124.9844 445.5,124.9844 Q444.7344,124.9844 444.1016,125.3125 Q443.4688,125.6406 442.9766,126.3906 Q442.4844,127.1406 442.4844,128.1719 L442.4844,129.2656 Q442.4844,130.5 443.375,131.3203 Q444.2656,132.1406 445.8594,132.1406 Q446.7969,132.1406 447.4531,131.8906 Q447.8438,131.7344 448.2656,131.2969 Q448.5313,131.0313 448.6797,130.9531 Q448.8281,130.875 449.0313,130.875 Q449.3594,130.875 449.6172,131.1328 Q449.875,131.3906 449.875,131.7344 Q449.875,132.0781 449.5313,132.4844 Q449.0313,133.0625 448.2344,133.3906 Q447.1563,133.8438 445.8594,133.8438 Q444.3438,133.8438 443.1406,133.2188 Q442.1563,132.7188 441.4688,131.6484 Q440.7813,130.5781 440.7813,129.2969 L440.7813,128.1406 Q440.7813,126.8125 441.3984,125.6641 Q442.0156,124.5156 443.1094,123.8984 Q444.2031,123.2813 445.4375,123.2813 Q446.1719,123.2813 446.8203,123.4453 Q447.4688,123.6094 448.0156,123.9688 Z "/><text fill="#000000" font-family="sans-serif" font-size="14" font-weight="bold" lengthAdjust="spacingAndGlyphs" textLength="112" x="476.25" y="127.5332">GameBoardMap</text><text fill="#000000" font-family="sans-serif" font-size="10" lengthAdjust="spacingAndGlyphs" textLength="133" x="465.75" y="140.9902">soen6441riskgame.singleton</text><line style="stroke: #A80036; stroke-width: 1.5;" x1="344" x2="688" y1="148.1875" y2="148.1875"/><rect fill="none" height="6" style="stroke: #C82930; stroke-width: 1.0;" width="6" x="351" y="157.6055"/><text fill="#000000" font-family="sans-serif" font-size="11" lengthAdjust="spacingAndGlyphs" textLength="287" x="363" y="163.6064">PlayersWorldDominationView playersWorldDominationView</text><rect fill="none" height="6" style="stroke: #C82930; stroke-width: 1.0;" width="6" x="351" y="171.4414"/><text fill="#000000" font-family="sans-serif" font-size="11" lengthAdjust="spacingAndGlyphs" textLength="78" x="363" y="177.4424">String mapName</text><rect fill="none" height="6" style="stroke: #C82930; stroke-width: 1.0;" width="6" x="351" y="185.2773"/><text fill="#000000" font-family="sans-serif" font-size="11" lengthAdjust="spacingAndGlyphs" textLength="155" x="363" y="191.2783">ArrayList&lt;Continent&gt; continents</text><rect fill="none" height="6" style="stroke: #C82930; stroke-width: 1.0;" width="6" x="351" y="199.1133"/><text fill="#000000" font-family="sans-serif" font-size="11" lengthAdjust="spacingAndGlyphs" textLength="143" x="363" y="205.1143">ArrayList&lt;Country&gt; countries</text><rect fill="none" height="6" style="stroke: #C82930; stroke-width: 1.0;" width="6" x="351" y="212.9492"/><text fill="#000000" font-family="sans-serif" font-size="11" lengthAdjust="spacingAndGlyphs" textLength="52" x="363" y="218.9502">int borders</text><line style="stroke: #A80036; stroke-width: 1.5;" x1="344" x2="688" y1="225.3672" y2="225.3672"/><ellipse cx="354" cy="237.7852" fill="#84BE84" rx="3" ry="3" style="stroke: #038048; stroke-width: 1.0;"/><text fill="#000000" font-family="sans-serif" font-size="11" lengthAdjust="spacingAndGlyphs" textLength="85" x="363" y="240.7861">GameBoardMap()</text><ellipse cx="354" cy="251.6211" fill="#84BE84" rx="3" ry="3" style="stroke: #038048; stroke-width: 1.0;"/><text fill="#000000" font-family="sans-serif" font-size="11" lengthAdjust="spacingAndGlyphs" textLength="310" x="363" y="254.6221">PlayersWorldDominationView getPlayersWorldDominationView()</text><ellipse cx="354" cy="265.457" fill="#84BE84" rx="3" ry="3" style="stroke: #038048; stroke-width: 1.0;"/><text fill="#000000" font-family="sans-serif" font-size="11" lengthAdjust="spacingAndGlyphs" textLength="76" x="363" y="268.458">int getBorders()</text><ellipse cx="354" cy="279.293" fill="#84BE84" rx="3" ry="3" style="stroke: #038048; stroke-width: 1.0;"/><text fill="#000000" font-family="sans-serif" font-size="11" lengthAdjust="spacingAndGlyphs" textLength="127" x="363" y="282.2939">void setBorders(int graph)</text><ellipse cx="354" cy="293.1289" fill="#84BE84" rx="3" ry="3" style="stroke: #038048; stroke-width: 1.0;"/><text fill="#000000" font-family="sans-serif" font-size="11" lengthAdjust="spacingAndGlyphs" textLength="179" x="363" y="296.1299">ArrayList&lt;Continent&gt; getContinents()</text><ellipse cx="354" cy="306.9648" fill="#84BE84" rx="3" ry="3" style="stroke: #038048; stroke-width: 1.0;"/><text fill="#000000" font-family="sans-serif" font-size="11" lengthAdjust="spacingAndGlyphs" textLength="171" x="363" y="309.9658">void setMapName(String mapName)</text><ellipse cx="354" cy="320.8008" fill="#84BE84" rx="3" ry="3" style="stroke: #038048; stroke-width: 1.0;"/><text fill="#000000" font-family="sans-serif" font-size="11" lengthAdjust="spacingAndGlyphs" textLength="101" x="363" y="323.8018">String getMapName()</text><ellipse cx="354" cy="334.6367" fill="#84BE84" rx="3" ry="3" style="stroke: #038048; stroke-width: 1.0;"/><text fill="#000000" font-family="sans-serif" font-size="11" lengthAdjust="spacingAndGlyphs" textLength="167" x="363" y="337.6377">ArrayList&lt;Country&gt; getCountries()</text><ellipse cx="354" cy="348.4727" fill="#84BE84" rx="3" ry="3" style="stroke: #038048; stroke-width: 1.0;"/><text fill="#000000" font-family="sans-serif" font-size="11" lengthAdjust="spacingAndGlyphs" textLength="56" x="363" y="351.4736">void reset()</text><ellipse cx="354" cy="362.3086" fill="#84BE84" rx="3" ry="3" style="stroke: #038048; stroke-width: 1.0;"/><text fill="#000000" font-family="sans-serif" font-size="11" lengthAdjust="spacingAndGlyphs" textLength="110" x="363" y="365.3096">void showContinents()</text><ellipse cx="354" cy="376.1445" fill="#84BE84" rx="3" ry="3" style="stroke: #038048; stroke-width: 1.0;"/><text fill="#000000" font-family="sans-serif" font-size="11" lengthAdjust="spacingAndGlyphs" textLength="248" x="363" y="379.1455">Country getCountryFromName(String countryName)</text><ellipse cx="354" cy="389.9805" fill="#84BE84" rx="3" ry="3" style="stroke: #038048; stroke-width: 1.0;"/><text fill="#000000" font-family="sans-serif" font-size="11" lengthAdjust="spacingAndGlyphs" textLength="225" x="363" y="392.9814">boolean isCountryExisted(String countryName)</text><ellipse cx="354" cy="403.8164" fill="#84BE84" rx="3" ry="3" style="stroke: #038048; stroke-width: 1.0;"/><text fill="#000000" font-family="sans-serif" font-size="11" lengthAdjust="spacingAndGlyphs" textLength="269" x="363" y="406.8174">Continent getContinentFromName(String continentName)</text><ellipse cx="354" cy="417.6523" fill="#84BE84" rx="3" ry="3" style="stroke: #038048; stroke-width: 1.0;"/><text fill="#000000" font-family="sans-serif" font-size="11" lengthAdjust="spacingAndGlyphs" textLength="239" x="363" y="420.6533">boolean isContinentExisted(String continentName)</text><ellipse cx="354" cy="431.4883" fill="#84BE84" rx="3" ry="3" style="stroke: #038048; stroke-width: 1.0;"/><text fill="#000000" font-family="sans-serif" font-size="11" lengthAdjust="spacingAndGlyphs" textLength="320" x="363" y="434.4893">void updateCountryContinent(Country country,Continent continent)</text><ellipse cx="354" cy="445.3242" fill="#84BE84" rx="3" ry="3" style="stroke: #038048; stroke-width: 1.0;"/><text fill="#000000" font-family="sans-serif" font-size="11" lengthAdjust="spacingAndGlyphs" textLength="91" x="363" y="448.3252">void printBorders()</text></a><!--class soen6441riskgame.singleton.GameBoard--><a target="_parent" xlink:actuate="onRequest" xlink:href="../../soen6441riskgame/singleton/GameBoard.html" xlink:show="new" xlink:title="soen6441riskgame.singleton.GameBoard" xlink:type="simple"><rect fill="#FEFECE" filter="url(#fj5078auq4o5u)" height="40.1875" id="soen6441riskgame.singleton.GameBoard" style="stroke: #A80036; stroke-width: 1.5;" width="165" x="433.5" y="8"/><ellipse cx="448.5" cy="28.0938" fill="#ADD1B2" rx="11" ry="11" style="stroke: #A80036; stroke-width: 1.0;"/><path d="M451.2656,23.9688 Q451.4219,23.75 451.6094,23.6406 Q451.7969,23.5313 452.0156,23.5313 Q452.3906,23.5313 452.625,23.7891 Q452.8594,24.0469 452.8594,24.6563 L452.8594,26.1094 Q452.8594,26.7188 452.625,26.9844 Q452.3906,27.25 452.0156,27.25 Q451.6719,27.25 451.4688,27.0469 Q451.2656,26.8594 451.1563,26.3438 Q451.1094,25.9844 450.9219,25.7969 Q450.5938,25.4219 449.9844,25.2031 Q449.375,24.9844 448.75,24.9844 Q447.9844,24.9844 447.3516,25.3125 Q446.7188,25.6406 446.2266,26.3906 Q445.7344,27.1406 445.7344,28.1719 L445.7344,29.2656 Q445.7344,30.5 446.625,31.3203 Q447.5156,32.1406 449.1094,32.1406 Q450.0469,32.1406 450.7031,31.8906 Q451.0938,31.7344 451.5156,31.2969 Q451.7813,31.0313 451.9297,30.9531 Q452.0781,30.875 452.2813,30.875 Q452.6094,30.875 452.8672,31.1328 Q453.125,31.3906 453.125,31.7344 Q453.125,32.0781 452.7813,32.4844 Q452.2813,33.0625 451.4844,33.3906 Q450.4063,33.8438 449.1094,33.8438 Q447.5938,33.8438 446.3906,33.2188 Q445.4063,32.7188 444.7188,31.6484 Q444.0313,30.5781 444.0313,29.2969 L444.0313,28.1406 Q444.0313,26.8125 444.6484,25.6641 Q445.2656,24.5156 446.3594,23.8984 Q447.4531,23.2813 448.6875,23.2813 Q449.4219,23.2813 450.0703,23.4453 Q450.7188,23.6094 451.2656,23.9688 Z "/><text fill="#000000" font-family="sans-serif" font-size="14" font-weight="bold" lengthAdjust="spacingAndGlyphs" textLength="82" x="488" y="27.5332">GameBoard</text><text fill="#000000" font-family="sans-serif" font-size="10" lengthAdjust="spacingAndGlyphs" textLength="133" x="462.5" y="40.9902">soen6441riskgame.singleton</text></a><!--class soen6441riskgame.views.PlayersWorldDominationView--><a target="_parent" xlink:actuate="onRequest" xlink:href="../../soen6441riskgame/views/PlayersWorldDominationView.html" xlink:show="new" xlink:title="soen6441riskgame.views.PlayersWorldDominationView" xlink:type="simple"><rect fill="#FFFFFF" filter="url(#fj5078auq4o5u)" height="40.1875" id="soen6441riskgame.views.PlayersWorldDominationView" style="stroke: #A80036; stroke-width: 1.5;" width="236" x="72" y="515"/><rect fill="#FFFFFF" height="40.1875" style="stroke: #A80036; stroke-width: 1.5;" width="236" x="72" y="515"/><ellipse cx="87" cy="535.0938" fill="#ADD1B2" rx="11" ry="11" style="stroke: #A80036; stroke-width: 1.0;"/><path d="M89.7656,530.9688 Q89.9219,530.75 90.1094,530.6406 Q90.2969,530.5313 90.5156,530.5313 Q90.8906,530.5313 91.125,530.7891 Q91.3594,531.0469 91.3594,531.6563 L91.3594,533.1094 Q91.3594,533.7188 91.125,533.9844 Q90.8906,534.25 90.5156,534.25 Q90.1719,534.25 89.9688,534.0469 Q89.7656,533.8594 89.6563,533.3438 Q89.6094,532.9844 89.4219,532.7969 Q89.0938,532.4219 88.4844,532.2031 Q87.875,531.9844 87.25,531.9844 Q86.4844,531.9844 85.8516,532.3125 Q85.2188,532.6406 84.7266,533.3906 Q84.2344,534.1406 84.2344,535.1719 L84.2344,536.2656 Q84.2344,537.5 85.125,538.3203 Q86.0156,539.1406 87.6094,539.1406 Q88.5469,539.1406 89.2031,538.8906 Q89.5938,538.7344 90.0156,538.2969 Q90.2813,538.0313 90.4297,537.9531 Q90.5781,537.875 90.7813,537.875 Q91.1094,537.875 91.3672,538.1328 Q91.625,538.3906 91.625,538.7344 Q91.625,539.0781 91.2813,539.4844 Q90.7813,540.0625 89.9844,540.3906 Q88.9063,540.8438 87.6094,540.8438 Q86.0938,540.8438 84.8906,540.2188 Q83.9063,539.7188 83.2188,538.6484 Q82.5313,537.5781 82.5313,536.2969 L82.5313,535.1406 Q82.5313,533.8125 83.1484,532.6641 Q83.7656,531.5156 84.8594,530.8984 Q85.9531,530.2813 87.1875,530.2813 Q87.9219,530.2813 88.5703,530.4453 Q89.2188,530.6094 89.7656,530.9688 Z "/><text fill="#000000" font-family="sans-serif" font-size="14" font-weight="bold" lengthAdjust="spacingAndGlyphs" textLength="204" x="101" y="534.5332">PlayersWorldDominationView</text><text fill="#000000" font-family="sans-serif" font-size="10" lengthAdjust="spacingAndGlyphs" textLength="115" x="145.5" y="547.9902">soen6441riskgame.views</text></a><!--class soen6441riskgame.models.Continent--><a target="_parent" xlink:actuate="onRequest" xlink:href="../../soen6441riskgame/models/Continent.html" xlink:show="new" xlink:title="soen6441riskgame.models.Continent" xlink:type="simple"><rect fill="#FFFFFF" filter="url(#fj5078auq4o5u)" height="40.1875" id="soen6441riskgame.models.Continent" style="stroke: #A80036; stroke-width: 1.5;" width="156" x="343" y="515"/><rect fill="#FFFFFF" height="40.1875" style="stroke: #A80036; stroke-width: 1.5;" width="156" x="343" y="515"/><ellipse cx="358" cy="535.0938" fill="#ADD1B2" rx="11" ry="11" style="stroke: #A80036; stroke-width: 1.0;"/><path d="M360.7656,530.9688 Q360.9219,530.75 361.1094,530.6406 Q361.2969,530.5313 361.5156,530.5313 Q361.8906,530.5313 362.125,530.7891 Q362.3594,531.0469 362.3594,531.6563 L362.3594,533.1094 Q362.3594,533.7188 362.125,533.9844 Q361.8906,534.25 361.5156,534.25 Q361.1719,534.25 360.9688,534.0469 Q360.7656,533.8594 360.6563,533.3438 Q360.6094,532.9844 360.4219,532.7969 Q360.0938,532.4219 359.4844,532.2031 Q358.875,531.9844 358.25,531.9844 Q357.4844,531.9844 356.8516,532.3125 Q356.2188,532.6406 355.7266,533.3906 Q355.2344,534.1406 355.2344,535.1719 L355.2344,536.2656 Q355.2344,537.5 356.125,538.3203 Q357.0156,539.1406 358.6094,539.1406 Q359.5469,539.1406 360.2031,538.8906 Q360.5938,538.7344 361.0156,538.2969 Q361.2813,538.0313 361.4297,537.9531 Q361.5781,537.875 361.7813,537.875 Q362.1094,537.875 362.3672,538.1328 Q362.625,538.3906 362.625,538.7344 Q362.625,539.0781 362.2813,539.4844 Q361.7813,540.0625 360.9844,540.3906 Q359.9063,540.8438 358.6094,540.8438 Q357.0938,540.8438 355.8906,540.2188 Q354.9063,539.7188 354.2188,538.6484 Q353.5313,537.5781 353.5313,536.2969 L353.5313,535.1406 Q353.5313,533.8125 354.1484,532.6641 Q354.7656,531.5156 355.8594,530.8984 Q356.9531,530.2813 358.1875,530.2813 Q358.9219,530.2813 359.5703,530.4453 Q360.2188,530.6094 360.7656,530.9688 Z "/><text fill="#000000" font-family="sans-serif" font-size="14" font-weight="bold" lengthAdjust="spacingAndGlyphs" textLength="69" x="399.5" y="534.5332">Continent</text><text fill="#000000" font-family="sans-serif" font-size="10" lengthAdjust="spacingAndGlyphs" textLength="124" x="372" y="547.9902">soen6441riskgame.models</text></a><!--class soen6441riskgame.models.Country--><a target="_parent" xlink:actuate="onRequest" xlink:href="../../soen6441riskgame/models/Country.html" xlink:show="new" xlink:title="soen6441riskgame.models.Country" xlink:type="simple"><rect fill="#FFFFFF" filter="url(#fj5078auq4o5u)" height="40.1875" id="soen6441riskgame.models.Country" style="stroke: #A80036; stroke-width: 1.5;" width="156" x="534" y="515"/><rect fill="#FFFFFF" height="40.1875" style="stroke: #A80036; stroke-width: 1.5;" width="156" x="534" y="515"/><ellipse cx="549" cy="535.0938" fill="#ADD1B2" rx="11" ry="11" style="stroke: #A80036; stroke-width: 1.0;"/><path d="M551.7656,530.9688 Q551.9219,530.75 552.1094,530.6406 Q552.2969,530.5313 552.5156,530.5313 Q552.8906,530.5313 553.125,530.7891 Q553.3594,531.0469 553.3594,531.6563 L553.3594,533.1094 Q553.3594,533.7188 553.125,533.9844 Q552.8906,534.25 552.5156,534.25 Q552.1719,534.25 551.9688,534.0469 Q551.7656,533.8594 551.6563,533.3438 Q551.6094,532.9844 551.4219,532.7969 Q551.0938,532.4219 550.4844,532.2031 Q549.875,531.9844 549.25,531.9844 Q548.4844,531.9844 547.8516,532.3125 Q547.2188,532.6406 546.7266,533.3906 Q546.2344,534.1406 546.2344,535.1719 L546.2344,536.2656 Q546.2344,537.5 547.125,538.3203 Q548.0156,539.1406 549.6094,539.1406 Q550.5469,539.1406 551.2031,538.8906 Q551.5938,538.7344 552.0156,538.2969 Q552.2813,538.0313 552.4297,537.9531 Q552.5781,537.875 552.7813,537.875 Q553.1094,537.875 553.3672,538.1328 Q553.625,538.3906 553.625,538.7344 Q553.625,539.0781 553.2813,539.4844 Q552.7813,540.0625 551.9844,540.3906 Q550.9063,540.8438 549.6094,540.8438 Q548.0938,540.8438 546.8906,540.2188 Q545.9063,539.7188 545.2188,538.6484 Q544.5313,537.5781 544.5313,536.2969 L544.5313,535.1406 Q544.5313,533.8125 545.1484,532.6641 Q545.7656,531.5156 546.8594,530.8984 Q547.9531,530.2813 549.1875,530.2813 Q549.9219,530.2813 550.5703,530.4453 Q551.2188,530.6094 551.7656,530.9688 Z "/><text fill="#000000" font-family="sans-serif" font-size="14" font-weight="bold" lengthAdjust="spacingAndGlyphs" textLength="55" x="597.5" y="534.5332">Country</text><text fill="#000000" font-family="sans-serif" font-size="10" lengthAdjust="spacingAndGlyphs" textLength="124" x="563" y="547.9902">soen6441riskgame.models</text></a><!--class soen6441riskgame.singleton.Resettable--><a target="_parent" xlink:actuate="onRequest" xlink:href="../../soen6441riskgame/singleton/Resettable.html" xlink:show="new" xlink:title="soen6441riskgame.singleton.Resettable" xlink:type="simple"><rect fill="#FEFECE" filter="url(#fj5078auq4o5u)" height="40.1875" id="soen6441riskgame.singleton.Resettable" style="stroke: #A80036; stroke-width: 1.5;" width="167" x="725.5" y="515"/><ellipse cx="740.5" cy="535.0938" fill="#B4A7E5" rx="11" ry="11" style="stroke: #A80036; stroke-width: 1.0;"/><path d="M741.4531,531.7344 L741.4531,538.3906 L743.1719,538.3906 Q743.7813,538.3906 744.0469,538.625 Q744.3125,538.8594 744.3125,539.25 Q744.3125,539.625 744.0469,539.8594 Q743.7813,540.0938 743.1719,540.0938 L738.0313,540.0938 Q737.4219,540.0938 737.1563,539.8594 Q736.8906,539.625 736.8906,539.2344 Q736.8906,538.8594 737.1563,538.625 Q737.4219,538.3906 738.0313,538.3906 L739.75,538.3906 L739.75,531.7344 L738.0313,531.7344 Q737.4219,531.7344 737.1563,531.5 Q736.8906,531.2656 736.8906,530.875 Q736.8906,530.5 737.1563,530.2656 Q737.4219,530.0313 738.0313,530.0313 L743.1719,530.0313 Q743.7813,530.0313 744.0469,530.2656 Q744.3125,530.5 744.3125,530.875 Q744.3125,531.2656 744.0469,531.5 Q743.7813,531.7344 743.1719,531.7344 L741.4531,531.7344 Z "/><text fill="#000000" font-family="sans-serif" font-size="14" font-style="italic" font-weight="bold" lengthAdjust="spacingAndGlyphs" textLength="72" x="786" y="534.5332">Resettable</text><text fill="#000000" font-family="sans-serif" font-size="10" font-style="italic" lengthAdjust="spacingAndGlyphs" textLength="135" x="754.5" y="547.9902">soen6441riskgame.singleton</text></a><!--link soen6441riskgame.singleton.GameBoard to soen6441riskgame.singleton.GameBoardMap--><path d="M516,48.316 C516,48.316 516,102.823 516,102.823 " fill="none" id="soen6441riskgame.singleton.GameBoard-soen6441riskgame.singleton.GameBoardMap" style="stroke: #A80036; stroke-width: 1.0;"/><polygon fill="#A80036" points="516,107.823,520,98.823,516,102.823,512,98.823,516,107.823" style="stroke: #A80036; stroke-width: 1.0;"/><text fill="#000000" font-family="sans-serif" font-size="13" lengthAdjust="spacingAndGlyphs" textLength="91" x="422.9383" y="97.0997">gameBoardMap</text><!--link soen6441riskgame.singleton.GameBoardMap to soen6441riskgame.views.PlayersWorldDominationView--><path d="M342.977,282 C264.952,282 190,282 190,282 C190,282 190,509.7236 190,509.7236 " fill="none" id="soen6441riskgame.singleton.GameBoardMap-soen6441riskgame.views.PlayersWorldDominationView" style="stroke: #A80036; stroke-width: 1.0;"/><polygon fill="#A80036" points="190,514.7236,194,505.7236,190,509.7236,186,505.7236,190,514.7236" style="stroke: #A80036; stroke-width: 1.0;"/><text fill="#000000" font-family="sans-serif" font-size="13" lengthAdjust="spacingAndGlyphs" textLength="169" x="-2.7656" y="504.2891">playersWorldDominationView</text><!--link soen6441riskgame.singleton.GameBoardMap to soen6441riskgame.models.Continent--><path d="M421,455.139 C421,455.139 421,509.9942 421,509.9942 " fill="none" id="soen6441riskgame.singleton.GameBoardMap-soen6441riskgame.models.Continent" style="stroke: #A80036; stroke-width: 1.0; stroke-dasharray: 7.0,7.0;"/><polygon fill="#A80036" points="421,514.9942,425,505.9942,421,509.9942,417,505.9942,421,514.9942" style="stroke: #A80036; stroke-width: 1.0;"/><!--link soen6441riskgame.singleton.GameBoardMap to soen6441riskgame.models.Country--><path d="M611.5,455.139 C611.5,455.139 611.5,509.9942 611.5,509.9942 " fill="none" id="soen6441riskgame.singleton.GameBoardMap-soen6441riskgame.models.Country" style="stroke: #A80036; stroke-width: 1.0; stroke-dasharray: 7.0,7.0;"/><polygon fill="#A80036" points="611.5,514.9942,615.5,505.9942,611.5,509.9942,607.5,505.9942,611.5,514.9942" style="stroke: #A80036; stroke-width: 1.0;"/><!--link soen6441riskgame.singleton.GameBoardMap to soen6441riskgame.singleton.Resettable--><path d="M689.403,282 C752.667,282 809,282 809,282 C809,282 809,494.7236 809,494.7236 " fill="none" id="soen6441riskgame.singleton.GameBoardMap-soen6441riskgame.singleton.Resettable" style="stroke: #A80036; stroke-width: 1.0; stroke-dasharray: 7.0,7.0;"/><polygon fill="none" points="816,494.7237,809,514.7236,802,494.7236,816,494.7237" style="stroke: #A80036; stroke-width: 1.0;"/><!--
@startuml

skinparam svgLinkTarget _parent
skinparam linetype ortho
set namespaceSeparator none
class "<b><size:14>GameBoardMap</b>\n<size:10>soen6441riskgame.singleton" as soen6441riskgame.singleton.GameBoardMap  [[../../soen6441riskgame/singleton/GameBoardMap.html{soen6441riskgame.singleton.GameBoardMap}]] {
-PlayersWorldDominationView playersWorldDominationView
-String mapName
-ArrayList<Continent> continents
-ArrayList<Country> countries
-int borders
+GameBoardMap()
+PlayersWorldDominationView getPlayersWorldDominationView()
+int getBorders()
+void setBorders(int graph)
+ArrayList<Continent> getContinents()
+void setMapName(String mapName)
+String getMapName()
+ArrayList<Country> getCountries()
+void reset()
+void showContinents()
+Country getCountryFromName(String countryName)
+boolean isCountryExisted(String countryName)
+Continent getContinentFromName(String continentName)
+boolean isContinentExisted(String continentName)
+void updateCountryContinent(Country country,Continent continent)
+void printBorders()
}


class "<b><size:14>GameBoard</b>\n<size:10>soen6441riskgame.singleton" as soen6441riskgame.singleton.GameBoard  [[../../soen6441riskgame/singleton/GameBoard.html{soen6441riskgame.singleton.GameBoard}]] {
}

hide soen6441riskgame.singleton.GameBoard fields
hide soen6441riskgame.singleton.GameBoard methods

soen6441riskgame.singleton.GameBoard - ->  "gameBoardMap" soen6441riskgame.singleton.GameBoardMap

class "<b><size:14>PlayersWorldDominationView</b>\n<size:10>soen6441riskgame.views" as soen6441riskgame.views.PlayersWorldDominationView  [[../../soen6441riskgame/views/PlayersWorldDominationView.html{soen6441riskgame.views.PlayersWorldDominationView}]] #white {
}

hide soen6441riskgame.views.PlayersWorldDominationView fields
hide soen6441riskgame.views.PlayersWorldDominationView methods

soen6441riskgame.singleton.GameBoardMap - ->  "playersWorldDominationView" soen6441riskgame.views.PlayersWorldDominationView


class "<b><size:14>Continent</b>\n<size:10>soen6441riskgame.models" as soen6441riskgame.models.Continent  [[../../soen6441riskgame/models/Continent.html{soen6441riskgame.models.Continent}]] #white {
}

hide soen6441riskgame.models.Continent fields
hide soen6441riskgame.models.Continent methods

soen6441riskgame.singleton.GameBoardMap ..> soen6441riskgame.models.Continent


class "<b><size:14>Country</b>\n<size:10>soen6441riskgame.models" as soen6441riskgame.models.Country  [[../../soen6441riskgame/models/Country.html{soen6441riskgame.models.Country}]] #white {
}

hide soen6441riskgame.models.Country fields
hide soen6441riskgame.models.Country methods

soen6441riskgame.singleton.GameBoardMap ..> soen6441riskgame.models.Country

interface "<b><size:14>Resettable</b>\n<size:10>soen6441riskgame.singleton" as soen6441riskgame.singleton.Resettable  [[../../soen6441riskgame/singleton/Resettable.html{soen6441riskgame.singleton.Resettable}]] {
}

hide soen6441riskgame.singleton.Resettable fields
hide soen6441riskgame.singleton.Resettable methods

soen6441riskgame.singleton.GameBoardMap ..|> soen6441riskgame.singleton.Resettable


@enduml

PlantUML version 1.2017.15(Mon Jul 03 12:45:34 EDT 2017)
(GPL source distribution)
Java Runtime: Java(TM) SE Runtime Environment
JVM: Java HotSpot(TM) 64-Bit Server VM
Java Version: 1.8.0_231-b11
Operating System: Windows 10
OS Version: 10.0
Default Encoding: Cp1252
Language: en
Country: US
--></g></svg>