<?xml version="1.0" encoding="UTF-8" standalone="no"?><svg xmlns="http://www.w3.org/2000/svg" xmlns:xlink="http://www.w3.org/1999/xlink" contentScriptType="application/ecmascript" contentStyleType="text/css" height="442px" preserveAspectRatio="none" style="width:1350px;height:442px;" version="1.1" viewBox="0 0 1350 442" width="1350px" zoomAndPan="magnify"><defs><filter height="300%" id="fl4cijz77xe8t" width="300%" x="-1" y="-1"><feGaussianBlur result="blurOut" stdDeviation="2.0"/><feColorMatrix in="blurOut" result="blurOut2" type="matrix" values="0 0 0 0 0 0 0 0 0 0 0 0 0 0 0 0 0 0 .4 0"/><feOffset dx="4.0" dy="4.0" in="blurOut2" result="blurOut3"/><feBlend in="SourceGraphic" in2="blurOut3" mode="normal"/></filter></defs><g><!--class soen6441riskgame.singleton.GameBoard--><a target="_parent" xlink:actuate="onRequest" xlink:href="../../soen6441riskgame/singleton/GameBoard.html" xlink:show="new" xlink:title="soen6441riskgame.singleton.GameBoard" xlink:type="simple"><rect fill="#FEFECE" filter="url(#fl4cijz77xe8t)" height="305.2344" id="soen6441riskgame.singleton.GameBoard" style="stroke: #A80036; stroke-width: 1.5;" width="306" x="569" y="26"/><ellipse cx="651.25" cy="46.0938" fill="#ADD1B2" rx="11" ry="11" style="stroke: #A80036; stroke-width: 1.0;"/><path d="M654.0156,41.9688 Q654.1719,41.75 654.3594,41.6406 Q654.5469,41.5313 654.7656,41.5313 Q655.1406,41.5313 655.375,41.7891 Q655.6094,42.0469 655.6094,42.6563 L655.6094,44.1094 Q655.6094,44.7188 655.375,44.9844 Q655.1406,45.25 654.7656,45.25 Q654.4219,45.25 654.2188,45.0469 Q654.0156,44.8594 653.9063,44.3438 Q653.8594,43.9844 653.6719,43.7969 Q653.3438,43.4219 652.7344,43.2031 Q652.125,42.9844 651.5,42.9844 Q650.7344,42.9844 650.1016,43.3125 Q649.4688,43.6406 648.9766,44.3906 Q648.4844,45.1406 648.4844,46.1719 L648.4844,47.2656 Q648.4844,48.5 649.375,49.3203 Q650.2656,50.1406 651.8594,50.1406 Q652.7969,50.1406 653.4531,49.8906 Q653.8438,49.7344 654.2656,49.2969 Q654.5313,49.0313 654.6797,48.9531 Q654.8281,48.875 655.0313,48.875 Q655.3594,48.875 655.6172,49.1328 Q655.875,49.3906 655.875,49.7344 Q655.875,50.0781 655.5313,50.4844 Q655.0313,51.0625 654.2344,51.3906 Q653.1563,51.8438 651.8594,51.8438 Q650.3438,51.8438 649.1406,51.2188 Q648.1563,50.7188 647.4688,49.6484 Q646.7813,48.5781 646.7813,47.2969 L646.7813,46.1406 Q646.7813,44.8125 647.3984,43.6641 Q648.0156,42.5156 649.1094,41.8984 Q650.2031,41.2813 651.4375,41.2813 Q652.1719,41.2813 652.8203,41.4453 Q653.4688,41.6094 654.0156,41.9688 Z "/><text fill="#000000" font-family="sans-serif" font-size="14" font-weight="bold" lengthAdjust="spacingAndGlyphs" textLength="82" x="697.25" y="45.5332">GameBoard</text><text fill="#000000" font-family="sans-serif" font-size="10" lengthAdjust="spacingAndGlyphs" textLength="133" x="671.75" y="58.9902">soen6441riskgame.singleton</text><line style="stroke: #A80036; stroke-width: 1.5;" x1="570" x2="874" y1="66.1875" y2="66.1875"/><ellipse cx="580" cy="78.6055" fill="none" rx="3" ry="3" style="stroke: #038048; stroke-width: 1.0;"/><text fill="#000000" font-family="sans-serif" font-size="11" lengthAdjust="spacingAndGlyphs" textLength="156" x="589" y="81.6064">PrintStream standardPrintStream</text><rect fill="none" height="6" style="stroke: #C82930; stroke-width: 1.0;" width="6" x="577" y="89.4414"/><text fill="#000000" font-family="sans-serif" font-size="11" lengthAdjust="spacingAndGlyphs" text-decoration="underline" textLength="118" x="589" y="95.4424">int NUMBER_OF_CARDS</text><line style="stroke: #000000; stroke-width: 1.0;" x1="589" x2="707" y1="97.4424" y2="97.4424"/><rect fill="none" height="6" style="stroke: #C82930; stroke-width: 1.0;" width="6" x="577" y="103.2773"/><text fill="#000000" font-family="sans-serif" font-size="11" lengthAdjust="spacingAndGlyphs" text-decoration="underline" textLength="101" x="589" y="109.2783">GameBoard instance</text><line style="stroke: #000000; stroke-width: 1.0;" x1="589" x2="690" y1="111.2783" y2="111.2783"/><rect fill="none" height="6" style="stroke: #C82930; stroke-width: 1.0;" width="6" x="577" y="117.1133"/><text fill="#000000" font-family="sans-serif" font-size="11" lengthAdjust="spacingAndGlyphs" textLength="175" x="589" y="123.1143">GameBoardPlayer gameBoardPlayer</text><rect fill="none" height="6" style="stroke: #C82930; stroke-width: 1.0;" width="6" x="577" y="130.9492"/><text fill="#000000" font-family="sans-serif" font-size="11" lengthAdjust="spacingAndGlyphs" textLength="155" x="589" y="136.9502">GameBoardMap gameBoardMap</text><rect fill="none" height="6" style="stroke: #C82930; stroke-width: 1.0;" width="6" x="577" y="144.7852"/><text fill="#000000" font-family="sans-serif" font-size="11" lengthAdjust="spacingAndGlyphs" textLength="197" x="589" y="150.7861">ExchangeCardView exchangeCardView</text><rect fill="none" height="6" style="stroke: #C82930; stroke-width: 1.0;" width="6" x="577" y="158.6211"/><text fill="#000000" font-family="sans-serif" font-size="11" lengthAdjust="spacingAndGlyphs" textLength="54" x="589" y="164.6221">Card cards</text><line style="stroke: #A80036; stroke-width: 1.5;" x1="570" x2="874" y1="171.0391" y2="171.0391"/><ellipse cx="580" cy="183.457" fill="#84BE84" rx="3" ry="3" style="stroke: #038048; stroke-width: 1.0;"/><text fill="#000000" font-family="sans-serif" font-size="11" lengthAdjust="spacingAndGlyphs" textLength="65" x="589" y="186.458">GameBoard()</text><ellipse cx="580" cy="197.293" fill="#84BE84" rx="3" ry="3" style="stroke: #038048; stroke-width: 1.0;"/><text fill="#000000" font-family="sans-serif" font-size="11" lengthAdjust="spacingAndGlyphs" textLength="73" x="589" y="200.2939">void initCards()</text><ellipse cx="580" cy="211.1289" fill="#84BE84" rx="3" ry="3" style="stroke: #038048; stroke-width: 1.0;"/><text fill="#000000" font-family="sans-serif" font-size="11" lengthAdjust="spacingAndGlyphs" textLength="244" x="589" y="214.1299">Card getSpecificCardForTest(CardType cardType)</text><ellipse cx="580" cy="224.9648" fill="#84BE84" rx="3" ry="3" style="stroke: #038048; stroke-width: 1.0;"/><text fill="#000000" font-family="sans-serif" font-size="11" lengthAdjust="spacingAndGlyphs" textLength="143" x="589" y="227.9658">Card getCardsForSaveLoad()</text><ellipse cx="580" cy="238.8008" fill="#84BE84" rx="3" ry="3" style="stroke: #038048; stroke-width: 1.0;"/><text fill="#000000" font-family="sans-serif" font-size="11" lengthAdjust="spacingAndGlyphs" textLength="155" x="589" y="241.8018">Card getRandomAvailableCard()</text><ellipse cx="580" cy="252.6367" fill="#84BE84" rx="3" ry="3" style="stroke: #038048; stroke-width: 1.0;"/><text fill="#000000" font-family="sans-serif" font-size="11" lengthAdjust="spacingAndGlyphs" textLength="220" x="589" y="255.6377">ExchangeCardView getExchangeCardView()</text><ellipse cx="580" cy="266.4727" fill="#84BE84" rx="3" ry="3" style="stroke: #038048; stroke-width: 1.0;"/><text fill="#000000" font-family="sans-serif" font-size="11" lengthAdjust="spacingAndGlyphs" textLength="200" x="589" y="269.4736">GameBoardPlayer getGameBoardPlayer()</text><ellipse cx="580" cy="280.3086" fill="#84BE84" rx="3" ry="3" style="stroke: #038048; stroke-width: 1.0;"/><text fill="#000000" font-family="sans-serif" font-size="11" lengthAdjust="spacingAndGlyphs" textLength="180" x="589" y="283.3096">GameBoardMap getGameBoardMap()</text><ellipse cx="580" cy="294.1445" fill="#84BE84" rx="3" ry="3" style="stroke: #038048; stroke-width: 1.0;"/><text fill="#000000" font-family="sans-serif" font-size="11" lengthAdjust="spacingAndGlyphs" text-decoration="underline" textLength="280" x="589" y="297.1455">void setTestingInstance(GameBoard newTestingInstance)</text><line style="stroke: #000000; stroke-width: 1.0;" x1="589" x2="869" y1="299.1455" y2="299.1455"/><ellipse cx="580" cy="307.9805" fill="#84BE84" rx="3" ry="3" style="stroke: #038048; stroke-width: 1.0;"/><text fill="#000000" font-family="sans-serif" font-size="11" lengthAdjust="spacingAndGlyphs" text-decoration="underline" textLength="124" x="589" y="310.9814">GameBoard getInstance()</text><line style="stroke: #000000; stroke-width: 1.0;" x1="589" x2="713" y1="312.9814" y2="312.9814"/><ellipse cx="580" cy="321.8164" fill="#84BE84" rx="3" ry="3" style="stroke: #038048; stroke-width: 1.0;"/><text fill="#000000" font-family="sans-serif" font-size="11" lengthAdjust="spacingAndGlyphs" textLength="56" x="589" y="324.8174">void reset()</text></a><!--class soen6441riskgame.singleton.GameBoardPlayer--><a target="_parent" xlink:actuate="onRequest" xlink:href="../../soen6441riskgame/singleton/GameBoardPlayer.html" xlink:show="new" xlink:title="soen6441riskgame.singleton.GameBoardPlayer" xlink:type="simple"><rect fill="#FEFECE" filter="url(#fl4cijz77xe8t)" height="40.1875" id="soen6441riskgame.singleton.GameBoardPlayer" style="stroke: #A80036; stroke-width: 1.5;" width="165" x="41.5" y="391"/><ellipse cx="56.5" cy="411.0938" fill="#ADD1B2" rx="11" ry="11" style="stroke: #A80036; stroke-width: 1.0;"/><path d="M59.2656,406.9688 Q59.4219,406.75 59.6094,406.6406 Q59.7969,406.5313 60.0156,406.5313 Q60.3906,406.5313 60.625,406.7891 Q60.8594,407.0469 60.8594,407.6563 L60.8594,409.1094 Q60.8594,409.7188 60.625,409.9844 Q60.3906,410.25 60.0156,410.25 Q59.6719,410.25 59.4688,410.0469 Q59.2656,409.8594 59.1563,409.3438 Q59.1094,408.9844 58.9219,408.7969 Q58.5938,408.4219 57.9844,408.2031 Q57.375,407.9844 56.75,407.9844 Q55.9844,407.9844 55.3516,408.3125 Q54.7188,408.6406 54.2266,409.3906 Q53.7344,410.1406 53.7344,411.1719 L53.7344,412.2656 Q53.7344,413.5 54.625,414.3203 Q55.5156,415.1406 57.1094,415.1406 Q58.0469,415.1406 58.7031,414.8906 Q59.0938,414.7344 59.5156,414.2969 Q59.7813,414.0313 59.9297,413.9531 Q60.0781,413.875 60.2813,413.875 Q60.6094,413.875 60.8672,414.1328 Q61.125,414.3906 61.125,414.7344 Q61.125,415.0781 60.7813,415.4844 Q60.2813,416.0625 59.4844,416.3906 Q58.4063,416.8438 57.1094,416.8438 Q55.5938,416.8438 54.3906,416.2188 Q53.4063,415.7188 52.7188,414.6484 Q52.0313,413.5781 52.0313,412.2969 L52.0313,411.1406 Q52.0313,409.8125 52.6484,408.6641 Q53.2656,407.5156 54.3594,406.8984 Q55.4531,406.2813 56.6875,406.2813 Q57.4219,406.2813 58.0703,406.4453 Q58.7188,406.6094 59.2656,406.9688 Z "/><text fill="#000000" font-family="sans-serif" font-size="14" font-weight="bold" lengthAdjust="spacingAndGlyphs" textLength="125" x="74.5" y="410.5332">GameBoardPlayer</text><text fill="#000000" font-family="sans-serif" font-size="10" lengthAdjust="spacingAndGlyphs" textLength="133" x="70.5" y="423.9902">soen6441riskgame.singleton</text></a><!--class soen6441riskgame.singleton.GameBoardMap--><a target="_parent" xlink:actuate="onRequest" xlink:href="../../soen6441riskgame/singleton/GameBoardMap.html" xlink:show="new" xlink:title="soen6441riskgame.singleton.GameBoardMap" xlink:type="simple"><rect fill="#FEFECE" filter="url(#fl4cijz77xe8t)" height="40.1875" id="soen6441riskgame.singleton.GameBoardMap" style="stroke: #A80036; stroke-width: 1.5;" width="165" x="241.5" y="391"/><ellipse cx="256.5" cy="411.0938" fill="#ADD1B2" rx="11" ry="11" style="stroke: #A80036; stroke-width: 1.0;"/><path d="M259.2656,406.9688 Q259.4219,406.75 259.6094,406.6406 Q259.7969,406.5313 260.0156,406.5313 Q260.3906,406.5313 260.625,406.7891 Q260.8594,407.0469 260.8594,407.6563 L260.8594,409.1094 Q260.8594,409.7188 260.625,409.9844 Q260.3906,410.25 260.0156,410.25 Q259.6719,410.25 259.4688,410.0469 Q259.2656,409.8594 259.1563,409.3438 Q259.1094,408.9844 258.9219,408.7969 Q258.5938,408.4219 257.9844,408.2031 Q257.375,407.9844 256.75,407.9844 Q255.9844,407.9844 255.3516,408.3125 Q254.7188,408.6406 254.2266,409.3906 Q253.7344,410.1406 253.7344,411.1719 L253.7344,412.2656 Q253.7344,413.5 254.625,414.3203 Q255.5156,415.1406 257.1094,415.1406 Q258.0469,415.1406 258.7031,414.8906 Q259.0938,414.7344 259.5156,414.2969 Q259.7813,414.0313 259.9297,413.9531 Q260.0781,413.875 260.2813,413.875 Q260.6094,413.875 260.8672,414.1328 Q261.125,414.3906 261.125,414.7344 Q261.125,415.0781 260.7813,415.4844 Q260.2813,416.0625 259.4844,416.3906 Q258.4063,416.8438 257.1094,416.8438 Q255.5938,416.8438 254.3906,416.2188 Q253.4063,415.7188 252.7188,414.6484 Q252.0313,413.5781 252.0313,412.2969 L252.0313,411.1406 Q252.0313,409.8125 252.6484,408.6641 Q253.2656,407.5156 254.3594,406.8984 Q255.4531,406.2813 256.6875,406.2813 Q257.4219,406.2813 258.0703,406.4453 Q258.7188,406.6094 259.2656,406.9688 Z "/><text fill="#000000" font-family="sans-serif" font-size="14" font-weight="bold" lengthAdjust="spacingAndGlyphs" textLength="112" x="281" y="410.5332">GameBoardMap</text><text fill="#000000" font-family="sans-serif" font-size="10" lengthAdjust="spacingAndGlyphs" textLength="133" x="270.5" y="423.9902">soen6441riskgame.singleton</text></a><!--class soen6441riskgame.views.ExchangeCardView--><a target="_parent" xlink:actuate="onRequest" xlink:href="../../soen6441riskgame/views/ExchangeCardView.html" xlink:show="new" xlink:title="soen6441riskgame.views.ExchangeCardView" xlink:type="simple"><rect fill="#FFFFFF" filter="url(#fl4cijz77xe8t)" height="40.1875" id="soen6441riskgame.views.ExchangeCardView" style="stroke: #A80036; stroke-width: 1.5;" width="167" x="441.5" y="391"/><rect fill="#FFFFFF" height="40.1875" style="stroke: #A80036; stroke-width: 1.5;" width="167" x="441.5" y="391"/><ellipse cx="456.5" cy="411.0938" fill="#ADD1B2" rx="11" ry="11" style="stroke: #A80036; stroke-width: 1.0;"/><path d="M459.2656,406.9688 Q459.4219,406.75 459.6094,406.6406 Q459.7969,406.5313 460.0156,406.5313 Q460.3906,406.5313 460.625,406.7891 Q460.8594,407.0469 460.8594,407.6563 L460.8594,409.1094 Q460.8594,409.7188 460.625,409.9844 Q460.3906,410.25 460.0156,410.25 Q459.6719,410.25 459.4688,410.0469 Q459.2656,409.8594 459.1563,409.3438 Q459.1094,408.9844 458.9219,408.7969 Q458.5938,408.4219 457.9844,408.2031 Q457.375,407.9844 456.75,407.9844 Q455.9844,407.9844 455.3516,408.3125 Q454.7188,408.6406 454.2266,409.3906 Q453.7344,410.1406 453.7344,411.1719 L453.7344,412.2656 Q453.7344,413.5 454.625,414.3203 Q455.5156,415.1406 457.1094,415.1406 Q458.0469,415.1406 458.7031,414.8906 Q459.0938,414.7344 459.5156,414.2969 Q459.7813,414.0313 459.9297,413.9531 Q460.0781,413.875 460.2813,413.875 Q460.6094,413.875 460.8672,414.1328 Q461.125,414.3906 461.125,414.7344 Q461.125,415.0781 460.7813,415.4844 Q460.2813,416.0625 459.4844,416.3906 Q458.4063,416.8438 457.1094,416.8438 Q455.5938,416.8438 454.3906,416.2188 Q453.4063,415.7188 452.7188,414.6484 Q452.0313,413.5781 452.0313,412.2969 L452.0313,411.1406 Q452.0313,409.8125 452.6484,408.6641 Q453.2656,407.5156 454.3594,406.8984 Q455.4531,406.2813 456.6875,406.2813 Q457.4219,406.2813 458.0703,406.4453 Q458.7188,406.6094 459.2656,406.9688 Z "/><text fill="#000000" font-family="sans-serif" font-size="14" font-weight="bold" lengthAdjust="spacingAndGlyphs" textLength="135" x="470.5" y="410.5332">ExchangeCardView</text><text fill="#000000" font-family="sans-serif" font-size="10" lengthAdjust="spacingAndGlyphs" textLength="115" x="480.5" y="423.9902">soen6441riskgame.views</text></a><!--class soen6441riskgame.models.Card--><a target="_parent" xlink:actuate="onRequest" xlink:href="../../soen6441riskgame/models/Card.html" xlink:show="new" xlink:title="soen6441riskgame.models.Card" xlink:type="simple"><rect fill="#FFFFFF" filter="url(#fl4cijz77xe8t)" height="40.1875" id="soen6441riskgame.models.Card" style="stroke: #A80036; stroke-width: 1.5;" width="156" x="644" y="391"/><rect fill="#FFFFFF" height="40.1875" style="stroke: #A80036; stroke-width: 1.5;" width="156" x="644" y="391"/><ellipse cx="659" cy="411.0938" fill="#ADD1B2" rx="11" ry="11" style="stroke: #A80036; stroke-width: 1.0;"/><path d="M661.7656,406.9688 Q661.9219,406.75 662.1094,406.6406 Q662.2969,406.5313 662.5156,406.5313 Q662.8906,406.5313 663.125,406.7891 Q663.3594,407.0469 663.3594,407.6563 L663.3594,409.1094 Q663.3594,409.7188 663.125,409.9844 Q662.8906,410.25 662.5156,410.25 Q662.1719,410.25 661.9688,410.0469 Q661.7656,409.8594 661.6563,409.3438 Q661.6094,408.9844 661.4219,408.7969 Q661.0938,408.4219 660.4844,408.2031 Q659.875,407.9844 659.25,407.9844 Q658.4844,407.9844 657.8516,408.3125 Q657.2188,408.6406 656.7266,409.3906 Q656.2344,410.1406 656.2344,411.1719 L656.2344,412.2656 Q656.2344,413.5 657.125,414.3203 Q658.0156,415.1406 659.6094,415.1406 Q660.5469,415.1406 661.2031,414.8906 Q661.5938,414.7344 662.0156,414.2969 Q662.2813,414.0313 662.4297,413.9531 Q662.5781,413.875 662.7813,413.875 Q663.1094,413.875 663.3672,414.1328 Q663.625,414.3906 663.625,414.7344 Q663.625,415.0781 663.2813,415.4844 Q662.7813,416.0625 661.9844,416.3906 Q660.9063,416.8438 659.6094,416.8438 Q658.0938,416.8438 656.8906,416.2188 Q655.9063,415.7188 655.2188,414.6484 Q654.5313,413.5781 654.5313,412.2969 L654.5313,411.1406 Q654.5313,409.8125 655.1484,408.6641 Q655.7656,407.5156 656.8594,406.8984 Q657.9531,406.2813 659.1875,406.2813 Q659.9219,406.2813 660.5703,406.4453 Q661.2188,406.6094 661.7656,406.9688 Z "/><text fill="#000000" font-family="sans-serif" font-size="14" font-weight="bold" lengthAdjust="spacingAndGlyphs" textLength="33" x="718.5" y="410.5332">Card</text><text fill="#000000" font-family="sans-serif" font-size="10" lengthAdjust="spacingAndGlyphs" textLength="124" x="673" y="423.9902">soen6441riskgame.models</text></a><!--class java.io.PrintStream--><rect fill="#D3D3D3" filter="url(#fl4cijz77xe8t)" height="40.1875" id="java.io.PrintStream" style="stroke: #A80036; stroke-width: 1.5;" width="114" x="835" y="391"/><rect fill="#D3D3D3" height="40.1875" style="stroke: #A80036; stroke-width: 1.5;" width="114" x="835" y="391"/><ellipse cx="850" cy="411.0938" fill="#ADD1B2" rx="11" ry="11" style="stroke: #A80036; stroke-width: 1.0;"/><path d="M852.7656,406.9688 Q852.9219,406.75 853.1094,406.6406 Q853.2969,406.5313 853.5156,406.5313 Q853.8906,406.5313 854.125,406.7891 Q854.3594,407.0469 854.3594,407.6563 L854.3594,409.1094 Q854.3594,409.7188 854.125,409.9844 Q853.8906,410.25 853.5156,410.25 Q853.1719,410.25 852.9688,410.0469 Q852.7656,409.8594 852.6563,409.3438 Q852.6094,408.9844 852.4219,408.7969 Q852.0938,408.4219 851.4844,408.2031 Q850.875,407.9844 850.25,407.9844 Q849.4844,407.9844 848.8516,408.3125 Q848.2188,408.6406 847.7266,409.3906 Q847.2344,410.1406 847.2344,411.1719 L847.2344,412.2656 Q847.2344,413.5 848.125,414.3203 Q849.0156,415.1406 850.6094,415.1406 Q851.5469,415.1406 852.2031,414.8906 Q852.5938,414.7344 853.0156,414.2969 Q853.2813,414.0313 853.4297,413.9531 Q853.5781,413.875 853.7813,413.875 Q854.1094,413.875 854.3672,414.1328 Q854.625,414.3906 854.625,414.7344 Q854.625,415.0781 854.2813,415.4844 Q853.7813,416.0625 852.9844,416.3906 Q851.9063,416.8438 850.6094,416.8438 Q849.0938,416.8438 847.8906,416.2188 Q846.9063,415.7188 846.2188,414.6484 Q845.5313,413.5781 845.5313,412.2969 L845.5313,411.1406 Q845.5313,409.8125 846.1484,408.6641 Q846.7656,407.5156 847.8594,406.8984 Q848.9531,406.2813 850.1875,406.2813 Q850.9219,406.2813 851.5703,406.4453 Q852.2188,406.6094 852.7656,406.9688 Z "/><text fill="#000000" font-family="sans-serif" font-size="14" font-weight="bold" lengthAdjust="spacingAndGlyphs" textLength="82" x="864" y="410.5332">PrintStream</text><text fill="#000000" font-family="sans-serif" font-size="10" lengthAdjust="spacingAndGlyphs" textLength="32" x="889" y="423.9902">java.io</text><!--class soen6441riskgame.singleton.Resettable--><a target="_parent" xlink:actuate="onRequest" xlink:href="../../soen6441riskgame/singleton/Resettable.html" xlink:show="new" xlink:title="soen6441riskgame.singleton.Resettable" xlink:type="simple"><rect fill="#FEFECE" filter="url(#fl4cijz77xe8t)" height="40.1875" id="soen6441riskgame.singleton.Resettable" style="stroke: #A80036; stroke-width: 1.5;" width="167" x="984.5" y="391"/><ellipse cx="999.5" cy="411.0938" fill="#B4A7E5" rx="11" ry="11" style="stroke: #A80036; stroke-width: 1.0;"/><path d="M1000.4531,407.7344 L1000.4531,414.3906 L1002.1719,414.3906 Q1002.7813,414.3906 1003.0469,414.625 Q1003.3125,414.8594 1003.3125,415.25 Q1003.3125,415.625 1003.0469,415.8594 Q1002.7813,416.0938 1002.1719,416.0938 L997.0313,416.0938 Q996.4219,416.0938 996.1563,415.8594 Q995.8906,415.625 995.8906,415.2344 Q995.8906,414.8594 996.1563,414.625 Q996.4219,414.3906 997.0313,414.3906 L998.75,414.3906 L998.75,407.7344 L997.0313,407.7344 Q996.4219,407.7344 996.1563,407.5 Q995.8906,407.2656 995.8906,406.875 Q995.8906,406.5 996.1563,406.2656 Q996.4219,406.0313 997.0313,406.0313 L1002.1719,406.0313 Q1002.7813,406.0313 1003.0469,406.2656 Q1003.3125,406.5 1003.3125,406.875 Q1003.3125,407.2656 1003.0469,407.5 Q1002.7813,407.7344 1002.1719,407.7344 L1000.4531,407.7344 Z "/><text fill="#000000" font-family="sans-serif" font-size="14" font-style="italic" font-weight="bold" lengthAdjust="spacingAndGlyphs" textLength="72" x="1045" y="410.5332">Resettable</text><text fill="#000000" font-family="sans-serif" font-size="10" font-style="italic" lengthAdjust="spacingAndGlyphs" textLength="135" x="1013.5" y="423.9902">soen6441riskgame.singleton</text></a><!--class soen6441riskgame.enums.CardType--><a target="_parent" xlink:actuate="onRequest" xlink:href="../../soen6441riskgame/enums/CardType.html" xlink:show="new" xlink:title="soen6441riskgame.enums.CardType" xlink:type="simple"><rect fill="#FFFFFF" filter="url(#fl4cijz77xe8t)" height="40.1875" id="soen6441riskgame.enums.CardType" style="stroke: #A80036; stroke-width: 1.5;" width="153" x="1186.5" y="391"/><rect fill="#FFFFFF" height="40.1875" style="stroke: #A80036; stroke-width: 1.5;" width="153" x="1186.5" y="391"/><ellipse cx="1201.5" cy="411.0938" fill="#EB937F" rx="11" ry="11" style="stroke: #A80036; stroke-width: 1.0;"/><path d="M1200.3594,411.8906 L1200.3594,414.3906 L1204.6875,414.3906 L1204.6875,413.4688 Q1204.6875,412.8594 1204.9297,412.5938 Q1205.1719,412.3281 1205.5469,412.3281 Q1205.9219,412.3281 1206.1563,412.5938 Q1206.3906,412.8594 1206.3906,413.4688 L1206.3906,416.0938 L1198.3906,416.0938 Q1197.7656,416.0938 1197.5078,415.8594 Q1197.25,415.625 1197.25,415.2344 Q1197.25,414.8594 1197.5156,414.625 Q1197.7813,414.3906 1198.3906,414.3906 L1198.6563,414.3906 L1198.6563,407.7344 L1198.3906,407.7344 Q1197.7656,407.7344 1197.5078,407.5 Q1197.25,407.2656 1197.25,406.875 Q1197.25,406.5 1197.5078,406.2656 Q1197.7656,406.0313 1198.3906,406.0313 L1206.0156,406.0313 L1206.0156,408.625 Q1206.0156,409.2344 1205.7891,409.4922 Q1205.5625,409.75 1205.1719,409.75 Q1204.7969,409.75 1204.5625,409.4922 Q1204.3281,409.2344 1204.3281,408.625 L1204.3281,407.7344 L1200.3594,407.7344 L1200.3594,410.1875 L1201.8438,410.1875 Q1201.8438,409.5313 1201.9688,409.3438 Q1202.2344,408.9375 1202.7031,408.9375 Q1203.0781,408.9375 1203.3125,409.1953 Q1203.5469,409.4531 1203.5469,410.0625 L1203.5469,412.0313 Q1203.5469,412.5781 1203.4219,412.7656 Q1203.1563,413.1563 1202.7031,413.1563 Q1202.2344,413.1563 1201.9688,412.75 Q1201.8438,412.5625 1201.8438,411.8906 L1200.3594,411.8906 Z "/><text fill="#000000" font-family="sans-serif" font-size="14" font-weight="bold" lengthAdjust="spacingAndGlyphs" textLength="66" x="1243" y="410.5332">CardType</text><text fill="#000000" font-family="sans-serif" font-size="10" lengthAdjust="spacingAndGlyphs" textLength="121" x="1215.5" y="423.9902">soen6441riskgame.enums</text></a><!--link soen6441riskgame.singleton.GameBoard to soen6441riskgame.singleton.GameBoard--><path d="M722,25.924 C722,14.9 722,8 722,8 C722,8 912,8 912,8 C912,8 912,361 912,361 C912,361 861.667,361 861.667,361 C861.667,361 861.667,336.272 861.667,336.272 " fill="none" id="soen6441riskgame.singleton.GameBoard-soen6441riskgame.singleton.GameBoard" style="stroke: #A80036; stroke-width: 1.0;"/><polygon fill="#A80036" points="861.667,331.272,857.667,340.272,861.667,336.272,865.667,340.272,861.667,331.272" style="stroke: #A80036; stroke-width: 1.0;"/><text fill="#000000" font-family="sans-serif" font-size="13" lengthAdjust="spacingAndGlyphs" textLength="49" x="818.2454" y="352.5573">instance</text><!--link soen6441riskgame.singleton.GameBoard to soen6441riskgame.singleton.GameBoardPlayer--><path d="M568.777,128 C391.598,128 124,128 124,128 C124,128 124,385.6473 124,385.6473 " fill="none" id="soen6441riskgame.singleton.GameBoard-soen6441riskgame.singleton.GameBoardPlayer" style="stroke: #A80036; stroke-width: 1.0;"/><polygon fill="#A80036" points="124,390.6473,128,381.6473,124,385.6473,120,381.6473,124,390.6473" style="stroke: #A80036; stroke-width: 1.0;"/><text fill="#000000" font-family="sans-serif" font-size="13" lengthAdjust="spacingAndGlyphs" textLength="103" x="6.5156" y="380.1913">gameBoardPlayer</text><!--link soen6441riskgame.singleton.GameBoard to soen6441riskgame.singleton.GameBoardMap--><path d="M568.977,230 C456.798,230 324,230 324,230 C324,230 324,385.9383 324,385.9383 " fill="none" id="soen6441riskgame.singleton.GameBoard-soen6441riskgame.singleton.GameBoardMap" style="stroke: #A80036; stroke-width: 1.0;"/><polygon fill="#A80036" points="324,390.9383,328,381.9383,324,385.9383,320,381.9383,324,390.9383" style="stroke: #A80036; stroke-width: 1.0;"/><text fill="#000000" font-family="sans-serif" font-size="13" lengthAdjust="spacingAndGlyphs" textLength="91" x="219.6344" y="380.2144">gameBoardMap</text><!--link soen6441riskgame.singleton.GameBoard to soen6441riskgame.views.ExchangeCardView--><path d="M588.75,331.312 C588.75,331.312 588.75,385.8229 588.75,385.8229 " fill="none" id="soen6441riskgame.singleton.GameBoard-soen6441riskgame.views.ExchangeCardView" style="stroke: #A80036; stroke-width: 1.0;"/><polygon fill="#A80036" points="588.75,390.8229,592.75,381.8229,588.75,385.8229,584.75,381.8229,588.75,390.8229" style="stroke: #A80036; stroke-width: 1.0;"/><text fill="#000000" font-family="sans-serif" font-size="13" lengthAdjust="spacingAndGlyphs" textLength="111" x="480.1734" y="380.0651">exchangeCardView</text><!--link soen6441riskgame.singleton.GameBoard to soen6441riskgame.models.Card--><path d="M722,331.312 C722,331.312 722,385.8229 722,385.8229 " fill="none" id="soen6441riskgame.singleton.GameBoard-soen6441riskgame.models.Card" style="stroke: #A80036; stroke-width: 1.0;"/><polygon fill="#A80036" points="722,390.8229,726,381.8229,722,385.8229,718,381.8229,722,390.8229" style="stroke: #A80036; stroke-width: 1.0;"/><text fill="#000000" font-family="sans-serif" font-size="13" lengthAdjust="spacingAndGlyphs" textLength="32" x="685.3" y="380.0651">cards</text><!--link soen6441riskgame.singleton.GameBoard to java.io.PrintStream--><path d="M848.333,331.312 C848.333,331.312 848.333,385.8229 848.333,385.8229 " fill="none" id="soen6441riskgame.singleton.GameBoard-java.io.PrintStream" style="stroke: #A80036; stroke-width: 1.0;"/><polygon fill="#A80036" points="848.333,390.8229,852.333,381.8229,848.333,385.8229,844.333,381.8229,848.333,390.8229" style="stroke: #A80036; stroke-width: 1.0;"/><text fill="#000000" font-family="sans-serif" font-size="13" lengthAdjust="spacingAndGlyphs" textLength="119" x="748.9652" y="380.0651">standardPrintStream</text><!--link soen6441riskgame.singleton.GameBoard to soen6441riskgame.singleton.Resettable--><path d="M875.02,230 C967.638,230 1068,230 1068,230 C1068,230 1068,370.9383 1068,370.9383 " fill="none" id="soen6441riskgame.singleton.GameBoard-soen6441riskgame.singleton.Resettable" style="stroke: #A80036; stroke-width: 1.0; stroke-dasharray: 7.0,7.0;"/><polygon fill="none" points="1075,370.9383,1068,390.9383,1061,370.9382,1075,370.9383" style="stroke: #A80036; stroke-width: 1.0;"/><!--link soen6441riskgame.singleton.GameBoard to soen6441riskgame.enums.CardType--><path d="M875.221,128 C1035.18,128 1263,128 1263,128 C1263,128 1263,385.6473 1263,385.6473 " fill="none" id="soen6441riskgame.singleton.GameBoard-soen6441riskgame.enums.CardType" style="stroke: #A80036; stroke-width: 1.0; stroke-dasharray: 7.0,7.0;"/><polygon fill="#A80036" points="1263,390.6473,1267,381.6473,1263,385.6473,1259,381.6473,1263,390.6473" style="stroke: #A80036; stroke-width: 1.0;"/><!--
@startuml

skinparam svgLinkTarget _parent
skinparam linetype ortho
set namespaceSeparator none
class "<b><size:14>GameBoard</b>\n<size:10>soen6441riskgame.singleton" as soen6441riskgame.singleton.GameBoard  [[../../soen6441riskgame/singleton/GameBoard.html{soen6441riskgame.singleton.GameBoard}]] {
+PrintStream standardPrintStream
{static} -int NUMBER_OF_CARDS
{static} -GameBoard instance
-GameBoardPlayer gameBoardPlayer
-GameBoardMap gameBoardMap
-ExchangeCardView exchangeCardView
-Card cards
+GameBoard()
+void initCards()
+Card getSpecificCardForTest(CardType cardType)
+Card getCardsForSaveLoad()
+Card getRandomAvailableCard()
+ExchangeCardView getExchangeCardView()
+GameBoardPlayer getGameBoardPlayer()
+GameBoardMap getGameBoardMap()
{static} +void setTestingInstance(GameBoard newTestingInstance)
{static} +GameBoard getInstance()
+void reset()
}


soen6441riskgame.singleton.GameBoard - ->  "instance" soen6441riskgame.singleton.GameBoard

class "<b><size:14>GameBoardPlayer</b>\n<size:10>soen6441riskgame.singleton" as soen6441riskgame.singleton.GameBoardPlayer  [[../../soen6441riskgame/singleton/GameBoardPlayer.html{soen6441riskgame.singleton.GameBoardPlayer}]] {
}

hide soen6441riskgame.singleton.GameBoardPlayer fields
hide soen6441riskgame.singleton.GameBoardPlayer methods

soen6441riskgame.singleton.GameBoard - ->  "gameBoardPlayer" soen6441riskgame.singleton.GameBoardPlayer

class "<b><size:14>GameBoardMap</b>\n<size:10>soen6441riskgame.singleton" as soen6441riskgame.singleton.GameBoardMap  [[../../soen6441riskgame/singleton/GameBoardMap.html{soen6441riskgame.singleton.GameBoardMap}]] {
}

hide soen6441riskgame.singleton.GameBoardMap fields
hide soen6441riskgame.singleton.GameBoardMap methods

soen6441riskgame.singleton.GameBoard - ->  "gameBoardMap" soen6441riskgame.singleton.GameBoardMap

class "<b><size:14>ExchangeCardView</b>\n<size:10>soen6441riskgame.views" as soen6441riskgame.views.ExchangeCardView  [[../../soen6441riskgame/views/ExchangeCardView.html{soen6441riskgame.views.ExchangeCardView}]] #white {
}

hide soen6441riskgame.views.ExchangeCardView fields
hide soen6441riskgame.views.ExchangeCardView methods

soen6441riskgame.singleton.GameBoard - ->  "exchangeCardView" soen6441riskgame.views.ExchangeCardView

class "<b><size:14>Card</b>\n<size:10>soen6441riskgame.models" as soen6441riskgame.models.Card  [[../../soen6441riskgame/models/Card.html{soen6441riskgame.models.Card}]] #white {
}

hide soen6441riskgame.models.Card fields
hide soen6441riskgame.models.Card methods

soen6441riskgame.singleton.GameBoard - ->  "cards" soen6441riskgame.models.Card

class "<b><size:14>PrintStream</b>\n<size:10>java.io" as java.io.PrintStream  #lightgrey {
}

hide java.io.PrintStream fields
hide java.io.PrintStream methods

soen6441riskgame.singleton.GameBoard - ->  "standardPrintStream" java.io.PrintStream

interface "<b><size:14>Resettable</b>\n<size:10>soen6441riskgame.singleton" as soen6441riskgame.singleton.Resettable  [[../../soen6441riskgame/singleton/Resettable.html{soen6441riskgame.singleton.Resettable}]] {
}

hide soen6441riskgame.singleton.Resettable fields
hide soen6441riskgame.singleton.Resettable methods

soen6441riskgame.singleton.GameBoard ..|> soen6441riskgame.singleton.Resettable

enum "<b><size:14>CardType</b>\n<size:10>soen6441riskgame.enums" as soen6441riskgame.enums.CardType  [[../../soen6441riskgame/enums/CardType.html{soen6441riskgame.enums.CardType}]] #white {
}

hide soen6441riskgame.enums.CardType fields
hide soen6441riskgame.enums.CardType methods

soen6441riskgame.singleton.GameBoard ..> soen6441riskgame.enums.CardType


@enduml

PlantUML version 1.2017.15(Mon Jul 03 12:45:34 EDT 2017)
(GPL source distribution)
Java Runtime: Java(TM) SE Runtime Environment
JVM: Java HotSpot(TM) 64-Bit Server VM
Java Version: 1.8.0_231-b11
Operating System: Windows 10
OS Version: 10.0
Default Encoding: Cp1252
Language: en
Country: US
--></g></svg>