<?xml version="1.0" encoding="UTF-8" standalone="no"?><svg xmlns="http://www.w3.org/2000/svg" xmlns:xlink="http://www.w3.org/1999/xlink" contentScriptType="application/ecmascript" contentStyleType="text/css" height="386px" preserveAspectRatio="none" style="width:557px;height:386px;" version="1.1" viewBox="0 0 557 386" width="557px" zoomAndPan="magnify"><defs><filter height="300%" id="f1ds507x7mdu9i" width="300%" x="-1" y="-1"><feGaussianBlur result="blurOut" stdDeviation="2.0"/><feColorMatrix in="blurOut" result="blurOut2" type="matrix" values="0 0 0 0 0 0 0 0 0 0 0 0 0 0 0 0 0 0 .4 0"/><feOffset dx="4.0" dy="4.0" in="blurOut2" result="blurOut3"/><feBlend in="SourceGraphic" in2="blurOut3" mode="normal"/></filter></defs><g><!--class soen6441riskgame.singleton.GameBoardPlayer--><a target="_parent" xlink:actuate="onRequest" xlink:href="../../soen6441riskgame/singleton/GameBoardPlayer.html" xlink:show="new" xlink:title="soen6441riskgame.singleton.GameBoardPlayer" xlink:type="simple"><rect fill="#FEFECE" filter="url(#f1ds507x7mdu9i)" height="166.875" id="soen6441riskgame.singleton.GameBoardPlayer" style="stroke: #A80036; stroke-width: 1.5;" width="220" x="161" y="108"/><ellipse cx="200.75" cy="128.0938" fill="#ADD1B2" rx="11" ry="11" style="stroke: #A80036; stroke-width: 1.0;"/><path d="M203.5156,123.9688 Q203.6719,123.75 203.8594,123.6406 Q204.0469,123.5313 204.2656,123.5313 Q204.6406,123.5313 204.875,123.7891 Q205.1094,124.0469 205.1094,124.6563 L205.1094,126.1094 Q205.1094,126.7188 204.875,126.9844 Q204.6406,127.25 204.2656,127.25 Q203.9219,127.25 203.7188,127.0469 Q203.5156,126.8594 203.4063,126.3438 Q203.3594,125.9844 203.1719,125.7969 Q202.8438,125.4219 202.2344,125.2031 Q201.625,124.9844 201,124.9844 Q200.2344,124.9844 199.6016,125.3125 Q198.9688,125.6406 198.4766,126.3906 Q197.9844,127.1406 197.9844,128.1719 L197.9844,129.2656 Q197.9844,130.5 198.875,131.3203 Q199.7656,132.1406 201.3594,132.1406 Q202.2969,132.1406 202.9531,131.8906 Q203.3438,131.7344 203.7656,131.2969 Q204.0313,131.0313 204.1797,130.9531 Q204.3281,130.875 204.5313,130.875 Q204.8594,130.875 205.1172,131.1328 Q205.375,131.3906 205.375,131.7344 Q205.375,132.0781 205.0313,132.4844 Q204.5313,133.0625 203.7344,133.3906 Q202.6563,133.8438 201.3594,133.8438 Q199.8438,133.8438 198.6406,133.2188 Q197.6563,132.7188 196.9688,131.6484 Q196.2813,130.5781 196.2813,129.2969 L196.2813,128.1406 Q196.2813,126.8125 196.8984,125.6641 Q197.5156,124.5156 198.6094,123.8984 Q199.7031,123.2813 200.9375,123.2813 Q201.6719,123.2813 202.3203,123.4453 Q202.9688,123.6094 203.5156,123.9688 Z "/><text fill="#000000" font-family="sans-serif" font-size="14" font-weight="bold" lengthAdjust="spacingAndGlyphs" textLength="125" x="224.25" y="127.5332">GameBoardPlayer</text><text fill="#000000" font-family="sans-serif" font-size="10" lengthAdjust="spacingAndGlyphs" textLength="133" x="220.25" y="140.9902">soen6441riskgame.singleton</text><line style="stroke: #A80036; stroke-width: 1.5;" x1="162" x2="380" y1="148.1875" y2="148.1875"/><rect fill="none" height="6" style="stroke: #C82930; stroke-width: 1.0;" width="6" x="169" y="157.6055"/><text fill="#000000" font-family="sans-serif" font-size="11" lengthAdjust="spacingAndGlyphs" textLength="126" x="181" y="163.6064">ArrayList&lt;Player&gt; players</text><rect fill="none" height="6" style="stroke: #C82930; stroke-width: 1.0;" width="6" x="169" y="171.4414"/><text fill="#000000" font-family="sans-serif" font-size="11" lengthAdjust="spacingAndGlyphs" textLength="115" x="181" y="177.4424">PhaseView phaseView</text><line style="stroke: #A80036; stroke-width: 1.5;" x1="162" x2="380" y1="183.8594" y2="183.8594"/><ellipse cx="172" cy="196.2773" fill="#84BE84" rx="3" ry="3" style="stroke: #038048; stroke-width: 1.0;"/><text fill="#000000" font-family="sans-serif" font-size="11" lengthAdjust="spacingAndGlyphs" textLength="95" x="181" y="199.2783">GameBoardPlayer()</text><ellipse cx="172" cy="210.1133" fill="#84BE84" rx="3" ry="3" style="stroke: #038048; stroke-width: 1.0;"/><text fill="#000000" font-family="sans-serif" font-size="11" lengthAdjust="spacingAndGlyphs" textLength="149" x="181" y="213.1143">ArrayList&lt;Player&gt; getPlayers()</text><ellipse cx="172" cy="223.9492" fill="#84BE84" rx="3" ry="3" style="stroke: #038048; stroke-width: 1.0;"/><text fill="#000000" font-family="sans-serif" font-size="11" lengthAdjust="spacingAndGlyphs" textLength="194" x="181" y="226.9502">Player getPlayerFromName(String name)</text><ellipse cx="172" cy="237.7852" fill="#84BE84" rx="3" ry="3" style="stroke: #038048; stroke-width: 1.0;"/><text fill="#000000" font-family="sans-serif" font-size="11" lengthAdjust="spacingAndGlyphs" textLength="136" x="181" y="240.7861">void addPlayer(String name)</text><ellipse cx="172" cy="251.6211" fill="#84BE84" rx="3" ry="3" style="stroke: #038048; stroke-width: 1.0;"/><text fill="#000000" font-family="sans-serif" font-size="11" lengthAdjust="spacingAndGlyphs" textLength="154" x="181" y="254.6221">void removePlayer(String name)</text><ellipse cx="172" cy="265.457" fill="#84BE84" rx="3" ry="3" style="stroke: #038048; stroke-width: 1.0;"/><text fill="#000000" font-family="sans-serif" font-size="11" lengthAdjust="spacingAndGlyphs" textLength="56" x="181" y="268.458">void reset()</text></a><!--class soen6441riskgame.singleton.GameBoard--><a target="_parent" xlink:actuate="onRequest" xlink:href="../../soen6441riskgame/singleton/GameBoard.html" xlink:show="new" xlink:title="soen6441riskgame.singleton.GameBoard" xlink:type="simple"><rect fill="#FEFECE" filter="url(#f1ds507x7mdu9i)" height="40.1875" id="soen6441riskgame.singleton.GameBoard" style="stroke: #A80036; stroke-width: 1.5;" width="165" x="188.5" y="8"/><ellipse cx="203.5" cy="28.0938" fill="#ADD1B2" rx="11" ry="11" style="stroke: #A80036; stroke-width: 1.0;"/><path d="M206.2656,23.9688 Q206.4219,23.75 206.6094,23.6406 Q206.7969,23.5313 207.0156,23.5313 Q207.3906,23.5313 207.625,23.7891 Q207.8594,24.0469 207.8594,24.6563 L207.8594,26.1094 Q207.8594,26.7188 207.625,26.9844 Q207.3906,27.25 207.0156,27.25 Q206.6719,27.25 206.4688,27.0469 Q206.2656,26.8594 206.1563,26.3438 Q206.1094,25.9844 205.9219,25.7969 Q205.5938,25.4219 204.9844,25.2031 Q204.375,24.9844 203.75,24.9844 Q202.9844,24.9844 202.3516,25.3125 Q201.7188,25.6406 201.2266,26.3906 Q200.7344,27.1406 200.7344,28.1719 L200.7344,29.2656 Q200.7344,30.5 201.625,31.3203 Q202.5156,32.1406 204.1094,32.1406 Q205.0469,32.1406 205.7031,31.8906 Q206.0938,31.7344 206.5156,31.2969 Q206.7813,31.0313 206.9297,30.9531 Q207.0781,30.875 207.2813,30.875 Q207.6094,30.875 207.8672,31.1328 Q208.125,31.3906 208.125,31.7344 Q208.125,32.0781 207.7813,32.4844 Q207.2813,33.0625 206.4844,33.3906 Q205.4063,33.8438 204.1094,33.8438 Q202.5938,33.8438 201.3906,33.2188 Q200.4063,32.7188 199.7188,31.6484 Q199.0313,30.5781 199.0313,29.2969 L199.0313,28.1406 Q199.0313,26.8125 199.6484,25.6641 Q200.2656,24.5156 201.3594,23.8984 Q202.4531,23.2813 203.6875,23.2813 Q204.4219,23.2813 205.0703,23.4453 Q205.7188,23.6094 206.2656,23.9688 Z "/><text fill="#000000" font-family="sans-serif" font-size="14" font-weight="bold" lengthAdjust="spacingAndGlyphs" textLength="82" x="243" y="27.5332">GameBoard</text><text fill="#000000" font-family="sans-serif" font-size="10" lengthAdjust="spacingAndGlyphs" textLength="133" x="217.5" y="40.9902">soen6441riskgame.singleton</text></a><!--class soen6441riskgame.models.Player--><a target="_parent" xlink:actuate="onRequest" xlink:href="../../soen6441riskgame/models/Player.html" xlink:show="new" xlink:title="soen6441riskgame.models.Player" xlink:type="simple"><rect fill="#FFFFFF" filter="url(#f1ds507x7mdu9i)" height="40.1875" id="soen6441riskgame.models.Player" style="stroke: #A80036; stroke-width: 1.5;" width="156" x="6" y="335"/><rect fill="#FFFFFF" height="40.1875" style="stroke: #A80036; stroke-width: 1.5;" width="156" x="6" y="335"/><ellipse cx="21" cy="355.0938" fill="#ADD1B2" rx="11" ry="11" style="stroke: #A80036; stroke-width: 1.0;"/><path d="M23.7656,350.9688 Q23.9219,350.75 24.1094,350.6406 Q24.2969,350.5313 24.5156,350.5313 Q24.8906,350.5313 25.125,350.7891 Q25.3594,351.0469 25.3594,351.6563 L25.3594,353.1094 Q25.3594,353.7188 25.125,353.9844 Q24.8906,354.25 24.5156,354.25 Q24.1719,354.25 23.9688,354.0469 Q23.7656,353.8594 23.6563,353.3438 Q23.6094,352.9844 23.4219,352.7969 Q23.0938,352.4219 22.4844,352.2031 Q21.875,351.9844 21.25,351.9844 Q20.4844,351.9844 19.8516,352.3125 Q19.2188,352.6406 18.7266,353.3906 Q18.2344,354.1406 18.2344,355.1719 L18.2344,356.2656 Q18.2344,357.5 19.125,358.3203 Q20.0156,359.1406 21.6094,359.1406 Q22.5469,359.1406 23.2031,358.8906 Q23.5938,358.7344 24.0156,358.2969 Q24.2813,358.0313 24.4297,357.9531 Q24.5781,357.875 24.7813,357.875 Q25.1094,357.875 25.3672,358.1328 Q25.625,358.3906 25.625,358.7344 Q25.625,359.0781 25.2813,359.4844 Q24.7813,360.0625 23.9844,360.3906 Q22.9063,360.8438 21.6094,360.8438 Q20.0938,360.8438 18.8906,360.2188 Q17.9063,359.7188 17.2188,358.6484 Q16.5313,357.5781 16.5313,356.2969 L16.5313,355.1406 Q16.5313,353.8125 17.1484,352.6641 Q17.7656,351.5156 18.8594,350.8984 Q19.9531,350.2813 21.1875,350.2813 Q21.9219,350.2813 22.5703,350.4453 Q23.2188,350.6094 23.7656,350.9688 Z "/><text fill="#000000" font-family="sans-serif" font-size="14" font-weight="bold" lengthAdjust="spacingAndGlyphs" textLength="43" x="75.5" y="354.5332">Player</text><text fill="#000000" font-family="sans-serif" font-size="10" lengthAdjust="spacingAndGlyphs" textLength="124" x="35" y="367.9902">soen6441riskgame.models</text></a><!--class soen6441riskgame.views.PhaseView--><a target="_parent" xlink:actuate="onRequest" xlink:href="../../soen6441riskgame/views/PhaseView.html" xlink:show="new" xlink:title="soen6441riskgame.views.PhaseView" xlink:type="simple"><rect fill="#FFFFFF" filter="url(#f1ds507x7mdu9i)" height="40.1875" id="soen6441riskgame.views.PhaseView" style="stroke: #A80036; stroke-width: 1.5;" width="147" x="197.5" y="335"/><rect fill="#FFFFFF" height="40.1875" style="stroke: #A80036; stroke-width: 1.5;" width="147" x="197.5" y="335"/><ellipse cx="212.5" cy="355.0938" fill="#ADD1B2" rx="11" ry="11" style="stroke: #A80036; stroke-width: 1.0;"/><path d="M215.2656,350.9688 Q215.4219,350.75 215.6094,350.6406 Q215.7969,350.5313 216.0156,350.5313 Q216.3906,350.5313 216.625,350.7891 Q216.8594,351.0469 216.8594,351.6563 L216.8594,353.1094 Q216.8594,353.7188 216.625,353.9844 Q216.3906,354.25 216.0156,354.25 Q215.6719,354.25 215.4688,354.0469 Q215.2656,353.8594 215.1563,353.3438 Q215.1094,352.9844 214.9219,352.7969 Q214.5938,352.4219 213.9844,352.2031 Q213.375,351.9844 212.75,351.9844 Q211.9844,351.9844 211.3516,352.3125 Q210.7188,352.6406 210.2266,353.3906 Q209.7344,354.1406 209.7344,355.1719 L209.7344,356.2656 Q209.7344,357.5 210.625,358.3203 Q211.5156,359.1406 213.1094,359.1406 Q214.0469,359.1406 214.7031,358.8906 Q215.0938,358.7344 215.5156,358.2969 Q215.7813,358.0313 215.9297,357.9531 Q216.0781,357.875 216.2813,357.875 Q216.6094,357.875 216.8672,358.1328 Q217.125,358.3906 217.125,358.7344 Q217.125,359.0781 216.7813,359.4844 Q216.2813,360.0625 215.4844,360.3906 Q214.4063,360.8438 213.1094,360.8438 Q211.5938,360.8438 210.3906,360.2188 Q209.4063,359.7188 208.7188,358.6484 Q208.0313,357.5781 208.0313,356.2969 L208.0313,355.1406 Q208.0313,353.8125 208.6484,352.6641 Q209.2656,351.5156 210.3594,350.8984 Q211.4531,350.2813 212.6875,350.2813 Q213.4219,350.2813 214.0703,350.4453 Q214.7188,350.6094 215.2656,350.9688 Z "/><text fill="#000000" font-family="sans-serif" font-size="14" font-weight="bold" lengthAdjust="spacingAndGlyphs" textLength="76" x="246" y="354.5332">PhaseView</text><text fill="#000000" font-family="sans-serif" font-size="10" lengthAdjust="spacingAndGlyphs" textLength="115" x="226.5" y="367.9902">soen6441riskgame.views</text></a><!--class soen6441riskgame.singleton.Resettable--><a target="_parent" xlink:actuate="onRequest" xlink:href="../../soen6441riskgame/singleton/Resettable.html" xlink:show="new" xlink:title="soen6441riskgame.singleton.Resettable" xlink:type="simple"><rect fill="#FEFECE" filter="url(#f1ds507x7mdu9i)" height="40.1875" id="soen6441riskgame.singleton.Resettable" style="stroke: #A80036; stroke-width: 1.5;" width="167" x="379.5" y="335"/><ellipse cx="394.5" cy="355.0938" fill="#B4A7E5" rx="11" ry="11" style="stroke: #A80036; stroke-width: 1.0;"/><path d="M395.4531,351.7344 L395.4531,358.3906 L397.1719,358.3906 Q397.7813,358.3906 398.0469,358.625 Q398.3125,358.8594 398.3125,359.25 Q398.3125,359.625 398.0469,359.8594 Q397.7813,360.0938 397.1719,360.0938 L392.0313,360.0938 Q391.4219,360.0938 391.1563,359.8594 Q390.8906,359.625 390.8906,359.2344 Q390.8906,358.8594 391.1563,358.625 Q391.4219,358.3906 392.0313,358.3906 L393.75,358.3906 L393.75,351.7344 L392.0313,351.7344 Q391.4219,351.7344 391.1563,351.5 Q390.8906,351.2656 390.8906,350.875 Q390.8906,350.5 391.1563,350.2656 Q391.4219,350.0313 392.0313,350.0313 L397.1719,350.0313 Q397.7813,350.0313 398.0469,350.2656 Q398.3125,350.5 398.3125,350.875 Q398.3125,351.2656 398.0469,351.5 Q397.7813,351.7344 397.1719,351.7344 L395.4531,351.7344 Z "/><text fill="#000000" font-family="sans-serif" font-size="14" font-style="italic" font-weight="bold" lengthAdjust="spacingAndGlyphs" textLength="72" x="440" y="354.5332">Resettable</text><text fill="#000000" font-family="sans-serif" font-size="10" font-style="italic" lengthAdjust="spacingAndGlyphs" textLength="135" x="408.5" y="367.9902">soen6441riskgame.singleton</text></a><!--link soen6441riskgame.singleton.GameBoard to soen6441riskgame.singleton.GameBoardPlayer--><path d="M271,48.048 C271,48.048 271,102.759 271,102.759 " fill="none" id="soen6441riskgame.singleton.GameBoard-soen6441riskgame.singleton.GameBoardPlayer" style="stroke: #A80036; stroke-width: 1.0;"/><polygon fill="#A80036" points="271,107.759,275,98.759,271,102.759,267,98.759,271,107.759" style="stroke: #A80036; stroke-width: 1.0;"/><text fill="#000000" font-family="sans-serif" font-size="13" lengthAdjust="spacingAndGlyphs" textLength="103" x="163.4133" y="97.1047">gameBoardPlayer</text><!--link soen6441riskgame.singleton.GameBoardPlayer to soen6441riskgame.models.Player--><path d="M179.75,275.1659 C179.75,315.3924 179.75,355 179.75,355 C179.75,355 167.188,355 167.188,355 " fill="none" id="soen6441riskgame.singleton.GameBoardPlayer-soen6441riskgame.models.Player" style="stroke: #A80036; stroke-width: 1.0; stroke-dasharray: 7.0,7.0;"/><polygon fill="#A80036" points="162.188,355,171.188,359,167.188,355,171.188,351,162.188,355" style="stroke: #A80036; stroke-width: 1.0;"/><!--link soen6441riskgame.singleton.GameBoardPlayer to soen6441riskgame.views.PhaseView--><path d="M271,275.1659 C271,275.1659 271,329.88 271,329.88 " fill="none" id="soen6441riskgame.singleton.GameBoardPlayer-soen6441riskgame.views.PhaseView" style="stroke: #A80036; stroke-width: 1.0;"/><polygon fill="#A80036" points="271,334.88,275,325.88,271,329.88,267,325.88,271,334.88" style="stroke: #A80036; stroke-width: 1.0;"/><text fill="#000000" font-family="sans-serif" font-size="13" lengthAdjust="spacingAndGlyphs" textLength="63" x="198.7469" y="324.139">phaseView</text><!--link soen6441riskgame.singleton.GameBoardPlayer to soen6441riskgame.singleton.Resettable--><path d="M362,275.1659 C362,315.3924 362,355 362,355 C362,355 363.713,355 363.713,355 " fill="none" id="soen6441riskgame.singleton.GameBoardPlayer-soen6441riskgame.singleton.Resettable" style="stroke: #A80036; stroke-width: 1.0; stroke-dasharray: 7.0,7.0;"/><polygon fill="none" points="359.133,347.9999,379.133,355,359.133,361.9999,359.133,347.9999" style="stroke: #A80036; stroke-width: 1.0;"/><!--
@startuml

skinparam svgLinkTarget _parent
skinparam linetype ortho
set namespaceSeparator none
class "<b><size:14>GameBoardPlayer</b>\n<size:10>soen6441riskgame.singleton" as soen6441riskgame.singleton.GameBoardPlayer  [[../../soen6441riskgame/singleton/GameBoardPlayer.html{soen6441riskgame.singleton.GameBoardPlayer}]] {
-ArrayList<Player> players
-PhaseView phaseView
+GameBoardPlayer()
+ArrayList<Player> getPlayers()
+Player getPlayerFromName(String name)
+void addPlayer(String name)
+void removePlayer(String name)
+void reset()
}


class "<b><size:14>GameBoard</b>\n<size:10>soen6441riskgame.singleton" as soen6441riskgame.singleton.GameBoard  [[../../soen6441riskgame/singleton/GameBoard.html{soen6441riskgame.singleton.GameBoard}]] {
}

hide soen6441riskgame.singleton.GameBoard fields
hide soen6441riskgame.singleton.GameBoard methods

soen6441riskgame.singleton.GameBoard - ->  "gameBoardPlayer" soen6441riskgame.singleton.GameBoardPlayer


class "<b><size:14>Player</b>\n<size:10>soen6441riskgame.models" as soen6441riskgame.models.Player  [[../../soen6441riskgame/models/Player.html{soen6441riskgame.models.Player}]] #white {
}

hide soen6441riskgame.models.Player fields
hide soen6441riskgame.models.Player methods

soen6441riskgame.singleton.GameBoardPlayer ..> soen6441riskgame.models.Player

class "<b><size:14>PhaseView</b>\n<size:10>soen6441riskgame.views" as soen6441riskgame.views.PhaseView  [[../../soen6441riskgame/views/PhaseView.html{soen6441riskgame.views.PhaseView}]] #white {
}

hide soen6441riskgame.views.PhaseView fields
hide soen6441riskgame.views.PhaseView methods

soen6441riskgame.singleton.GameBoardPlayer - ->  "phaseView" soen6441riskgame.views.PhaseView

interface "<b><size:14>Resettable</b>\n<size:10>soen6441riskgame.singleton" as soen6441riskgame.singleton.Resettable  [[../../soen6441riskgame/singleton/Resettable.html{soen6441riskgame.singleton.Resettable}]] {
}

hide soen6441riskgame.singleton.Resettable fields
hide soen6441riskgame.singleton.Resettable methods

soen6441riskgame.singleton.GameBoardPlayer ..|> soen6441riskgame.singleton.Resettable


@enduml

PlantUML version 1.2017.15(Mon Jul 03 12:45:34 EDT 2017)
(GPL source distribution)
Java Runtime: Java(TM) SE Runtime Environment
JVM: Java HotSpot(TM) 64-Bit Server VM
Java Version: 1.8.0_231-b11
Operating System: Windows 10
OS Version: 10.0
Default Encoding: Cp1252
Language: en
Country: US
--></g></svg>