<?xml version="1.0" encoding="UTF-8" standalone="no"?><svg xmlns="http://www.w3.org/2000/svg" xmlns:xlink="http://www.w3.org/1999/xlink" contentScriptType="application/ecmascript" contentStyleType="text/css" height="304px" preserveAspectRatio="none" style="width:651px;height:304px;" version="1.1" viewBox="0 0 651 304" width="651px" zoomAndPan="magnify"><defs><filter height="300%" id="f1a19a5tkecg8g" width="300%" x="-1" y="-1"><feGaussianBlur result="blurOut" stdDeviation="2.0"/><feColorMatrix in="blurOut" result="blurOut2" type="matrix" values="0 0 0 0 0 0 0 0 0 0 0 0 0 0 0 0 0 0 .4 0"/><feOffset dx="4.0" dy="4.0" in="blurOut2" result="blurOut3"/><feBlend in="SourceGraphic" in2="blurOut3" mode="normal"/></filter></defs><g><!--cluster soen6441riskgame.singleton--><a target="_parent" xlink:actuate="onRequest" xlink:href="../../soen6441riskgame/singleton/package-summary.html" xlink:show="new" xlink:title="soen6441riskgame.singleton" xlink:type="simple"><polygon fill="#FFFFE0" filter="url(#f1a19a5tkecg8g)" points="24,24,231,24,238,47.6094,629,47.6094,629,292,24,292,24,24" style="stroke: #000000; stroke-width: 2.0;"/><line style="stroke: #000000; stroke-width: 2.0;" x1="24" x2="238" y1="47.6094" y2="47.6094"/><text fill="#000000" font-family="sans-serif" font-size="14" font-weight="bold" lengthAdjust="spacingAndGlyphs" textLength="201" x="28" y="40.5332">soen6441riskgame.singleton</text></a><!--class soen6441riskgame.singleton.GameBoard--><a target="_parent" xlink:actuate="onRequest" xlink:href="../../soen6441riskgame/singleton/GameBoard.html" xlink:show="new" xlink:title="soen6441riskgame.singleton.GameBoard" xlink:type="simple"><rect fill="#FEFECE" filter="url(#f1a19a5tkecg8g)" height="32" id="soen6441riskgame.singleton.GameBoard" style="stroke: #A80036; stroke-width: 1.5;" width="114" x="339" y="60"/><ellipse cx="354" cy="76" fill="#ADD1B2" rx="11" ry="11" style="stroke: #A80036; stroke-width: 1.0;"/><path d="M356.7656,71.875 Q356.9219,71.6563 357.1094,71.5469 Q357.2969,71.4375 357.5156,71.4375 Q357.8906,71.4375 358.125,71.6953 Q358.3594,71.9531 358.3594,72.5625 L358.3594,74.0156 Q358.3594,74.625 358.125,74.8906 Q357.8906,75.1563 357.5156,75.1563 Q357.1719,75.1563 356.9688,74.9531 Q356.7656,74.7656 356.6563,74.25 Q356.6094,73.8906 356.4219,73.7031 Q356.0938,73.3281 355.4844,73.1094 Q354.875,72.8906 354.25,72.8906 Q353.4844,72.8906 352.8516,73.2188 Q352.2188,73.5469 351.7266,74.2969 Q351.2344,75.0469 351.2344,76.0781 L351.2344,77.1719 Q351.2344,78.4063 352.125,79.2266 Q353.0156,80.0469 354.6094,80.0469 Q355.5469,80.0469 356.2031,79.7969 Q356.5938,79.6406 357.0156,79.2031 Q357.2813,78.9375 357.4297,78.8594 Q357.5781,78.7813 357.7813,78.7813 Q358.1094,78.7813 358.3672,79.0391 Q358.625,79.2969 358.625,79.6406 Q358.625,79.9844 358.2813,80.3906 Q357.7813,80.9688 356.9844,81.2969 Q355.9063,81.75 354.6094,81.75 Q353.0938,81.75 351.8906,81.125 Q350.9063,80.625 350.2188,79.5547 Q349.5313,78.4844 349.5313,77.2031 L349.5313,76.0469 Q349.5313,74.7188 350.1484,73.5703 Q350.7656,72.4219 351.8594,71.8047 Q352.9531,71.1875 354.1875,71.1875 Q354.9219,71.1875 355.5703,71.3516 Q356.2188,71.5156 356.7656,71.875 Z "/><text fill="#000000" font-family="sans-serif" font-size="14" font-weight="bold" lengthAdjust="spacingAndGlyphs" textLength="82" x="368" y="81.7285">GameBoard</text></a><!--class soen6441riskgame.singleton.GameBoardMap--><a target="_parent" xlink:actuate="onRequest" xlink:href="../../soen6441riskgame/singleton/GameBoardMap.html" xlink:show="new" xlink:title="soen6441riskgame.singleton.GameBoardMap" xlink:type="simple"><rect fill="#FEFECE" filter="url(#f1a19a5tkecg8g)" height="32" id="soen6441riskgame.singleton.GameBoardMap" style="stroke: #A80036; stroke-width: 1.5;" width="144" x="40" y="152"/><ellipse cx="55" cy="168" fill="#ADD1B2" rx="11" ry="11" style="stroke: #A80036; stroke-width: 1.0;"/><path d="M57.7656,163.875 Q57.9219,163.6563 58.1094,163.5469 Q58.2969,163.4375 58.5156,163.4375 Q58.8906,163.4375 59.125,163.6953 Q59.3594,163.9531 59.3594,164.5625 L59.3594,166.0156 Q59.3594,166.625 59.125,166.8906 Q58.8906,167.1563 58.5156,167.1563 Q58.1719,167.1563 57.9688,166.9531 Q57.7656,166.7656 57.6563,166.25 Q57.6094,165.8906 57.4219,165.7031 Q57.0938,165.3281 56.4844,165.1094 Q55.875,164.8906 55.25,164.8906 Q54.4844,164.8906 53.8516,165.2188 Q53.2188,165.5469 52.7266,166.2969 Q52.2344,167.0469 52.2344,168.0781 L52.2344,169.1719 Q52.2344,170.4063 53.125,171.2266 Q54.0156,172.0469 55.6094,172.0469 Q56.5469,172.0469 57.2031,171.7969 Q57.5938,171.6406 58.0156,171.2031 Q58.2813,170.9375 58.4297,170.8594 Q58.5781,170.7813 58.7813,170.7813 Q59.1094,170.7813 59.3672,171.0391 Q59.625,171.2969 59.625,171.6406 Q59.625,171.9844 59.2813,172.3906 Q58.7813,172.9688 57.9844,173.2969 Q56.9063,173.75 55.6094,173.75 Q54.0938,173.75 52.8906,173.125 Q51.9063,172.625 51.2188,171.5547 Q50.5313,170.4844 50.5313,169.2031 L50.5313,168.0469 Q50.5313,166.7188 51.1484,165.5703 Q51.7656,164.4219 52.8594,163.8047 Q53.9531,163.1875 55.1875,163.1875 Q55.9219,163.1875 56.5703,163.3516 Q57.2188,163.5156 57.7656,163.875 Z "/><text fill="#000000" font-family="sans-serif" font-size="14" font-weight="bold" lengthAdjust="spacingAndGlyphs" textLength="112" x="69" y="173.7285">GameBoardMap</text></a><!--class soen6441riskgame.singleton.GameBoardPlayer--><a target="_parent" xlink:actuate="onRequest" xlink:href="../../soen6441riskgame/singleton/GameBoardPlayer.html" xlink:show="new" xlink:title="soen6441riskgame.singleton.GameBoardPlayer" xlink:type="simple"><rect fill="#FEFECE" filter="url(#f1a19a5tkecg8g)" height="32" id="soen6441riskgame.singleton.GameBoardPlayer" style="stroke: #A80036; stroke-width: 1.5;" width="157" x="219.5" y="152"/><ellipse cx="234.5" cy="168" fill="#ADD1B2" rx="11" ry="11" style="stroke: #A80036; stroke-width: 1.0;"/><path d="M237.2656,163.875 Q237.4219,163.6563 237.6094,163.5469 Q237.7969,163.4375 238.0156,163.4375 Q238.3906,163.4375 238.625,163.6953 Q238.8594,163.9531 238.8594,164.5625 L238.8594,166.0156 Q238.8594,166.625 238.625,166.8906 Q238.3906,167.1563 238.0156,167.1563 Q237.6719,167.1563 237.4688,166.9531 Q237.2656,166.7656 237.1563,166.25 Q237.1094,165.8906 236.9219,165.7031 Q236.5938,165.3281 235.9844,165.1094 Q235.375,164.8906 234.75,164.8906 Q233.9844,164.8906 233.3516,165.2188 Q232.7188,165.5469 232.2266,166.2969 Q231.7344,167.0469 231.7344,168.0781 L231.7344,169.1719 Q231.7344,170.4063 232.625,171.2266 Q233.5156,172.0469 235.1094,172.0469 Q236.0469,172.0469 236.7031,171.7969 Q237.0938,171.6406 237.5156,171.2031 Q237.7813,170.9375 237.9297,170.8594 Q238.0781,170.7813 238.2813,170.7813 Q238.6094,170.7813 238.8672,171.0391 Q239.125,171.2969 239.125,171.6406 Q239.125,171.9844 238.7813,172.3906 Q238.2813,172.9688 237.4844,173.2969 Q236.4063,173.75 235.1094,173.75 Q233.5938,173.75 232.3906,173.125 Q231.4063,172.625 230.7188,171.5547 Q230.0313,170.4844 230.0313,169.2031 L230.0313,168.0469 Q230.0313,166.7188 230.6484,165.5703 Q231.2656,164.4219 232.3594,163.8047 Q233.4531,163.1875 234.6875,163.1875 Q235.4219,163.1875 236.0703,163.3516 Q236.7188,163.5156 237.2656,163.875 Z "/><text fill="#000000" font-family="sans-serif" font-size="14" font-weight="bold" lengthAdjust="spacingAndGlyphs" textLength="125" x="248.5" y="173.7285">GameBoardPlayer</text></a><!--class soen6441riskgame.singleton.GameBoardPlaying--><a target="_parent" xlink:actuate="onRequest" xlink:href="../../soen6441riskgame/singleton/GameBoardPlaying.html" xlink:show="new" xlink:title="soen6441riskgame.singleton.GameBoardPlaying" xlink:type="simple"><rect fill="#FEFECE" filter="url(#f1a19a5tkecg8g)" height="32" id="soen6441riskgame.singleton.GameBoardPlaying" style="stroke: #A80036; stroke-width: 1.5;" width="164" x="412" y="152"/><ellipse cx="427" cy="168" fill="#ADD1B2" rx="11" ry="11" style="stroke: #A80036; stroke-width: 1.0;"/><path d="M429.7656,163.875 Q429.9219,163.6563 430.1094,163.5469 Q430.2969,163.4375 430.5156,163.4375 Q430.8906,163.4375 431.125,163.6953 Q431.3594,163.9531 431.3594,164.5625 L431.3594,166.0156 Q431.3594,166.625 431.125,166.8906 Q430.8906,167.1563 430.5156,167.1563 Q430.1719,167.1563 429.9688,166.9531 Q429.7656,166.7656 429.6563,166.25 Q429.6094,165.8906 429.4219,165.7031 Q429.0938,165.3281 428.4844,165.1094 Q427.875,164.8906 427.25,164.8906 Q426.4844,164.8906 425.8516,165.2188 Q425.2188,165.5469 424.7266,166.2969 Q424.2344,167.0469 424.2344,168.0781 L424.2344,169.1719 Q424.2344,170.4063 425.125,171.2266 Q426.0156,172.0469 427.6094,172.0469 Q428.5469,172.0469 429.2031,171.7969 Q429.5938,171.6406 430.0156,171.2031 Q430.2813,170.9375 430.4297,170.8594 Q430.5781,170.7813 430.7813,170.7813 Q431.1094,170.7813 431.3672,171.0391 Q431.625,171.2969 431.625,171.6406 Q431.625,171.9844 431.2813,172.3906 Q430.7813,172.9688 429.9844,173.2969 Q428.9063,173.75 427.6094,173.75 Q426.0938,173.75 424.8906,173.125 Q423.9063,172.625 423.2188,171.5547 Q422.5313,170.4844 422.5313,169.2031 L422.5313,168.0469 Q422.5313,166.7188 423.1484,165.5703 Q423.7656,164.4219 424.8594,163.8047 Q425.9531,163.1875 427.1875,163.1875 Q427.9219,163.1875 428.5703,163.3516 Q429.2188,163.5156 429.7656,163.875 Z "/><text fill="#000000" font-family="sans-serif" font-size="14" font-weight="bold" lengthAdjust="spacingAndGlyphs" textLength="132" x="441" y="173.7285">GameBoardPlaying</text></a><!--class soen6441riskgame.singleton.Resettable--><a target="_parent" xlink:actuate="onRequest" xlink:href="../../soen6441riskgame/singleton/Resettable.html" xlink:show="new" xlink:title="soen6441riskgame.singleton.Resettable" xlink:type="simple"><rect fill="#FEFECE" filter="url(#f1a19a5tkecg8g)" height="32" id="soen6441riskgame.singleton.Resettable" style="stroke: #A80036; stroke-width: 1.5;" width="104" x="344" y="244"/><ellipse cx="359" cy="260" fill="#B4A7E5" rx="11" ry="11" style="stroke: #A80036; stroke-width: 1.0;"/><path d="M359.9531,256.6406 L359.9531,263.2969 L361.6719,263.2969 Q362.2813,263.2969 362.5469,263.5313 Q362.8125,263.7656 362.8125,264.1563 Q362.8125,264.5313 362.5469,264.7656 Q362.2813,265 361.6719,265 L356.5313,265 Q355.9219,265 355.6563,264.7656 Q355.3906,264.5313 355.3906,264.1406 Q355.3906,263.7656 355.6563,263.5313 Q355.9219,263.2969 356.5313,263.2969 L358.25,263.2969 L358.25,256.6406 L356.5313,256.6406 Q355.9219,256.6406 355.6563,256.4063 Q355.3906,256.1719 355.3906,255.7813 Q355.3906,255.4063 355.6563,255.1719 Q355.9219,254.9375 356.5313,254.9375 L361.6719,254.9375 Q362.2813,254.9375 362.5469,255.1719 Q362.8125,255.4063 362.8125,255.7813 Q362.8125,256.1719 362.5469,256.4063 Q362.2813,256.6406 361.6719,256.6406 L359.9531,256.6406 Z "/><text fill="#000000" font-family="sans-serif" font-size="14" font-style="italic" font-weight="bold" lengthAdjust="spacingAndGlyphs" textLength="72" x="373" y="265.7285">Resettable</text></a><!--link soen6441riskgame.singleton.GameBoard to soen6441riskgame.singleton.GameBoard--><path d="M396,59.797 C396,51.04 396,42 396,42 C396,42 279.25,42 279.25,42 C279.25,42 279.25,122 279.25,122 C279.25,122 351.5,122 351.5,122 C351.5,122 351.5,97.089 351.5,97.089 " fill="none" id="soen6441riskgame.singleton.GameBoard-soen6441riskgame.singleton.GameBoard" style="stroke: #A80036; stroke-width: 1.0;"/><polygon fill="#A80036" points="351.5,92.089,347.5,101.089,351.5,97.089,355.5,101.089,351.5,92.089" style="stroke: #A80036; stroke-width: 1.0;"/><text fill="#000000" font-family="sans-serif" font-size="13" lengthAdjust="spacingAndGlyphs" textLength="49" x="282.2313" y="112.7119">instance</text><!--link soen6441riskgame.singleton.GameBoard to soen6441riskgame.singleton.GameBoardPlayer--><path d="M364,92.025 C364,92.025 364,146.85 364,146.85 " fill="none" id="soen6441riskgame.singleton.GameBoard-soen6441riskgame.singleton.GameBoardPlayer" style="stroke: #A80036; stroke-width: 1.0;"/><polygon fill="#A80036" points="364,151.85,368,142.85,364,146.85,360,142.85,364,151.85" style="stroke: #A80036; stroke-width: 1.0;"/><text fill="#000000" font-family="sans-serif" font-size="13" lengthAdjust="spacingAndGlyphs" textLength="103" x="265.9844" y="141.104">gameBoardPlayer</text><!--link soen6441riskgame.singleton.GameBoard to soen6441riskgame.singleton.GameBoardMap--><path d="M338.87,76 C255.937,76 112,76 112,76 C112,76 112,146.975 112,146.975 " fill="none" id="soen6441riskgame.singleton.GameBoard-soen6441riskgame.singleton.GameBoardMap" style="stroke: #A80036; stroke-width: 1.0;"/><polygon fill="#A80036" points="112,151.975,116,142.975,112,146.975,108,142.975,112,151.975" style="stroke: #A80036; stroke-width: 1.0;"/><text fill="#000000" font-family="sans-serif" font-size="13" lengthAdjust="spacingAndGlyphs" textLength="91" x="5.3594" y="141.2719">gameBoardMap</text><!--link soen6441riskgame.singleton.GameBoard to soen6441riskgame.singleton.GameBoardPlaying--><path d="M432.5,92.025 C432.5,92.025 432.5,146.85 432.5,146.85 " fill="none" id="soen6441riskgame.singleton.GameBoard-soen6441riskgame.singleton.GameBoardPlaying" style="stroke: #A80036; stroke-width: 1.0;"/><polygon fill="#A80036" points="432.5,151.85,436.5,142.85,432.5,146.85,428.5,142.85,432.5,151.85" style="stroke: #A80036; stroke-width: 1.0;"/><text fill="#000000" font-family="sans-serif" font-size="13" lengthAdjust="spacingAndGlyphs" textLength="109" x="430.0938" y="141.104">gameBoardPlaying</text><!--link soen6441riskgame.singleton.GameBoard to soen6441riskgame.singleton.Resettable--><path d="M394.25,92.007 C394.25,92.007 394.25,223.8991 394.25,223.8991 " fill="none" id="soen6441riskgame.singleton.GameBoard-soen6441riskgame.singleton.Resettable" style="stroke: #A80036; stroke-width: 1.0; stroke-dasharray: 7.0,7.0;"/><polygon fill="none" points="401.25,223.8991,394.25,243.8991,387.25,223.899,401.25,223.8991" style="stroke: #A80036; stroke-width: 1.0;"/><!--link soen6441riskgame.singleton.GameBoardMap to soen6441riskgame.singleton.Resettable--><path d="M112,184.025 C112,210.3838 112,260 112,260 C112,260 323.91,260 323.91,260 " fill="none" id="soen6441riskgame.singleton.GameBoardMap-soen6441riskgame.singleton.Resettable" style="stroke: #A80036; stroke-width: 1.0; stroke-dasharray: 7.0,7.0;"/><polygon fill="none" points="323.91,252.9999,343.91,260,323.91,266.9999,323.91,252.9999" style="stroke: #A80036; stroke-width: 1.0;"/><!--link soen6441riskgame.singleton.GameBoardPlayer to soen6441riskgame.singleton.Resettable--><path d="M360.25,184.025 C360.25,184.025 360.25,223.8498 360.25,223.8498 " fill="none" id="soen6441riskgame.singleton.GameBoardPlayer-soen6441riskgame.singleton.Resettable" style="stroke: #A80036; stroke-width: 1.0; stroke-dasharray: 7.0,7.0;"/><polygon fill="none" points="367.25,223.8498,360.25,243.8498,353.25,223.8497,367.25,223.8498" style="stroke: #A80036; stroke-width: 1.0;"/><!--link soen6441riskgame.singleton.GameBoardPlaying to soen6441riskgame.singleton.Resettable--><path d="M430,184.025 C430,184.025 430,223.8498 430,223.8498 " fill="none" id="soen6441riskgame.singleton.GameBoardPlaying-soen6441riskgame.singleton.Resettable" style="stroke: #A80036; stroke-width: 1.0; stroke-dasharray: 7.0,7.0;"/><polygon fill="none" points="437,223.8498,430,243.8498,423,223.8497,437,223.8498" style="stroke: #A80036; stroke-width: 1.0;"/><!--
@startuml

skinparam svgLinkTarget _parent
skinparam linetype ortho
package soen6441riskgame.singleton [[../../soen6441riskgame/singleton/package-summary.html{soen6441riskgame.singleton}]] #lightyellow {
}

class "<b><size:14>GameBoard</b>" as soen6441riskgame.singleton.GameBoard  [[../../soen6441riskgame/singleton/GameBoard.html{soen6441riskgame.singleton.GameBoard}]] {
}

hide soen6441riskgame.singleton.GameBoard fields
hide soen6441riskgame.singleton.GameBoard methods

class "<b><size:14>GameBoardMap</b>" as soen6441riskgame.singleton.GameBoardMap  [[../../soen6441riskgame/singleton/GameBoardMap.html{soen6441riskgame.singleton.GameBoardMap}]] {
}

hide soen6441riskgame.singleton.GameBoardMap fields
hide soen6441riskgame.singleton.GameBoardMap methods

class "<b><size:14>GameBoardPlayer</b>" as soen6441riskgame.singleton.GameBoardPlayer  [[../../soen6441riskgame/singleton/GameBoardPlayer.html{soen6441riskgame.singleton.GameBoardPlayer}]] {
}

hide soen6441riskgame.singleton.GameBoardPlayer fields
hide soen6441riskgame.singleton.GameBoardPlayer methods

class "<b><size:14>GameBoardPlaying</b>" as soen6441riskgame.singleton.GameBoardPlaying  [[../../soen6441riskgame/singleton/GameBoardPlaying.html{soen6441riskgame.singleton.GameBoardPlaying}]] {
}

hide soen6441riskgame.singleton.GameBoardPlaying fields
hide soen6441riskgame.singleton.GameBoardPlaying methods

interface "<b><size:14>Resettable</b>" as soen6441riskgame.singleton.Resettable  [[../../soen6441riskgame/singleton/Resettable.html{soen6441riskgame.singleton.Resettable}]] {
}

hide soen6441riskgame.singleton.Resettable fields
hide soen6441riskgame.singleton.Resettable methods

soen6441riskgame.singleton.GameBoard - ->  "instance" soen6441riskgame.singleton.GameBoard
soen6441riskgame.singleton.GameBoard - ->  "gameBoardPlayer" soen6441riskgame.singleton.GameBoardPlayer
soen6441riskgame.singleton.GameBoard - ->  "gameBoardMap" soen6441riskgame.singleton.GameBoardMap
soen6441riskgame.singleton.GameBoard - ->  "gameBoardPlaying" soen6441riskgame.singleton.GameBoardPlaying
soen6441riskgame.singleton.GameBoard ..|> soen6441riskgame.singleton.Resettable
soen6441riskgame.singleton.GameBoardMap ..|> soen6441riskgame.singleton.Resettable
soen6441riskgame.singleton.GameBoardPlayer ..|> soen6441riskgame.singleton.Resettable
soen6441riskgame.singleton.GameBoardPlaying ..|> soen6441riskgame.singleton.Resettable

@enduml

PlantUML version 1.2017.15(Mon Jul 03 12:45:34 EDT 2017)
(GPL source distribution)
Java Runtime: Java(TM) SE Runtime Environment
JVM: Java HotSpot(TM) 64-Bit Server VM
Java Version: 1.8.0_231-b11
Operating System: Windows 10
OS Version: 10.0
Default Encoding: Cp1252
Language: en
Country: US
--></g></svg>