<?xml version="1.0" encoding="UTF-8" standalone="no"?><svg xmlns="http://www.w3.org/2000/svg" xmlns:xlink="http://www.w3.org/1999/xlink" contentScriptType="application/ecmascript" contentStyleType="text/css" height="189px" preserveAspectRatio="none" style="width:782px;height:189px;" version="1.1" viewBox="0 0 782 189" width="782px" zoomAndPan="magnify"><defs><filter height="300%" id="f12xye6mp4bnj1" width="300%" x="-1" y="-1"><feGaussianBlur result="blurOut" stdDeviation="2.0"/><feColorMatrix in="blurOut" result="blurOut2" type="matrix" values="0 0 0 0 0 0 0 0 0 0 0 0 0 0 0 0 0 0 .4 0"/><feOffset dx="4.0" dy="4.0" in="blurOut2" result="blurOut3"/><feBlend in="SourceGraphic" in2="blurOut3" mode="normal"/></filter></defs><g><!--class soen6441riskgame.singleton.Resettable--><a target="_parent" xlink:actuate="onRequest" xlink:href="../../soen6441riskgame/singleton/Resettable.html" xlink:show="new" xlink:title="soen6441riskgame.singleton.Resettable" xlink:type="simple"><rect fill="#FEFECE" filter="url(#f12xye6mp4bnj1)" height="70.0234" id="soen6441riskgame.singleton.Resettable" style="stroke: #A80036; stroke-width: 1.5;" width="167" x="305" y="108"/><ellipse cx="320" cy="128.0938" fill="#B4A7E5" rx="11" ry="11" style="stroke: #A80036; stroke-width: 1.0;"/><path d="M320.9531,124.7344 L320.9531,131.3906 L322.6719,131.3906 Q323.2813,131.3906 323.5469,131.625 Q323.8125,131.8594 323.8125,132.25 Q323.8125,132.625 323.5469,132.8594 Q323.2813,133.0938 322.6719,133.0938 L317.5313,133.0938 Q316.9219,133.0938 316.6563,132.8594 Q316.3906,132.625 316.3906,132.2344 Q316.3906,131.8594 316.6563,131.625 Q316.9219,131.3906 317.5313,131.3906 L319.25,131.3906 L319.25,124.7344 L317.5313,124.7344 Q316.9219,124.7344 316.6563,124.5 Q316.3906,124.2656 316.3906,123.875 Q316.3906,123.5 316.6563,123.2656 Q316.9219,123.0313 317.5313,123.0313 L322.6719,123.0313 Q323.2813,123.0313 323.5469,123.2656 Q323.8125,123.5 323.8125,123.875 Q323.8125,124.2656 323.5469,124.5 Q323.2813,124.7344 322.6719,124.7344 L320.9531,124.7344 Z "/><text fill="#000000" font-family="sans-serif" font-size="14" font-style="italic" font-weight="bold" lengthAdjust="spacingAndGlyphs" textLength="72" x="365.5" y="127.5332">Resettable</text><text fill="#000000" font-family="sans-serif" font-size="10" font-style="italic" lengthAdjust="spacingAndGlyphs" textLength="135" x="334" y="140.9902">soen6441riskgame.singleton</text><line style="stroke: #A80036; stroke-width: 1.5;" x1="306" x2="471" y1="148.1875" y2="148.1875"/><line style="stroke: #A80036; stroke-width: 1.5;" x1="306" x2="471" y1="156.1875" y2="156.1875"/><ellipse cx="316" cy="168.6055" fill="#84BE84" rx="3" ry="3" style="stroke: #038048; stroke-width: 1.0;"/><text fill="#000000" font-family="sans-serif" font-size="11" font-style="italic" lengthAdjust="spacingAndGlyphs" textLength="56" x="325" y="171.6064">void reset()</text></a><!--class soen6441riskgame.singleton.GameBoard--><a target="_parent" xlink:actuate="onRequest" xlink:href="../../soen6441riskgame/singleton/GameBoard.html" xlink:show="new" xlink:title="soen6441riskgame.singleton.GameBoard" xlink:type="simple"><rect fill="#FEFECE" filter="url(#f12xye6mp4bnj1)" height="40.1875" id="soen6441riskgame.singleton.GameBoard" style="stroke: #A80036; stroke-width: 1.5;" width="165" x="6" y="8"/><ellipse cx="21" cy="28.0938" fill="#ADD1B2" rx="11" ry="11" style="stroke: #A80036; stroke-width: 1.0;"/><path d="M23.7656,23.9688 Q23.9219,23.75 24.1094,23.6406 Q24.2969,23.5313 24.5156,23.5313 Q24.8906,23.5313 25.125,23.7891 Q25.3594,24.0469 25.3594,24.6563 L25.3594,26.1094 Q25.3594,26.7188 25.125,26.9844 Q24.8906,27.25 24.5156,27.25 Q24.1719,27.25 23.9688,27.0469 Q23.7656,26.8594 23.6563,26.3438 Q23.6094,25.9844 23.4219,25.7969 Q23.0938,25.4219 22.4844,25.2031 Q21.875,24.9844 21.25,24.9844 Q20.4844,24.9844 19.8516,25.3125 Q19.2188,25.6406 18.7266,26.3906 Q18.2344,27.1406 18.2344,28.1719 L18.2344,29.2656 Q18.2344,30.5 19.125,31.3203 Q20.0156,32.1406 21.6094,32.1406 Q22.5469,32.1406 23.2031,31.8906 Q23.5938,31.7344 24.0156,31.2969 Q24.2813,31.0313 24.4297,30.9531 Q24.5781,30.875 24.7813,30.875 Q25.1094,30.875 25.3672,31.1328 Q25.625,31.3906 25.625,31.7344 Q25.625,32.0781 25.2813,32.4844 Q24.7813,33.0625 23.9844,33.3906 Q22.9063,33.8438 21.6094,33.8438 Q20.0938,33.8438 18.8906,33.2188 Q17.9063,32.7188 17.2188,31.6484 Q16.5313,30.5781 16.5313,29.2969 L16.5313,28.1406 Q16.5313,26.8125 17.1484,25.6641 Q17.7656,24.5156 18.8594,23.8984 Q19.9531,23.2813 21.1875,23.2813 Q21.9219,23.2813 22.5703,23.4453 Q23.2188,23.6094 23.7656,23.9688 Z "/><text fill="#000000" font-family="sans-serif" font-size="14" font-weight="bold" lengthAdjust="spacingAndGlyphs" textLength="82" x="60.5" y="27.5332">GameBoard</text><text fill="#000000" font-family="sans-serif" font-size="10" lengthAdjust="spacingAndGlyphs" textLength="133" x="35" y="40.9902">soen6441riskgame.singleton</text></a><!--class soen6441riskgame.singleton.GameBoardMap--><a target="_parent" xlink:actuate="onRequest" xlink:href="../../soen6441riskgame/singleton/GameBoardMap.html" xlink:show="new" xlink:title="soen6441riskgame.singleton.GameBoardMap" xlink:type="simple"><rect fill="#FEFECE" filter="url(#f12xye6mp4bnj1)" height="40.1875" id="soen6441riskgame.singleton.GameBoardMap" style="stroke: #A80036; stroke-width: 1.5;" width="165" x="206" y="8"/><ellipse cx="221" cy="28.0938" fill="#ADD1B2" rx="11" ry="11" style="stroke: #A80036; stroke-width: 1.0;"/><path d="M223.7656,23.9688 Q223.9219,23.75 224.1094,23.6406 Q224.2969,23.5313 224.5156,23.5313 Q224.8906,23.5313 225.125,23.7891 Q225.3594,24.0469 225.3594,24.6563 L225.3594,26.1094 Q225.3594,26.7188 225.125,26.9844 Q224.8906,27.25 224.5156,27.25 Q224.1719,27.25 223.9688,27.0469 Q223.7656,26.8594 223.6563,26.3438 Q223.6094,25.9844 223.4219,25.7969 Q223.0938,25.4219 222.4844,25.2031 Q221.875,24.9844 221.25,24.9844 Q220.4844,24.9844 219.8516,25.3125 Q219.2188,25.6406 218.7266,26.3906 Q218.2344,27.1406 218.2344,28.1719 L218.2344,29.2656 Q218.2344,30.5 219.125,31.3203 Q220.0156,32.1406 221.6094,32.1406 Q222.5469,32.1406 223.2031,31.8906 Q223.5938,31.7344 224.0156,31.2969 Q224.2813,31.0313 224.4297,30.9531 Q224.5781,30.875 224.7813,30.875 Q225.1094,30.875 225.3672,31.1328 Q225.625,31.3906 225.625,31.7344 Q225.625,32.0781 225.2813,32.4844 Q224.7813,33.0625 223.9844,33.3906 Q222.9063,33.8438 221.6094,33.8438 Q220.0938,33.8438 218.8906,33.2188 Q217.9063,32.7188 217.2188,31.6484 Q216.5313,30.5781 216.5313,29.2969 L216.5313,28.1406 Q216.5313,26.8125 217.1484,25.6641 Q217.7656,24.5156 218.8594,23.8984 Q219.9531,23.2813 221.1875,23.2813 Q221.9219,23.2813 222.5703,23.4453 Q223.2188,23.6094 223.7656,23.9688 Z "/><text fill="#000000" font-family="sans-serif" font-size="14" font-weight="bold" lengthAdjust="spacingAndGlyphs" textLength="112" x="245.5" y="27.5332">GameBoardMap</text><text fill="#000000" font-family="sans-serif" font-size="10" lengthAdjust="spacingAndGlyphs" textLength="133" x="235" y="40.9902">soen6441riskgame.singleton</text></a><!--class soen6441riskgame.singleton.GameBoardPlayer--><a target="_parent" xlink:actuate="onRequest" xlink:href="../../soen6441riskgame/singleton/GameBoardPlayer.html" xlink:show="new" xlink:title="soen6441riskgame.singleton.GameBoardPlayer" xlink:type="simple"><rect fill="#FEFECE" filter="url(#f12xye6mp4bnj1)" height="40.1875" id="soen6441riskgame.singleton.GameBoardPlayer" style="stroke: #A80036; stroke-width: 1.5;" width="165" x="406" y="8"/><ellipse cx="421" cy="28.0938" fill="#ADD1B2" rx="11" ry="11" style="stroke: #A80036; stroke-width: 1.0;"/><path d="M423.7656,23.9688 Q423.9219,23.75 424.1094,23.6406 Q424.2969,23.5313 424.5156,23.5313 Q424.8906,23.5313 425.125,23.7891 Q425.3594,24.0469 425.3594,24.6563 L425.3594,26.1094 Q425.3594,26.7188 425.125,26.9844 Q424.8906,27.25 424.5156,27.25 Q424.1719,27.25 423.9688,27.0469 Q423.7656,26.8594 423.6563,26.3438 Q423.6094,25.9844 423.4219,25.7969 Q423.0938,25.4219 422.4844,25.2031 Q421.875,24.9844 421.25,24.9844 Q420.4844,24.9844 419.8516,25.3125 Q419.2188,25.6406 418.7266,26.3906 Q418.2344,27.1406 418.2344,28.1719 L418.2344,29.2656 Q418.2344,30.5 419.125,31.3203 Q420.0156,32.1406 421.6094,32.1406 Q422.5469,32.1406 423.2031,31.8906 Q423.5938,31.7344 424.0156,31.2969 Q424.2813,31.0313 424.4297,30.9531 Q424.5781,30.875 424.7813,30.875 Q425.1094,30.875 425.3672,31.1328 Q425.625,31.3906 425.625,31.7344 Q425.625,32.0781 425.2813,32.4844 Q424.7813,33.0625 423.9844,33.3906 Q422.9063,33.8438 421.6094,33.8438 Q420.0938,33.8438 418.8906,33.2188 Q417.9063,32.7188 417.2188,31.6484 Q416.5313,30.5781 416.5313,29.2969 L416.5313,28.1406 Q416.5313,26.8125 417.1484,25.6641 Q417.7656,24.5156 418.8594,23.8984 Q419.9531,23.2813 421.1875,23.2813 Q421.9219,23.2813 422.5703,23.4453 Q423.2188,23.6094 423.7656,23.9688 Z "/><text fill="#000000" font-family="sans-serif" font-size="14" font-weight="bold" lengthAdjust="spacingAndGlyphs" textLength="125" x="439" y="27.5332">GameBoardPlayer</text><text fill="#000000" font-family="sans-serif" font-size="10" lengthAdjust="spacingAndGlyphs" textLength="133" x="435" y="40.9902">soen6441riskgame.singleton</text></a><!--class soen6441riskgame.singleton.GameBoardPlaying--><a target="_parent" xlink:actuate="onRequest" xlink:href="../../soen6441riskgame/singleton/GameBoardPlaying.html" xlink:show="new" xlink:title="soen6441riskgame.singleton.GameBoardPlaying" xlink:type="simple"><rect fill="#FEFECE" filter="url(#f12xye6mp4bnj1)" height="40.1875" id="soen6441riskgame.singleton.GameBoardPlaying" style="stroke: #A80036; stroke-width: 1.5;" width="165" x="606" y="8"/><ellipse cx="621" cy="28.0938" fill="#ADD1B2" rx="11" ry="11" style="stroke: #A80036; stroke-width: 1.0;"/><path d="M623.7656,23.9688 Q623.9219,23.75 624.1094,23.6406 Q624.2969,23.5313 624.5156,23.5313 Q624.8906,23.5313 625.125,23.7891 Q625.3594,24.0469 625.3594,24.6563 L625.3594,26.1094 Q625.3594,26.7188 625.125,26.9844 Q624.8906,27.25 624.5156,27.25 Q624.1719,27.25 623.9688,27.0469 Q623.7656,26.8594 623.6563,26.3438 Q623.6094,25.9844 623.4219,25.7969 Q623.0938,25.4219 622.4844,25.2031 Q621.875,24.9844 621.25,24.9844 Q620.4844,24.9844 619.8516,25.3125 Q619.2188,25.6406 618.7266,26.3906 Q618.2344,27.1406 618.2344,28.1719 L618.2344,29.2656 Q618.2344,30.5 619.125,31.3203 Q620.0156,32.1406 621.6094,32.1406 Q622.5469,32.1406 623.2031,31.8906 Q623.5938,31.7344 624.0156,31.2969 Q624.2813,31.0313 624.4297,30.9531 Q624.5781,30.875 624.7813,30.875 Q625.1094,30.875 625.3672,31.1328 Q625.625,31.3906 625.625,31.7344 Q625.625,32.0781 625.2813,32.4844 Q624.7813,33.0625 623.9844,33.3906 Q622.9063,33.8438 621.6094,33.8438 Q620.0938,33.8438 618.8906,33.2188 Q617.9063,32.7188 617.2188,31.6484 Q616.5313,30.5781 616.5313,29.2969 L616.5313,28.1406 Q616.5313,26.8125 617.1484,25.6641 Q617.7656,24.5156 618.8594,23.8984 Q619.9531,23.2813 621.1875,23.2813 Q621.9219,23.2813 622.5703,23.4453 Q623.2188,23.6094 623.7656,23.9688 Z "/><text fill="#000000" font-family="sans-serif" font-size="14" font-weight="bold" lengthAdjust="spacingAndGlyphs" textLength="132" x="635.5" y="27.5332">GameBoardPlaying</text><text fill="#000000" font-family="sans-serif" font-size="10" lengthAdjust="spacingAndGlyphs" textLength="133" x="635" y="40.9902">soen6441riskgame.singleton</text></a><!--link soen6441riskgame.singleton.GameBoard to soen6441riskgame.singleton.Resettable--><path d="M88.5,48.031 C88.5,80.9797 88.5,143 88.5,143 C88.5,143 284.933,143 284.933,143 " fill="none" id="soen6441riskgame.singleton.GameBoard-soen6441riskgame.singleton.Resettable" style="stroke: #A80036; stroke-width: 1.0; stroke-dasharray: 7.0,7.0;"/><polygon fill="none" points="284.933,135.9999,304.933,143,284.933,149.9999,284.933,135.9999" style="stroke: #A80036; stroke-width: 1.0;"/><!--link soen6441riskgame.singleton.GameBoardMap to soen6441riskgame.singleton.Resettable--><path d="M338,48.031 C338,48.031 338,87.8713 338,87.8713 " fill="none" id="soen6441riskgame.singleton.GameBoardMap-soen6441riskgame.singleton.Resettable" style="stroke: #A80036; stroke-width: 1.0; stroke-dasharray: 7.0,7.0;"/><polygon fill="none" points="345,87.8714,338,107.8713,331,87.8713,345,87.8714" style="stroke: #A80036; stroke-width: 1.0;"/><!--link soen6441riskgame.singleton.GameBoardPlayer to soen6441riskgame.singleton.Resettable--><path d="M439,48.031 C439,48.031 439,87.8713 439,87.8713 " fill="none" id="soen6441riskgame.singleton.GameBoardPlayer-soen6441riskgame.singleton.Resettable" style="stroke: #A80036; stroke-width: 1.0; stroke-dasharray: 7.0,7.0;"/><polygon fill="none" points="446,87.8714,439,107.8713,432,87.8713,446,87.8714" style="stroke: #A80036; stroke-width: 1.0;"/><!--link soen6441riskgame.singleton.GameBoardPlaying to soen6441riskgame.singleton.Resettable--><path d="M688.5,48.031 C688.5,80.9797 688.5,143 688.5,143 C688.5,143 492.067,143 492.067,143 " fill="none" id="soen6441riskgame.singleton.GameBoardPlaying-soen6441riskgame.singleton.Resettable" style="stroke: #A80036; stroke-width: 1.0; stroke-dasharray: 7.0,7.0;"/><polygon fill="none" points="492.067,149.9999,472.067,143,492.067,135.9999,492.067,149.9999" style="stroke: #A80036; stroke-width: 1.0;"/><!--
@startuml

skinparam svgLinkTarget _parent
skinparam linetype ortho
set namespaceSeparator none
interface "<b><size:14>Resettable</b>\n<size:10>soen6441riskgame.singleton" as soen6441riskgame.singleton.Resettable  [[../../soen6441riskgame/singleton/Resettable.html{soen6441riskgame.singleton.Resettable}]] {
{abstract} +void reset()
}


class "<b><size:14>GameBoard</b>\n<size:10>soen6441riskgame.singleton" as soen6441riskgame.singleton.GameBoard  [[../../soen6441riskgame/singleton/GameBoard.html{soen6441riskgame.singleton.GameBoard}]] {
}

hide soen6441riskgame.singleton.GameBoard fields
hide soen6441riskgame.singleton.GameBoard methods

soen6441riskgame.singleton.GameBoard ..|> soen6441riskgame.singleton.Resettable

class "<b><size:14>GameBoardMap</b>\n<size:10>soen6441riskgame.singleton" as soen6441riskgame.singleton.GameBoardMap  [[../../soen6441riskgame/singleton/GameBoardMap.html{soen6441riskgame.singleton.GameBoardMap}]] {
}

hide soen6441riskgame.singleton.GameBoardMap fields
hide soen6441riskgame.singleton.GameBoardMap methods

soen6441riskgame.singleton.GameBoardMap ..|> soen6441riskgame.singleton.Resettable

class "<b><size:14>GameBoardPlayer</b>\n<size:10>soen6441riskgame.singleton" as soen6441riskgame.singleton.GameBoardPlayer  [[../../soen6441riskgame/singleton/GameBoardPlayer.html{soen6441riskgame.singleton.GameBoardPlayer}]] {
}

hide soen6441riskgame.singleton.GameBoardPlayer fields
hide soen6441riskgame.singleton.GameBoardPlayer methods

soen6441riskgame.singleton.GameBoardPlayer ..|> soen6441riskgame.singleton.Resettable

class "<b><size:14>GameBoardPlaying</b>\n<size:10>soen6441riskgame.singleton" as soen6441riskgame.singleton.GameBoardPlaying  [[../../soen6441riskgame/singleton/GameBoardPlaying.html{soen6441riskgame.singleton.GameBoardPlaying}]] {
}

hide soen6441riskgame.singleton.GameBoardPlaying fields
hide soen6441riskgame.singleton.GameBoardPlaying methods

soen6441riskgame.singleton.GameBoardPlaying ..|> soen6441riskgame.singleton.Resettable


@enduml

PlantUML version 1.2017.15(Mon Jul 03 12:45:34 EDT 2017)
(GPL source distribution)
Java Runtime: Java(TM) SE Runtime Environment
JVM: Java HotSpot(TM) 64-Bit Server VM
Java Version: 1.8.0_231-b11
Operating System: Windows 10
OS Version: 10.0
Default Encoding: Cp1252
Language: en
Country: US
--></g></svg>