<?xml version="1.0" encoding="UTF-8" standalone="no"?><svg xmlns="http://www.w3.org/2000/svg" xmlns:xlink="http://www.w3.org/1999/xlink" contentScriptType="application/ecmascript" contentStyleType="text/css" height="189px" preserveAspectRatio="none" style="width:582px;height:189px;" version="1.1" viewBox="0 0 582 189" width="582px" zoomAndPan="magnify"><defs><filter height="300%" id="f1wktdysxscql3" width="300%" x="-1" y="-1"><feGaussianBlur result="blurOut" stdDeviation="2.0"/><feColorMatrix in="blurOut" result="blurOut2" type="matrix" values="0 0 0 0 0 0 0 0 0 0 0 0 0 0 0 0 0 0 .4 0"/><feOffset dx="4.0" dy="4.0" in="blurOut2" result="blurOut3"/><feBlend in="SourceGraphic" in2="blurOut3" mode="normal"/></filter></defs><g><!--class soen6441riskgame.singleton.Resettable--><a target="_parent" xlink:actuate="onRequest" xlink:href="../../soen6441riskgame/singleton/Resettable.html" xlink:show="new" xlink:title="soen6441riskgame.singleton.Resettable" xlink:type="simple"><rect fill="#FEFECE" filter="url(#f1wktdysxscql3)" height="70.0234" id="soen6441riskgame.singleton.Resettable" style="stroke: #A80036; stroke-width: 1.5;" width="167" x="205" y="108"/><ellipse cx="220" cy="128.0938" fill="#B4A7E5" rx="11" ry="11" style="stroke: #A80036; stroke-width: 1.0;"/><path d="M220.9531,124.7344 L220.9531,131.3906 L222.6719,131.3906 Q223.2813,131.3906 223.5469,131.625 Q223.8125,131.8594 223.8125,132.25 Q223.8125,132.625 223.5469,132.8594 Q223.2813,133.0938 222.6719,133.0938 L217.5313,133.0938 Q216.9219,133.0938 216.6563,132.8594 Q216.3906,132.625 216.3906,132.2344 Q216.3906,131.8594 216.6563,131.625 Q216.9219,131.3906 217.5313,131.3906 L219.25,131.3906 L219.25,124.7344 L217.5313,124.7344 Q216.9219,124.7344 216.6563,124.5 Q216.3906,124.2656 216.3906,123.875 Q216.3906,123.5 216.6563,123.2656 Q216.9219,123.0313 217.5313,123.0313 L222.6719,123.0313 Q223.2813,123.0313 223.5469,123.2656 Q223.8125,123.5 223.8125,123.875 Q223.8125,124.2656 223.5469,124.5 Q223.2813,124.7344 222.6719,124.7344 L220.9531,124.7344 Z "/><text fill="#000000" font-family="sans-serif" font-size="14" font-style="italic" font-weight="bold" lengthAdjust="spacingAndGlyphs" textLength="72" x="265.5" y="127.5332">Resettable</text><text fill="#000000" font-family="sans-serif" font-size="10" font-style="italic" lengthAdjust="spacingAndGlyphs" textLength="135" x="234" y="140.9902">soen6441riskgame.singleton</text><line style="stroke: #A80036; stroke-width: 1.5;" x1="206" x2="371" y1="148.1875" y2="148.1875"/><line style="stroke: #A80036; stroke-width: 1.5;" x1="206" x2="371" y1="156.1875" y2="156.1875"/><ellipse cx="216" cy="168.6055" fill="#84BE84" rx="3" ry="3" style="stroke: #038048; stroke-width: 1.0;"/><text fill="#000000" font-family="sans-serif" font-size="11" font-style="italic" lengthAdjust="spacingAndGlyphs" textLength="56" x="225" y="171.6064">void reset()</text></a><!--class soen6441riskgame.singleton.GameBoard--><a target="_parent" xlink:actuate="onRequest" xlink:href="../../soen6441riskgame/singleton/GameBoard.html" xlink:show="new" xlink:title="soen6441riskgame.singleton.GameBoard" xlink:type="simple"><rect fill="#FEFECE" filter="url(#f1wktdysxscql3)" height="40.1875" id="soen6441riskgame.singleton.GameBoard" style="stroke: #A80036; stroke-width: 1.5;" width="165" x="6" y="8"/><ellipse cx="21" cy="28.0938" fill="#ADD1B2" rx="11" ry="11" style="stroke: #A80036; stroke-width: 1.0;"/><path d="M23.7656,23.9688 Q23.9219,23.75 24.1094,23.6406 Q24.2969,23.5313 24.5156,23.5313 Q24.8906,23.5313 25.125,23.7891 Q25.3594,24.0469 25.3594,24.6563 L25.3594,26.1094 Q25.3594,26.7188 25.125,26.9844 Q24.8906,27.25 24.5156,27.25 Q24.1719,27.25 23.9688,27.0469 Q23.7656,26.8594 23.6563,26.3438 Q23.6094,25.9844 23.4219,25.7969 Q23.0938,25.4219 22.4844,25.2031 Q21.875,24.9844 21.25,24.9844 Q20.4844,24.9844 19.8516,25.3125 Q19.2188,25.6406 18.7266,26.3906 Q18.2344,27.1406 18.2344,28.1719 L18.2344,29.2656 Q18.2344,30.5 19.125,31.3203 Q20.0156,32.1406 21.6094,32.1406 Q22.5469,32.1406 23.2031,31.8906 Q23.5938,31.7344 24.0156,31.2969 Q24.2813,31.0313 24.4297,30.9531 Q24.5781,30.875 24.7813,30.875 Q25.1094,30.875 25.3672,31.1328 Q25.625,31.3906 25.625,31.7344 Q25.625,32.0781 25.2813,32.4844 Q24.7813,33.0625 23.9844,33.3906 Q22.9063,33.8438 21.6094,33.8438 Q20.0938,33.8438 18.8906,33.2188 Q17.9063,32.7188 17.2188,31.6484 Q16.5313,30.5781 16.5313,29.2969 L16.5313,28.1406 Q16.5313,26.8125 17.1484,25.6641 Q17.7656,24.5156 18.8594,23.8984 Q19.9531,23.2813 21.1875,23.2813 Q21.9219,23.2813 22.5703,23.4453 Q23.2188,23.6094 23.7656,23.9688 Z "/><text fill="#000000" font-family="sans-serif" font-size="14" font-weight="bold" lengthAdjust="spacingAndGlyphs" textLength="82" x="60.5" y="27.5332">GameBoard</text><text fill="#000000" font-family="sans-serif" font-size="10" lengthAdjust="spacingAndGlyphs" textLength="133" x="35" y="40.9902">soen6441riskgame.singleton</text></a><!--class soen6441riskgame.singleton.GameBoardMap--><a target="_parent" xlink:actuate="onRequest" xlink:href="../../soen6441riskgame/singleton/GameBoardMap.html" xlink:show="new" xlink:title="soen6441riskgame.singleton.GameBoardMap" xlink:type="simple"><rect fill="#FEFECE" filter="url(#f1wktdysxscql3)" height="40.1875" id="soen6441riskgame.singleton.GameBoardMap" style="stroke: #A80036; stroke-width: 1.5;" width="165" x="206" y="8"/><ellipse cx="221" cy="28.0938" fill="#ADD1B2" rx="11" ry="11" style="stroke: #A80036; stroke-width: 1.0;"/><path d="M223.7656,23.9688 Q223.9219,23.75 224.1094,23.6406 Q224.2969,23.5313 224.5156,23.5313 Q224.8906,23.5313 225.125,23.7891 Q225.3594,24.0469 225.3594,24.6563 L225.3594,26.1094 Q225.3594,26.7188 225.125,26.9844 Q224.8906,27.25 224.5156,27.25 Q224.1719,27.25 223.9688,27.0469 Q223.7656,26.8594 223.6563,26.3438 Q223.6094,25.9844 223.4219,25.7969 Q223.0938,25.4219 222.4844,25.2031 Q221.875,24.9844 221.25,24.9844 Q220.4844,24.9844 219.8516,25.3125 Q219.2188,25.6406 218.7266,26.3906 Q218.2344,27.1406 218.2344,28.1719 L218.2344,29.2656 Q218.2344,30.5 219.125,31.3203 Q220.0156,32.1406 221.6094,32.1406 Q222.5469,32.1406 223.2031,31.8906 Q223.5938,31.7344 224.0156,31.2969 Q224.2813,31.0313 224.4297,30.9531 Q224.5781,30.875 224.7813,30.875 Q225.1094,30.875 225.3672,31.1328 Q225.625,31.3906 225.625,31.7344 Q225.625,32.0781 225.2813,32.4844 Q224.7813,33.0625 223.9844,33.3906 Q222.9063,33.8438 221.6094,33.8438 Q220.0938,33.8438 218.8906,33.2188 Q217.9063,32.7188 217.2188,31.6484 Q216.5313,30.5781 216.5313,29.2969 L216.5313,28.1406 Q216.5313,26.8125 217.1484,25.6641 Q217.7656,24.5156 218.8594,23.8984 Q219.9531,23.2813 221.1875,23.2813 Q221.9219,23.2813 222.5703,23.4453 Q223.2188,23.6094 223.7656,23.9688 Z "/><text fill="#000000" font-family="sans-serif" font-size="14" font-weight="bold" lengthAdjust="spacingAndGlyphs" textLength="112" x="245.5" y="27.5332">GameBoardMap</text><text fill="#000000" font-family="sans-serif" font-size="10" lengthAdjust="spacingAndGlyphs" textLength="133" x="235" y="40.9902">soen6441riskgame.singleton</text></a><!--class soen6441riskgame.singleton.GameBoardPlayer--><a target="_parent" xlink:actuate="onRequest" xlink:href="../../soen6441riskgame/singleton/GameBoardPlayer.html" xlink:show="new" xlink:title="soen6441riskgame.singleton.GameBoardPlayer" xlink:type="simple"><rect fill="#FEFECE" filter="url(#f1wktdysxscql3)" height="40.1875" id="soen6441riskgame.singleton.GameBoardPlayer" style="stroke: #A80036; stroke-width: 1.5;" width="165" x="406" y="8"/><ellipse cx="421" cy="28.0938" fill="#ADD1B2" rx="11" ry="11" style="stroke: #A80036; stroke-width: 1.0;"/><path d="M423.7656,23.9688 Q423.9219,23.75 424.1094,23.6406 Q424.2969,23.5313 424.5156,23.5313 Q424.8906,23.5313 425.125,23.7891 Q425.3594,24.0469 425.3594,24.6563 L425.3594,26.1094 Q425.3594,26.7188 425.125,26.9844 Q424.8906,27.25 424.5156,27.25 Q424.1719,27.25 423.9688,27.0469 Q423.7656,26.8594 423.6563,26.3438 Q423.6094,25.9844 423.4219,25.7969 Q423.0938,25.4219 422.4844,25.2031 Q421.875,24.9844 421.25,24.9844 Q420.4844,24.9844 419.8516,25.3125 Q419.2188,25.6406 418.7266,26.3906 Q418.2344,27.1406 418.2344,28.1719 L418.2344,29.2656 Q418.2344,30.5 419.125,31.3203 Q420.0156,32.1406 421.6094,32.1406 Q422.5469,32.1406 423.2031,31.8906 Q423.5938,31.7344 424.0156,31.2969 Q424.2813,31.0313 424.4297,30.9531 Q424.5781,30.875 424.7813,30.875 Q425.1094,30.875 425.3672,31.1328 Q425.625,31.3906 425.625,31.7344 Q425.625,32.0781 425.2813,32.4844 Q424.7813,33.0625 423.9844,33.3906 Q422.9063,33.8438 421.6094,33.8438 Q420.0938,33.8438 418.8906,33.2188 Q417.9063,32.7188 417.2188,31.6484 Q416.5313,30.5781 416.5313,29.2969 L416.5313,28.1406 Q416.5313,26.8125 417.1484,25.6641 Q417.7656,24.5156 418.8594,23.8984 Q419.9531,23.2813 421.1875,23.2813 Q421.9219,23.2813 422.5703,23.4453 Q423.2188,23.6094 423.7656,23.9688 Z "/><text fill="#000000" font-family="sans-serif" font-size="14" font-weight="bold" lengthAdjust="spacingAndGlyphs" textLength="125" x="439" y="27.5332">GameBoardPlayer</text><text fill="#000000" font-family="sans-serif" font-size="10" lengthAdjust="spacingAndGlyphs" textLength="133" x="435" y="40.9902">soen6441riskgame.singleton</text></a><!--link soen6441riskgame.singleton.GameBoard to soen6441riskgame.singleton.Resettable--><path d="M88.5,48.031 C88.5,80.9797 88.5,143 88.5,143 C88.5,143 184.841,143 184.841,143 " fill="none" id="soen6441riskgame.singleton.GameBoard-soen6441riskgame.singleton.Resettable" style="stroke: #A80036; stroke-width: 1.0; stroke-dasharray: 7.0,7.0;"/><polygon fill="none" points="184.841,135.9999,204.841,143,184.841,149.9999,184.841,135.9999" style="stroke: #A80036; stroke-width: 1.0;"/><!--link soen6441riskgame.singleton.GameBoardMap to soen6441riskgame.singleton.Resettable--><path d="M288.5,48.031 C288.5,48.031 288.5,87.8713 288.5,87.8713 " fill="none" id="soen6441riskgame.singleton.GameBoardMap-soen6441riskgame.singleton.Resettable" style="stroke: #A80036; stroke-width: 1.0; stroke-dasharray: 7.0,7.0;"/><polygon fill="none" points="295.5,87.8714,288.5,107.8713,281.5,87.8713,295.5,87.8714" style="stroke: #A80036; stroke-width: 1.0;"/><!--link soen6441riskgame.singleton.GameBoardPlayer to soen6441riskgame.singleton.Resettable--><path d="M488.5,48.031 C488.5,80.9797 488.5,143 488.5,143 C488.5,143 392.159,143 392.159,143 " fill="none" id="soen6441riskgame.singleton.GameBoardPlayer-soen6441riskgame.singleton.Resettable" style="stroke: #A80036; stroke-width: 1.0; stroke-dasharray: 7.0,7.0;"/><polygon fill="none" points="392.159,149.9999,372.159,143,392.159,135.9999,392.159,149.9999" style="stroke: #A80036; stroke-width: 1.0;"/><!--
@startuml

skinparam svgLinkTarget _parent
skinparam linetype ortho
set namespaceSeparator none
interface "<b><size:14>Resettable</b>\n<size:10>soen6441riskgame.singleton" as soen6441riskgame.singleton.Resettable  [[../../soen6441riskgame/singleton/Resettable.html{soen6441riskgame.singleton.Resettable}]] {
{abstract} +void reset()
}


class "<b><size:14>GameBoard</b>\n<size:10>soen6441riskgame.singleton" as soen6441riskgame.singleton.GameBoard  [[../../soen6441riskgame/singleton/GameBoard.html{soen6441riskgame.singleton.GameBoard}]] {
}

hide soen6441riskgame.singleton.GameBoard fields
hide soen6441riskgame.singleton.GameBoard methods

soen6441riskgame.singleton.GameBoard ..|> soen6441riskgame.singleton.Resettable

class "<b><size:14>GameBoardMap</b>\n<size:10>soen6441riskgame.singleton" as soen6441riskgame.singleton.GameBoardMap  [[../../soen6441riskgame/singleton/GameBoardMap.html{soen6441riskgame.singleton.GameBoardMap}]] {
}

hide soen6441riskgame.singleton.GameBoardMap fields
hide soen6441riskgame.singleton.GameBoardMap methods

soen6441riskgame.singleton.GameBoardMap ..|> soen6441riskgame.singleton.Resettable

class "<b><size:14>GameBoardPlayer</b>\n<size:10>soen6441riskgame.singleton" as soen6441riskgame.singleton.GameBoardPlayer  [[../../soen6441riskgame/singleton/GameBoardPlayer.html{soen6441riskgame.singleton.GameBoardPlayer}]] {
}

hide soen6441riskgame.singleton.GameBoardPlayer fields
hide soen6441riskgame.singleton.GameBoardPlayer methods

soen6441riskgame.singleton.GameBoardPlayer ..|> soen6441riskgame.singleton.Resettable


@enduml

PlantUML version 1.2017.15(Mon Jul 03 12:45:34 EDT 2017)
(GPL source distribution)
Java Runtime: Java(TM) SE Runtime Environment
JVM: Java HotSpot(TM) 64-Bit Server VM
Java Version: 1.8.0_231-b11
Operating System: Windows 10
OS Version: 10.0
Default Encoding: Cp1252
Language: en
Country: US
--></g></svg>