<?xml version="1.0" encoding="UTF-8" standalone="no"?><svg xmlns="http://www.w3.org/2000/svg" xmlns:xlink="http://www.w3.org/1999/xlink" contentScriptType="application/ecmascript" contentStyleType="text/css" height="212px" preserveAspectRatio="none" style="width:299px;height:212px;" version="1.1" viewBox="0 0 299 212" width="299px" zoomAndPan="magnify"><defs><filter height="300%" id="fp9wlnwfvndck" width="300%" x="-1" y="-1"><feGaussianBlur result="blurOut" stdDeviation="2.0"/><feColorMatrix in="blurOut" result="blurOut2" type="matrix" values="0 0 0 0 0 0 0 0 0 0 0 0 0 0 0 0 0 0 .4 0"/><feOffset dx="4.0" dy="4.0" in="blurOut2" result="blurOut3"/><feBlend in="SourceGraphic" in2="blurOut3" mode="normal"/></filter></defs><g><!--cluster soen6441riskgame.utils.presenter--><a target="_parent" xlink:actuate="onRequest" xlink:href="../../../soen6441riskgame/utils/presenter/package-summary.html" xlink:show="new" xlink:title="soen6441riskgame.utils.presenter" xlink:type="simple"><polygon fill="#FFFFE0" filter="url(#fp9wlnwfvndck)" points="22,24,267,24,274,47.6094,277,47.6094,277,200,22,200,22,24" style="stroke: #000000; stroke-width: 2.0;"/><line style="stroke: #000000; stroke-width: 2.0;" x1="22" x2="274" y1="47.6094" y2="47.6094"/><text fill="#000000" font-family="sans-serif" font-size="14" font-weight="bold" lengthAdjust="spacingAndGlyphs" textLength="239" x="26" y="40.5332">soen6441riskgame.utils.presenter</text></a><!--class soen6441riskgame.utils.presenter.WindowOutputStream--><a target="_parent" xlink:actuate="onRequest" xlink:href="../../../soen6441riskgame/utils/presenter/WindowOutputStream.html" xlink:show="new" xlink:title="soen6441riskgame.utils.presenter.WindowOutputStream" xlink:type="simple"><rect fill="#FEFECE" filter="url(#fp9wlnwfvndck)" height="32" id="soen6441riskgame.utils.presenter.WindowOutputStream" style="stroke: #A80036; stroke-width: 1.5;" width="184" x="57" y="60"/><ellipse cx="72" cy="76" fill="#ADD1B2" rx="11" ry="11" style="stroke: #A80036; stroke-width: 1.0;"/><path d="M74.7656,71.875 Q74.9219,71.6563 75.1094,71.5469 Q75.2969,71.4375 75.5156,71.4375 Q75.8906,71.4375 76.125,71.6953 Q76.3594,71.9531 76.3594,72.5625 L76.3594,74.0156 Q76.3594,74.625 76.125,74.8906 Q75.8906,75.1563 75.5156,75.1563 Q75.1719,75.1563 74.9688,74.9531 Q74.7656,74.7656 74.6563,74.25 Q74.6094,73.8906 74.4219,73.7031 Q74.0938,73.3281 73.4844,73.1094 Q72.875,72.8906 72.25,72.8906 Q71.4844,72.8906 70.8516,73.2188 Q70.2188,73.5469 69.7266,74.2969 Q69.2344,75.0469 69.2344,76.0781 L69.2344,77.1719 Q69.2344,78.4063 70.125,79.2266 Q71.0156,80.0469 72.6094,80.0469 Q73.5469,80.0469 74.2031,79.7969 Q74.5938,79.6406 75.0156,79.2031 Q75.2813,78.9375 75.4297,78.8594 Q75.5781,78.7813 75.7813,78.7813 Q76.1094,78.7813 76.3672,79.0391 Q76.625,79.2969 76.625,79.6406 Q76.625,79.9844 76.2813,80.3906 Q75.7813,80.9688 74.9844,81.2969 Q73.9063,81.75 72.6094,81.75 Q71.0938,81.75 69.8906,81.125 Q68.9063,80.625 68.2188,79.5547 Q67.5313,78.4844 67.5313,77.2031 L67.5313,76.0469 Q67.5313,74.7188 68.1484,73.5703 Q68.7656,72.4219 69.8594,71.8047 Q70.9531,71.1875 72.1875,71.1875 Q72.9219,71.1875 73.5703,71.3516 Q74.2188,71.5156 74.7656,71.875 Z "/><text fill="#000000" font-family="sans-serif" font-size="14" font-weight="bold" lengthAdjust="spacingAndGlyphs" textLength="152" x="86" y="81.7285">WindowOutputStream</text></a><!--class soen6441riskgame.utils.presenter.WindowPane--><a target="_parent" xlink:actuate="onRequest" xlink:href="../../../soen6441riskgame/utils/presenter/WindowPane.html" xlink:show="new" xlink:title="soen6441riskgame.utils.presenter.WindowPane" xlink:type="simple"><rect fill="#FEFECE" filter="url(#fp9wlnwfvndck)" height="32" id="soen6441riskgame.utils.presenter.WindowPane" style="stroke: #A80036; stroke-width: 1.5;" width="122" x="88" y="152"/><ellipse cx="103" cy="168" fill="#ADD1B2" rx="11" ry="11" style="stroke: #A80036; stroke-width: 1.0;"/><path d="M105.7656,163.875 Q105.9219,163.6563 106.1094,163.5469 Q106.2969,163.4375 106.5156,163.4375 Q106.8906,163.4375 107.125,163.6953 Q107.3594,163.9531 107.3594,164.5625 L107.3594,166.0156 Q107.3594,166.625 107.125,166.8906 Q106.8906,167.1563 106.5156,167.1563 Q106.1719,167.1563 105.9688,166.9531 Q105.7656,166.7656 105.6563,166.25 Q105.6094,165.8906 105.4219,165.7031 Q105.0938,165.3281 104.4844,165.1094 Q103.875,164.8906 103.25,164.8906 Q102.4844,164.8906 101.8516,165.2188 Q101.2188,165.5469 100.7266,166.2969 Q100.2344,167.0469 100.2344,168.0781 L100.2344,169.1719 Q100.2344,170.4063 101.125,171.2266 Q102.0156,172.0469 103.6094,172.0469 Q104.5469,172.0469 105.2031,171.7969 Q105.5938,171.6406 106.0156,171.2031 Q106.2813,170.9375 106.4297,170.8594 Q106.5781,170.7813 106.7813,170.7813 Q107.1094,170.7813 107.3672,171.0391 Q107.625,171.2969 107.625,171.6406 Q107.625,171.9844 107.2813,172.3906 Q106.7813,172.9688 105.9844,173.2969 Q104.9063,173.75 103.6094,173.75 Q102.0938,173.75 100.8906,173.125 Q99.9063,172.625 99.2188,171.5547 Q98.5313,170.4844 98.5313,169.2031 L98.5313,168.0469 Q98.5313,166.7188 99.1484,165.5703 Q99.7656,164.4219 100.8594,163.8047 Q101.9531,163.1875 103.1875,163.1875 Q103.9219,163.1875 104.5703,163.3516 Q105.2188,163.5156 105.7656,163.875 Z "/><text fill="#000000" font-family="sans-serif" font-size="14" font-weight="bold" lengthAdjust="spacingAndGlyphs" textLength="90" x="117" y="173.7285">WindowPane</text></a><!--link soen6441riskgame.utils.presenter.WindowOutputStream to soen6441riskgame.utils.presenter.WindowPane--><path d="M149,92.025 C149,92.025 149,146.8498 149,146.8498 " fill="none" id="soen6441riskgame.utils.presenter.WindowOutputStream-soen6441riskgame.utils.presenter.WindowPane" style="stroke: #A80036; stroke-width: 1.0;"/><polygon fill="#A80036" points="149,151.8498,153,142.8498,149,146.8498,145,142.8498,149,151.8498" style="stroke: #A80036; stroke-width: 1.0;"/><text fill="#000000" font-family="sans-serif" font-size="13" lengthAdjust="spacingAndGlyphs" textLength="72" x="64.625" y="141.1037">windowPane</text><!--
@startuml

skinparam svgLinkTarget _parent
skinparam linetype ortho
package soen6441riskgame.utils.presenter [[../../../soen6441riskgame/utils/presenter/package-summary.html{soen6441riskgame.utils.presenter}]] #lightyellow {
}

class "<b><size:14>WindowOutputStream</b>" as soen6441riskgame.utils.presenter.WindowOutputStream  [[../../../soen6441riskgame/utils/presenter/WindowOutputStream.html{soen6441riskgame.utils.presenter.WindowOutputStream}]] {
}

hide soen6441riskgame.utils.presenter.WindowOutputStream fields
hide soen6441riskgame.utils.presenter.WindowOutputStream methods

class "<b><size:14>WindowPane</b>" as soen6441riskgame.utils.presenter.WindowPane  [[../../../soen6441riskgame/utils/presenter/WindowPane.html{soen6441riskgame.utils.presenter.WindowPane}]] {
}

hide soen6441riskgame.utils.presenter.WindowPane fields
hide soen6441riskgame.utils.presenter.WindowPane methods

soen6441riskgame.utils.presenter.WindowOutputStream - ->  "windowPane" soen6441riskgame.utils.presenter.WindowPane

@enduml

PlantUML version 1.2017.15(Mon Jul 03 12:45:34 EDT 2017)
(GPL source distribution)
Java Runtime: Java(TM) SE Runtime Environment
JVM: Java HotSpot(TM) 64-Bit Server VM
Java Version: 1.8.0_231-b11
Operating System: Windows 10
OS Version: 10.0
Default Encoding: Cp1252
Language: en
Country: US
--></g></svg>