<?xml version="1.0" encoding="UTF-8" standalone="no"?><svg xmlns="http://www.w3.org/2000/svg" xmlns:xlink="http://www.w3.org/1999/xlink" contentScriptType="application/ecmascript" contentStyleType="text/css" height="358px" preserveAspectRatio="none" style="width:562px;height:358px;" version="1.1" viewBox="0 0 562 358" width="562px" zoomAndPan="magnify"><defs><filter height="300%" id="fdnysqs7gi441" width="300%" x="-1" y="-1"><feGaussianBlur result="blurOut" stdDeviation="2.0"/><feColorMatrix in="blurOut" result="blurOut2" type="matrix" values="0 0 0 0 0 0 0 0 0 0 0 0 0 0 0 0 0 0 .4 0"/><feOffset dx="4.0" dy="4.0" in="blurOut2" result="blurOut3"/><feBlend in="SourceGraphic" in2="blurOut3" mode="normal"/></filter></defs><g><!--class soen6441riskgame.utils.presenter.WindowPane--><a target="_parent" xlink:actuate="onRequest" xlink:href="../../../soen6441riskgame/utils/presenter/WindowPane.html" xlink:show="new" xlink:title="soen6441riskgame.utils.presenter.WindowPane" xlink:type="simple"><rect fill="#FEFECE" filter="url(#fdnysqs7gi441)" height="139.2031" id="soen6441riskgame.utils.presenter.WindowPane" style="stroke: #A80036; stroke-width: 1.5;" width="187" x="182" y="108"/><ellipse cx="197" cy="128.0938" fill="#ADD1B2" rx="11" ry="11" style="stroke: #A80036; stroke-width: 1.0;"/><path d="M199.7656,123.9688 Q199.9219,123.75 200.1094,123.6406 Q200.2969,123.5313 200.5156,123.5313 Q200.8906,123.5313 201.125,123.7891 Q201.3594,124.0469 201.3594,124.6563 L201.3594,126.1094 Q201.3594,126.7188 201.125,126.9844 Q200.8906,127.25 200.5156,127.25 Q200.1719,127.25 199.9688,127.0469 Q199.7656,126.8594 199.6563,126.3438 Q199.6094,125.9844 199.4219,125.7969 Q199.0938,125.4219 198.4844,125.2031 Q197.875,124.9844 197.25,124.9844 Q196.4844,124.9844 195.8516,125.3125 Q195.2188,125.6406 194.7266,126.3906 Q194.2344,127.1406 194.2344,128.1719 L194.2344,129.2656 Q194.2344,130.5 195.125,131.3203 Q196.0156,132.1406 197.6094,132.1406 Q198.5469,132.1406 199.2031,131.8906 Q199.5938,131.7344 200.0156,131.2969 Q200.2813,131.0313 200.4297,130.9531 Q200.5781,130.875 200.7813,130.875 Q201.1094,130.875 201.3672,131.1328 Q201.625,131.3906 201.625,131.7344 Q201.625,132.0781 201.2813,132.4844 Q200.7813,133.0625 199.9844,133.3906 Q198.9063,133.8438 197.6094,133.8438 Q196.0938,133.8438 194.8906,133.2188 Q193.9063,132.7188 193.2188,131.6484 Q192.5313,130.5781 192.5313,129.2969 L192.5313,128.1406 Q192.5313,126.8125 193.1484,125.6641 Q193.7656,124.5156 194.8594,123.8984 Q195.9531,123.2813 197.1875,123.2813 Q197.9219,123.2813 198.5703,123.4453 Q199.2188,123.6094 199.7656,123.9688 Z "/><text fill="#000000" font-family="sans-serif" font-size="14" font-weight="bold" lengthAdjust="spacingAndGlyphs" textLength="90" x="243.5" y="127.5332">WindowPane</text><text fill="#000000" font-family="sans-serif" font-size="10" lengthAdjust="spacingAndGlyphs" textLength="155" x="211" y="140.9902">soen6441riskgame.utils.presenter</text><line style="stroke: #A80036; stroke-width: 1.5;" x1="183" x2="368" y1="148.1875" y2="148.1875"/><rect fill="none" height="6" style="stroke: #C82930; stroke-width: 1.0;" width="6" x="190" y="157.6055"/><text fill="#000000" font-family="sans-serif" font-size="11" lengthAdjust="spacingAndGlyphs" text-decoration="underline" textLength="103" x="202" y="163.6064">long serialVersionUID</text><line style="stroke: #000000; stroke-width: 1.0;" x1="202" x2="305" y1="165.6064" y2="165.6064"/><rect fill="none" height="6" style="stroke: #C82930; stroke-width: 1.0;" width="6" x="190" y="171.4414"/><text fill="#000000" font-family="sans-serif" font-size="11" lengthAdjust="spacingAndGlyphs" textLength="95" x="202" y="177.4424">JTextArea textArea</text><line style="stroke: #A80036; stroke-width: 1.5;" x1="183" x2="368" y1="183.8594" y2="183.8594"/><ellipse cx="193" cy="196.2773" fill="#84BE84" rx="3" ry="3" style="stroke: #038048; stroke-width: 1.0;"/><text fill="#000000" font-family="sans-serif" font-size="11" lengthAdjust="spacingAndGlyphs" textLength="72" x="202" y="199.2783">WindowPane()</text><ellipse cx="193" cy="210.1133" fill="#84BE84" rx="3" ry="3" style="stroke: #038048; stroke-width: 1.0;"/><text fill="#000000" font-family="sans-serif" font-size="11" lengthAdjust="spacingAndGlyphs" textLength="73" x="202" y="213.1143">Font loadFont()</text><ellipse cx="193" cy="223.9492" fill="#84BE84" rx="3" ry="3" style="stroke: #038048; stroke-width: 1.0;"/><text fill="#000000" font-family="sans-serif" font-size="11" lengthAdjust="spacingAndGlyphs" textLength="81" x="202" y="226.9502">void clearView()</text><ellipse cx="193" cy="237.7852" fill="#84BE84" rx="3" ry="3" style="stroke: #038048; stroke-width: 1.0;"/><text fill="#000000" font-family="sans-serif" font-size="11" lengthAdjust="spacingAndGlyphs" textLength="137" x="202" y="240.7861">void appendText(String text)</text></a><!--class soen6441riskgame.utils.ConsolePrinter--><a target="_parent" xlink:actuate="onRequest" xlink:href="../../../soen6441riskgame/utils/ConsolePrinter.html" xlink:show="new" xlink:title="soen6441riskgame.utils.ConsolePrinter" xlink:type="simple"><rect fill="#FFFFFF" filter="url(#fdnysqs7gi441)" height="40.1875" id="soen6441riskgame.utils.ConsolePrinter" style="stroke: #A80036; stroke-width: 1.5;" width="141" x="6" y="8"/><rect fill="#FFFFFF" height="40.1875" style="stroke: #A80036; stroke-width: 1.5;" width="141" x="6" y="8"/><ellipse cx="21" cy="28.0938" fill="#ADD1B2" rx="11" ry="11" style="stroke: #A80036; stroke-width: 1.0;"/><path d="M23.7656,23.9688 Q23.9219,23.75 24.1094,23.6406 Q24.2969,23.5313 24.5156,23.5313 Q24.8906,23.5313 25.125,23.7891 Q25.3594,24.0469 25.3594,24.6563 L25.3594,26.1094 Q25.3594,26.7188 25.125,26.9844 Q24.8906,27.25 24.5156,27.25 Q24.1719,27.25 23.9688,27.0469 Q23.7656,26.8594 23.6563,26.3438 Q23.6094,25.9844 23.4219,25.7969 Q23.0938,25.4219 22.4844,25.2031 Q21.875,24.9844 21.25,24.9844 Q20.4844,24.9844 19.8516,25.3125 Q19.2188,25.6406 18.7266,26.3906 Q18.2344,27.1406 18.2344,28.1719 L18.2344,29.2656 Q18.2344,30.5 19.125,31.3203 Q20.0156,32.1406 21.6094,32.1406 Q22.5469,32.1406 23.2031,31.8906 Q23.5938,31.7344 24.0156,31.2969 Q24.2813,31.0313 24.4297,30.9531 Q24.5781,30.875 24.7813,30.875 Q25.1094,30.875 25.3672,31.1328 Q25.625,31.3906 25.625,31.7344 Q25.625,32.0781 25.2813,32.4844 Q24.7813,33.0625 23.9844,33.3906 Q22.9063,33.8438 21.6094,33.8438 Q20.0938,33.8438 18.8906,33.2188 Q17.9063,32.7188 17.2188,31.6484 Q16.5313,30.5781 16.5313,29.2969 L16.5313,28.1406 Q16.5313,26.8125 17.1484,25.6641 Q17.7656,24.5156 18.8594,23.8984 Q19.9531,23.2813 21.1875,23.2813 Q21.9219,23.2813 22.5703,23.4453 Q23.2188,23.6094 23.7656,23.9688 Z "/><text fill="#000000" font-family="sans-serif" font-size="14" font-weight="bold" lengthAdjust="spacingAndGlyphs" textLength="106" x="36.5" y="27.5332">ConsolePrinter</text><text fill="#000000" font-family="sans-serif" font-size="10" lengthAdjust="spacingAndGlyphs" textLength="109" x="35" y="40.9902">soen6441riskgame.utils</text></a><!--class soen6441riskgame.utils.presenter.WindowOutputStream--><a target="_parent" xlink:actuate="onRequest" xlink:href="../../../soen6441riskgame/utils/presenter/WindowOutputStream.html" xlink:show="new" xlink:title="soen6441riskgame.utils.presenter.WindowOutputStream" xlink:type="simple"><rect fill="#FEFECE" filter="url(#fdnysqs7gi441)" height="40.1875" id="soen6441riskgame.utils.presenter.WindowOutputStream" style="stroke: #A80036; stroke-width: 1.5;" width="187" x="182" y="8"/><ellipse cx="197" cy="28.0938" fill="#ADD1B2" rx="11" ry="11" style="stroke: #A80036; stroke-width: 1.0;"/><path d="M199.7656,23.9688 Q199.9219,23.75 200.1094,23.6406 Q200.2969,23.5313 200.5156,23.5313 Q200.8906,23.5313 201.125,23.7891 Q201.3594,24.0469 201.3594,24.6563 L201.3594,26.1094 Q201.3594,26.7188 201.125,26.9844 Q200.8906,27.25 200.5156,27.25 Q200.1719,27.25 199.9688,27.0469 Q199.7656,26.8594 199.6563,26.3438 Q199.6094,25.9844 199.4219,25.7969 Q199.0938,25.4219 198.4844,25.2031 Q197.875,24.9844 197.25,24.9844 Q196.4844,24.9844 195.8516,25.3125 Q195.2188,25.6406 194.7266,26.3906 Q194.2344,27.1406 194.2344,28.1719 L194.2344,29.2656 Q194.2344,30.5 195.125,31.3203 Q196.0156,32.1406 197.6094,32.1406 Q198.5469,32.1406 199.2031,31.8906 Q199.5938,31.7344 200.0156,31.2969 Q200.2813,31.0313 200.4297,30.9531 Q200.5781,30.875 200.7813,30.875 Q201.1094,30.875 201.3672,31.1328 Q201.625,31.3906 201.625,31.7344 Q201.625,32.0781 201.2813,32.4844 Q200.7813,33.0625 199.9844,33.3906 Q198.9063,33.8438 197.6094,33.8438 Q196.0938,33.8438 194.8906,33.2188 Q193.9063,32.7188 193.2188,31.6484 Q192.5313,30.5781 192.5313,29.2969 L192.5313,28.1406 Q192.5313,26.8125 193.1484,25.6641 Q193.7656,24.5156 194.8594,23.8984 Q195.9531,23.2813 197.1875,23.2813 Q197.9219,23.2813 198.5703,23.4453 Q199.2188,23.6094 199.7656,23.9688 Z "/><text fill="#000000" font-family="sans-serif" font-size="14" font-weight="bold" lengthAdjust="spacingAndGlyphs" textLength="152" x="212.5" y="27.5332">WindowOutputStream</text><text fill="#000000" font-family="sans-serif" font-size="10" lengthAdjust="spacingAndGlyphs" textLength="155" x="211" y="40.9902">soen6441riskgame.utils.presenter</text></a><!--class javax.swing.JTextArea--><rect fill="#D3D3D3" filter="url(#fdnysqs7gi441)" height="40.1875" id="javax.swing.JTextArea" style="stroke: #A80036; stroke-width: 1.5;" width="102" x="95.5" y="307"/><rect fill="#D3D3D3" height="40.1875" style="stroke: #A80036; stroke-width: 1.5;" width="102" x="95.5" y="307"/><ellipse cx="110.5" cy="327.0938" fill="#ADD1B2" rx="11" ry="11" style="stroke: #A80036; stroke-width: 1.0;"/><path d="M113.2656,322.9688 Q113.4219,322.75 113.6094,322.6406 Q113.7969,322.5313 114.0156,322.5313 Q114.3906,322.5313 114.625,322.7891 Q114.8594,323.0469 114.8594,323.6563 L114.8594,325.1094 Q114.8594,325.7188 114.625,325.9844 Q114.3906,326.25 114.0156,326.25 Q113.6719,326.25 113.4688,326.0469 Q113.2656,325.8594 113.1563,325.3438 Q113.1094,324.9844 112.9219,324.7969 Q112.5938,324.4219 111.9844,324.2031 Q111.375,323.9844 110.75,323.9844 Q109.9844,323.9844 109.3516,324.3125 Q108.7188,324.6406 108.2266,325.3906 Q107.7344,326.1406 107.7344,327.1719 L107.7344,328.2656 Q107.7344,329.5 108.625,330.3203 Q109.5156,331.1406 111.1094,331.1406 Q112.0469,331.1406 112.7031,330.8906 Q113.0938,330.7344 113.5156,330.2969 Q113.7813,330.0313 113.9297,329.9531 Q114.0781,329.875 114.2813,329.875 Q114.6094,329.875 114.8672,330.1328 Q115.125,330.3906 115.125,330.7344 Q115.125,331.0781 114.7813,331.4844 Q114.2813,332.0625 113.4844,332.3906 Q112.4063,332.8438 111.1094,332.8438 Q109.5938,332.8438 108.3906,332.2188 Q107.4063,331.7188 106.7188,330.6484 Q106.0313,329.5781 106.0313,328.2969 L106.0313,327.1406 Q106.0313,325.8125 106.6484,324.6641 Q107.2656,323.5156 108.3594,322.8984 Q109.4531,322.2813 110.6875,322.2813 Q111.4219,322.2813 112.0703,322.4453 Q112.7188,322.6094 113.2656,322.9688 Z "/><text fill="#000000" font-family="sans-serif" font-size="14" font-weight="bold" lengthAdjust="spacingAndGlyphs" textLength="70" x="124.5" y="326.5332">JTextArea</text><text fill="#000000" font-family="sans-serif" font-size="10" lengthAdjust="spacingAndGlyphs" textLength="54" x="132.5" y="339.9902">javax.swing</text><!--class javax.swing.JPanel--><rect fill="#D3D3D3" filter="url(#fdnysqs7gi441)" height="40.1875" id="javax.swing.JPanel" style="stroke: #A80036; stroke-width: 1.5;" width="86" x="232.5" y="307"/><rect fill="#D3D3D3" height="40.1875" style="stroke: #A80036; stroke-width: 1.5;" width="86" x="232.5" y="307"/><ellipse cx="247.5" cy="327.0938" fill="#ADD1B2" rx="11" ry="11" style="stroke: #A80036; stroke-width: 1.0;"/><path d="M250.2656,322.9688 Q250.4219,322.75 250.6094,322.6406 Q250.7969,322.5313 251.0156,322.5313 Q251.3906,322.5313 251.625,322.7891 Q251.8594,323.0469 251.8594,323.6563 L251.8594,325.1094 Q251.8594,325.7188 251.625,325.9844 Q251.3906,326.25 251.0156,326.25 Q250.6719,326.25 250.4688,326.0469 Q250.2656,325.8594 250.1563,325.3438 Q250.1094,324.9844 249.9219,324.7969 Q249.5938,324.4219 248.9844,324.2031 Q248.375,323.9844 247.75,323.9844 Q246.9844,323.9844 246.3516,324.3125 Q245.7188,324.6406 245.2266,325.3906 Q244.7344,326.1406 244.7344,327.1719 L244.7344,328.2656 Q244.7344,329.5 245.625,330.3203 Q246.5156,331.1406 248.1094,331.1406 Q249.0469,331.1406 249.7031,330.8906 Q250.0938,330.7344 250.5156,330.2969 Q250.7813,330.0313 250.9297,329.9531 Q251.0781,329.875 251.2813,329.875 Q251.6094,329.875 251.8672,330.1328 Q252.125,330.3906 252.125,330.7344 Q252.125,331.0781 251.7813,331.4844 Q251.2813,332.0625 250.4844,332.3906 Q249.4063,332.8438 248.1094,332.8438 Q246.5938,332.8438 245.3906,332.2188 Q244.4063,331.7188 243.7188,330.6484 Q243.0313,329.5781 243.0313,328.2969 L243.0313,327.1406 Q243.0313,325.8125 243.6484,324.6641 Q244.2656,323.5156 245.3594,322.8984 Q246.4531,322.2813 247.6875,322.2813 Q248.4219,322.2813 249.0703,322.4453 Q249.7188,322.6094 250.2656,322.9688 Z "/><text fill="#000000" font-family="sans-serif" font-size="14" font-weight="bold" lengthAdjust="spacingAndGlyphs" textLength="47" x="265" y="326.5332">JPanel</text><text fill="#000000" font-family="sans-serif" font-size="10" lengthAdjust="spacingAndGlyphs" textLength="54" x="261.5" y="339.9902">javax.swing</text><!--class java.awt.Font--><rect fill="#D3D3D3" filter="url(#fdnysqs7gi441)" height="40.1875" id="java.awt.Font" style="stroke: #A80036; stroke-width: 1.5;" width="71" x="354" y="307"/><rect fill="#D3D3D3" height="40.1875" style="stroke: #A80036; stroke-width: 1.5;" width="71" x="354" y="307"/><ellipse cx="369" cy="327.0938" fill="#ADD1B2" rx="11" ry="11" style="stroke: #A80036; stroke-width: 1.0;"/><path d="M371.7656,322.9688 Q371.9219,322.75 372.1094,322.6406 Q372.2969,322.5313 372.5156,322.5313 Q372.8906,322.5313 373.125,322.7891 Q373.3594,323.0469 373.3594,323.6563 L373.3594,325.1094 Q373.3594,325.7188 373.125,325.9844 Q372.8906,326.25 372.5156,326.25 Q372.1719,326.25 371.9688,326.0469 Q371.7656,325.8594 371.6563,325.3438 Q371.6094,324.9844 371.4219,324.7969 Q371.0938,324.4219 370.4844,324.2031 Q369.875,323.9844 369.25,323.9844 Q368.4844,323.9844 367.8516,324.3125 Q367.2188,324.6406 366.7266,325.3906 Q366.2344,326.1406 366.2344,327.1719 L366.2344,328.2656 Q366.2344,329.5 367.125,330.3203 Q368.0156,331.1406 369.6094,331.1406 Q370.5469,331.1406 371.2031,330.8906 Q371.5938,330.7344 372.0156,330.2969 Q372.2813,330.0313 372.4297,329.9531 Q372.5781,329.875 372.7813,329.875 Q373.1094,329.875 373.3672,330.1328 Q373.625,330.3906 373.625,330.7344 Q373.625,331.0781 373.2813,331.4844 Q372.7813,332.0625 371.9844,332.3906 Q370.9063,332.8438 369.6094,332.8438 Q368.0938,332.8438 366.8906,332.2188 Q365.9063,331.7188 365.2188,330.6484 Q364.5313,329.5781 364.5313,328.2969 L364.5313,327.1406 Q364.5313,325.8125 365.1484,324.6641 Q365.7656,323.5156 366.8594,322.8984 Q367.9531,322.2813 369.1875,322.2813 Q369.9219,322.2813 370.5703,322.4453 Q371.2188,322.6094 371.7656,322.9688 Z "/><text fill="#000000" font-family="sans-serif" font-size="14" font-weight="bold" lengthAdjust="spacingAndGlyphs" textLength="32" x="386.5" y="326.5332">Font</text><text fill="#000000" font-family="sans-serif" font-size="10" lengthAdjust="spacingAndGlyphs" textLength="39" x="383" y="339.9902">java.awt</text><!--class soen6441riskgame.views.SeparatedView--><a target="_parent" xlink:actuate="onRequest" xlink:href="../../../soen6441riskgame/views/SeparatedView.html" xlink:show="new" xlink:title="soen6441riskgame.views.SeparatedView" xlink:type="simple"><rect fill="#FFFFFF" filter="url(#fdnysqs7gi441)" height="40.1875" id="soen6441riskgame.views.SeparatedView" style="stroke: #A80036; stroke-width: 1.5;" width="147" x="404" y="8"/><rect fill="#FFFFFF" height="40.1875" style="stroke: #A80036; stroke-width: 1.5;" width="147" x="404" y="8"/><ellipse cx="419" cy="28.0938" fill="#ADD1B2" rx="11" ry="11" style="stroke: #A80036; stroke-width: 1.0;"/><path d="M421.7656,23.9688 Q421.9219,23.75 422.1094,23.6406 Q422.2969,23.5313 422.5156,23.5313 Q422.8906,23.5313 423.125,23.7891 Q423.3594,24.0469 423.3594,24.6563 L423.3594,26.1094 Q423.3594,26.7188 423.125,26.9844 Q422.8906,27.25 422.5156,27.25 Q422.1719,27.25 421.9688,27.0469 Q421.7656,26.8594 421.6563,26.3438 Q421.6094,25.9844 421.4219,25.7969 Q421.0938,25.4219 420.4844,25.2031 Q419.875,24.9844 419.25,24.9844 Q418.4844,24.9844 417.8516,25.3125 Q417.2188,25.6406 416.7266,26.3906 Q416.2344,27.1406 416.2344,28.1719 L416.2344,29.2656 Q416.2344,30.5 417.125,31.3203 Q418.0156,32.1406 419.6094,32.1406 Q420.5469,32.1406 421.2031,31.8906 Q421.5938,31.7344 422.0156,31.2969 Q422.2813,31.0313 422.4297,30.9531 Q422.5781,30.875 422.7813,30.875 Q423.1094,30.875 423.3672,31.1328 Q423.625,31.3906 423.625,31.7344 Q423.625,32.0781 423.2813,32.4844 Q422.7813,33.0625 421.9844,33.3906 Q420.9063,33.8438 419.6094,33.8438 Q418.0938,33.8438 416.8906,33.2188 Q415.9063,32.7188 415.2188,31.6484 Q414.5313,30.5781 414.5313,29.2969 L414.5313,28.1406 Q414.5313,26.8125 415.1484,25.6641 Q415.7656,24.5156 416.8594,23.8984 Q417.9531,23.2813 419.1875,23.2813 Q419.9219,23.2813 420.5703,23.4453 Q421.2188,23.6094 421.7656,23.9688 Z "/><text fill="#000000" font-family="sans-serif" font-size="14" font-weight="bold" lengthAdjust="spacingAndGlyphs" textLength="105" x="438" y="27.5332">SeparatedView</text><text fill="#000000" font-family="sans-serif" font-size="10" lengthAdjust="spacingAndGlyphs" textLength="115" x="433" y="40.9902">soen6441riskgame.views</text></a><!--link soen6441riskgame.utils.ConsolePrinter to soen6441riskgame.utils.presenter.WindowPane--><path d="M121.25,48.23 C121.25,89.173 121.25,178 121.25,178 C121.25,178 176.771,178 176.771,178 " fill="none" id="soen6441riskgame.utils.ConsolePrinter-soen6441riskgame.utils.presenter.WindowPane" style="stroke: #A80036; stroke-width: 1.0; stroke-dasharray: 7.0,7.0;"/><polygon fill="#A80036" points="181.771,178,172.771,174,176.771,178,172.771,182,181.771,178" style="stroke: #A80036; stroke-width: 1.0;"/><!--link soen6441riskgame.utils.presenter.WindowOutputStream to soen6441riskgame.utils.presenter.WindowPane--><path d="M275.5,48.162 C275.5,48.162 275.5,102.691 275.5,102.691 " fill="none" id="soen6441riskgame.utils.presenter.WindowOutputStream-soen6441riskgame.utils.presenter.WindowPane" style="stroke: #A80036; stroke-width: 1.0;"/><polygon fill="#A80036" points="275.5,107.691,279.5,98.691,275.5,102.691,271.5,98.691,275.5,107.691" style="stroke: #A80036; stroke-width: 1.0;"/><text fill="#000000" font-family="sans-serif" font-size="13" lengthAdjust="spacingAndGlyphs" textLength="72" x="199.7875" y="97.1697">windowPane</text><!--link soen6441riskgame.utils.presenter.WindowPane to javax.swing.JTextArea--><path d="M189.75,247.4351 C189.75,247.4351 189.75,301.8827 189.75,301.8827 " fill="none" id="soen6441riskgame.utils.presenter.WindowPane-javax.swing.JTextArea" style="stroke: #A80036; stroke-width: 1.0;"/><polygon fill="#A80036" points="189.75,306.8827,193.75,297.8827,189.75,301.8827,185.75,297.8827,189.75,306.8827" style="stroke: #A80036; stroke-width: 1.0;"/><text fill="#000000" font-family="sans-serif" font-size="13" lengthAdjust="spacingAndGlyphs" textLength="49" x="146.2578" y="296.1425">textArea</text><!--link soen6441riskgame.utils.presenter.WindowPane to javax.swing.JPanel--><path d="M275.5,247.4351 C275.5,247.4351 275.5,286.8827 275.5,286.8827 " fill="none" id="soen6441riskgame.utils.presenter.WindowPane-javax.swing.JPanel" style="stroke: #A80036; stroke-width: 1.0;"/><polygon fill="none" points="282.5,286.8827,275.5,306.8827,268.5,286.8826,282.5,286.8827" style="stroke: #A80036; stroke-width: 1.0;"/><!--link soen6441riskgame.utils.presenter.WindowPane to java.awt.Font--><path d="M361.5,247.4351 C361.5,247.4351 361.5,301.8827 361.5,301.8827 " fill="none" id="soen6441riskgame.utils.presenter.WindowPane-java.awt.Font" style="stroke: #A80036; stroke-width: 1.0; stroke-dasharray: 7.0,7.0;"/><polygon fill="#A80036" points="361.5,306.8827,365.5,297.8827,361.5,301.8827,357.5,297.8827,361.5,306.8827" style="stroke: #A80036; stroke-width: 1.0;"/><!--link soen6441riskgame.views.SeparatedView to soen6441riskgame.utils.presenter.WindowPane--><path d="M414.5,48.23 C414.5,89.173 414.5,178 414.5,178 C414.5,178 374.371,178 374.371,178 " fill="none" id="soen6441riskgame.views.SeparatedView-soen6441riskgame.utils.presenter.WindowPane" style="stroke: #A80036; stroke-width: 1.0;"/><polygon fill="#A80036" points="369.371,178,378.371,182,374.371,178,378.371,174,369.371,178" style="stroke: #A80036; stroke-width: 1.0;"/><text fill="#000000" font-family="sans-serif" font-size="13" lengthAdjust="spacingAndGlyphs" textLength="54" x="377.1143" y="175.0194">presenter</text><!--
@startuml

skinparam svgLinkTarget _parent
skinparam linetype ortho
set namespaceSeparator none
class "<b><size:14>WindowPane</b>\n<size:10>soen6441riskgame.utils.presenter" as soen6441riskgame.utils.presenter.WindowPane  [[../../../soen6441riskgame/utils/presenter/WindowPane.html{soen6441riskgame.utils.presenter.WindowPane}]] {
{static} -long serialVersionUID
-JTextArea textArea
+WindowPane()
+Font loadFont()
+void clearView()
+void appendText(String text)
}


class "<b><size:14>ConsolePrinter</b>\n<size:10>soen6441riskgame.utils" as soen6441riskgame.utils.ConsolePrinter  [[../../../soen6441riskgame/utils/ConsolePrinter.html{soen6441riskgame.utils.ConsolePrinter}]] #white {
}

hide soen6441riskgame.utils.ConsolePrinter fields
hide soen6441riskgame.utils.ConsolePrinter methods

soen6441riskgame.utils.ConsolePrinter ..> soen6441riskgame.utils.presenter.WindowPane

class "<b><size:14>WindowOutputStream</b>\n<size:10>soen6441riskgame.utils.presenter" as soen6441riskgame.utils.presenter.WindowOutputStream  [[../../../soen6441riskgame/utils/presenter/WindowOutputStream.html{soen6441riskgame.utils.presenter.WindowOutputStream}]] {
}

hide soen6441riskgame.utils.presenter.WindowOutputStream fields
hide soen6441riskgame.utils.presenter.WindowOutputStream methods

soen6441riskgame.utils.presenter.WindowOutputStream - ->  "windowPane" soen6441riskgame.utils.presenter.WindowPane

class "<b><size:14>JTextArea</b>\n<size:10>javax.swing" as javax.swing.JTextArea  #lightgrey {
}

hide javax.swing.JTextArea fields
hide javax.swing.JTextArea methods

soen6441riskgame.utils.presenter.WindowPane - ->  "textArea" javax.swing.JTextArea

class "<b><size:14>JPanel</b>\n<size:10>javax.swing" as javax.swing.JPanel  #lightgrey {
}

hide javax.swing.JPanel fields
hide javax.swing.JPanel methods

soen6441riskgame.utils.presenter.WindowPane - -|> javax.swing.JPanel

class "<b><size:14>Font</b>\n<size:10>java.awt" as java.awt.Font  #lightgrey {
}

hide java.awt.Font fields
hide java.awt.Font methods

soen6441riskgame.utils.presenter.WindowPane ..> java.awt.Font

class "<b><size:14>SeparatedView</b>\n<size:10>soen6441riskgame.views" as soen6441riskgame.views.SeparatedView  [[../../../soen6441riskgame/views/SeparatedView.html{soen6441riskgame.views.SeparatedView}]] #white {
}

hide soen6441riskgame.views.SeparatedView fields
hide soen6441riskgame.views.SeparatedView methods

soen6441riskgame.views.SeparatedView - ->  "presenter" soen6441riskgame.utils.presenter.WindowPane


@enduml

PlantUML version 1.2017.15(Mon Jul 03 12:45:34 EDT 2017)
(GPL source distribution)
Java Runtime: Java(TM) SE Runtime Environment
JVM: Java HotSpot(TM) 64-Bit Server VM
Java Version: 1.8.0_231-b11
Operating System: Windows 10
OS Version: 10.0
Default Encoding: Cp1252
Language: en
Country: US
--></g></svg>