<?xml version="1.0" encoding="UTF-8" standalone="no"?><svg xmlns="http://www.w3.org/2000/svg" xmlns:xlink="http://www.w3.org/1999/xlink" contentScriptType="application/ecmascript" contentStyleType="text/css" height="231px" preserveAspectRatio="none" style="width:368px;height:231px;" version="1.1" viewBox="0 0 368 231" width="368px" zoomAndPan="magnify"><defs><filter height="300%" id="f1imhxg69puc6g" width="300%" x="-1" y="-1"><feGaussianBlur result="blurOut" stdDeviation="2.0"/><feColorMatrix in="blurOut" result="blurOut2" type="matrix" values="0 0 0 0 0 0 0 0 0 0 0 0 0 0 0 0 0 0 .4 0"/><feOffset dx="4.0" dy="4.0" in="blurOut2" result="blurOut3"/><feBlend in="SourceGraphic" in2="blurOut3" mode="normal"/></filter></defs><g><!--class soen6441riskgame.utils.presenter.WindowOutputStream--><a target="_parent" xlink:actuate="onRequest" xlink:href="../../../soen6441riskgame/utils/presenter/WindowOutputStream.html" xlink:show="new" xlink:title="soen6441riskgame.utils.presenter.WindowOutputStream" xlink:type="simple"><rect fill="#FEFECE" filter="url(#f1imhxg69puc6g)" height="111.5313" id="soen6441riskgame.utils.presenter.WindowOutputStream" style="stroke: #A80036; stroke-width: 1.5;" width="271" x="60" y="8"/><ellipse cx="113.75" cy="28.0938" fill="#ADD1B2" rx="11" ry="11" style="stroke: #A80036; stroke-width: 1.0;"/><path d="M116.5156,23.9688 Q116.6719,23.75 116.8594,23.6406 Q117.0469,23.5313 117.2656,23.5313 Q117.6406,23.5313 117.875,23.7891 Q118.1094,24.0469 118.1094,24.6563 L118.1094,26.1094 Q118.1094,26.7188 117.875,26.9844 Q117.6406,27.25 117.2656,27.25 Q116.9219,27.25 116.7188,27.0469 Q116.5156,26.8594 116.4063,26.3438 Q116.3594,25.9844 116.1719,25.7969 Q115.8438,25.4219 115.2344,25.2031 Q114.625,24.9844 114,24.9844 Q113.2344,24.9844 112.6016,25.3125 Q111.9688,25.6406 111.4766,26.3906 Q110.9844,27.1406 110.9844,28.1719 L110.9844,29.2656 Q110.9844,30.5 111.875,31.3203 Q112.7656,32.1406 114.3594,32.1406 Q115.2969,32.1406 115.9531,31.8906 Q116.3438,31.7344 116.7656,31.2969 Q117.0313,31.0313 117.1797,30.9531 Q117.3281,30.875 117.5313,30.875 Q117.8594,30.875 118.1172,31.1328 Q118.375,31.3906 118.375,31.7344 Q118.375,32.0781 118.0313,32.4844 Q117.5313,33.0625 116.7344,33.3906 Q115.6563,33.8438 114.3594,33.8438 Q112.8438,33.8438 111.6406,33.2188 Q110.6563,32.7188 109.9688,31.6484 Q109.2813,30.5781 109.2813,29.2969 L109.2813,28.1406 Q109.2813,26.8125 109.8984,25.6641 Q110.5156,24.5156 111.6094,23.8984 Q112.7031,23.2813 113.9375,23.2813 Q114.6719,23.2813 115.3203,23.4453 Q115.9688,23.6094 116.5156,23.9688 Z "/><text fill="#000000" font-family="sans-serif" font-size="14" font-weight="bold" lengthAdjust="spacingAndGlyphs" textLength="152" x="135.75" y="27.5332">WindowOutputStream</text><text fill="#000000" font-family="sans-serif" font-size="10" lengthAdjust="spacingAndGlyphs" textLength="155" x="134.25" y="40.9902">soen6441riskgame.utils.presenter</text><line style="stroke: #A80036; stroke-width: 1.5;" x1="61" x2="330" y1="48.1875" y2="48.1875"/><rect fill="none" height="6" style="stroke: #C82930; stroke-width: 1.0;" width="6" x="68" y="57.6055"/><text fill="#000000" font-family="sans-serif" font-size="11" lengthAdjust="spacingAndGlyphs" textLength="94" x="80" y="63.6064">StringBuilder buffer</text><rect fill="none" height="6" style="stroke: #C82930; stroke-width: 1.0;" width="6" x="68" y="71.4414"/><text fill="#000000" font-family="sans-serif" font-size="11" lengthAdjust="spacingAndGlyphs" textLength="131" x="80" y="77.4424">WindowPane windowPane</text><line style="stroke: #A80036; stroke-width: 1.5;" x1="61" x2="330" y1="83.8594" y2="83.8594"/><ellipse cx="71" cy="96.2773" fill="#84BE84" rx="3" ry="3" style="stroke: #038048; stroke-width: 1.0;"/><text fill="#000000" font-family="sans-serif" font-size="11" lengthAdjust="spacingAndGlyphs" textLength="245" x="80" y="99.2783">WindowOutputStream(WindowPane windowPane)</text><ellipse cx="71" cy="110.1133" fill="#84BE84" rx="3" ry="3" style="stroke: #038048; stroke-width: 1.0;"/><text fill="#000000" font-family="sans-serif" font-size="11" lengthAdjust="spacingAndGlyphs" textLength="76" x="80" y="113.1143">void write(int b)</text></a><!--class soen6441riskgame.utils.presenter.WindowPane--><a target="_parent" xlink:actuate="onRequest" xlink:href="../../../soen6441riskgame/utils/presenter/WindowPane.html" xlink:show="new" xlink:title="soen6441riskgame.utils.presenter.WindowPane" xlink:type="simple"><rect fill="#FEFECE" filter="url(#f1imhxg69puc6g)" height="40.1875" id="soen6441riskgame.utils.presenter.WindowPane" style="stroke: #A80036; stroke-width: 1.5;" width="187" x="6" y="180"/><ellipse cx="21" cy="200.0938" fill="#ADD1B2" rx="11" ry="11" style="stroke: #A80036; stroke-width: 1.0;"/><path d="M23.7656,195.9688 Q23.9219,195.75 24.1094,195.6406 Q24.2969,195.5313 24.5156,195.5313 Q24.8906,195.5313 25.125,195.7891 Q25.3594,196.0469 25.3594,196.6563 L25.3594,198.1094 Q25.3594,198.7188 25.125,198.9844 Q24.8906,199.25 24.5156,199.25 Q24.1719,199.25 23.9688,199.0469 Q23.7656,198.8594 23.6563,198.3438 Q23.6094,197.9844 23.4219,197.7969 Q23.0938,197.4219 22.4844,197.2031 Q21.875,196.9844 21.25,196.9844 Q20.4844,196.9844 19.8516,197.3125 Q19.2188,197.6406 18.7266,198.3906 Q18.2344,199.1406 18.2344,200.1719 L18.2344,201.2656 Q18.2344,202.5 19.125,203.3203 Q20.0156,204.1406 21.6094,204.1406 Q22.5469,204.1406 23.2031,203.8906 Q23.5938,203.7344 24.0156,203.2969 Q24.2813,203.0313 24.4297,202.9531 Q24.5781,202.875 24.7813,202.875 Q25.1094,202.875 25.3672,203.1328 Q25.625,203.3906 25.625,203.7344 Q25.625,204.0781 25.2813,204.4844 Q24.7813,205.0625 23.9844,205.3906 Q22.9063,205.8438 21.6094,205.8438 Q20.0938,205.8438 18.8906,205.2188 Q17.9063,204.7188 17.2188,203.6484 Q16.5313,202.5781 16.5313,201.2969 L16.5313,200.1406 Q16.5313,198.8125 17.1484,197.6641 Q17.7656,196.5156 18.8594,195.8984 Q19.9531,195.2813 21.1875,195.2813 Q21.9219,195.2813 22.5703,195.4453 Q23.2188,195.6094 23.7656,195.9688 Z "/><text fill="#000000" font-family="sans-serif" font-size="14" font-weight="bold" lengthAdjust="spacingAndGlyphs" textLength="90" x="67.5" y="199.5332">WindowPane</text><text fill="#000000" font-family="sans-serif" font-size="10" lengthAdjust="spacingAndGlyphs" textLength="155" x="35" y="212.9902">soen6441riskgame.utils.presenter</text></a><!--class java.io.OutputStream--><rect fill="#D3D3D3" filter="url(#f1imhxg69puc6g)" height="40.1875" id="java.io.OutputStream" style="stroke: #A80036; stroke-width: 1.5;" width="129" x="228" y="180"/><rect fill="#D3D3D3" height="40.1875" style="stroke: #A80036; stroke-width: 1.5;" width="129" x="228" y="180"/><ellipse cx="243" cy="200.0938" fill="#ADD1B2" rx="11" ry="11" style="stroke: #A80036; stroke-width: 1.0;"/><path d="M245.7656,195.9688 Q245.9219,195.75 246.1094,195.6406 Q246.2969,195.5313 246.5156,195.5313 Q246.8906,195.5313 247.125,195.7891 Q247.3594,196.0469 247.3594,196.6563 L247.3594,198.1094 Q247.3594,198.7188 247.125,198.9844 Q246.8906,199.25 246.5156,199.25 Q246.1719,199.25 245.9688,199.0469 Q245.7656,198.8594 245.6563,198.3438 Q245.6094,197.9844 245.4219,197.7969 Q245.0938,197.4219 244.4844,197.2031 Q243.875,196.9844 243.25,196.9844 Q242.4844,196.9844 241.8516,197.3125 Q241.2188,197.6406 240.7266,198.3906 Q240.2344,199.1406 240.2344,200.1719 L240.2344,201.2656 Q240.2344,202.5 241.125,203.3203 Q242.0156,204.1406 243.6094,204.1406 Q244.5469,204.1406 245.2031,203.8906 Q245.5938,203.7344 246.0156,203.2969 Q246.2813,203.0313 246.4297,202.9531 Q246.5781,202.875 246.7813,202.875 Q247.1094,202.875 247.3672,203.1328 Q247.625,203.3906 247.625,203.7344 Q247.625,204.0781 247.2813,204.4844 Q246.7813,205.0625 245.9844,205.3906 Q244.9063,205.8438 243.6094,205.8438 Q242.0938,205.8438 240.8906,205.2188 Q239.9063,204.7188 239.2188,203.6484 Q238.5313,202.5781 238.5313,201.2969 L238.5313,200.1406 Q238.5313,198.8125 239.1484,197.6641 Q239.7656,196.5156 240.8594,195.8984 Q241.9531,195.2813 243.1875,195.2813 Q243.9219,195.2813 244.5703,195.4453 Q245.2188,195.6094 245.7656,195.9688 Z "/><text fill="#000000" font-family="sans-serif" font-size="14" font-weight="bold" lengthAdjust="spacingAndGlyphs" textLength="97" x="257" y="199.5332">OutputStream</text><text fill="#000000" font-family="sans-serif" font-size="10" lengthAdjust="spacingAndGlyphs" textLength="32" x="289.5" y="212.9902">java.io</text><!--link soen6441riskgame.utils.presenter.WindowOutputStream to soen6441riskgame.utils.presenter.WindowPane--><path d="M126.5,120.1016 C126.5,120.1016 126.5,174.9304 126.5,174.9304 " fill="none" id="soen6441riskgame.utils.presenter.WindowOutputStream-soen6441riskgame.utils.presenter.WindowPane" style="stroke: #A80036; stroke-width: 1.0;"/><polygon fill="#A80036" points="126.5,179.9304,130.5,170.9304,126.5,174.9304,122.5,170.9304,126.5,179.9304" style="stroke: #A80036; stroke-width: 1.0;"/><text fill="#000000" font-family="sans-serif" font-size="13" lengthAdjust="spacingAndGlyphs" textLength="72" x="51.8563" y="169.2042">windowPane</text><!--link soen6441riskgame.utils.presenter.WindowOutputStream to java.io.OutputStream--><path d="M279.5,120.1016 C279.5,120.1016 279.5,159.9304 279.5,159.9304 " fill="none" id="soen6441riskgame.utils.presenter.WindowOutputStream-java.io.OutputStream" style="stroke: #A80036; stroke-width: 1.0;"/><polygon fill="none" points="286.5,159.9305,279.5,179.9304,272.5,159.9304,286.5,159.9305" style="stroke: #A80036; stroke-width: 1.0;"/><!--
@startuml

skinparam svgLinkTarget _parent
skinparam linetype ortho
set namespaceSeparator none
class "<b><size:14>WindowOutputStream</b>\n<size:10>soen6441riskgame.utils.presenter" as soen6441riskgame.utils.presenter.WindowOutputStream  [[../../../soen6441riskgame/utils/presenter/WindowOutputStream.html{soen6441riskgame.utils.presenter.WindowOutputStream}]] {
-StringBuilder buffer
-WindowPane windowPane
+WindowOutputStream(WindowPane windowPane)
+void write(int b)
}


class "<b><size:14>WindowPane</b>\n<size:10>soen6441riskgame.utils.presenter" as soen6441riskgame.utils.presenter.WindowPane  [[../../../soen6441riskgame/utils/presenter/WindowPane.html{soen6441riskgame.utils.presenter.WindowPane}]] {
}

hide soen6441riskgame.utils.presenter.WindowPane fields
hide soen6441riskgame.utils.presenter.WindowPane methods

soen6441riskgame.utils.presenter.WindowOutputStream - ->  "windowPane" soen6441riskgame.utils.presenter.WindowPane

class "<b><size:14>OutputStream</b>\n<size:10>java.io" as java.io.OutputStream  #lightgrey {
}

hide java.io.OutputStream fields
hide java.io.OutputStream methods

soen6441riskgame.utils.presenter.WindowOutputStream - -|> java.io.OutputStream


@enduml

PlantUML version 1.2017.15(Mon Jul 03 12:45:34 EDT 2017)
(GPL source distribution)
Java Runtime: Java(TM) SE Runtime Environment
JVM: Java HotSpot(TM) 64-Bit Server VM
Java Version: 1.8.0_231-b11
Operating System: Windows 10
OS Version: 10.0
Default Encoding: Cp1252
Language: en
Country: US
--></g></svg>