<?xml version="1.0" encoding="UTF-8" standalone="no"?><svg xmlns="http://www.w3.org/2000/svg" xmlns:xlink="http://www.w3.org/1999/xlink" contentScriptType="application/ecmascript" contentStyleType="text/css" height="272px" preserveAspectRatio="none" style="width:792px;height:272px;" version="1.1" viewBox="0 0 792 272" width="792px" zoomAndPan="magnify"><defs><filter height="300%" id="f3uh6hxmbw3d5" width="300%" x="-1" y="-1"><feGaussianBlur result="blurOut" stdDeviation="2.0"/><feColorMatrix in="blurOut" result="blurOut2" type="matrix" values="0 0 0 0 0 0 0 0 0 0 0 0 0 0 0 0 0 0 .4 0"/><feOffset dx="4.0" dy="4.0" in="blurOut2" result="blurOut3"/><feBlend in="SourceGraphic" in2="blurOut3" mode="normal"/></filter></defs><g><!--class soen6441riskgame.models.strategies.AggressiveStrategy--><a target="_parent" xlink:actuate="onRequest" xlink:href="../../../soen6441riskgame/models/strategies/AggressiveStrategy.html" xlink:show="new" xlink:title="soen6441riskgame.models.strategies.AggressiveStrategy" xlink:type="simple"><rect fill="#FEFECE" filter="url(#f3uh6hxmbw3d5)" height="153.0391" id="soen6441riskgame.models.strategies.AggressiveStrategy" style="stroke: #A80036; stroke-width: 1.5;" width="349" x="243" y="8"/><ellipse cx="327.75" cy="28.0938" fill="#ADD1B2" rx="11" ry="11" style="stroke: #A80036; stroke-width: 1.0;"/><path d="M330.5156,23.9688 Q330.6719,23.75 330.8594,23.6406 Q331.0469,23.5313 331.2656,23.5313 Q331.6406,23.5313 331.875,23.7891 Q332.1094,24.0469 332.1094,24.6563 L332.1094,26.1094 Q332.1094,26.7188 331.875,26.9844 Q331.6406,27.25 331.2656,27.25 Q330.9219,27.25 330.7188,27.0469 Q330.5156,26.8594 330.4063,26.3438 Q330.3594,25.9844 330.1719,25.7969 Q329.8438,25.4219 329.2344,25.2031 Q328.625,24.9844 328,24.9844 Q327.2344,24.9844 326.6016,25.3125 Q325.9688,25.6406 325.4766,26.3906 Q324.9844,27.1406 324.9844,28.1719 L324.9844,29.2656 Q324.9844,30.5 325.875,31.3203 Q326.7656,32.1406 328.3594,32.1406 Q329.2969,32.1406 329.9531,31.8906 Q330.3438,31.7344 330.7656,31.2969 Q331.0313,31.0313 331.1797,30.9531 Q331.3281,30.875 331.5313,30.875 Q331.8594,30.875 332.1172,31.1328 Q332.375,31.3906 332.375,31.7344 Q332.375,32.0781 332.0313,32.4844 Q331.5313,33.0625 330.7344,33.3906 Q329.6563,33.8438 328.3594,33.8438 Q326.8438,33.8438 325.6406,33.2188 Q324.6563,32.7188 323.9688,31.6484 Q323.2813,30.5781 323.2813,29.2969 L323.2813,28.1406 Q323.2813,26.8125 323.8984,25.6641 Q324.5156,24.5156 325.6094,23.8984 Q326.7031,23.2813 327.9375,23.2813 Q328.6719,23.2813 329.3203,23.4453 Q329.9688,23.6094 330.5156,23.9688 Z "/><text fill="#000000" font-family="sans-serif" font-size="14" font-weight="bold" lengthAdjust="spacingAndGlyphs" textLength="138" x="364.75" y="27.5332">AggressiveStrategy</text><text fill="#000000" font-family="sans-serif" font-size="10" lengthAdjust="spacingAndGlyphs" textLength="171" x="348.25" y="40.9902">soen6441riskgame.models.strategies</text><line style="stroke: #A80036; stroke-width: 1.5;" x1="244" x2="591" y1="48.1875" y2="48.1875"/><line style="stroke: #A80036; stroke-width: 1.5;" x1="244" x2="591" y1="56.1875" y2="56.1875"/><ellipse cx="254" cy="68.6055" fill="#84BE84" rx="3" ry="3" style="stroke: #038048; stroke-width: 1.0;"/><text fill="#000000" font-family="sans-serif" font-size="11" lengthAdjust="spacingAndGlyphs" textLength="105" x="263" y="71.6064">AggressiveStrategy()</text><ellipse cx="254" cy="82.4414" fill="#84BE84" rx="3" ry="3" style="stroke: #038048; stroke-width: 1.0;"/><text fill="#000000" font-family="sans-serif" font-size="11" lengthAdjust="spacingAndGlyphs" textLength="121" x="263" y="85.4424">StrategyName getName()</text><ellipse cx="254" cy="96.2773" fill="#84BE84" rx="3" ry="3" style="stroke: #038048; stroke-width: 1.0;"/><text fill="#000000" font-family="sans-serif" font-size="11" lengthAdjust="spacingAndGlyphs" textLength="278" x="263" y="99.2783">void reinforce(Player player,Country countryToReinforce)</text><ellipse cx="254" cy="110.1133" fill="#84BE84" rx="3" ry="3" style="stroke: #038048; stroke-width: 1.0;"/><text fill="#000000" font-family="sans-serif" font-size="11" lengthAdjust="spacingAndGlyphs" textLength="323" x="263" y="113.1143">ArrayList&lt;Country&gt; attack(Player player,Country attackingCountry)</text><ellipse cx="254" cy="123.9492" fill="#84BE84" rx="3" ry="3" style="stroke: #038048; stroke-width: 1.0;"/><text fill="#000000" font-family="sans-serif" font-size="11" lengthAdjust="spacingAndGlyphs" textLength="252" x="263" y="126.9502">void fortify(Country fromCountry,Country toCountry)</text><ellipse cx="254" cy="137.7852" fill="#84BE84" rx="3" ry="3" style="stroke: #038048; stroke-width: 1.0;"/><text fill="#000000" font-family="sans-serif" font-size="11" lengthAdjust="spacingAndGlyphs" textLength="136" x="263" y="140.7861">void playTurn(Player player)</text><rect fill="#F24D5C" height="6" style="stroke: #C82930; stroke-width: 1.0;" width="6" x="251" y="148.6211"/><text fill="#000000" font-family="sans-serif" font-size="11" lengthAdjust="spacingAndGlyphs" textLength="271" x="263" y="154.6221">Country getStrongestCountryToReinforce(Player player)</text></a><!--class soen6441riskgame.models.strategies.Strategy--><a target="_parent" xlink:actuate="onRequest" xlink:href="../../../soen6441riskgame/models/strategies/Strategy.html" xlink:show="new" xlink:title="soen6441riskgame.models.strategies.Strategy" xlink:type="simple"><rect fill="#FEFECE" filter="url(#f3uh6hxmbw3d5)" height="40.1875" id="soen6441riskgame.models.strategies.Strategy" style="stroke: #A80036; stroke-width: 1.5;" width="205" x="6" y="221"/><ellipse cx="21" cy="241.0938" fill="#B4A7E5" rx="11" ry="11" style="stroke: #A80036; stroke-width: 1.0;"/><path d="M21.9531,237.7344 L21.9531,244.3906 L23.6719,244.3906 Q24.2813,244.3906 24.5469,244.625 Q24.8125,244.8594 24.8125,245.25 Q24.8125,245.625 24.5469,245.8594 Q24.2813,246.0938 23.6719,246.0938 L18.5313,246.0938 Q17.9219,246.0938 17.6563,245.8594 Q17.3906,245.625 17.3906,245.2344 Q17.3906,244.8594 17.6563,244.625 Q17.9219,244.3906 18.5313,244.3906 L20.25,244.3906 L20.25,237.7344 L18.5313,237.7344 Q17.9219,237.7344 17.6563,237.5 Q17.3906,237.2656 17.3906,236.875 Q17.3906,236.5 17.6563,236.2656 Q17.9219,236.0313 18.5313,236.0313 L23.6719,236.0313 Q24.2813,236.0313 24.5469,236.2656 Q24.8125,236.5 24.8125,236.875 Q24.8125,237.2656 24.5469,237.5 Q24.2813,237.7344 23.6719,237.7344 L21.9531,237.7344 Z "/><text fill="#000000" font-family="sans-serif" font-size="14" font-style="italic" font-weight="bold" lengthAdjust="spacingAndGlyphs" textLength="56" x="93.5" y="240.5332">Strategy</text><text fill="#000000" font-family="sans-serif" font-size="10" font-style="italic" lengthAdjust="spacingAndGlyphs" textLength="173" x="35" y="253.9902">soen6441riskgame.models.strategies</text></a><!--class soen6441riskgame.enums.StrategyName--><a target="_parent" xlink:actuate="onRequest" xlink:href="../../../soen6441riskgame/enums/StrategyName.html" xlink:show="new" xlink:title="soen6441riskgame.enums.StrategyName" xlink:type="simple"><rect fill="#FFFFFF" filter="url(#f3uh6hxmbw3d5)" height="40.1875" id="soen6441riskgame.enums.StrategyName" style="stroke: #A80036; stroke-width: 1.5;" width="153" x="246" y="221"/><rect fill="#FFFFFF" height="40.1875" style="stroke: #A80036; stroke-width: 1.5;" width="153" x="246" y="221"/><ellipse cx="261" cy="241.0938" fill="#EB937F" rx="11" ry="11" style="stroke: #A80036; stroke-width: 1.0;"/><path d="M259.8594,241.8906 L259.8594,244.3906 L264.1875,244.3906 L264.1875,243.4688 Q264.1875,242.8594 264.4297,242.5938 Q264.6719,242.3281 265.0469,242.3281 Q265.4219,242.3281 265.6563,242.5938 Q265.8906,242.8594 265.8906,243.4688 L265.8906,246.0938 L257.8906,246.0938 Q257.2656,246.0938 257.0078,245.8594 Q256.75,245.625 256.75,245.2344 Q256.75,244.8594 257.0156,244.625 Q257.2813,244.3906 257.8906,244.3906 L258.1563,244.3906 L258.1563,237.7344 L257.8906,237.7344 Q257.2656,237.7344 257.0078,237.5 Q256.75,237.2656 256.75,236.875 Q256.75,236.5 257.0078,236.2656 Q257.2656,236.0313 257.8906,236.0313 L265.5156,236.0313 L265.5156,238.625 Q265.5156,239.2344 265.2891,239.4922 Q265.0625,239.75 264.6719,239.75 Q264.2969,239.75 264.0625,239.4922 Q263.8281,239.2344 263.8281,238.625 L263.8281,237.7344 L259.8594,237.7344 L259.8594,240.1875 L261.3438,240.1875 Q261.3438,239.5313 261.4688,239.3438 Q261.7344,238.9375 262.2031,238.9375 Q262.5781,238.9375 262.8125,239.1953 Q263.0469,239.4531 263.0469,240.0625 L263.0469,242.0313 Q263.0469,242.5781 262.9219,242.7656 Q262.6563,243.1563 262.2031,243.1563 Q261.7344,243.1563 261.4688,242.75 Q261.3438,242.5625 261.3438,241.8906 L259.8594,241.8906 Z "/><text fill="#000000" font-family="sans-serif" font-size="14" font-weight="bold" lengthAdjust="spacingAndGlyphs" textLength="97" x="287" y="240.5332">StrategyName</text><text fill="#000000" font-family="sans-serif" font-size="10" lengthAdjust="spacingAndGlyphs" textLength="121" x="275" y="253.9902">soen6441riskgame.enums</text></a><!--class soen6441riskgame.models.Player--><a target="_parent" xlink:actuate="onRequest" xlink:href="../../../soen6441riskgame/models/Player.html" xlink:show="new" xlink:title="soen6441riskgame.models.Player" xlink:type="simple"><rect fill="#FFFFFF" filter="url(#f3uh6hxmbw3d5)" height="40.1875" id="soen6441riskgame.models.Player" style="stroke: #A80036; stroke-width: 1.5;" width="156" x="434.5" y="221"/><rect fill="#FFFFFF" height="40.1875" style="stroke: #A80036; stroke-width: 1.5;" width="156" x="434.5" y="221"/><ellipse cx="449.5" cy="241.0938" fill="#ADD1B2" rx="11" ry="11" style="stroke: #A80036; stroke-width: 1.0;"/><path d="M452.2656,236.9688 Q452.4219,236.75 452.6094,236.6406 Q452.7969,236.5313 453.0156,236.5313 Q453.3906,236.5313 453.625,236.7891 Q453.8594,237.0469 453.8594,237.6563 L453.8594,239.1094 Q453.8594,239.7188 453.625,239.9844 Q453.3906,240.25 453.0156,240.25 Q452.6719,240.25 452.4688,240.0469 Q452.2656,239.8594 452.1563,239.3438 Q452.1094,238.9844 451.9219,238.7969 Q451.5938,238.4219 450.9844,238.2031 Q450.375,237.9844 449.75,237.9844 Q448.9844,237.9844 448.3516,238.3125 Q447.7188,238.6406 447.2266,239.3906 Q446.7344,240.1406 446.7344,241.1719 L446.7344,242.2656 Q446.7344,243.5 447.625,244.3203 Q448.5156,245.1406 450.1094,245.1406 Q451.0469,245.1406 451.7031,244.8906 Q452.0938,244.7344 452.5156,244.2969 Q452.7813,244.0313 452.9297,243.9531 Q453.0781,243.875 453.2813,243.875 Q453.6094,243.875 453.8672,244.1328 Q454.125,244.3906 454.125,244.7344 Q454.125,245.0781 453.7813,245.4844 Q453.2813,246.0625 452.4844,246.3906 Q451.4063,246.8438 450.1094,246.8438 Q448.5938,246.8438 447.3906,246.2188 Q446.4063,245.7188 445.7188,244.6484 Q445.0313,243.5781 445.0313,242.2969 L445.0313,241.1406 Q445.0313,239.8125 445.6484,238.6641 Q446.2656,237.5156 447.3594,236.8984 Q448.4531,236.2813 449.6875,236.2813 Q450.4219,236.2813 451.0703,236.4453 Q451.7188,236.6094 452.2656,236.9688 Z "/><text fill="#000000" font-family="sans-serif" font-size="14" font-weight="bold" lengthAdjust="spacingAndGlyphs" textLength="43" x="504" y="240.5332">Player</text><text fill="#000000" font-family="sans-serif" font-size="10" lengthAdjust="spacingAndGlyphs" textLength="124" x="463.5" y="253.9902">soen6441riskgame.models</text></a><!--class soen6441riskgame.models.Country--><a target="_parent" xlink:actuate="onRequest" xlink:href="../../../soen6441riskgame/models/Country.html" xlink:show="new" xlink:title="soen6441riskgame.models.Country" xlink:type="simple"><rect fill="#FFFFFF" filter="url(#f3uh6hxmbw3d5)" height="40.1875" id="soen6441riskgame.models.Country" style="stroke: #A80036; stroke-width: 1.5;" width="156" x="625.5" y="221"/><rect fill="#FFFFFF" height="40.1875" style="stroke: #A80036; stroke-width: 1.5;" width="156" x="625.5" y="221"/><ellipse cx="640.5" cy="241.0938" fill="#ADD1B2" rx="11" ry="11" style="stroke: #A80036; stroke-width: 1.0;"/><path d="M643.2656,236.9688 Q643.4219,236.75 643.6094,236.6406 Q643.7969,236.5313 644.0156,236.5313 Q644.3906,236.5313 644.625,236.7891 Q644.8594,237.0469 644.8594,237.6563 L644.8594,239.1094 Q644.8594,239.7188 644.625,239.9844 Q644.3906,240.25 644.0156,240.25 Q643.6719,240.25 643.4688,240.0469 Q643.2656,239.8594 643.1563,239.3438 Q643.1094,238.9844 642.9219,238.7969 Q642.5938,238.4219 641.9844,238.2031 Q641.375,237.9844 640.75,237.9844 Q639.9844,237.9844 639.3516,238.3125 Q638.7188,238.6406 638.2266,239.3906 Q637.7344,240.1406 637.7344,241.1719 L637.7344,242.2656 Q637.7344,243.5 638.625,244.3203 Q639.5156,245.1406 641.1094,245.1406 Q642.0469,245.1406 642.7031,244.8906 Q643.0938,244.7344 643.5156,244.2969 Q643.7813,244.0313 643.9297,243.9531 Q644.0781,243.875 644.2813,243.875 Q644.6094,243.875 644.8672,244.1328 Q645.125,244.3906 645.125,244.7344 Q645.125,245.0781 644.7813,245.4844 Q644.2813,246.0625 643.4844,246.3906 Q642.4063,246.8438 641.1094,246.8438 Q639.5938,246.8438 638.3906,246.2188 Q637.4063,245.7188 636.7188,244.6484 Q636.0313,243.5781 636.0313,242.2969 L636.0313,241.1406 Q636.0313,239.8125 636.6484,238.6641 Q637.2656,237.5156 638.3594,236.8984 Q639.4531,236.2813 640.6875,236.2813 Q641.4219,236.2813 642.0703,236.4453 Q642.7188,236.6094 643.2656,236.9688 Z "/><text fill="#000000" font-family="sans-serif" font-size="14" font-weight="bold" lengthAdjust="spacingAndGlyphs" textLength="55" x="689" y="240.5332">Country</text><text fill="#000000" font-family="sans-serif" font-size="10" lengthAdjust="spacingAndGlyphs" textLength="124" x="654.5" y="253.9902">soen6441riskgame.models</text></a><!--link soen6441riskgame.models.strategies.AggressiveStrategy to soen6441riskgame.models.strategies.Strategy--><path d="M242.684,85 C172.768,85 108.5,85 108.5,85 C108.5,85 108.5,200.9251 108.5,200.9251 " fill="none" id="soen6441riskgame.models.strategies.AggressiveStrategy-soen6441riskgame.models.strategies.Strategy" style="stroke: #A80036; stroke-width: 1.0; stroke-dasharray: 7.0,7.0;"/><polygon fill="none" points="115.5,200.9251,108.5,220.9251,101.5001,200.9251,115.5,200.9251" style="stroke: #A80036; stroke-width: 1.0;"/><!--link soen6441riskgame.models.strategies.AggressiveStrategy to soen6441riskgame.enums.StrategyName--><path d="M322.5,161.3746 C322.5,161.3746 322.5,215.7533 322.5,215.7533 " fill="none" id="soen6441riskgame.models.strategies.AggressiveStrategy-soen6441riskgame.enums.StrategyName" style="stroke: #A80036; stroke-width: 1.0; stroke-dasharray: 7.0,7.0;"/><polygon fill="#A80036" points="322.5,220.7533,326.5,211.7533,322.5,215.7533,318.5,211.7533,322.5,220.7533" style="stroke: #A80036; stroke-width: 1.0;"/><!--link soen6441riskgame.models.strategies.AggressiveStrategy to soen6441riskgame.models.Player--><path d="M512.5,161.3746 C512.5,161.3746 512.5,215.7533 512.5,215.7533 " fill="none" id="soen6441riskgame.models.strategies.AggressiveStrategy-soen6441riskgame.models.Player" style="stroke: #A80036; stroke-width: 1.0; stroke-dasharray: 7.0,7.0;"/><polygon fill="#A80036" points="512.5,220.7533,516.5,211.7533,512.5,215.7533,508.5,211.7533,512.5,220.7533" style="stroke: #A80036; stroke-width: 1.0;"/><!--link soen6441riskgame.models.strategies.AggressiveStrategy to soen6441riskgame.models.Country--><path d="M592.106,85 C651.651,85 703.5,85 703.5,85 C703.5,85 703.5,215.9251 703.5,215.9251 " fill="none" id="soen6441riskgame.models.strategies.AggressiveStrategy-soen6441riskgame.models.Country" style="stroke: #A80036; stroke-width: 1.0; stroke-dasharray: 7.0,7.0;"/><polygon fill="#A80036" points="703.5,220.9251,707.5,211.9251,703.5,215.9251,699.5,211.9251,703.5,220.9251" style="stroke: #A80036; stroke-width: 1.0;"/><!--
@startuml

skinparam svgLinkTarget _parent
skinparam linetype ortho
set namespaceSeparator none
class "<b><size:14>AggressiveStrategy</b>\n<size:10>soen6441riskgame.models.strategies" as soen6441riskgame.models.strategies.AggressiveStrategy  [[../../../soen6441riskgame/models/strategies/AggressiveStrategy.html{soen6441riskgame.models.strategies.AggressiveStrategy}]] {
+AggressiveStrategy()
+StrategyName getName()
+void reinforce(Player player,Country countryToReinforce)
+ArrayList<Country> attack(Player player,Country attackingCountry)
+void fortify(Country fromCountry,Country toCountry)
+void playTurn(Player player)
-Country getStrongestCountryToReinforce(Player player)
}


interface "<b><size:14>Strategy</b>\n<size:10>soen6441riskgame.models.strategies" as soen6441riskgame.models.strategies.Strategy  [[../../../soen6441riskgame/models/strategies/Strategy.html{soen6441riskgame.models.strategies.Strategy}]] {
}

hide soen6441riskgame.models.strategies.Strategy fields
hide soen6441riskgame.models.strategies.Strategy methods

soen6441riskgame.models.strategies.AggressiveStrategy ..|> soen6441riskgame.models.strategies.Strategy

enum "<b><size:14>StrategyName</b>\n<size:10>soen6441riskgame.enums" as soen6441riskgame.enums.StrategyName  [[../../../soen6441riskgame/enums/StrategyName.html{soen6441riskgame.enums.StrategyName}]] #white {
}

hide soen6441riskgame.enums.StrategyName fields
hide soen6441riskgame.enums.StrategyName methods

soen6441riskgame.models.strategies.AggressiveStrategy ..> soen6441riskgame.enums.StrategyName

class "<b><size:14>Player</b>\n<size:10>soen6441riskgame.models" as soen6441riskgame.models.Player  [[../../../soen6441riskgame/models/Player.html{soen6441riskgame.models.Player}]] #white {
}

hide soen6441riskgame.models.Player fields
hide soen6441riskgame.models.Player methods

soen6441riskgame.models.strategies.AggressiveStrategy ..> soen6441riskgame.models.Player

class "<b><size:14>Country</b>\n<size:10>soen6441riskgame.models" as soen6441riskgame.models.Country  [[../../../soen6441riskgame/models/Country.html{soen6441riskgame.models.Country}]] #white {
}

hide soen6441riskgame.models.Country fields
hide soen6441riskgame.models.Country methods

soen6441riskgame.models.strategies.AggressiveStrategy ..> soen6441riskgame.models.Country



@enduml

PlantUML version 1.2017.15(Mon Jul 03 12:45:34 EDT 2017)
(GPL source distribution)
Java Runtime: Java(TM) SE Runtime Environment
JVM: Java HotSpot(TM) 64-Bit Server VM
Java Version: 1.8.0_231-b11
Operating System: Windows 10
OS Version: 10.0
Default Encoding: Cp1252
Language: en
Country: US
--></g></svg>