<?xml version="1.0" encoding="UTF-8" standalone="no"?><svg xmlns="http://www.w3.org/2000/svg" xmlns:xlink="http://www.w3.org/1999/xlink" contentScriptType="application/ecmascript" contentStyleType="text/css" height="203px" preserveAspectRatio="none" style="width:613px;height:203px;" version="1.1" viewBox="0 0 613 203" width="613px" zoomAndPan="magnify"><defs><filter height="300%" id="felcfns73c46h" width="300%" x="-1" y="-1"><feGaussianBlur result="blurOut" stdDeviation="2.0"/><feColorMatrix in="blurOut" result="blurOut2" type="matrix" values="0 0 0 0 0 0 0 0 0 0 0 0 0 0 0 0 0 0 .4 0"/><feOffset dx="4.0" dy="4.0" in="blurOut2" result="blurOut3"/><feBlend in="SourceGraphic" in2="blurOut3" mode="normal"/></filter></defs><g><!--class soen6441riskgame.models.strategies.BenevolentStrategy--><a target="_parent" xlink:actuate="onRequest" xlink:href="../../../soen6441riskgame/models/strategies/BenevolentStrategy.html" xlink:show="new" xlink:title="soen6441riskgame.models.strategies.BenevolentStrategy" xlink:type="simple"><rect fill="#FEFECE" filter="url(#felcfns73c46h)" height="83.8594" id="soen6441riskgame.models.strategies.BenevolentStrategy" style="stroke: #A80036; stroke-width: 1.5;" width="226" x="215.5" y="8"/><ellipse cx="240.85" cy="28.0938" fill="#ADD1B2" rx="11" ry="11" style="stroke: #A80036; stroke-width: 1.0;"/><path d="M243.6156,23.9688 Q243.7719,23.75 243.9594,23.6406 Q244.1469,23.5313 244.3656,23.5313 Q244.7406,23.5313 244.975,23.7891 Q245.2094,24.0469 245.2094,24.6563 L245.2094,26.1094 Q245.2094,26.7188 244.975,26.9844 Q244.7406,27.25 244.3656,27.25 Q244.0219,27.25 243.8188,27.0469 Q243.6156,26.8594 243.5063,26.3438 Q243.4594,25.9844 243.2719,25.7969 Q242.9438,25.4219 242.3344,25.2031 Q241.725,24.9844 241.1,24.9844 Q240.3344,24.9844 239.7016,25.3125 Q239.0688,25.6406 238.5766,26.3906 Q238.0844,27.1406 238.0844,28.1719 L238.0844,29.2656 Q238.0844,30.5 238.975,31.3203 Q239.8656,32.1406 241.4594,32.1406 Q242.3969,32.1406 243.0531,31.8906 Q243.4438,31.7344 243.8656,31.2969 Q244.1313,31.0313 244.2797,30.9531 Q244.4281,30.875 244.6313,30.875 Q244.9594,30.875 245.2172,31.1328 Q245.475,31.3906 245.475,31.7344 Q245.475,32.0781 245.1313,32.4844 Q244.6313,33.0625 243.8344,33.3906 Q242.7563,33.8438 241.4594,33.8438 Q239.9438,33.8438 238.7406,33.2188 Q237.7563,32.7188 237.0688,31.6484 Q236.3813,30.5781 236.3813,29.2969 L236.3813,28.1406 Q236.3813,26.8125 236.9984,25.6641 Q237.6156,24.5156 238.7094,23.8984 Q239.8031,23.2813 241.0375,23.2813 Q241.7719,23.2813 242.4203,23.4453 Q243.0688,23.6094 243.6156,23.9688 Z "/><text fill="#000000" font-family="sans-serif" font-size="14" font-weight="bold" lengthAdjust="spacingAndGlyphs" textLength="140" x="272.65" y="27.5332">BenevolentStrategy</text><text fill="#000000" font-family="sans-serif" font-size="10" lengthAdjust="spacingAndGlyphs" textLength="171" x="257.15" y="40.9902">soen6441riskgame.models.strategies</text><line style="stroke: #A80036; stroke-width: 1.5;" x1="216.5" x2="440.5" y1="48.1875" y2="48.1875"/><line style="stroke: #A80036; stroke-width: 1.5;" x1="216.5" x2="440.5" y1="56.1875" y2="56.1875"/><ellipse cx="226.5" cy="68.6055" fill="#84BE84" rx="3" ry="3" style="stroke: #038048; stroke-width: 1.0;"/><text fill="#000000" font-family="sans-serif" font-size="11" lengthAdjust="spacingAndGlyphs" textLength="103" x="235.5" y="71.6064">BenevolentStrategy()</text><ellipse cx="226.5" cy="82.4414" fill="#84BE84" rx="3" ry="3" style="stroke: #038048; stroke-width: 1.0;"/><text fill="#000000" font-family="sans-serif" font-size="11" lengthAdjust="spacingAndGlyphs" textLength="200" x="235.5" y="85.4424">void execute(GameBoard board,Player p)</text></a><!--class soen6441riskgame.models.strategies.IStrategy--><a target="_parent" xlink:actuate="onRequest" xlink:href="../../../soen6441riskgame/models/strategies/IStrategy.html" xlink:show="new" xlink:title="soen6441riskgame.models.strategies.IStrategy" xlink:type="simple"><rect fill="#FEFECE" filter="url(#felcfns73c46h)" height="40.1875" id="soen6441riskgame.models.strategies.IStrategy" style="stroke: #A80036; stroke-width: 1.5;" width="205" x="6" y="152"/><ellipse cx="21" cy="172.0938" fill="#B4A7E5" rx="11" ry="11" style="stroke: #A80036; stroke-width: 1.0;"/><path d="M21.9531,168.7344 L21.9531,175.3906 L23.6719,175.3906 Q24.2813,175.3906 24.5469,175.625 Q24.8125,175.8594 24.8125,176.25 Q24.8125,176.625 24.5469,176.8594 Q24.2813,177.0938 23.6719,177.0938 L18.5313,177.0938 Q17.9219,177.0938 17.6563,176.8594 Q17.3906,176.625 17.3906,176.2344 Q17.3906,175.8594 17.6563,175.625 Q17.9219,175.3906 18.5313,175.3906 L20.25,175.3906 L20.25,168.7344 L18.5313,168.7344 Q17.9219,168.7344 17.6563,168.5 Q17.3906,168.2656 17.3906,167.875 Q17.3906,167.5 17.6563,167.2656 Q17.9219,167.0313 18.5313,167.0313 L23.6719,167.0313 Q24.2813,167.0313 24.5469,167.2656 Q24.8125,167.5 24.8125,167.875 Q24.8125,168.2656 24.5469,168.5 Q24.2813,168.7344 23.6719,168.7344 L21.9531,168.7344 Z "/><text fill="#000000" font-family="sans-serif" font-size="14" font-style="italic" font-weight="bold" lengthAdjust="spacingAndGlyphs" textLength="59" x="92" y="171.5332">IStrategy</text><text fill="#000000" font-family="sans-serif" font-size="10" font-style="italic" lengthAdjust="spacingAndGlyphs" textLength="173" x="35" y="184.9902">soen6441riskgame.models.strategies</text></a><!--class soen6441riskgame.singleton.GameBoard--><a target="_parent" xlink:actuate="onRequest" xlink:href="../../../soen6441riskgame/singleton/GameBoard.html" xlink:show="new" xlink:title="soen6441riskgame.singleton.GameBoard" xlink:type="simple"><rect fill="#FFFFFF" filter="url(#felcfns73c46h)" height="40.1875" id="soen6441riskgame.singleton.GameBoard" style="stroke: #A80036; stroke-width: 1.5;" width="165" x="246" y="152"/><rect fill="#FFFFFF" height="40.1875" style="stroke: #A80036; stroke-width: 1.5;" width="165" x="246" y="152"/><ellipse cx="261" cy="172.0938" fill="#ADD1B2" rx="11" ry="11" style="stroke: #A80036; stroke-width: 1.0;"/><path d="M263.7656,167.9688 Q263.9219,167.75 264.1094,167.6406 Q264.2969,167.5313 264.5156,167.5313 Q264.8906,167.5313 265.125,167.7891 Q265.3594,168.0469 265.3594,168.6563 L265.3594,170.1094 Q265.3594,170.7188 265.125,170.9844 Q264.8906,171.25 264.5156,171.25 Q264.1719,171.25 263.9688,171.0469 Q263.7656,170.8594 263.6563,170.3438 Q263.6094,169.9844 263.4219,169.7969 Q263.0938,169.4219 262.4844,169.2031 Q261.875,168.9844 261.25,168.9844 Q260.4844,168.9844 259.8516,169.3125 Q259.2188,169.6406 258.7266,170.3906 Q258.2344,171.1406 258.2344,172.1719 L258.2344,173.2656 Q258.2344,174.5 259.125,175.3203 Q260.0156,176.1406 261.6094,176.1406 Q262.5469,176.1406 263.2031,175.8906 Q263.5938,175.7344 264.0156,175.2969 Q264.2813,175.0313 264.4297,174.9531 Q264.5781,174.875 264.7813,174.875 Q265.1094,174.875 265.3672,175.1328 Q265.625,175.3906 265.625,175.7344 Q265.625,176.0781 265.2813,176.4844 Q264.7813,177.0625 263.9844,177.3906 Q262.9063,177.8438 261.6094,177.8438 Q260.0938,177.8438 258.8906,177.2188 Q257.9063,176.7188 257.2188,175.6484 Q256.5313,174.5781 256.5313,173.2969 L256.5313,172.1406 Q256.5313,170.8125 257.1484,169.6641 Q257.7656,168.5156 258.8594,167.8984 Q259.9531,167.2813 261.1875,167.2813 Q261.9219,167.2813 262.5703,167.4453 Q263.2188,167.6094 263.7656,167.9688 Z "/><text fill="#000000" font-family="sans-serif" font-size="14" font-weight="bold" lengthAdjust="spacingAndGlyphs" textLength="82" x="300.5" y="171.5332">GameBoard</text><text fill="#000000" font-family="sans-serif" font-size="10" lengthAdjust="spacingAndGlyphs" textLength="133" x="275" y="184.9902">soen6441riskgame.singleton</text></a><!--class soen6441riskgame.models.Player--><a target="_parent" xlink:actuate="onRequest" xlink:href="../../../soen6441riskgame/models/Player.html" xlink:show="new" xlink:title="soen6441riskgame.models.Player" xlink:type="simple"><rect fill="#FFFFFF" filter="url(#felcfns73c46h)" height="40.1875" id="soen6441riskgame.models.Player" style="stroke: #A80036; stroke-width: 1.5;" width="156" x="446.5" y="152"/><rect fill="#FFFFFF" height="40.1875" style="stroke: #A80036; stroke-width: 1.5;" width="156" x="446.5" y="152"/><ellipse cx="461.5" cy="172.0938" fill="#ADD1B2" rx="11" ry="11" style="stroke: #A80036; stroke-width: 1.0;"/><path d="M464.2656,167.9688 Q464.4219,167.75 464.6094,167.6406 Q464.7969,167.5313 465.0156,167.5313 Q465.3906,167.5313 465.625,167.7891 Q465.8594,168.0469 465.8594,168.6563 L465.8594,170.1094 Q465.8594,170.7188 465.625,170.9844 Q465.3906,171.25 465.0156,171.25 Q464.6719,171.25 464.4688,171.0469 Q464.2656,170.8594 464.1563,170.3438 Q464.1094,169.9844 463.9219,169.7969 Q463.5938,169.4219 462.9844,169.2031 Q462.375,168.9844 461.75,168.9844 Q460.9844,168.9844 460.3516,169.3125 Q459.7188,169.6406 459.2266,170.3906 Q458.7344,171.1406 458.7344,172.1719 L458.7344,173.2656 Q458.7344,174.5 459.625,175.3203 Q460.5156,176.1406 462.1094,176.1406 Q463.0469,176.1406 463.7031,175.8906 Q464.0938,175.7344 464.5156,175.2969 Q464.7813,175.0313 464.9297,174.9531 Q465.0781,174.875 465.2813,174.875 Q465.6094,174.875 465.8672,175.1328 Q466.125,175.3906 466.125,175.7344 Q466.125,176.0781 465.7813,176.4844 Q465.2813,177.0625 464.4844,177.3906 Q463.4063,177.8438 462.1094,177.8438 Q460.5938,177.8438 459.3906,177.2188 Q458.4063,176.7188 457.7188,175.6484 Q457.0313,174.5781 457.0313,173.2969 L457.0313,172.1406 Q457.0313,170.8125 457.6484,169.6641 Q458.2656,168.5156 459.3594,167.8984 Q460.4531,167.2813 461.6875,167.2813 Q462.4219,167.2813 463.0703,167.4453 Q463.7188,167.6094 464.2656,167.9688 Z "/><text fill="#000000" font-family="sans-serif" font-size="14" font-weight="bold" lengthAdjust="spacingAndGlyphs" textLength="43" x="516" y="171.5332">Player</text><text fill="#000000" font-family="sans-serif" font-size="10" lengthAdjust="spacingAndGlyphs" textLength="124" x="475.5" y="184.9902">soen6441riskgame.models</text></a><!--link soen6441riskgame.models.strategies.BenevolentStrategy to soen6441riskgame.models.strategies.IStrategy--><path d="M230.75,92.3273 C230.75,127.5638 230.75,172 230.75,172 C230.75,172 228.786,172 228.786,172 " fill="none" id="soen6441riskgame.models.strategies.BenevolentStrategy-soen6441riskgame.models.strategies.IStrategy" style="stroke: #A80036; stroke-width: 1.0; stroke-dasharray: 7.0,7.0;"/><polygon fill="none" points="231.108,178.9999,211.108,172,231.108,164.9999,231.108,178.9999" style="stroke: #A80036; stroke-width: 1.0;"/><!--link soen6441riskgame.models.strategies.BenevolentStrategy to soen6441riskgame.singleton.GameBoard--><path d="M328.5,92.3273 C328.5,92.3273 328.5,146.9727 328.5,146.9727 " fill="none" id="soen6441riskgame.models.strategies.BenevolentStrategy-soen6441riskgame.singleton.GameBoard" style="stroke: #A80036; stroke-width: 1.0; stroke-dasharray: 7.0,7.0;"/><polygon fill="#A80036" points="328.5,151.9727,332.5,142.9727,328.5,146.9727,324.5,142.9727,328.5,151.9727" style="stroke: #A80036; stroke-width: 1.0;"/><!--link soen6441riskgame.models.strategies.BenevolentStrategy to soen6441riskgame.models.Player--><path d="M426.25,92.3273 C426.25,127.5638 426.25,172 426.25,172 C426.25,172 441.132,172 441.132,172 " fill="none" id="soen6441riskgame.models.strategies.BenevolentStrategy-soen6441riskgame.models.Player" style="stroke: #A80036; stroke-width: 1.0; stroke-dasharray: 7.0,7.0;"/><polygon fill="#A80036" points="446.132,172,437.132,168,441.132,172,437.132,176,446.132,172" style="stroke: #A80036; stroke-width: 1.0;"/><!--
@startuml

skinparam svgLinkTarget _parent
skinparam linetype ortho
set namespaceSeparator none
class "<b><size:14>BenevolentStrategy</b>\n<size:10>soen6441riskgame.models.strategies" as soen6441riskgame.models.strategies.BenevolentStrategy  [[../../../soen6441riskgame/models/strategies/BenevolentStrategy.html{soen6441riskgame.models.strategies.BenevolentStrategy}]] {
+BenevolentStrategy()
+void execute(GameBoard board,Player p)
}


interface "<b><size:14>IStrategy</b>\n<size:10>soen6441riskgame.models.strategies" as soen6441riskgame.models.strategies.IStrategy  [[../../../soen6441riskgame/models/strategies/IStrategy.html{soen6441riskgame.models.strategies.IStrategy}]] {
}

hide soen6441riskgame.models.strategies.IStrategy fields
hide soen6441riskgame.models.strategies.IStrategy methods

soen6441riskgame.models.strategies.BenevolentStrategy ..|> soen6441riskgame.models.strategies.IStrategy

class "<b><size:14>GameBoard</b>\n<size:10>soen6441riskgame.singleton" as soen6441riskgame.singleton.GameBoard  [[../../../soen6441riskgame/singleton/GameBoard.html{soen6441riskgame.singleton.GameBoard}]] #white {
}

hide soen6441riskgame.singleton.GameBoard fields
hide soen6441riskgame.singleton.GameBoard methods

soen6441riskgame.models.strategies.BenevolentStrategy ..> soen6441riskgame.singleton.GameBoard

class "<b><size:14>Player</b>\n<size:10>soen6441riskgame.models" as soen6441riskgame.models.Player  [[../../../soen6441riskgame/models/Player.html{soen6441riskgame.models.Player}]] #white {
}

hide soen6441riskgame.models.Player fields
hide soen6441riskgame.models.Player methods

soen6441riskgame.models.strategies.BenevolentStrategy ..> soen6441riskgame.models.Player


@enduml

PlantUML version 1.2017.15(Mon Jul 03 12:45:34 EDT 2017)
(GPL source distribution)
Java Runtime: Java(TM) SE Runtime Environment
JVM: Java HotSpot(TM) 64-Bit Server VM
Java Version: 1.8.0_231-b11
Operating System: Windows 10
OS Version: 10.0
Default Encoding: Cp1252
Language: en
Country: US
--></g></svg>