<?xml version="1.0" encoding="UTF-8" standalone="no"?><svg xmlns="http://www.w3.org/2000/svg" xmlns:xlink="http://www.w3.org/1999/xlink" contentScriptType="application/ecmascript" contentStyleType="text/css" height="289px" preserveAspectRatio="none" style="width:696px;height:289px;" version="1.1" viewBox="0 0 696 289" width="696px" zoomAndPan="magnify"><defs><filter height="300%" id="f1aqv6x19orrvm" width="300%" x="-1" y="-1"><feGaussianBlur result="blurOut" stdDeviation="2.0"/><feColorMatrix in="blurOut" result="blurOut2" type="matrix" values="0 0 0 0 0 0 0 0 0 0 0 0 0 0 0 0 0 0 .4 0"/><feOffset dx="4.0" dy="4.0" in="blurOut2" result="blurOut3"/><feBlend in="SourceGraphic" in2="blurOut3" mode="normal"/></filter></defs><g><!--class soen6441riskgame.models.strategies.IStrategy--><a target="_parent" xlink:actuate="onRequest" xlink:href="../../../soen6441riskgame/models/strategies/IStrategy.html" xlink:show="new" xlink:title="soen6441riskgame.models.strategies.IStrategy" xlink:type="simple"><rect fill="#FEFECE" filter="url(#f1aqv6x19orrvm)" height="70.0234" id="soen6441riskgame.models.strategies.IStrategy" style="stroke: #A80036; stroke-width: 1.5;" width="230" x="230.5" y="108"/><ellipse cx="256.75" cy="128.0938" fill="#B4A7E5" rx="11" ry="11" style="stroke: #A80036; stroke-width: 1.0;"/><path d="M257.7031,124.7344 L257.7031,131.3906 L259.4219,131.3906 Q260.0313,131.3906 260.2969,131.625 Q260.5625,131.8594 260.5625,132.25 Q260.5625,132.625 260.2969,132.8594 Q260.0313,133.0938 259.4219,133.0938 L254.2813,133.0938 Q253.6719,133.0938 253.4063,132.8594 Q253.1406,132.625 253.1406,132.2344 Q253.1406,131.8594 253.4063,131.625 Q253.6719,131.3906 254.2813,131.3906 L256,131.3906 L256,124.7344 L254.2813,124.7344 Q253.6719,124.7344 253.4063,124.5 Q253.1406,124.2656 253.1406,123.875 Q253.1406,123.5 253.4063,123.2656 Q253.6719,123.0313 254.2813,123.0313 L259.4219,123.0313 Q260.0313,123.0313 260.2969,123.2656 Q260.5625,123.5 260.5625,123.875 Q260.5625,124.2656 260.2969,124.5 Q260.0313,124.7344 259.4219,124.7344 L257.7031,124.7344 Z "/><text fill="#000000" font-family="sans-serif" font-size="14" font-style="italic" font-weight="bold" lengthAdjust="spacingAndGlyphs" textLength="59" x="330.25" y="127.5332">IStrategy</text><text fill="#000000" font-family="sans-serif" font-size="10" font-style="italic" lengthAdjust="spacingAndGlyphs" textLength="173" x="273.25" y="140.9902">soen6441riskgame.models.strategies</text><line style="stroke: #A80036; stroke-width: 1.5;" x1="231.5" x2="459.5" y1="148.1875" y2="148.1875"/><line style="stroke: #A80036; stroke-width: 1.5;" x1="231.5" x2="459.5" y1="156.1875" y2="156.1875"/><ellipse cx="241.5" cy="168.6055" fill="#84BE84" rx="3" ry="3" style="stroke: #038048; stroke-width: 1.0;"/><text fill="#000000" font-family="sans-serif" font-size="11" font-style="italic" lengthAdjust="spacingAndGlyphs" textLength="204" x="250.5" y="171.6064">void execute(GameBoard board,Player p)</text></a><!--class soen6441riskgame.models.strategies.AggressiveStrategy--><a target="_parent" xlink:actuate="onRequest" xlink:href="../../../soen6441riskgame/models/strategies/AggressiveStrategy.html" xlink:show="new" xlink:title="soen6441riskgame.models.strategies.AggressiveStrategy" xlink:type="simple"><rect fill="#FEFECE" filter="url(#f1aqv6x19orrvm)" height="40.1875" id="soen6441riskgame.models.strategies.AggressiveStrategy" style="stroke: #A80036; stroke-width: 1.5;" width="203" x="6" y="8"/><ellipse cx="21" cy="28.0938" fill="#ADD1B2" rx="11" ry="11" style="stroke: #A80036; stroke-width: 1.0;"/><path d="M23.7656,23.9688 Q23.9219,23.75 24.1094,23.6406 Q24.2969,23.5313 24.5156,23.5313 Q24.8906,23.5313 25.125,23.7891 Q25.3594,24.0469 25.3594,24.6563 L25.3594,26.1094 Q25.3594,26.7188 25.125,26.9844 Q24.8906,27.25 24.5156,27.25 Q24.1719,27.25 23.9688,27.0469 Q23.7656,26.8594 23.6563,26.3438 Q23.6094,25.9844 23.4219,25.7969 Q23.0938,25.4219 22.4844,25.2031 Q21.875,24.9844 21.25,24.9844 Q20.4844,24.9844 19.8516,25.3125 Q19.2188,25.6406 18.7266,26.3906 Q18.2344,27.1406 18.2344,28.1719 L18.2344,29.2656 Q18.2344,30.5 19.125,31.3203 Q20.0156,32.1406 21.6094,32.1406 Q22.5469,32.1406 23.2031,31.8906 Q23.5938,31.7344 24.0156,31.2969 Q24.2813,31.0313 24.4297,30.9531 Q24.5781,30.875 24.7813,30.875 Q25.1094,30.875 25.3672,31.1328 Q25.625,31.3906 25.625,31.7344 Q25.625,32.0781 25.2813,32.4844 Q24.7813,33.0625 23.9844,33.3906 Q22.9063,33.8438 21.6094,33.8438 Q20.0938,33.8438 18.8906,33.2188 Q17.9063,32.7188 17.2188,31.6484 Q16.5313,30.5781 16.5313,29.2969 L16.5313,28.1406 Q16.5313,26.8125 17.1484,25.6641 Q17.7656,24.5156 18.8594,23.8984 Q19.9531,23.2813 21.1875,23.2813 Q21.9219,23.2813 22.5703,23.4453 Q23.2188,23.6094 23.7656,23.9688 Z "/><text fill="#000000" font-family="sans-serif" font-size="14" font-weight="bold" lengthAdjust="spacingAndGlyphs" textLength="138" x="51.5" y="27.5332">AggressiveStrategy</text><text fill="#000000" font-family="sans-serif" font-size="10" lengthAdjust="spacingAndGlyphs" textLength="171" x="35" y="40.9902">soen6441riskgame.models.strategies</text></a><!--class soen6441riskgame.models.strategies.BenevolentStrategy--><a target="_parent" xlink:actuate="onRequest" xlink:href="../../../soen6441riskgame/models/strategies/BenevolentStrategy.html" xlink:show="new" xlink:title="soen6441riskgame.models.strategies.BenevolentStrategy" xlink:type="simple"><rect fill="#FEFECE" filter="url(#f1aqv6x19orrvm)" height="40.1875" id="soen6441riskgame.models.strategies.BenevolentStrategy" style="stroke: #A80036; stroke-width: 1.5;" width="203" x="244" y="8"/><ellipse cx="259" cy="28.0938" fill="#ADD1B2" rx="11" ry="11" style="stroke: #A80036; stroke-width: 1.0;"/><path d="M261.7656,23.9688 Q261.9219,23.75 262.1094,23.6406 Q262.2969,23.5313 262.5156,23.5313 Q262.8906,23.5313 263.125,23.7891 Q263.3594,24.0469 263.3594,24.6563 L263.3594,26.1094 Q263.3594,26.7188 263.125,26.9844 Q262.8906,27.25 262.5156,27.25 Q262.1719,27.25 261.9688,27.0469 Q261.7656,26.8594 261.6563,26.3438 Q261.6094,25.9844 261.4219,25.7969 Q261.0938,25.4219 260.4844,25.2031 Q259.875,24.9844 259.25,24.9844 Q258.4844,24.9844 257.8516,25.3125 Q257.2188,25.6406 256.7266,26.3906 Q256.2344,27.1406 256.2344,28.1719 L256.2344,29.2656 Q256.2344,30.5 257.125,31.3203 Q258.0156,32.1406 259.6094,32.1406 Q260.5469,32.1406 261.2031,31.8906 Q261.5938,31.7344 262.0156,31.2969 Q262.2813,31.0313 262.4297,30.9531 Q262.5781,30.875 262.7813,30.875 Q263.1094,30.875 263.3672,31.1328 Q263.625,31.3906 263.625,31.7344 Q263.625,32.0781 263.2813,32.4844 Q262.7813,33.0625 261.9844,33.3906 Q260.9063,33.8438 259.6094,33.8438 Q258.0938,33.8438 256.8906,33.2188 Q255.9063,32.7188 255.2188,31.6484 Q254.5313,30.5781 254.5313,29.2969 L254.5313,28.1406 Q254.5313,26.8125 255.1484,25.6641 Q255.7656,24.5156 256.8594,23.8984 Q257.9531,23.2813 259.1875,23.2813 Q259.9219,23.2813 260.5703,23.4453 Q261.2188,23.6094 261.7656,23.9688 Z "/><text fill="#000000" font-family="sans-serif" font-size="14" font-weight="bold" lengthAdjust="spacingAndGlyphs" textLength="140" x="288.5" y="27.5332">BenevolentStrategy</text><text fill="#000000" font-family="sans-serif" font-size="10" lengthAdjust="spacingAndGlyphs" textLength="171" x="273" y="40.9902">soen6441riskgame.models.strategies</text></a><!--class soen6441riskgame.singleton.GameBoard--><a target="_parent" xlink:actuate="onRequest" xlink:href="../../../soen6441riskgame/singleton/GameBoard.html" xlink:show="new" xlink:title="soen6441riskgame.singleton.GameBoard" xlink:type="simple"><rect fill="#FFFFFF" filter="url(#f1aqv6x19orrvm)" height="40.1875" id="soen6441riskgame.singleton.GameBoard" style="stroke: #A80036; stroke-width: 1.5;" width="165" x="165" y="238"/><rect fill="#FFFFFF" height="40.1875" style="stroke: #A80036; stroke-width: 1.5;" width="165" x="165" y="238"/><ellipse cx="180" cy="258.0938" fill="#ADD1B2" rx="11" ry="11" style="stroke: #A80036; stroke-width: 1.0;"/><path d="M182.7656,253.9688 Q182.9219,253.75 183.1094,253.6406 Q183.2969,253.5313 183.5156,253.5313 Q183.8906,253.5313 184.125,253.7891 Q184.3594,254.0469 184.3594,254.6563 L184.3594,256.1094 Q184.3594,256.7188 184.125,256.9844 Q183.8906,257.25 183.5156,257.25 Q183.1719,257.25 182.9688,257.0469 Q182.7656,256.8594 182.6563,256.3438 Q182.6094,255.9844 182.4219,255.7969 Q182.0938,255.4219 181.4844,255.2031 Q180.875,254.9844 180.25,254.9844 Q179.4844,254.9844 178.8516,255.3125 Q178.2188,255.6406 177.7266,256.3906 Q177.2344,257.1406 177.2344,258.1719 L177.2344,259.2656 Q177.2344,260.5 178.125,261.3203 Q179.0156,262.1406 180.6094,262.1406 Q181.5469,262.1406 182.2031,261.8906 Q182.5938,261.7344 183.0156,261.2969 Q183.2813,261.0313 183.4297,260.9531 Q183.5781,260.875 183.7813,260.875 Q184.1094,260.875 184.3672,261.1328 Q184.625,261.3906 184.625,261.7344 Q184.625,262.0781 184.2813,262.4844 Q183.7813,263.0625 182.9844,263.3906 Q181.9063,263.8438 180.6094,263.8438 Q179.0938,263.8438 177.8906,263.2188 Q176.9063,262.7188 176.2188,261.6484 Q175.5313,260.5781 175.5313,259.2969 L175.5313,258.1406 Q175.5313,256.8125 176.1484,255.6641 Q176.7656,254.5156 177.8594,253.8984 Q178.9531,253.2813 180.1875,253.2813 Q180.9219,253.2813 181.5703,253.4453 Q182.2188,253.6094 182.7656,253.9688 Z "/><text fill="#000000" font-family="sans-serif" font-size="14" font-weight="bold" lengthAdjust="spacingAndGlyphs" textLength="82" x="219.5" y="257.5332">GameBoard</text><text fill="#000000" font-family="sans-serif" font-size="10" lengthAdjust="spacingAndGlyphs" textLength="133" x="194" y="270.9902">soen6441riskgame.singleton</text></a><!--class soen6441riskgame.models.Player--><a target="_parent" xlink:actuate="onRequest" xlink:href="../../../soen6441riskgame/models/Player.html" xlink:show="new" xlink:title="soen6441riskgame.models.Player" xlink:type="simple"><rect fill="#FFFFFF" filter="url(#f1aqv6x19orrvm)" height="40.1875" id="soen6441riskgame.models.Player" style="stroke: #A80036; stroke-width: 1.5;" width="156" x="365.5" y="238"/><rect fill="#FFFFFF" height="40.1875" style="stroke: #A80036; stroke-width: 1.5;" width="156" x="365.5" y="238"/><ellipse cx="380.5" cy="258.0938" fill="#ADD1B2" rx="11" ry="11" style="stroke: #A80036; stroke-width: 1.0;"/><path d="M383.2656,253.9688 Q383.4219,253.75 383.6094,253.6406 Q383.7969,253.5313 384.0156,253.5313 Q384.3906,253.5313 384.625,253.7891 Q384.8594,254.0469 384.8594,254.6563 L384.8594,256.1094 Q384.8594,256.7188 384.625,256.9844 Q384.3906,257.25 384.0156,257.25 Q383.6719,257.25 383.4688,257.0469 Q383.2656,256.8594 383.1563,256.3438 Q383.1094,255.9844 382.9219,255.7969 Q382.5938,255.4219 381.9844,255.2031 Q381.375,254.9844 380.75,254.9844 Q379.9844,254.9844 379.3516,255.3125 Q378.7188,255.6406 378.2266,256.3906 Q377.7344,257.1406 377.7344,258.1719 L377.7344,259.2656 Q377.7344,260.5 378.625,261.3203 Q379.5156,262.1406 381.1094,262.1406 Q382.0469,262.1406 382.7031,261.8906 Q383.0938,261.7344 383.5156,261.2969 Q383.7813,261.0313 383.9297,260.9531 Q384.0781,260.875 384.2813,260.875 Q384.6094,260.875 384.8672,261.1328 Q385.125,261.3906 385.125,261.7344 Q385.125,262.0781 384.7813,262.4844 Q384.2813,263.0625 383.4844,263.3906 Q382.4063,263.8438 381.1094,263.8438 Q379.5938,263.8438 378.3906,263.2188 Q377.4063,262.7188 376.7188,261.6484 Q376.0313,260.5781 376.0313,259.2969 L376.0313,258.1406 Q376.0313,256.8125 376.6484,255.6641 Q377.2656,254.5156 378.3594,253.8984 Q379.4531,253.2813 380.6875,253.2813 Q381.4219,253.2813 382.0703,253.4453 Q382.7188,253.6094 383.2656,253.9688 Z "/><text fill="#000000" font-family="sans-serif" font-size="14" font-weight="bold" lengthAdjust="spacingAndGlyphs" textLength="43" x="435" y="257.5332">Player</text><text fill="#000000" font-family="sans-serif" font-size="10" lengthAdjust="spacingAndGlyphs" textLength="124" x="394.5" y="270.9902">soen6441riskgame.models</text></a><!--class soen6441riskgame.models.strategies.RandomStrategy--><a target="_parent" xlink:actuate="onRequest" xlink:href="../../../soen6441riskgame/models/strategies/RandomStrategy.html" xlink:show="new" xlink:title="soen6441riskgame.models.strategies.RandomStrategy" xlink:type="simple"><rect fill="#FEFECE" filter="url(#f1aqv6x19orrvm)" height="40.1875" id="soen6441riskgame.models.strategies.RandomStrategy" style="stroke: #A80036; stroke-width: 1.5;" width="203" x="482" y="8"/><ellipse cx="497" cy="28.0938" fill="#ADD1B2" rx="11" ry="11" style="stroke: #A80036; stroke-width: 1.0;"/><path d="M499.7656,23.9688 Q499.9219,23.75 500.1094,23.6406 Q500.2969,23.5313 500.5156,23.5313 Q500.8906,23.5313 501.125,23.7891 Q501.3594,24.0469 501.3594,24.6563 L501.3594,26.1094 Q501.3594,26.7188 501.125,26.9844 Q500.8906,27.25 500.5156,27.25 Q500.1719,27.25 499.9688,27.0469 Q499.7656,26.8594 499.6563,26.3438 Q499.6094,25.9844 499.4219,25.7969 Q499.0938,25.4219 498.4844,25.2031 Q497.875,24.9844 497.25,24.9844 Q496.4844,24.9844 495.8516,25.3125 Q495.2188,25.6406 494.7266,26.3906 Q494.2344,27.1406 494.2344,28.1719 L494.2344,29.2656 Q494.2344,30.5 495.125,31.3203 Q496.0156,32.1406 497.6094,32.1406 Q498.5469,32.1406 499.2031,31.8906 Q499.5938,31.7344 500.0156,31.2969 Q500.2813,31.0313 500.4297,30.9531 Q500.5781,30.875 500.7813,30.875 Q501.1094,30.875 501.3672,31.1328 Q501.625,31.3906 501.625,31.7344 Q501.625,32.0781 501.2813,32.4844 Q500.7813,33.0625 499.9844,33.3906 Q498.9063,33.8438 497.6094,33.8438 Q496.0938,33.8438 494.8906,33.2188 Q493.9063,32.7188 493.2188,31.6484 Q492.5313,30.5781 492.5313,29.2969 L492.5313,28.1406 Q492.5313,26.8125 493.1484,25.6641 Q493.7656,24.5156 494.8594,23.8984 Q495.9531,23.2813 497.1875,23.2813 Q497.9219,23.2813 498.5703,23.4453 Q499.2188,23.6094 499.7656,23.9688 Z "/><text fill="#000000" font-family="sans-serif" font-size="14" font-weight="bold" lengthAdjust="spacingAndGlyphs" textLength="115" x="539" y="27.5332">RandomStrategy</text><text fill="#000000" font-family="sans-serif" font-size="10" lengthAdjust="spacingAndGlyphs" textLength="171" x="511" y="40.9902">soen6441riskgame.models.strategies</text></a><!--link soen6441riskgame.models.strategies.AggressiveStrategy to soen6441riskgame.models.strategies.IStrategy--><path d="M209.096,28 C225.512,28 237.25,28 237.25,28 C237.25,28 237.25,87.871 237.25,87.871 " fill="none" id="soen6441riskgame.models.strategies.AggressiveStrategy-soen6441riskgame.models.strategies.IStrategy" style="stroke: #A80036; stroke-width: 1.0; stroke-dasharray: 7.0,7.0;"/><polygon fill="none" points="244.25,87.871,237.25,107.871,230.25,87.871,244.25,87.871" style="stroke: #A80036; stroke-width: 1.0;"/><!--link soen6441riskgame.models.strategies.BenevolentStrategy to soen6441riskgame.models.strategies.IStrategy--><path d="M345.5,48.031 C345.5,48.031 345.5,87.871 345.5,87.871 " fill="none" id="soen6441riskgame.models.strategies.BenevolentStrategy-soen6441riskgame.models.strategies.IStrategy" style="stroke: #A80036; stroke-width: 1.0; stroke-dasharray: 7.0,7.0;"/><polygon fill="none" points="352.5,87.871,345.5,107.871,338.5,87.871,352.5,87.871" style="stroke: #A80036; stroke-width: 1.0;"/><!--link soen6441riskgame.models.strategies.IStrategy to soen6441riskgame.singleton.GameBoard--><path d="M280.25,178.1287 C280.25,178.1287 280.25,232.7875 280.25,232.7875 " fill="none" id="soen6441riskgame.models.strategies.IStrategy-soen6441riskgame.singleton.GameBoard" style="stroke: #A80036; stroke-width: 1.0; stroke-dasharray: 7.0,7.0;"/><polygon fill="#A80036" points="280.25,237.7875,284.25,228.7875,280.25,232.7875,276.25,228.7875,280.25,237.7875" style="stroke: #A80036; stroke-width: 1.0;"/><!--link soen6441riskgame.models.strategies.IStrategy to soen6441riskgame.models.Player--><path d="M413,178.1287 C413,178.1287 413,232.7875 413,232.7875 " fill="none" id="soen6441riskgame.models.strategies.IStrategy-soen6441riskgame.models.Player" style="stroke: #A80036; stroke-width: 1.0; stroke-dasharray: 7.0,7.0;"/><polygon fill="#A80036" points="413,237.7875,417,228.7875,413,232.7875,409,228.7875,413,237.7875" style="stroke: #A80036; stroke-width: 1.0;"/><!--link soen6441riskgame.models.strategies.RandomStrategy to soen6441riskgame.models.strategies.IStrategy--><path d="M481.904,28 C465.488,28 453.75,28 453.75,28 C453.75,28 453.75,87.871 453.75,87.871 " fill="none" id="soen6441riskgame.models.strategies.RandomStrategy-soen6441riskgame.models.strategies.IStrategy" style="stroke: #A80036; stroke-width: 1.0; stroke-dasharray: 7.0,7.0;"/><polygon fill="none" points="460.75,87.871,453.75,107.871,446.75,87.871,460.75,87.871" style="stroke: #A80036; stroke-width: 1.0;"/><!--
@startuml

skinparam svgLinkTarget _parent
skinparam linetype ortho
set namespaceSeparator none
interface "<b><size:14>IStrategy</b>\n<size:10>soen6441riskgame.models.strategies" as soen6441riskgame.models.strategies.IStrategy  [[../../../soen6441riskgame/models/strategies/IStrategy.html{soen6441riskgame.models.strategies.IStrategy}]] {
{abstract} +void execute(GameBoard board,Player p)
}


class "<b><size:14>AggressiveStrategy</b>\n<size:10>soen6441riskgame.models.strategies" as soen6441riskgame.models.strategies.AggressiveStrategy  [[../../../soen6441riskgame/models/strategies/AggressiveStrategy.html{soen6441riskgame.models.strategies.AggressiveStrategy}]] {
}

hide soen6441riskgame.models.strategies.AggressiveStrategy fields
hide soen6441riskgame.models.strategies.AggressiveStrategy methods

soen6441riskgame.models.strategies.AggressiveStrategy ..|> soen6441riskgame.models.strategies.IStrategy

class "<b><size:14>BenevolentStrategy</b>\n<size:10>soen6441riskgame.models.strategies" as soen6441riskgame.models.strategies.BenevolentStrategy  [[../../../soen6441riskgame/models/strategies/BenevolentStrategy.html{soen6441riskgame.models.strategies.BenevolentStrategy}]] {
}

hide soen6441riskgame.models.strategies.BenevolentStrategy fields
hide soen6441riskgame.models.strategies.BenevolentStrategy methods

soen6441riskgame.models.strategies.BenevolentStrategy ..|> soen6441riskgame.models.strategies.IStrategy

class "<b><size:14>GameBoard</b>\n<size:10>soen6441riskgame.singleton" as soen6441riskgame.singleton.GameBoard  [[../../../soen6441riskgame/singleton/GameBoard.html{soen6441riskgame.singleton.GameBoard}]] #white {
}

hide soen6441riskgame.singleton.GameBoard fields
hide soen6441riskgame.singleton.GameBoard methods

soen6441riskgame.models.strategies.IStrategy ..> soen6441riskgame.singleton.GameBoard

class "<b><size:14>Player</b>\n<size:10>soen6441riskgame.models" as soen6441riskgame.models.Player  [[../../../soen6441riskgame/models/Player.html{soen6441riskgame.models.Player}]] #white {
}

hide soen6441riskgame.models.Player fields
hide soen6441riskgame.models.Player methods

soen6441riskgame.models.strategies.IStrategy ..> soen6441riskgame.models.Player

class "<b><size:14>RandomStrategy</b>\n<size:10>soen6441riskgame.models.strategies" as soen6441riskgame.models.strategies.RandomStrategy  [[../../../soen6441riskgame/models/strategies/RandomStrategy.html{soen6441riskgame.models.strategies.RandomStrategy}]] {
}

hide soen6441riskgame.models.strategies.RandomStrategy fields
hide soen6441riskgame.models.strategies.RandomStrategy methods

soen6441riskgame.models.strategies.RandomStrategy ..|> soen6441riskgame.models.strategies.IStrategy


@enduml

PlantUML version 1.2017.15(Mon Jul 03 12:45:34 EDT 2017)
(GPL source distribution)
Java Runtime: Java(TM) SE Runtime Environment
JVM: Java HotSpot(TM) 64-Bit Server VM
Java Version: 1.8.0_231-b11
Operating System: Windows 10
OS Version: 10.0
Default Encoding: Cp1252
Language: en
Country: US
--></g></svg>