<?xml version="1.0" encoding="UTF-8" standalone="no"?><svg xmlns="http://www.w3.org/2000/svg" xmlns:xlink="http://www.w3.org/1999/xlink" contentScriptType="application/ecmascript" contentStyleType="text/css" height="212px" preserveAspectRatio="none" style="width:636px;height:212px;" version="1.1" viewBox="0 0 636 212" width="636px" zoomAndPan="magnify"><defs><filter height="300%" id="fo2rx9u675bjk" width="300%" x="-1" y="-1"><feGaussianBlur result="blurOut" stdDeviation="2.0"/><feColorMatrix in="blurOut" result="blurOut2" type="matrix" values="0 0 0 0 0 0 0 0 0 0 0 0 0 0 0 0 0 0 .4 0"/><feOffset dx="4.0" dy="4.0" in="blurOut2" result="blurOut3"/><feBlend in="SourceGraphic" in2="blurOut3" mode="normal"/></filter></defs><g><!--cluster soen6441riskgame.models.strategies--><a target="_parent" xlink:actuate="onRequest" xlink:href="../../../soen6441riskgame/models/strategies/package-summary.html" xlink:show="new" xlink:title="soen6441riskgame.models.strategies" xlink:type="simple"><polygon fill="#FFFFE0" filter="url(#fo2rx9u675bjk)" points="22,24,289,24,296,47.6094,614,47.6094,614,200,22,200,22,24" style="stroke: #000000; stroke-width: 2.0;"/><line style="stroke: #000000; stroke-width: 2.0;" x1="22" x2="296" y1="47.6094" y2="47.6094"/><text fill="#000000" font-family="sans-serif" font-size="14" font-weight="bold" lengthAdjust="spacingAndGlyphs" textLength="261" x="26" y="40.5332">soen6441riskgame.models.strategies</text></a><!--class soen6441riskgame.models.strategies.AggressiveStrategy--><a target="_parent" xlink:actuate="onRequest" xlink:href="../../../soen6441riskgame/models/strategies/AggressiveStrategy.html" xlink:show="new" xlink:title="soen6441riskgame.models.strategies.AggressiveStrategy" xlink:type="simple"><rect fill="#FEFECE" filter="url(#fo2rx9u675bjk)" height="32" id="soen6441riskgame.models.strategies.AggressiveStrategy" style="stroke: #A80036; stroke-width: 1.5;" width="170" x="428" y="60"/><ellipse cx="443" cy="76" fill="#ADD1B2" rx="11" ry="11" style="stroke: #A80036; stroke-width: 1.0;"/><path d="M445.7656,71.875 Q445.9219,71.6563 446.1094,71.5469 Q446.2969,71.4375 446.5156,71.4375 Q446.8906,71.4375 447.125,71.6953 Q447.3594,71.9531 447.3594,72.5625 L447.3594,74.0156 Q447.3594,74.625 447.125,74.8906 Q446.8906,75.1563 446.5156,75.1563 Q446.1719,75.1563 445.9688,74.9531 Q445.7656,74.7656 445.6563,74.25 Q445.6094,73.8906 445.4219,73.7031 Q445.0938,73.3281 444.4844,73.1094 Q443.875,72.8906 443.25,72.8906 Q442.4844,72.8906 441.8516,73.2188 Q441.2188,73.5469 440.7266,74.2969 Q440.2344,75.0469 440.2344,76.0781 L440.2344,77.1719 Q440.2344,78.4063 441.125,79.2266 Q442.0156,80.0469 443.6094,80.0469 Q444.5469,80.0469 445.2031,79.7969 Q445.5938,79.6406 446.0156,79.2031 Q446.2813,78.9375 446.4297,78.8594 Q446.5781,78.7813 446.7813,78.7813 Q447.1094,78.7813 447.3672,79.0391 Q447.625,79.2969 447.625,79.6406 Q447.625,79.9844 447.2813,80.3906 Q446.7813,80.9688 445.9844,81.2969 Q444.9063,81.75 443.6094,81.75 Q442.0938,81.75 440.8906,81.125 Q439.9063,80.625 439.2188,79.5547 Q438.5313,78.4844 438.5313,77.2031 L438.5313,76.0469 Q438.5313,74.7188 439.1484,73.5703 Q439.7656,72.4219 440.8594,71.8047 Q441.9531,71.1875 443.1875,71.1875 Q443.9219,71.1875 444.5703,71.3516 Q445.2188,71.5156 445.7656,71.875 Z "/><text fill="#000000" font-family="sans-serif" font-size="14" font-weight="bold" lengthAdjust="spacingAndGlyphs" textLength="138" x="457" y="81.7285">AggressiveStrategy</text></a><!--class soen6441riskgame.models.strategies.BenevolentStrategy--><a target="_parent" xlink:actuate="onRequest" xlink:href="../../../soen6441riskgame/models/strategies/BenevolentStrategy.html" xlink:show="new" xlink:title="soen6441riskgame.models.strategies.BenevolentStrategy" xlink:type="simple"><rect fill="#FEFECE" filter="url(#fo2rx9u675bjk)" height="32" id="soen6441riskgame.models.strategies.BenevolentStrategy" style="stroke: #A80036; stroke-width: 1.5;" width="172" x="221" y="60"/><ellipse cx="236" cy="76" fill="#ADD1B2" rx="11" ry="11" style="stroke: #A80036; stroke-width: 1.0;"/><path d="M238.7656,71.875 Q238.9219,71.6563 239.1094,71.5469 Q239.2969,71.4375 239.5156,71.4375 Q239.8906,71.4375 240.125,71.6953 Q240.3594,71.9531 240.3594,72.5625 L240.3594,74.0156 Q240.3594,74.625 240.125,74.8906 Q239.8906,75.1563 239.5156,75.1563 Q239.1719,75.1563 238.9688,74.9531 Q238.7656,74.7656 238.6563,74.25 Q238.6094,73.8906 238.4219,73.7031 Q238.0938,73.3281 237.4844,73.1094 Q236.875,72.8906 236.25,72.8906 Q235.4844,72.8906 234.8516,73.2188 Q234.2188,73.5469 233.7266,74.2969 Q233.2344,75.0469 233.2344,76.0781 L233.2344,77.1719 Q233.2344,78.4063 234.125,79.2266 Q235.0156,80.0469 236.6094,80.0469 Q237.5469,80.0469 238.2031,79.7969 Q238.5938,79.6406 239.0156,79.2031 Q239.2813,78.9375 239.4297,78.8594 Q239.5781,78.7813 239.7813,78.7813 Q240.1094,78.7813 240.3672,79.0391 Q240.625,79.2969 240.625,79.6406 Q240.625,79.9844 240.2813,80.3906 Q239.7813,80.9688 238.9844,81.2969 Q237.9063,81.75 236.6094,81.75 Q235.0938,81.75 233.8906,81.125 Q232.9063,80.625 232.2188,79.5547 Q231.5313,78.4844 231.5313,77.2031 L231.5313,76.0469 Q231.5313,74.7188 232.1484,73.5703 Q232.7656,72.4219 233.8594,71.8047 Q234.9531,71.1875 236.1875,71.1875 Q236.9219,71.1875 237.5703,71.3516 Q238.2188,71.5156 238.7656,71.875 Z "/><text fill="#000000" font-family="sans-serif" font-size="14" font-weight="bold" lengthAdjust="spacingAndGlyphs" textLength="140" x="250" y="81.7285">BenevolentStrategy</text></a><!--class soen6441riskgame.models.strategies.IStrategy--><a target="_parent" xlink:actuate="onRequest" xlink:href="../../../soen6441riskgame/models/strategies/IStrategy.html" xlink:show="new" xlink:title="soen6441riskgame.models.strategies.IStrategy" xlink:type="simple"><rect fill="#FEFECE" filter="url(#fo2rx9u675bjk)" height="32" id="soen6441riskgame.models.strategies.IStrategy" style="stroke: #A80036; stroke-width: 1.5;" width="91" x="261.5" y="152"/><ellipse cx="276.5" cy="168" fill="#B4A7E5" rx="11" ry="11" style="stroke: #A80036; stroke-width: 1.0;"/><path d="M277.4531,164.6406 L277.4531,171.2969 L279.1719,171.2969 Q279.7813,171.2969 280.0469,171.5313 Q280.3125,171.7656 280.3125,172.1563 Q280.3125,172.5313 280.0469,172.7656 Q279.7813,173 279.1719,173 L274.0313,173 Q273.4219,173 273.1563,172.7656 Q272.8906,172.5313 272.8906,172.1406 Q272.8906,171.7656 273.1563,171.5313 Q273.4219,171.2969 274.0313,171.2969 L275.75,171.2969 L275.75,164.6406 L274.0313,164.6406 Q273.4219,164.6406 273.1563,164.4063 Q272.8906,164.1719 272.8906,163.7813 Q272.8906,163.4063 273.1563,163.1719 Q273.4219,162.9375 274.0313,162.9375 L279.1719,162.9375 Q279.7813,162.9375 280.0469,163.1719 Q280.3125,163.4063 280.3125,163.7813 Q280.3125,164.1719 280.0469,164.4063 Q279.7813,164.6406 279.1719,164.6406 L277.4531,164.6406 Z "/><text fill="#000000" font-family="sans-serif" font-size="14" font-style="italic" font-weight="bold" lengthAdjust="spacingAndGlyphs" textLength="59" x="290.5" y="173.7285">IStrategy</text></a><!--class soen6441riskgame.models.strategies.RandomStrategy--><a target="_parent" xlink:actuate="onRequest" xlink:href="../../../soen6441riskgame/models/strategies/RandomStrategy.html" xlink:show="new" xlink:title="soen6441riskgame.models.strategies.RandomStrategy" xlink:type="simple"><rect fill="#FEFECE" filter="url(#fo2rx9u675bjk)" height="32" id="soen6441riskgame.models.strategies.RandomStrategy" style="stroke: #A80036; stroke-width: 1.5;" width="147" x="38.5" y="60"/><ellipse cx="53.5" cy="76" fill="#ADD1B2" rx="11" ry="11" style="stroke: #A80036; stroke-width: 1.0;"/><path d="M56.2656,71.875 Q56.4219,71.6563 56.6094,71.5469 Q56.7969,71.4375 57.0156,71.4375 Q57.3906,71.4375 57.625,71.6953 Q57.8594,71.9531 57.8594,72.5625 L57.8594,74.0156 Q57.8594,74.625 57.625,74.8906 Q57.3906,75.1563 57.0156,75.1563 Q56.6719,75.1563 56.4688,74.9531 Q56.2656,74.7656 56.1563,74.25 Q56.1094,73.8906 55.9219,73.7031 Q55.5938,73.3281 54.9844,73.1094 Q54.375,72.8906 53.75,72.8906 Q52.9844,72.8906 52.3516,73.2188 Q51.7188,73.5469 51.2266,74.2969 Q50.7344,75.0469 50.7344,76.0781 L50.7344,77.1719 Q50.7344,78.4063 51.625,79.2266 Q52.5156,80.0469 54.1094,80.0469 Q55.0469,80.0469 55.7031,79.7969 Q56.0938,79.6406 56.5156,79.2031 Q56.7813,78.9375 56.9297,78.8594 Q57.0781,78.7813 57.2813,78.7813 Q57.6094,78.7813 57.8672,79.0391 Q58.125,79.2969 58.125,79.6406 Q58.125,79.9844 57.7813,80.3906 Q57.2813,80.9688 56.4844,81.2969 Q55.4063,81.75 54.1094,81.75 Q52.5938,81.75 51.3906,81.125 Q50.4063,80.625 49.7188,79.5547 Q49.0313,78.4844 49.0313,77.2031 L49.0313,76.0469 Q49.0313,74.7188 49.6484,73.5703 Q50.2656,72.4219 51.3594,71.8047 Q52.4531,71.1875 53.6875,71.1875 Q54.4219,71.1875 55.0703,71.3516 Q55.7188,71.5156 56.2656,71.875 Z "/><text fill="#000000" font-family="sans-serif" font-size="14" font-weight="bold" lengthAdjust="spacingAndGlyphs" textLength="115" x="67.5" y="81.7285">RandomStrategy</text></a><!--link soen6441riskgame.models.strategies.AggressiveStrategy to soen6441riskgame.models.strategies.IStrategy--><path d="M513,92.025 C513,118.3838 513,168 513,168 C513,168 372.718,168 372.718,168 " fill="none" id="soen6441riskgame.models.strategies.AggressiveStrategy-soen6441riskgame.models.strategies.IStrategy" style="stroke: #A80036; stroke-width: 1.0; stroke-dasharray: 7.0,7.0;"/><polygon fill="none" points="372.718,174.9999,352.718,168,372.718,160.9999,372.718,174.9999" style="stroke: #A80036; stroke-width: 1.0;"/><!--link soen6441riskgame.models.strategies.BenevolentStrategy to soen6441riskgame.models.strategies.IStrategy--><path d="M307,92.025 C307,92.025 307,131.8498 307,131.8498 " fill="none" id="soen6441riskgame.models.strategies.BenevolentStrategy-soen6441riskgame.models.strategies.IStrategy" style="stroke: #A80036; stroke-width: 1.0; stroke-dasharray: 7.0,7.0;"/><polygon fill="none" points="314,131.8498,307,151.8498,300,131.8497,314,131.8498" style="stroke: #A80036; stroke-width: 1.0;"/><!--link soen6441riskgame.models.strategies.RandomStrategy to soen6441riskgame.models.strategies.IStrategy--><path d="M112,92.025 C112,118.3838 112,168 112,168 C112,168 241.281,168 241.281,168 " fill="none" id="soen6441riskgame.models.strategies.RandomStrategy-soen6441riskgame.models.strategies.IStrategy" style="stroke: #A80036; stroke-width: 1.0; stroke-dasharray: 7.0,7.0;"/><polygon fill="none" points="241.281,160.9999,261.281,168,241.281,174.9999,241.281,160.9999" style="stroke: #A80036; stroke-width: 1.0;"/><!--
@startuml

skinparam svgLinkTarget _parent
skinparam linetype ortho
package soen6441riskgame.models.strategies [[../../../soen6441riskgame/models/strategies/package-summary.html{soen6441riskgame.models.strategies}]] #lightyellow {
}

class "<b><size:14>AggressiveStrategy</b>" as soen6441riskgame.models.strategies.AggressiveStrategy  [[../../../soen6441riskgame/models/strategies/AggressiveStrategy.html{soen6441riskgame.models.strategies.AggressiveStrategy}]] {
}

hide soen6441riskgame.models.strategies.AggressiveStrategy fields
hide soen6441riskgame.models.strategies.AggressiveStrategy methods

class "<b><size:14>BenevolentStrategy</b>" as soen6441riskgame.models.strategies.BenevolentStrategy  [[../../../soen6441riskgame/models/strategies/BenevolentStrategy.html{soen6441riskgame.models.strategies.BenevolentStrategy}]] {
}

hide soen6441riskgame.models.strategies.BenevolentStrategy fields
hide soen6441riskgame.models.strategies.BenevolentStrategy methods

interface "<b><size:14>IStrategy</b>" as soen6441riskgame.models.strategies.IStrategy  [[../../../soen6441riskgame/models/strategies/IStrategy.html{soen6441riskgame.models.strategies.IStrategy}]] {
}

hide soen6441riskgame.models.strategies.IStrategy fields
hide soen6441riskgame.models.strategies.IStrategy methods

class "<b><size:14>RandomStrategy</b>" as soen6441riskgame.models.strategies.RandomStrategy  [[../../../soen6441riskgame/models/strategies/RandomStrategy.html{soen6441riskgame.models.strategies.RandomStrategy}]] {
}

hide soen6441riskgame.models.strategies.RandomStrategy fields
hide soen6441riskgame.models.strategies.RandomStrategy methods

soen6441riskgame.models.strategies.AggressiveStrategy ..|> soen6441riskgame.models.strategies.IStrategy
soen6441riskgame.models.strategies.BenevolentStrategy ..|> soen6441riskgame.models.strategies.IStrategy
soen6441riskgame.models.strategies.RandomStrategy ..|> soen6441riskgame.models.strategies.IStrategy

@enduml

PlantUML version 1.2017.15(Mon Jul 03 12:45:34 EDT 2017)
(GPL source distribution)
Java Runtime: Java(TM) SE Runtime Environment
JVM: Java HotSpot(TM) 64-Bit Server VM
Java Version: 1.8.0_231-b11
Operating System: Windows 10
OS Version: 10.0
Default Encoding: Cp1252
Language: en
Country: US
--></g></svg>