<?xml version="1.0" encoding="UTF-8" standalone="no"?><svg xmlns="http://www.w3.org/2000/svg" xmlns:xlink="http://www.w3.org/1999/xlink" contentScriptType="application/ecmascript" contentStyleType="text/css" height="212px" preserveAspectRatio="none" style="width:990px;height:212px;" version="1.1" viewBox="0 0 990 212" width="990px" zoomAndPan="magnify"><defs><filter height="300%" id="f1li0ui2u6lkg6" width="300%" x="-1" y="-1"><feGaussianBlur result="blurOut" stdDeviation="2.0"/><feColorMatrix in="blurOut" result="blurOut2" type="matrix" values="0 0 0 0 0 0 0 0 0 0 0 0 0 0 0 0 0 0 .4 0"/><feOffset dx="4.0" dy="4.0" in="blurOut2" result="blurOut3"/><feBlend in="SourceGraphic" in2="blurOut3" mode="normal"/></filter></defs><g><!--cluster soen6441riskgame.models.strategies--><a target="_parent" xlink:actuate="onRequest" xlink:href="../../../soen6441riskgame/models/strategies/package-summary.html" xlink:show="new" xlink:title="soen6441riskgame.models.strategies" xlink:type="simple"><polygon fill="#FFFFE0" filter="url(#f1li0ui2u6lkg6)" points="22,24,289,24,296,47.6094,968,47.6094,968,200,22,200,22,24" style="stroke: #000000; stroke-width: 2.0;"/><line style="stroke: #000000; stroke-width: 2.0;" x1="22" x2="296" y1="47.6094" y2="47.6094"/><text fill="#000000" font-family="sans-serif" font-size="14" font-weight="bold" lengthAdjust="spacingAndGlyphs" textLength="261" x="26" y="40.5332">soen6441riskgame.models.strategies</text></a><!--class soen6441riskgame.models.strategies.AggressiveStrategy--><a target="_parent" xlink:actuate="onRequest" xlink:href="../../../soen6441riskgame/models/strategies/AggressiveStrategy.html" xlink:show="new" xlink:title="soen6441riskgame.models.strategies.AggressiveStrategy" xlink:type="simple"><rect fill="#FEFECE" filter="url(#f1li0ui2u6lkg6)" height="32" id="soen6441riskgame.models.strategies.AggressiveStrategy" style="stroke: #A80036; stroke-width: 1.5;" width="170" x="782" y="60"/><ellipse cx="797" cy="76" fill="#ADD1B2" rx="11" ry="11" style="stroke: #A80036; stroke-width: 1.0;"/><path d="M799.7656,71.875 Q799.9219,71.6563 800.1094,71.5469 Q800.2969,71.4375 800.5156,71.4375 Q800.8906,71.4375 801.125,71.6953 Q801.3594,71.9531 801.3594,72.5625 L801.3594,74.0156 Q801.3594,74.625 801.125,74.8906 Q800.8906,75.1563 800.5156,75.1563 Q800.1719,75.1563 799.9688,74.9531 Q799.7656,74.7656 799.6563,74.25 Q799.6094,73.8906 799.4219,73.7031 Q799.0938,73.3281 798.4844,73.1094 Q797.875,72.8906 797.25,72.8906 Q796.4844,72.8906 795.8516,73.2188 Q795.2188,73.5469 794.7266,74.2969 Q794.2344,75.0469 794.2344,76.0781 L794.2344,77.1719 Q794.2344,78.4063 795.125,79.2266 Q796.0156,80.0469 797.6094,80.0469 Q798.5469,80.0469 799.2031,79.7969 Q799.5938,79.6406 800.0156,79.2031 Q800.2813,78.9375 800.4297,78.8594 Q800.5781,78.7813 800.7813,78.7813 Q801.1094,78.7813 801.3672,79.0391 Q801.625,79.2969 801.625,79.6406 Q801.625,79.9844 801.2813,80.3906 Q800.7813,80.9688 799.9844,81.2969 Q798.9063,81.75 797.6094,81.75 Q796.0938,81.75 794.8906,81.125 Q793.9063,80.625 793.2188,79.5547 Q792.5313,78.4844 792.5313,77.2031 L792.5313,76.0469 Q792.5313,74.7188 793.1484,73.5703 Q793.7656,72.4219 794.8594,71.8047 Q795.9531,71.1875 797.1875,71.1875 Q797.9219,71.1875 798.5703,71.3516 Q799.2188,71.5156 799.7656,71.875 Z "/><text fill="#000000" font-family="sans-serif" font-size="14" font-weight="bold" lengthAdjust="spacingAndGlyphs" textLength="138" x="811" y="81.7285">AggressiveStrategy</text></a><!--class soen6441riskgame.models.strategies.BenevolentStrategy--><a target="_parent" xlink:actuate="onRequest" xlink:href="../../../soen6441riskgame/models/strategies/BenevolentStrategy.html" xlink:show="new" xlink:title="soen6441riskgame.models.strategies.BenevolentStrategy" xlink:type="simple"><rect fill="#FEFECE" filter="url(#f1li0ui2u6lkg6)" height="32" id="soen6441riskgame.models.strategies.BenevolentStrategy" style="stroke: #A80036; stroke-width: 1.5;" width="172" x="575" y="60"/><ellipse cx="590" cy="76" fill="#ADD1B2" rx="11" ry="11" style="stroke: #A80036; stroke-width: 1.0;"/><path d="M592.7656,71.875 Q592.9219,71.6563 593.1094,71.5469 Q593.2969,71.4375 593.5156,71.4375 Q593.8906,71.4375 594.125,71.6953 Q594.3594,71.9531 594.3594,72.5625 L594.3594,74.0156 Q594.3594,74.625 594.125,74.8906 Q593.8906,75.1563 593.5156,75.1563 Q593.1719,75.1563 592.9688,74.9531 Q592.7656,74.7656 592.6563,74.25 Q592.6094,73.8906 592.4219,73.7031 Q592.0938,73.3281 591.4844,73.1094 Q590.875,72.8906 590.25,72.8906 Q589.4844,72.8906 588.8516,73.2188 Q588.2188,73.5469 587.7266,74.2969 Q587.2344,75.0469 587.2344,76.0781 L587.2344,77.1719 Q587.2344,78.4063 588.125,79.2266 Q589.0156,80.0469 590.6094,80.0469 Q591.5469,80.0469 592.2031,79.7969 Q592.5938,79.6406 593.0156,79.2031 Q593.2813,78.9375 593.4297,78.8594 Q593.5781,78.7813 593.7813,78.7813 Q594.1094,78.7813 594.3672,79.0391 Q594.625,79.2969 594.625,79.6406 Q594.625,79.9844 594.2813,80.3906 Q593.7813,80.9688 592.9844,81.2969 Q591.9063,81.75 590.6094,81.75 Q589.0938,81.75 587.8906,81.125 Q586.9063,80.625 586.2188,79.5547 Q585.5313,78.4844 585.5313,77.2031 L585.5313,76.0469 Q585.5313,74.7188 586.1484,73.5703 Q586.7656,72.4219 587.8594,71.8047 Q588.9531,71.1875 590.1875,71.1875 Q590.9219,71.1875 591.5703,71.3516 Q592.2188,71.5156 592.7656,71.875 Z "/><text fill="#000000" font-family="sans-serif" font-size="14" font-weight="bold" lengthAdjust="spacingAndGlyphs" textLength="140" x="604" y="81.7285">BenevolentStrategy</text></a><!--class soen6441riskgame.models.strategies.CheaterStrategy--><a target="_parent" xlink:actuate="onRequest" xlink:href="../../../soen6441riskgame/models/strategies/CheaterStrategy.html" xlink:show="new" xlink:title="soen6441riskgame.models.strategies.CheaterStrategy" xlink:type="simple"><rect fill="#FEFECE" filter="url(#f1li0ui2u6lkg6)" height="32" id="soen6441riskgame.models.strategies.CheaterStrategy" style="stroke: #A80036; stroke-width: 1.5;" width="146" x="394" y="60"/><ellipse cx="409" cy="76" fill="#ADD1B2" rx="11" ry="11" style="stroke: #A80036; stroke-width: 1.0;"/><path d="M411.7656,71.875 Q411.9219,71.6563 412.1094,71.5469 Q412.2969,71.4375 412.5156,71.4375 Q412.8906,71.4375 413.125,71.6953 Q413.3594,71.9531 413.3594,72.5625 L413.3594,74.0156 Q413.3594,74.625 413.125,74.8906 Q412.8906,75.1563 412.5156,75.1563 Q412.1719,75.1563 411.9688,74.9531 Q411.7656,74.7656 411.6563,74.25 Q411.6094,73.8906 411.4219,73.7031 Q411.0938,73.3281 410.4844,73.1094 Q409.875,72.8906 409.25,72.8906 Q408.4844,72.8906 407.8516,73.2188 Q407.2188,73.5469 406.7266,74.2969 Q406.2344,75.0469 406.2344,76.0781 L406.2344,77.1719 Q406.2344,78.4063 407.125,79.2266 Q408.0156,80.0469 409.6094,80.0469 Q410.5469,80.0469 411.2031,79.7969 Q411.5938,79.6406 412.0156,79.2031 Q412.2813,78.9375 412.4297,78.8594 Q412.5781,78.7813 412.7813,78.7813 Q413.1094,78.7813 413.3672,79.0391 Q413.625,79.2969 413.625,79.6406 Q413.625,79.9844 413.2813,80.3906 Q412.7813,80.9688 411.9844,81.2969 Q410.9063,81.75 409.6094,81.75 Q408.0938,81.75 406.8906,81.125 Q405.9063,80.625 405.2188,79.5547 Q404.5313,78.4844 404.5313,77.2031 L404.5313,76.0469 Q404.5313,74.7188 405.1484,73.5703 Q405.7656,72.4219 406.8594,71.8047 Q407.9531,71.1875 409.1875,71.1875 Q409.9219,71.1875 410.5703,71.3516 Q411.2188,71.5156 411.7656,71.875 Z "/><text fill="#000000" font-family="sans-serif" font-size="14" font-weight="bold" lengthAdjust="spacingAndGlyphs" textLength="114" x="423" y="81.7285">CheaterStrategy</text></a><!--class soen6441riskgame.models.strategies.HumanStrategy--><a target="_parent" xlink:actuate="onRequest" xlink:href="../../../soen6441riskgame/models/strategies/HumanStrategy.html" xlink:show="new" xlink:title="soen6441riskgame.models.strategies.HumanStrategy" xlink:type="simple"><rect fill="#FEFECE" filter="url(#f1li0ui2u6lkg6)" height="32" id="soen6441riskgame.models.strategies.HumanStrategy" style="stroke: #A80036; stroke-width: 1.5;" width="138" x="221" y="60"/><ellipse cx="236" cy="76" fill="#ADD1B2" rx="11" ry="11" style="stroke: #A80036; stroke-width: 1.0;"/><path d="M238.7656,71.875 Q238.9219,71.6563 239.1094,71.5469 Q239.2969,71.4375 239.5156,71.4375 Q239.8906,71.4375 240.125,71.6953 Q240.3594,71.9531 240.3594,72.5625 L240.3594,74.0156 Q240.3594,74.625 240.125,74.8906 Q239.8906,75.1563 239.5156,75.1563 Q239.1719,75.1563 238.9688,74.9531 Q238.7656,74.7656 238.6563,74.25 Q238.6094,73.8906 238.4219,73.7031 Q238.0938,73.3281 237.4844,73.1094 Q236.875,72.8906 236.25,72.8906 Q235.4844,72.8906 234.8516,73.2188 Q234.2188,73.5469 233.7266,74.2969 Q233.2344,75.0469 233.2344,76.0781 L233.2344,77.1719 Q233.2344,78.4063 234.125,79.2266 Q235.0156,80.0469 236.6094,80.0469 Q237.5469,80.0469 238.2031,79.7969 Q238.5938,79.6406 239.0156,79.2031 Q239.2813,78.9375 239.4297,78.8594 Q239.5781,78.7813 239.7813,78.7813 Q240.1094,78.7813 240.3672,79.0391 Q240.625,79.2969 240.625,79.6406 Q240.625,79.9844 240.2813,80.3906 Q239.7813,80.9688 238.9844,81.2969 Q237.9063,81.75 236.6094,81.75 Q235.0938,81.75 233.8906,81.125 Q232.9063,80.625 232.2188,79.5547 Q231.5313,78.4844 231.5313,77.2031 L231.5313,76.0469 Q231.5313,74.7188 232.1484,73.5703 Q232.7656,72.4219 233.8594,71.8047 Q234.9531,71.1875 236.1875,71.1875 Q236.9219,71.1875 237.5703,71.3516 Q238.2188,71.5156 238.7656,71.875 Z "/><text fill="#000000" font-family="sans-serif" font-size="14" font-weight="bold" lengthAdjust="spacingAndGlyphs" textLength="106" x="250" y="81.7285">HumanStrategy</text></a><!--class soen6441riskgame.models.strategies.RandomStrategy--><a target="_parent" xlink:actuate="onRequest" xlink:href="../../../soen6441riskgame/models/strategies/RandomStrategy.html" xlink:show="new" xlink:title="soen6441riskgame.models.strategies.RandomStrategy" xlink:type="simple"><rect fill="#FEFECE" filter="url(#f1li0ui2u6lkg6)" height="32" id="soen6441riskgame.models.strategies.RandomStrategy" style="stroke: #A80036; stroke-width: 1.5;" width="147" x="38.5" y="60"/><ellipse cx="53.5" cy="76" fill="#ADD1B2" rx="11" ry="11" style="stroke: #A80036; stroke-width: 1.0;"/><path d="M56.2656,71.875 Q56.4219,71.6563 56.6094,71.5469 Q56.7969,71.4375 57.0156,71.4375 Q57.3906,71.4375 57.625,71.6953 Q57.8594,71.9531 57.8594,72.5625 L57.8594,74.0156 Q57.8594,74.625 57.625,74.8906 Q57.3906,75.1563 57.0156,75.1563 Q56.6719,75.1563 56.4688,74.9531 Q56.2656,74.7656 56.1563,74.25 Q56.1094,73.8906 55.9219,73.7031 Q55.5938,73.3281 54.9844,73.1094 Q54.375,72.8906 53.75,72.8906 Q52.9844,72.8906 52.3516,73.2188 Q51.7188,73.5469 51.2266,74.2969 Q50.7344,75.0469 50.7344,76.0781 L50.7344,77.1719 Q50.7344,78.4063 51.625,79.2266 Q52.5156,80.0469 54.1094,80.0469 Q55.0469,80.0469 55.7031,79.7969 Q56.0938,79.6406 56.5156,79.2031 Q56.7813,78.9375 56.9297,78.8594 Q57.0781,78.7813 57.2813,78.7813 Q57.6094,78.7813 57.8672,79.0391 Q58.125,79.2969 58.125,79.6406 Q58.125,79.9844 57.7813,80.3906 Q57.2813,80.9688 56.4844,81.2969 Q55.4063,81.75 54.1094,81.75 Q52.5938,81.75 51.3906,81.125 Q50.4063,80.625 49.7188,79.5547 Q49.0313,78.4844 49.0313,77.2031 L49.0313,76.0469 Q49.0313,74.7188 49.6484,73.5703 Q50.2656,72.4219 51.3594,71.8047 Q52.4531,71.1875 53.6875,71.1875 Q54.4219,71.1875 55.0703,71.3516 Q55.7188,71.5156 56.2656,71.875 Z "/><text fill="#000000" font-family="sans-serif" font-size="14" font-weight="bold" lengthAdjust="spacingAndGlyphs" textLength="115" x="67.5" y="81.7285">RandomStrategy</text></a><!--class soen6441riskgame.models.strategies.Strategy--><a target="_parent" xlink:actuate="onRequest" xlink:href="../../../soen6441riskgame/models/strategies/Strategy.html" xlink:show="new" xlink:title="soen6441riskgame.models.strategies.Strategy" xlink:type="simple"><rect fill="#FEFECE" filter="url(#f1li0ui2u6lkg6)" height="32" id="soen6441riskgame.models.strategies.Strategy" style="stroke: #A80036; stroke-width: 1.5;" width="88" x="423" y="152"/><ellipse cx="438" cy="168" fill="#B4A7E5" rx="11" ry="11" style="stroke: #A80036; stroke-width: 1.0;"/><path d="M438.9531,164.6406 L438.9531,171.2969 L440.6719,171.2969 Q441.2813,171.2969 441.5469,171.5313 Q441.8125,171.7656 441.8125,172.1563 Q441.8125,172.5313 441.5469,172.7656 Q441.2813,173 440.6719,173 L435.5313,173 Q434.9219,173 434.6563,172.7656 Q434.3906,172.5313 434.3906,172.1406 Q434.3906,171.7656 434.6563,171.5313 Q434.9219,171.2969 435.5313,171.2969 L437.25,171.2969 L437.25,164.6406 L435.5313,164.6406 Q434.9219,164.6406 434.6563,164.4063 Q434.3906,164.1719 434.3906,163.7813 Q434.3906,163.4063 434.6563,163.1719 Q434.9219,162.9375 435.5313,162.9375 L440.6719,162.9375 Q441.2813,162.9375 441.5469,163.1719 Q441.8125,163.4063 441.8125,163.7813 Q441.8125,164.1719 441.5469,164.4063 Q441.2813,164.6406 440.6719,164.6406 L438.9531,164.6406 Z "/><text fill="#000000" font-family="sans-serif" font-size="14" font-style="italic" font-weight="bold" lengthAdjust="spacingAndGlyphs" textLength="56" x="452" y="173.7285">Strategy</text></a><!--link soen6441riskgame.models.strategies.AggressiveStrategy to soen6441riskgame.models.strategies.Strategy--><path d="M867,92.183 C867,120.0175 867,174 867,174 C867,174 531.335,174 531.335,174 " fill="none" id="soen6441riskgame.models.strategies.AggressiveStrategy-soen6441riskgame.models.strategies.Strategy" style="stroke: #A80036; stroke-width: 1.0; stroke-dasharray: 7.0,7.0;"/><polygon fill="none" points="531.335,180.9999,511.335,174,531.335,166.9999,531.335,180.9999" style="stroke: #A80036; stroke-width: 1.0;"/><!--link soen6441riskgame.models.strategies.BenevolentStrategy to soen6441riskgame.models.strategies.Strategy--><path d="M661,92.364 C661,117.5658 661,163 661,163 C661,163 531.022,163 531.022,163 " fill="none" id="soen6441riskgame.models.strategies.BenevolentStrategy-soen6441riskgame.models.strategies.Strategy" style="stroke: #A80036; stroke-width: 1.0; stroke-dasharray: 7.0,7.0;"/><polygon fill="none" points="531.022,169.9999,511.022,163,531.022,155.9999,531.022,169.9999" style="stroke: #A80036; stroke-width: 1.0;"/><!--link soen6441riskgame.models.strategies.CheaterStrategy to soen6441riskgame.models.strategies.Strategy--><path d="M467,92.025 C467,92.025 467,131.8498 467,131.8498 " fill="none" id="soen6441riskgame.models.strategies.CheaterStrategy-soen6441riskgame.models.strategies.Strategy" style="stroke: #A80036; stroke-width: 1.0; stroke-dasharray: 7.0,7.0;"/><polygon fill="none" points="474,131.8498,467,151.8498,460,131.8497,474,131.8498" style="stroke: #A80036; stroke-width: 1.0;"/><!--link soen6441riskgame.models.strategies.HumanStrategy to soen6441riskgame.models.strategies.Strategy--><path d="M290,92.364 C290,117.5658 290,163 290,163 C290,163 402.792,163 402.792,163 " fill="none" id="soen6441riskgame.models.strategies.HumanStrategy-soen6441riskgame.models.strategies.Strategy" style="stroke: #A80036; stroke-width: 1.0; stroke-dasharray: 7.0,7.0;"/><polygon fill="none" points="402.792,155.9999,422.792,163,402.792,169.9999,402.792,155.9999" style="stroke: #A80036; stroke-width: 1.0;"/><!--link soen6441riskgame.models.strategies.RandomStrategy to soen6441riskgame.models.strategies.Strategy--><path d="M112,92.183 C112,120.0175 112,174 112,174 C112,174 402.757,174 402.757,174 " fill="none" id="soen6441riskgame.models.strategies.RandomStrategy-soen6441riskgame.models.strategies.Strategy" style="stroke: #A80036; stroke-width: 1.0; stroke-dasharray: 7.0,7.0;"/><polygon fill="none" points="402.757,166.9999,422.757,174,402.757,180.9999,402.757,166.9999" style="stroke: #A80036; stroke-width: 1.0;"/><!--
@startuml

skinparam svgLinkTarget _parent
skinparam linetype ortho
package soen6441riskgame.models.strategies [[../../../soen6441riskgame/models/strategies/package-summary.html{soen6441riskgame.models.strategies}]] #lightyellow {
}

class "<b><size:14>AggressiveStrategy</b>" as soen6441riskgame.models.strategies.AggressiveStrategy  [[../../../soen6441riskgame/models/strategies/AggressiveStrategy.html{soen6441riskgame.models.strategies.AggressiveStrategy}]] {
}

hide soen6441riskgame.models.strategies.AggressiveStrategy fields
hide soen6441riskgame.models.strategies.AggressiveStrategy methods

class "<b><size:14>BenevolentStrategy</b>" as soen6441riskgame.models.strategies.BenevolentStrategy  [[../../../soen6441riskgame/models/strategies/BenevolentStrategy.html{soen6441riskgame.models.strategies.BenevolentStrategy}]] {
}

hide soen6441riskgame.models.strategies.BenevolentStrategy fields
hide soen6441riskgame.models.strategies.BenevolentStrategy methods

class "<b><size:14>CheaterStrategy</b>" as soen6441riskgame.models.strategies.CheaterStrategy  [[../../../soen6441riskgame/models/strategies/CheaterStrategy.html{soen6441riskgame.models.strategies.CheaterStrategy}]] {
}

hide soen6441riskgame.models.strategies.CheaterStrategy fields
hide soen6441riskgame.models.strategies.CheaterStrategy methods

class "<b><size:14>HumanStrategy</b>" as soen6441riskgame.models.strategies.HumanStrategy  [[../../../soen6441riskgame/models/strategies/HumanStrategy.html{soen6441riskgame.models.strategies.HumanStrategy}]] {
}

hide soen6441riskgame.models.strategies.HumanStrategy fields
hide soen6441riskgame.models.strategies.HumanStrategy methods

class "<b><size:14>RandomStrategy</b>" as soen6441riskgame.models.strategies.RandomStrategy  [[../../../soen6441riskgame/models/strategies/RandomStrategy.html{soen6441riskgame.models.strategies.RandomStrategy}]] {
}

hide soen6441riskgame.models.strategies.RandomStrategy fields
hide soen6441riskgame.models.strategies.RandomStrategy methods

interface "<b><size:14>Strategy</b>" as soen6441riskgame.models.strategies.Strategy  [[../../../soen6441riskgame/models/strategies/Strategy.html{soen6441riskgame.models.strategies.Strategy}]] {
}

hide soen6441riskgame.models.strategies.Strategy fields
hide soen6441riskgame.models.strategies.Strategy methods

soen6441riskgame.models.strategies.AggressiveStrategy ..|> soen6441riskgame.models.strategies.Strategy
soen6441riskgame.models.strategies.BenevolentStrategy ..|> soen6441riskgame.models.strategies.Strategy
soen6441riskgame.models.strategies.CheaterStrategy ..|> soen6441riskgame.models.strategies.Strategy
soen6441riskgame.models.strategies.HumanStrategy ..|> soen6441riskgame.models.strategies.Strategy
soen6441riskgame.models.strategies.RandomStrategy ..|> soen6441riskgame.models.strategies.Strategy

@enduml

PlantUML version 1.2017.15(Mon Jul 03 12:45:34 EDT 2017)
(GPL source distribution)
Java Runtime: Java(TM) SE Runtime Environment
JVM: Java HotSpot(TM) 64-Bit Server VM
Java Version: 1.8.0_231-b11
Operating System: Windows 10
OS Version: 10.0
Default Encoding: Cp1252
Language: en
Country: US
--></g></svg>