<?xml version="1.0" encoding="UTF-8" standalone="no"?><svg xmlns="http://www.w3.org/2000/svg" xmlns:xlink="http://www.w3.org/1999/xlink" contentScriptType="application/ecmascript" contentStyleType="text/css" height="217px" preserveAspectRatio="none" style="width:805px;height:217px;" version="1.1" viewBox="0 0 805 217" width="805px" zoomAndPan="magnify"><defs><filter height="300%" id="f1rv7h7bhmtawq" width="300%" x="-1" y="-1"><feGaussianBlur result="blurOut" stdDeviation="2.0"/><feColorMatrix in="blurOut" result="blurOut2" type="matrix" values="0 0 0 0 0 0 0 0 0 0 0 0 0 0 0 0 0 0 .4 0"/><feOffset dx="4.0" dy="4.0" in="blurOut2" result="blurOut3"/><feBlend in="SourceGraphic" in2="blurOut3" mode="normal"/></filter></defs><g><!--class soen6441riskgame.models.strategies.RandomStrategy--><a target="_parent" xlink:actuate="onRequest" xlink:href="../../../soen6441riskgame/models/strategies/RandomStrategy.html" xlink:show="new" xlink:title="soen6441riskgame.models.strategies.RandomStrategy" xlink:type="simple"><rect fill="#FEFECE" filter="url(#f1rv7h7bhmtawq)" height="97.6953" id="soen6441riskgame.models.strategies.RandomStrategy" style="stroke: #A80036; stroke-width: 1.5;" width="226" x="309.5" y="8"/><ellipse cx="334.85" cy="28.0938" fill="#ADD1B2" rx="11" ry="11" style="stroke: #A80036; stroke-width: 1.0;"/><path d="M337.6156,23.9688 Q337.7719,23.75 337.9594,23.6406 Q338.1469,23.5313 338.3656,23.5313 Q338.7406,23.5313 338.975,23.7891 Q339.2094,24.0469 339.2094,24.6563 L339.2094,26.1094 Q339.2094,26.7188 338.975,26.9844 Q338.7406,27.25 338.3656,27.25 Q338.0219,27.25 337.8188,27.0469 Q337.6156,26.8594 337.5063,26.3438 Q337.4594,25.9844 337.2719,25.7969 Q336.9438,25.4219 336.3344,25.2031 Q335.725,24.9844 335.1,24.9844 Q334.3344,24.9844 333.7016,25.3125 Q333.0688,25.6406 332.5766,26.3906 Q332.0844,27.1406 332.0844,28.1719 L332.0844,29.2656 Q332.0844,30.5 332.975,31.3203 Q333.8656,32.1406 335.4594,32.1406 Q336.3969,32.1406 337.0531,31.8906 Q337.4438,31.7344 337.8656,31.2969 Q338.1313,31.0313 338.2797,30.9531 Q338.4281,30.875 338.6313,30.875 Q338.9594,30.875 339.2172,31.1328 Q339.475,31.3906 339.475,31.7344 Q339.475,32.0781 339.1313,32.4844 Q338.6313,33.0625 337.8344,33.3906 Q336.7563,33.8438 335.4594,33.8438 Q333.9438,33.8438 332.7406,33.2188 Q331.7563,32.7188 331.0688,31.6484 Q330.3813,30.5781 330.3813,29.2969 L330.3813,28.1406 Q330.3813,26.8125 330.9984,25.6641 Q331.6156,24.5156 332.7094,23.8984 Q333.8031,23.2813 335.0375,23.2813 Q335.7719,23.2813 336.4203,23.4453 Q337.0688,23.6094 337.6156,23.9688 Z "/><text fill="#000000" font-family="sans-serif" font-size="14" font-weight="bold" lengthAdjust="spacingAndGlyphs" textLength="115" x="379.15" y="27.5332">RandomStrategy</text><text fill="#000000" font-family="sans-serif" font-size="10" lengthAdjust="spacingAndGlyphs" textLength="171" x="351.15" y="40.9902">soen6441riskgame.models.strategies</text><line style="stroke: #A80036; stroke-width: 1.5;" x1="310.5" x2="534.5" y1="48.1875" y2="48.1875"/><line style="stroke: #A80036; stroke-width: 1.5;" x1="310.5" x2="534.5" y1="56.1875" y2="56.1875"/><ellipse cx="320.5" cy="68.6055" fill="#84BE84" rx="3" ry="3" style="stroke: #038048; stroke-width: 1.0;"/><text fill="#000000" font-family="sans-serif" font-size="11" lengthAdjust="spacingAndGlyphs" textLength="88" x="329.5" y="71.6064">RandomStrategy()</text><ellipse cx="320.5" cy="82.4414" fill="#84BE84" rx="3" ry="3" style="stroke: #038048; stroke-width: 1.0;"/><text fill="#000000" font-family="sans-serif" font-size="11" lengthAdjust="spacingAndGlyphs" textLength="141" x="329.5" y="85.4424">int getDiceCount(Country atk)</text><ellipse cx="320.5" cy="96.2773" fill="#84BE84" rx="3" ry="3" style="stroke: #038048; stroke-width: 1.0;"/><text fill="#000000" font-family="sans-serif" font-size="11" lengthAdjust="spacingAndGlyphs" textLength="200" x="329.5" y="99.2783">void execute(GameBoard board,Player p)</text></a><!--class soen6441riskgame.models.strategies.IStrategy--><a target="_parent" xlink:actuate="onRequest" xlink:href="../../../soen6441riskgame/models/strategies/IStrategy.html" xlink:show="new" xlink:title="soen6441riskgame.models.strategies.IStrategy" xlink:type="simple"><rect fill="#FEFECE" filter="url(#f1rv7h7bhmtawq)" height="40.1875" id="soen6441riskgame.models.strategies.IStrategy" style="stroke: #A80036; stroke-width: 1.5;" width="205" x="6" y="166"/><ellipse cx="21" cy="186.0938" fill="#B4A7E5" rx="11" ry="11" style="stroke: #A80036; stroke-width: 1.0;"/><path d="M21.9531,182.7344 L21.9531,189.3906 L23.6719,189.3906 Q24.2813,189.3906 24.5469,189.625 Q24.8125,189.8594 24.8125,190.25 Q24.8125,190.625 24.5469,190.8594 Q24.2813,191.0938 23.6719,191.0938 L18.5313,191.0938 Q17.9219,191.0938 17.6563,190.8594 Q17.3906,190.625 17.3906,190.2344 Q17.3906,189.8594 17.6563,189.625 Q17.9219,189.3906 18.5313,189.3906 L20.25,189.3906 L20.25,182.7344 L18.5313,182.7344 Q17.9219,182.7344 17.6563,182.5 Q17.3906,182.2656 17.3906,181.875 Q17.3906,181.5 17.6563,181.2656 Q17.9219,181.0313 18.5313,181.0313 L23.6719,181.0313 Q24.2813,181.0313 24.5469,181.2656 Q24.8125,181.5 24.8125,181.875 Q24.8125,182.2656 24.5469,182.5 Q24.2813,182.7344 23.6719,182.7344 L21.9531,182.7344 Z "/><text fill="#000000" font-family="sans-serif" font-size="14" font-style="italic" font-weight="bold" lengthAdjust="spacingAndGlyphs" textLength="59" x="92" y="185.5332">IStrategy</text><text fill="#000000" font-family="sans-serif" font-size="10" font-style="italic" lengthAdjust="spacingAndGlyphs" textLength="173" x="35" y="198.9902">soen6441riskgame.models.strategies</text></a><!--class soen6441riskgame.models.Country--><a target="_parent" xlink:actuate="onRequest" xlink:href="../../../soen6441riskgame/models/Country.html" xlink:show="new" xlink:title="soen6441riskgame.models.Country" xlink:type="simple"><rect fill="#FFFFFF" filter="url(#f1rv7h7bhmtawq)" height="40.1875" id="soen6441riskgame.models.Country" style="stroke: #A80036; stroke-width: 1.5;" width="156" x="246.5" y="166"/><rect fill="#FFFFFF" height="40.1875" style="stroke: #A80036; stroke-width: 1.5;" width="156" x="246.5" y="166"/><ellipse cx="261.5" cy="186.0938" fill="#ADD1B2" rx="11" ry="11" style="stroke: #A80036; stroke-width: 1.0;"/><path d="M264.2656,181.9688 Q264.4219,181.75 264.6094,181.6406 Q264.7969,181.5313 265.0156,181.5313 Q265.3906,181.5313 265.625,181.7891 Q265.8594,182.0469 265.8594,182.6563 L265.8594,184.1094 Q265.8594,184.7188 265.625,184.9844 Q265.3906,185.25 265.0156,185.25 Q264.6719,185.25 264.4688,185.0469 Q264.2656,184.8594 264.1563,184.3438 Q264.1094,183.9844 263.9219,183.7969 Q263.5938,183.4219 262.9844,183.2031 Q262.375,182.9844 261.75,182.9844 Q260.9844,182.9844 260.3516,183.3125 Q259.7188,183.6406 259.2266,184.3906 Q258.7344,185.1406 258.7344,186.1719 L258.7344,187.2656 Q258.7344,188.5 259.625,189.3203 Q260.5156,190.1406 262.1094,190.1406 Q263.0469,190.1406 263.7031,189.8906 Q264.0938,189.7344 264.5156,189.2969 Q264.7813,189.0313 264.9297,188.9531 Q265.0781,188.875 265.2813,188.875 Q265.6094,188.875 265.8672,189.1328 Q266.125,189.3906 266.125,189.7344 Q266.125,190.0781 265.7813,190.4844 Q265.2813,191.0625 264.4844,191.3906 Q263.4063,191.8438 262.1094,191.8438 Q260.5938,191.8438 259.3906,191.2188 Q258.4063,190.7188 257.7188,189.6484 Q257.0313,188.5781 257.0313,187.2969 L257.0313,186.1406 Q257.0313,184.8125 257.6484,183.6641 Q258.2656,182.5156 259.3594,181.8984 Q260.4531,181.2813 261.6875,181.2813 Q262.4219,181.2813 263.0703,181.4453 Q263.7188,181.6094 264.2656,181.9688 Z "/><text fill="#000000" font-family="sans-serif" font-size="14" font-weight="bold" lengthAdjust="spacingAndGlyphs" textLength="55" x="310" y="185.5332">Country</text><text fill="#000000" font-family="sans-serif" font-size="10" lengthAdjust="spacingAndGlyphs" textLength="124" x="275.5" y="198.9902">soen6441riskgame.models</text></a><!--class soen6441riskgame.singleton.GameBoard--><a target="_parent" xlink:actuate="onRequest" xlink:href="../../../soen6441riskgame/singleton/GameBoard.html" xlink:show="new" xlink:title="soen6441riskgame.singleton.GameBoard" xlink:type="simple"><rect fill="#FFFFFF" filter="url(#f1rv7h7bhmtawq)" height="40.1875" id="soen6441riskgame.singleton.GameBoard" style="stroke: #A80036; stroke-width: 1.5;" width="165" x="438" y="166"/><rect fill="#FFFFFF" height="40.1875" style="stroke: #A80036; stroke-width: 1.5;" width="165" x="438" y="166"/><ellipse cx="453" cy="186.0938" fill="#ADD1B2" rx="11" ry="11" style="stroke: #A80036; stroke-width: 1.0;"/><path d="M455.7656,181.9688 Q455.9219,181.75 456.1094,181.6406 Q456.2969,181.5313 456.5156,181.5313 Q456.8906,181.5313 457.125,181.7891 Q457.3594,182.0469 457.3594,182.6563 L457.3594,184.1094 Q457.3594,184.7188 457.125,184.9844 Q456.8906,185.25 456.5156,185.25 Q456.1719,185.25 455.9688,185.0469 Q455.7656,184.8594 455.6563,184.3438 Q455.6094,183.9844 455.4219,183.7969 Q455.0938,183.4219 454.4844,183.2031 Q453.875,182.9844 453.25,182.9844 Q452.4844,182.9844 451.8516,183.3125 Q451.2188,183.6406 450.7266,184.3906 Q450.2344,185.1406 450.2344,186.1719 L450.2344,187.2656 Q450.2344,188.5 451.125,189.3203 Q452.0156,190.1406 453.6094,190.1406 Q454.5469,190.1406 455.2031,189.8906 Q455.5938,189.7344 456.0156,189.2969 Q456.2813,189.0313 456.4297,188.9531 Q456.5781,188.875 456.7813,188.875 Q457.1094,188.875 457.3672,189.1328 Q457.625,189.3906 457.625,189.7344 Q457.625,190.0781 457.2813,190.4844 Q456.7813,191.0625 455.9844,191.3906 Q454.9063,191.8438 453.6094,191.8438 Q452.0938,191.8438 450.8906,191.2188 Q449.9063,190.7188 449.2188,189.6484 Q448.5313,188.5781 448.5313,187.2969 L448.5313,186.1406 Q448.5313,184.8125 449.1484,183.6641 Q449.7656,182.5156 450.8594,181.8984 Q451.9531,181.2813 453.1875,181.2813 Q453.9219,181.2813 454.5703,181.4453 Q455.2188,181.6094 455.7656,181.9688 Z "/><text fill="#000000" font-family="sans-serif" font-size="14" font-weight="bold" lengthAdjust="spacingAndGlyphs" textLength="82" x="492.5" y="185.5332">GameBoard</text><text fill="#000000" font-family="sans-serif" font-size="10" lengthAdjust="spacingAndGlyphs" textLength="133" x="467" y="198.9902">soen6441riskgame.singleton</text></a><!--class soen6441riskgame.models.Player--><a target="_parent" xlink:actuate="onRequest" xlink:href="../../../soen6441riskgame/models/Player.html" xlink:show="new" xlink:title="soen6441riskgame.models.Player" xlink:type="simple"><rect fill="#FFFFFF" filter="url(#f1rv7h7bhmtawq)" height="40.1875" id="soen6441riskgame.models.Player" style="stroke: #A80036; stroke-width: 1.5;" width="156" x="638.5" y="166"/><rect fill="#FFFFFF" height="40.1875" style="stroke: #A80036; stroke-width: 1.5;" width="156" x="638.5" y="166"/><ellipse cx="653.5" cy="186.0938" fill="#ADD1B2" rx="11" ry="11" style="stroke: #A80036; stroke-width: 1.0;"/><path d="M656.2656,181.9688 Q656.4219,181.75 656.6094,181.6406 Q656.7969,181.5313 657.0156,181.5313 Q657.3906,181.5313 657.625,181.7891 Q657.8594,182.0469 657.8594,182.6563 L657.8594,184.1094 Q657.8594,184.7188 657.625,184.9844 Q657.3906,185.25 657.0156,185.25 Q656.6719,185.25 656.4688,185.0469 Q656.2656,184.8594 656.1563,184.3438 Q656.1094,183.9844 655.9219,183.7969 Q655.5938,183.4219 654.9844,183.2031 Q654.375,182.9844 653.75,182.9844 Q652.9844,182.9844 652.3516,183.3125 Q651.7188,183.6406 651.2266,184.3906 Q650.7344,185.1406 650.7344,186.1719 L650.7344,187.2656 Q650.7344,188.5 651.625,189.3203 Q652.5156,190.1406 654.1094,190.1406 Q655.0469,190.1406 655.7031,189.8906 Q656.0938,189.7344 656.5156,189.2969 Q656.7813,189.0313 656.9297,188.9531 Q657.0781,188.875 657.2813,188.875 Q657.6094,188.875 657.8672,189.1328 Q658.125,189.3906 658.125,189.7344 Q658.125,190.0781 657.7813,190.4844 Q657.2813,191.0625 656.4844,191.3906 Q655.4063,191.8438 654.1094,191.8438 Q652.5938,191.8438 651.3906,191.2188 Q650.4063,190.7188 649.7188,189.6484 Q649.0313,188.5781 649.0313,187.2969 L649.0313,186.1406 Q649.0313,184.8125 649.6484,183.6641 Q650.2656,182.5156 651.3594,181.8984 Q652.4531,181.2813 653.6875,181.2813 Q654.4219,181.2813 655.0703,181.4453 Q655.7188,181.6094 656.2656,181.9688 Z "/><text fill="#000000" font-family="sans-serif" font-size="14" font-weight="bold" lengthAdjust="spacingAndGlyphs" textLength="43" x="708" y="185.5332">Player</text><text fill="#000000" font-family="sans-serif" font-size="10" lengthAdjust="spacingAndGlyphs" textLength="124" x="667.5" y="198.9902">soen6441riskgame.models</text></a><!--link soen6441riskgame.models.strategies.RandomStrategy to soen6441riskgame.models.strategies.IStrategy--><path d="M309.139,57 C219.197,57 108.5,57 108.5,57 C108.5,57 108.5,145.8437 108.5,145.8437 " fill="none" id="soen6441riskgame.models.strategies.RandomStrategy-soen6441riskgame.models.strategies.IStrategy" style="stroke: #A80036; stroke-width: 1.0; stroke-dasharray: 7.0,7.0;"/><polygon fill="none" points="115.5,145.8438,108.5,165.8437,101.5001,145.8437,115.5,145.8438" style="stroke: #A80036; stroke-width: 1.0;"/><!--link soen6441riskgame.models.strategies.RandomStrategy to soen6441riskgame.models.Country--><path d="M356,106.1374 C356,106.1374 356,160.9521 356,160.9521 " fill="none" id="soen6441riskgame.models.strategies.RandomStrategy-soen6441riskgame.models.Country" style="stroke: #A80036; stroke-width: 1.0; stroke-dasharray: 7.0,7.0;"/><polygon fill="#A80036" points="356,165.9521,360,156.9521,356,160.9521,352,156.9521,356,165.9521" style="stroke: #A80036; stroke-width: 1.0;"/><!--link soen6441riskgame.models.strategies.RandomStrategy to soen6441riskgame.singleton.GameBoard--><path d="M486.75,106.1374 C486.75,106.1374 486.75,160.9521 486.75,160.9521 " fill="none" id="soen6441riskgame.models.strategies.RandomStrategy-soen6441riskgame.singleton.GameBoard" style="stroke: #A80036; stroke-width: 1.0; stroke-dasharray: 7.0,7.0;"/><polygon fill="#A80036" points="486.75,165.9521,490.75,156.9521,486.75,160.9521,482.75,156.9521,486.75,165.9521" style="stroke: #A80036; stroke-width: 1.0;"/><!--link soen6441riskgame.models.strategies.RandomStrategy to soen6441riskgame.models.Player--><path d="M535.748,57 C618.569,57 716.5,57 716.5,57 C716.5,57 716.5,160.8437 716.5,160.8437 " fill="none" id="soen6441riskgame.models.strategies.RandomStrategy-soen6441riskgame.models.Player" style="stroke: #A80036; stroke-width: 1.0; stroke-dasharray: 7.0,7.0;"/><polygon fill="#A80036" points="716.5,165.8437,720.5,156.8437,716.5,160.8437,712.5,156.8437,716.5,165.8437" style="stroke: #A80036; stroke-width: 1.0;"/><!--
@startuml

skinparam svgLinkTarget _parent
skinparam linetype ortho
set namespaceSeparator none
class "<b><size:14>RandomStrategy</b>\n<size:10>soen6441riskgame.models.strategies" as soen6441riskgame.models.strategies.RandomStrategy  [[../../../soen6441riskgame/models/strategies/RandomStrategy.html{soen6441riskgame.models.strategies.RandomStrategy}]] {
+RandomStrategy()
+int getDiceCount(Country atk)
+void execute(GameBoard board,Player p)
}


interface "<b><size:14>IStrategy</b>\n<size:10>soen6441riskgame.models.strategies" as soen6441riskgame.models.strategies.IStrategy  [[../../../soen6441riskgame/models/strategies/IStrategy.html{soen6441riskgame.models.strategies.IStrategy}]] {
}

hide soen6441riskgame.models.strategies.IStrategy fields
hide soen6441riskgame.models.strategies.IStrategy methods

soen6441riskgame.models.strategies.RandomStrategy ..|> soen6441riskgame.models.strategies.IStrategy

class "<b><size:14>Country</b>\n<size:10>soen6441riskgame.models" as soen6441riskgame.models.Country  [[../../../soen6441riskgame/models/Country.html{soen6441riskgame.models.Country}]] #white {
}

hide soen6441riskgame.models.Country fields
hide soen6441riskgame.models.Country methods

soen6441riskgame.models.strategies.RandomStrategy ..> soen6441riskgame.models.Country

class "<b><size:14>GameBoard</b>\n<size:10>soen6441riskgame.singleton" as soen6441riskgame.singleton.GameBoard  [[../../../soen6441riskgame/singleton/GameBoard.html{soen6441riskgame.singleton.GameBoard}]] #white {
}

hide soen6441riskgame.singleton.GameBoard fields
hide soen6441riskgame.singleton.GameBoard methods

soen6441riskgame.models.strategies.RandomStrategy ..> soen6441riskgame.singleton.GameBoard

class "<b><size:14>Player</b>\n<size:10>soen6441riskgame.models" as soen6441riskgame.models.Player  [[../../../soen6441riskgame/models/Player.html{soen6441riskgame.models.Player}]] #white {
}

hide soen6441riskgame.models.Player fields
hide soen6441riskgame.models.Player methods

soen6441riskgame.models.strategies.RandomStrategy ..> soen6441riskgame.models.Player


@enduml

PlantUML version 1.2017.15(Mon Jul 03 12:45:34 EDT 2017)
(GPL source distribution)
Java Runtime: Java(TM) SE Runtime Environment
JVM: Java HotSpot(TM) 64-Bit Server VM
Java Version: 1.8.0_231-b11
Operating System: Windows 10
OS Version: 10.0
Default Encoding: Cp1252
Language: en
Country: US
--></g></svg>