<?xml version="1.0" encoding="UTF-8" standalone="no"?><svg xmlns="http://www.w3.org/2000/svg" xmlns:xlink="http://www.w3.org/1999/xlink" contentScriptType="application/ecmascript" contentStyleType="text/css" height="372px" preserveAspectRatio="none" style="width:1394px;height:372px;" version="1.1" viewBox="0 0 1394 372" width="1394px" zoomAndPan="magnify"><defs><filter height="300%" id="f1un8m9e5mnh9l" width="300%" x="-1" y="-1"><feGaussianBlur result="blurOut" stdDeviation="2.0"/><feColorMatrix in="blurOut" result="blurOut2" type="matrix" values="0 0 0 0 0 0 0 0 0 0 0 0 0 0 0 0 0 0 .4 0"/><feOffset dx="4.0" dy="4.0" in="blurOut2" result="blurOut3"/><feBlend in="SourceGraphic" in2="blurOut3" mode="normal"/></filter></defs><g><!--class soen6441riskgame.models.strategies.Strategy--><a target="_parent" xlink:actuate="onRequest" xlink:href="../../../soen6441riskgame/models/strategies/Strategy.html" xlink:show="new" xlink:title="soen6441riskgame.models.strategies.Strategy" xlink:type="simple"><rect fill="#FEFECE" filter="url(#f1un8m9e5mnh9l)" height="153.0391" id="soen6441riskgame.models.strategies.Strategy" style="stroke: #A80036; stroke-width: 1.5;" width="364" x="504.5" y="108"/><ellipse cx="595.75" cy="128.0938" fill="#B4A7E5" rx="11" ry="11" style="stroke: #A80036; stroke-width: 1.0;"/><path d="M596.7031,124.7344 L596.7031,131.3906 L598.4219,131.3906 Q599.0313,131.3906 599.2969,131.625 Q599.5625,131.8594 599.5625,132.25 Q599.5625,132.625 599.2969,132.8594 Q599.0313,133.0938 598.4219,133.0938 L593.2813,133.0938 Q592.6719,133.0938 592.4063,132.8594 Q592.1406,132.625 592.1406,132.2344 Q592.1406,131.8594 592.4063,131.625 Q592.6719,131.3906 593.2813,131.3906 L595,131.3906 L595,124.7344 L593.2813,124.7344 Q592.6719,124.7344 592.4063,124.5 Q592.1406,124.2656 592.1406,123.875 Q592.1406,123.5 592.4063,123.2656 Q592.6719,123.0313 593.2813,123.0313 L598.4219,123.0313 Q599.0313,123.0313 599.2969,123.2656 Q599.5625,123.5 599.5625,123.875 Q599.5625,124.2656 599.2969,124.5 Q599.0313,124.7344 598.4219,124.7344 L596.7031,124.7344 Z "/><text fill="#000000" font-family="sans-serif" font-size="14" font-style="italic" font-weight="bold" lengthAdjust="spacingAndGlyphs" textLength="56" x="674.75" y="127.5332">Strategy</text><text fill="#000000" font-family="sans-serif" font-size="10" font-style="italic" lengthAdjust="spacingAndGlyphs" textLength="173" x="616.25" y="140.9902">soen6441riskgame.models.strategies</text><line style="stroke: #A80036; stroke-width: 1.5;" x1="505.5" x2="867.5" y1="148.1875" y2="148.1875"/><line style="stroke: #A80036; stroke-width: 1.5;" x1="505.5" x2="867.5" y1="156.1875" y2="156.1875"/><ellipse cx="515.5" cy="168.6055" fill="#84BE84" rx="3" ry="3" style="stroke: #038048; stroke-width: 1.0;"/><text fill="#000000" font-family="sans-serif" font-size="11" font-style="italic" lengthAdjust="spacingAndGlyphs" textLength="124" x="524.5" y="171.6064">StrategyName getName()</text><ellipse cx="515.5" cy="182.4414" fill="#84BE84" rx="3" ry="3" style="stroke: #038048; stroke-width: 1.0;"/><text fill="#000000" font-family="sans-serif" font-size="11" font-style="italic" lengthAdjust="spacingAndGlyphs" textLength="280" x="524.5" y="185.4424">void reinforce(Player player,Country countryToReinforce)</text><ellipse cx="515.5" cy="196.2773" fill="#84BE84" rx="3" ry="3" style="stroke: #038048; stroke-width: 1.0;"/><text fill="#000000" font-family="sans-serif" font-size="11" font-style="italic" lengthAdjust="spacingAndGlyphs" textLength="326" x="524.5" y="199.2783">ArrayList&lt;Country&gt; attack(Player player,Country attackingCountry)</text><ellipse cx="515.5" cy="210.1133" fill="#84BE84" rx="3" ry="3" style="stroke: #038048; stroke-width: 1.0;"/><text fill="#000000" font-family="sans-serif" font-size="11" font-style="italic" lengthAdjust="spacingAndGlyphs" textLength="250" x="524.5" y="213.1143">void fortify(Country fromCountry,Country toCountry)</text><ellipse cx="515.5" cy="223.9492" fill="#84BE84" rx="3" ry="3" style="stroke: #038048; stroke-width: 1.0;"/><text fill="#000000" font-family="sans-serif" font-size="11" lengthAdjust="spacingAndGlyphs" textLength="338" x="524.5" y="226.9502">void fortify(Country fromCountry,Country toCountry,int armiesAmount)</text><ellipse cx="515.5" cy="237.7852" fill="#84BE84" rx="3" ry="3" style="stroke: #038048; stroke-width: 1.0;"/><text fill="#000000" font-family="sans-serif" font-size="11" lengthAdjust="spacingAndGlyphs" textLength="85" x="524.5" y="240.7861">void fortifyNone()</text><ellipse cx="515.5" cy="251.6211" fill="#84BE84" rx="3" ry="3" style="stroke: #038048; stroke-width: 1.0;"/><text fill="#000000" font-family="sans-serif" font-size="11" font-style="italic" lengthAdjust="spacingAndGlyphs" textLength="138" x="524.5" y="254.6221">void playTurn(Player player)</text></a><!--class soen6441riskgame.controllers.TournamentController--><a target="_parent" xlink:actuate="onRequest" xlink:href="../../../soen6441riskgame/controllers/TournamentController.html" xlink:show="new" xlink:title="soen6441riskgame.controllers.TournamentController" xlink:type="simple"><rect fill="#FFFFFF" filter="url(#f1un8m9e5mnh9l)" height="40.1875" id="soen6441riskgame.controllers.TournamentController" style="stroke: #A80036; stroke-width: 1.5;" width="187" x="6" y="8"/><rect fill="#FFFFFF" height="40.1875" style="stroke: #A80036; stroke-width: 1.5;" width="187" x="6" y="8"/><ellipse cx="21" cy="28.0938" fill="#ADD1B2" rx="11" ry="11" style="stroke: #A80036; stroke-width: 1.0;"/><path d="M23.7656,23.9688 Q23.9219,23.75 24.1094,23.6406 Q24.2969,23.5313 24.5156,23.5313 Q24.8906,23.5313 25.125,23.7891 Q25.3594,24.0469 25.3594,24.6563 L25.3594,26.1094 Q25.3594,26.7188 25.125,26.9844 Q24.8906,27.25 24.5156,27.25 Q24.1719,27.25 23.9688,27.0469 Q23.7656,26.8594 23.6563,26.3438 Q23.6094,25.9844 23.4219,25.7969 Q23.0938,25.4219 22.4844,25.2031 Q21.875,24.9844 21.25,24.9844 Q20.4844,24.9844 19.8516,25.3125 Q19.2188,25.6406 18.7266,26.3906 Q18.2344,27.1406 18.2344,28.1719 L18.2344,29.2656 Q18.2344,30.5 19.125,31.3203 Q20.0156,32.1406 21.6094,32.1406 Q22.5469,32.1406 23.2031,31.8906 Q23.5938,31.7344 24.0156,31.2969 Q24.2813,31.0313 24.4297,30.9531 Q24.5781,30.875 24.7813,30.875 Q25.1094,30.875 25.3672,31.1328 Q25.625,31.3906 25.625,31.7344 Q25.625,32.0781 25.2813,32.4844 Q24.7813,33.0625 23.9844,33.3906 Q22.9063,33.8438 21.6094,33.8438 Q20.0938,33.8438 18.8906,33.2188 Q17.9063,32.7188 17.2188,31.6484 Q16.5313,30.5781 16.5313,29.2969 L16.5313,28.1406 Q16.5313,26.8125 17.1484,25.6641 Q17.7656,24.5156 18.8594,23.8984 Q19.9531,23.2813 21.1875,23.2813 Q21.9219,23.2813 22.5703,23.4453 Q23.2188,23.6094 23.7656,23.9688 Z "/><text fill="#000000" font-family="sans-serif" font-size="14" font-weight="bold" lengthAdjust="spacingAndGlyphs" textLength="155" x="35" y="27.5332">TournamentController</text><text fill="#000000" font-family="sans-serif" font-size="10" lengthAdjust="spacingAndGlyphs" textLength="139" x="43" y="40.9902">soen6441riskgame.controllers</text></a><!--class soen6441riskgame.enums.StrategyName--><a target="_parent" xlink:actuate="onRequest" xlink:href="../../../soen6441riskgame/enums/StrategyName.html" xlink:show="new" xlink:title="soen6441riskgame.enums.StrategyName" xlink:type="simple"><rect fill="#FFFFFF" filter="url(#f1un8m9e5mnh9l)" height="40.1875" id="soen6441riskgame.enums.StrategyName" style="stroke: #A80036; stroke-width: 1.5;" width="153" x="420" y="321"/><rect fill="#FFFFFF" height="40.1875" style="stroke: #A80036; stroke-width: 1.5;" width="153" x="420" y="321"/><ellipse cx="435" cy="341.0938" fill="#EB937F" rx="11" ry="11" style="stroke: #A80036; stroke-width: 1.0;"/><path d="M433.8594,341.8906 L433.8594,344.3906 L438.1875,344.3906 L438.1875,343.4688 Q438.1875,342.8594 438.4297,342.5938 Q438.6719,342.3281 439.0469,342.3281 Q439.4219,342.3281 439.6563,342.5938 Q439.8906,342.8594 439.8906,343.4688 L439.8906,346.0938 L431.8906,346.0938 Q431.2656,346.0938 431.0078,345.8594 Q430.75,345.625 430.75,345.2344 Q430.75,344.8594 431.0156,344.625 Q431.2813,344.3906 431.8906,344.3906 L432.1563,344.3906 L432.1563,337.7344 L431.8906,337.7344 Q431.2656,337.7344 431.0078,337.5 Q430.75,337.2656 430.75,336.875 Q430.75,336.5 431.0078,336.2656 Q431.2656,336.0313 431.8906,336.0313 L439.5156,336.0313 L439.5156,338.625 Q439.5156,339.2344 439.2891,339.4922 Q439.0625,339.75 438.6719,339.75 Q438.2969,339.75 438.0625,339.4922 Q437.8281,339.2344 437.8281,338.625 L437.8281,337.7344 L433.8594,337.7344 L433.8594,340.1875 L435.3438,340.1875 Q435.3438,339.5313 435.4688,339.3438 Q435.7344,338.9375 436.2031,338.9375 Q436.5781,338.9375 436.8125,339.1953 Q437.0469,339.4531 437.0469,340.0625 L437.0469,342.0313 Q437.0469,342.5781 436.9219,342.7656 Q436.6563,343.1563 436.2031,343.1563 Q435.7344,343.1563 435.4688,342.75 Q435.3438,342.5625 435.3438,341.8906 L433.8594,341.8906 Z "/><text fill="#000000" font-family="sans-serif" font-size="14" font-weight="bold" lengthAdjust="spacingAndGlyphs" textLength="97" x="461" y="340.5332">StrategyName</text><text fill="#000000" font-family="sans-serif" font-size="10" lengthAdjust="spacingAndGlyphs" textLength="121" x="449" y="353.9902">soen6441riskgame.enums</text></a><!--class soen6441riskgame.models.Player--><a target="_parent" xlink:actuate="onRequest" xlink:href="../../../soen6441riskgame/models/Player.html" xlink:show="new" xlink:title="soen6441riskgame.models.Player" xlink:type="simple"><rect fill="#FFFFFF" filter="url(#f1un8m9e5mnh9l)" height="40.1875" id="soen6441riskgame.models.Player" style="stroke: #A80036; stroke-width: 1.5;" width="156" x="608.5" y="321"/><rect fill="#FFFFFF" height="40.1875" style="stroke: #A80036; stroke-width: 1.5;" width="156" x="608.5" y="321"/><ellipse cx="623.5" cy="341.0938" fill="#ADD1B2" rx="11" ry="11" style="stroke: #A80036; stroke-width: 1.0;"/><path d="M626.2656,336.9688 Q626.4219,336.75 626.6094,336.6406 Q626.7969,336.5313 627.0156,336.5313 Q627.3906,336.5313 627.625,336.7891 Q627.8594,337.0469 627.8594,337.6563 L627.8594,339.1094 Q627.8594,339.7188 627.625,339.9844 Q627.3906,340.25 627.0156,340.25 Q626.6719,340.25 626.4688,340.0469 Q626.2656,339.8594 626.1563,339.3438 Q626.1094,338.9844 625.9219,338.7969 Q625.5938,338.4219 624.9844,338.2031 Q624.375,337.9844 623.75,337.9844 Q622.9844,337.9844 622.3516,338.3125 Q621.7188,338.6406 621.2266,339.3906 Q620.7344,340.1406 620.7344,341.1719 L620.7344,342.2656 Q620.7344,343.5 621.625,344.3203 Q622.5156,345.1406 624.1094,345.1406 Q625.0469,345.1406 625.7031,344.8906 Q626.0938,344.7344 626.5156,344.2969 Q626.7813,344.0313 626.9297,343.9531 Q627.0781,343.875 627.2813,343.875 Q627.6094,343.875 627.8672,344.1328 Q628.125,344.3906 628.125,344.7344 Q628.125,345.0781 627.7813,345.4844 Q627.2813,346.0625 626.4844,346.3906 Q625.4063,346.8438 624.1094,346.8438 Q622.5938,346.8438 621.3906,346.2188 Q620.4063,345.7188 619.7188,344.6484 Q619.0313,343.5781 619.0313,342.2969 L619.0313,341.1406 Q619.0313,339.8125 619.6484,338.6641 Q620.2656,337.5156 621.3594,336.8984 Q622.4531,336.2813 623.6875,336.2813 Q624.4219,336.2813 625.0703,336.4453 Q625.7188,336.6094 626.2656,336.9688 Z "/><text fill="#000000" font-family="sans-serif" font-size="14" font-weight="bold" lengthAdjust="spacingAndGlyphs" textLength="43" x="678" y="340.5332">Player</text><text fill="#000000" font-family="sans-serif" font-size="10" lengthAdjust="spacingAndGlyphs" textLength="124" x="637.5" y="353.9902">soen6441riskgame.models</text></a><!--class soen6441riskgame.models.strategies.AggressiveStrategy--><a target="_parent" xlink:actuate="onRequest" xlink:href="../../../soen6441riskgame/models/strategies/AggressiveStrategy.html" xlink:show="new" xlink:title="soen6441riskgame.models.strategies.AggressiveStrategy" xlink:type="simple"><rect fill="#FEFECE" filter="url(#f1un8m9e5mnh9l)" height="40.1875" id="soen6441riskgame.models.strategies.AggressiveStrategy" style="stroke: #A80036; stroke-width: 1.5;" width="203" x="228" y="8"/><ellipse cx="243" cy="28.0938" fill="#ADD1B2" rx="11" ry="11" style="stroke: #A80036; stroke-width: 1.0;"/><path d="M245.7656,23.9688 Q245.9219,23.75 246.1094,23.6406 Q246.2969,23.5313 246.5156,23.5313 Q246.8906,23.5313 247.125,23.7891 Q247.3594,24.0469 247.3594,24.6563 L247.3594,26.1094 Q247.3594,26.7188 247.125,26.9844 Q246.8906,27.25 246.5156,27.25 Q246.1719,27.25 245.9688,27.0469 Q245.7656,26.8594 245.6563,26.3438 Q245.6094,25.9844 245.4219,25.7969 Q245.0938,25.4219 244.4844,25.2031 Q243.875,24.9844 243.25,24.9844 Q242.4844,24.9844 241.8516,25.3125 Q241.2188,25.6406 240.7266,26.3906 Q240.2344,27.1406 240.2344,28.1719 L240.2344,29.2656 Q240.2344,30.5 241.125,31.3203 Q242.0156,32.1406 243.6094,32.1406 Q244.5469,32.1406 245.2031,31.8906 Q245.5938,31.7344 246.0156,31.2969 Q246.2813,31.0313 246.4297,30.9531 Q246.5781,30.875 246.7813,30.875 Q247.1094,30.875 247.3672,31.1328 Q247.625,31.3906 247.625,31.7344 Q247.625,32.0781 247.2813,32.4844 Q246.7813,33.0625 245.9844,33.3906 Q244.9063,33.8438 243.6094,33.8438 Q242.0938,33.8438 240.8906,33.2188 Q239.9063,32.7188 239.2188,31.6484 Q238.5313,30.5781 238.5313,29.2969 L238.5313,28.1406 Q238.5313,26.8125 239.1484,25.6641 Q239.7656,24.5156 240.8594,23.8984 Q241.9531,23.2813 243.1875,23.2813 Q243.9219,23.2813 244.5703,23.4453 Q245.2188,23.6094 245.7656,23.9688 Z "/><text fill="#000000" font-family="sans-serif" font-size="14" font-weight="bold" lengthAdjust="spacingAndGlyphs" textLength="138" x="273.5" y="27.5332">AggressiveStrategy</text><text fill="#000000" font-family="sans-serif" font-size="10" lengthAdjust="spacingAndGlyphs" textLength="171" x="257" y="40.9902">soen6441riskgame.models.strategies</text></a><!--class soen6441riskgame.models.strategies.BenevolentStrategy--><a target="_parent" xlink:actuate="onRequest" xlink:href="../../../soen6441riskgame/models/strategies/BenevolentStrategy.html" xlink:show="new" xlink:title="soen6441riskgame.models.strategies.BenevolentStrategy" xlink:type="simple"><rect fill="#FEFECE" filter="url(#f1un8m9e5mnh9l)" height="40.1875" id="soen6441riskgame.models.strategies.BenevolentStrategy" style="stroke: #A80036; stroke-width: 1.5;" width="203" x="466" y="8"/><ellipse cx="481" cy="28.0938" fill="#ADD1B2" rx="11" ry="11" style="stroke: #A80036; stroke-width: 1.0;"/><path d="M483.7656,23.9688 Q483.9219,23.75 484.1094,23.6406 Q484.2969,23.5313 484.5156,23.5313 Q484.8906,23.5313 485.125,23.7891 Q485.3594,24.0469 485.3594,24.6563 L485.3594,26.1094 Q485.3594,26.7188 485.125,26.9844 Q484.8906,27.25 484.5156,27.25 Q484.1719,27.25 483.9688,27.0469 Q483.7656,26.8594 483.6563,26.3438 Q483.6094,25.9844 483.4219,25.7969 Q483.0938,25.4219 482.4844,25.2031 Q481.875,24.9844 481.25,24.9844 Q480.4844,24.9844 479.8516,25.3125 Q479.2188,25.6406 478.7266,26.3906 Q478.2344,27.1406 478.2344,28.1719 L478.2344,29.2656 Q478.2344,30.5 479.125,31.3203 Q480.0156,32.1406 481.6094,32.1406 Q482.5469,32.1406 483.2031,31.8906 Q483.5938,31.7344 484.0156,31.2969 Q484.2813,31.0313 484.4297,30.9531 Q484.5781,30.875 484.7813,30.875 Q485.1094,30.875 485.3672,31.1328 Q485.625,31.3906 485.625,31.7344 Q485.625,32.0781 485.2813,32.4844 Q484.7813,33.0625 483.9844,33.3906 Q482.9063,33.8438 481.6094,33.8438 Q480.0938,33.8438 478.8906,33.2188 Q477.9063,32.7188 477.2188,31.6484 Q476.5313,30.5781 476.5313,29.2969 L476.5313,28.1406 Q476.5313,26.8125 477.1484,25.6641 Q477.7656,24.5156 478.8594,23.8984 Q479.9531,23.2813 481.1875,23.2813 Q481.9219,23.2813 482.5703,23.4453 Q483.2188,23.6094 483.7656,23.9688 Z "/><text fill="#000000" font-family="sans-serif" font-size="14" font-weight="bold" lengthAdjust="spacingAndGlyphs" textLength="140" x="510.5" y="27.5332">BenevolentStrategy</text><text fill="#000000" font-family="sans-serif" font-size="10" lengthAdjust="spacingAndGlyphs" textLength="171" x="495" y="40.9902">soen6441riskgame.models.strategies</text></a><!--class soen6441riskgame.models.strategies.CheaterStrategy--><a target="_parent" xlink:actuate="onRequest" xlink:href="../../../soen6441riskgame/models/strategies/CheaterStrategy.html" xlink:show="new" xlink:title="soen6441riskgame.models.strategies.CheaterStrategy" xlink:type="simple"><rect fill="#FEFECE" filter="url(#f1un8m9e5mnh9l)" height="40.1875" id="soen6441riskgame.models.strategies.CheaterStrategy" style="stroke: #A80036; stroke-width: 1.5;" width="203" x="704" y="8"/><ellipse cx="719" cy="28.0938" fill="#ADD1B2" rx="11" ry="11" style="stroke: #A80036; stroke-width: 1.0;"/><path d="M721.7656,23.9688 Q721.9219,23.75 722.1094,23.6406 Q722.2969,23.5313 722.5156,23.5313 Q722.8906,23.5313 723.125,23.7891 Q723.3594,24.0469 723.3594,24.6563 L723.3594,26.1094 Q723.3594,26.7188 723.125,26.9844 Q722.8906,27.25 722.5156,27.25 Q722.1719,27.25 721.9688,27.0469 Q721.7656,26.8594 721.6563,26.3438 Q721.6094,25.9844 721.4219,25.7969 Q721.0938,25.4219 720.4844,25.2031 Q719.875,24.9844 719.25,24.9844 Q718.4844,24.9844 717.8516,25.3125 Q717.2188,25.6406 716.7266,26.3906 Q716.2344,27.1406 716.2344,28.1719 L716.2344,29.2656 Q716.2344,30.5 717.125,31.3203 Q718.0156,32.1406 719.6094,32.1406 Q720.5469,32.1406 721.2031,31.8906 Q721.5938,31.7344 722.0156,31.2969 Q722.2813,31.0313 722.4297,30.9531 Q722.5781,30.875 722.7813,30.875 Q723.1094,30.875 723.3672,31.1328 Q723.625,31.3906 723.625,31.7344 Q723.625,32.0781 723.2813,32.4844 Q722.7813,33.0625 721.9844,33.3906 Q720.9063,33.8438 719.6094,33.8438 Q718.0938,33.8438 716.8906,33.2188 Q715.9063,32.7188 715.2188,31.6484 Q714.5313,30.5781 714.5313,29.2969 L714.5313,28.1406 Q714.5313,26.8125 715.1484,25.6641 Q715.7656,24.5156 716.8594,23.8984 Q717.9531,23.2813 719.1875,23.2813 Q719.9219,23.2813 720.5703,23.4453 Q721.2188,23.6094 721.7656,23.9688 Z "/><text fill="#000000" font-family="sans-serif" font-size="14" font-weight="bold" lengthAdjust="spacingAndGlyphs" textLength="114" x="761.5" y="27.5332">CheaterStrategy</text><text fill="#000000" font-family="sans-serif" font-size="10" lengthAdjust="spacingAndGlyphs" textLength="171" x="733" y="40.9902">soen6441riskgame.models.strategies</text></a><!--class soen6441riskgame.models.strategies.HumanStrategy--><a target="_parent" xlink:actuate="onRequest" xlink:href="../../../soen6441riskgame/models/strategies/HumanStrategy.html" xlink:show="new" xlink:title="soen6441riskgame.models.strategies.HumanStrategy" xlink:type="simple"><rect fill="#FEFECE" filter="url(#f1un8m9e5mnh9l)" height="40.1875" id="soen6441riskgame.models.strategies.HumanStrategy" style="stroke: #A80036; stroke-width: 1.5;" width="203" x="942" y="8"/><ellipse cx="957" cy="28.0938" fill="#ADD1B2" rx="11" ry="11" style="stroke: #A80036; stroke-width: 1.0;"/><path d="M959.7656,23.9688 Q959.9219,23.75 960.1094,23.6406 Q960.2969,23.5313 960.5156,23.5313 Q960.8906,23.5313 961.125,23.7891 Q961.3594,24.0469 961.3594,24.6563 L961.3594,26.1094 Q961.3594,26.7188 961.125,26.9844 Q960.8906,27.25 960.5156,27.25 Q960.1719,27.25 959.9688,27.0469 Q959.7656,26.8594 959.6563,26.3438 Q959.6094,25.9844 959.4219,25.7969 Q959.0938,25.4219 958.4844,25.2031 Q957.875,24.9844 957.25,24.9844 Q956.4844,24.9844 955.8516,25.3125 Q955.2188,25.6406 954.7266,26.3906 Q954.2344,27.1406 954.2344,28.1719 L954.2344,29.2656 Q954.2344,30.5 955.125,31.3203 Q956.0156,32.1406 957.6094,32.1406 Q958.5469,32.1406 959.2031,31.8906 Q959.5938,31.7344 960.0156,31.2969 Q960.2813,31.0313 960.4297,30.9531 Q960.5781,30.875 960.7813,30.875 Q961.1094,30.875 961.3672,31.1328 Q961.625,31.3906 961.625,31.7344 Q961.625,32.0781 961.2813,32.4844 Q960.7813,33.0625 959.9844,33.3906 Q958.9063,33.8438 957.6094,33.8438 Q956.0938,33.8438 954.8906,33.2188 Q953.9063,32.7188 953.2188,31.6484 Q952.5313,30.5781 952.5313,29.2969 L952.5313,28.1406 Q952.5313,26.8125 953.1484,25.6641 Q953.7656,24.5156 954.8594,23.8984 Q955.9531,23.2813 957.1875,23.2813 Q957.9219,23.2813 958.5703,23.4453 Q959.2188,23.6094 959.7656,23.9688 Z "/><text fill="#000000" font-family="sans-serif" font-size="14" font-weight="bold" lengthAdjust="spacingAndGlyphs" textLength="106" x="1003.5" y="27.5332">HumanStrategy</text><text fill="#000000" font-family="sans-serif" font-size="10" lengthAdjust="spacingAndGlyphs" textLength="171" x="971" y="40.9902">soen6441riskgame.models.strategies</text></a><!--class soen6441riskgame.models.strategies.RandomStrategy--><a target="_parent" xlink:actuate="onRequest" xlink:href="../../../soen6441riskgame/models/strategies/RandomStrategy.html" xlink:show="new" xlink:title="soen6441riskgame.models.strategies.RandomStrategy" xlink:type="simple"><rect fill="#FEFECE" filter="url(#f1un8m9e5mnh9l)" height="40.1875" id="soen6441riskgame.models.strategies.RandomStrategy" style="stroke: #A80036; stroke-width: 1.5;" width="203" x="1180" y="8"/><ellipse cx="1195" cy="28.0938" fill="#ADD1B2" rx="11" ry="11" style="stroke: #A80036; stroke-width: 1.0;"/><path d="M1197.7656,23.9688 Q1197.9219,23.75 1198.1094,23.6406 Q1198.2969,23.5313 1198.5156,23.5313 Q1198.8906,23.5313 1199.125,23.7891 Q1199.3594,24.0469 1199.3594,24.6563 L1199.3594,26.1094 Q1199.3594,26.7188 1199.125,26.9844 Q1198.8906,27.25 1198.5156,27.25 Q1198.1719,27.25 1197.9688,27.0469 Q1197.7656,26.8594 1197.6563,26.3438 Q1197.6094,25.9844 1197.4219,25.7969 Q1197.0938,25.4219 1196.4844,25.2031 Q1195.875,24.9844 1195.25,24.9844 Q1194.4844,24.9844 1193.8516,25.3125 Q1193.2188,25.6406 1192.7266,26.3906 Q1192.2344,27.1406 1192.2344,28.1719 L1192.2344,29.2656 Q1192.2344,30.5 1193.125,31.3203 Q1194.0156,32.1406 1195.6094,32.1406 Q1196.5469,32.1406 1197.2031,31.8906 Q1197.5938,31.7344 1198.0156,31.2969 Q1198.2813,31.0313 1198.4297,30.9531 Q1198.5781,30.875 1198.7813,30.875 Q1199.1094,30.875 1199.3672,31.1328 Q1199.625,31.3906 1199.625,31.7344 Q1199.625,32.0781 1199.2813,32.4844 Q1198.7813,33.0625 1197.9844,33.3906 Q1196.9063,33.8438 1195.6094,33.8438 Q1194.0938,33.8438 1192.8906,33.2188 Q1191.9063,32.7188 1191.2188,31.6484 Q1190.5313,30.5781 1190.5313,29.2969 L1190.5313,28.1406 Q1190.5313,26.8125 1191.1484,25.6641 Q1191.7656,24.5156 1192.8594,23.8984 Q1193.9531,23.2813 1195.1875,23.2813 Q1195.9219,23.2813 1196.5703,23.4453 Q1197.2188,23.6094 1197.7656,23.9688 Z "/><text fill="#000000" font-family="sans-serif" font-size="14" font-weight="bold" lengthAdjust="spacingAndGlyphs" textLength="115" x="1237" y="27.5332">RandomStrategy</text><text fill="#000000" font-family="sans-serif" font-size="10" lengthAdjust="spacingAndGlyphs" textLength="171" x="1209" y="40.9902">soen6441riskgame.models.strategies</text></a><!--class soen6441riskgame.models.Country--><a target="_parent" xlink:actuate="onRequest" xlink:href="../../../soen6441riskgame/models/Country.html" xlink:show="new" xlink:title="soen6441riskgame.models.Country" xlink:type="simple"><rect fill="#FFFFFF" filter="url(#f1un8m9e5mnh9l)" height="40.1875" id="soen6441riskgame.models.Country" style="stroke: #A80036; stroke-width: 1.5;" width="156" x="799.5" y="321"/><rect fill="#FFFFFF" height="40.1875" style="stroke: #A80036; stroke-width: 1.5;" width="156" x="799.5" y="321"/><ellipse cx="814.5" cy="341.0938" fill="#ADD1B2" rx="11" ry="11" style="stroke: #A80036; stroke-width: 1.0;"/><path d="M817.2656,336.9688 Q817.4219,336.75 817.6094,336.6406 Q817.7969,336.5313 818.0156,336.5313 Q818.3906,336.5313 818.625,336.7891 Q818.8594,337.0469 818.8594,337.6563 L818.8594,339.1094 Q818.8594,339.7188 818.625,339.9844 Q818.3906,340.25 818.0156,340.25 Q817.6719,340.25 817.4688,340.0469 Q817.2656,339.8594 817.1563,339.3438 Q817.1094,338.9844 816.9219,338.7969 Q816.5938,338.4219 815.9844,338.2031 Q815.375,337.9844 814.75,337.9844 Q813.9844,337.9844 813.3516,338.3125 Q812.7188,338.6406 812.2266,339.3906 Q811.7344,340.1406 811.7344,341.1719 L811.7344,342.2656 Q811.7344,343.5 812.625,344.3203 Q813.5156,345.1406 815.1094,345.1406 Q816.0469,345.1406 816.7031,344.8906 Q817.0938,344.7344 817.5156,344.2969 Q817.7813,344.0313 817.9297,343.9531 Q818.0781,343.875 818.2813,343.875 Q818.6094,343.875 818.8672,344.1328 Q819.125,344.3906 819.125,344.7344 Q819.125,345.0781 818.7813,345.4844 Q818.2813,346.0625 817.4844,346.3906 Q816.4063,346.8438 815.1094,346.8438 Q813.5938,346.8438 812.3906,346.2188 Q811.4063,345.7188 810.7188,344.6484 Q810.0313,343.5781 810.0313,342.2969 L810.0313,341.1406 Q810.0313,339.8125 810.6484,338.6641 Q811.2656,337.5156 812.3594,336.8984 Q813.4531,336.2813 814.6875,336.2813 Q815.4219,336.2813 816.0703,336.4453 Q816.7188,336.6094 817.2656,336.9688 Z "/><text fill="#000000" font-family="sans-serif" font-size="14" font-weight="bold" lengthAdjust="spacingAndGlyphs" textLength="55" x="863" y="340.5332">Country</text><text fill="#000000" font-family="sans-serif" font-size="10" lengthAdjust="spacingAndGlyphs" textLength="124" x="828.5" y="353.9902">soen6441riskgame.models</text></a><!--link soen6441riskgame.controllers.TournamentController to soen6441riskgame.models.strategies.Strategy--><path d="M99.5,48.173 C99.5,95.559 99.5,210 99.5,210 C99.5,210 499.388,210 499.388,210 " fill="none" id="soen6441riskgame.controllers.TournamentController-soen6441riskgame.models.strategies.Strategy" style="stroke: #A80036; stroke-width: 1.0;"/><polygon fill="#A80036" points="504.388,210,495.388,206,499.388,210,495.388,214,504.388,210" style="stroke: #A80036; stroke-width: 1.0;"/><text fill="#000000" font-family="sans-serif" font-size="13" lengthAdjust="spacingAndGlyphs" textLength="57" x="439.8191" y="208.1296">strategies</text><!--link soen6441riskgame.enums.StrategyName to soen6441riskgame.models.strategies.Strategy--><path d="M527.333,320.8607 C527.333,320.8607 527.333,266.2725 527.333,266.2725 " fill="none" id="soen6441riskgame.enums.StrategyName-soen6441riskgame.models.strategies.Strategy" style="stroke: #A80036; stroke-width: 1.0; stroke-dasharray: 7.0,7.0;"/><polygon fill="#A80036" points="527.333,261.2725,523.333,270.2725,527.333,266.2725,531.333,270.2725,527.333,261.2725" style="stroke: #A80036; stroke-width: 1.0;"/><!--link soen6441riskgame.models.strategies.Strategy to soen6441riskgame.enums.StrategyName--><path d="M550.167,261.3746 C550.167,261.3746 550.167,315.7533 550.167,315.7533 " fill="none" id="soen6441riskgame.models.strategies.Strategy-soen6441riskgame.enums.StrategyName" style="stroke: #A80036; stroke-width: 1.0; stroke-dasharray: 7.0,7.0;"/><polygon fill="#A80036" points="550.167,320.7533,554.167,311.7533,550.167,315.7533,546.167,311.7533,550.167,320.7533" style="stroke: #A80036; stroke-width: 1.0;"/><!--link soen6441riskgame.models.Player to soen6441riskgame.models.strategies.Strategy--><path d="M712.5,320.8607 C712.5,320.8607 712.5,266.2725 712.5,266.2725 " fill="none" id="soen6441riskgame.models.Player-soen6441riskgame.models.strategies.Strategy" style="stroke: #A80036; stroke-width: 1.0;"/><polygon fill="#A80036" points="712.5,261.2725,708.5,270.2725,712.5,266.2725,716.5,270.2725,712.5,261.2725" style="stroke: #A80036; stroke-width: 1.0;"/><text fill="#000000" font-family="sans-serif" font-size="13" lengthAdjust="spacingAndGlyphs" textLength="47" x="665.7305" y="282.597">strategy</text><!--link soen6441riskgame.models.strategies.Strategy to soen6441riskgame.models.Player--><path d="M660.5,261.3746 C660.5,261.3746 660.5,315.7533 660.5,315.7533 " fill="none" id="soen6441riskgame.models.strategies.Strategy-soen6441riskgame.models.Player" style="stroke: #A80036; stroke-width: 1.0; stroke-dasharray: 7.0,7.0;"/><polygon fill="#A80036" points="660.5,320.7533,664.5,311.7533,660.5,315.7533,656.5,311.7533,660.5,320.7533" style="stroke: #A80036; stroke-width: 1.0;"/><!--link soen6441riskgame.models.strategies.AggressiveStrategy to soen6441riskgame.models.strategies.Strategy--><path d="M425.5,48.182 C425.5,84.928 425.5,159 425.5,159 C425.5,159 484.163,159 484.163,159 " fill="none" id="soen6441riskgame.models.strategies.AggressiveStrategy-soen6441riskgame.models.strategies.Strategy" style="stroke: #A80036; stroke-width: 1.0; stroke-dasharray: 7.0,7.0;"/><polygon fill="none" points="484.163,152,504.163,159,484.163,166,484.163,152" style="stroke: #A80036; stroke-width: 1.0;"/><!--link soen6441riskgame.models.strategies.BenevolentStrategy to soen6441riskgame.models.strategies.Strategy--><path d="M586.75,48.139 C586.75,48.139 586.75,87.727 586.75,87.727 " fill="none" id="soen6441riskgame.models.strategies.BenevolentStrategy-soen6441riskgame.models.strategies.Strategy" style="stroke: #A80036; stroke-width: 1.0; stroke-dasharray: 7.0,7.0;"/><polygon fill="none" points="593.75,87.728,586.75,107.727,579.75,87.727,593.75,87.728" style="stroke: #A80036; stroke-width: 1.0;"/><!--link soen6441riskgame.models.strategies.CheaterStrategy to soen6441riskgame.models.strategies.Strategy--><path d="M786.25,48.139 C786.25,48.139 786.25,87.727 786.25,87.727 " fill="none" id="soen6441riskgame.models.strategies.CheaterStrategy-soen6441riskgame.models.strategies.Strategy" style="stroke: #A80036; stroke-width: 1.0; stroke-dasharray: 7.0,7.0;"/><polygon fill="none" points="793.25,87.728,786.25,107.727,779.25,87.727,793.25,87.728" style="stroke: #A80036; stroke-width: 1.0;"/><!--link soen6441riskgame.models.strategies.HumanStrategy to soen6441riskgame.models.strategies.Strategy--><path d="M948.75,48.182 C948.75,84.928 948.75,159 948.75,159 C948.75,159 888.641,159 888.641,159 " fill="none" id="soen6441riskgame.models.strategies.HumanStrategy-soen6441riskgame.models.strategies.Strategy" style="stroke: #A80036; stroke-width: 1.0; stroke-dasharray: 7.0,7.0;"/><polygon fill="none" points="888.641,166,868.641,159,888.641,152,888.641,166" style="stroke: #A80036; stroke-width: 1.0;"/><!--link soen6441riskgame.models.strategies.RandomStrategy to soen6441riskgame.models.strategies.Strategy--><path d="M1281.5,48.173 C1281.5,95.559 1281.5,210 1281.5,210 C1281.5,210 888.658,210 888.658,210 " fill="none" id="soen6441riskgame.models.strategies.RandomStrategy-soen6441riskgame.models.strategies.Strategy" style="stroke: #A80036; stroke-width: 1.0; stroke-dasharray: 7.0,7.0;"/><polygon fill="none" points="888.658,217,868.658,210,888.658,203,888.658,217" style="stroke: #A80036; stroke-width: 1.0;"/><!--link soen6441riskgame.models.strategies.Strategy to soen6441riskgame.models.Country--><path d="M834,261.3746 C834,261.3746 834,315.7533 834,315.7533 " fill="none" id="soen6441riskgame.models.strategies.Strategy-soen6441riskgame.models.Country" style="stroke: #A80036; stroke-width: 1.0; stroke-dasharray: 7.0,7.0;"/><polygon fill="#A80036" points="834,320.7533,838,311.7533,834,315.7533,830,311.7533,834,320.7533" style="stroke: #A80036; stroke-width: 1.0;"/><!--
@startuml

skinparam svgLinkTarget _parent
skinparam linetype ortho
set namespaceSeparator none
interface "<b><size:14>Strategy</b>\n<size:10>soen6441riskgame.models.strategies" as soen6441riskgame.models.strategies.Strategy  [[../../../soen6441riskgame/models/strategies/Strategy.html{soen6441riskgame.models.strategies.Strategy}]] {
{abstract} +StrategyName getName()
{abstract} +void reinforce(Player player,Country countryToReinforce)
{abstract} +ArrayList<Country> attack(Player player,Country attackingCountry)
{abstract} +void fortify(Country fromCountry,Country toCountry)
+void fortify(Country fromCountry,Country toCountry,int armiesAmount)
+void fortifyNone()
{abstract} +void playTurn(Player player)
}


class "<b><size:14>TournamentController</b>\n<size:10>soen6441riskgame.controllers" as soen6441riskgame.controllers.TournamentController  [[../../../soen6441riskgame/controllers/TournamentController.html{soen6441riskgame.controllers.TournamentController}]] #white {
}

hide soen6441riskgame.controllers.TournamentController fields
hide soen6441riskgame.controllers.TournamentController methods

soen6441riskgame.controllers.TournamentController - ->  "strategies" soen6441riskgame.models.strategies.Strategy

enum "<b><size:14>StrategyName</b>\n<size:10>soen6441riskgame.enums" as soen6441riskgame.enums.StrategyName  [[../../../soen6441riskgame/enums/StrategyName.html{soen6441riskgame.enums.StrategyName}]] #white {
}

hide soen6441riskgame.enums.StrategyName fields
hide soen6441riskgame.enums.StrategyName methods

soen6441riskgame.enums.StrategyName ..> soen6441riskgame.models.strategies.Strategy

class "<b><size:14>Player</b>\n<size:10>soen6441riskgame.models" as soen6441riskgame.models.Player  [[../../../soen6441riskgame/models/Player.html{soen6441riskgame.models.Player}]] #white {
}

hide soen6441riskgame.models.Player fields
hide soen6441riskgame.models.Player methods

soen6441riskgame.models.Player - ->  "strategy" soen6441riskgame.models.strategies.Strategy

class "<b><size:14>AggressiveStrategy</b>\n<size:10>soen6441riskgame.models.strategies" as soen6441riskgame.models.strategies.AggressiveStrategy  [[../../../soen6441riskgame/models/strategies/AggressiveStrategy.html{soen6441riskgame.models.strategies.AggressiveStrategy}]] {
}

hide soen6441riskgame.models.strategies.AggressiveStrategy fields
hide soen6441riskgame.models.strategies.AggressiveStrategy methods

soen6441riskgame.models.strategies.AggressiveStrategy ..|> soen6441riskgame.models.strategies.Strategy

class "<b><size:14>BenevolentStrategy</b>\n<size:10>soen6441riskgame.models.strategies" as soen6441riskgame.models.strategies.BenevolentStrategy  [[../../../soen6441riskgame/models/strategies/BenevolentStrategy.html{soen6441riskgame.models.strategies.BenevolentStrategy}]] {
}

hide soen6441riskgame.models.strategies.BenevolentStrategy fields
hide soen6441riskgame.models.strategies.BenevolentStrategy methods

soen6441riskgame.models.strategies.BenevolentStrategy ..|> soen6441riskgame.models.strategies.Strategy

class "<b><size:14>CheaterStrategy</b>\n<size:10>soen6441riskgame.models.strategies" as soen6441riskgame.models.strategies.CheaterStrategy  [[../../../soen6441riskgame/models/strategies/CheaterStrategy.html{soen6441riskgame.models.strategies.CheaterStrategy}]] {
}

hide soen6441riskgame.models.strategies.CheaterStrategy fields
hide soen6441riskgame.models.strategies.CheaterStrategy methods

soen6441riskgame.models.strategies.CheaterStrategy ..|> soen6441riskgame.models.strategies.Strategy

class "<b><size:14>HumanStrategy</b>\n<size:10>soen6441riskgame.models.strategies" as soen6441riskgame.models.strategies.HumanStrategy  [[../../../soen6441riskgame/models/strategies/HumanStrategy.html{soen6441riskgame.models.strategies.HumanStrategy}]] {
}

hide soen6441riskgame.models.strategies.HumanStrategy fields
hide soen6441riskgame.models.strategies.HumanStrategy methods

soen6441riskgame.models.strategies.HumanStrategy ..|> soen6441riskgame.models.strategies.Strategy

class "<b><size:14>RandomStrategy</b>\n<size:10>soen6441riskgame.models.strategies" as soen6441riskgame.models.strategies.RandomStrategy  [[../../../soen6441riskgame/models/strategies/RandomStrategy.html{soen6441riskgame.models.strategies.RandomStrategy}]] {
}

hide soen6441riskgame.models.strategies.RandomStrategy fields
hide soen6441riskgame.models.strategies.RandomStrategy methods

soen6441riskgame.models.strategies.RandomStrategy ..|> soen6441riskgame.models.strategies.Strategy

soen6441riskgame.models.strategies.Strategy ..> soen6441riskgame.enums.StrategyName

soen6441riskgame.models.strategies.Strategy ..> soen6441riskgame.models.Player

class "<b><size:14>Country</b>\n<size:10>soen6441riskgame.models" as soen6441riskgame.models.Country  [[../../../soen6441riskgame/models/Country.html{soen6441riskgame.models.Country}]] #white {
}

hide soen6441riskgame.models.Country fields
hide soen6441riskgame.models.Country methods

soen6441riskgame.models.strategies.Strategy ..> soen6441riskgame.models.Country



@enduml

PlantUML version 1.2017.15(Mon Jul 03 12:45:34 EDT 2017)
(GPL source distribution)
Java Runtime: Java(TM) SE Runtime Environment
JVM: Java HotSpot(TM) 64-Bit Server VM
Java Version: 1.8.0_231-b11
Operating System: Windows 10
OS Version: 10.0
Default Encoding: Cp1252
Language: en
Country: US
--></g></svg>