<?xml version="1.0" encoding="UTF-8" standalone="no"?><svg xmlns="http://www.w3.org/2000/svg" xmlns:xlink="http://www.w3.org/1999/xlink" contentScriptType="application/ecmascript" contentStyleType="text/css" height="258px" preserveAspectRatio="none" style="width:412px;height:258px;" version="1.1" viewBox="0 0 412 258" width="412px" zoomAndPan="magnify"><defs><filter height="300%" id="f15przj3n3af65" width="300%" x="-1" y="-1"><feGaussianBlur result="blurOut" stdDeviation="2.0"/><feColorMatrix in="blurOut" result="blurOut2" type="matrix" values="0 0 0 0 0 0 0 0 0 0 0 0 0 0 0 0 0 0 .4 0"/><feOffset dx="4.0" dy="4.0" in="blurOut2" result="blurOut3"/><feBlend in="SourceGraphic" in2="blurOut3" mode="normal"/></filter></defs><g><!--class soen6441riskgame.models.Boundary--><a target="_parent" xlink:actuate="onRequest" xlink:href="../../soen6441riskgame/models/Boundary.html" xlink:show="new" xlink:title="soen6441riskgame.models.Boundary" xlink:type="simple"><rect fill="#FEFECE" filter="url(#f15przj3n3af65)" height="139.2031" id="soen6441riskgame.models.Boundary" style="stroke: #A80036; stroke-width: 1.5;" width="276" x="41.1" y="108"/><ellipse cx="112.85" cy="128.0938" fill="#ADD1B2" rx="11" ry="11" style="stroke: #A80036; stroke-width: 1.0;"/><path d="M115.6156,123.9688 Q115.7719,123.75 115.9594,123.6406 Q116.1469,123.5313 116.3656,123.5313 Q116.7406,123.5313 116.975,123.7891 Q117.2094,124.0469 117.2094,124.6563 L117.2094,126.1094 Q117.2094,126.7188 116.975,126.9844 Q116.7406,127.25 116.3656,127.25 Q116.0219,127.25 115.8188,127.0469 Q115.6156,126.8594 115.5063,126.3438 Q115.4594,125.9844 115.2719,125.7969 Q114.9438,125.4219 114.3344,125.2031 Q113.725,124.9844 113.1,124.9844 Q112.3344,124.9844 111.7016,125.3125 Q111.0688,125.6406 110.5766,126.3906 Q110.0844,127.1406 110.0844,128.1719 L110.0844,129.2656 Q110.0844,130.5 110.975,131.3203 Q111.8656,132.1406 113.4594,132.1406 Q114.3969,132.1406 115.0531,131.8906 Q115.4438,131.7344 115.8656,131.2969 Q116.1313,131.0313 116.2797,130.9531 Q116.4281,130.875 116.6313,130.875 Q116.9594,130.875 117.2172,131.1328 Q117.475,131.3906 117.475,131.7344 Q117.475,132.0781 117.1313,132.4844 Q116.6313,133.0625 115.8344,133.3906 Q114.7563,133.8438 113.4594,133.8438 Q111.9438,133.8438 110.7406,133.2188 Q109.7563,132.7188 109.0688,131.6484 Q108.3813,130.5781 108.3813,129.2969 L108.3813,128.1406 Q108.3813,126.8125 108.9984,125.6641 Q109.6156,124.5156 110.7094,123.8984 Q111.8031,123.2813 113.0375,123.2813 Q113.7719,123.2813 114.4203,123.4453 Q115.0688,123.6094 115.6156,123.9688 Z "/><text fill="#000000" font-family="sans-serif" font-size="14" font-weight="bold" lengthAdjust="spacingAndGlyphs" textLength="67" x="161.85" y="127.5332">Boundary</text><text fill="#000000" font-family="sans-serif" font-size="10" lengthAdjust="spacingAndGlyphs" textLength="124" x="133.35" y="140.9902">soen6441riskgame.models</text><line style="stroke: #A80036; stroke-width: 1.5;" x1="42.1" x2="316.1" y1="148.1875" y2="148.1875"/><rect fill="none" height="6" style="stroke: #C82930; stroke-width: 1.0;" width="6" x="49.1" y="157.6055"/><text fill="#000000" font-family="sans-serif" font-size="11" lengthAdjust="spacingAndGlyphs" textLength="42" x="61.1" y="163.6064">int lower</text><rect fill="none" height="6" style="stroke: #C82930; stroke-width: 1.0;" width="6" x="49.1" y="171.4414"/><text fill="#000000" font-family="sans-serif" font-size="11" lengthAdjust="spacingAndGlyphs" textLength="42" x="61.1" y="177.4424">int upper</text><line style="stroke: #A80036; stroke-width: 1.5;" x1="42.1" x2="316.1" y1="183.8594" y2="183.8594"/><ellipse cx="52.1" cy="196.2773" fill="#84BE84" rx="3" ry="3" style="stroke: #038048; stroke-width: 1.0;"/><text fill="#000000" font-family="sans-serif" font-size="11" lengthAdjust="spacingAndGlyphs" textLength="142" x="61.1" y="199.2783">Boundary(int lower,int upper)</text><ellipse cx="52.1" cy="210.1133" fill="#84BE84" rx="3" ry="3" style="stroke: #038048; stroke-width: 1.0;"/><text fill="#000000" font-family="sans-serif" font-size="11" lengthAdjust="spacingAndGlyphs" textLength="250" x="61.1" y="213.1143">boolean isInBoundary(int value,boolean isExclusive)</text><rect fill="#F24D5C" height="6" style="stroke: #C82930; stroke-width: 1.0;" width="6" x="49.1" y="220.9492"/><text fill="#000000" font-family="sans-serif" font-size="11" lengthAdjust="spacingAndGlyphs" textLength="198" x="61.1" y="226.9502">boolean isInBoundaryExclusive(int value)</text><rect fill="#F24D5C" height="6" style="stroke: #C82930; stroke-width: 1.0;" width="6" x="49.1" y="234.7852"/><text fill="#000000" font-family="sans-serif" font-size="11" lengthAdjust="spacingAndGlyphs" textLength="152" x="61.1" y="240.7861">boolean isInBoundary(int value)</text></a><!--class soen6441riskgame.controllers.TournamentController--><a target="_parent" xlink:actuate="onRequest" xlink:href="../../soen6441riskgame/controllers/TournamentController.html" xlink:show="new" xlink:title="soen6441riskgame.controllers.TournamentController" xlink:type="simple"><rect fill="#FFFFFF" filter="url(#f15przj3n3af65)" height="40.1875" id="soen6441riskgame.controllers.TournamentController" style="stroke: #A80036; stroke-width: 1.5;" width="187" x="85.6" y="8"/><rect fill="#FFFFFF" height="40.1875" style="stroke: #A80036; stroke-width: 1.5;" width="187" x="85.6" y="8"/><ellipse cx="100.6" cy="28.0938" fill="#ADD1B2" rx="11" ry="11" style="stroke: #A80036; stroke-width: 1.0;"/><path d="M103.3656,23.9688 Q103.5219,23.75 103.7094,23.6406 Q103.8969,23.5313 104.1156,23.5313 Q104.4906,23.5313 104.725,23.7891 Q104.9594,24.0469 104.9594,24.6563 L104.9594,26.1094 Q104.9594,26.7188 104.725,26.9844 Q104.4906,27.25 104.1156,27.25 Q103.7719,27.25 103.5688,27.0469 Q103.3656,26.8594 103.2563,26.3438 Q103.2094,25.9844 103.0219,25.7969 Q102.6938,25.4219 102.0844,25.2031 Q101.475,24.9844 100.85,24.9844 Q100.0844,24.9844 99.4516,25.3125 Q98.8188,25.6406 98.3266,26.3906 Q97.8344,27.1406 97.8344,28.1719 L97.8344,29.2656 Q97.8344,30.5 98.725,31.3203 Q99.6156,32.1406 101.2094,32.1406 Q102.1469,32.1406 102.8031,31.8906 Q103.1938,31.7344 103.6156,31.2969 Q103.8813,31.0313 104.0297,30.9531 Q104.1781,30.875 104.3813,30.875 Q104.7094,30.875 104.9672,31.1328 Q105.225,31.3906 105.225,31.7344 Q105.225,32.0781 104.8813,32.4844 Q104.3813,33.0625 103.5844,33.3906 Q102.5063,33.8438 101.2094,33.8438 Q99.6938,33.8438 98.4906,33.2188 Q97.5063,32.7188 96.8188,31.6484 Q96.1313,30.5781 96.1313,29.2969 L96.1313,28.1406 Q96.1313,26.8125 96.7484,25.6641 Q97.3656,24.5156 98.4594,23.8984 Q99.5531,23.2813 100.7875,23.2813 Q101.5219,23.2813 102.1703,23.4453 Q102.8188,23.6094 103.3656,23.9688 Z "/><text fill="#000000" font-family="sans-serif" font-size="14" font-weight="bold" lengthAdjust="spacingAndGlyphs" textLength="155" x="114.6" y="27.5332">TournamentController</text><text fill="#000000" font-family="sans-serif" font-size="10" lengthAdjust="spacingAndGlyphs" textLength="139" x="122.6" y="40.9902">soen6441riskgame.controllers</text></a><!--link soen6441riskgame.controllers.TournamentController to soen6441riskgame.models.Boundary--><path d="M235.2,48.162 C235.2,48.162 235.2,102.691 235.2,102.691 " fill="none" id="soen6441riskgame.controllers.TournamentController-soen6441riskgame.models.Boundary" style="stroke: #A80036; stroke-width: 1.0;"/><polygon fill="#A80036" points="235.2,107.691,239.2,98.691,235.2,102.691,231.2,98.691,235.2,107.691" style="stroke: #A80036; stroke-width: 1.0;"/><text fill="#000000" font-family="sans-serif" font-size="13" lengthAdjust="spacingAndGlyphs" textLength="80" x="156.8603" y="97.1697">mapBoundary</text><!--link soen6441riskgame.controllers.TournamentController to soen6441riskgame.models.Boundary--><path d="M123,48.162 C123,48.162 123,102.691 123,102.691 " fill="none" id="soen6441riskgame.controllers.TournamentController-soen6441riskgame.models.Boundary" style="stroke: #A80036; stroke-width: 1.0;"/><polygon fill="#A80036" points="123,107.691,127,98.691,123,102.691,119,98.691,123,107.691" style="stroke: #A80036; stroke-width: 1.0;"/><text fill="#000000" font-family="sans-serif" font-size="13" lengthAdjust="spacingAndGlyphs" textLength="102" x="9.9553" y="97.1697">strategyBoundary</text><!--link soen6441riskgame.controllers.TournamentController to soen6441riskgame.models.Boundary--><path d="M160.4,48.162 C160.4,48.162 160.4,102.691 160.4,102.691 " fill="none" id="soen6441riskgame.controllers.TournamentController-soen6441riskgame.models.Boundary" style="stroke: #A80036; stroke-width: 1.0;"/><polygon fill="#A80036" points="160.4,107.691,164.4,98.691,160.4,102.691,156.4,98.691,160.4,107.691" style="stroke: #A80036; stroke-width: 1.0;"/><text fill="#000000" font-family="sans-serif" font-size="13" lengthAdjust="spacingAndGlyphs" textLength="146" x="165.9997" y="97.1697">numberOfGameBoundary</text><!--link soen6441riskgame.controllers.TournamentController to soen6441riskgame.models.Boundary--><path d="M197.8,48.162 C197.8,48.162 197.8,102.691 197.8,102.691 " fill="none" id="soen6441riskgame.controllers.TournamentController-soen6441riskgame.models.Boundary" style="stroke: #A80036; stroke-width: 1.0;"/><polygon fill="#A80036" points="197.8,107.691,201.8,98.691,197.8,102.691,193.8,98.691,197.8,107.691" style="stroke: #A80036; stroke-width: 1.0;"/><text fill="#000000" font-family="sans-serif" font-size="13" lengthAdjust="spacingAndGlyphs" textLength="163" x="237.2538" y="96.878">maxNumberOfTurnBoundary</text><!--
@startuml

skinparam svgLinkTarget _parent
skinparam linetype ortho
set namespaceSeparator none
class "<b><size:14>Boundary</b>\n<size:10>soen6441riskgame.models" as soen6441riskgame.models.Boundary  [[../../soen6441riskgame/models/Boundary.html{soen6441riskgame.models.Boundary}]] {
-int lower
-int upper
+Boundary(int lower,int upper)
+boolean isInBoundary(int value,boolean isExclusive)
-boolean isInBoundaryExclusive(int value)
-boolean isInBoundary(int value)
}


class "<b><size:14>TournamentController</b>\n<size:10>soen6441riskgame.controllers" as soen6441riskgame.controllers.TournamentController  [[../../soen6441riskgame/controllers/TournamentController.html{soen6441riskgame.controllers.TournamentController}]] #white {
}

hide soen6441riskgame.controllers.TournamentController fields
hide soen6441riskgame.controllers.TournamentController methods

soen6441riskgame.controllers.TournamentController - ->  "mapBoundary" soen6441riskgame.models.Boundary

soen6441riskgame.controllers.TournamentController - ->  "strategyBoundary" soen6441riskgame.models.Boundary

soen6441riskgame.controllers.TournamentController - ->  "numberOfGameBoundary" soen6441riskgame.models.Boundary

soen6441riskgame.controllers.TournamentController - ->  "maxNumberOfTurnBoundary" soen6441riskgame.models.Boundary


@enduml

PlantUML version 1.2017.15(Mon Jul 03 12:45:34 EDT 2017)
(GPL source distribution)
Java Runtime: Java(TM) SE Runtime Environment
JVM: Java HotSpot(TM) 64-Bit Server VM
Java Version: 1.8.0_231-b11
Operating System: Windows 10
OS Version: 10.0
Default Encoding: Cp1252
Language: en
Country: US
--></g></svg>