<?xml version="1.0" encoding="UTF-8" standalone="no"?><svg xmlns="http://www.w3.org/2000/svg" xmlns:xlink="http://www.w3.org/1999/xlink" contentScriptType="application/ecmascript" contentStyleType="text/css" height="441px" preserveAspectRatio="none" style="width:250px;height:441px;" version="1.1" viewBox="0 0 250 441" width="250px" zoomAndPan="magnify"><defs><filter height="300%" id="f13k37ts3hxmdp" width="300%" x="-1" y="-1"><feGaussianBlur result="blurOut" stdDeviation="2.0"/><feColorMatrix in="blurOut" result="blurOut2" type="matrix" values="0 0 0 0 0 0 0 0 0 0 0 0 0 0 0 0 0 0 .4 0"/><feOffset dx="4.0" dy="4.0" in="blurOut2" result="blurOut3"/><feBlend in="SourceGraphic" in2="blurOut3" mode="normal"/></filter></defs><g><!--class soen6441riskgame.models.CardSet--><a target="_parent" xlink:actuate="onRequest" xlink:href="../../soen6441riskgame/models/CardSet.html" xlink:show="new" xlink:title="soen6441riskgame.models.CardSet" xlink:type="simple"><rect fill="#FEFECE" filter="url(#f13k37ts3hxmdp)" height="222.2188" id="soen6441riskgame.models.CardSet" style="stroke: #A80036; stroke-width: 1.5;" width="233" x="6" y="108"/><ellipse cx="56.25" cy="128.0938" fill="#ADD1B2" rx="11" ry="11" style="stroke: #A80036; stroke-width: 1.0;"/><path d="M59.0156,123.9688 Q59.1719,123.75 59.3594,123.6406 Q59.5469,123.5313 59.7656,123.5313 Q60.1406,123.5313 60.375,123.7891 Q60.6094,124.0469 60.6094,124.6563 L60.6094,126.1094 Q60.6094,126.7188 60.375,126.9844 Q60.1406,127.25 59.7656,127.25 Q59.4219,127.25 59.2188,127.0469 Q59.0156,126.8594 58.9063,126.3438 Q58.8594,125.9844 58.6719,125.7969 Q58.3438,125.4219 57.7344,125.2031 Q57.125,124.9844 56.5,124.9844 Q55.7344,124.9844 55.1016,125.3125 Q54.4688,125.6406 53.9766,126.3906 Q53.4844,127.1406 53.4844,128.1719 L53.4844,129.2656 Q53.4844,130.5 54.375,131.3203 Q55.2656,132.1406 56.8594,132.1406 Q57.7969,132.1406 58.4531,131.8906 Q58.8438,131.7344 59.2656,131.2969 Q59.5313,131.0313 59.6797,130.9531 Q59.8281,130.875 60.0313,130.875 Q60.3594,130.875 60.6172,131.1328 Q60.875,131.3906 60.875,131.7344 Q60.875,132.0781 60.5313,132.4844 Q60.0313,133.0625 59.2344,133.3906 Q58.1563,133.8438 56.8594,133.8438 Q55.3438,133.8438 54.1406,133.2188 Q53.1563,132.7188 52.4688,131.6484 Q51.7813,130.5781 51.7813,129.2969 L51.7813,128.1406 Q51.7813,126.8125 52.3984,125.6641 Q53.0156,124.5156 54.1094,123.8984 Q55.2031,123.2813 56.4375,123.2813 Q57.1719,123.2813 57.8203,123.4453 Q58.4688,123.6094 59.0156,123.9688 Z "/><text fill="#000000" font-family="sans-serif" font-size="14" font-weight="bold" lengthAdjust="spacingAndGlyphs" textLength="56" x="110.75" y="127.5332">CardSet</text><text fill="#000000" font-family="sans-serif" font-size="10" lengthAdjust="spacingAndGlyphs" textLength="124" x="76.75" y="140.9902">soen6441riskgame.models</text><line style="stroke: #A80036; stroke-width: 1.5;" x1="7" x2="238" y1="148.1875" y2="148.1875"/><rect fill="none" height="6" style="stroke: #C82930; stroke-width: 1.0;" width="6" x="14" y="157.6055"/><text fill="#000000" font-family="sans-serif" font-size="11" lengthAdjust="spacingAndGlyphs" textLength="111" x="26" y="163.6064">ArrayList&lt;Card&gt; cards</text><rect fill="none" height="6" style="stroke: #C82930; stroke-width: 1.0;" width="6" x="14" y="171.4414"/><text fill="#000000" font-family="sans-serif" font-size="11" lengthAdjust="spacingAndGlyphs" text-decoration="underline" textLength="151" x="26" y="177.4424">int NUMBER_OF_CARD_IN_SET</text><line style="stroke: #000000; stroke-width: 1.0;" x1="26" x2="177" y1="179.4424" y2="179.4424"/><line style="stroke: #A80036; stroke-width: 1.5;" x1="7" x2="238" y1="183.8594" y2="183.8594"/><ellipse cx="17" cy="196.2773" fill="#84BE84" rx="3" ry="3" style="stroke: #038048; stroke-width: 1.0;"/><text fill="#000000" font-family="sans-serif" font-size="11" lengthAdjust="spacingAndGlyphs" textLength="207" x="26" y="199.2783">CardSet(Card first,Card second,Card third)</text><ellipse cx="17" cy="210.1133" fill="#84BE84" rx="3" ry="3" style="stroke: #038048; stroke-width: 1.0;"/><text fill="#000000" font-family="sans-serif" font-size="11" lengthAdjust="spacingAndGlyphs" textLength="97" x="26" y="213.1143">boolean isSetValid()</text><ellipse cx="17" cy="223.9492" fill="#84BE84" rx="3" ry="3" style="stroke: #038048; stroke-width: 1.0;"/><text fill="#000000" font-family="sans-serif" font-size="11" lengthAdjust="spacingAndGlyphs" textLength="168" x="26" y="226.9502">int getTradeInArmies(int tradeTime)</text><ellipse cx="17" cy="237.7852" fill="#84BE84" rx="3" ry="3" style="stroke: #038048; stroke-width: 1.0;"/><text fill="#000000" font-family="sans-serif" font-size="11" lengthAdjust="spacingAndGlyphs" textLength="129" x="26" y="240.7861">void setCardsExchanged()</text><ellipse cx="17" cy="251.6211" fill="#84BE84" rx="3" ry="3" style="stroke: #038048; stroke-width: 1.0;"/><text fill="#000000" font-family="sans-serif" font-size="11" lengthAdjust="spacingAndGlyphs" textLength="193" x="26" y="254.6221">String getCardsPositionForTournament()</text><rect fill="#F24D5C" height="6" style="stroke: #C82930; stroke-width: 1.0;" width="6" x="14" y="262.457"/><text fill="#000000" font-family="sans-serif" font-size="11" lengthAdjust="spacingAndGlyphs" textLength="69" x="26" y="268.458">int allInfantry()</text><rect fill="#F24D5C" height="6" style="stroke: #C82930; stroke-width: 1.0;" width="6" x="14" y="276.293"/><text fill="#000000" font-family="sans-serif" font-size="11" lengthAdjust="spacingAndGlyphs" textLength="69" x="26" y="282.2939">int allCavalry()</text><rect fill="#F24D5C" height="6" style="stroke: #C82930; stroke-width: 1.0;" width="6" x="14" y="290.1289"/><text fill="#000000" font-family="sans-serif" font-size="11" lengthAdjust="spacingAndGlyphs" textLength="69" x="26" y="296.1299">int allArtillery()</text><rect fill="#F24D5C" height="6" style="stroke: #C82930; stroke-width: 1.0;" width="6" x="14" y="303.9648"/><text fill="#000000" font-family="sans-serif" font-size="11" lengthAdjust="spacingAndGlyphs" textLength="52" x="26" y="309.9658">int allWild()</text><rect fill="#F24D5C" height="6" style="stroke: #C82930; stroke-width: 1.0;" width="6" x="14" y="317.8008"/><text fill="#000000" font-family="sans-serif" font-size="11" lengthAdjust="spacingAndGlyphs" textLength="76" x="26" y="323.8018">int oneOfEach()</text></a><!--class soen6441riskgame.models.Card--><a target="_parent" xlink:actuate="onRequest" xlink:href="../../soen6441riskgame/models/Card.html" xlink:show="new" xlink:title="soen6441riskgame.models.Card" xlink:type="simple"><rect fill="#FEFECE" filter="url(#f13k37ts3hxmdp)" height="40.1875" id="soen6441riskgame.models.Card" style="stroke: #A80036; stroke-width: 1.5;" width="156" x="44.5" y="390"/><ellipse cx="59.5" cy="410.0938" fill="#ADD1B2" rx="11" ry="11" style="stroke: #A80036; stroke-width: 1.0;"/><path d="M62.2656,405.9688 Q62.4219,405.75 62.6094,405.6406 Q62.7969,405.5313 63.0156,405.5313 Q63.3906,405.5313 63.625,405.7891 Q63.8594,406.0469 63.8594,406.6563 L63.8594,408.1094 Q63.8594,408.7188 63.625,408.9844 Q63.3906,409.25 63.0156,409.25 Q62.6719,409.25 62.4688,409.0469 Q62.2656,408.8594 62.1563,408.3438 Q62.1094,407.9844 61.9219,407.7969 Q61.5938,407.4219 60.9844,407.2031 Q60.375,406.9844 59.75,406.9844 Q58.9844,406.9844 58.3516,407.3125 Q57.7188,407.6406 57.2266,408.3906 Q56.7344,409.1406 56.7344,410.1719 L56.7344,411.2656 Q56.7344,412.5 57.625,413.3203 Q58.5156,414.1406 60.1094,414.1406 Q61.0469,414.1406 61.7031,413.8906 Q62.0938,413.7344 62.5156,413.2969 Q62.7813,413.0313 62.9297,412.9531 Q63.0781,412.875 63.2813,412.875 Q63.6094,412.875 63.8672,413.1328 Q64.125,413.3906 64.125,413.7344 Q64.125,414.0781 63.7813,414.4844 Q63.2813,415.0625 62.4844,415.3906 Q61.4063,415.8438 60.1094,415.8438 Q58.5938,415.8438 57.3906,415.2188 Q56.4063,414.7188 55.7188,413.6484 Q55.0313,412.5781 55.0313,411.2969 L55.0313,410.1406 Q55.0313,408.8125 55.6484,407.6641 Q56.2656,406.5156 57.3594,405.8984 Q58.4531,405.2813 59.6875,405.2813 Q60.4219,405.2813 61.0703,405.4453 Q61.7188,405.6094 62.2656,405.9688 Z "/><text fill="#000000" font-family="sans-serif" font-size="14" font-weight="bold" lengthAdjust="spacingAndGlyphs" textLength="33" x="119" y="409.5332">Card</text><text fill="#000000" font-family="sans-serif" font-size="10" lengthAdjust="spacingAndGlyphs" textLength="124" x="73.5" y="422.9902">soen6441riskgame.models</text></a><!--class soen6441riskgame.models.Player--><a target="_parent" xlink:actuate="onRequest" xlink:href="../../soen6441riskgame/models/Player.html" xlink:show="new" xlink:title="soen6441riskgame.models.Player" xlink:type="simple"><rect fill="#FEFECE" filter="url(#f13k37ts3hxmdp)" height="40.1875" id="soen6441riskgame.models.Player" style="stroke: #A80036; stroke-width: 1.5;" width="156" x="44.5" y="8"/><ellipse cx="59.5" cy="28.0938" fill="#ADD1B2" rx="11" ry="11" style="stroke: #A80036; stroke-width: 1.0;"/><path d="M62.2656,23.9688 Q62.4219,23.75 62.6094,23.6406 Q62.7969,23.5313 63.0156,23.5313 Q63.3906,23.5313 63.625,23.7891 Q63.8594,24.0469 63.8594,24.6563 L63.8594,26.1094 Q63.8594,26.7188 63.625,26.9844 Q63.3906,27.25 63.0156,27.25 Q62.6719,27.25 62.4688,27.0469 Q62.2656,26.8594 62.1563,26.3438 Q62.1094,25.9844 61.9219,25.7969 Q61.5938,25.4219 60.9844,25.2031 Q60.375,24.9844 59.75,24.9844 Q58.9844,24.9844 58.3516,25.3125 Q57.7188,25.6406 57.2266,26.3906 Q56.7344,27.1406 56.7344,28.1719 L56.7344,29.2656 Q56.7344,30.5 57.625,31.3203 Q58.5156,32.1406 60.1094,32.1406 Q61.0469,32.1406 61.7031,31.8906 Q62.0938,31.7344 62.5156,31.2969 Q62.7813,31.0313 62.9297,30.9531 Q63.0781,30.875 63.2813,30.875 Q63.6094,30.875 63.8672,31.1328 Q64.125,31.3906 64.125,31.7344 Q64.125,32.0781 63.7813,32.4844 Q63.2813,33.0625 62.4844,33.3906 Q61.4063,33.8438 60.1094,33.8438 Q58.5938,33.8438 57.3906,33.2188 Q56.4063,32.7188 55.7188,31.6484 Q55.0313,30.5781 55.0313,29.2969 L55.0313,28.1406 Q55.0313,26.8125 55.6484,25.6641 Q56.2656,24.5156 57.3594,23.8984 Q58.4531,23.2813 59.6875,23.2813 Q60.4219,23.2813 61.0703,23.4453 Q61.7188,23.6094 62.2656,23.9688 Z "/><text fill="#000000" font-family="sans-serif" font-size="14" font-weight="bold" lengthAdjust="spacingAndGlyphs" textLength="43" x="114" y="27.5332">Player</text><text fill="#000000" font-family="sans-serif" font-size="10" lengthAdjust="spacingAndGlyphs" textLength="124" x="73.5" y="40.9902">soen6441riskgame.models</text></a><!--link soen6441riskgame.models.CardSet to soen6441riskgame.models.Card--><path d="M122.5,330.1055 C122.5,330.1055 122.5,384.8081 122.5,384.8081 " fill="none" id="soen6441riskgame.models.CardSet-soen6441riskgame.models.Card" style="stroke: #A80036; stroke-width: 1.0; stroke-dasharray: 7.0,7.0;"/><polygon fill="#A80036" points="122.5,389.8081,126.5,380.8081,122.5,384.8081,118.5,380.8081,122.5,389.8081" style="stroke: #A80036; stroke-width: 1.0;"/><!--link soen6441riskgame.models.Player to soen6441riskgame.models.CardSet--><path d="M122.5,48.079 C122.5,48.079 122.5,102.683 122.5,102.683 " fill="none" id="soen6441riskgame.models.Player-soen6441riskgame.models.CardSet" style="stroke: #A80036; stroke-width: 1.0; stroke-dasharray: 7.0,7.0;"/><polygon fill="#A80036" points="122.5,107.683,126.5,98.683,122.5,102.683,118.5,98.683,122.5,107.683" style="stroke: #A80036; stroke-width: 1.0;"/><!--
@startuml

skinparam svgLinkTarget _parent
skinparam linetype ortho
set namespaceSeparator none
class "<b><size:14>CardSet</b>\n<size:10>soen6441riskgame.models" as soen6441riskgame.models.CardSet  [[../../soen6441riskgame/models/CardSet.html{soen6441riskgame.models.CardSet}]] {
-ArrayList<Card> cards
{static} -int NUMBER_OF_CARD_IN_SET
+CardSet(Card first,Card second,Card third)
+boolean isSetValid()
+int getTradeInArmies(int tradeTime)
+void setCardsExchanged()
+String getCardsPositionForTournament()
-int allInfantry()
-int allCavalry()
-int allArtillery()
-int allWild()
-int oneOfEach()
}




class "<b><size:14>Card</b>\n<size:10>soen6441riskgame.models" as soen6441riskgame.models.Card  [[../../soen6441riskgame/models/Card.html{soen6441riskgame.models.Card}]] {
}

hide soen6441riskgame.models.Card fields
hide soen6441riskgame.models.Card methods

soen6441riskgame.models.CardSet ..> soen6441riskgame.models.Card

class "<b><size:14>Player</b>\n<size:10>soen6441riskgame.models" as soen6441riskgame.models.Player  [[../../soen6441riskgame/models/Player.html{soen6441riskgame.models.Player}]] {
}

hide soen6441riskgame.models.Player fields
hide soen6441riskgame.models.Player methods

soen6441riskgame.models.Player ..> soen6441riskgame.models.CardSet


@enduml

PlantUML version 1.2017.15(Mon Jul 03 12:45:34 EDT 2017)
(GPL source distribution)
Java Runtime: Java(TM) SE Runtime Environment
JVM: Java HotSpot(TM) 64-Bit Server VM
Java Version: 1.8.0_231-b11
Operating System: Windows 10
OS Version: 10.0
Default Encoding: Cp1252
Language: en
Country: US
--></g></svg>