<?xml version="1.0" encoding="UTF-8" standalone="no"?><svg xmlns="http://www.w3.org/2000/svg" xmlns:xlink="http://www.w3.org/1999/xlink" contentScriptType="application/ecmascript" contentStyleType="text/css" height="441px" preserveAspectRatio="none" style="width:857px;height:441px;" version="1.1" viewBox="0 0 857 441" width="857px" zoomAndPan="magnify"><defs><filter height="300%" id="fzq602mkoavja" width="300%" x="-1" y="-1"><feGaussianBlur result="blurOut" stdDeviation="2.0"/><feColorMatrix in="blurOut" result="blurOut2" type="matrix" values="0 0 0 0 0 0 0 0 0 0 0 0 0 0 0 0 0 0 .4 0"/><feOffset dx="4.0" dy="4.0" in="blurOut2" result="blurOut3"/><feBlend in="SourceGraphic" in2="blurOut3" mode="normal"/></filter></defs><g><!--class soen6441riskgame.models.Card--><a target="_parent" xlink:actuate="onRequest" xlink:href="../../soen6441riskgame/models/Card.html" xlink:show="new" xlink:title="soen6441riskgame.models.Card" xlink:type="simple"><rect fill="#FEFECE" filter="url(#fzq602mkoavja)" height="222.2188" id="soen6441riskgame.models.Card" style="stroke: #A80036; stroke-width: 1.5;" width="240" x="301" y="108"/><ellipse cx="354.75" cy="128.0938" fill="#ADD1B2" rx="11" ry="11" style="stroke: #A80036; stroke-width: 1.0;"/><path d="M357.5156,123.9688 Q357.6719,123.75 357.8594,123.6406 Q358.0469,123.5313 358.2656,123.5313 Q358.6406,123.5313 358.875,123.7891 Q359.1094,124.0469 359.1094,124.6563 L359.1094,126.1094 Q359.1094,126.7188 358.875,126.9844 Q358.6406,127.25 358.2656,127.25 Q357.9219,127.25 357.7188,127.0469 Q357.5156,126.8594 357.4063,126.3438 Q357.3594,125.9844 357.1719,125.7969 Q356.8438,125.4219 356.2344,125.2031 Q355.625,124.9844 355,124.9844 Q354.2344,124.9844 353.6016,125.3125 Q352.9688,125.6406 352.4766,126.3906 Q351.9844,127.1406 351.9844,128.1719 L351.9844,129.2656 Q351.9844,130.5 352.875,131.3203 Q353.7656,132.1406 355.3594,132.1406 Q356.2969,132.1406 356.9531,131.8906 Q357.3438,131.7344 357.7656,131.2969 Q358.0313,131.0313 358.1797,130.9531 Q358.3281,130.875 358.5313,130.875 Q358.8594,130.875 359.1172,131.1328 Q359.375,131.3906 359.375,131.7344 Q359.375,132.0781 359.0313,132.4844 Q358.5313,133.0625 357.7344,133.3906 Q356.6563,133.8438 355.3594,133.8438 Q353.8438,133.8438 352.6406,133.2188 Q351.6563,132.7188 350.9688,131.6484 Q350.2813,130.5781 350.2813,129.2969 L350.2813,128.1406 Q350.2813,126.8125 350.8984,125.6641 Q351.5156,124.5156 352.6094,123.8984 Q353.7031,123.2813 354.9375,123.2813 Q355.6719,123.2813 356.3203,123.4453 Q356.9688,123.6094 357.5156,123.9688 Z "/><text fill="#000000" font-family="sans-serif" font-size="14" font-weight="bold" lengthAdjust="spacingAndGlyphs" textLength="33" x="420.75" y="127.5332">Card</text><text fill="#000000" font-family="sans-serif" font-size="10" lengthAdjust="spacingAndGlyphs" textLength="124" x="375.25" y="140.9902">soen6441riskgame.models</text><line style="stroke: #A80036; stroke-width: 1.5;" x1="302" x2="540" y1="148.1875" y2="148.1875"/><rect fill="none" height="6" style="stroke: #C82930; stroke-width: 1.0;" width="6" x="309" y="157.6055"/><text fill="#000000" font-family="sans-serif" font-size="11" lengthAdjust="spacingAndGlyphs" textLength="96" x="321" y="163.6064">CardType cardType</text><rect fill="none" height="6" style="stroke: #C82930; stroke-width: 1.0;" width="6" x="309" y="171.4414"/><text fill="#000000" font-family="sans-serif" font-size="11" lengthAdjust="spacingAndGlyphs" textLength="103" x="321" y="177.4424">boolean isExchanged</text><rect fill="none" height="6" style="stroke: #C82930; stroke-width: 1.0;" width="6" x="309" y="185.2773"/><text fill="#000000" font-family="sans-serif" font-size="11" lengthAdjust="spacingAndGlyphs" textLength="97" x="321" y="191.2783">Player holdingPlayer</text><rect fill="none" height="6" style="stroke: #C82930; stroke-width: 1.0;" width="6" x="309" y="199.1133"/><text fill="#000000" font-family="sans-serif" font-size="11" lengthAdjust="spacingAndGlyphs" textLength="122" x="321" y="205.1143">String holdingPlayerName</text><line style="stroke: #A80036; stroke-width: 1.5;" x1="302" x2="540" y1="211.5313" y2="211.5313"/><ellipse cx="312" cy="223.9492" fill="#84BE84" rx="3" ry="3" style="stroke: #038048; stroke-width: 1.0;"/><text fill="#000000" font-family="sans-serif" font-size="11" lengthAdjust="spacingAndGlyphs" textLength="102" x="321" y="226.9502">Card(CardType type)</text><ellipse cx="312" cy="237.7852" fill="#84BE84" rx="3" ry="3" style="stroke: #038048; stroke-width: 1.0;"/><text fill="#000000" font-family="sans-serif" font-size="11" lengthAdjust="spacingAndGlyphs" textLength="120" x="321" y="240.7861">CardType getCardType()</text><ellipse cx="312" cy="251.6211" fill="#84BE84" rx="3" ry="3" style="stroke: #038048; stroke-width: 1.0;"/><text fill="#000000" font-family="sans-serif" font-size="11" lengthAdjust="spacingAndGlyphs" textLength="111" x="321" y="254.6221">boolean isExchanged()</text><ellipse cx="312" cy="265.457" fill="#84BE84" rx="3" ry="3" style="stroke: #038048; stroke-width: 1.0;"/><text fill="#000000" font-family="sans-serif" font-size="11" lengthAdjust="spacingAndGlyphs" textLength="203" x="321" y="268.458">void setExchanged(boolean isExchanged)</text><ellipse cx="312" cy="279.293" fill="#84BE84" rx="3" ry="3" style="stroke: #038048; stroke-width: 1.0;"/><text fill="#000000" font-family="sans-serif" font-size="11" lengthAdjust="spacingAndGlyphs" textLength="121" x="321" y="282.2939">Player getHoldingPlayer()</text><ellipse cx="312" cy="293.1289" fill="#84BE84" rx="3" ry="3" style="stroke: #038048; stroke-width: 1.0;"/><text fill="#000000" font-family="sans-serif" font-size="11" lengthAdjust="spacingAndGlyphs" textLength="174" x="321" y="296.1299">void setHoldingPlayer(Player player)</text><ellipse cx="312" cy="306.9648" fill="#84BE84" rx="3" ry="3" style="stroke: #038048; stroke-width: 1.0;"/><text fill="#000000" font-family="sans-serif" font-size="11" lengthAdjust="spacingAndGlyphs" textLength="146" x="321" y="309.9658">String getHoldingPlayerName()</text><ellipse cx="312" cy="320.8008" fill="#84BE84" rx="3" ry="3" style="stroke: #038048; stroke-width: 1.0;"/><text fill="#000000" font-family="sans-serif" font-size="11" lengthAdjust="spacingAndGlyphs" textLength="214" x="321" y="323.8018">void view(PrintStream printStream,int indent)</text></a><!--class soen6441riskgame.enums.CardType--><a target="_parent" xlink:actuate="onRequest" xlink:href="../../soen6441riskgame/enums/CardType.html" xlink:show="new" xlink:title="soen6441riskgame.enums.CardType" xlink:type="simple"><rect fill="#FFFFFF" filter="url(#fzq602mkoavja)" height="40.1875" id="soen6441riskgame.enums.CardType" style="stroke: #A80036; stroke-width: 1.5;" width="153" x="154.5" y="390"/><rect fill="#FFFFFF" height="40.1875" style="stroke: #A80036; stroke-width: 1.5;" width="153" x="154.5" y="390"/><ellipse cx="169.5" cy="410.0938" fill="#EB937F" rx="11" ry="11" style="stroke: #A80036; stroke-width: 1.0;"/><path d="M168.3594,410.8906 L168.3594,413.3906 L172.6875,413.3906 L172.6875,412.4688 Q172.6875,411.8594 172.9297,411.5938 Q173.1719,411.3281 173.5469,411.3281 Q173.9219,411.3281 174.1563,411.5938 Q174.3906,411.8594 174.3906,412.4688 L174.3906,415.0938 L166.3906,415.0938 Q165.7656,415.0938 165.5078,414.8594 Q165.25,414.625 165.25,414.2344 Q165.25,413.8594 165.5156,413.625 Q165.7813,413.3906 166.3906,413.3906 L166.6563,413.3906 L166.6563,406.7344 L166.3906,406.7344 Q165.7656,406.7344 165.5078,406.5 Q165.25,406.2656 165.25,405.875 Q165.25,405.5 165.5078,405.2656 Q165.7656,405.0313 166.3906,405.0313 L174.0156,405.0313 L174.0156,407.625 Q174.0156,408.2344 173.7891,408.4922 Q173.5625,408.75 173.1719,408.75 Q172.7969,408.75 172.5625,408.4922 Q172.3281,408.2344 172.3281,407.625 L172.3281,406.7344 L168.3594,406.7344 L168.3594,409.1875 L169.8438,409.1875 Q169.8438,408.5313 169.9688,408.3438 Q170.2344,407.9375 170.7031,407.9375 Q171.0781,407.9375 171.3125,408.1953 Q171.5469,408.4531 171.5469,409.0625 L171.5469,411.0313 Q171.5469,411.5781 171.4219,411.7656 Q171.1563,412.1563 170.7031,412.1563 Q170.2344,412.1563 169.9688,411.75 Q169.8438,411.5625 169.8438,410.8906 L168.3594,410.8906 Z "/><text fill="#000000" font-family="sans-serif" font-size="14" font-weight="bold" lengthAdjust="spacingAndGlyphs" textLength="66" x="211" y="409.5332">CardType</text><text fill="#000000" font-family="sans-serif" font-size="10" lengthAdjust="spacingAndGlyphs" textLength="121" x="183.5" y="422.9902">soen6441riskgame.enums</text></a><!--class soen6441riskgame.models.Player--><a target="_parent" xlink:actuate="onRequest" xlink:href="../../soen6441riskgame/models/Player.html" xlink:show="new" xlink:title="soen6441riskgame.models.Player" xlink:type="simple"><rect fill="#FEFECE" filter="url(#fzq602mkoavja)" height="40.1875" id="soen6441riskgame.models.Player" style="stroke: #A80036; stroke-width: 1.5;" width="156" x="343" y="390"/><ellipse cx="358" cy="410.0938" fill="#ADD1B2" rx="11" ry="11" style="stroke: #A80036; stroke-width: 1.0;"/><path d="M360.7656,405.9688 Q360.9219,405.75 361.1094,405.6406 Q361.2969,405.5313 361.5156,405.5313 Q361.8906,405.5313 362.125,405.7891 Q362.3594,406.0469 362.3594,406.6563 L362.3594,408.1094 Q362.3594,408.7188 362.125,408.9844 Q361.8906,409.25 361.5156,409.25 Q361.1719,409.25 360.9688,409.0469 Q360.7656,408.8594 360.6563,408.3438 Q360.6094,407.9844 360.4219,407.7969 Q360.0938,407.4219 359.4844,407.2031 Q358.875,406.9844 358.25,406.9844 Q357.4844,406.9844 356.8516,407.3125 Q356.2188,407.6406 355.7266,408.3906 Q355.2344,409.1406 355.2344,410.1719 L355.2344,411.2656 Q355.2344,412.5 356.125,413.3203 Q357.0156,414.1406 358.6094,414.1406 Q359.5469,414.1406 360.2031,413.8906 Q360.5938,413.7344 361.0156,413.2969 Q361.2813,413.0313 361.4297,412.9531 Q361.5781,412.875 361.7813,412.875 Q362.1094,412.875 362.3672,413.1328 Q362.625,413.3906 362.625,413.7344 Q362.625,414.0781 362.2813,414.4844 Q361.7813,415.0625 360.9844,415.3906 Q359.9063,415.8438 358.6094,415.8438 Q357.0938,415.8438 355.8906,415.2188 Q354.9063,414.7188 354.2188,413.6484 Q353.5313,412.5781 353.5313,411.2969 L353.5313,410.1406 Q353.5313,408.8125 354.1484,407.6641 Q354.7656,406.5156 355.8594,405.8984 Q356.9531,405.2813 358.1875,405.2813 Q358.9219,405.2813 359.5703,405.4453 Q360.2188,405.6094 360.7656,405.9688 Z "/><text fill="#000000" font-family="sans-serif" font-size="14" font-weight="bold" lengthAdjust="spacingAndGlyphs" textLength="43" x="412.5" y="409.5332">Player</text><text fill="#000000" font-family="sans-serif" font-size="10" lengthAdjust="spacingAndGlyphs" textLength="124" x="372" y="422.9902">soen6441riskgame.models</text></a><!--class soen6441riskgame.models.Viewable--><a target="_parent" xlink:actuate="onRequest" xlink:href="../../soen6441riskgame/models/Viewable.html" xlink:show="new" xlink:title="soen6441riskgame.models.Viewable" xlink:type="simple"><rect fill="#FEFECE" filter="url(#fzq602mkoavja)" height="40.1875" id="soen6441riskgame.models.Viewable" style="stroke: #A80036; stroke-width: 1.5;" width="156" x="534" y="390"/><ellipse cx="549" cy="410.0938" fill="#B4A7E5" rx="11" ry="11" style="stroke: #A80036; stroke-width: 1.0;"/><path d="M549.9531,406.7344 L549.9531,413.3906 L551.6719,413.3906 Q552.2813,413.3906 552.5469,413.625 Q552.8125,413.8594 552.8125,414.25 Q552.8125,414.625 552.5469,414.8594 Q552.2813,415.0938 551.6719,415.0938 L546.5313,415.0938 Q545.9219,415.0938 545.6563,414.8594 Q545.3906,414.625 545.3906,414.2344 Q545.3906,413.8594 545.6563,413.625 Q545.9219,413.3906 546.5313,413.3906 L548.25,413.3906 L548.25,406.7344 L546.5313,406.7344 Q545.9219,406.7344 545.6563,406.5 Q545.3906,406.2656 545.3906,405.875 Q545.3906,405.5 545.6563,405.2656 Q545.9219,405.0313 546.5313,405.0313 L551.6719,405.0313 Q552.2813,405.0313 552.5469,405.2656 Q552.8125,405.5 552.8125,405.875 Q552.8125,406.2656 552.5469,406.5 Q552.2813,406.7344 551.6719,406.7344 L549.9531,406.7344 Z "/><text fill="#000000" font-family="sans-serif" font-size="14" font-style="italic" font-weight="bold" lengthAdjust="spacingAndGlyphs" textLength="62" x="594" y="409.5332">Viewable</text><text fill="#000000" font-family="sans-serif" font-size="10" font-style="italic" lengthAdjust="spacingAndGlyphs" textLength="124" x="563" y="422.9902">soen6441riskgame.models</text></a><!--class java.io.PrintStream--><rect fill="#D3D3D3" filter="url(#fzq602mkoavja)" height="40.1875" id="java.io.PrintStream" style="stroke: #A80036; stroke-width: 1.5;" width="114" x="725" y="390"/><rect fill="#D3D3D3" height="40.1875" style="stroke: #A80036; stroke-width: 1.5;" width="114" x="725" y="390"/><ellipse cx="740" cy="410.0938" fill="#ADD1B2" rx="11" ry="11" style="stroke: #A80036; stroke-width: 1.0;"/><path d="M742.7656,405.9688 Q742.9219,405.75 743.1094,405.6406 Q743.2969,405.5313 743.5156,405.5313 Q743.8906,405.5313 744.125,405.7891 Q744.3594,406.0469 744.3594,406.6563 L744.3594,408.1094 Q744.3594,408.7188 744.125,408.9844 Q743.8906,409.25 743.5156,409.25 Q743.1719,409.25 742.9688,409.0469 Q742.7656,408.8594 742.6563,408.3438 Q742.6094,407.9844 742.4219,407.7969 Q742.0938,407.4219 741.4844,407.2031 Q740.875,406.9844 740.25,406.9844 Q739.4844,406.9844 738.8516,407.3125 Q738.2188,407.6406 737.7266,408.3906 Q737.2344,409.1406 737.2344,410.1719 L737.2344,411.2656 Q737.2344,412.5 738.125,413.3203 Q739.0156,414.1406 740.6094,414.1406 Q741.5469,414.1406 742.2031,413.8906 Q742.5938,413.7344 743.0156,413.2969 Q743.2813,413.0313 743.4297,412.9531 Q743.5781,412.875 743.7813,412.875 Q744.1094,412.875 744.3672,413.1328 Q744.625,413.3906 744.625,413.7344 Q744.625,414.0781 744.2813,414.4844 Q743.7813,415.0625 742.9844,415.3906 Q741.9063,415.8438 740.6094,415.8438 Q739.0938,415.8438 737.8906,415.2188 Q736.9063,414.7188 736.2188,413.6484 Q735.5313,412.5781 735.5313,411.2969 L735.5313,410.1406 Q735.5313,408.8125 736.1484,407.6641 Q736.7656,406.5156 737.8594,405.8984 Q738.9531,405.2813 740.1875,405.2813 Q740.9219,405.2813 741.5703,405.4453 Q742.2188,405.6094 742.7656,405.9688 Z "/><text fill="#000000" font-family="sans-serif" font-size="14" font-weight="bold" lengthAdjust="spacingAndGlyphs" textLength="82" x="754" y="409.5332">PrintStream</text><text fill="#000000" font-family="sans-serif" font-size="10" lengthAdjust="spacingAndGlyphs" textLength="32" x="779" y="422.9902">java.io</text><!--class soen6441riskgame.models.CardSet--><a target="_parent" xlink:actuate="onRequest" xlink:href="../../soen6441riskgame/models/CardSet.html" xlink:show="new" xlink:title="soen6441riskgame.models.CardSet" xlink:type="simple"><rect fill="#FEFECE" filter="url(#fzq602mkoavja)" height="40.1875" id="soen6441riskgame.models.CardSet" style="stroke: #A80036; stroke-width: 1.5;" width="156" x="6" y="8"/><ellipse cx="21" cy="28.0938" fill="#ADD1B2" rx="11" ry="11" style="stroke: #A80036; stroke-width: 1.0;"/><path d="M23.7656,23.9688 Q23.9219,23.75 24.1094,23.6406 Q24.2969,23.5313 24.5156,23.5313 Q24.8906,23.5313 25.125,23.7891 Q25.3594,24.0469 25.3594,24.6563 L25.3594,26.1094 Q25.3594,26.7188 25.125,26.9844 Q24.8906,27.25 24.5156,27.25 Q24.1719,27.25 23.9688,27.0469 Q23.7656,26.8594 23.6563,26.3438 Q23.6094,25.9844 23.4219,25.7969 Q23.0938,25.4219 22.4844,25.2031 Q21.875,24.9844 21.25,24.9844 Q20.4844,24.9844 19.8516,25.3125 Q19.2188,25.6406 18.7266,26.3906 Q18.2344,27.1406 18.2344,28.1719 L18.2344,29.2656 Q18.2344,30.5 19.125,31.3203 Q20.0156,32.1406 21.6094,32.1406 Q22.5469,32.1406 23.2031,31.8906 Q23.5938,31.7344 24.0156,31.2969 Q24.2813,31.0313 24.4297,30.9531 Q24.5781,30.875 24.7813,30.875 Q25.1094,30.875 25.3672,31.1328 Q25.625,31.3906 25.625,31.7344 Q25.625,32.0781 25.2813,32.4844 Q24.7813,33.0625 23.9844,33.3906 Q22.9063,33.8438 21.6094,33.8438 Q20.0938,33.8438 18.8906,33.2188 Q17.9063,32.7188 17.2188,31.6484 Q16.5313,30.5781 16.5313,29.2969 L16.5313,28.1406 Q16.5313,26.8125 17.1484,25.6641 Q17.7656,24.5156 18.8594,23.8984 Q19.9531,23.2813 21.1875,23.2813 Q21.9219,23.2813 22.5703,23.4453 Q23.2188,23.6094 23.7656,23.9688 Z "/><text fill="#000000" font-family="sans-serif" font-size="14" font-weight="bold" lengthAdjust="spacingAndGlyphs" textLength="56" x="69" y="27.5332">CardSet</text><text fill="#000000" font-family="sans-serif" font-size="10" lengthAdjust="spacingAndGlyphs" textLength="124" x="35" y="40.9902">soen6441riskgame.models</text></a><!--class soen6441riskgame.models.serializers.SerializableGame--><a target="_parent" xlink:actuate="onRequest" xlink:href="../../soen6441riskgame/models/serializers/SerializableGame.html" xlink:show="new" xlink:title="soen6441riskgame.models.serializers.SerializableGame" xlink:type="simple"><rect fill="#FFFFFF" filter="url(#fzq602mkoavja)" height="40.1875" id="soen6441riskgame.models.serializers.SerializableGame" style="stroke: #A80036; stroke-width: 1.5;" width="205" x="197.5" y="8"/><rect fill="#FFFFFF" height="40.1875" style="stroke: #A80036; stroke-width: 1.5;" width="205" x="197.5" y="8"/><ellipse cx="212.5" cy="28.0938" fill="#ADD1B2" rx="11" ry="11" style="stroke: #A80036; stroke-width: 1.0;"/><path d="M215.2656,23.9688 Q215.4219,23.75 215.6094,23.6406 Q215.7969,23.5313 216.0156,23.5313 Q216.3906,23.5313 216.625,23.7891 Q216.8594,24.0469 216.8594,24.6563 L216.8594,26.1094 Q216.8594,26.7188 216.625,26.9844 Q216.3906,27.25 216.0156,27.25 Q215.6719,27.25 215.4688,27.0469 Q215.2656,26.8594 215.1563,26.3438 Q215.1094,25.9844 214.9219,25.7969 Q214.5938,25.4219 213.9844,25.2031 Q213.375,24.9844 212.75,24.9844 Q211.9844,24.9844 211.3516,25.3125 Q210.7188,25.6406 210.2266,26.3906 Q209.7344,27.1406 209.7344,28.1719 L209.7344,29.2656 Q209.7344,30.5 210.625,31.3203 Q211.5156,32.1406 213.1094,32.1406 Q214.0469,32.1406 214.7031,31.8906 Q215.0938,31.7344 215.5156,31.2969 Q215.7813,31.0313 215.9297,30.9531 Q216.0781,30.875 216.2813,30.875 Q216.6094,30.875 216.8672,31.1328 Q217.125,31.3906 217.125,31.7344 Q217.125,32.0781 216.7813,32.4844 Q216.2813,33.0625 215.4844,33.3906 Q214.4063,33.8438 213.1094,33.8438 Q211.5938,33.8438 210.3906,33.2188 Q209.4063,32.7188 208.7188,31.6484 Q208.0313,30.5781 208.0313,29.2969 L208.0313,28.1406 Q208.0313,26.8125 208.6484,25.6641 Q209.2656,24.5156 210.3594,23.8984 Q211.4531,23.2813 212.6875,23.2813 Q213.4219,23.2813 214.0703,23.4453 Q214.7188,23.6094 215.2656,23.9688 Z "/><text fill="#000000" font-family="sans-serif" font-size="14" font-weight="bold" lengthAdjust="spacingAndGlyphs" textLength="121" x="252.5" y="27.5332">SerializableGame</text><text fill="#000000" font-family="sans-serif" font-size="10" lengthAdjust="spacingAndGlyphs" textLength="173" x="226.5" y="40.9902">soen6441riskgame.models.serializers</text></a><!--class soen6441riskgame.models.serializers.SerializableGame.Builder--><a target="_parent" xlink:actuate="onRequest" xlink:href="../../soen6441riskgame/models/serializers/SerializableGame.Builder.html" xlink:show="new" xlink:title="soen6441riskgame.models.serializers.SerializableGame.Builder" xlink:type="simple"><rect fill="#FFFFFF" filter="url(#fzq602mkoavja)" height="40.1875" id="soen6441riskgame.models.serializers.SerializableGame.Builder" style="stroke: #A80036; stroke-width: 1.5;" width="208" x="438" y="8"/><rect fill="#FFFFFF" height="40.1875" style="stroke: #A80036; stroke-width: 1.5;" width="208" x="438" y="8"/><ellipse cx="453" cy="28.0938" fill="#ADD1B2" rx="11" ry="11" style="stroke: #A80036; stroke-width: 1.0;"/><path d="M455.7656,23.9688 Q455.9219,23.75 456.1094,23.6406 Q456.2969,23.5313 456.5156,23.5313 Q456.8906,23.5313 457.125,23.7891 Q457.3594,24.0469 457.3594,24.6563 L457.3594,26.1094 Q457.3594,26.7188 457.125,26.9844 Q456.8906,27.25 456.5156,27.25 Q456.1719,27.25 455.9688,27.0469 Q455.7656,26.8594 455.6563,26.3438 Q455.6094,25.9844 455.4219,25.7969 Q455.0938,25.4219 454.4844,25.2031 Q453.875,24.9844 453.25,24.9844 Q452.4844,24.9844 451.8516,25.3125 Q451.2188,25.6406 450.7266,26.3906 Q450.2344,27.1406 450.2344,28.1719 L450.2344,29.2656 Q450.2344,30.5 451.125,31.3203 Q452.0156,32.1406 453.6094,32.1406 Q454.5469,32.1406 455.2031,31.8906 Q455.5938,31.7344 456.0156,31.2969 Q456.2813,31.0313 456.4297,30.9531 Q456.5781,30.875 456.7813,30.875 Q457.1094,30.875 457.3672,31.1328 Q457.625,31.3906 457.625,31.7344 Q457.625,32.0781 457.2813,32.4844 Q456.7813,33.0625 455.9844,33.3906 Q454.9063,33.8438 453.6094,33.8438 Q452.0938,33.8438 450.8906,33.2188 Q449.9063,32.7188 449.2188,31.6484 Q448.5313,30.5781 448.5313,29.2969 L448.5313,28.1406 Q448.5313,26.8125 449.1484,25.6641 Q449.7656,24.5156 450.8594,23.8984 Q451.9531,23.2813 453.1875,23.2813 Q453.9219,23.2813 454.5703,23.4453 Q455.2188,23.6094 455.7656,23.9688 Z "/><text fill="#000000" font-family="sans-serif" font-size="14" font-weight="bold" lengthAdjust="spacingAndGlyphs" textLength="176" x="467" y="27.5332">SerializableGame.Builder</text><text fill="#000000" font-family="sans-serif" font-size="10" lengthAdjust="spacingAndGlyphs" textLength="173" x="468.5" y="40.9902">soen6441riskgame.models.serializers</text></a><!--class soen6441riskgame.singleton.GameBoard--><a target="_parent" xlink:actuate="onRequest" xlink:href="../../soen6441riskgame/singleton/GameBoard.html" xlink:show="new" xlink:title="soen6441riskgame.singleton.GameBoard" xlink:type="simple"><rect fill="#FFFFFF" filter="url(#fzq602mkoavja)" height="40.1875" id="soen6441riskgame.singleton.GameBoard" style="stroke: #A80036; stroke-width: 1.5;" width="165" x="681.5" y="8"/><rect fill="#FFFFFF" height="40.1875" style="stroke: #A80036; stroke-width: 1.5;" width="165" x="681.5" y="8"/><ellipse cx="696.5" cy="28.0938" fill="#ADD1B2" rx="11" ry="11" style="stroke: #A80036; stroke-width: 1.0;"/><path d="M699.2656,23.9688 Q699.4219,23.75 699.6094,23.6406 Q699.7969,23.5313 700.0156,23.5313 Q700.3906,23.5313 700.625,23.7891 Q700.8594,24.0469 700.8594,24.6563 L700.8594,26.1094 Q700.8594,26.7188 700.625,26.9844 Q700.3906,27.25 700.0156,27.25 Q699.6719,27.25 699.4688,27.0469 Q699.2656,26.8594 699.1563,26.3438 Q699.1094,25.9844 698.9219,25.7969 Q698.5938,25.4219 697.9844,25.2031 Q697.375,24.9844 696.75,24.9844 Q695.9844,24.9844 695.3516,25.3125 Q694.7188,25.6406 694.2266,26.3906 Q693.7344,27.1406 693.7344,28.1719 L693.7344,29.2656 Q693.7344,30.5 694.625,31.3203 Q695.5156,32.1406 697.1094,32.1406 Q698.0469,32.1406 698.7031,31.8906 Q699.0938,31.7344 699.5156,31.2969 Q699.7813,31.0313 699.9297,30.9531 Q700.0781,30.875 700.2813,30.875 Q700.6094,30.875 700.8672,31.1328 Q701.125,31.3906 701.125,31.7344 Q701.125,32.0781 700.7813,32.4844 Q700.2813,33.0625 699.4844,33.3906 Q698.4063,33.8438 697.1094,33.8438 Q695.5938,33.8438 694.3906,33.2188 Q693.4063,32.7188 692.7188,31.6484 Q692.0313,30.5781 692.0313,29.2969 L692.0313,28.1406 Q692.0313,26.8125 692.6484,25.6641 Q693.2656,24.5156 694.3594,23.8984 Q695.4531,23.2813 696.6875,23.2813 Q697.4219,23.2813 698.0703,23.4453 Q698.7188,23.6094 699.2656,23.9688 Z "/><text fill="#000000" font-family="sans-serif" font-size="14" font-weight="bold" lengthAdjust="spacingAndGlyphs" textLength="82" x="736" y="27.5332">GameBoard</text><text fill="#000000" font-family="sans-serif" font-size="10" lengthAdjust="spacingAndGlyphs" textLength="133" x="710.5" y="40.9902">soen6441riskgame.singleton</text></a><!--link soen6441riskgame.models.Card to soen6441riskgame.enums.CardType--><path d="M325.25,330.1055 C325.25,372.1241 325.25,410 325.25,410 C325.25,410 312.522,410 312.522,410 " fill="none" id="soen6441riskgame.models.Card-soen6441riskgame.enums.CardType" style="stroke: #A80036; stroke-width: 1.0;"/><polygon fill="#A80036" points="307.522,410,316.522,414,312.522,410,316.522,406,307.522,410" style="stroke: #A80036; stroke-width: 1.0;"/><text fill="#000000" font-family="sans-serif" font-size="13" lengthAdjust="spacingAndGlyphs" textLength="53" x="282.7848" y="403.3727">cardType</text><!--link soen6441riskgame.models.Card to soen6441riskgame.models.Player--><path d="M395,330.1055 C395,330.1055 395,384.8081 395,384.8081 " fill="none" id="soen6441riskgame.models.Card-soen6441riskgame.models.Player" style="stroke: #A80036; stroke-width: 1.0;"/><polygon fill="#A80036" points="395,389.8081,399,380.8081,395,384.8081,391,380.8081,395,389.8081" style="stroke: #A80036; stroke-width: 1.0;"/><text fill="#000000" font-family="sans-serif" font-size="13" lengthAdjust="spacingAndGlyphs" textLength="78" x="297.9063" y="379.0459">holdingPlayer</text><!--link soen6441riskgame.models.Player to soen6441riskgame.models.Card--><path d="M447,389.9207 C447,389.9207 447,335.3171 447,335.3171 " fill="none" id="soen6441riskgame.models.Player-soen6441riskgame.models.Card" style="stroke: #A80036; stroke-width: 1.0; stroke-dasharray: 7.0,7.0;"/><polygon fill="#A80036" points="447,330.3171,443,339.3171,447,335.3171,451,339.3171,447,330.3171" style="stroke: #A80036; stroke-width: 1.0;"/><!--link soen6441riskgame.models.Card to soen6441riskgame.models.Viewable--><path d="M537.5,330.1055 C537.5,330.1055 537.5,369.8081 537.5,369.8081 " fill="none" id="soen6441riskgame.models.Card-soen6441riskgame.models.Viewable" style="stroke: #A80036; stroke-width: 1.0; stroke-dasharray: 7.0,7.0;"/><polygon fill="none" points="544.5,369.8082,537.5,389.8081,530.5,369.8081,544.5,369.8082" style="stroke: #A80036; stroke-width: 1.0;"/><!--link soen6441riskgame.models.Card to java.io.PrintStream--><path d="M541.208,256 C646.223,256 782,256 782,256 C782,256 782,384.8672 782,384.8672 " fill="none" id="soen6441riskgame.models.Card-java.io.PrintStream" style="stroke: #A80036; stroke-width: 1.0; stroke-dasharray: 7.0,7.0;"/><polygon fill="#A80036" points="782,389.8672,786,380.8672,782,384.8672,778,380.8672,782,389.8672" style="stroke: #A80036; stroke-width: 1.0;"/><!--link soen6441riskgame.models.CardSet to soen6441riskgame.models.Card--><path d="M158.25,48.079 C158.25,97.118 158.25,219 158.25,219 C158.25,219 295.775,219 295.775,219 " fill="none" id="soen6441riskgame.models.CardSet-soen6441riskgame.models.Card" style="stroke: #A80036; stroke-width: 1.0; stroke-dasharray: 7.0,7.0;"/><polygon fill="#A80036" points="300.775,219,291.775,215,295.775,219,291.775,223,300.775,219" style="stroke: #A80036; stroke-width: 1.0;"/><!--link soen6441riskgame.models.serializers.SerializableGame to soen6441riskgame.models.Card--><path d="M351.75,48.079 C351.75,48.079 351.75,102.683 351.75,102.683 " fill="none" id="soen6441riskgame.models.serializers.SerializableGame-soen6441riskgame.models.Card" style="stroke: #A80036; stroke-width: 1.0;"/><polygon fill="#A80036" points="351.75,107.683,355.75,98.683,351.75,102.683,347.75,98.683,351.75,107.683" style="stroke: #A80036; stroke-width: 1.0;"/><text fill="#000000" font-family="sans-serif" font-size="13" lengthAdjust="spacingAndGlyphs" textLength="32" x="314.0223" y="97.166">cards</text><!--link soen6441riskgame.models.serializers.SerializableGame.Builder to soen6441riskgame.models.Card--><path d="M489.5,48.079 C489.5,48.079 489.5,102.683 489.5,102.683 " fill="none" id="soen6441riskgame.models.serializers.SerializableGame.Builder-soen6441riskgame.models.Card" style="stroke: #A80036; stroke-width: 1.0;"/><polygon fill="#A80036" points="489.5,107.683,493.5,98.683,489.5,102.683,485.5,98.683,489.5,107.683" style="stroke: #A80036; stroke-width: 1.0;"/><text fill="#000000" font-family="sans-serif" font-size="13" lengthAdjust="spacingAndGlyphs" textLength="32" x="461.0273" y="97.166">cards</text><!--link soen6441riskgame.singleton.GameBoard to soen6441riskgame.models.Card--><path d="M685.75,48.133 C685.75,89.876 685.75,182 685.75,182 C685.75,182 546.367,182 546.367,182 " fill="none" id="soen6441riskgame.singleton.GameBoard-soen6441riskgame.models.Card" style="stroke: #A80036; stroke-width: 1.0;"/><polygon fill="#A80036" points="541.367,182,550.367,186,546.367,182,550.367,178,541.367,182" style="stroke: #A80036; stroke-width: 1.0;"/><text fill="#000000" font-family="sans-serif" font-size="13" lengthAdjust="spacingAndGlyphs" textLength="32" x="548.8246" y="177.0378">cards</text><!--
@startuml

skinparam svgLinkTarget _parent
skinparam linetype ortho
set namespaceSeparator none
class "<b><size:14>Card</b>\n<size:10>soen6441riskgame.models" as soen6441riskgame.models.Card  [[../../soen6441riskgame/models/Card.html{soen6441riskgame.models.Card}]] {
-CardType cardType
-boolean isExchanged
-Player holdingPlayer
-String holdingPlayerName
+Card(CardType type)
+CardType getCardType()
+boolean isExchanged()
+void setExchanged(boolean isExchanged)
+Player getHoldingPlayer()
+void setHoldingPlayer(Player player)
+String getHoldingPlayerName()
+void view(PrintStream printStream,int indent)
}


enum "<b><size:14>CardType</b>\n<size:10>soen6441riskgame.enums" as soen6441riskgame.enums.CardType  [[../../soen6441riskgame/enums/CardType.html{soen6441riskgame.enums.CardType}]] #white {
}

hide soen6441riskgame.enums.CardType fields
hide soen6441riskgame.enums.CardType methods

soen6441riskgame.models.Card - ->  "cardType" soen6441riskgame.enums.CardType

class "<b><size:14>Player</b>\n<size:10>soen6441riskgame.models" as soen6441riskgame.models.Player  [[../../soen6441riskgame/models/Player.html{soen6441riskgame.models.Player}]] {
}

hide soen6441riskgame.models.Player fields
hide soen6441riskgame.models.Player methods

soen6441riskgame.models.Card - ->  "holdingPlayer" soen6441riskgame.models.Player

interface "<b><size:14>Viewable</b>\n<size:10>soen6441riskgame.models" as soen6441riskgame.models.Viewable  [[../../soen6441riskgame/models/Viewable.html{soen6441riskgame.models.Viewable}]] {
}

hide soen6441riskgame.models.Viewable fields
hide soen6441riskgame.models.Viewable methods

soen6441riskgame.models.Card ..|> soen6441riskgame.models.Viewable

class "<b><size:14>PrintStream</b>\n<size:10>java.io" as java.io.PrintStream  #lightgrey {
}

hide java.io.PrintStream fields
hide java.io.PrintStream methods

soen6441riskgame.models.Card ..> java.io.PrintStream

class "<b><size:14>CardSet</b>\n<size:10>soen6441riskgame.models" as soen6441riskgame.models.CardSet  [[../../soen6441riskgame/models/CardSet.html{soen6441riskgame.models.CardSet}]] {
}

hide soen6441riskgame.models.CardSet fields
hide soen6441riskgame.models.CardSet methods

soen6441riskgame.models.CardSet ..> soen6441riskgame.models.Card

soen6441riskgame.models.Player ..> soen6441riskgame.models.Card

class "<b><size:14>SerializableGame</b>\n<size:10>soen6441riskgame.models.serializers" as soen6441riskgame.models.serializers.SerializableGame  [[../../soen6441riskgame/models/serializers/SerializableGame.html{soen6441riskgame.models.serializers.SerializableGame}]] #white {
}

hide soen6441riskgame.models.serializers.SerializableGame fields
hide soen6441riskgame.models.serializers.SerializableGame methods

soen6441riskgame.models.serializers.SerializableGame - ->  "cards" soen6441riskgame.models.Card

class "<b><size:14>SerializableGame.Builder</b>\n<size:10>soen6441riskgame.models.serializers" as soen6441riskgame.models.serializers.SerializableGame.Builder  [[../../soen6441riskgame/models/serializers/SerializableGame.Builder.html{soen6441riskgame.models.serializers.SerializableGame.Builder}]] #white {
}

hide soen6441riskgame.models.serializers.SerializableGame.Builder fields
hide soen6441riskgame.models.serializers.SerializableGame.Builder methods

soen6441riskgame.models.serializers.SerializableGame.Builder - ->  "cards" soen6441riskgame.models.Card

class "<b><size:14>GameBoard</b>\n<size:10>soen6441riskgame.singleton" as soen6441riskgame.singleton.GameBoard  [[../../soen6441riskgame/singleton/GameBoard.html{soen6441riskgame.singleton.GameBoard}]] #white {
}

hide soen6441riskgame.singleton.GameBoard fields
hide soen6441riskgame.singleton.GameBoard methods

soen6441riskgame.singleton.GameBoard - ->  "cards" soen6441riskgame.models.Card


@enduml

PlantUML version 1.2017.15(Mon Jul 03 12:45:34 EDT 2017)
(GPL source distribution)
Java Runtime: Java(TM) SE Runtime Environment
JVM: Java HotSpot(TM) 64-Bit Server VM
Java Version: 1.8.0_231-b11
Operating System: Windows 10
OS Version: 10.0
Default Encoding: Cp1252
Language: en
Country: US
--></g></svg>