<?xml version="1.0" encoding="UTF-8" standalone="no"?><svg xmlns="http://www.w3.org/2000/svg" xmlns:xlink="http://www.w3.org/1999/xlink" contentScriptType="application/ecmascript" contentStyleType="text/css" height="469px" preserveAspectRatio="none" style="width:872px;height:469px;" version="1.1" viewBox="0 0 872 469" width="872px" zoomAndPan="magnify"><defs><filter height="300%" id="fczy7fnkgg2zt" width="300%" x="-1" y="-1"><feGaussianBlur result="blurOut" stdDeviation="2.0"/><feColorMatrix in="blurOut" result="blurOut2" type="matrix" values="0 0 0 0 0 0 0 0 0 0 0 0 0 0 0 0 0 0 .4 0"/><feOffset dx="4.0" dy="4.0" in="blurOut2" result="blurOut3"/><feBlend in="SourceGraphic" in2="blurOut3" mode="normal"/></filter></defs><g><!--class soen6441riskgame.models.Continent--><a target="_parent" xlink:actuate="onRequest" xlink:href="../../soen6441riskgame/models/Continent.html" xlink:show="new" xlink:title="soen6441riskgame.models.Continent" xlink:type="simple"><rect fill="#FEFECE" filter="url(#fczy7fnkgg2zt)" height="249.8906" id="soen6441riskgame.models.Continent" style="stroke: #A80036; stroke-width: 1.5;" width="268" x="301.5" y="108"/><ellipse cx="369.25" cy="128.0938" fill="#ADD1B2" rx="11" ry="11" style="stroke: #A80036; stroke-width: 1.0;"/><path d="M372.0156,123.9688 Q372.1719,123.75 372.3594,123.6406 Q372.5469,123.5313 372.7656,123.5313 Q373.1406,123.5313 373.375,123.7891 Q373.6094,124.0469 373.6094,124.6563 L373.6094,126.1094 Q373.6094,126.7188 373.375,126.9844 Q373.1406,127.25 372.7656,127.25 Q372.4219,127.25 372.2188,127.0469 Q372.0156,126.8594 371.9063,126.3438 Q371.8594,125.9844 371.6719,125.7969 Q371.3438,125.4219 370.7344,125.2031 Q370.125,124.9844 369.5,124.9844 Q368.7344,124.9844 368.1016,125.3125 Q367.4688,125.6406 366.9766,126.3906 Q366.4844,127.1406 366.4844,128.1719 L366.4844,129.2656 Q366.4844,130.5 367.375,131.3203 Q368.2656,132.1406 369.8594,132.1406 Q370.7969,132.1406 371.4531,131.8906 Q371.8438,131.7344 372.2656,131.2969 Q372.5313,131.0313 372.6797,130.9531 Q372.8281,130.875 373.0313,130.875 Q373.3594,130.875 373.6172,131.1328 Q373.875,131.3906 373.875,131.7344 Q373.875,132.0781 373.5313,132.4844 Q373.0313,133.0625 372.2344,133.3906 Q371.1563,133.8438 369.8594,133.8438 Q368.3438,133.8438 367.1406,133.2188 Q366.1563,132.7188 365.4688,131.6484 Q364.7813,130.5781 364.7813,129.2969 L364.7813,128.1406 Q364.7813,126.8125 365.3984,125.6641 Q366.0156,124.5156 367.1094,123.8984 Q368.2031,123.2813 369.4375,123.2813 Q370.1719,123.2813 370.8203,123.4453 Q371.4688,123.6094 372.0156,123.9688 Z "/><text fill="#000000" font-family="sans-serif" font-size="14" font-weight="bold" lengthAdjust="spacingAndGlyphs" textLength="69" x="417.25" y="127.5332">Continent</text><text fill="#000000" font-family="sans-serif" font-size="10" lengthAdjust="spacingAndGlyphs" textLength="124" x="389.75" y="140.9902">soen6441riskgame.models</text><line style="stroke: #A80036; stroke-width: 1.5;" x1="302.5" x2="568.5" y1="148.1875" y2="148.1875"/><rect fill="none" height="6" style="stroke: #C82930; stroke-width: 1.0;" width="6" x="309.5" y="157.6055"/><text fill="#000000" font-family="sans-serif" font-size="11" lengthAdjust="spacingAndGlyphs" textLength="57" x="321.5" y="163.6064">String name</text><rect fill="none" height="6" style="stroke: #C82930; stroke-width: 1.0;" width="6" x="309.5" y="171.4414"/><text fill="#000000" font-family="sans-serif" font-size="11" lengthAdjust="spacingAndGlyphs" textLength="38" x="321.5" y="177.4424">int army</text><rect fill="none" height="6" style="stroke: #C82930; stroke-width: 1.0;" width="6" x="309.5" y="185.2773"/><text fill="#000000" font-family="sans-serif" font-size="11" lengthAdjust="spacingAndGlyphs" textLength="143" x="321.5" y="191.2783">ArrayList&lt;Country&gt; countries</text><line style="stroke: #A80036; stroke-width: 1.5;" x1="302.5" x2="568.5" y1="197.6953" y2="197.6953"/><ellipse cx="312.5" cy="210.1133" fill="#84BE84" rx="3" ry="3" style="stroke: #038048; stroke-width: 1.0;"/><text fill="#000000" font-family="sans-serif" font-size="11" lengthAdjust="spacingAndGlyphs" textLength="151" x="321.5" y="213.1143">Continent(String name,int army)</text><ellipse cx="312.5" cy="223.9492" fill="#84BE84" rx="3" ry="3" style="stroke: #038048; stroke-width: 1.0;"/><text fill="#000000" font-family="sans-serif" font-size="11" lengthAdjust="spacingAndGlyphs" textLength="114" x="321.5" y="226.9502">void initializeCountries()</text><ellipse cx="312.5" cy="237.7852" fill="#84BE84" rx="3" ry="3" style="stroke: #038048; stroke-width: 1.0;"/><text fill="#000000" font-family="sans-serif" font-size="11" lengthAdjust="spacingAndGlyphs" textLength="65" x="321.5" y="240.7861">int getOrder()</text><ellipse cx="312.5" cy="251.6211" fill="#84BE84" rx="3" ry="3" style="stroke: #038048; stroke-width: 1.0;"/><text fill="#000000" font-family="sans-serif" font-size="11" lengthAdjust="spacingAndGlyphs" textLength="63" x="321.5" y="254.6221">int getArmy()</text><ellipse cx="312.5" cy="265.457" fill="#84BE84" rx="3" ry="3" style="stroke: #038048; stroke-width: 1.0;"/><text fill="#000000" font-family="sans-serif" font-size="11" lengthAdjust="spacingAndGlyphs" textLength="167" x="321.5" y="268.458">ArrayList&lt;Country&gt; getCountries()</text><ellipse cx="312.5" cy="279.293" fill="#84BE84" rx="3" ry="3" style="stroke: #038048; stroke-width: 1.0;"/><text fill="#000000" font-family="sans-serif" font-size="11" lengthAdjust="spacingAndGlyphs" textLength="81" x="321.5" y="282.2939">String getName()</text><ellipse cx="312.5" cy="293.1289" fill="#84BE84" rx="3" ry="3" style="stroke: #038048; stroke-width: 1.0;"/><text fill="#000000" font-family="sans-serif" font-size="11" lengthAdjust="spacingAndGlyphs" textLength="107" x="321.5" y="296.1299">Player getConquerer()</text><ellipse cx="312.5" cy="306.9648" fill="#84BE84" rx="3" ry="3" style="stroke: #038048; stroke-width: 1.0;"/><text fill="#000000" font-family="sans-serif" font-size="11" lengthAdjust="spacingAndGlyphs" textLength="154" x="321.5" y="309.9658">boolean isContinentConnected()</text><ellipse cx="312.5" cy="320.8008" fill="#84BE84" rx="3" ry="3" style="stroke: #038048; stroke-width: 1.0;"/><text fill="#000000" font-family="sans-serif" font-size="11" lengthAdjust="spacingAndGlyphs" textLength="214" x="321.5" y="323.8018">void view(PrintStream printStream,int indent)</text><ellipse cx="312.5" cy="334.6367" fill="#84BE84" rx="3" ry="3" style="stroke: #038048; stroke-width: 1.0;"/><text fill="#000000" font-family="sans-serif" font-size="11" lengthAdjust="spacingAndGlyphs" textLength="129" x="321.5" y="337.6377">void viewWithoutCountry()</text><ellipse cx="312.5" cy="348.4727" fill="#84BE84" rx="3" ry="3" style="stroke: #038048; stroke-width: 1.0;"/><text fill="#000000" font-family="sans-serif" font-size="11" lengthAdjust="spacingAndGlyphs" textLength="242" x="321.5" y="351.4736">void viewWithoutCountry(PrintStream printStream)</text></a><!--class soen6441riskgame.controllers.MapController--><a target="_parent" xlink:actuate="onRequest" xlink:href="../../soen6441riskgame/controllers/MapController.html" xlink:show="new" xlink:title="soen6441riskgame.controllers.MapController" xlink:type="simple"><rect fill="#FFFFFF" filter="url(#fczy7fnkgg2zt)" height="40.1875" id="soen6441riskgame.controllers.MapController" style="stroke: #A80036; stroke-width: 1.5;" width="171" x="6" y="8"/><rect fill="#FFFFFF" height="40.1875" style="stroke: #A80036; stroke-width: 1.5;" width="171" x="6" y="8"/><ellipse cx="21" cy="28.0938" fill="#ADD1B2" rx="11" ry="11" style="stroke: #A80036; stroke-width: 1.0;"/><path d="M23.7656,23.9688 Q23.9219,23.75 24.1094,23.6406 Q24.2969,23.5313 24.5156,23.5313 Q24.8906,23.5313 25.125,23.7891 Q25.3594,24.0469 25.3594,24.6563 L25.3594,26.1094 Q25.3594,26.7188 25.125,26.9844 Q24.8906,27.25 24.5156,27.25 Q24.1719,27.25 23.9688,27.0469 Q23.7656,26.8594 23.6563,26.3438 Q23.6094,25.9844 23.4219,25.7969 Q23.0938,25.4219 22.4844,25.2031 Q21.875,24.9844 21.25,24.9844 Q20.4844,24.9844 19.8516,25.3125 Q19.2188,25.6406 18.7266,26.3906 Q18.2344,27.1406 18.2344,28.1719 L18.2344,29.2656 Q18.2344,30.5 19.125,31.3203 Q20.0156,32.1406 21.6094,32.1406 Q22.5469,32.1406 23.2031,31.8906 Q23.5938,31.7344 24.0156,31.2969 Q24.2813,31.0313 24.4297,30.9531 Q24.5781,30.875 24.7813,30.875 Q25.1094,30.875 25.3672,31.1328 Q25.625,31.3906 25.625,31.7344 Q25.625,32.0781 25.2813,32.4844 Q24.7813,33.0625 23.9844,33.3906 Q22.9063,33.8438 21.6094,33.8438 Q20.0938,33.8438 18.8906,33.2188 Q17.9063,32.7188 17.2188,31.6484 Q16.5313,30.5781 16.5313,29.2969 L16.5313,28.1406 Q16.5313,26.8125 17.1484,25.6641 Q17.7656,24.5156 18.8594,23.8984 Q19.9531,23.2813 21.1875,23.2813 Q21.9219,23.2813 22.5703,23.4453 Q23.2188,23.6094 23.7656,23.9688 Z "/><text fill="#000000" font-family="sans-serif" font-size="14" font-weight="bold" lengthAdjust="spacingAndGlyphs" textLength="101" x="54" y="27.5332">MapController</text><text fill="#000000" font-family="sans-serif" font-size="10" lengthAdjust="spacingAndGlyphs" textLength="139" x="35" y="40.9902">soen6441riskgame.controllers</text></a><!--class soen6441riskgame.models.Country--><a target="_parent" xlink:actuate="onRequest" xlink:href="../../soen6441riskgame/models/Country.html" xlink:show="new" xlink:title="soen6441riskgame.models.Country" xlink:type="simple"><rect fill="#FEFECE" filter="url(#fczy7fnkgg2zt)" height="40.1875" id="soen6441riskgame.models.Country" style="stroke: #A80036; stroke-width: 1.5;" width="156" x="71.5" y="418"/><ellipse cx="86.5" cy="438.0938" fill="#ADD1B2" rx="11" ry="11" style="stroke: #A80036; stroke-width: 1.0;"/><path d="M89.2656,433.9688 Q89.4219,433.75 89.6094,433.6406 Q89.7969,433.5313 90.0156,433.5313 Q90.3906,433.5313 90.625,433.7891 Q90.8594,434.0469 90.8594,434.6563 L90.8594,436.1094 Q90.8594,436.7188 90.625,436.9844 Q90.3906,437.25 90.0156,437.25 Q89.6719,437.25 89.4688,437.0469 Q89.2656,436.8594 89.1563,436.3438 Q89.1094,435.9844 88.9219,435.7969 Q88.5938,435.4219 87.9844,435.2031 Q87.375,434.9844 86.75,434.9844 Q85.9844,434.9844 85.3516,435.3125 Q84.7188,435.6406 84.2266,436.3906 Q83.7344,437.1406 83.7344,438.1719 L83.7344,439.2656 Q83.7344,440.5 84.625,441.3203 Q85.5156,442.1406 87.1094,442.1406 Q88.0469,442.1406 88.7031,441.8906 Q89.0938,441.7344 89.5156,441.2969 Q89.7813,441.0313 89.9297,440.9531 Q90.0781,440.875 90.2813,440.875 Q90.6094,440.875 90.8672,441.1328 Q91.125,441.3906 91.125,441.7344 Q91.125,442.0781 90.7813,442.4844 Q90.2813,443.0625 89.4844,443.3906 Q88.4063,443.8438 87.1094,443.8438 Q85.5938,443.8438 84.3906,443.2188 Q83.4063,442.7188 82.7188,441.6484 Q82.0313,440.5781 82.0313,439.2969 L82.0313,438.1406 Q82.0313,436.8125 82.6484,435.6641 Q83.2656,434.5156 84.3594,433.8984 Q85.4531,433.2813 86.6875,433.2813 Q87.4219,433.2813 88.0703,433.4453 Q88.7188,433.6094 89.2656,433.9688 Z "/><text fill="#000000" font-family="sans-serif" font-size="14" font-weight="bold" lengthAdjust="spacingAndGlyphs" textLength="55" x="135" y="437.5332">Country</text><text fill="#000000" font-family="sans-serif" font-size="10" lengthAdjust="spacingAndGlyphs" textLength="124" x="100.5" y="450.9902">soen6441riskgame.models</text></a><!--class soen6441riskgame.models.Viewable--><a target="_parent" xlink:actuate="onRequest" xlink:href="../../soen6441riskgame/models/Viewable.html" xlink:show="new" xlink:title="soen6441riskgame.models.Viewable" xlink:type="simple"><rect fill="#FEFECE" filter="url(#fczy7fnkgg2zt)" height="40.1875" id="soen6441riskgame.models.Viewable" style="stroke: #A80036; stroke-width: 1.5;" width="156" x="262.5" y="418"/><ellipse cx="277.5" cy="438.0938" fill="#B4A7E5" rx="11" ry="11" style="stroke: #A80036; stroke-width: 1.0;"/><path d="M278.4531,434.7344 L278.4531,441.3906 L280.1719,441.3906 Q280.7813,441.3906 281.0469,441.625 Q281.3125,441.8594 281.3125,442.25 Q281.3125,442.625 281.0469,442.8594 Q280.7813,443.0938 280.1719,443.0938 L275.0313,443.0938 Q274.4219,443.0938 274.1563,442.8594 Q273.8906,442.625 273.8906,442.2344 Q273.8906,441.8594 274.1563,441.625 Q274.4219,441.3906 275.0313,441.3906 L276.75,441.3906 L276.75,434.7344 L275.0313,434.7344 Q274.4219,434.7344 274.1563,434.5 Q273.8906,434.2656 273.8906,433.875 Q273.8906,433.5 274.1563,433.2656 Q274.4219,433.0313 275.0313,433.0313 L280.1719,433.0313 Q280.7813,433.0313 281.0469,433.2656 Q281.3125,433.5 281.3125,433.875 Q281.3125,434.2656 281.0469,434.5 Q280.7813,434.7344 280.1719,434.7344 L278.4531,434.7344 Z "/><text fill="#000000" font-family="sans-serif" font-size="14" font-style="italic" font-weight="bold" lengthAdjust="spacingAndGlyphs" textLength="62" x="322.5" y="437.5332">Viewable</text><text fill="#000000" font-family="sans-serif" font-size="10" font-style="italic" lengthAdjust="spacingAndGlyphs" textLength="124" x="291.5" y="450.9902">soen6441riskgame.models</text></a><!--class soen6441riskgame.models.Player--><a target="_parent" xlink:actuate="onRequest" xlink:href="../../soen6441riskgame/models/Player.html" xlink:show="new" xlink:title="soen6441riskgame.models.Player" xlink:type="simple"><rect fill="#FEFECE" filter="url(#fczy7fnkgg2zt)" height="40.1875" id="soen6441riskgame.models.Player" style="stroke: #A80036; stroke-width: 1.5;" width="156" x="453.5" y="418"/><ellipse cx="468.5" cy="438.0938" fill="#ADD1B2" rx="11" ry="11" style="stroke: #A80036; stroke-width: 1.0;"/><path d="M471.2656,433.9688 Q471.4219,433.75 471.6094,433.6406 Q471.7969,433.5313 472.0156,433.5313 Q472.3906,433.5313 472.625,433.7891 Q472.8594,434.0469 472.8594,434.6563 L472.8594,436.1094 Q472.8594,436.7188 472.625,436.9844 Q472.3906,437.25 472.0156,437.25 Q471.6719,437.25 471.4688,437.0469 Q471.2656,436.8594 471.1563,436.3438 Q471.1094,435.9844 470.9219,435.7969 Q470.5938,435.4219 469.9844,435.2031 Q469.375,434.9844 468.75,434.9844 Q467.9844,434.9844 467.3516,435.3125 Q466.7188,435.6406 466.2266,436.3906 Q465.7344,437.1406 465.7344,438.1719 L465.7344,439.2656 Q465.7344,440.5 466.625,441.3203 Q467.5156,442.1406 469.1094,442.1406 Q470.0469,442.1406 470.7031,441.8906 Q471.0938,441.7344 471.5156,441.2969 Q471.7813,441.0313 471.9297,440.9531 Q472.0781,440.875 472.2813,440.875 Q472.6094,440.875 472.8672,441.1328 Q473.125,441.3906 473.125,441.7344 Q473.125,442.0781 472.7813,442.4844 Q472.2813,443.0625 471.4844,443.3906 Q470.4063,443.8438 469.1094,443.8438 Q467.5938,443.8438 466.3906,443.2188 Q465.4063,442.7188 464.7188,441.6484 Q464.0313,440.5781 464.0313,439.2969 L464.0313,438.1406 Q464.0313,436.8125 464.6484,435.6641 Q465.2656,434.5156 466.3594,433.8984 Q467.4531,433.2813 468.6875,433.2813 Q469.4219,433.2813 470.0703,433.4453 Q470.7188,433.6094 471.2656,433.9688 Z "/><text fill="#000000" font-family="sans-serif" font-size="14" font-weight="bold" lengthAdjust="spacingAndGlyphs" textLength="43" x="523" y="437.5332">Player</text><text fill="#000000" font-family="sans-serif" font-size="10" lengthAdjust="spacingAndGlyphs" textLength="124" x="482.5" y="450.9902">soen6441riskgame.models</text></a><!--class java.io.PrintStream--><rect fill="#D3D3D3" filter="url(#fczy7fnkgg2zt)" height="40.1875" id="java.io.PrintStream" style="stroke: #A80036; stroke-width: 1.5;" width="114" x="644.5" y="418"/><rect fill="#D3D3D3" height="40.1875" style="stroke: #A80036; stroke-width: 1.5;" width="114" x="644.5" y="418"/><ellipse cx="659.5" cy="438.0938" fill="#ADD1B2" rx="11" ry="11" style="stroke: #A80036; stroke-width: 1.0;"/><path d="M662.2656,433.9688 Q662.4219,433.75 662.6094,433.6406 Q662.7969,433.5313 663.0156,433.5313 Q663.3906,433.5313 663.625,433.7891 Q663.8594,434.0469 663.8594,434.6563 L663.8594,436.1094 Q663.8594,436.7188 663.625,436.9844 Q663.3906,437.25 663.0156,437.25 Q662.6719,437.25 662.4688,437.0469 Q662.2656,436.8594 662.1563,436.3438 Q662.1094,435.9844 661.9219,435.7969 Q661.5938,435.4219 660.9844,435.2031 Q660.375,434.9844 659.75,434.9844 Q658.9844,434.9844 658.3516,435.3125 Q657.7188,435.6406 657.2266,436.3906 Q656.7344,437.1406 656.7344,438.1719 L656.7344,439.2656 Q656.7344,440.5 657.625,441.3203 Q658.5156,442.1406 660.1094,442.1406 Q661.0469,442.1406 661.7031,441.8906 Q662.0938,441.7344 662.5156,441.2969 Q662.7813,441.0313 662.9297,440.9531 Q663.0781,440.875 663.2813,440.875 Q663.6094,440.875 663.8672,441.1328 Q664.125,441.3906 664.125,441.7344 Q664.125,442.0781 663.7813,442.4844 Q663.2813,443.0625 662.4844,443.3906 Q661.4063,443.8438 660.1094,443.8438 Q658.5938,443.8438 657.3906,443.2188 Q656.4063,442.7188 655.7188,441.6484 Q655.0313,440.5781 655.0313,439.2969 L655.0313,438.1406 Q655.0313,436.8125 655.6484,435.6641 Q656.2656,434.5156 657.3594,433.8984 Q658.4531,433.2813 659.6875,433.2813 Q660.4219,433.2813 661.0703,433.4453 Q661.7188,433.6094 662.2656,433.9688 Z "/><text fill="#000000" font-family="sans-serif" font-size="14" font-weight="bold" lengthAdjust="spacingAndGlyphs" textLength="82" x="673.5" y="437.5332">PrintStream</text><text fill="#000000" font-family="sans-serif" font-size="10" lengthAdjust="spacingAndGlyphs" textLength="32" x="698.5" y="450.9902">java.io</text><!--class soen6441riskgame.models.serializers.SerializableGame--><a target="_parent" xlink:actuate="onRequest" xlink:href="../../soen6441riskgame/models/serializers/SerializableGame.html" xlink:show="new" xlink:title="soen6441riskgame.models.serializers.SerializableGame" xlink:type="simple"><rect fill="#FFFFFF" filter="url(#fczy7fnkgg2zt)" height="40.1875" id="soen6441riskgame.models.serializers.SerializableGame" style="stroke: #A80036; stroke-width: 1.5;" width="205" x="212" y="8"/><rect fill="#FFFFFF" height="40.1875" style="stroke: #A80036; stroke-width: 1.5;" width="205" x="212" y="8"/><ellipse cx="227" cy="28.0938" fill="#ADD1B2" rx="11" ry="11" style="stroke: #A80036; stroke-width: 1.0;"/><path d="M229.7656,23.9688 Q229.9219,23.75 230.1094,23.6406 Q230.2969,23.5313 230.5156,23.5313 Q230.8906,23.5313 231.125,23.7891 Q231.3594,24.0469 231.3594,24.6563 L231.3594,26.1094 Q231.3594,26.7188 231.125,26.9844 Q230.8906,27.25 230.5156,27.25 Q230.1719,27.25 229.9688,27.0469 Q229.7656,26.8594 229.6563,26.3438 Q229.6094,25.9844 229.4219,25.7969 Q229.0938,25.4219 228.4844,25.2031 Q227.875,24.9844 227.25,24.9844 Q226.4844,24.9844 225.8516,25.3125 Q225.2188,25.6406 224.7266,26.3906 Q224.2344,27.1406 224.2344,28.1719 L224.2344,29.2656 Q224.2344,30.5 225.125,31.3203 Q226.0156,32.1406 227.6094,32.1406 Q228.5469,32.1406 229.2031,31.8906 Q229.5938,31.7344 230.0156,31.2969 Q230.2813,31.0313 230.4297,30.9531 Q230.5781,30.875 230.7813,30.875 Q231.1094,30.875 231.3672,31.1328 Q231.625,31.3906 231.625,31.7344 Q231.625,32.0781 231.2813,32.4844 Q230.7813,33.0625 229.9844,33.3906 Q228.9063,33.8438 227.6094,33.8438 Q226.0938,33.8438 224.8906,33.2188 Q223.9063,32.7188 223.2188,31.6484 Q222.5313,30.5781 222.5313,29.2969 L222.5313,28.1406 Q222.5313,26.8125 223.1484,25.6641 Q223.7656,24.5156 224.8594,23.8984 Q225.9531,23.2813 227.1875,23.2813 Q227.9219,23.2813 228.5703,23.4453 Q229.2188,23.6094 229.7656,23.9688 Z "/><text fill="#000000" font-family="sans-serif" font-size="14" font-weight="bold" lengthAdjust="spacingAndGlyphs" textLength="121" x="267" y="27.5332">SerializableGame</text><text fill="#000000" font-family="sans-serif" font-size="10" lengthAdjust="spacingAndGlyphs" textLength="173" x="241" y="40.9902">soen6441riskgame.models.serializers</text></a><!--class soen6441riskgame.models.serializers.SerializableGame.Builder--><a target="_parent" xlink:actuate="onRequest" xlink:href="../../soen6441riskgame/models/serializers/SerializableGame.Builder.html" xlink:show="new" xlink:title="soen6441riskgame.models.serializers.SerializableGame.Builder" xlink:type="simple"><rect fill="#FFFFFF" filter="url(#fczy7fnkgg2zt)" height="40.1875" id="soen6441riskgame.models.serializers.SerializableGame.Builder" style="stroke: #A80036; stroke-width: 1.5;" width="208" x="452.5" y="8"/><rect fill="#FFFFFF" height="40.1875" style="stroke: #A80036; stroke-width: 1.5;" width="208" x="452.5" y="8"/><ellipse cx="467.5" cy="28.0938" fill="#ADD1B2" rx="11" ry="11" style="stroke: #A80036; stroke-width: 1.0;"/><path d="M470.2656,23.9688 Q470.4219,23.75 470.6094,23.6406 Q470.7969,23.5313 471.0156,23.5313 Q471.3906,23.5313 471.625,23.7891 Q471.8594,24.0469 471.8594,24.6563 L471.8594,26.1094 Q471.8594,26.7188 471.625,26.9844 Q471.3906,27.25 471.0156,27.25 Q470.6719,27.25 470.4688,27.0469 Q470.2656,26.8594 470.1563,26.3438 Q470.1094,25.9844 469.9219,25.7969 Q469.5938,25.4219 468.9844,25.2031 Q468.375,24.9844 467.75,24.9844 Q466.9844,24.9844 466.3516,25.3125 Q465.7188,25.6406 465.2266,26.3906 Q464.7344,27.1406 464.7344,28.1719 L464.7344,29.2656 Q464.7344,30.5 465.625,31.3203 Q466.5156,32.1406 468.1094,32.1406 Q469.0469,32.1406 469.7031,31.8906 Q470.0938,31.7344 470.5156,31.2969 Q470.7813,31.0313 470.9297,30.9531 Q471.0781,30.875 471.2813,30.875 Q471.6094,30.875 471.8672,31.1328 Q472.125,31.3906 472.125,31.7344 Q472.125,32.0781 471.7813,32.4844 Q471.2813,33.0625 470.4844,33.3906 Q469.4063,33.8438 468.1094,33.8438 Q466.5938,33.8438 465.3906,33.2188 Q464.4063,32.7188 463.7188,31.6484 Q463.0313,30.5781 463.0313,29.2969 L463.0313,28.1406 Q463.0313,26.8125 463.6484,25.6641 Q464.2656,24.5156 465.3594,23.8984 Q466.4531,23.2813 467.6875,23.2813 Q468.4219,23.2813 469.0703,23.4453 Q469.7188,23.6094 470.2656,23.9688 Z "/><text fill="#000000" font-family="sans-serif" font-size="14" font-weight="bold" lengthAdjust="spacingAndGlyphs" textLength="176" x="481.5" y="27.5332">SerializableGame.Builder</text><text fill="#000000" font-family="sans-serif" font-size="10" lengthAdjust="spacingAndGlyphs" textLength="173" x="483" y="40.9902">soen6441riskgame.models.serializers</text></a><!--class soen6441riskgame.singleton.GameBoardMap--><a target="_parent" xlink:actuate="onRequest" xlink:href="../../soen6441riskgame/singleton/GameBoardMap.html" xlink:show="new" xlink:title="soen6441riskgame.singleton.GameBoardMap" xlink:type="simple"><rect fill="#FFFFFF" filter="url(#fczy7fnkgg2zt)" height="40.1875" id="soen6441riskgame.singleton.GameBoardMap" style="stroke: #A80036; stroke-width: 1.5;" width="165" x="696" y="8"/><rect fill="#FFFFFF" height="40.1875" style="stroke: #A80036; stroke-width: 1.5;" width="165" x="696" y="8"/><ellipse cx="711" cy="28.0938" fill="#ADD1B2" rx="11" ry="11" style="stroke: #A80036; stroke-width: 1.0;"/><path d="M713.7656,23.9688 Q713.9219,23.75 714.1094,23.6406 Q714.2969,23.5313 714.5156,23.5313 Q714.8906,23.5313 715.125,23.7891 Q715.3594,24.0469 715.3594,24.6563 L715.3594,26.1094 Q715.3594,26.7188 715.125,26.9844 Q714.8906,27.25 714.5156,27.25 Q714.1719,27.25 713.9688,27.0469 Q713.7656,26.8594 713.6563,26.3438 Q713.6094,25.9844 713.4219,25.7969 Q713.0938,25.4219 712.4844,25.2031 Q711.875,24.9844 711.25,24.9844 Q710.4844,24.9844 709.8516,25.3125 Q709.2188,25.6406 708.7266,26.3906 Q708.2344,27.1406 708.2344,28.1719 L708.2344,29.2656 Q708.2344,30.5 709.125,31.3203 Q710.0156,32.1406 711.6094,32.1406 Q712.5469,32.1406 713.2031,31.8906 Q713.5938,31.7344 714.0156,31.2969 Q714.2813,31.0313 714.4297,30.9531 Q714.5781,30.875 714.7813,30.875 Q715.1094,30.875 715.3672,31.1328 Q715.625,31.3906 715.625,31.7344 Q715.625,32.0781 715.2813,32.4844 Q714.7813,33.0625 713.9844,33.3906 Q712.9063,33.8438 711.6094,33.8438 Q710.0938,33.8438 708.8906,33.2188 Q707.9063,32.7188 707.2188,31.6484 Q706.5313,30.5781 706.5313,29.2969 L706.5313,28.1406 Q706.5313,26.8125 707.1484,25.6641 Q707.7656,24.5156 708.8594,23.8984 Q709.9531,23.2813 711.1875,23.2813 Q711.9219,23.2813 712.5703,23.4453 Q713.2188,23.6094 713.7656,23.9688 Z "/><text fill="#000000" font-family="sans-serif" font-size="14" font-weight="bold" lengthAdjust="spacingAndGlyphs" textLength="112" x="735.5" y="27.5332">GameBoardMap</text><text fill="#000000" font-family="sans-serif" font-size="10" lengthAdjust="spacingAndGlyphs" textLength="133" x="725" y="40.9902">soen6441riskgame.singleton</text></a><!--link soen6441riskgame.controllers.MapController to soen6441riskgame.models.Continent--><path d="M124.25,48.185 C124.25,87.603 124.25,171 124.25,171 C124.25,171 296.244,171 296.244,171 " fill="none" id="soen6441riskgame.controllers.MapController-soen6441riskgame.models.Continent" style="stroke: #A80036; stroke-width: 1.0; stroke-dasharray: 7.0,7.0;"/><polygon fill="#A80036" points="301.244,171,292.244,167,296.244,171,292.244,175,301.244,171" style="stroke: #A80036; stroke-width: 1.0;"/><!--link soen6441riskgame.models.Continent to soen6441riskgame.models.Country--><path d="M301.406,296 C258.708,296 222.333,296 222.333,296 C222.333,296 222.333,412.956 222.333,412.956 " fill="none" id="soen6441riskgame.models.Continent-soen6441riskgame.models.Country" style="stroke: #A80036; stroke-width: 1.0; stroke-dasharray: 7.0,7.0;"/><polygon fill="#A80036" points="222.333,417.956,226.333,408.956,222.333,412.956,218.333,408.956,222.333,417.956" style="stroke: #A80036; stroke-width: 1.0;"/><!--link soen6441riskgame.models.Country to soen6441riskgame.models.Continent--><path d="M217.167,417.9705 C217.167,366.3872 217.167,233 217.167,233 C217.167,233 296.268,233 296.268,233 " fill="none" id="soen6441riskgame.models.Country-soen6441riskgame.models.Continent" style="stroke: #A80036; stroke-width: 1.0;"/><polygon fill="#A80036" points="301.268,233,292.268,229,296.268,233,292.268,237,301.268,233" style="stroke: #A80036; stroke-width: 1.0;"/><text fill="#000000" font-family="sans-serif" font-size="13" lengthAdjust="spacingAndGlyphs" textLength="53" x="240.4825" y="230.1188">continent</text><!--link soen6441riskgame.models.Continent to soen6441riskgame.models.Viewable--><path d="M360,358.1546 C360,358.1546 360,397.7328 360,397.7328 " fill="none" id="soen6441riskgame.models.Continent-soen6441riskgame.models.Viewable" style="stroke: #A80036; stroke-width: 1.0; stroke-dasharray: 7.0,7.0;"/><polygon fill="none" points="367,397.7328,360,417.7328,353,397.7328,367,397.7328" style="stroke: #A80036; stroke-width: 1.0;"/><!--link soen6441riskgame.models.Continent to soen6441riskgame.models.Player--><path d="M492.167,358.1546 C492.167,358.1546 492.167,412.7328 492.167,412.7328 " fill="none" id="soen6441riskgame.models.Continent-soen6441riskgame.models.Player" style="stroke: #A80036; stroke-width: 1.0; stroke-dasharray: 7.0,7.0;"/><polygon fill="#A80036" points="492.167,417.7328,496.167,408.7328,492.167,412.7328,488.167,408.7328,492.167,417.7328" style="stroke: #A80036; stroke-width: 1.0;"/><!--link soen6441riskgame.models.Player to soen6441riskgame.models.Continent--><path d="M530.833,417.9705 C530.833,417.9705 530.833,363.4035 530.833,363.4035 " fill="none" id="soen6441riskgame.models.Player-soen6441riskgame.models.Continent" style="stroke: #A80036; stroke-width: 1.0; stroke-dasharray: 7.0,7.0;"/><polygon fill="#A80036" points="530.833,358.4035,526.833,367.4035,530.833,363.4035,534.833,367.4035,530.833,358.4035" style="stroke: #A80036; stroke-width: 1.0;"/><!--link soen6441riskgame.models.Continent to java.io.PrintStream--><path d="M569.533,275 C614.057,275 652.5,275 652.5,275 C652.5,275 652.5,412.6855 652.5,412.6855 " fill="none" id="soen6441riskgame.models.Continent-java.io.PrintStream" style="stroke: #A80036; stroke-width: 1.0; stroke-dasharray: 7.0,7.0;"/><polygon fill="#A80036" points="652.5,417.6855,656.5,408.6855,652.5,412.6855,648.5,408.6855,652.5,417.6855" style="stroke: #A80036; stroke-width: 1.0;"/><!--link soen6441riskgame.models.serializers.SerializableGame to soen6441riskgame.models.Continent--><path d="M359.25,48.03 C359.25,48.03 359.25,102.596 359.25,102.596 " fill="none" id="soen6441riskgame.models.serializers.SerializableGame-soen6441riskgame.models.Continent" style="stroke: #A80036; stroke-width: 1.0;"/><polygon fill="#A80036" points="359.25,107.596,363.25,98.596,359.25,102.596,355.25,98.596,359.25,107.596" style="stroke: #A80036; stroke-width: 1.0;"/><text fill="#000000" font-family="sans-serif" font-size="13" lengthAdjust="spacingAndGlyphs" textLength="69" x="283.5012" y="96.9759">continents *</text><!--link soen6441riskgame.models.serializers.SerializableGame.Builder to soen6441riskgame.models.Continent--><path d="M511,48.03 C511,48.03 511,102.596 511,102.596 " fill="none" id="soen6441riskgame.models.serializers.SerializableGame.Builder-soen6441riskgame.models.Continent" style="stroke: #A80036; stroke-width: 1.0;"/><polygon fill="#A80036" points="511,107.596,515,98.596,511,102.596,507,98.596,511,107.596" style="stroke: #A80036; stroke-width: 1.0;"/><text fill="#000000" font-family="sans-serif" font-size="13" lengthAdjust="spacingAndGlyphs" textLength="69" x="444.4984" y="96.9759">continents *</text><!--link soen6441riskgame.singleton.GameBoardMap to soen6441riskgame.models.Continent--><path d="M727.25,48.11 C727.25,91.902 727.25,192 727.25,192 C727.25,192 574.847,192 574.847,192 " fill="none" id="soen6441riskgame.singleton.GameBoardMap-soen6441riskgame.models.Continent" style="stroke: #A80036; stroke-width: 1.0; stroke-dasharray: 7.0,7.0;"/><polygon fill="#A80036" points="569.847,192,578.847,196,574.847,192,578.847,188,569.847,192" style="stroke: #A80036; stroke-width: 1.0;"/><!--
@startuml

skinparam svgLinkTarget _parent
skinparam linetype ortho
set namespaceSeparator none
class "<b><size:14>Continent</b>\n<size:10>soen6441riskgame.models" as soen6441riskgame.models.Continent  [[../../soen6441riskgame/models/Continent.html{soen6441riskgame.models.Continent}]] {
-String name
-int army
-ArrayList<Country> countries
+Continent(String name,int army)
+void initializeCountries()
+int getOrder()
+int getArmy()
+ArrayList<Country> getCountries()
+String getName()
+Player getConquerer()
+boolean isContinentConnected()
+void view(PrintStream printStream,int indent)
+void viewWithoutCountry()
+void viewWithoutCountry(PrintStream printStream)
}


class "<b><size:14>MapController</b>\n<size:10>soen6441riskgame.controllers" as soen6441riskgame.controllers.MapController  [[../../soen6441riskgame/controllers/MapController.html{soen6441riskgame.controllers.MapController}]] #white {
}

hide soen6441riskgame.controllers.MapController fields
hide soen6441riskgame.controllers.MapController methods

soen6441riskgame.controllers.MapController ..> soen6441riskgame.models.Continent


class "<b><size:14>Country</b>\n<size:10>soen6441riskgame.models" as soen6441riskgame.models.Country  [[../../soen6441riskgame/models/Country.html{soen6441riskgame.models.Country}]] {
}

hide soen6441riskgame.models.Country fields
hide soen6441riskgame.models.Country methods

soen6441riskgame.models.Continent ..> soen6441riskgame.models.Country


interface "<b><size:14>Viewable</b>\n<size:10>soen6441riskgame.models" as soen6441riskgame.models.Viewable  [[../../soen6441riskgame/models/Viewable.html{soen6441riskgame.models.Viewable}]] {
}

hide soen6441riskgame.models.Viewable fields
hide soen6441riskgame.models.Viewable methods

soen6441riskgame.models.Continent ..|> soen6441riskgame.models.Viewable

class "<b><size:14>Player</b>\n<size:10>soen6441riskgame.models" as soen6441riskgame.models.Player  [[../../soen6441riskgame/models/Player.html{soen6441riskgame.models.Player}]] {
}

hide soen6441riskgame.models.Player fields
hide soen6441riskgame.models.Player methods

soen6441riskgame.models.Continent ..> soen6441riskgame.models.Player

class "<b><size:14>PrintStream</b>\n<size:10>java.io" as java.io.PrintStream  #lightgrey {
}

hide java.io.PrintStream fields
hide java.io.PrintStream methods

soen6441riskgame.models.Continent ..> java.io.PrintStream

soen6441riskgame.models.Country - ->  "continent" soen6441riskgame.models.Continent

soen6441riskgame.models.Player ..> soen6441riskgame.models.Continent

class "<b><size:14>SerializableGame</b>\n<size:10>soen6441riskgame.models.serializers" as soen6441riskgame.models.serializers.SerializableGame  [[../../soen6441riskgame/models/serializers/SerializableGame.html{soen6441riskgame.models.serializers.SerializableGame}]] #white {
}

hide soen6441riskgame.models.serializers.SerializableGame fields
hide soen6441riskgame.models.serializers.SerializableGame methods

soen6441riskgame.models.serializers.SerializableGame - ->  "continents *" soen6441riskgame.models.Continent

class "<b><size:14>SerializableGame.Builder</b>\n<size:10>soen6441riskgame.models.serializers" as soen6441riskgame.models.serializers.SerializableGame.Builder  [[../../soen6441riskgame/models/serializers/SerializableGame.Builder.html{soen6441riskgame.models.serializers.SerializableGame.Builder}]] #white {
}

hide soen6441riskgame.models.serializers.SerializableGame.Builder fields
hide soen6441riskgame.models.serializers.SerializableGame.Builder methods

soen6441riskgame.models.serializers.SerializableGame.Builder - ->  "continents *" soen6441riskgame.models.Continent

class "<b><size:14>GameBoardMap</b>\n<size:10>soen6441riskgame.singleton" as soen6441riskgame.singleton.GameBoardMap  [[../../soen6441riskgame/singleton/GameBoardMap.html{soen6441riskgame.singleton.GameBoardMap}]] #white {
}

hide soen6441riskgame.singleton.GameBoardMap fields
hide soen6441riskgame.singleton.GameBoardMap methods

soen6441riskgame.singleton.GameBoardMap ..> soen6441riskgame.models.Continent


@enduml

PlantUML version 1.2017.15(Mon Jul 03 12:45:34 EDT 2017)
(GPL source distribution)
Java Runtime: Java(TM) SE Runtime Environment
JVM: Java HotSpot(TM) 64-Bit Server VM
Java Version: 1.8.0_231-b11
Operating System: Windows 10
OS Version: 10.0
Default Encoding: Cp1252
Language: en
Country: US
--></g></svg>