<?xml version="1.0" encoding="UTF-8" standalone="no"?><svg xmlns="http://www.w3.org/2000/svg" xmlns:xlink="http://www.w3.org/1999/xlink" contentScriptType="application/ecmascript" contentStyleType="text/css" height="483px" preserveAspectRatio="none" style="width:1112px;height:483px;" version="1.1" viewBox="0 0 1112 483" width="1112px" zoomAndPan="magnify"><defs><filter height="300%" id="f1cyoed6036vk3" width="300%" x="-1" y="-1"><feGaussianBlur result="blurOut" stdDeviation="2.0"/><feColorMatrix in="blurOut" result="blurOut2" type="matrix" values="0 0 0 0 0 0 0 0 0 0 0 0 0 0 0 0 0 0 .4 0"/><feOffset dx="4.0" dy="4.0" in="blurOut2" result="blurOut3"/><feBlend in="SourceGraphic" in2="blurOut3" mode="normal"/></filter></defs><g><!--class soen6441riskgame.models.Continent--><a target="_parent" xlink:actuate="onRequest" xlink:href="../../soen6441riskgame/models/Continent.html" xlink:show="new" xlink:title="soen6441riskgame.models.Continent" xlink:type="simple"><rect fill="#FEFECE" filter="url(#f1cyoed6036vk3)" height="263.7266" id="soen6441riskgame.models.Continent" style="stroke: #A80036; stroke-width: 1.5;" width="268" x="420.5" y="108"/><ellipse cx="488.25" cy="128.0938" fill="#ADD1B2" rx="11" ry="11" style="stroke: #A80036; stroke-width: 1.0;"/><path d="M491.0156,123.9688 Q491.1719,123.75 491.3594,123.6406 Q491.5469,123.5313 491.7656,123.5313 Q492.1406,123.5313 492.375,123.7891 Q492.6094,124.0469 492.6094,124.6563 L492.6094,126.1094 Q492.6094,126.7188 492.375,126.9844 Q492.1406,127.25 491.7656,127.25 Q491.4219,127.25 491.2188,127.0469 Q491.0156,126.8594 490.9063,126.3438 Q490.8594,125.9844 490.6719,125.7969 Q490.3438,125.4219 489.7344,125.2031 Q489.125,124.9844 488.5,124.9844 Q487.7344,124.9844 487.1016,125.3125 Q486.4688,125.6406 485.9766,126.3906 Q485.4844,127.1406 485.4844,128.1719 L485.4844,129.2656 Q485.4844,130.5 486.375,131.3203 Q487.2656,132.1406 488.8594,132.1406 Q489.7969,132.1406 490.4531,131.8906 Q490.8438,131.7344 491.2656,131.2969 Q491.5313,131.0313 491.6797,130.9531 Q491.8281,130.875 492.0313,130.875 Q492.3594,130.875 492.6172,131.1328 Q492.875,131.3906 492.875,131.7344 Q492.875,132.0781 492.5313,132.4844 Q492.0313,133.0625 491.2344,133.3906 Q490.1563,133.8438 488.8594,133.8438 Q487.3438,133.8438 486.1406,133.2188 Q485.1563,132.7188 484.4688,131.6484 Q483.7813,130.5781 483.7813,129.2969 L483.7813,128.1406 Q483.7813,126.8125 484.3984,125.6641 Q485.0156,124.5156 486.1094,123.8984 Q487.2031,123.2813 488.4375,123.2813 Q489.1719,123.2813 489.8203,123.4453 Q490.4688,123.6094 491.0156,123.9688 Z "/><text fill="#000000" font-family="sans-serif" font-size="14" font-weight="bold" lengthAdjust="spacingAndGlyphs" textLength="69" x="536.25" y="127.5332">Continent</text><text fill="#000000" font-family="sans-serif" font-size="10" lengthAdjust="spacingAndGlyphs" textLength="124" x="508.75" y="140.9902">soen6441riskgame.models</text><line style="stroke: #A80036; stroke-width: 1.5;" x1="421.5" x2="687.5" y1="148.1875" y2="148.1875"/><rect fill="none" height="6" style="stroke: #C82930; stroke-width: 1.0;" width="6" x="428.5" y="157.6055"/><text fill="#000000" font-family="sans-serif" font-size="11" lengthAdjust="spacingAndGlyphs" textLength="57" x="440.5" y="163.6064">String name</text><rect fill="none" height="6" style="stroke: #C82930; stroke-width: 1.0;" width="6" x="428.5" y="171.4414"/><text fill="#000000" font-family="sans-serif" font-size="11" lengthAdjust="spacingAndGlyphs" textLength="38" x="440.5" y="177.4424">int army</text><rect fill="none" height="6" style="stroke: #C82930; stroke-width: 1.0;" width="6" x="428.5" y="185.2773"/><text fill="#000000" font-family="sans-serif" font-size="11" lengthAdjust="spacingAndGlyphs" textLength="143" x="440.5" y="191.2783">ArrayList&lt;Country&gt; countries</text><line style="stroke: #A80036; stroke-width: 1.5;" x1="421.5" x2="687.5" y1="197.6953" y2="197.6953"/><ellipse cx="431.5" cy="210.1133" fill="#84BE84" rx="3" ry="3" style="stroke: #038048; stroke-width: 1.0;"/><text fill="#000000" font-family="sans-serif" font-size="11" lengthAdjust="spacingAndGlyphs" textLength="151" x="440.5" y="213.1143">Continent(String name,int army)</text><ellipse cx="431.5" cy="223.9492" fill="#84BE84" rx="3" ry="3" style="stroke: #038048; stroke-width: 1.0;"/><text fill="#000000" font-family="sans-serif" font-size="11" lengthAdjust="spacingAndGlyphs" textLength="65" x="440.5" y="226.9502">int getOrder()</text><ellipse cx="431.5" cy="237.7852" fill="#84BE84" rx="3" ry="3" style="stroke: #038048; stroke-width: 1.0;"/><text fill="#000000" font-family="sans-serif" font-size="11" lengthAdjust="spacingAndGlyphs" textLength="63" x="440.5" y="240.7861">int getArmy()</text><ellipse cx="431.5" cy="251.6211" fill="#84BE84" rx="3" ry="3" style="stroke: #038048; stroke-width: 1.0;"/><text fill="#000000" font-family="sans-serif" font-size="11" lengthAdjust="spacingAndGlyphs" textLength="167" x="440.5" y="254.6221">ArrayList&lt;Country&gt; getCountries()</text><ellipse cx="431.5" cy="265.457" fill="#84BE84" rx="3" ry="3" style="stroke: #038048; stroke-width: 1.0;"/><text fill="#000000" font-family="sans-serif" font-size="11" lengthAdjust="spacingAndGlyphs" textLength="81" x="440.5" y="268.458">String getName()</text><ellipse cx="431.5" cy="279.293" fill="#84BE84" rx="3" ry="3" style="stroke: #038048; stroke-width: 1.0;"/><text fill="#000000" font-family="sans-serif" font-size="11" lengthAdjust="spacingAndGlyphs" textLength="107" x="440.5" y="282.2939">Player getConquerer()</text><ellipse cx="431.5" cy="293.1289" fill="#84BE84" rx="3" ry="3" style="stroke: #038048; stroke-width: 1.0;"/><text fill="#000000" font-family="sans-serif" font-size="11" lengthAdjust="spacingAndGlyphs" textLength="154" x="440.5" y="296.1299">boolean isContinentConnected()</text><ellipse cx="431.5" cy="306.9648" fill="#84BE84" rx="3" ry="3" style="stroke: #038048; stroke-width: 1.0;"/><text fill="#000000" font-family="sans-serif" font-size="11" lengthAdjust="spacingAndGlyphs" textLength="214" x="440.5" y="309.9658">void view(PrintStream printStream,int indent)</text><ellipse cx="431.5" cy="320.8008" fill="#84BE84" rx="3" ry="3" style="stroke: #038048; stroke-width: 1.0;"/><text fill="#000000" font-family="sans-serif" font-size="11" lengthAdjust="spacingAndGlyphs" textLength="129" x="440.5" y="323.8018">void viewWithoutCountry()</text><ellipse cx="431.5" cy="334.6367" fill="#84BE84" rx="3" ry="3" style="stroke: #038048; stroke-width: 1.0;"/><text fill="#000000" font-family="sans-serif" font-size="11" lengthAdjust="spacingAndGlyphs" textLength="242" x="440.5" y="337.6377">void viewWithoutCountry(PrintStream printStream)</text><ellipse cx="431.5" cy="348.4727" fill="#84BE84" rx="3" ry="3" style="stroke: #038048; stroke-width: 1.0;"/><text fill="#000000" font-family="sans-serif" font-size="11" lengthAdjust="spacingAndGlyphs" textLength="122" x="440.5" y="351.4736">String getPropertyName()</text><ellipse cx="431.5" cy="362.3086" fill="#84BE84" rx="3" ry="3" style="stroke: #038048; stroke-width: 1.0;"/><text fill="#000000" font-family="sans-serif" font-size="11" lengthAdjust="spacingAndGlyphs" textLength="123" x="440.5" y="365.3096">String getPropertyValue()</text></a><!--class soen6441riskgame.controllers.MapController--><a target="_parent" xlink:actuate="onRequest" xlink:href="../../soen6441riskgame/controllers/MapController.html" xlink:show="new" xlink:title="soen6441riskgame.controllers.MapController" xlink:type="simple"><rect fill="#FFFFFF" filter="url(#f1cyoed6036vk3)" height="40.1875" id="soen6441riskgame.controllers.MapController" style="stroke: #A80036; stroke-width: 1.5;" width="171" x="6" y="8"/><rect fill="#FFFFFF" height="40.1875" style="stroke: #A80036; stroke-width: 1.5;" width="171" x="6" y="8"/><ellipse cx="21" cy="28.0938" fill="#ADD1B2" rx="11" ry="11" style="stroke: #A80036; stroke-width: 1.0;"/><path d="M23.7656,23.9688 Q23.9219,23.75 24.1094,23.6406 Q24.2969,23.5313 24.5156,23.5313 Q24.8906,23.5313 25.125,23.7891 Q25.3594,24.0469 25.3594,24.6563 L25.3594,26.1094 Q25.3594,26.7188 25.125,26.9844 Q24.8906,27.25 24.5156,27.25 Q24.1719,27.25 23.9688,27.0469 Q23.7656,26.8594 23.6563,26.3438 Q23.6094,25.9844 23.4219,25.7969 Q23.0938,25.4219 22.4844,25.2031 Q21.875,24.9844 21.25,24.9844 Q20.4844,24.9844 19.8516,25.3125 Q19.2188,25.6406 18.7266,26.3906 Q18.2344,27.1406 18.2344,28.1719 L18.2344,29.2656 Q18.2344,30.5 19.125,31.3203 Q20.0156,32.1406 21.6094,32.1406 Q22.5469,32.1406 23.2031,31.8906 Q23.5938,31.7344 24.0156,31.2969 Q24.2813,31.0313 24.4297,30.9531 Q24.5781,30.875 24.7813,30.875 Q25.1094,30.875 25.3672,31.1328 Q25.625,31.3906 25.625,31.7344 Q25.625,32.0781 25.2813,32.4844 Q24.7813,33.0625 23.9844,33.3906 Q22.9063,33.8438 21.6094,33.8438 Q20.0938,33.8438 18.8906,33.2188 Q17.9063,32.7188 17.2188,31.6484 Q16.5313,30.5781 16.5313,29.2969 L16.5313,28.1406 Q16.5313,26.8125 17.1484,25.6641 Q17.7656,24.5156 18.8594,23.8984 Q19.9531,23.2813 21.1875,23.2813 Q21.9219,23.2813 22.5703,23.4453 Q23.2188,23.6094 23.7656,23.9688 Z "/><text fill="#000000" font-family="sans-serif" font-size="14" font-weight="bold" lengthAdjust="spacingAndGlyphs" textLength="101" x="54" y="27.5332">MapController</text><text fill="#000000" font-family="sans-serif" font-size="10" lengthAdjust="spacingAndGlyphs" textLength="139" x="35" y="40.9902">soen6441riskgame.controllers</text></a><!--class soen6441riskgame.models.Country--><a target="_parent" xlink:actuate="onRequest" xlink:href="../../soen6441riskgame/models/Country.html" xlink:show="new" xlink:title="soen6441riskgame.models.Country" xlink:type="simple"><rect fill="#FEFECE" filter="url(#f1cyoed6036vk3)" height="40.1875" id="soen6441riskgame.models.Country" style="stroke: #A80036; stroke-width: 1.5;" width="156" x="68.5" y="432"/><ellipse cx="83.5" cy="452.0938" fill="#ADD1B2" rx="11" ry="11" style="stroke: #A80036; stroke-width: 1.0;"/><path d="M86.2656,447.9688 Q86.4219,447.75 86.6094,447.6406 Q86.7969,447.5313 87.0156,447.5313 Q87.3906,447.5313 87.625,447.7891 Q87.8594,448.0469 87.8594,448.6563 L87.8594,450.1094 Q87.8594,450.7188 87.625,450.9844 Q87.3906,451.25 87.0156,451.25 Q86.6719,451.25 86.4688,451.0469 Q86.2656,450.8594 86.1563,450.3438 Q86.1094,449.9844 85.9219,449.7969 Q85.5938,449.4219 84.9844,449.2031 Q84.375,448.9844 83.75,448.9844 Q82.9844,448.9844 82.3516,449.3125 Q81.7188,449.6406 81.2266,450.3906 Q80.7344,451.1406 80.7344,452.1719 L80.7344,453.2656 Q80.7344,454.5 81.625,455.3203 Q82.5156,456.1406 84.1094,456.1406 Q85.0469,456.1406 85.7031,455.8906 Q86.0938,455.7344 86.5156,455.2969 Q86.7813,455.0313 86.9297,454.9531 Q87.0781,454.875 87.2813,454.875 Q87.6094,454.875 87.8672,455.1328 Q88.125,455.3906 88.125,455.7344 Q88.125,456.0781 87.7813,456.4844 Q87.2813,457.0625 86.4844,457.3906 Q85.4063,457.8438 84.1094,457.8438 Q82.5938,457.8438 81.3906,457.2188 Q80.4063,456.7188 79.7188,455.6484 Q79.0313,454.5781 79.0313,453.2969 L79.0313,452.1406 Q79.0313,450.8125 79.6484,449.6641 Q80.2656,448.5156 81.3594,447.8984 Q82.4531,447.2813 83.6875,447.2813 Q84.4219,447.2813 85.0703,447.4453 Q85.7188,447.6094 86.2656,447.9688 Z "/><text fill="#000000" font-family="sans-serif" font-size="14" font-weight="bold" lengthAdjust="spacingAndGlyphs" textLength="55" x="132" y="451.5332">Country</text><text fill="#000000" font-family="sans-serif" font-size="10" lengthAdjust="spacingAndGlyphs" textLength="124" x="97.5" y="464.9902">soen6441riskgame.models</text></a><!--class soen6441riskgame.models.Viewable--><a target="_parent" xlink:actuate="onRequest" xlink:href="../../soen6441riskgame/models/Viewable.html" xlink:show="new" xlink:title="soen6441riskgame.models.Viewable" xlink:type="simple"><rect fill="#FEFECE" filter="url(#f1cyoed6036vk3)" height="40.1875" id="soen6441riskgame.models.Viewable" style="stroke: #A80036; stroke-width: 1.5;" width="156" x="259.5" y="432"/><ellipse cx="274.5" cy="452.0938" fill="#B4A7E5" rx="11" ry="11" style="stroke: #A80036; stroke-width: 1.0;"/><path d="M275.4531,448.7344 L275.4531,455.3906 L277.1719,455.3906 Q277.7813,455.3906 278.0469,455.625 Q278.3125,455.8594 278.3125,456.25 Q278.3125,456.625 278.0469,456.8594 Q277.7813,457.0938 277.1719,457.0938 L272.0313,457.0938 Q271.4219,457.0938 271.1563,456.8594 Q270.8906,456.625 270.8906,456.2344 Q270.8906,455.8594 271.1563,455.625 Q271.4219,455.3906 272.0313,455.3906 L273.75,455.3906 L273.75,448.7344 L272.0313,448.7344 Q271.4219,448.7344 271.1563,448.5 Q270.8906,448.2656 270.8906,447.875 Q270.8906,447.5 271.1563,447.2656 Q271.4219,447.0313 272.0313,447.0313 L277.1719,447.0313 Q277.7813,447.0313 278.0469,447.2656 Q278.3125,447.5 278.3125,447.875 Q278.3125,448.2656 278.0469,448.5 Q277.7813,448.7344 277.1719,448.7344 L275.4531,448.7344 Z "/><text fill="#000000" font-family="sans-serif" font-size="14" font-style="italic" font-weight="bold" lengthAdjust="spacingAndGlyphs" textLength="62" x="319.5" y="451.5332">Viewable</text><text fill="#000000" font-family="sans-serif" font-size="10" font-style="italic" lengthAdjust="spacingAndGlyphs" textLength="124" x="288.5" y="464.9902">soen6441riskgame.models</text></a><!--class soen6441riskgame.models.serializers.NameOnlySerializable--><a target="_parent" xlink:actuate="onRequest" xlink:href="../../soen6441riskgame/models/serializers/NameOnlySerializable.html" xlink:show="new" xlink:title="soen6441riskgame.models.serializers.NameOnlySerializable" xlink:type="simple"><rect fill="#FFFFFF" filter="url(#f1cyoed6036vk3)" height="40.1875" id="soen6441riskgame.models.serializers.NameOnlySerializable" style="stroke: #A80036; stroke-width: 1.5;" width="207" x="451" y="432"/><rect fill="#FFFFFF" height="40.1875" style="stroke: #A80036; stroke-width: 1.5;" width="207" x="451" y="432"/><ellipse cx="466" cy="452.0938" fill="#B4A7E5" rx="11" ry="11" style="stroke: #A80036; stroke-width: 1.0;"/><path d="M466.9531,448.7344 L466.9531,455.3906 L468.6719,455.3906 Q469.2813,455.3906 469.5469,455.625 Q469.8125,455.8594 469.8125,456.25 Q469.8125,456.625 469.5469,456.8594 Q469.2813,457.0938 468.6719,457.0938 L463.5313,457.0938 Q462.9219,457.0938 462.6563,456.8594 Q462.3906,456.625 462.3906,456.2344 Q462.3906,455.8594 462.6563,455.625 Q462.9219,455.3906 463.5313,455.3906 L465.25,455.3906 L465.25,448.7344 L463.5313,448.7344 Q462.9219,448.7344 462.6563,448.5 Q462.3906,448.2656 462.3906,447.875 Q462.3906,447.5 462.6563,447.2656 Q462.9219,447.0313 463.5313,447.0313 L468.6719,447.0313 Q469.2813,447.0313 469.5469,447.2656 Q469.8125,447.5 469.8125,447.875 Q469.8125,448.2656 469.5469,448.5 Q469.2813,448.7344 468.6719,448.7344 L466.9531,448.7344 Z "/><text fill="#000000" font-family="sans-serif" font-size="14" font-style="italic" font-weight="bold" lengthAdjust="spacingAndGlyphs" textLength="146" x="494.5" y="451.5332">NameOnlySerializable</text><text fill="#000000" font-family="sans-serif" font-size="10" font-style="italic" lengthAdjust="spacingAndGlyphs" textLength="175" x="480" y="464.9902">soen6441riskgame.models.serializers</text></a><!--class soen6441riskgame.models.Player--><a target="_parent" xlink:actuate="onRequest" xlink:href="../../soen6441riskgame/models/Player.html" xlink:show="new" xlink:title="soen6441riskgame.models.Player" xlink:type="simple"><rect fill="#FEFECE" filter="url(#f1cyoed6036vk3)" height="40.1875" id="soen6441riskgame.models.Player" style="stroke: #A80036; stroke-width: 1.5;" width="156" x="693.5" y="432"/><ellipse cx="708.5" cy="452.0938" fill="#ADD1B2" rx="11" ry="11" style="stroke: #A80036; stroke-width: 1.0;"/><path d="M711.2656,447.9688 Q711.4219,447.75 711.6094,447.6406 Q711.7969,447.5313 712.0156,447.5313 Q712.3906,447.5313 712.625,447.7891 Q712.8594,448.0469 712.8594,448.6563 L712.8594,450.1094 Q712.8594,450.7188 712.625,450.9844 Q712.3906,451.25 712.0156,451.25 Q711.6719,451.25 711.4688,451.0469 Q711.2656,450.8594 711.1563,450.3438 Q711.1094,449.9844 710.9219,449.7969 Q710.5938,449.4219 709.9844,449.2031 Q709.375,448.9844 708.75,448.9844 Q707.9844,448.9844 707.3516,449.3125 Q706.7188,449.6406 706.2266,450.3906 Q705.7344,451.1406 705.7344,452.1719 L705.7344,453.2656 Q705.7344,454.5 706.625,455.3203 Q707.5156,456.1406 709.1094,456.1406 Q710.0469,456.1406 710.7031,455.8906 Q711.0938,455.7344 711.5156,455.2969 Q711.7813,455.0313 711.9297,454.9531 Q712.0781,454.875 712.2813,454.875 Q712.6094,454.875 712.8672,455.1328 Q713.125,455.3906 713.125,455.7344 Q713.125,456.0781 712.7813,456.4844 Q712.2813,457.0625 711.4844,457.3906 Q710.4063,457.8438 709.1094,457.8438 Q707.5938,457.8438 706.3906,457.2188 Q705.4063,456.7188 704.7188,455.6484 Q704.0313,454.5781 704.0313,453.2969 L704.0313,452.1406 Q704.0313,450.8125 704.6484,449.6641 Q705.2656,448.5156 706.3594,447.8984 Q707.4531,447.2813 708.6875,447.2813 Q709.4219,447.2813 710.0703,447.4453 Q710.7188,447.6094 711.2656,447.9688 Z "/><text fill="#000000" font-family="sans-serif" font-size="14" font-weight="bold" lengthAdjust="spacingAndGlyphs" textLength="43" x="763" y="451.5332">Player</text><text fill="#000000" font-family="sans-serif" font-size="10" lengthAdjust="spacingAndGlyphs" textLength="124" x="722.5" y="464.9902">soen6441riskgame.models</text></a><!--class java.io.PrintStream--><rect fill="#D3D3D3" filter="url(#f1cyoed6036vk3)" height="40.1875" id="java.io.PrintStream" style="stroke: #A80036; stroke-width: 1.5;" width="114" x="884.5" y="432"/><rect fill="#D3D3D3" height="40.1875" style="stroke: #A80036; stroke-width: 1.5;" width="114" x="884.5" y="432"/><ellipse cx="899.5" cy="452.0938" fill="#ADD1B2" rx="11" ry="11" style="stroke: #A80036; stroke-width: 1.0;"/><path d="M902.2656,447.9688 Q902.4219,447.75 902.6094,447.6406 Q902.7969,447.5313 903.0156,447.5313 Q903.3906,447.5313 903.625,447.7891 Q903.8594,448.0469 903.8594,448.6563 L903.8594,450.1094 Q903.8594,450.7188 903.625,450.9844 Q903.3906,451.25 903.0156,451.25 Q902.6719,451.25 902.4688,451.0469 Q902.2656,450.8594 902.1563,450.3438 Q902.1094,449.9844 901.9219,449.7969 Q901.5938,449.4219 900.9844,449.2031 Q900.375,448.9844 899.75,448.9844 Q898.9844,448.9844 898.3516,449.3125 Q897.7188,449.6406 897.2266,450.3906 Q896.7344,451.1406 896.7344,452.1719 L896.7344,453.2656 Q896.7344,454.5 897.625,455.3203 Q898.5156,456.1406 900.1094,456.1406 Q901.0469,456.1406 901.7031,455.8906 Q902.0938,455.7344 902.5156,455.2969 Q902.7813,455.0313 902.9297,454.9531 Q903.0781,454.875 903.2813,454.875 Q903.6094,454.875 903.8672,455.1328 Q904.125,455.3906 904.125,455.7344 Q904.125,456.0781 903.7813,456.4844 Q903.2813,457.0625 902.4844,457.3906 Q901.4063,457.8438 900.1094,457.8438 Q898.5938,457.8438 897.3906,457.2188 Q896.4063,456.7188 895.7188,455.6484 Q895.0313,454.5781 895.0313,453.2969 L895.0313,452.1406 Q895.0313,450.8125 895.6484,449.6641 Q896.2656,448.5156 897.3594,447.8984 Q898.4531,447.2813 899.6875,447.2813 Q900.4219,447.2813 901.0703,447.4453 Q901.7188,447.6094 902.2656,447.9688 Z "/><text fill="#000000" font-family="sans-serif" font-size="14" font-weight="bold" lengthAdjust="spacingAndGlyphs" textLength="82" x="913.5" y="451.5332">PrintStream</text><text fill="#000000" font-family="sans-serif" font-size="10" lengthAdjust="spacingAndGlyphs" textLength="32" x="938.5" y="464.9902">java.io</text><!--class soen6441riskgame.models.serializers.NameOnlyJsonAdapter--><a target="_parent" xlink:actuate="onRequest" xlink:href="../../soen6441riskgame/models/serializers/NameOnlyJsonAdapter.html" xlink:show="new" xlink:title="soen6441riskgame.models.serializers.NameOnlyJsonAdapter" xlink:type="simple"><rect fill="#FFFFFF" filter="url(#f1cyoed6036vk3)" height="40.1875" id="soen6441riskgame.models.serializers.NameOnlyJsonAdapter" style="stroke: #A80036; stroke-width: 1.5;" width="205" x="212" y="8"/><rect fill="#FFFFFF" height="40.1875" style="stroke: #A80036; stroke-width: 1.5;" width="205" x="212" y="8"/><ellipse cx="227" cy="28.0938" fill="#ADD1B2" rx="11" ry="11" style="stroke: #A80036; stroke-width: 1.0;"/><path d="M229.7656,23.9688 Q229.9219,23.75 230.1094,23.6406 Q230.2969,23.5313 230.5156,23.5313 Q230.8906,23.5313 231.125,23.7891 Q231.3594,24.0469 231.3594,24.6563 L231.3594,26.1094 Q231.3594,26.7188 231.125,26.9844 Q230.8906,27.25 230.5156,27.25 Q230.1719,27.25 229.9688,27.0469 Q229.7656,26.8594 229.6563,26.3438 Q229.6094,25.9844 229.4219,25.7969 Q229.0938,25.4219 228.4844,25.2031 Q227.875,24.9844 227.25,24.9844 Q226.4844,24.9844 225.8516,25.3125 Q225.2188,25.6406 224.7266,26.3906 Q224.2344,27.1406 224.2344,28.1719 L224.2344,29.2656 Q224.2344,30.5 225.125,31.3203 Q226.0156,32.1406 227.6094,32.1406 Q228.5469,32.1406 229.2031,31.8906 Q229.5938,31.7344 230.0156,31.2969 Q230.2813,31.0313 230.4297,30.9531 Q230.5781,30.875 230.7813,30.875 Q231.1094,30.875 231.3672,31.1328 Q231.625,31.3906 231.625,31.7344 Q231.625,32.0781 231.2813,32.4844 Q230.7813,33.0625 229.9844,33.3906 Q228.9063,33.8438 227.6094,33.8438 Q226.0938,33.8438 224.8906,33.2188 Q223.9063,32.7188 223.2188,31.6484 Q222.5313,30.5781 222.5313,29.2969 L222.5313,28.1406 Q222.5313,26.8125 223.1484,25.6641 Q223.7656,24.5156 224.8594,23.8984 Q225.9531,23.2813 227.1875,23.2813 Q227.9219,23.2813 228.5703,23.4453 Q229.2188,23.6094 229.7656,23.9688 Z "/><text fill="#000000" font-family="sans-serif" font-size="14" font-weight="bold" lengthAdjust="spacingAndGlyphs" textLength="159" x="248" y="27.5332">NameOnlyJsonAdapter</text><text fill="#000000" font-family="sans-serif" font-size="10" lengthAdjust="spacingAndGlyphs" textLength="173" x="241" y="40.9902">soen6441riskgame.models.serializers</text></a><!--class soen6441riskgame.models.serializers.SerializableGame--><a target="_parent" xlink:actuate="onRequest" xlink:href="../../soen6441riskgame/models/serializers/SerializableGame.html" xlink:show="new" xlink:title="soen6441riskgame.models.serializers.SerializableGame" xlink:type="simple"><rect fill="#FFFFFF" filter="url(#f1cyoed6036vk3)" height="40.1875" id="soen6441riskgame.models.serializers.SerializableGame" style="stroke: #A80036; stroke-width: 1.5;" width="205" x="452" y="8"/><rect fill="#FFFFFF" height="40.1875" style="stroke: #A80036; stroke-width: 1.5;" width="205" x="452" y="8"/><ellipse cx="467" cy="28.0938" fill="#ADD1B2" rx="11" ry="11" style="stroke: #A80036; stroke-width: 1.0;"/><path d="M469.7656,23.9688 Q469.9219,23.75 470.1094,23.6406 Q470.2969,23.5313 470.5156,23.5313 Q470.8906,23.5313 471.125,23.7891 Q471.3594,24.0469 471.3594,24.6563 L471.3594,26.1094 Q471.3594,26.7188 471.125,26.9844 Q470.8906,27.25 470.5156,27.25 Q470.1719,27.25 469.9688,27.0469 Q469.7656,26.8594 469.6563,26.3438 Q469.6094,25.9844 469.4219,25.7969 Q469.0938,25.4219 468.4844,25.2031 Q467.875,24.9844 467.25,24.9844 Q466.4844,24.9844 465.8516,25.3125 Q465.2188,25.6406 464.7266,26.3906 Q464.2344,27.1406 464.2344,28.1719 L464.2344,29.2656 Q464.2344,30.5 465.125,31.3203 Q466.0156,32.1406 467.6094,32.1406 Q468.5469,32.1406 469.2031,31.8906 Q469.5938,31.7344 470.0156,31.2969 Q470.2813,31.0313 470.4297,30.9531 Q470.5781,30.875 470.7813,30.875 Q471.1094,30.875 471.3672,31.1328 Q471.625,31.3906 471.625,31.7344 Q471.625,32.0781 471.2813,32.4844 Q470.7813,33.0625 469.9844,33.3906 Q468.9063,33.8438 467.6094,33.8438 Q466.0938,33.8438 464.8906,33.2188 Q463.9063,32.7188 463.2188,31.6484 Q462.5313,30.5781 462.5313,29.2969 L462.5313,28.1406 Q462.5313,26.8125 463.1484,25.6641 Q463.7656,24.5156 464.8594,23.8984 Q465.9531,23.2813 467.1875,23.2813 Q467.9219,23.2813 468.5703,23.4453 Q469.2188,23.6094 469.7656,23.9688 Z "/><text fill="#000000" font-family="sans-serif" font-size="14" font-weight="bold" lengthAdjust="spacingAndGlyphs" textLength="121" x="507" y="27.5332">SerializableGame</text><text fill="#000000" font-family="sans-serif" font-size="10" lengthAdjust="spacingAndGlyphs" textLength="173" x="481" y="40.9902">soen6441riskgame.models.serializers</text></a><!--class soen6441riskgame.models.serializers.SerializableGame.Builder--><a target="_parent" xlink:actuate="onRequest" xlink:href="../../soen6441riskgame/models/serializers/SerializableGame.Builder.html" xlink:show="new" xlink:title="soen6441riskgame.models.serializers.SerializableGame.Builder" xlink:type="simple"><rect fill="#FFFFFF" filter="url(#f1cyoed6036vk3)" height="40.1875" id="soen6441riskgame.models.serializers.SerializableGame.Builder" style="stroke: #A80036; stroke-width: 1.5;" width="208" x="692.5" y="8"/><rect fill="#FFFFFF" height="40.1875" style="stroke: #A80036; stroke-width: 1.5;" width="208" x="692.5" y="8"/><ellipse cx="707.5" cy="28.0938" fill="#ADD1B2" rx="11" ry="11" style="stroke: #A80036; stroke-width: 1.0;"/><path d="M710.2656,23.9688 Q710.4219,23.75 710.6094,23.6406 Q710.7969,23.5313 711.0156,23.5313 Q711.3906,23.5313 711.625,23.7891 Q711.8594,24.0469 711.8594,24.6563 L711.8594,26.1094 Q711.8594,26.7188 711.625,26.9844 Q711.3906,27.25 711.0156,27.25 Q710.6719,27.25 710.4688,27.0469 Q710.2656,26.8594 710.1563,26.3438 Q710.1094,25.9844 709.9219,25.7969 Q709.5938,25.4219 708.9844,25.2031 Q708.375,24.9844 707.75,24.9844 Q706.9844,24.9844 706.3516,25.3125 Q705.7188,25.6406 705.2266,26.3906 Q704.7344,27.1406 704.7344,28.1719 L704.7344,29.2656 Q704.7344,30.5 705.625,31.3203 Q706.5156,32.1406 708.1094,32.1406 Q709.0469,32.1406 709.7031,31.8906 Q710.0938,31.7344 710.5156,31.2969 Q710.7813,31.0313 710.9297,30.9531 Q711.0781,30.875 711.2813,30.875 Q711.6094,30.875 711.8672,31.1328 Q712.125,31.3906 712.125,31.7344 Q712.125,32.0781 711.7813,32.4844 Q711.2813,33.0625 710.4844,33.3906 Q709.4063,33.8438 708.1094,33.8438 Q706.5938,33.8438 705.3906,33.2188 Q704.4063,32.7188 703.7188,31.6484 Q703.0313,30.5781 703.0313,29.2969 L703.0313,28.1406 Q703.0313,26.8125 703.6484,25.6641 Q704.2656,24.5156 705.3594,23.8984 Q706.4531,23.2813 707.6875,23.2813 Q708.4219,23.2813 709.0703,23.4453 Q709.7188,23.6094 710.2656,23.9688 Z "/><text fill="#000000" font-family="sans-serif" font-size="14" font-weight="bold" lengthAdjust="spacingAndGlyphs" textLength="176" x="721.5" y="27.5332">SerializableGame.Builder</text><text fill="#000000" font-family="sans-serif" font-size="10" lengthAdjust="spacingAndGlyphs" textLength="173" x="723" y="40.9902">soen6441riskgame.models.serializers</text></a><!--class soen6441riskgame.singleton.GameBoardMap--><a target="_parent" xlink:actuate="onRequest" xlink:href="../../soen6441riskgame/singleton/GameBoardMap.html" xlink:show="new" xlink:title="soen6441riskgame.singleton.GameBoardMap" xlink:type="simple"><rect fill="#FFFFFF" filter="url(#f1cyoed6036vk3)" height="40.1875" id="soen6441riskgame.singleton.GameBoardMap" style="stroke: #A80036; stroke-width: 1.5;" width="165" x="936" y="8"/><rect fill="#FFFFFF" height="40.1875" style="stroke: #A80036; stroke-width: 1.5;" width="165" x="936" y="8"/><ellipse cx="951" cy="28.0938" fill="#ADD1B2" rx="11" ry="11" style="stroke: #A80036; stroke-width: 1.0;"/><path d="M953.7656,23.9688 Q953.9219,23.75 954.1094,23.6406 Q954.2969,23.5313 954.5156,23.5313 Q954.8906,23.5313 955.125,23.7891 Q955.3594,24.0469 955.3594,24.6563 L955.3594,26.1094 Q955.3594,26.7188 955.125,26.9844 Q954.8906,27.25 954.5156,27.25 Q954.1719,27.25 953.9688,27.0469 Q953.7656,26.8594 953.6563,26.3438 Q953.6094,25.9844 953.4219,25.7969 Q953.0938,25.4219 952.4844,25.2031 Q951.875,24.9844 951.25,24.9844 Q950.4844,24.9844 949.8516,25.3125 Q949.2188,25.6406 948.7266,26.3906 Q948.2344,27.1406 948.2344,28.1719 L948.2344,29.2656 Q948.2344,30.5 949.125,31.3203 Q950.0156,32.1406 951.6094,32.1406 Q952.5469,32.1406 953.2031,31.8906 Q953.5938,31.7344 954.0156,31.2969 Q954.2813,31.0313 954.4297,30.9531 Q954.5781,30.875 954.7813,30.875 Q955.1094,30.875 955.3672,31.1328 Q955.625,31.3906 955.625,31.7344 Q955.625,32.0781 955.2813,32.4844 Q954.7813,33.0625 953.9844,33.3906 Q952.9063,33.8438 951.6094,33.8438 Q950.0938,33.8438 948.8906,33.2188 Q947.9063,32.7188 947.2188,31.6484 Q946.5313,30.5781 946.5313,29.2969 L946.5313,28.1406 Q946.5313,26.8125 947.1484,25.6641 Q947.7656,24.5156 948.8594,23.8984 Q949.9531,23.2813 951.1875,23.2813 Q951.9219,23.2813 952.5703,23.4453 Q953.2188,23.6094 953.7656,23.9688 Z "/><text fill="#000000" font-family="sans-serif" font-size="14" font-weight="bold" lengthAdjust="spacingAndGlyphs" textLength="112" x="975.5" y="27.5332">GameBoardMap</text><text fill="#000000" font-family="sans-serif" font-size="10" lengthAdjust="spacingAndGlyphs" textLength="133" x="965" y="40.9902">soen6441riskgame.singleton</text></a><!--link soen6441riskgame.controllers.MapController to soen6441riskgame.models.Continent--><path d="M122.75,48.301 C122.75,88.417 122.75,174 122.75,174 C122.75,174 415.258,174 415.258,174 " fill="none" id="soen6441riskgame.controllers.MapController-soen6441riskgame.models.Continent" style="stroke: #A80036; stroke-width: 1.0; stroke-dasharray: 7.0,7.0;"/><polygon fill="#A80036" points="420.258,174,411.258,170,415.258,174,411.258,178,420.258,174" style="stroke: #A80036; stroke-width: 1.0;"/><!--link soen6441riskgame.models.Continent to soen6441riskgame.models.Country--><path d="M420.296,240 C325.835,240 216.167,240 216.167,240 C216.167,240 216.167,426.6725 216.167,426.6725 " fill="none" id="soen6441riskgame.models.Continent-soen6441riskgame.models.Country" style="stroke: #A80036; stroke-width: 1.0; stroke-dasharray: 7.0,7.0;"/><polygon fill="#A80036" points="216.167,431.6725,220.167,422.6725,216.167,426.6725,212.167,422.6725,216.167,431.6725" style="stroke: #A80036; stroke-width: 1.0;"/><!--link soen6441riskgame.models.Country to soen6441riskgame.models.Continent--><path d="M220.333,431.6993 C220.333,391.5825 220.333,306 220.333,306 C220.333,306 415.026,306 415.026,306 " fill="none" id="soen6441riskgame.models.Country-soen6441riskgame.models.Continent" style="stroke: #A80036; stroke-width: 1.0;"/><polygon fill="#A80036" points="420.026,306,411.026,302,415.026,306,411.026,310,420.026,306" style="stroke: #A80036; stroke-width: 1.0;"/><text fill="#000000" font-family="sans-serif" font-size="13" lengthAdjust="spacingAndGlyphs" textLength="53" x="359.7319" y="306.1374">continent</text><!--link soen6441riskgame.models.Continent to soen6441riskgame.models.Viewable--><path d="M435.75,372.154 C435.75,415.1369 435.75,452 435.75,452 C435.75,452 433.762,452 433.762,452 " fill="none" id="soen6441riskgame.models.Continent-soen6441riskgame.models.Viewable" style="stroke: #A80036; stroke-width: 1.0; stroke-dasharray: 7.0,7.0;"/><polygon fill="none" points="435.868,458.9999,415.868,452,435.868,444.9999,435.868,458.9999" style="stroke: #A80036; stroke-width: 1.0;"/><!--link soen6441riskgame.models.Continent to soen6441riskgame.models.serializers.NameOnlySerializable--><path d="M554.5,372.154 C554.5,372.154 554.5,411.8352 554.5,411.8352 " fill="none" id="soen6441riskgame.models.Continent-soen6441riskgame.models.serializers.NameOnlySerializable" style="stroke: #A80036; stroke-width: 1.0; stroke-dasharray: 7.0,7.0;"/><polygon fill="none" points="561.5,411.8353,554.5,431.8352,547.5,411.8352,561.5,411.8353" style="stroke: #A80036; stroke-width: 1.0;"/><!--link soen6441riskgame.models.Continent to soen6441riskgame.models.Player--><path d="M678.333,372.2111 C678.333,412.3281 678.333,446 678.333,446 C678.333,446 688.302,446 688.302,446 " fill="none" id="soen6441riskgame.models.Continent-soen6441riskgame.models.Player" style="stroke: #A80036; stroke-width: 1.0; stroke-dasharray: 7.0,7.0;"/><polygon fill="#A80036" points="693.302,446,684.302,442,688.302,446,684.302,450,693.302,446" style="stroke: #A80036; stroke-width: 1.0;"/><!--link soen6441riskgame.models.Player to soen6441riskgame.models.Continent--><path d="M693.445,459 C678.898,459 668.167,459 668.167,459 C668.167,459 668.167,377.1309 668.167,377.1309 " fill="none" id="soen6441riskgame.models.Player-soen6441riskgame.models.Continent" style="stroke: #A80036; stroke-width: 1.0; stroke-dasharray: 7.0,7.0;"/><polygon fill="#A80036" points="668.167,372.1309,664.167,381.1309,668.167,377.1309,672.167,381.1309,668.167,372.1309" style="stroke: #A80036; stroke-width: 1.0;"/><!--link soen6441riskgame.models.Continent to java.io.PrintStream--><path d="M688.572,284 C782.94,284 892.5,284 892.5,284 C892.5,284 892.5,426.7353 892.5,426.7353 " fill="none" id="soen6441riskgame.models.Continent-java.io.PrintStream" style="stroke: #A80036; stroke-width: 1.0; stroke-dasharray: 7.0,7.0;"/><polygon fill="#A80036" points="892.5,431.7353,896.5,422.7353,892.5,426.7353,888.5,422.7353,892.5,431.7353" style="stroke: #A80036; stroke-width: 1.0;"/><!--link soen6441riskgame.models.serializers.NameOnlyJsonAdapter to soen6441riskgame.models.Continent--><path d="M417.227,28 C428.641,28 436.25,28 436.25,28 C436.25,28 436.25,102.846 436.25,102.846 " fill="none" id="soen6441riskgame.models.serializers.NameOnlyJsonAdapter-soen6441riskgame.models.Continent" style="stroke: #A80036; stroke-width: 1.0; stroke-dasharray: 7.0,7.0;"/><polygon fill="#A80036" points="436.25,107.846,440.25,98.846,436.25,102.846,432.25,98.846,436.25,107.846" style="stroke: #A80036; stroke-width: 1.0;"/><!--link soen6441riskgame.models.serializers.SerializableGame to soen6441riskgame.models.Continent--><path d="M554.5,48.327 C554.5,48.327 554.5,102.924 554.5,102.924 " fill="none" id="soen6441riskgame.models.serializers.SerializableGame-soen6441riskgame.models.Continent" style="stroke: #A80036; stroke-width: 1.0;"/><polygon fill="#A80036" points="554.5,107.924,558.5,98.924,554.5,102.924,550.5,98.924,554.5,107.924" style="stroke: #A80036; stroke-width: 1.0;"/><text fill="#000000" font-family="sans-serif" font-size="13" lengthAdjust="spacingAndGlyphs" textLength="69" x="483.5055" y="97.339">continents *</text><!--link soen6441riskgame.models.serializers.SerializableGame.Builder to soen6441riskgame.models.Continent--><path d="M692.359,28 C680.606,28 672.75,28 672.75,28 C672.75,28 672.75,102.846 672.75,102.846 " fill="none" id="soen6441riskgame.models.serializers.SerializableGame.Builder-soen6441riskgame.models.Continent" style="stroke: #A80036; stroke-width: 1.0;"/><polygon fill="#A80036" points="672.75,107.846,676.75,98.846,672.75,102.846,668.75,98.846,672.75,107.846" style="stroke: #A80036; stroke-width: 1.0;"/><text fill="#000000" font-family="sans-serif" font-size="13" lengthAdjust="spacingAndGlyphs" textLength="69" x="608.5918" y="97.2565">continents *</text><!--link soen6441riskgame.singleton.GameBoardMap to soen6441riskgame.models.Continent--><path d="M967.25,48.265 C967.25,92.948 967.25,196 967.25,196 C967.25,196 693.508,196 693.508,196 " fill="none" id="soen6441riskgame.singleton.GameBoardMap-soen6441riskgame.models.Continent" style="stroke: #A80036; stroke-width: 1.0; stroke-dasharray: 7.0,7.0;"/><polygon fill="#A80036" points="688.508,196,697.508,200,693.508,196,697.508,192,688.508,196" style="stroke: #A80036; stroke-width: 1.0;"/><!--
@startuml

skinparam svgLinkTarget _parent
skinparam linetype ortho
set namespaceSeparator none
class "<b><size:14>Continent</b>\n<size:10>soen6441riskgame.models" as soen6441riskgame.models.Continent  [[../../soen6441riskgame/models/Continent.html{soen6441riskgame.models.Continent}]] {
-String name
-int army
-ArrayList<Country> countries
+Continent(String name,int army)
+int getOrder()
+int getArmy()
+ArrayList<Country> getCountries()
+String getName()
+Player getConquerer()
+boolean isContinentConnected()
+void view(PrintStream printStream,int indent)
+void viewWithoutCountry()
+void viewWithoutCountry(PrintStream printStream)
+String getPropertyName()
+String getPropertyValue()
}


class "<b><size:14>MapController</b>\n<size:10>soen6441riskgame.controllers" as soen6441riskgame.controllers.MapController  [[../../soen6441riskgame/controllers/MapController.html{soen6441riskgame.controllers.MapController}]] #white {
}

hide soen6441riskgame.controllers.MapController fields
hide soen6441riskgame.controllers.MapController methods

soen6441riskgame.controllers.MapController ..> soen6441riskgame.models.Continent


class "<b><size:14>Country</b>\n<size:10>soen6441riskgame.models" as soen6441riskgame.models.Country  [[../../soen6441riskgame/models/Country.html{soen6441riskgame.models.Country}]] {
}

hide soen6441riskgame.models.Country fields
hide soen6441riskgame.models.Country methods

soen6441riskgame.models.Continent ..> soen6441riskgame.models.Country


interface "<b><size:14>Viewable</b>\n<size:10>soen6441riskgame.models" as soen6441riskgame.models.Viewable  [[../../soen6441riskgame/models/Viewable.html{soen6441riskgame.models.Viewable}]] {
}

hide soen6441riskgame.models.Viewable fields
hide soen6441riskgame.models.Viewable methods

soen6441riskgame.models.Continent ..|> soen6441riskgame.models.Viewable

interface "<b><size:14>NameOnlySerializable</b>\n<size:10>soen6441riskgame.models.serializers" as soen6441riskgame.models.serializers.NameOnlySerializable  [[../../soen6441riskgame/models/serializers/NameOnlySerializable.html{soen6441riskgame.models.serializers.NameOnlySerializable}]] #white {
}

hide soen6441riskgame.models.serializers.NameOnlySerializable fields
hide soen6441riskgame.models.serializers.NameOnlySerializable methods

soen6441riskgame.models.Continent ..|> soen6441riskgame.models.serializers.NameOnlySerializable

class "<b><size:14>Player</b>\n<size:10>soen6441riskgame.models" as soen6441riskgame.models.Player  [[../../soen6441riskgame/models/Player.html{soen6441riskgame.models.Player}]] {
}

hide soen6441riskgame.models.Player fields
hide soen6441riskgame.models.Player methods

soen6441riskgame.models.Continent ..> soen6441riskgame.models.Player

class "<b><size:14>PrintStream</b>\n<size:10>java.io" as java.io.PrintStream  #lightgrey {
}

hide java.io.PrintStream fields
hide java.io.PrintStream methods

soen6441riskgame.models.Continent ..> java.io.PrintStream

soen6441riskgame.models.Country - ->  "continent" soen6441riskgame.models.Continent

soen6441riskgame.models.Player ..> soen6441riskgame.models.Continent

class "<b><size:14>NameOnlyJsonAdapter</b>\n<size:10>soen6441riskgame.models.serializers" as soen6441riskgame.models.serializers.NameOnlyJsonAdapter  [[../../soen6441riskgame/models/serializers/NameOnlyJsonAdapter.html{soen6441riskgame.models.serializers.NameOnlyJsonAdapter}]] #white {
}

hide soen6441riskgame.models.serializers.NameOnlyJsonAdapter fields
hide soen6441riskgame.models.serializers.NameOnlyJsonAdapter methods

soen6441riskgame.models.serializers.NameOnlyJsonAdapter ..> soen6441riskgame.models.Continent

class "<b><size:14>SerializableGame</b>\n<size:10>soen6441riskgame.models.serializers" as soen6441riskgame.models.serializers.SerializableGame  [[../../soen6441riskgame/models/serializers/SerializableGame.html{soen6441riskgame.models.serializers.SerializableGame}]] #white {
}

hide soen6441riskgame.models.serializers.SerializableGame fields
hide soen6441riskgame.models.serializers.SerializableGame methods

soen6441riskgame.models.serializers.SerializableGame - ->  "continents *" soen6441riskgame.models.Continent

class "<b><size:14>SerializableGame.Builder</b>\n<size:10>soen6441riskgame.models.serializers" as soen6441riskgame.models.serializers.SerializableGame.Builder  [[../../soen6441riskgame/models/serializers/SerializableGame.Builder.html{soen6441riskgame.models.serializers.SerializableGame.Builder}]] #white {
}

hide soen6441riskgame.models.serializers.SerializableGame.Builder fields
hide soen6441riskgame.models.serializers.SerializableGame.Builder methods

soen6441riskgame.models.serializers.SerializableGame.Builder - ->  "continents *" soen6441riskgame.models.Continent

class "<b><size:14>GameBoardMap</b>\n<size:10>soen6441riskgame.singleton" as soen6441riskgame.singleton.GameBoardMap  [[../../soen6441riskgame/singleton/GameBoardMap.html{soen6441riskgame.singleton.GameBoardMap}]] #white {
}

hide soen6441riskgame.singleton.GameBoardMap fields
hide soen6441riskgame.singleton.GameBoardMap methods

soen6441riskgame.singleton.GameBoardMap ..> soen6441riskgame.models.Continent


@enduml

PlantUML version 1.2017.15(Mon Jul 03 12:45:34 EDT 2017)
(GPL source distribution)
Java Runtime: Java(TM) SE Runtime Environment
JVM: Java HotSpot(TM) 64-Bit Server VM
Java Version: 1.8.0_231-b11
Operating System: Windows 10
OS Version: 10.0
Default Encoding: Cp1252
Language: en
Country: US
--></g></svg>