<?xml version="1.0" encoding="UTF-8" standalone="no"?><svg xmlns="http://www.w3.org/2000/svg" xmlns:xlink="http://www.w3.org/1999/xlink" contentScriptType="application/ecmascript" contentStyleType="text/css" height="483px" preserveAspectRatio="none" style="width:1112px;height:483px;" version="1.1" viewBox="0 0 1112 483" width="1112px" zoomAndPan="magnify"><defs><filter height="300%" id="fjhwy8aqpjzrr" width="300%" x="-1" y="-1"><feGaussianBlur result="blurOut" stdDeviation="2.0"/><feColorMatrix in="blurOut" result="blurOut2" type="matrix" values="0 0 0 0 0 0 0 0 0 0 0 0 0 0 0 0 0 0 .4 0"/><feOffset dx="4.0" dy="4.0" in="blurOut2" result="blurOut3"/><feBlend in="SourceGraphic" in2="blurOut3" mode="normal"/></filter></defs><g><!--class soen6441riskgame.models.Continent--><a target="_parent" xlink:actuate="onRequest" xlink:href="../../soen6441riskgame/models/Continent.html" xlink:show="new" xlink:title="soen6441riskgame.models.Continent" xlink:type="simple"><rect fill="#FEFECE" filter="url(#fjhwy8aqpjzrr)" height="263.7266" id="soen6441riskgame.models.Continent" style="stroke: #A80036; stroke-width: 1.5;" width="268" x="420.5" y="108"/><ellipse cx="488.25" cy="128.0938" fill="#ADD1B2" rx="11" ry="11" style="stroke: #A80036; stroke-width: 1.0;"/><path d="M491.0156,123.9688 Q491.1719,123.75 491.3594,123.6406 Q491.5469,123.5313 491.7656,123.5313 Q492.1406,123.5313 492.375,123.7891 Q492.6094,124.0469 492.6094,124.6563 L492.6094,126.1094 Q492.6094,126.7188 492.375,126.9844 Q492.1406,127.25 491.7656,127.25 Q491.4219,127.25 491.2188,127.0469 Q491.0156,126.8594 490.9063,126.3438 Q490.8594,125.9844 490.6719,125.7969 Q490.3438,125.4219 489.7344,125.2031 Q489.125,124.9844 488.5,124.9844 Q487.7344,124.9844 487.1016,125.3125 Q486.4688,125.6406 485.9766,126.3906 Q485.4844,127.1406 485.4844,128.1719 L485.4844,129.2656 Q485.4844,130.5 486.375,131.3203 Q487.2656,132.1406 488.8594,132.1406 Q489.7969,132.1406 490.4531,131.8906 Q490.8438,131.7344 491.2656,131.2969 Q491.5313,131.0313 491.6797,130.9531 Q491.8281,130.875 492.0313,130.875 Q492.3594,130.875 492.6172,131.1328 Q492.875,131.3906 492.875,131.7344 Q492.875,132.0781 492.5313,132.4844 Q492.0313,133.0625 491.2344,133.3906 Q490.1563,133.8438 488.8594,133.8438 Q487.3438,133.8438 486.1406,133.2188 Q485.1563,132.7188 484.4688,131.6484 Q483.7813,130.5781 483.7813,129.2969 L483.7813,128.1406 Q483.7813,126.8125 484.3984,125.6641 Q485.0156,124.5156 486.1094,123.8984 Q487.2031,123.2813 488.4375,123.2813 Q489.1719,123.2813 489.8203,123.4453 Q490.4688,123.6094 491.0156,123.9688 Z "/><text fill="#000000" font-family="sans-serif" font-size="14" font-weight="bold" lengthAdjust="spacingAndGlyphs" textLength="69" x="536.25" y="127.5332">Continent</text><text fill="#000000" font-family="sans-serif" font-size="10" lengthAdjust="spacingAndGlyphs" textLength="124" x="508.75" y="140.9902">soen6441riskgame.models</text><line style="stroke: #A80036; stroke-width: 1.5;" x1="421.5" x2="687.5" y1="148.1875" y2="148.1875"/><rect fill="none" height="6" style="stroke: #C82930; stroke-width: 1.0;" width="6" x="428.5" y="157.6055"/><text fill="#000000" font-family="sans-serif" font-size="11" lengthAdjust="spacingAndGlyphs" textLength="57" x="440.5" y="163.6064">String name</text><rect fill="none" height="6" style="stroke: #C82930; stroke-width: 1.0;" width="6" x="428.5" y="171.4414"/><text fill="#000000" font-family="sans-serif" font-size="11" lengthAdjust="spacingAndGlyphs" textLength="38" x="440.5" y="177.4424">int army</text><rect fill="none" height="6" style="stroke: #C82930; stroke-width: 1.0;" width="6" x="428.5" y="185.2773"/><text fill="#000000" font-family="sans-serif" font-size="11" lengthAdjust="spacingAndGlyphs" textLength="143" x="440.5" y="191.2783">ArrayList&lt;Country&gt; countries</text><line style="stroke: #A80036; stroke-width: 1.5;" x1="421.5" x2="687.5" y1="197.6953" y2="197.6953"/><ellipse cx="431.5" cy="210.1133" fill="#84BE84" rx="3" ry="3" style="stroke: #038048; stroke-width: 1.0;"/><text fill="#000000" font-family="sans-serif" font-size="11" lengthAdjust="spacingAndGlyphs" textLength="151" x="440.5" y="213.1143">Continent(String name,int army)</text><ellipse cx="431.5" cy="223.9492" fill="#84BE84" rx="3" ry="3" style="stroke: #038048; stroke-width: 1.0;"/><text fill="#000000" font-family="sans-serif" font-size="11" lengthAdjust="spacingAndGlyphs" textLength="65" x="440.5" y="226.9502">int getOrder()</text><ellipse cx="431.5" cy="237.7852" fill="#84BE84" rx="3" ry="3" style="stroke: #038048; stroke-width: 1.0;"/><text fill="#000000" font-family="sans-serif" font-size="11" lengthAdjust="spacingAndGlyphs" textLength="63" x="440.5" y="240.7861">int getArmy()</text><ellipse cx="431.5" cy="251.6211" fill="#84BE84" rx="3" ry="3" style="stroke: #038048; stroke-width: 1.0;"/><text fill="#000000" font-family="sans-serif" font-size="11" lengthAdjust="spacingAndGlyphs" textLength="167" x="440.5" y="254.6221">ArrayList&lt;Country&gt; getCountries()</text><ellipse cx="431.5" cy="265.457" fill="#84BE84" rx="3" ry="3" style="stroke: #038048; stroke-width: 1.0;"/><text fill="#000000" font-family="sans-serif" font-size="11" lengthAdjust="spacingAndGlyphs" textLength="81" x="440.5" y="268.458">String getName()</text><ellipse cx="431.5" cy="279.293" fill="#84BE84" rx="3" ry="3" style="stroke: #038048; stroke-width: 1.0;"/><text fill="#000000" font-family="sans-serif" font-size="11" lengthAdjust="spacingAndGlyphs" textLength="107" x="440.5" y="282.2939">Player getConquerer()</text><ellipse cx="431.5" cy="293.1289" fill="#84BE84" rx="3" ry="3" style="stroke: #038048; stroke-width: 1.0;"/><text fill="#000000" font-family="sans-serif" font-size="11" lengthAdjust="spacingAndGlyphs" textLength="154" x="440.5" y="296.1299">boolean isContinentConnected()</text><ellipse cx="431.5" cy="306.9648" fill="#84BE84" rx="3" ry="3" style="stroke: #038048; stroke-width: 1.0;"/><text fill="#000000" font-family="sans-serif" font-size="11" lengthAdjust="spacingAndGlyphs" textLength="214" x="440.5" y="309.9658">void view(PrintStream printStream,int indent)</text><ellipse cx="431.5" cy="320.8008" fill="#84BE84" rx="3" ry="3" style="stroke: #038048; stroke-width: 1.0;"/><text fill="#000000" font-family="sans-serif" font-size="11" lengthAdjust="spacingAndGlyphs" textLength="129" x="440.5" y="323.8018">void viewWithoutCountry()</text><ellipse cx="431.5" cy="334.6367" fill="#84BE84" rx="3" ry="3" style="stroke: #038048; stroke-width: 1.0;"/><text fill="#000000" font-family="sans-serif" font-size="11" lengthAdjust="spacingAndGlyphs" textLength="242" x="440.5" y="337.6377">void viewWithoutCountry(PrintStream printStream)</text><ellipse cx="431.5" cy="348.4727" fill="#84BE84" rx="3" ry="3" style="stroke: #038048; stroke-width: 1.0;"/><text fill="#000000" font-family="sans-serif" font-size="11" lengthAdjust="spacingAndGlyphs" textLength="122" x="440.5" y="351.4736">String getPropertyName()</text><ellipse cx="431.5" cy="362.3086" fill="#84BE84" rx="3" ry="3" style="stroke: #038048; stroke-width: 1.0;"/><text fill="#000000" font-family="sans-serif" font-size="11" lengthAdjust="spacingAndGlyphs" textLength="123" x="440.5" y="365.3096">String getPropertyValue()</text></a><!--class soen6441riskgame.controllers.MapController--><a target="_parent" xlink:actuate="onRequest" xlink:href="../../soen6441riskgame/controllers/MapController.html" xlink:show="new" xlink:title="soen6441riskgame.controllers.MapController" xlink:type="simple"><rect fill="#FFFFFF" filter="url(#fjhwy8aqpjzrr)" height="40.1875" id="soen6441riskgame.controllers.MapController" style="stroke: #A80036; stroke-width: 1.5;" width="171" x="6" y="8"/><rect fill="#FFFFFF" height="40.1875" style="stroke: #A80036; stroke-width: 1.5;" width="171" x="6" y="8"/><ellipse cx="21" cy="28.0938" fill="#ADD1B2" rx="11" ry="11" style="stroke: #A80036; stroke-width: 1.0;"/><path d="M23.7656,23.9688 Q23.9219,23.75 24.1094,23.6406 Q24.2969,23.5313 24.5156,23.5313 Q24.8906,23.5313 25.125,23.7891 Q25.3594,24.0469 25.3594,24.6563 L25.3594,26.1094 Q25.3594,26.7188 25.125,26.9844 Q24.8906,27.25 24.5156,27.25 Q24.1719,27.25 23.9688,27.0469 Q23.7656,26.8594 23.6563,26.3438 Q23.6094,25.9844 23.4219,25.7969 Q23.0938,25.4219 22.4844,25.2031 Q21.875,24.9844 21.25,24.9844 Q20.4844,24.9844 19.8516,25.3125 Q19.2188,25.6406 18.7266,26.3906 Q18.2344,27.1406 18.2344,28.1719 L18.2344,29.2656 Q18.2344,30.5 19.125,31.3203 Q20.0156,32.1406 21.6094,32.1406 Q22.5469,32.1406 23.2031,31.8906 Q23.5938,31.7344 24.0156,31.2969 Q24.2813,31.0313 24.4297,30.9531 Q24.5781,30.875 24.7813,30.875 Q25.1094,30.875 25.3672,31.1328 Q25.625,31.3906 25.625,31.7344 Q25.625,32.0781 25.2813,32.4844 Q24.7813,33.0625 23.9844,33.3906 Q22.9063,33.8438 21.6094,33.8438 Q20.0938,33.8438 18.8906,33.2188 Q17.9063,32.7188 17.2188,31.6484 Q16.5313,30.5781 16.5313,29.2969 L16.5313,28.1406 Q16.5313,26.8125 17.1484,25.6641 Q17.7656,24.5156 18.8594,23.8984 Q19.9531,23.2813 21.1875,23.2813 Q21.9219,23.2813 22.5703,23.4453 Q23.2188,23.6094 23.7656,23.9688 Z "/><text fill="#000000" font-family="sans-serif" font-size="14" font-weight="bold" lengthAdjust="spacingAndGlyphs" textLength="101" x="54" y="27.5332">MapController</text><text fill="#000000" font-family="sans-serif" font-size="10" lengthAdjust="spacingAndGlyphs" textLength="139" x="35" y="40.9902">soen6441riskgame.controllers</text></a><!--class soen6441riskgame.models.Country--><a target="_parent" xlink:actuate="onRequest" xlink:href="../../soen6441riskgame/models/Country.html" xlink:show="new" xlink:title="soen6441riskgame.models.Country" xlink:type="simple"><rect fill="#FEFECE" filter="url(#fjhwy8aqpjzrr)" height="40.1875" id="soen6441riskgame.models.Country" style="stroke: #A80036; stroke-width: 1.5;" width="156" x="83.5" y="432"/><ellipse cx="98.5" cy="452.0938" fill="#ADD1B2" rx="11" ry="11" style="stroke: #A80036; stroke-width: 1.0;"/><path d="M101.2656,447.9688 Q101.4219,447.75 101.6094,447.6406 Q101.7969,447.5313 102.0156,447.5313 Q102.3906,447.5313 102.625,447.7891 Q102.8594,448.0469 102.8594,448.6563 L102.8594,450.1094 Q102.8594,450.7188 102.625,450.9844 Q102.3906,451.25 102.0156,451.25 Q101.6719,451.25 101.4688,451.0469 Q101.2656,450.8594 101.1563,450.3438 Q101.1094,449.9844 100.9219,449.7969 Q100.5938,449.4219 99.9844,449.2031 Q99.375,448.9844 98.75,448.9844 Q97.9844,448.9844 97.3516,449.3125 Q96.7188,449.6406 96.2266,450.3906 Q95.7344,451.1406 95.7344,452.1719 L95.7344,453.2656 Q95.7344,454.5 96.625,455.3203 Q97.5156,456.1406 99.1094,456.1406 Q100.0469,456.1406 100.7031,455.8906 Q101.0938,455.7344 101.5156,455.2969 Q101.7813,455.0313 101.9297,454.9531 Q102.0781,454.875 102.2813,454.875 Q102.6094,454.875 102.8672,455.1328 Q103.125,455.3906 103.125,455.7344 Q103.125,456.0781 102.7813,456.4844 Q102.2813,457.0625 101.4844,457.3906 Q100.4063,457.8438 99.1094,457.8438 Q97.5938,457.8438 96.3906,457.2188 Q95.4063,456.7188 94.7188,455.6484 Q94.0313,454.5781 94.0313,453.2969 L94.0313,452.1406 Q94.0313,450.8125 94.6484,449.6641 Q95.2656,448.5156 96.3594,447.8984 Q97.4531,447.2813 98.6875,447.2813 Q99.4219,447.2813 100.0703,447.4453 Q100.7188,447.6094 101.2656,447.9688 Z "/><text fill="#000000" font-family="sans-serif" font-size="14" font-weight="bold" lengthAdjust="spacingAndGlyphs" textLength="55" x="147" y="451.5332">Country</text><text fill="#000000" font-family="sans-serif" font-size="10" lengthAdjust="spacingAndGlyphs" textLength="124" x="112.5" y="464.9902">soen6441riskgame.models</text></a><!--class soen6441riskgame.models.Viewable--><a target="_parent" xlink:actuate="onRequest" xlink:href="../../soen6441riskgame/models/Viewable.html" xlink:show="new" xlink:title="soen6441riskgame.models.Viewable" xlink:type="simple"><rect fill="#FEFECE" filter="url(#fjhwy8aqpjzrr)" height="40.1875" id="soen6441riskgame.models.Viewable" style="stroke: #A80036; stroke-width: 1.5;" width="156" x="274.5" y="432"/><ellipse cx="289.5" cy="452.0938" fill="#B4A7E5" rx="11" ry="11" style="stroke: #A80036; stroke-width: 1.0;"/><path d="M290.4531,448.7344 L290.4531,455.3906 L292.1719,455.3906 Q292.7813,455.3906 293.0469,455.625 Q293.3125,455.8594 293.3125,456.25 Q293.3125,456.625 293.0469,456.8594 Q292.7813,457.0938 292.1719,457.0938 L287.0313,457.0938 Q286.4219,457.0938 286.1563,456.8594 Q285.8906,456.625 285.8906,456.2344 Q285.8906,455.8594 286.1563,455.625 Q286.4219,455.3906 287.0313,455.3906 L288.75,455.3906 L288.75,448.7344 L287.0313,448.7344 Q286.4219,448.7344 286.1563,448.5 Q285.8906,448.2656 285.8906,447.875 Q285.8906,447.5 286.1563,447.2656 Q286.4219,447.0313 287.0313,447.0313 L292.1719,447.0313 Q292.7813,447.0313 293.0469,447.2656 Q293.3125,447.5 293.3125,447.875 Q293.3125,448.2656 293.0469,448.5 Q292.7813,448.7344 292.1719,448.7344 L290.4531,448.7344 Z "/><text fill="#000000" font-family="sans-serif" font-size="14" font-style="italic" font-weight="bold" lengthAdjust="spacingAndGlyphs" textLength="62" x="334.5" y="451.5332">Viewable</text><text fill="#000000" font-family="sans-serif" font-size="10" font-style="italic" lengthAdjust="spacingAndGlyphs" textLength="124" x="303.5" y="464.9902">soen6441riskgame.models</text></a><!--class soen6441riskgame.models.NameOnlySerializable--><a target="_parent" xlink:actuate="onRequest" xlink:href="../../soen6441riskgame/models/NameOnlySerializable.html" xlink:show="new" xlink:title="soen6441riskgame.models.NameOnlySerializable" xlink:type="simple"><rect fill="#FEFECE" filter="url(#fjhwy8aqpjzrr)" height="40.1875" id="soen6441riskgame.models.NameOnlySerializable" style="stroke: #A80036; stroke-width: 1.5;" width="178" x="465.5" y="432"/><ellipse cx="480.5" cy="452.0938" fill="#B4A7E5" rx="11" ry="11" style="stroke: #A80036; stroke-width: 1.0;"/><path d="M481.4531,448.7344 L481.4531,455.3906 L483.1719,455.3906 Q483.7813,455.3906 484.0469,455.625 Q484.3125,455.8594 484.3125,456.25 Q484.3125,456.625 484.0469,456.8594 Q483.7813,457.0938 483.1719,457.0938 L478.0313,457.0938 Q477.4219,457.0938 477.1563,456.8594 Q476.8906,456.625 476.8906,456.2344 Q476.8906,455.8594 477.1563,455.625 Q477.4219,455.3906 478.0313,455.3906 L479.75,455.3906 L479.75,448.7344 L478.0313,448.7344 Q477.4219,448.7344 477.1563,448.5 Q476.8906,448.2656 476.8906,447.875 Q476.8906,447.5 477.1563,447.2656 Q477.4219,447.0313 478.0313,447.0313 L483.1719,447.0313 Q483.7813,447.0313 484.0469,447.2656 Q484.3125,447.5 484.3125,447.875 Q484.3125,448.2656 484.0469,448.5 Q483.7813,448.7344 483.1719,448.7344 L481.4531,448.7344 Z "/><text fill="#000000" font-family="sans-serif" font-size="14" font-style="italic" font-weight="bold" lengthAdjust="spacingAndGlyphs" textLength="146" x="494.5" y="451.5332">NameOnlySerializable</text><text fill="#000000" font-family="sans-serif" font-size="10" font-style="italic" lengthAdjust="spacingAndGlyphs" textLength="124" x="505.5" y="464.9902">soen6441riskgame.models</text></a><!--class soen6441riskgame.models.Player--><a target="_parent" xlink:actuate="onRequest" xlink:href="../../soen6441riskgame/models/Player.html" xlink:show="new" xlink:title="soen6441riskgame.models.Player" xlink:type="simple"><rect fill="#FEFECE" filter="url(#fjhwy8aqpjzrr)" height="40.1875" id="soen6441riskgame.models.Player" style="stroke: #A80036; stroke-width: 1.5;" width="156" x="678.5" y="432"/><ellipse cx="693.5" cy="452.0938" fill="#ADD1B2" rx="11" ry="11" style="stroke: #A80036; stroke-width: 1.0;"/><path d="M696.2656,447.9688 Q696.4219,447.75 696.6094,447.6406 Q696.7969,447.5313 697.0156,447.5313 Q697.3906,447.5313 697.625,447.7891 Q697.8594,448.0469 697.8594,448.6563 L697.8594,450.1094 Q697.8594,450.7188 697.625,450.9844 Q697.3906,451.25 697.0156,451.25 Q696.6719,451.25 696.4688,451.0469 Q696.2656,450.8594 696.1563,450.3438 Q696.1094,449.9844 695.9219,449.7969 Q695.5938,449.4219 694.9844,449.2031 Q694.375,448.9844 693.75,448.9844 Q692.9844,448.9844 692.3516,449.3125 Q691.7188,449.6406 691.2266,450.3906 Q690.7344,451.1406 690.7344,452.1719 L690.7344,453.2656 Q690.7344,454.5 691.625,455.3203 Q692.5156,456.1406 694.1094,456.1406 Q695.0469,456.1406 695.7031,455.8906 Q696.0938,455.7344 696.5156,455.2969 Q696.7813,455.0313 696.9297,454.9531 Q697.0781,454.875 697.2813,454.875 Q697.6094,454.875 697.8672,455.1328 Q698.125,455.3906 698.125,455.7344 Q698.125,456.0781 697.7813,456.4844 Q697.2813,457.0625 696.4844,457.3906 Q695.4063,457.8438 694.1094,457.8438 Q692.5938,457.8438 691.3906,457.2188 Q690.4063,456.7188 689.7188,455.6484 Q689.0313,454.5781 689.0313,453.2969 L689.0313,452.1406 Q689.0313,450.8125 689.6484,449.6641 Q690.2656,448.5156 691.3594,447.8984 Q692.4531,447.2813 693.6875,447.2813 Q694.4219,447.2813 695.0703,447.4453 Q695.7188,447.6094 696.2656,447.9688 Z "/><text fill="#000000" font-family="sans-serif" font-size="14" font-weight="bold" lengthAdjust="spacingAndGlyphs" textLength="43" x="748" y="451.5332">Player</text><text fill="#000000" font-family="sans-serif" font-size="10" lengthAdjust="spacingAndGlyphs" textLength="124" x="707.5" y="464.9902">soen6441riskgame.models</text></a><!--class java.io.PrintStream--><rect fill="#D3D3D3" filter="url(#fjhwy8aqpjzrr)" height="40.1875" id="java.io.PrintStream" style="stroke: #A80036; stroke-width: 1.5;" width="114" x="869.5" y="432"/><rect fill="#D3D3D3" height="40.1875" style="stroke: #A80036; stroke-width: 1.5;" width="114" x="869.5" y="432"/><ellipse cx="884.5" cy="452.0938" fill="#ADD1B2" rx="11" ry="11" style="stroke: #A80036; stroke-width: 1.0;"/><path d="M887.2656,447.9688 Q887.4219,447.75 887.6094,447.6406 Q887.7969,447.5313 888.0156,447.5313 Q888.3906,447.5313 888.625,447.7891 Q888.8594,448.0469 888.8594,448.6563 L888.8594,450.1094 Q888.8594,450.7188 888.625,450.9844 Q888.3906,451.25 888.0156,451.25 Q887.6719,451.25 887.4688,451.0469 Q887.2656,450.8594 887.1563,450.3438 Q887.1094,449.9844 886.9219,449.7969 Q886.5938,449.4219 885.9844,449.2031 Q885.375,448.9844 884.75,448.9844 Q883.9844,448.9844 883.3516,449.3125 Q882.7188,449.6406 882.2266,450.3906 Q881.7344,451.1406 881.7344,452.1719 L881.7344,453.2656 Q881.7344,454.5 882.625,455.3203 Q883.5156,456.1406 885.1094,456.1406 Q886.0469,456.1406 886.7031,455.8906 Q887.0938,455.7344 887.5156,455.2969 Q887.7813,455.0313 887.9297,454.9531 Q888.0781,454.875 888.2813,454.875 Q888.6094,454.875 888.8672,455.1328 Q889.125,455.3906 889.125,455.7344 Q889.125,456.0781 888.7813,456.4844 Q888.2813,457.0625 887.4844,457.3906 Q886.4063,457.8438 885.1094,457.8438 Q883.5938,457.8438 882.3906,457.2188 Q881.4063,456.7188 880.7188,455.6484 Q880.0313,454.5781 880.0313,453.2969 L880.0313,452.1406 Q880.0313,450.8125 880.6484,449.6641 Q881.2656,448.5156 882.3594,447.8984 Q883.4531,447.2813 884.6875,447.2813 Q885.4219,447.2813 886.0703,447.4453 Q886.7188,447.6094 887.2656,447.9688 Z "/><text fill="#000000" font-family="sans-serif" font-size="14" font-weight="bold" lengthAdjust="spacingAndGlyphs" textLength="82" x="898.5" y="451.5332">PrintStream</text><text fill="#000000" font-family="sans-serif" font-size="10" lengthAdjust="spacingAndGlyphs" textLength="32" x="923.5" y="464.9902">java.io</text><!--class soen6441riskgame.models.serializers.NameOnlyJsonAdapter--><a target="_parent" xlink:actuate="onRequest" xlink:href="../../soen6441riskgame/models/serializers/NameOnlyJsonAdapter.html" xlink:show="new" xlink:title="soen6441riskgame.models.serializers.NameOnlyJsonAdapter" xlink:type="simple"><rect fill="#FFFFFF" filter="url(#fjhwy8aqpjzrr)" height="40.1875" id="soen6441riskgame.models.serializers.NameOnlyJsonAdapter" style="stroke: #A80036; stroke-width: 1.5;" width="205" x="212" y="8"/><rect fill="#FFFFFF" height="40.1875" style="stroke: #A80036; stroke-width: 1.5;" width="205" x="212" y="8"/><ellipse cx="227" cy="28.0938" fill="#ADD1B2" rx="11" ry="11" style="stroke: #A80036; stroke-width: 1.0;"/><path d="M229.7656,23.9688 Q229.9219,23.75 230.1094,23.6406 Q230.2969,23.5313 230.5156,23.5313 Q230.8906,23.5313 231.125,23.7891 Q231.3594,24.0469 231.3594,24.6563 L231.3594,26.1094 Q231.3594,26.7188 231.125,26.9844 Q230.8906,27.25 230.5156,27.25 Q230.1719,27.25 229.9688,27.0469 Q229.7656,26.8594 229.6563,26.3438 Q229.6094,25.9844 229.4219,25.7969 Q229.0938,25.4219 228.4844,25.2031 Q227.875,24.9844 227.25,24.9844 Q226.4844,24.9844 225.8516,25.3125 Q225.2188,25.6406 224.7266,26.3906 Q224.2344,27.1406 224.2344,28.1719 L224.2344,29.2656 Q224.2344,30.5 225.125,31.3203 Q226.0156,32.1406 227.6094,32.1406 Q228.5469,32.1406 229.2031,31.8906 Q229.5938,31.7344 230.0156,31.2969 Q230.2813,31.0313 230.4297,30.9531 Q230.5781,30.875 230.7813,30.875 Q231.1094,30.875 231.3672,31.1328 Q231.625,31.3906 231.625,31.7344 Q231.625,32.0781 231.2813,32.4844 Q230.7813,33.0625 229.9844,33.3906 Q228.9063,33.8438 227.6094,33.8438 Q226.0938,33.8438 224.8906,33.2188 Q223.9063,32.7188 223.2188,31.6484 Q222.5313,30.5781 222.5313,29.2969 L222.5313,28.1406 Q222.5313,26.8125 223.1484,25.6641 Q223.7656,24.5156 224.8594,23.8984 Q225.9531,23.2813 227.1875,23.2813 Q227.9219,23.2813 228.5703,23.4453 Q229.2188,23.6094 229.7656,23.9688 Z "/><text fill="#000000" font-family="sans-serif" font-size="14" font-weight="bold" lengthAdjust="spacingAndGlyphs" textLength="159" x="248" y="27.5332">NameOnlyJsonAdapter</text><text fill="#000000" font-family="sans-serif" font-size="10" lengthAdjust="spacingAndGlyphs" textLength="173" x="241" y="40.9902">soen6441riskgame.models.serializers</text></a><!--class soen6441riskgame.models.serializers.SerializableGame--><a target="_parent" xlink:actuate="onRequest" xlink:href="../../soen6441riskgame/models/serializers/SerializableGame.html" xlink:show="new" xlink:title="soen6441riskgame.models.serializers.SerializableGame" xlink:type="simple"><rect fill="#FFFFFF" filter="url(#fjhwy8aqpjzrr)" height="40.1875" id="soen6441riskgame.models.serializers.SerializableGame" style="stroke: #A80036; stroke-width: 1.5;" width="205" x="452" y="8"/><rect fill="#FFFFFF" height="40.1875" style="stroke: #A80036; stroke-width: 1.5;" width="205" x="452" y="8"/><ellipse cx="467" cy="28.0938" fill="#ADD1B2" rx="11" ry="11" style="stroke: #A80036; stroke-width: 1.0;"/><path d="M469.7656,23.9688 Q469.9219,23.75 470.1094,23.6406 Q470.2969,23.5313 470.5156,23.5313 Q470.8906,23.5313 471.125,23.7891 Q471.3594,24.0469 471.3594,24.6563 L471.3594,26.1094 Q471.3594,26.7188 471.125,26.9844 Q470.8906,27.25 470.5156,27.25 Q470.1719,27.25 469.9688,27.0469 Q469.7656,26.8594 469.6563,26.3438 Q469.6094,25.9844 469.4219,25.7969 Q469.0938,25.4219 468.4844,25.2031 Q467.875,24.9844 467.25,24.9844 Q466.4844,24.9844 465.8516,25.3125 Q465.2188,25.6406 464.7266,26.3906 Q464.2344,27.1406 464.2344,28.1719 L464.2344,29.2656 Q464.2344,30.5 465.125,31.3203 Q466.0156,32.1406 467.6094,32.1406 Q468.5469,32.1406 469.2031,31.8906 Q469.5938,31.7344 470.0156,31.2969 Q470.2813,31.0313 470.4297,30.9531 Q470.5781,30.875 470.7813,30.875 Q471.1094,30.875 471.3672,31.1328 Q471.625,31.3906 471.625,31.7344 Q471.625,32.0781 471.2813,32.4844 Q470.7813,33.0625 469.9844,33.3906 Q468.9063,33.8438 467.6094,33.8438 Q466.0938,33.8438 464.8906,33.2188 Q463.9063,32.7188 463.2188,31.6484 Q462.5313,30.5781 462.5313,29.2969 L462.5313,28.1406 Q462.5313,26.8125 463.1484,25.6641 Q463.7656,24.5156 464.8594,23.8984 Q465.9531,23.2813 467.1875,23.2813 Q467.9219,23.2813 468.5703,23.4453 Q469.2188,23.6094 469.7656,23.9688 Z "/><text fill="#000000" font-family="sans-serif" font-size="14" font-weight="bold" lengthAdjust="spacingAndGlyphs" textLength="121" x="507" y="27.5332">SerializableGame</text><text fill="#000000" font-family="sans-serif" font-size="10" lengthAdjust="spacingAndGlyphs" textLength="173" x="481" y="40.9902">soen6441riskgame.models.serializers</text></a><!--class soen6441riskgame.models.serializers.SerializableGame.Builder--><a target="_parent" xlink:actuate="onRequest" xlink:href="../../soen6441riskgame/models/serializers/SerializableGame.Builder.html" xlink:show="new" xlink:title="soen6441riskgame.models.serializers.SerializableGame.Builder" xlink:type="simple"><rect fill="#FFFFFF" filter="url(#fjhwy8aqpjzrr)" height="40.1875" id="soen6441riskgame.models.serializers.SerializableGame.Builder" style="stroke: #A80036; stroke-width: 1.5;" width="208" x="692.5" y="8"/><rect fill="#FFFFFF" height="40.1875" style="stroke: #A80036; stroke-width: 1.5;" width="208" x="692.5" y="8"/><ellipse cx="707.5" cy="28.0938" fill="#ADD1B2" rx="11" ry="11" style="stroke: #A80036; stroke-width: 1.0;"/><path d="M710.2656,23.9688 Q710.4219,23.75 710.6094,23.6406 Q710.7969,23.5313 711.0156,23.5313 Q711.3906,23.5313 711.625,23.7891 Q711.8594,24.0469 711.8594,24.6563 L711.8594,26.1094 Q711.8594,26.7188 711.625,26.9844 Q711.3906,27.25 711.0156,27.25 Q710.6719,27.25 710.4688,27.0469 Q710.2656,26.8594 710.1563,26.3438 Q710.1094,25.9844 709.9219,25.7969 Q709.5938,25.4219 708.9844,25.2031 Q708.375,24.9844 707.75,24.9844 Q706.9844,24.9844 706.3516,25.3125 Q705.7188,25.6406 705.2266,26.3906 Q704.7344,27.1406 704.7344,28.1719 L704.7344,29.2656 Q704.7344,30.5 705.625,31.3203 Q706.5156,32.1406 708.1094,32.1406 Q709.0469,32.1406 709.7031,31.8906 Q710.0938,31.7344 710.5156,31.2969 Q710.7813,31.0313 710.9297,30.9531 Q711.0781,30.875 711.2813,30.875 Q711.6094,30.875 711.8672,31.1328 Q712.125,31.3906 712.125,31.7344 Q712.125,32.0781 711.7813,32.4844 Q711.2813,33.0625 710.4844,33.3906 Q709.4063,33.8438 708.1094,33.8438 Q706.5938,33.8438 705.3906,33.2188 Q704.4063,32.7188 703.7188,31.6484 Q703.0313,30.5781 703.0313,29.2969 L703.0313,28.1406 Q703.0313,26.8125 703.6484,25.6641 Q704.2656,24.5156 705.3594,23.8984 Q706.4531,23.2813 707.6875,23.2813 Q708.4219,23.2813 709.0703,23.4453 Q709.7188,23.6094 710.2656,23.9688 Z "/><text fill="#000000" font-family="sans-serif" font-size="14" font-weight="bold" lengthAdjust="spacingAndGlyphs" textLength="176" x="721.5" y="27.5332">SerializableGame.Builder</text><text fill="#000000" font-family="sans-serif" font-size="10" lengthAdjust="spacingAndGlyphs" textLength="173" x="723" y="40.9902">soen6441riskgame.models.serializers</text></a><!--class soen6441riskgame.singleton.GameBoardMap--><a target="_parent" xlink:actuate="onRequest" xlink:href="../../soen6441riskgame/singleton/GameBoardMap.html" xlink:show="new" xlink:title="soen6441riskgame.singleton.GameBoardMap" xlink:type="simple"><rect fill="#FFFFFF" filter="url(#fjhwy8aqpjzrr)" height="40.1875" id="soen6441riskgame.singleton.GameBoardMap" style="stroke: #A80036; stroke-width: 1.5;" width="165" x="936" y="8"/><rect fill="#FFFFFF" height="40.1875" style="stroke: #A80036; stroke-width: 1.5;" width="165" x="936" y="8"/><ellipse cx="951" cy="28.0938" fill="#ADD1B2" rx="11" ry="11" style="stroke: #A80036; stroke-width: 1.0;"/><path d="M953.7656,23.9688 Q953.9219,23.75 954.1094,23.6406 Q954.2969,23.5313 954.5156,23.5313 Q954.8906,23.5313 955.125,23.7891 Q955.3594,24.0469 955.3594,24.6563 L955.3594,26.1094 Q955.3594,26.7188 955.125,26.9844 Q954.8906,27.25 954.5156,27.25 Q954.1719,27.25 953.9688,27.0469 Q953.7656,26.8594 953.6563,26.3438 Q953.6094,25.9844 953.4219,25.7969 Q953.0938,25.4219 952.4844,25.2031 Q951.875,24.9844 951.25,24.9844 Q950.4844,24.9844 949.8516,25.3125 Q949.2188,25.6406 948.7266,26.3906 Q948.2344,27.1406 948.2344,28.1719 L948.2344,29.2656 Q948.2344,30.5 949.125,31.3203 Q950.0156,32.1406 951.6094,32.1406 Q952.5469,32.1406 953.2031,31.8906 Q953.5938,31.7344 954.0156,31.2969 Q954.2813,31.0313 954.4297,30.9531 Q954.5781,30.875 954.7813,30.875 Q955.1094,30.875 955.3672,31.1328 Q955.625,31.3906 955.625,31.7344 Q955.625,32.0781 955.2813,32.4844 Q954.7813,33.0625 953.9844,33.3906 Q952.9063,33.8438 951.6094,33.8438 Q950.0938,33.8438 948.8906,33.2188 Q947.9063,32.7188 947.2188,31.6484 Q946.5313,30.5781 946.5313,29.2969 L946.5313,28.1406 Q946.5313,26.8125 947.1484,25.6641 Q947.7656,24.5156 948.8594,23.8984 Q949.9531,23.2813 951.1875,23.2813 Q951.9219,23.2813 952.5703,23.4453 Q953.2188,23.6094 953.7656,23.9688 Z "/><text fill="#000000" font-family="sans-serif" font-size="14" font-weight="bold" lengthAdjust="spacingAndGlyphs" textLength="112" x="975.5" y="27.5332">GameBoardMap</text><text fill="#000000" font-family="sans-serif" font-size="10" lengthAdjust="spacingAndGlyphs" textLength="133" x="965" y="40.9902">soen6441riskgame.singleton</text></a><!--link soen6441riskgame.controllers.MapController to soen6441riskgame.models.Continent--><path d="M130.25,48.301 C130.25,88.417 130.25,174 130.25,174 C130.25,174 415.265,174 415.265,174 " fill="none" id="soen6441riskgame.controllers.MapController-soen6441riskgame.models.Continent" style="stroke: #A80036; stroke-width: 1.0; stroke-dasharray: 7.0,7.0;"/><polygon fill="#A80036" points="420.265,174,411.265,170,415.265,174,411.265,178,420.265,174" style="stroke: #A80036; stroke-width: 1.0;"/><!--link soen6441riskgame.models.Continent to soen6441riskgame.models.Country--><path d="M420.361,240 C327.737,240 221.167,240 221.167,240 C221.167,240 221.167,426.6725 221.167,426.6725 " fill="none" id="soen6441riskgame.models.Continent-soen6441riskgame.models.Country" style="stroke: #A80036; stroke-width: 1.0; stroke-dasharray: 7.0,7.0;"/><polygon fill="#A80036" points="221.167,431.6725,225.167,422.6725,221.167,426.6725,217.167,422.6725,221.167,431.6725" style="stroke: #A80036; stroke-width: 1.0;"/><!--link soen6441riskgame.models.Country to soen6441riskgame.models.Continent--><path d="M230.333,431.6993 C230.333,391.5825 230.333,306 230.333,306 C230.333,306 415.309,306 415.309,306 " fill="none" id="soen6441riskgame.models.Country-soen6441riskgame.models.Continent" style="stroke: #A80036; stroke-width: 1.0;"/><polygon fill="#A80036" points="420.309,306,411.309,302,415.309,306,411.309,310,420.309,306" style="stroke: #A80036; stroke-width: 1.0;"/><text fill="#000000" font-family="sans-serif" font-size="13" lengthAdjust="spacingAndGlyphs" textLength="53" x="359.5255" y="306.3196">continent</text><!--link soen6441riskgame.models.Continent to soen6441riskgame.models.Viewable--><path d="M425.5,372.154 C425.5,372.154 425.5,411.8352 425.5,411.8352 " fill="none" id="soen6441riskgame.models.Continent-soen6441riskgame.models.Viewable" style="stroke: #A80036; stroke-width: 1.0; stroke-dasharray: 7.0,7.0;"/><polygon fill="none" points="432.5,411.8353,425.5,431.8352,418.5,411.8352,432.5,411.8353" style="stroke: #A80036; stroke-width: 1.0;"/><!--link soen6441riskgame.models.Continent to soen6441riskgame.models.NameOnlySerializable--><path d="M554.5,372.154 C554.5,372.154 554.5,411.8352 554.5,411.8352 " fill="none" id="soen6441riskgame.models.Continent-soen6441riskgame.models.NameOnlySerializable" style="stroke: #A80036; stroke-width: 1.0; stroke-dasharray: 7.0,7.0;"/><polygon fill="none" points="561.5,411.8353,554.5,431.8352,547.5,411.8352,561.5,411.8353" style="stroke: #A80036; stroke-width: 1.0;"/><!--link soen6441riskgame.models.Continent to soen6441riskgame.models.Player--><path d="M681.833,372.154 C681.833,372.154 681.833,426.8352 681.833,426.8352 " fill="none" id="soen6441riskgame.models.Continent-soen6441riskgame.models.Player" style="stroke: #A80036; stroke-width: 1.0; stroke-dasharray: 7.0,7.0;"/><polygon fill="#A80036" points="681.833,431.8352,685.833,422.8352,681.833,426.8352,677.833,422.8352,681.833,431.8352" style="stroke: #A80036; stroke-width: 1.0;"/><!--link soen6441riskgame.models.Player to soen6441riskgame.models.Continent--><path d="M685.167,431.6725 C685.167,431.6725 685.167,377.0761 685.167,377.0761 " fill="none" id="soen6441riskgame.models.Player-soen6441riskgame.models.Continent" style="stroke: #A80036; stroke-width: 1.0; stroke-dasharray: 7.0,7.0;"/><polygon fill="#A80036" points="685.167,372.0761,681.167,381.0761,685.167,377.0761,689.167,381.0761,685.167,372.0761" style="stroke: #A80036; stroke-width: 1.0;"/><!--link soen6441riskgame.models.Continent to java.io.PrintStream--><path d="M688.927,284 C780.428,284 885,284 885,284 C885,284 885,426.7353 885,426.7353 " fill="none" id="soen6441riskgame.models.Continent-java.io.PrintStream" style="stroke: #A80036; stroke-width: 1.0; stroke-dasharray: 7.0,7.0;"/><polygon fill="#A80036" points="885,431.7353,889,422.7353,885,426.7353,881,422.7353,885,431.7353" style="stroke: #A80036; stroke-width: 1.0;"/><!--link soen6441riskgame.models.serializers.NameOnlyJsonAdapter to soen6441riskgame.models.Continent--><path d="M417.227,28 C428.641,28 436.25,28 436.25,28 C436.25,28 436.25,102.846 436.25,102.846 " fill="none" id="soen6441riskgame.models.serializers.NameOnlyJsonAdapter-soen6441riskgame.models.Continent" style="stroke: #A80036; stroke-width: 1.0; stroke-dasharray: 7.0,7.0;"/><polygon fill="#A80036" points="436.25,107.846,440.25,98.846,436.25,102.846,432.25,98.846,436.25,107.846" style="stroke: #A80036; stroke-width: 1.0;"/><!--link soen6441riskgame.models.serializers.SerializableGame to soen6441riskgame.models.Continent--><path d="M554.5,48.327 C554.5,48.327 554.5,102.924 554.5,102.924 " fill="none" id="soen6441riskgame.models.serializers.SerializableGame-soen6441riskgame.models.Continent" style="stroke: #A80036; stroke-width: 1.0; stroke-dasharray: 7.0,7.0;"/><polygon fill="#A80036" points="554.5,107.924,558.5,98.924,554.5,102.924,550.5,98.924,554.5,107.924" style="stroke: #A80036; stroke-width: 1.0;"/><!--link soen6441riskgame.models.serializers.SerializableGame.Builder to soen6441riskgame.models.Continent--><path d="M692.359,28 C680.606,28 672.75,28 672.75,28 C672.75,28 672.75,102.846 672.75,102.846 " fill="none" id="soen6441riskgame.models.serializers.SerializableGame.Builder-soen6441riskgame.models.Continent" style="stroke: #A80036; stroke-width: 1.0; stroke-dasharray: 7.0,7.0;"/><polygon fill="#A80036" points="672.75,107.846,676.75,98.846,672.75,102.846,668.75,98.846,672.75,107.846" style="stroke: #A80036; stroke-width: 1.0;"/><!--link soen6441riskgame.singleton.GameBoardMap to soen6441riskgame.models.Continent--><path d="M959.75,48.265 C959.75,92.948 959.75,196 959.75,196 C959.75,196 693.598,196 693.598,196 " fill="none" id="soen6441riskgame.singleton.GameBoardMap-soen6441riskgame.models.Continent" style="stroke: #A80036; stroke-width: 1.0; stroke-dasharray: 7.0,7.0;"/><polygon fill="#A80036" points="688.598,196,697.598,200,693.598,196,697.598,192,688.598,196" style="stroke: #A80036; stroke-width: 1.0;"/><!--
@startuml

skinparam svgLinkTarget _parent
skinparam linetype ortho
set namespaceSeparator none
class "<b><size:14>Continent</b>\n<size:10>soen6441riskgame.models" as soen6441riskgame.models.Continent  [[../../soen6441riskgame/models/Continent.html{soen6441riskgame.models.Continent}]] {
-String name
-int army
-ArrayList<Country> countries
+Continent(String name,int army)
+int getOrder()
+int getArmy()
+ArrayList<Country> getCountries()
+String getName()
+Player getConquerer()
+boolean isContinentConnected()
+void view(PrintStream printStream,int indent)
+void viewWithoutCountry()
+void viewWithoutCountry(PrintStream printStream)
+String getPropertyName()
+String getPropertyValue()
}


class "<b><size:14>MapController</b>\n<size:10>soen6441riskgame.controllers" as soen6441riskgame.controllers.MapController  [[../../soen6441riskgame/controllers/MapController.html{soen6441riskgame.controllers.MapController}]] #white {
}

hide soen6441riskgame.controllers.MapController fields
hide soen6441riskgame.controllers.MapController methods

soen6441riskgame.controllers.MapController ..> soen6441riskgame.models.Continent


class "<b><size:14>Country</b>\n<size:10>soen6441riskgame.models" as soen6441riskgame.models.Country  [[../../soen6441riskgame/models/Country.html{soen6441riskgame.models.Country}]] {
}

hide soen6441riskgame.models.Country fields
hide soen6441riskgame.models.Country methods

soen6441riskgame.models.Continent ..> soen6441riskgame.models.Country


interface "<b><size:14>Viewable</b>\n<size:10>soen6441riskgame.models" as soen6441riskgame.models.Viewable  [[../../soen6441riskgame/models/Viewable.html{soen6441riskgame.models.Viewable}]] {
}

hide soen6441riskgame.models.Viewable fields
hide soen6441riskgame.models.Viewable methods

soen6441riskgame.models.Continent ..|> soen6441riskgame.models.Viewable

interface "<b><size:14>NameOnlySerializable</b>\n<size:10>soen6441riskgame.models" as soen6441riskgame.models.NameOnlySerializable  [[../../soen6441riskgame/models/NameOnlySerializable.html{soen6441riskgame.models.NameOnlySerializable}]] {
}

hide soen6441riskgame.models.NameOnlySerializable fields
hide soen6441riskgame.models.NameOnlySerializable methods

soen6441riskgame.models.Continent ..|> soen6441riskgame.models.NameOnlySerializable

class "<b><size:14>Player</b>\n<size:10>soen6441riskgame.models" as soen6441riskgame.models.Player  [[../../soen6441riskgame/models/Player.html{soen6441riskgame.models.Player}]] {
}

hide soen6441riskgame.models.Player fields
hide soen6441riskgame.models.Player methods

soen6441riskgame.models.Continent ..> soen6441riskgame.models.Player

class "<b><size:14>PrintStream</b>\n<size:10>java.io" as java.io.PrintStream  #lightgrey {
}

hide java.io.PrintStream fields
hide java.io.PrintStream methods

soen6441riskgame.models.Continent ..> java.io.PrintStream

soen6441riskgame.models.Country - ->  "continent" soen6441riskgame.models.Continent

soen6441riskgame.models.Player ..> soen6441riskgame.models.Continent

class "<b><size:14>NameOnlyJsonAdapter</b>\n<size:10>soen6441riskgame.models.serializers" as soen6441riskgame.models.serializers.NameOnlyJsonAdapter  [[../../soen6441riskgame/models/serializers/NameOnlyJsonAdapter.html{soen6441riskgame.models.serializers.NameOnlyJsonAdapter}]] #white {
}

hide soen6441riskgame.models.serializers.NameOnlyJsonAdapter fields
hide soen6441riskgame.models.serializers.NameOnlyJsonAdapter methods

soen6441riskgame.models.serializers.NameOnlyJsonAdapter ..> soen6441riskgame.models.Continent

class "<b><size:14>SerializableGame</b>\n<size:10>soen6441riskgame.models.serializers" as soen6441riskgame.models.serializers.SerializableGame  [[../../soen6441riskgame/models/serializers/SerializableGame.html{soen6441riskgame.models.serializers.SerializableGame}]] #white {
}

hide soen6441riskgame.models.serializers.SerializableGame fields
hide soen6441riskgame.models.serializers.SerializableGame methods

soen6441riskgame.models.serializers.SerializableGame ..> soen6441riskgame.models.Continent

class "<b><size:14>SerializableGame.Builder</b>\n<size:10>soen6441riskgame.models.serializers" as soen6441riskgame.models.serializers.SerializableGame.Builder  [[../../soen6441riskgame/models/serializers/SerializableGame.Builder.html{soen6441riskgame.models.serializers.SerializableGame.Builder}]] #white {
}

hide soen6441riskgame.models.serializers.SerializableGame.Builder fields
hide soen6441riskgame.models.serializers.SerializableGame.Builder methods

soen6441riskgame.models.serializers.SerializableGame.Builder ..> soen6441riskgame.models.Continent

class "<b><size:14>GameBoardMap</b>\n<size:10>soen6441riskgame.singleton" as soen6441riskgame.singleton.GameBoardMap  [[../../soen6441riskgame/singleton/GameBoardMap.html{soen6441riskgame.singleton.GameBoardMap}]] #white {
}

hide soen6441riskgame.singleton.GameBoardMap fields
hide soen6441riskgame.singleton.GameBoardMap methods

soen6441riskgame.singleton.GameBoardMap ..> soen6441riskgame.models.Continent


@enduml

PlantUML version 1.2017.15(Mon Jul 03 12:45:34 EDT 2017)
(GPL source distribution)
Java Runtime: Java(TM) SE Runtime Environment
JVM: Java HotSpot(TM) 64-Bit Server VM
Java Version: 1.8.0_231-b11
Operating System: Windows 10
OS Version: 10.0
Default Encoding: Cp1252
Language: en
Country: US
--></g></svg>