<?xml version="1.0" encoding="UTF-8" standalone="no"?><svg xmlns="http://www.w3.org/2000/svg" xmlns:xlink="http://www.w3.org/1999/xlink" contentScriptType="application/ecmascript" contentStyleType="text/css" height="244px" preserveAspectRatio="none" style="width:373px;height:244px;" version="1.1" viewBox="0 0 373 244" width="373px" zoomAndPan="magnify"><defs><filter height="300%" id="f11anmn4i98zx6" width="300%" x="-1" y="-1"><feGaussianBlur result="blurOut" stdDeviation="2.0"/><feColorMatrix in="blurOut" result="blurOut2" type="matrix" values="0 0 0 0 0 0 0 0 0 0 0 0 0 0 0 0 0 0 .4 0"/><feOffset dx="4.0" dy="4.0" in="blurOut2" result="blurOut3"/><feBlend in="SourceGraphic" in2="blurOut3" mode="normal"/></filter></defs><g><!--class soen6441riskgame.models.Coordinate--><a target="_parent" xlink:actuate="onRequest" xlink:href="../../soen6441riskgame/models/Coordinate.html" xlink:show="new" xlink:title="soen6441riskgame.models.Coordinate" xlink:type="simple"><rect fill="#FEFECE" filter="url(#f11anmn4i98zx6)" height="125.3672" id="soen6441riskgame.models.Coordinate" style="stroke: #A80036; stroke-width: 1.5;" width="156" x="104" y="108"/><ellipse cx="119" cy="128.0938" fill="#ADD1B2" rx="11" ry="11" style="stroke: #A80036; stroke-width: 1.0;"/><path d="M121.7656,123.9688 Q121.9219,123.75 122.1094,123.6406 Q122.2969,123.5313 122.5156,123.5313 Q122.8906,123.5313 123.125,123.7891 Q123.3594,124.0469 123.3594,124.6563 L123.3594,126.1094 Q123.3594,126.7188 123.125,126.9844 Q122.8906,127.25 122.5156,127.25 Q122.1719,127.25 121.9688,127.0469 Q121.7656,126.8594 121.6563,126.3438 Q121.6094,125.9844 121.4219,125.7969 Q121.0938,125.4219 120.4844,125.2031 Q119.875,124.9844 119.25,124.9844 Q118.4844,124.9844 117.8516,125.3125 Q117.2188,125.6406 116.7266,126.3906 Q116.2344,127.1406 116.2344,128.1719 L116.2344,129.2656 Q116.2344,130.5 117.125,131.3203 Q118.0156,132.1406 119.6094,132.1406 Q120.5469,132.1406 121.2031,131.8906 Q121.5938,131.7344 122.0156,131.2969 Q122.2813,131.0313 122.4297,130.9531 Q122.5781,130.875 122.7813,130.875 Q123.1094,130.875 123.3672,131.1328 Q123.625,131.3906 123.625,131.7344 Q123.625,132.0781 123.2813,132.4844 Q122.7813,133.0625 121.9844,133.3906 Q120.9063,133.8438 119.6094,133.8438 Q118.0938,133.8438 116.8906,133.2188 Q115.9063,132.7188 115.2188,131.6484 Q114.5313,130.5781 114.5313,129.2969 L114.5313,128.1406 Q114.5313,126.8125 115.1484,125.6641 Q115.7656,124.5156 116.8594,123.8984 Q117.9531,123.2813 119.1875,123.2813 Q119.9219,123.2813 120.5703,123.4453 Q121.2188,123.6094 121.7656,123.9688 Z "/><text fill="#000000" font-family="sans-serif" font-size="14" font-weight="bold" lengthAdjust="spacingAndGlyphs" textLength="78" x="156" y="127.5332">Coordinate</text><text fill="#000000" font-family="sans-serif" font-size="10" lengthAdjust="spacingAndGlyphs" textLength="124" x="133" y="140.9902">soen6441riskgame.models</text><line style="stroke: #A80036; stroke-width: 1.5;" x1="105" x2="259" y1="148.1875" y2="148.1875"/><rect fill="none" height="6" style="stroke: #C82930; stroke-width: 1.0;" width="6" x="112" y="157.6055"/><text fill="#000000" font-family="sans-serif" font-size="11" lengthAdjust="spacingAndGlyphs" textLength="20" x="124" y="163.6064">int x</text><rect fill="none" height="6" style="stroke: #C82930; stroke-width: 1.0;" width="6" x="112" y="171.4414"/><text fill="#000000" font-family="sans-serif" font-size="11" lengthAdjust="spacingAndGlyphs" textLength="20" x="124" y="177.4424">int y</text><line style="stroke: #A80036; stroke-width: 1.5;" x1="105" x2="259" y1="183.8594" y2="183.8594"/><ellipse cx="115" cy="196.2773" fill="#84BE84" rx="3" ry="3" style="stroke: #038048; stroke-width: 1.0;"/><text fill="#000000" font-family="sans-serif" font-size="11" lengthAdjust="spacingAndGlyphs" textLength="103" x="124" y="199.2783">Coordinate(int x,int y)</text><ellipse cx="115" cy="210.1133" fill="#84BE84" rx="3" ry="3" style="stroke: #038048; stroke-width: 1.0;"/><text fill="#000000" font-family="sans-serif" font-size="11" lengthAdjust="spacingAndGlyphs" textLength="45" x="124" y="213.1143">int getY()</text><ellipse cx="115" cy="223.9492" fill="#84BE84" rx="3" ry="3" style="stroke: #038048; stroke-width: 1.0;"/><text fill="#000000" font-family="sans-serif" font-size="11" lengthAdjust="spacingAndGlyphs" textLength="44" x="124" y="226.9502">int getX()</text></a><!--class soen6441riskgame.models.Country--><a target="_parent" xlink:actuate="onRequest" xlink:href="../../soen6441riskgame/models/Country.html" xlink:show="new" xlink:title="soen6441riskgame.models.Country" xlink:type="simple"><rect fill="#FEFECE" filter="url(#f11anmn4i98zx6)" height="40.1875" id="soen6441riskgame.models.Country" style="stroke: #A80036; stroke-width: 1.5;" width="156" x="6" y="8"/><ellipse cx="21" cy="28.0938" fill="#ADD1B2" rx="11" ry="11" style="stroke: #A80036; stroke-width: 1.0;"/><path d="M23.7656,23.9688 Q23.9219,23.75 24.1094,23.6406 Q24.2969,23.5313 24.5156,23.5313 Q24.8906,23.5313 25.125,23.7891 Q25.3594,24.0469 25.3594,24.6563 L25.3594,26.1094 Q25.3594,26.7188 25.125,26.9844 Q24.8906,27.25 24.5156,27.25 Q24.1719,27.25 23.9688,27.0469 Q23.7656,26.8594 23.6563,26.3438 Q23.6094,25.9844 23.4219,25.7969 Q23.0938,25.4219 22.4844,25.2031 Q21.875,24.9844 21.25,24.9844 Q20.4844,24.9844 19.8516,25.3125 Q19.2188,25.6406 18.7266,26.3906 Q18.2344,27.1406 18.2344,28.1719 L18.2344,29.2656 Q18.2344,30.5 19.125,31.3203 Q20.0156,32.1406 21.6094,32.1406 Q22.5469,32.1406 23.2031,31.8906 Q23.5938,31.7344 24.0156,31.2969 Q24.2813,31.0313 24.4297,30.9531 Q24.5781,30.875 24.7813,30.875 Q25.1094,30.875 25.3672,31.1328 Q25.625,31.3906 25.625,31.7344 Q25.625,32.0781 25.2813,32.4844 Q24.7813,33.0625 23.9844,33.3906 Q22.9063,33.8438 21.6094,33.8438 Q20.0938,33.8438 18.8906,33.2188 Q17.9063,32.7188 17.2188,31.6484 Q16.5313,30.5781 16.5313,29.2969 L16.5313,28.1406 Q16.5313,26.8125 17.1484,25.6641 Q17.7656,24.5156 18.8594,23.8984 Q19.9531,23.2813 21.1875,23.2813 Q21.9219,23.2813 22.5703,23.4453 Q23.2188,23.6094 23.7656,23.9688 Z "/><text fill="#000000" font-family="sans-serif" font-size="14" font-weight="bold" lengthAdjust="spacingAndGlyphs" textLength="55" x="69.5" y="27.5332">Country</text><text fill="#000000" font-family="sans-serif" font-size="10" lengthAdjust="spacingAndGlyphs" textLength="124" x="35" y="40.9902">soen6441riskgame.models</text></a><!--class soen6441riskgame.utils.map.MapReadable--><a target="_parent" xlink:actuate="onRequest" xlink:href="../../soen6441riskgame/utils/map/MapReadable.html" xlink:show="new" xlink:title="soen6441riskgame.utils.map.MapReadable" xlink:type="simple"><rect fill="#FFFFFF" filter="url(#f11anmn4i98zx6)" height="40.1875" id="soen6441riskgame.utils.map.MapReadable" style="stroke: #A80036; stroke-width: 1.5;" width="165" x="197.5" y="8"/><rect fill="#FFFFFF" height="40.1875" style="stroke: #A80036; stroke-width: 1.5;" width="165" x="197.5" y="8"/><ellipse cx="212.5" cy="28.0938" fill="#B4A7E5" rx="11" ry="11" style="stroke: #A80036; stroke-width: 1.0;"/><path d="M213.4531,24.7344 L213.4531,31.3906 L215.1719,31.3906 Q215.7813,31.3906 216.0469,31.625 Q216.3125,31.8594 216.3125,32.25 Q216.3125,32.625 216.0469,32.8594 Q215.7813,33.0938 215.1719,33.0938 L210.0313,33.0938 Q209.4219,33.0938 209.1563,32.8594 Q208.8906,32.625 208.8906,32.2344 Q208.8906,31.8594 209.1563,31.625 Q209.4219,31.3906 210.0313,31.3906 L211.75,31.3906 L211.75,24.7344 L210.0313,24.7344 Q209.4219,24.7344 209.1563,24.5 Q208.8906,24.2656 208.8906,23.875 Q208.8906,23.5 209.1563,23.2656 Q209.4219,23.0313 210.0313,23.0313 L215.1719,23.0313 Q215.7813,23.0313 216.0469,23.2656 Q216.3125,23.5 216.3125,23.875 Q216.3125,24.2656 216.0469,24.5 Q215.7813,24.7344 215.1719,24.7344 L213.4531,24.7344 Z "/><text fill="#000000" font-family="sans-serif" font-size="14" font-style="italic" font-weight="bold" lengthAdjust="spacingAndGlyphs" textLength="90" x="248" y="27.5332">MapReadable</text><text fill="#000000" font-family="sans-serif" font-size="10" font-style="italic" lengthAdjust="spacingAndGlyphs" textLength="133" x="226.5" y="40.9902">soen6441riskgame.utils.map</text></a><!--link soen6441riskgame.models.Country to soen6441riskgame.models.Coordinate--><path d="M133,48.115 C133,48.115 133,102.91 133,102.91 " fill="none" id="soen6441riskgame.models.Country-soen6441riskgame.models.Coordinate" style="stroke: #A80036; stroke-width: 1.0;"/><polygon fill="#A80036" points="133,107.91,137,98.91,133,102.91,129,98.91,133,107.91" style="stroke: #A80036; stroke-width: 1.0;"/><text fill="#000000" font-family="sans-serif" font-size="13" lengthAdjust="spacingAndGlyphs" textLength="60" x="63.8656" y="97.2422">coordinate</text><!--link soen6441riskgame.utils.map.MapReadable to soen6441riskgame.models.Coordinate--><path d="M228.75,48.115 C228.75,48.115 228.75,102.91 228.75,102.91 " fill="none" id="soen6441riskgame.utils.map.MapReadable-soen6441riskgame.models.Coordinate" style="stroke: #A80036; stroke-width: 1.0; stroke-dasharray: 7.0,7.0;"/><polygon fill="#A80036" points="228.75,107.91,232.75,98.91,228.75,102.91,224.75,98.91,228.75,107.91" style="stroke: #A80036; stroke-width: 1.0;"/><!--
@startuml

skinparam svgLinkTarget _parent
skinparam linetype ortho
set namespaceSeparator none
class "<b><size:14>Coordinate</b>\n<size:10>soen6441riskgame.models" as soen6441riskgame.models.Coordinate  [[../../soen6441riskgame/models/Coordinate.html{soen6441riskgame.models.Coordinate}]] {
-int x
-int y
+Coordinate(int x,int y)
+int getY()
+int getX()
}


class "<b><size:14>Country</b>\n<size:10>soen6441riskgame.models" as soen6441riskgame.models.Country  [[../../soen6441riskgame/models/Country.html{soen6441riskgame.models.Country}]] {
}

hide soen6441riskgame.models.Country fields
hide soen6441riskgame.models.Country methods

soen6441riskgame.models.Country - ->  "coordinate" soen6441riskgame.models.Coordinate

interface "<b><size:14>MapReadable</b>\n<size:10>soen6441riskgame.utils.map" as soen6441riskgame.utils.map.MapReadable  [[../../soen6441riskgame/utils/map/MapReadable.html{soen6441riskgame.utils.map.MapReadable}]] #white {
}

hide soen6441riskgame.utils.map.MapReadable fields
hide soen6441riskgame.utils.map.MapReadable methods

soen6441riskgame.utils.map.MapReadable ..> soen6441riskgame.models.Coordinate


@enduml

PlantUML version 1.2017.15(Mon Jul 03 12:45:34 EDT 2017)
(GPL source distribution)
Java Runtime: Java(TM) SE Runtime Environment
JVM: Java HotSpot(TM) 64-Bit Server VM
Java Version: 1.8.0_231-b11
Operating System: Windows 10
OS Version: 10.0
Default Encoding: Cp1252
Language: en
Country: US
--></g></svg>