<?xml version="1.0" encoding="UTF-8" standalone="no"?><svg xmlns="http://www.w3.org/2000/svg" xmlns:xlink="http://www.w3.org/1999/xlink" contentScriptType="application/ecmascript" contentStyleType="text/css" height="704px" preserveAspectRatio="none" style="width:2854px;height:704px;" version="1.1" viewBox="0 0 2854 704" width="2854px" zoomAndPan="magnify"><defs><filter height="300%" id="fonc7u48zg6l6" width="300%" x="-1" y="-1"><feGaussianBlur result="blurOut" stdDeviation="2.0"/><feColorMatrix in="blurOut" result="blurOut2" type="matrix" values="0 0 0 0 0 0 0 0 0 0 0 0 0 0 0 0 0 0 .4 0"/><feOffset dx="4.0" dy="4.0" in="blurOut2" result="blurOut3"/><feBlend in="SourceGraphic" in2="blurOut3" mode="normal"/></filter></defs><g><!--class soen6441riskgame.models.Country--><a target="_parent" xlink:actuate="onRequest" xlink:href="../../soen6441riskgame/models/Country.html" xlink:show="new" xlink:title="soen6441riskgame.models.Country" xlink:type="simple"><rect fill="#FEFECE" filter="url(#fonc7u48zg6l6)" height="485.1016" id="soen6441riskgame.models.Country" style="stroke: #A80036; stroke-width: 1.5;" width="428" x="1416.5" y="108"/><ellipse cx="1564.25" cy="128.0938" fill="#ADD1B2" rx="11" ry="11" style="stroke: #A80036; stroke-width: 1.0;"/><path d="M1567.0156,123.9688 Q1567.1719,123.75 1567.3594,123.6406 Q1567.5469,123.5313 1567.7656,123.5313 Q1568.1406,123.5313 1568.375,123.7891 Q1568.6094,124.0469 1568.6094,124.6563 L1568.6094,126.1094 Q1568.6094,126.7188 1568.375,126.9844 Q1568.1406,127.25 1567.7656,127.25 Q1567.4219,127.25 1567.2188,127.0469 Q1567.0156,126.8594 1566.9063,126.3438 Q1566.8594,125.9844 1566.6719,125.7969 Q1566.3438,125.4219 1565.7344,125.2031 Q1565.125,124.9844 1564.5,124.9844 Q1563.7344,124.9844 1563.1016,125.3125 Q1562.4688,125.6406 1561.9766,126.3906 Q1561.4844,127.1406 1561.4844,128.1719 L1561.4844,129.2656 Q1561.4844,130.5 1562.375,131.3203 Q1563.2656,132.1406 1564.8594,132.1406 Q1565.7969,132.1406 1566.4531,131.8906 Q1566.8438,131.7344 1567.2656,131.2969 Q1567.5313,131.0313 1567.6797,130.9531 Q1567.8281,130.875 1568.0313,130.875 Q1568.3594,130.875 1568.6172,131.1328 Q1568.875,131.3906 1568.875,131.7344 Q1568.875,132.0781 1568.5313,132.4844 Q1568.0313,133.0625 1567.2344,133.3906 Q1566.1563,133.8438 1564.8594,133.8438 Q1563.3438,133.8438 1562.1406,133.2188 Q1561.1563,132.7188 1560.4688,131.6484 Q1559.7813,130.5781 1559.7813,129.2969 L1559.7813,128.1406 Q1559.7813,126.8125 1560.3984,125.6641 Q1561.0156,124.5156 1562.1094,123.8984 Q1563.2031,123.2813 1564.4375,123.2813 Q1565.1719,123.2813 1565.8203,123.4453 Q1566.4688,123.6094 1567.0156,123.9688 Z "/><text fill="#000000" font-family="sans-serif" font-size="14" font-weight="bold" lengthAdjust="spacingAndGlyphs" textLength="55" x="1619.25" y="127.5332">Country</text><text fill="#000000" font-family="sans-serif" font-size="10" lengthAdjust="spacingAndGlyphs" textLength="124" x="1584.75" y="140.9902">soen6441riskgame.models</text><line style="stroke: #A80036; stroke-width: 1.5;" x1="1417.5" x2="1843.5" y1="148.1875" y2="148.1875"/><rect fill="none" height="6" style="stroke: #C82930; stroke-width: 1.0;" width="6" x="1424.5" y="157.6055"/><text fill="#000000" font-family="sans-serif" font-size="11" lengthAdjust="spacingAndGlyphs" textLength="106" x="1436.5" y="163.6064">Coordinate coordinate</text><rect fill="none" height="6" style="stroke: #C82930; stroke-width: 1.0;" width="6" x="1424.5" y="171.4414"/><text fill="#000000" font-family="sans-serif" font-size="11" lengthAdjust="spacingAndGlyphs" textLength="75" x="1436.5" y="177.4424">int armyAmount</text><rect fill="none" height="6" style="stroke: #C82930; stroke-width: 1.0;" width="6" x="1424.5" y="185.2773"/><text fill="#000000" font-family="sans-serif" font-size="11" lengthAdjust="spacingAndGlyphs" textLength="57" x="1436.5" y="191.2783">String name</text><rect fill="none" height="6" style="stroke: #C82930; stroke-width: 1.0;" width="6" x="1424.5" y="199.1133"/><text fill="#000000" font-family="sans-serif" font-size="11" lengthAdjust="spacingAndGlyphs" textLength="92" x="1436.5" y="205.1143">Continent continent</text><rect fill="none" height="6" style="stroke: #C82930; stroke-width: 1.0;" width="6" x="1424.5" y="212.9492"/><text fill="#000000" font-family="sans-serif" font-size="11" lengthAdjust="spacingAndGlyphs" textLength="83" x="1436.5" y="218.9502">Player conquerer</text><rect fill="none" height="6" style="stroke: #C82930; stroke-width: 1.0;" width="6" x="1424.5" y="226.7852"/><text fill="#000000" font-family="sans-serif" font-size="11" lengthAdjust="spacingAndGlyphs" textLength="88" x="1436.5" y="232.7861">int serializedOrder</text><rect fill="none" height="6" style="stroke: #C82930; stroke-width: 1.0;" width="6" x="1424.5" y="240.6211"/><text fill="#000000" font-family="sans-serif" font-size="11" lengthAdjust="spacingAndGlyphs" textLength="102" x="1436.5" y="246.6221">String continentName</text><rect fill="none" height="6" style="stroke: #C82930; stroke-width: 1.0;" width="6" x="1424.5" y="254.457"/><text fill="#000000" font-family="sans-serif" font-size="11" lengthAdjust="spacingAndGlyphs" textLength="108" x="1436.5" y="260.458">String conquererName</text><line style="stroke: #A80036; stroke-width: 1.5;" x1="1417.5" x2="1843.5" y1="266.875" y2="266.875"/><ellipse cx="1427.5" cy="279.293" fill="#84BE84" rx="3" ry="3" style="stroke: #038048; stroke-width: 1.0;"/><text fill="#000000" font-family="sans-serif" font-size="11" lengthAdjust="spacingAndGlyphs" textLength="350" x="1436.5" y="282.2939">Country(int order,String name,Coordinate coordinate,Continent continent)</text><ellipse cx="1427.5" cy="293.1289" fill="#84BE84" rx="3" ry="3" style="stroke: #038048; stroke-width: 1.0;"/><text fill="#000000" font-family="sans-serif" font-size="11" lengthAdjust="spacingAndGlyphs" textLength="402" x="1436.5" y="296.1299">Country(Country serializedCountry,List&lt;Continent&gt; continents,List&lt;Player&gt; players)</text><ellipse cx="1427.5" cy="306.9648" fill="#84BE84" rx="3" ry="3" style="stroke: #038048; stroke-width: 1.0;"/><text fill="#000000" font-family="sans-serif" font-size="11" lengthAdjust="spacingAndGlyphs" textLength="112" x="1436.5" y="309.9658">int getSerializedOrder()</text><ellipse cx="1427.5" cy="320.8008" fill="#84BE84" rx="3" ry="3" style="stroke: #038048; stroke-width: 1.0;"/><text fill="#000000" font-family="sans-serif" font-size="11" lengthAdjust="spacingAndGlyphs" textLength="107" x="1436.5" y="323.8018">Player getConquerer()</text><ellipse cx="1427.5" cy="334.6367" fill="#84BE84" rx="3" ry="3" style="stroke: #038048; stroke-width: 1.0;"/><text fill="#000000" font-family="sans-serif" font-size="11" lengthAdjust="spacingAndGlyphs" textLength="180" x="1436.5" y="337.6377">void setConquerer(Player conquerer)</text><ellipse cx="1427.5" cy="348.4727" fill="#84BE84" rx="3" ry="3" style="stroke: #038048; stroke-width: 1.0;"/><text fill="#000000" font-family="sans-serif" font-size="11" lengthAdjust="spacingAndGlyphs" textLength="116" x="1436.5" y="351.4736">Continent getContinent()</text><ellipse cx="1427.5" cy="362.3086" fill="#84BE84" rx="3" ry="3" style="stroke: #038048; stroke-width: 1.0;"/><text fill="#000000" font-family="sans-serif" font-size="11" lengthAdjust="spacingAndGlyphs" textLength="81" x="1436.5" y="365.3096">String getName()</text><ellipse cx="1427.5" cy="376.1445" fill="#84BE84" rx="3" ry="3" style="stroke: #038048; stroke-width: 1.0;"/><text fill="#000000" font-family="sans-serif" font-size="11" lengthAdjust="spacingAndGlyphs" textLength="100" x="1436.5" y="379.1455">int getArmyAmount()</text><ellipse cx="1427.5" cy="389.9805" fill="#84BE84" rx="3" ry="3" style="stroke: #038048; stroke-width: 1.0;"/><text fill="#000000" font-family="sans-serif" font-size="11" lengthAdjust="spacingAndGlyphs" textLength="184" x="1436.5" y="392.9814">void setArmyAmount(int armyAmount)</text><ellipse cx="1427.5" cy="403.8164" fill="#84BE84" rx="3" ry="3" style="stroke: #038048; stroke-width: 1.0;"/><text fill="#000000" font-family="sans-serif" font-size="11" lengthAdjust="spacingAndGlyphs" textLength="65" x="1436.5" y="406.8174">int getOrder()</text><ellipse cx="1427.5" cy="417.6523" fill="#84BE84" rx="3" ry="3" style="stroke: #038048; stroke-width: 1.0;"/><text fill="#000000" font-family="sans-serif" font-size="11" lengthAdjust="spacingAndGlyphs" textLength="130" x="1436.5" y="420.6533">Coordinate getCoordinate()</text><ellipse cx="1427.5" cy="431.4883" fill="#84BE84" rx="3" ry="3" style="stroke: #038048; stroke-width: 1.0;"/><text fill="#000000" font-family="sans-serif" font-size="11" lengthAdjust="spacingAndGlyphs" textLength="170" x="1436.5" y="434.4893">ArrayList&lt;Country&gt; getNeighbors()</text><ellipse cx="1427.5" cy="445.3242" fill="#84BE84" rx="3" ry="3" style="stroke: #038048; stroke-width: 1.0;"/><text fill="#000000" font-family="sans-serif" font-size="11" lengthAdjust="spacingAndGlyphs" textLength="110" x="1436.5" y="448.3252">boolean isConquered()</text><ellipse cx="1427.5" cy="459.1602" fill="#84BE84" rx="3" ry="3" style="stroke: #038048; stroke-width: 1.0;"/><text fill="#000000" font-family="sans-serif" font-size="11" lengthAdjust="spacingAndGlyphs" textLength="253" x="1436.5" y="462.1611">void receiveArmiesFromUnPlacedArmies(int amount)</text><ellipse cx="1427.5" cy="472.9961" fill="#84BE84" rx="3" ry="3" style="stroke: #038048; stroke-width: 1.0;"/><text fill="#000000" font-family="sans-serif" font-size="11" lengthAdjust="spacingAndGlyphs" textLength="156" x="1436.5" y="475.9971">void increaseArmies(int amount)</text><ellipse cx="1427.5" cy="486.832" fill="#84BE84" rx="3" ry="3" style="stroke: #038048; stroke-width: 1.0;"/><text fill="#000000" font-family="sans-serif" font-size="11" lengthAdjust="spacingAndGlyphs" textLength="160" x="1436.5" y="489.833">void decreaseArmies(int amount)</text><ellipse cx="1427.5" cy="500.668" fill="#84BE84" rx="3" ry="3" style="stroke: #038048; stroke-width: 1.0;"/><text fill="#000000" font-family="sans-serif" font-size="11" lengthAdjust="spacingAndGlyphs" textLength="266" x="1436.5" y="503.6689">void moveArmies(Country toCountry,int armiesToMove)</text><ellipse cx="1427.5" cy="514.5039" fill="#84BE84" rx="3" ry="3" style="stroke: #038048; stroke-width: 1.0;"/><text fill="#000000" font-family="sans-serif" font-size="11" lengthAdjust="spacingAndGlyphs" textLength="146" x="1436.5" y="517.5049">void placeArmy(Player player)</text><ellipse cx="1427.5" cy="528.3398" fill="#84BE84" rx="3" ry="3" style="stroke: #038048; stroke-width: 1.0;"/><text fill="#000000" font-family="sans-serif" font-size="11" lengthAdjust="spacingAndGlyphs" textLength="281" x="1436.5" y="531.3408">boolean isNeighboringCountries(Country neighborCountry)</text><ellipse cx="1427.5" cy="542.1758" fill="#84BE84" rx="3" ry="3" style="stroke: #038048; stroke-width: 1.0;"/><text fill="#000000" font-family="sans-serif" font-size="11" lengthAdjust="spacingAndGlyphs" textLength="233" x="1436.5" y="545.1768">boolean isCountryBelongToPlayer(Player player)</text><ellipse cx="1427.5" cy="556.0117" fill="#84BE84" rx="3" ry="3" style="stroke: #038048; stroke-width: 1.0;"/><text fill="#000000" font-family="sans-serif" font-size="11" lengthAdjust="spacingAndGlyphs" textLength="183" x="1436.5" y="559.0127">void viewWithoutNeighbors(int indent)</text><ellipse cx="1427.5" cy="569.8477" fill="#84BE84" rx="3" ry="3" style="stroke: #038048; stroke-width: 1.0;"/><text fill="#000000" font-family="sans-serif" font-size="11" lengthAdjust="spacingAndGlyphs" textLength="299" x="1436.5" y="572.8486">void viewWithoutNeighbors(PrintStream printStream,int indent)</text><ellipse cx="1427.5" cy="583.6836" fill="#84BE84" rx="3" ry="3" style="stroke: #038048; stroke-width: 1.0;"/><text fill="#000000" font-family="sans-serif" font-size="11" lengthAdjust="spacingAndGlyphs" textLength="214" x="1436.5" y="586.6846">void view(PrintStream printStream,int indent)</text></a><!--class soen6441riskgame.controllers.MapController--><a target="_parent" xlink:actuate="onRequest" xlink:href="../../soen6441riskgame/controllers/MapController.html" xlink:show="new" xlink:title="soen6441riskgame.controllers.MapController" xlink:type="simple"><rect fill="#FFFFFF" filter="url(#fonc7u48zg6l6)" height="40.1875" id="soen6441riskgame.controllers.MapController" style="stroke: #A80036; stroke-width: 1.5;" width="171" x="6" y="8"/><rect fill="#FFFFFF" height="40.1875" style="stroke: #A80036; stroke-width: 1.5;" width="171" x="6" y="8"/><ellipse cx="21" cy="28.0938" fill="#ADD1B2" rx="11" ry="11" style="stroke: #A80036; stroke-width: 1.0;"/><path d="M23.7656,23.9688 Q23.9219,23.75 24.1094,23.6406 Q24.2969,23.5313 24.5156,23.5313 Q24.8906,23.5313 25.125,23.7891 Q25.3594,24.0469 25.3594,24.6563 L25.3594,26.1094 Q25.3594,26.7188 25.125,26.9844 Q24.8906,27.25 24.5156,27.25 Q24.1719,27.25 23.9688,27.0469 Q23.7656,26.8594 23.6563,26.3438 Q23.6094,25.9844 23.4219,25.7969 Q23.0938,25.4219 22.4844,25.2031 Q21.875,24.9844 21.25,24.9844 Q20.4844,24.9844 19.8516,25.3125 Q19.2188,25.6406 18.7266,26.3906 Q18.2344,27.1406 18.2344,28.1719 L18.2344,29.2656 Q18.2344,30.5 19.125,31.3203 Q20.0156,32.1406 21.6094,32.1406 Q22.5469,32.1406 23.2031,31.8906 Q23.5938,31.7344 24.0156,31.2969 Q24.2813,31.0313 24.4297,30.9531 Q24.5781,30.875 24.7813,30.875 Q25.1094,30.875 25.3672,31.1328 Q25.625,31.3906 25.625,31.7344 Q25.625,32.0781 25.2813,32.4844 Q24.7813,33.0625 23.9844,33.3906 Q22.9063,33.8438 21.6094,33.8438 Q20.0938,33.8438 18.8906,33.2188 Q17.9063,32.7188 17.2188,31.6484 Q16.5313,30.5781 16.5313,29.2969 L16.5313,28.1406 Q16.5313,26.8125 17.1484,25.6641 Q17.7656,24.5156 18.8594,23.8984 Q19.9531,23.2813 21.1875,23.2813 Q21.9219,23.2813 22.5703,23.4453 Q23.2188,23.6094 23.7656,23.9688 Z "/><text fill="#000000" font-family="sans-serif" font-size="14" font-weight="bold" lengthAdjust="spacingAndGlyphs" textLength="101" x="54" y="27.5332">MapController</text><text fill="#000000" font-family="sans-serif" font-size="10" lengthAdjust="spacingAndGlyphs" textLength="139" x="35" y="40.9902">soen6441riskgame.controllers</text></a><!--class soen6441riskgame.models.Continent--><a target="_parent" xlink:actuate="onRequest" xlink:href="../../soen6441riskgame/models/Continent.html" xlink:show="new" xlink:title="soen6441riskgame.models.Continent" xlink:type="simple"><rect fill="#FEFECE" filter="url(#fonc7u48zg6l6)" height="40.1875" id="soen6441riskgame.models.Continent" style="stroke: #A80036; stroke-width: 1.5;" width="156" x="1170.5" y="653"/><ellipse cx="1185.5" cy="673.0938" fill="#ADD1B2" rx="11" ry="11" style="stroke: #A80036; stroke-width: 1.0;"/><path d="M1188.2656,668.9688 Q1188.4219,668.75 1188.6094,668.6406 Q1188.7969,668.5313 1189.0156,668.5313 Q1189.3906,668.5313 1189.625,668.7891 Q1189.8594,669.0469 1189.8594,669.6563 L1189.8594,671.1094 Q1189.8594,671.7188 1189.625,671.9844 Q1189.3906,672.25 1189.0156,672.25 Q1188.6719,672.25 1188.4688,672.0469 Q1188.2656,671.8594 1188.1563,671.3438 Q1188.1094,670.9844 1187.9219,670.7969 Q1187.5938,670.4219 1186.9844,670.2031 Q1186.375,669.9844 1185.75,669.9844 Q1184.9844,669.9844 1184.3516,670.3125 Q1183.7188,670.6406 1183.2266,671.3906 Q1182.7344,672.1406 1182.7344,673.1719 L1182.7344,674.2656 Q1182.7344,675.5 1183.625,676.3203 Q1184.5156,677.1406 1186.1094,677.1406 Q1187.0469,677.1406 1187.7031,676.8906 Q1188.0938,676.7344 1188.5156,676.2969 Q1188.7813,676.0313 1188.9297,675.9531 Q1189.0781,675.875 1189.2813,675.875 Q1189.6094,675.875 1189.8672,676.1328 Q1190.125,676.3906 1190.125,676.7344 Q1190.125,677.0781 1189.7813,677.4844 Q1189.2813,678.0625 1188.4844,678.3906 Q1187.4063,678.8438 1186.1094,678.8438 Q1184.5938,678.8438 1183.3906,678.2188 Q1182.4063,677.7188 1181.7188,676.6484 Q1181.0313,675.5781 1181.0313,674.2969 L1181.0313,673.1406 Q1181.0313,671.8125 1181.6484,670.6641 Q1182.2656,669.5156 1183.3594,668.8984 Q1184.4531,668.2813 1185.6875,668.2813 Q1186.4219,668.2813 1187.0703,668.4453 Q1187.7188,668.6094 1188.2656,668.9688 Z "/><text fill="#000000" font-family="sans-serif" font-size="14" font-weight="bold" lengthAdjust="spacingAndGlyphs" textLength="69" x="1227" y="672.5332">Continent</text><text fill="#000000" font-family="sans-serif" font-size="10" lengthAdjust="spacingAndGlyphs" textLength="124" x="1199.5" y="685.9902">soen6441riskgame.models</text></a><!--class soen6441riskgame.models.Coordinate--><a target="_parent" xlink:actuate="onRequest" xlink:href="../../soen6441riskgame/models/Coordinate.html" xlink:show="new" xlink:title="soen6441riskgame.models.Coordinate" xlink:type="simple"><rect fill="#FEFECE" filter="url(#fonc7u48zg6l6)" height="40.1875" id="soen6441riskgame.models.Coordinate" style="stroke: #A80036; stroke-width: 1.5;" width="156" x="1361.5" y="653"/><ellipse cx="1376.5" cy="673.0938" fill="#ADD1B2" rx="11" ry="11" style="stroke: #A80036; stroke-width: 1.0;"/><path d="M1379.2656,668.9688 Q1379.4219,668.75 1379.6094,668.6406 Q1379.7969,668.5313 1380.0156,668.5313 Q1380.3906,668.5313 1380.625,668.7891 Q1380.8594,669.0469 1380.8594,669.6563 L1380.8594,671.1094 Q1380.8594,671.7188 1380.625,671.9844 Q1380.3906,672.25 1380.0156,672.25 Q1379.6719,672.25 1379.4688,672.0469 Q1379.2656,671.8594 1379.1563,671.3438 Q1379.1094,670.9844 1378.9219,670.7969 Q1378.5938,670.4219 1377.9844,670.2031 Q1377.375,669.9844 1376.75,669.9844 Q1375.9844,669.9844 1375.3516,670.3125 Q1374.7188,670.6406 1374.2266,671.3906 Q1373.7344,672.1406 1373.7344,673.1719 L1373.7344,674.2656 Q1373.7344,675.5 1374.625,676.3203 Q1375.5156,677.1406 1377.1094,677.1406 Q1378.0469,677.1406 1378.7031,676.8906 Q1379.0938,676.7344 1379.5156,676.2969 Q1379.7813,676.0313 1379.9297,675.9531 Q1380.0781,675.875 1380.2813,675.875 Q1380.6094,675.875 1380.8672,676.1328 Q1381.125,676.3906 1381.125,676.7344 Q1381.125,677.0781 1380.7813,677.4844 Q1380.2813,678.0625 1379.4844,678.3906 Q1378.4063,678.8438 1377.1094,678.8438 Q1375.5938,678.8438 1374.3906,678.2188 Q1373.4063,677.7188 1372.7188,676.6484 Q1372.0313,675.5781 1372.0313,674.2969 L1372.0313,673.1406 Q1372.0313,671.8125 1372.6484,670.6641 Q1373.2656,669.5156 1374.3594,668.8984 Q1375.4531,668.2813 1376.6875,668.2813 Q1377.4219,668.2813 1378.0703,668.4453 Q1378.7188,668.6094 1379.2656,668.9688 Z "/><text fill="#000000" font-family="sans-serif" font-size="14" font-weight="bold" lengthAdjust="spacingAndGlyphs" textLength="78" x="1413.5" y="672.5332">Coordinate</text><text fill="#000000" font-family="sans-serif" font-size="10" lengthAdjust="spacingAndGlyphs" textLength="124" x="1390.5" y="685.9902">soen6441riskgame.models</text></a><!--class soen6441riskgame.models.Player--><a target="_parent" xlink:actuate="onRequest" xlink:href="../../soen6441riskgame/models/Player.html" xlink:show="new" xlink:title="soen6441riskgame.models.Player" xlink:type="simple"><rect fill="#FEFECE" filter="url(#fonc7u48zg6l6)" height="40.1875" id="soen6441riskgame.models.Player" style="stroke: #A80036; stroke-width: 1.5;" width="156" x="1552.5" y="653"/><ellipse cx="1567.5" cy="673.0938" fill="#ADD1B2" rx="11" ry="11" style="stroke: #A80036; stroke-width: 1.0;"/><path d="M1570.2656,668.9688 Q1570.4219,668.75 1570.6094,668.6406 Q1570.7969,668.5313 1571.0156,668.5313 Q1571.3906,668.5313 1571.625,668.7891 Q1571.8594,669.0469 1571.8594,669.6563 L1571.8594,671.1094 Q1571.8594,671.7188 1571.625,671.9844 Q1571.3906,672.25 1571.0156,672.25 Q1570.6719,672.25 1570.4688,672.0469 Q1570.2656,671.8594 1570.1563,671.3438 Q1570.1094,670.9844 1569.9219,670.7969 Q1569.5938,670.4219 1568.9844,670.2031 Q1568.375,669.9844 1567.75,669.9844 Q1566.9844,669.9844 1566.3516,670.3125 Q1565.7188,670.6406 1565.2266,671.3906 Q1564.7344,672.1406 1564.7344,673.1719 L1564.7344,674.2656 Q1564.7344,675.5 1565.625,676.3203 Q1566.5156,677.1406 1568.1094,677.1406 Q1569.0469,677.1406 1569.7031,676.8906 Q1570.0938,676.7344 1570.5156,676.2969 Q1570.7813,676.0313 1570.9297,675.9531 Q1571.0781,675.875 1571.2813,675.875 Q1571.6094,675.875 1571.8672,676.1328 Q1572.125,676.3906 1572.125,676.7344 Q1572.125,677.0781 1571.7813,677.4844 Q1571.2813,678.0625 1570.4844,678.3906 Q1569.4063,678.8438 1568.1094,678.8438 Q1566.5938,678.8438 1565.3906,678.2188 Q1564.4063,677.7188 1563.7188,676.6484 Q1563.0313,675.5781 1563.0313,674.2969 L1563.0313,673.1406 Q1563.0313,671.8125 1563.6484,670.6641 Q1564.2656,669.5156 1565.3594,668.8984 Q1566.4531,668.2813 1567.6875,668.2813 Q1568.4219,668.2813 1569.0703,668.4453 Q1569.7188,668.6094 1570.2656,668.9688 Z "/><text fill="#000000" font-family="sans-serif" font-size="14" font-weight="bold" lengthAdjust="spacingAndGlyphs" textLength="43" x="1622" y="672.5332">Player</text><text fill="#000000" font-family="sans-serif" font-size="10" lengthAdjust="spacingAndGlyphs" textLength="124" x="1581.5" y="685.9902">soen6441riskgame.models</text></a><!--class soen6441riskgame.models.Viewable--><a target="_parent" xlink:actuate="onRequest" xlink:href="../../soen6441riskgame/models/Viewable.html" xlink:show="new" xlink:title="soen6441riskgame.models.Viewable" xlink:type="simple"><rect fill="#FEFECE" filter="url(#fonc7u48zg6l6)" height="40.1875" id="soen6441riskgame.models.Viewable" style="stroke: #A80036; stroke-width: 1.5;" width="156" x="1743.5" y="653"/><ellipse cx="1758.5" cy="673.0938" fill="#B4A7E5" rx="11" ry="11" style="stroke: #A80036; stroke-width: 1.0;"/><path d="M1759.4531,669.7344 L1759.4531,676.3906 L1761.1719,676.3906 Q1761.7813,676.3906 1762.0469,676.625 Q1762.3125,676.8594 1762.3125,677.25 Q1762.3125,677.625 1762.0469,677.8594 Q1761.7813,678.0938 1761.1719,678.0938 L1756.0313,678.0938 Q1755.4219,678.0938 1755.1563,677.8594 Q1754.8906,677.625 1754.8906,677.2344 Q1754.8906,676.8594 1755.1563,676.625 Q1755.4219,676.3906 1756.0313,676.3906 L1757.75,676.3906 L1757.75,669.7344 L1756.0313,669.7344 Q1755.4219,669.7344 1755.1563,669.5 Q1754.8906,669.2656 1754.8906,668.875 Q1754.8906,668.5 1755.1563,668.2656 Q1755.4219,668.0313 1756.0313,668.0313 L1761.1719,668.0313 Q1761.7813,668.0313 1762.0469,668.2656 Q1762.3125,668.5 1762.3125,668.875 Q1762.3125,669.2656 1762.0469,669.5 Q1761.7813,669.7344 1761.1719,669.7344 L1759.4531,669.7344 Z "/><text fill="#000000" font-family="sans-serif" font-size="14" font-style="italic" font-weight="bold" lengthAdjust="spacingAndGlyphs" textLength="62" x="1803.5" y="672.5332">Viewable</text><text fill="#000000" font-family="sans-serif" font-size="10" font-style="italic" lengthAdjust="spacingAndGlyphs" textLength="124" x="1772.5" y="685.9902">soen6441riskgame.models</text></a><!--class java.io.PrintStream--><rect fill="#D3D3D3" filter="url(#fonc7u48zg6l6)" height="40.1875" id="java.io.PrintStream" style="stroke: #A80036; stroke-width: 1.5;" width="114" x="1934.5" y="653"/><rect fill="#D3D3D3" height="40.1875" style="stroke: #A80036; stroke-width: 1.5;" width="114" x="1934.5" y="653"/><ellipse cx="1949.5" cy="673.0938" fill="#ADD1B2" rx="11" ry="11" style="stroke: #A80036; stroke-width: 1.0;"/><path d="M1952.2656,668.9688 Q1952.4219,668.75 1952.6094,668.6406 Q1952.7969,668.5313 1953.0156,668.5313 Q1953.3906,668.5313 1953.625,668.7891 Q1953.8594,669.0469 1953.8594,669.6563 L1953.8594,671.1094 Q1953.8594,671.7188 1953.625,671.9844 Q1953.3906,672.25 1953.0156,672.25 Q1952.6719,672.25 1952.4688,672.0469 Q1952.2656,671.8594 1952.1563,671.3438 Q1952.1094,670.9844 1951.9219,670.7969 Q1951.5938,670.4219 1950.9844,670.2031 Q1950.375,669.9844 1949.75,669.9844 Q1948.9844,669.9844 1948.3516,670.3125 Q1947.7188,670.6406 1947.2266,671.3906 Q1946.7344,672.1406 1946.7344,673.1719 L1946.7344,674.2656 Q1946.7344,675.5 1947.625,676.3203 Q1948.5156,677.1406 1950.1094,677.1406 Q1951.0469,677.1406 1951.7031,676.8906 Q1952.0938,676.7344 1952.5156,676.2969 Q1952.7813,676.0313 1952.9297,675.9531 Q1953.0781,675.875 1953.2813,675.875 Q1953.6094,675.875 1953.8672,676.1328 Q1954.125,676.3906 1954.125,676.7344 Q1954.125,677.0781 1953.7813,677.4844 Q1953.2813,678.0625 1952.4844,678.3906 Q1951.4063,678.8438 1950.1094,678.8438 Q1948.5938,678.8438 1947.3906,678.2188 Q1946.4063,677.7188 1945.7188,676.6484 Q1945.0313,675.5781 1945.0313,674.2969 L1945.0313,673.1406 Q1945.0313,671.8125 1945.6484,670.6641 Q1946.2656,669.5156 1947.3594,668.8984 Q1948.4531,668.2813 1949.6875,668.2813 Q1950.4219,668.2813 1951.0703,668.4453 Q1951.7188,668.6094 1952.2656,668.9688 Z "/><text fill="#000000" font-family="sans-serif" font-size="14" font-weight="bold" lengthAdjust="spacingAndGlyphs" textLength="82" x="1963.5" y="672.5332">PrintStream</text><text fill="#000000" font-family="sans-serif" font-size="10" lengthAdjust="spacingAndGlyphs" textLength="32" x="1988.5" y="685.9902">java.io</text><!--class soen6441riskgame.models.serializers.SerializableGame--><a target="_parent" xlink:actuate="onRequest" xlink:href="../../soen6441riskgame/models/serializers/SerializableGame.html" xlink:show="new" xlink:title="soen6441riskgame.models.serializers.SerializableGame" xlink:type="simple"><rect fill="#FFFFFF" filter="url(#fonc7u48zg6l6)" height="40.1875" id="soen6441riskgame.models.serializers.SerializableGame" style="stroke: #A80036; stroke-width: 1.5;" width="205" x="212" y="8"/><rect fill="#FFFFFF" height="40.1875" style="stroke: #A80036; stroke-width: 1.5;" width="205" x="212" y="8"/><ellipse cx="227" cy="28.0938" fill="#ADD1B2" rx="11" ry="11" style="stroke: #A80036; stroke-width: 1.0;"/><path d="M229.7656,23.9688 Q229.9219,23.75 230.1094,23.6406 Q230.2969,23.5313 230.5156,23.5313 Q230.8906,23.5313 231.125,23.7891 Q231.3594,24.0469 231.3594,24.6563 L231.3594,26.1094 Q231.3594,26.7188 231.125,26.9844 Q230.8906,27.25 230.5156,27.25 Q230.1719,27.25 229.9688,27.0469 Q229.7656,26.8594 229.6563,26.3438 Q229.6094,25.9844 229.4219,25.7969 Q229.0938,25.4219 228.4844,25.2031 Q227.875,24.9844 227.25,24.9844 Q226.4844,24.9844 225.8516,25.3125 Q225.2188,25.6406 224.7266,26.3906 Q224.2344,27.1406 224.2344,28.1719 L224.2344,29.2656 Q224.2344,30.5 225.125,31.3203 Q226.0156,32.1406 227.6094,32.1406 Q228.5469,32.1406 229.2031,31.8906 Q229.5938,31.7344 230.0156,31.2969 Q230.2813,31.0313 230.4297,30.9531 Q230.5781,30.875 230.7813,30.875 Q231.1094,30.875 231.3672,31.1328 Q231.625,31.3906 231.625,31.7344 Q231.625,32.0781 231.2813,32.4844 Q230.7813,33.0625 229.9844,33.3906 Q228.9063,33.8438 227.6094,33.8438 Q226.0938,33.8438 224.8906,33.2188 Q223.9063,32.7188 223.2188,31.6484 Q222.5313,30.5781 222.5313,29.2969 L222.5313,28.1406 Q222.5313,26.8125 223.1484,25.6641 Q223.7656,24.5156 224.8594,23.8984 Q225.9531,23.2813 227.1875,23.2813 Q227.9219,23.2813 228.5703,23.4453 Q229.2188,23.6094 229.7656,23.9688 Z "/><text fill="#000000" font-family="sans-serif" font-size="14" font-weight="bold" lengthAdjust="spacingAndGlyphs" textLength="121" x="267" y="27.5332">SerializableGame</text><text fill="#000000" font-family="sans-serif" font-size="10" lengthAdjust="spacingAndGlyphs" textLength="173" x="241" y="40.9902">soen6441riskgame.models.serializers</text></a><!--class soen6441riskgame.models.serializers.SerializableGame.Builder--><a target="_parent" xlink:actuate="onRequest" xlink:href="../../soen6441riskgame/models/serializers/SerializableGame.Builder.html" xlink:show="new" xlink:title="soen6441riskgame.models.serializers.SerializableGame.Builder" xlink:type="simple"><rect fill="#FFFFFF" filter="url(#fonc7u48zg6l6)" height="40.1875" id="soen6441riskgame.models.serializers.SerializableGame.Builder" style="stroke: #A80036; stroke-width: 1.5;" width="208" x="452.5" y="8"/><rect fill="#FFFFFF" height="40.1875" style="stroke: #A80036; stroke-width: 1.5;" width="208" x="452.5" y="8"/><ellipse cx="467.5" cy="28.0938" fill="#ADD1B2" rx="11" ry="11" style="stroke: #A80036; stroke-width: 1.0;"/><path d="M470.2656,23.9688 Q470.4219,23.75 470.6094,23.6406 Q470.7969,23.5313 471.0156,23.5313 Q471.3906,23.5313 471.625,23.7891 Q471.8594,24.0469 471.8594,24.6563 L471.8594,26.1094 Q471.8594,26.7188 471.625,26.9844 Q471.3906,27.25 471.0156,27.25 Q470.6719,27.25 470.4688,27.0469 Q470.2656,26.8594 470.1563,26.3438 Q470.1094,25.9844 469.9219,25.7969 Q469.5938,25.4219 468.9844,25.2031 Q468.375,24.9844 467.75,24.9844 Q466.9844,24.9844 466.3516,25.3125 Q465.7188,25.6406 465.2266,26.3906 Q464.7344,27.1406 464.7344,28.1719 L464.7344,29.2656 Q464.7344,30.5 465.625,31.3203 Q466.5156,32.1406 468.1094,32.1406 Q469.0469,32.1406 469.7031,31.8906 Q470.0938,31.7344 470.5156,31.2969 Q470.7813,31.0313 470.9297,30.9531 Q471.0781,30.875 471.2813,30.875 Q471.6094,30.875 471.8672,31.1328 Q472.125,31.3906 472.125,31.7344 Q472.125,32.0781 471.7813,32.4844 Q471.2813,33.0625 470.4844,33.3906 Q469.4063,33.8438 468.1094,33.8438 Q466.5938,33.8438 465.3906,33.2188 Q464.4063,32.7188 463.7188,31.6484 Q463.0313,30.5781 463.0313,29.2969 L463.0313,28.1406 Q463.0313,26.8125 463.6484,25.6641 Q464.2656,24.5156 465.3594,23.8984 Q466.4531,23.2813 467.6875,23.2813 Q468.4219,23.2813 469.0703,23.4453 Q469.7188,23.6094 470.2656,23.9688 Z "/><text fill="#000000" font-family="sans-serif" font-size="14" font-weight="bold" lengthAdjust="spacingAndGlyphs" textLength="176" x="481.5" y="27.5332">SerializableGame.Builder</text><text fill="#000000" font-family="sans-serif" font-size="10" lengthAdjust="spacingAndGlyphs" textLength="173" x="483" y="40.9902">soen6441riskgame.models.serializers</text></a><!--class soen6441riskgame.models.strategies.AggressiveStrategy--><a target="_parent" xlink:actuate="onRequest" xlink:href="../../soen6441riskgame/models/strategies/AggressiveStrategy.html" xlink:show="new" xlink:title="soen6441riskgame.models.strategies.AggressiveStrategy" xlink:type="simple"><rect fill="#FFFFFF" filter="url(#fonc7u48zg6l6)" height="40.1875" id="soen6441riskgame.models.strategies.AggressiveStrategy" style="stroke: #A80036; stroke-width: 1.5;" width="203" x="696" y="8"/><rect fill="#FFFFFF" height="40.1875" style="stroke: #A80036; stroke-width: 1.5;" width="203" x="696" y="8"/><ellipse cx="711" cy="28.0938" fill="#ADD1B2" rx="11" ry="11" style="stroke: #A80036; stroke-width: 1.0;"/><path d="M713.7656,23.9688 Q713.9219,23.75 714.1094,23.6406 Q714.2969,23.5313 714.5156,23.5313 Q714.8906,23.5313 715.125,23.7891 Q715.3594,24.0469 715.3594,24.6563 L715.3594,26.1094 Q715.3594,26.7188 715.125,26.9844 Q714.8906,27.25 714.5156,27.25 Q714.1719,27.25 713.9688,27.0469 Q713.7656,26.8594 713.6563,26.3438 Q713.6094,25.9844 713.4219,25.7969 Q713.0938,25.4219 712.4844,25.2031 Q711.875,24.9844 711.25,24.9844 Q710.4844,24.9844 709.8516,25.3125 Q709.2188,25.6406 708.7266,26.3906 Q708.2344,27.1406 708.2344,28.1719 L708.2344,29.2656 Q708.2344,30.5 709.125,31.3203 Q710.0156,32.1406 711.6094,32.1406 Q712.5469,32.1406 713.2031,31.8906 Q713.5938,31.7344 714.0156,31.2969 Q714.2813,31.0313 714.4297,30.9531 Q714.5781,30.875 714.7813,30.875 Q715.1094,30.875 715.3672,31.1328 Q715.625,31.3906 715.625,31.7344 Q715.625,32.0781 715.2813,32.4844 Q714.7813,33.0625 713.9844,33.3906 Q712.9063,33.8438 711.6094,33.8438 Q710.0938,33.8438 708.8906,33.2188 Q707.9063,32.7188 707.2188,31.6484 Q706.5313,30.5781 706.5313,29.2969 L706.5313,28.1406 Q706.5313,26.8125 707.1484,25.6641 Q707.7656,24.5156 708.8594,23.8984 Q709.9531,23.2813 711.1875,23.2813 Q711.9219,23.2813 712.5703,23.4453 Q713.2188,23.6094 713.7656,23.9688 Z "/><text fill="#000000" font-family="sans-serif" font-size="14" font-weight="bold" lengthAdjust="spacingAndGlyphs" textLength="138" x="741.5" y="27.5332">AggressiveStrategy</text><text fill="#000000" font-family="sans-serif" font-size="10" lengthAdjust="spacingAndGlyphs" textLength="171" x="725" y="40.9902">soen6441riskgame.models.strategies</text></a><!--class soen6441riskgame.models.strategies.BenevolentStrategy--><a target="_parent" xlink:actuate="onRequest" xlink:href="../../soen6441riskgame/models/strategies/BenevolentStrategy.html" xlink:show="new" xlink:title="soen6441riskgame.models.strategies.BenevolentStrategy" xlink:type="simple"><rect fill="#FFFFFF" filter="url(#fonc7u48zg6l6)" height="40.1875" id="soen6441riskgame.models.strategies.BenevolentStrategy" style="stroke: #A80036; stroke-width: 1.5;" width="203" x="934" y="8"/><rect fill="#FFFFFF" height="40.1875" style="stroke: #A80036; stroke-width: 1.5;" width="203" x="934" y="8"/><ellipse cx="949" cy="28.0938" fill="#ADD1B2" rx="11" ry="11" style="stroke: #A80036; stroke-width: 1.0;"/><path d="M951.7656,23.9688 Q951.9219,23.75 952.1094,23.6406 Q952.2969,23.5313 952.5156,23.5313 Q952.8906,23.5313 953.125,23.7891 Q953.3594,24.0469 953.3594,24.6563 L953.3594,26.1094 Q953.3594,26.7188 953.125,26.9844 Q952.8906,27.25 952.5156,27.25 Q952.1719,27.25 951.9688,27.0469 Q951.7656,26.8594 951.6563,26.3438 Q951.6094,25.9844 951.4219,25.7969 Q951.0938,25.4219 950.4844,25.2031 Q949.875,24.9844 949.25,24.9844 Q948.4844,24.9844 947.8516,25.3125 Q947.2188,25.6406 946.7266,26.3906 Q946.2344,27.1406 946.2344,28.1719 L946.2344,29.2656 Q946.2344,30.5 947.125,31.3203 Q948.0156,32.1406 949.6094,32.1406 Q950.5469,32.1406 951.2031,31.8906 Q951.5938,31.7344 952.0156,31.2969 Q952.2813,31.0313 952.4297,30.9531 Q952.5781,30.875 952.7813,30.875 Q953.1094,30.875 953.3672,31.1328 Q953.625,31.3906 953.625,31.7344 Q953.625,32.0781 953.2813,32.4844 Q952.7813,33.0625 951.9844,33.3906 Q950.9063,33.8438 949.6094,33.8438 Q948.0938,33.8438 946.8906,33.2188 Q945.9063,32.7188 945.2188,31.6484 Q944.5313,30.5781 944.5313,29.2969 L944.5313,28.1406 Q944.5313,26.8125 945.1484,25.6641 Q945.7656,24.5156 946.8594,23.8984 Q947.9531,23.2813 949.1875,23.2813 Q949.9219,23.2813 950.5703,23.4453 Q951.2188,23.6094 951.7656,23.9688 Z "/><text fill="#000000" font-family="sans-serif" font-size="14" font-weight="bold" lengthAdjust="spacingAndGlyphs" textLength="140" x="978.5" y="27.5332">BenevolentStrategy</text><text fill="#000000" font-family="sans-serif" font-size="10" lengthAdjust="spacingAndGlyphs" textLength="171" x="963" y="40.9902">soen6441riskgame.models.strategies</text></a><!--class soen6441riskgame.models.strategies.CheaterStrategy--><a target="_parent" xlink:actuate="onRequest" xlink:href="../../soen6441riskgame/models/strategies/CheaterStrategy.html" xlink:show="new" xlink:title="soen6441riskgame.models.strategies.CheaterStrategy" xlink:type="simple"><rect fill="#FFFFFF" filter="url(#fonc7u48zg6l6)" height="40.1875" id="soen6441riskgame.models.strategies.CheaterStrategy" style="stroke: #A80036; stroke-width: 1.5;" width="203" x="1172" y="8"/><rect fill="#FFFFFF" height="40.1875" style="stroke: #A80036; stroke-width: 1.5;" width="203" x="1172" y="8"/><ellipse cx="1187" cy="28.0938" fill="#ADD1B2" rx="11" ry="11" style="stroke: #A80036; stroke-width: 1.0;"/><path d="M1189.7656,23.9688 Q1189.9219,23.75 1190.1094,23.6406 Q1190.2969,23.5313 1190.5156,23.5313 Q1190.8906,23.5313 1191.125,23.7891 Q1191.3594,24.0469 1191.3594,24.6563 L1191.3594,26.1094 Q1191.3594,26.7188 1191.125,26.9844 Q1190.8906,27.25 1190.5156,27.25 Q1190.1719,27.25 1189.9688,27.0469 Q1189.7656,26.8594 1189.6563,26.3438 Q1189.6094,25.9844 1189.4219,25.7969 Q1189.0938,25.4219 1188.4844,25.2031 Q1187.875,24.9844 1187.25,24.9844 Q1186.4844,24.9844 1185.8516,25.3125 Q1185.2188,25.6406 1184.7266,26.3906 Q1184.2344,27.1406 1184.2344,28.1719 L1184.2344,29.2656 Q1184.2344,30.5 1185.125,31.3203 Q1186.0156,32.1406 1187.6094,32.1406 Q1188.5469,32.1406 1189.2031,31.8906 Q1189.5938,31.7344 1190.0156,31.2969 Q1190.2813,31.0313 1190.4297,30.9531 Q1190.5781,30.875 1190.7813,30.875 Q1191.1094,30.875 1191.3672,31.1328 Q1191.625,31.3906 1191.625,31.7344 Q1191.625,32.0781 1191.2813,32.4844 Q1190.7813,33.0625 1189.9844,33.3906 Q1188.9063,33.8438 1187.6094,33.8438 Q1186.0938,33.8438 1184.8906,33.2188 Q1183.9063,32.7188 1183.2188,31.6484 Q1182.5313,30.5781 1182.5313,29.2969 L1182.5313,28.1406 Q1182.5313,26.8125 1183.1484,25.6641 Q1183.7656,24.5156 1184.8594,23.8984 Q1185.9531,23.2813 1187.1875,23.2813 Q1187.9219,23.2813 1188.5703,23.4453 Q1189.2188,23.6094 1189.7656,23.9688 Z "/><text fill="#000000" font-family="sans-serif" font-size="14" font-weight="bold" lengthAdjust="spacingAndGlyphs" textLength="114" x="1229.5" y="27.5332">CheaterStrategy</text><text fill="#000000" font-family="sans-serif" font-size="10" lengthAdjust="spacingAndGlyphs" textLength="171" x="1201" y="40.9902">soen6441riskgame.models.strategies</text></a><!--class soen6441riskgame.models.strategies.HumanStrategy--><a target="_parent" xlink:actuate="onRequest" xlink:href="../../soen6441riskgame/models/strategies/HumanStrategy.html" xlink:show="new" xlink:title="soen6441riskgame.models.strategies.HumanStrategy" xlink:type="simple"><rect fill="#FFFFFF" filter="url(#fonc7u48zg6l6)" height="40.1875" id="soen6441riskgame.models.strategies.HumanStrategy" style="stroke: #A80036; stroke-width: 1.5;" width="203" x="1410" y="8"/><rect fill="#FFFFFF" height="40.1875" style="stroke: #A80036; stroke-width: 1.5;" width="203" x="1410" y="8"/><ellipse cx="1425" cy="28.0938" fill="#ADD1B2" rx="11" ry="11" style="stroke: #A80036; stroke-width: 1.0;"/><path d="M1427.7656,23.9688 Q1427.9219,23.75 1428.1094,23.6406 Q1428.2969,23.5313 1428.5156,23.5313 Q1428.8906,23.5313 1429.125,23.7891 Q1429.3594,24.0469 1429.3594,24.6563 L1429.3594,26.1094 Q1429.3594,26.7188 1429.125,26.9844 Q1428.8906,27.25 1428.5156,27.25 Q1428.1719,27.25 1427.9688,27.0469 Q1427.7656,26.8594 1427.6563,26.3438 Q1427.6094,25.9844 1427.4219,25.7969 Q1427.0938,25.4219 1426.4844,25.2031 Q1425.875,24.9844 1425.25,24.9844 Q1424.4844,24.9844 1423.8516,25.3125 Q1423.2188,25.6406 1422.7266,26.3906 Q1422.2344,27.1406 1422.2344,28.1719 L1422.2344,29.2656 Q1422.2344,30.5 1423.125,31.3203 Q1424.0156,32.1406 1425.6094,32.1406 Q1426.5469,32.1406 1427.2031,31.8906 Q1427.5938,31.7344 1428.0156,31.2969 Q1428.2813,31.0313 1428.4297,30.9531 Q1428.5781,30.875 1428.7813,30.875 Q1429.1094,30.875 1429.3672,31.1328 Q1429.625,31.3906 1429.625,31.7344 Q1429.625,32.0781 1429.2813,32.4844 Q1428.7813,33.0625 1427.9844,33.3906 Q1426.9063,33.8438 1425.6094,33.8438 Q1424.0938,33.8438 1422.8906,33.2188 Q1421.9063,32.7188 1421.2188,31.6484 Q1420.5313,30.5781 1420.5313,29.2969 L1420.5313,28.1406 Q1420.5313,26.8125 1421.1484,25.6641 Q1421.7656,24.5156 1422.8594,23.8984 Q1423.9531,23.2813 1425.1875,23.2813 Q1425.9219,23.2813 1426.5703,23.4453 Q1427.2188,23.6094 1427.7656,23.9688 Z "/><text fill="#000000" font-family="sans-serif" font-size="14" font-weight="bold" lengthAdjust="spacingAndGlyphs" textLength="106" x="1471.5" y="27.5332">HumanStrategy</text><text fill="#000000" font-family="sans-serif" font-size="10" lengthAdjust="spacingAndGlyphs" textLength="171" x="1439" y="40.9902">soen6441riskgame.models.strategies</text></a><!--class soen6441riskgame.models.strategies.RandomStrategy--><a target="_parent" xlink:actuate="onRequest" xlink:href="../../soen6441riskgame/models/strategies/RandomStrategy.html" xlink:show="new" xlink:title="soen6441riskgame.models.strategies.RandomStrategy" xlink:type="simple"><rect fill="#FFFFFF" filter="url(#fonc7u48zg6l6)" height="40.1875" id="soen6441riskgame.models.strategies.RandomStrategy" style="stroke: #A80036; stroke-width: 1.5;" width="203" x="1648" y="8"/><rect fill="#FFFFFF" height="40.1875" style="stroke: #A80036; stroke-width: 1.5;" width="203" x="1648" y="8"/><ellipse cx="1663" cy="28.0938" fill="#ADD1B2" rx="11" ry="11" style="stroke: #A80036; stroke-width: 1.0;"/><path d="M1665.7656,23.9688 Q1665.9219,23.75 1666.1094,23.6406 Q1666.2969,23.5313 1666.5156,23.5313 Q1666.8906,23.5313 1667.125,23.7891 Q1667.3594,24.0469 1667.3594,24.6563 L1667.3594,26.1094 Q1667.3594,26.7188 1667.125,26.9844 Q1666.8906,27.25 1666.5156,27.25 Q1666.1719,27.25 1665.9688,27.0469 Q1665.7656,26.8594 1665.6563,26.3438 Q1665.6094,25.9844 1665.4219,25.7969 Q1665.0938,25.4219 1664.4844,25.2031 Q1663.875,24.9844 1663.25,24.9844 Q1662.4844,24.9844 1661.8516,25.3125 Q1661.2188,25.6406 1660.7266,26.3906 Q1660.2344,27.1406 1660.2344,28.1719 L1660.2344,29.2656 Q1660.2344,30.5 1661.125,31.3203 Q1662.0156,32.1406 1663.6094,32.1406 Q1664.5469,32.1406 1665.2031,31.8906 Q1665.5938,31.7344 1666.0156,31.2969 Q1666.2813,31.0313 1666.4297,30.9531 Q1666.5781,30.875 1666.7813,30.875 Q1667.1094,30.875 1667.3672,31.1328 Q1667.625,31.3906 1667.625,31.7344 Q1667.625,32.0781 1667.2813,32.4844 Q1666.7813,33.0625 1665.9844,33.3906 Q1664.9063,33.8438 1663.6094,33.8438 Q1662.0938,33.8438 1660.8906,33.2188 Q1659.9063,32.7188 1659.2188,31.6484 Q1658.5313,30.5781 1658.5313,29.2969 L1658.5313,28.1406 Q1658.5313,26.8125 1659.1484,25.6641 Q1659.7656,24.5156 1660.8594,23.8984 Q1661.9531,23.2813 1663.1875,23.2813 Q1663.9219,23.2813 1664.5703,23.4453 Q1665.2188,23.6094 1665.7656,23.9688 Z "/><text fill="#000000" font-family="sans-serif" font-size="14" font-weight="bold" lengthAdjust="spacingAndGlyphs" textLength="115" x="1705" y="27.5332">RandomStrategy</text><text fill="#000000" font-family="sans-serif" font-size="10" lengthAdjust="spacingAndGlyphs" textLength="171" x="1677" y="40.9902">soen6441riskgame.models.strategies</text></a><!--class soen6441riskgame.models.strategies.Strategy--><a target="_parent" xlink:actuate="onRequest" xlink:href="../../soen6441riskgame/models/strategies/Strategy.html" xlink:show="new" xlink:title="soen6441riskgame.models.strategies.Strategy" xlink:type="simple"><rect fill="#FFFFFF" filter="url(#fonc7u48zg6l6)" height="40.1875" id="soen6441riskgame.models.strategies.Strategy" style="stroke: #A80036; stroke-width: 1.5;" width="205" x="1886" y="8"/><rect fill="#FFFFFF" height="40.1875" style="stroke: #A80036; stroke-width: 1.5;" width="205" x="1886" y="8"/><ellipse cx="1901" cy="28.0938" fill="#B4A7E5" rx="11" ry="11" style="stroke: #A80036; stroke-width: 1.0;"/><path d="M1901.9531,24.7344 L1901.9531,31.3906 L1903.6719,31.3906 Q1904.2813,31.3906 1904.5469,31.625 Q1904.8125,31.8594 1904.8125,32.25 Q1904.8125,32.625 1904.5469,32.8594 Q1904.2813,33.0938 1903.6719,33.0938 L1898.5313,33.0938 Q1897.9219,33.0938 1897.6563,32.8594 Q1897.3906,32.625 1897.3906,32.2344 Q1897.3906,31.8594 1897.6563,31.625 Q1897.9219,31.3906 1898.5313,31.3906 L1900.25,31.3906 L1900.25,24.7344 L1898.5313,24.7344 Q1897.9219,24.7344 1897.6563,24.5 Q1897.3906,24.2656 1897.3906,23.875 Q1897.3906,23.5 1897.6563,23.2656 Q1897.9219,23.0313 1898.5313,23.0313 L1903.6719,23.0313 Q1904.2813,23.0313 1904.5469,23.2656 Q1904.8125,23.5 1904.8125,23.875 Q1904.8125,24.2656 1904.5469,24.5 Q1904.2813,24.7344 1903.6719,24.7344 L1901.9531,24.7344 Z "/><text fill="#000000" font-family="sans-serif" font-size="14" font-style="italic" font-weight="bold" lengthAdjust="spacingAndGlyphs" textLength="56" x="1973.5" y="27.5332">Strategy</text><text fill="#000000" font-family="sans-serif" font-size="10" font-style="italic" lengthAdjust="spacingAndGlyphs" textLength="173" x="1915" y="40.9902">soen6441riskgame.models.strategies</text></a><!--class soen6441riskgame.singleton.GameBoardMap--><a target="_parent" xlink:actuate="onRequest" xlink:href="../../soen6441riskgame/singleton/GameBoardMap.html" xlink:show="new" xlink:title="soen6441riskgame.singleton.GameBoardMap" xlink:type="simple"><rect fill="#FFFFFF" filter="url(#fonc7u48zg6l6)" height="40.1875" id="soen6441riskgame.singleton.GameBoardMap" style="stroke: #A80036; stroke-width: 1.5;" width="165" x="2126" y="8"/><rect fill="#FFFFFF" height="40.1875" style="stroke: #A80036; stroke-width: 1.5;" width="165" x="2126" y="8"/><ellipse cx="2141" cy="28.0938" fill="#ADD1B2" rx="11" ry="11" style="stroke: #A80036; stroke-width: 1.0;"/><path d="M2143.7656,23.9688 Q2143.9219,23.75 2144.1094,23.6406 Q2144.2969,23.5313 2144.5156,23.5313 Q2144.8906,23.5313 2145.125,23.7891 Q2145.3594,24.0469 2145.3594,24.6563 L2145.3594,26.1094 Q2145.3594,26.7188 2145.125,26.9844 Q2144.8906,27.25 2144.5156,27.25 Q2144.1719,27.25 2143.9688,27.0469 Q2143.7656,26.8594 2143.6563,26.3438 Q2143.6094,25.9844 2143.4219,25.7969 Q2143.0938,25.4219 2142.4844,25.2031 Q2141.875,24.9844 2141.25,24.9844 Q2140.4844,24.9844 2139.8516,25.3125 Q2139.2188,25.6406 2138.7266,26.3906 Q2138.2344,27.1406 2138.2344,28.1719 L2138.2344,29.2656 Q2138.2344,30.5 2139.125,31.3203 Q2140.0156,32.1406 2141.6094,32.1406 Q2142.5469,32.1406 2143.2031,31.8906 Q2143.5938,31.7344 2144.0156,31.2969 Q2144.2813,31.0313 2144.4297,30.9531 Q2144.5781,30.875 2144.7813,30.875 Q2145.1094,30.875 2145.3672,31.1328 Q2145.625,31.3906 2145.625,31.7344 Q2145.625,32.0781 2145.2813,32.4844 Q2144.7813,33.0625 2143.9844,33.3906 Q2142.9063,33.8438 2141.6094,33.8438 Q2140.0938,33.8438 2138.8906,33.2188 Q2137.9063,32.7188 2137.2188,31.6484 Q2136.5313,30.5781 2136.5313,29.2969 L2136.5313,28.1406 Q2136.5313,26.8125 2137.1484,25.6641 Q2137.7656,24.5156 2138.8594,23.8984 Q2139.9531,23.2813 2141.1875,23.2813 Q2141.9219,23.2813 2142.5703,23.4453 Q2143.2188,23.6094 2143.7656,23.9688 Z "/><text fill="#000000" font-family="sans-serif" font-size="14" font-weight="bold" lengthAdjust="spacingAndGlyphs" textLength="112" x="2165.5" y="27.5332">GameBoardMap</text><text fill="#000000" font-family="sans-serif" font-size="10" lengthAdjust="spacingAndGlyphs" textLength="133" x="2155" y="40.9902">soen6441riskgame.singleton</text></a><!--class soen6441riskgame.singleton.GameBoardPlaying--><a target="_parent" xlink:actuate="onRequest" xlink:href="../../soen6441riskgame/singleton/GameBoardPlaying.html" xlink:show="new" xlink:title="soen6441riskgame.singleton.GameBoardPlaying" xlink:type="simple"><rect fill="#FFFFFF" filter="url(#fonc7u48zg6l6)" height="40.1875" id="soen6441riskgame.singleton.GameBoardPlaying" style="stroke: #A80036; stroke-width: 1.5;" width="165" x="2326" y="8"/><rect fill="#FFFFFF" height="40.1875" style="stroke: #A80036; stroke-width: 1.5;" width="165" x="2326" y="8"/><ellipse cx="2341" cy="28.0938" fill="#ADD1B2" rx="11" ry="11" style="stroke: #A80036; stroke-width: 1.0;"/><path d="M2343.7656,23.9688 Q2343.9219,23.75 2344.1094,23.6406 Q2344.2969,23.5313 2344.5156,23.5313 Q2344.8906,23.5313 2345.125,23.7891 Q2345.3594,24.0469 2345.3594,24.6563 L2345.3594,26.1094 Q2345.3594,26.7188 2345.125,26.9844 Q2344.8906,27.25 2344.5156,27.25 Q2344.1719,27.25 2343.9688,27.0469 Q2343.7656,26.8594 2343.6563,26.3438 Q2343.6094,25.9844 2343.4219,25.7969 Q2343.0938,25.4219 2342.4844,25.2031 Q2341.875,24.9844 2341.25,24.9844 Q2340.4844,24.9844 2339.8516,25.3125 Q2339.2188,25.6406 2338.7266,26.3906 Q2338.2344,27.1406 2338.2344,28.1719 L2338.2344,29.2656 Q2338.2344,30.5 2339.125,31.3203 Q2340.0156,32.1406 2341.6094,32.1406 Q2342.5469,32.1406 2343.2031,31.8906 Q2343.5938,31.7344 2344.0156,31.2969 Q2344.2813,31.0313 2344.4297,30.9531 Q2344.5781,30.875 2344.7813,30.875 Q2345.1094,30.875 2345.3672,31.1328 Q2345.625,31.3906 2345.625,31.7344 Q2345.625,32.0781 2345.2813,32.4844 Q2344.7813,33.0625 2343.9844,33.3906 Q2342.9063,33.8438 2341.6094,33.8438 Q2340.0938,33.8438 2338.8906,33.2188 Q2337.9063,32.7188 2337.2188,31.6484 Q2336.5313,30.5781 2336.5313,29.2969 L2336.5313,28.1406 Q2336.5313,26.8125 2337.1484,25.6641 Q2337.7656,24.5156 2338.8594,23.8984 Q2339.9531,23.2813 2341.1875,23.2813 Q2341.9219,23.2813 2342.5703,23.4453 Q2343.2188,23.6094 2343.7656,23.9688 Z "/><text fill="#000000" font-family="sans-serif" font-size="14" font-weight="bold" lengthAdjust="spacingAndGlyphs" textLength="132" x="2355.5" y="27.5332">GameBoardPlaying</text><text fill="#000000" font-family="sans-serif" font-size="10" lengthAdjust="spacingAndGlyphs" textLength="133" x="2355" y="40.9902">soen6441riskgame.singleton</text></a><!--class soen6441riskgame.utils.GameHelper--><a target="_parent" xlink:actuate="onRequest" xlink:href="../../soen6441riskgame/utils/GameHelper.html" xlink:show="new" xlink:title="soen6441riskgame.utils.GameHelper" xlink:type="simple"><rect fill="#FFFFFF" filter="url(#fonc7u48zg6l6)" height="40.1875" id="soen6441riskgame.utils.GameHelper" style="stroke: #A80036; stroke-width: 1.5;" width="141" x="2526" y="8"/><rect fill="#FFFFFF" height="40.1875" style="stroke: #A80036; stroke-width: 1.5;" width="141" x="2526" y="8"/><ellipse cx="2541" cy="28.0938" fill="#ADD1B2" rx="11" ry="11" style="stroke: #A80036; stroke-width: 1.0;"/><path d="M2543.7656,23.9688 Q2543.9219,23.75 2544.1094,23.6406 Q2544.2969,23.5313 2544.5156,23.5313 Q2544.8906,23.5313 2545.125,23.7891 Q2545.3594,24.0469 2545.3594,24.6563 L2545.3594,26.1094 Q2545.3594,26.7188 2545.125,26.9844 Q2544.8906,27.25 2544.5156,27.25 Q2544.1719,27.25 2543.9688,27.0469 Q2543.7656,26.8594 2543.6563,26.3438 Q2543.6094,25.9844 2543.4219,25.7969 Q2543.0938,25.4219 2542.4844,25.2031 Q2541.875,24.9844 2541.25,24.9844 Q2540.4844,24.9844 2539.8516,25.3125 Q2539.2188,25.6406 2538.7266,26.3906 Q2538.2344,27.1406 2538.2344,28.1719 L2538.2344,29.2656 Q2538.2344,30.5 2539.125,31.3203 Q2540.0156,32.1406 2541.6094,32.1406 Q2542.5469,32.1406 2543.2031,31.8906 Q2543.5938,31.7344 2544.0156,31.2969 Q2544.2813,31.0313 2544.4297,30.9531 Q2544.5781,30.875 2544.7813,30.875 Q2545.1094,30.875 2545.3672,31.1328 Q2545.625,31.3906 2545.625,31.7344 Q2545.625,32.0781 2545.2813,32.4844 Q2544.7813,33.0625 2543.9844,33.3906 Q2542.9063,33.8438 2541.6094,33.8438 Q2540.0938,33.8438 2538.8906,33.2188 Q2537.9063,32.7188 2537.2188,31.6484 Q2536.5313,30.5781 2536.5313,29.2969 L2536.5313,28.1406 Q2536.5313,26.8125 2537.1484,25.6641 Q2537.7656,24.5156 2538.8594,23.8984 Q2539.9531,23.2813 2541.1875,23.2813 Q2541.9219,23.2813 2542.5703,23.4453 Q2543.2188,23.6094 2543.7656,23.9688 Z "/><text fill="#000000" font-family="sans-serif" font-size="14" font-weight="bold" lengthAdjust="spacingAndGlyphs" textLength="87" x="2566" y="27.5332">GameHelper</text><text fill="#000000" font-family="sans-serif" font-size="10" lengthAdjust="spacingAndGlyphs" textLength="109" x="2555" y="40.9902">soen6441riskgame.utils</text></a><!--class soen6441riskgame.utils.GraphChecker--><a target="_parent" xlink:actuate="onRequest" xlink:href="../../soen6441riskgame/utils/GraphChecker.html" xlink:show="new" xlink:title="soen6441riskgame.utils.GraphChecker" xlink:type="simple"><rect fill="#FFFFFF" filter="url(#fonc7u48zg6l6)" height="40.1875" id="soen6441riskgame.utils.GraphChecker" style="stroke: #A80036; stroke-width: 1.5;" width="141" x="2702" y="8"/><rect fill="#FFFFFF" height="40.1875" style="stroke: #A80036; stroke-width: 1.5;" width="141" x="2702" y="8"/><ellipse cx="2717" cy="28.0938" fill="#ADD1B2" rx="11" ry="11" style="stroke: #A80036; stroke-width: 1.0;"/><path d="M2719.7656,23.9688 Q2719.9219,23.75 2720.1094,23.6406 Q2720.2969,23.5313 2720.5156,23.5313 Q2720.8906,23.5313 2721.125,23.7891 Q2721.3594,24.0469 2721.3594,24.6563 L2721.3594,26.1094 Q2721.3594,26.7188 2721.125,26.9844 Q2720.8906,27.25 2720.5156,27.25 Q2720.1719,27.25 2719.9688,27.0469 Q2719.7656,26.8594 2719.6563,26.3438 Q2719.6094,25.9844 2719.4219,25.7969 Q2719.0938,25.4219 2718.4844,25.2031 Q2717.875,24.9844 2717.25,24.9844 Q2716.4844,24.9844 2715.8516,25.3125 Q2715.2188,25.6406 2714.7266,26.3906 Q2714.2344,27.1406 2714.2344,28.1719 L2714.2344,29.2656 Q2714.2344,30.5 2715.125,31.3203 Q2716.0156,32.1406 2717.6094,32.1406 Q2718.5469,32.1406 2719.2031,31.8906 Q2719.5938,31.7344 2720.0156,31.2969 Q2720.2813,31.0313 2720.4297,30.9531 Q2720.5781,30.875 2720.7813,30.875 Q2721.1094,30.875 2721.3672,31.1328 Q2721.625,31.3906 2721.625,31.7344 Q2721.625,32.0781 2721.2813,32.4844 Q2720.7813,33.0625 2719.9844,33.3906 Q2718.9063,33.8438 2717.6094,33.8438 Q2716.0938,33.8438 2714.8906,33.2188 Q2713.9063,32.7188 2713.2188,31.6484 Q2712.5313,30.5781 2712.5313,29.2969 L2712.5313,28.1406 Q2712.5313,26.8125 2713.1484,25.6641 Q2713.7656,24.5156 2714.8594,23.8984 Q2715.9531,23.2813 2717.1875,23.2813 Q2717.9219,23.2813 2718.5703,23.4453 Q2719.2188,23.6094 2719.7656,23.9688 Z "/><text fill="#000000" font-family="sans-serif" font-size="14" font-weight="bold" lengthAdjust="spacingAndGlyphs" textLength="102" x="2734.5" y="27.5332">GraphChecker</text><text fill="#000000" font-family="sans-serif" font-size="10" lengthAdjust="spacingAndGlyphs" textLength="109" x="2731" y="40.9902">soen6441riskgame.utils</text></a><!--link soen6441riskgame.controllers.MapController to soen6441riskgame.models.Country--><path d="M91.5,48.034 C91.5,129.553 91.5,432 91.5,432 C91.5,432 1411.1,432 1411.1,432 " fill="none" id="soen6441riskgame.controllers.MapController-soen6441riskgame.models.Country" style="stroke: #A80036; stroke-width: 1.0; stroke-dasharray: 7.0,7.0;"/><polygon fill="#A80036" points="1416.1,432,1407.1,428,1411.1,432,1407.1,436,1416.1,432" style="stroke: #A80036; stroke-width: 1.0;"/><!--link soen6441riskgame.models.Continent to soen6441riskgame.models.Country--><path d="M1223.5,652.9877 C1223.5,604.7468 1223.5,486 1223.5,486 C1223.5,486 1411.27,486 1411.27,486 " fill="none" id="soen6441riskgame.models.Continent-soen6441riskgame.models.Country" style="stroke: #A80036; stroke-width: 1.0; stroke-dasharray: 7.0,7.0;"/><polygon fill="#A80036" points="1416.27,486,1407.27,482,1411.27,486,1407.27,490,1416.27,486" style="stroke: #A80036; stroke-width: 1.0;"/><!--link soen6441riskgame.models.Country to soen6441riskgame.models.Continent--><path d="M1416.27,540 C1341.08,540 1275,540 1275,540 C1275,540 1275,647.8002 1275,647.8002 " fill="none" id="soen6441riskgame.models.Country-soen6441riskgame.models.Continent" style="stroke: #A80036; stroke-width: 1.0;"/><polygon fill="#A80036" points="1275,652.8002,1279,643.8002,1275,647.8002,1271,643.8002,1275,652.8002" style="stroke: #A80036; stroke-width: 1.0;"/><text fill="#000000" font-family="sans-serif" font-size="13" lengthAdjust="spacingAndGlyphs" textLength="53" x="1222" y="642.0357">continent</text><!--link soen6441riskgame.models.Country to soen6441riskgame.models.Coordinate--><path d="M1467,593.2809 C1467,593.2809 1467,647.9176 1467,647.9176 " fill="none" id="soen6441riskgame.models.Country-soen6441riskgame.models.Coordinate" style="stroke: #A80036; stroke-width: 1.0;"/><polygon fill="#A80036" points="1467,652.9176,1471,643.9176,1467,647.9176,1463,643.9176,1467,652.9176" style="stroke: #A80036; stroke-width: 1.0;"/><text fill="#000000" font-family="sans-serif" font-size="13" lengthAdjust="spacingAndGlyphs" textLength="60" x="1406.2656" y="642.1876">coordinate</text><!--link soen6441riskgame.models.Country to soen6441riskgame.models.Player--><path d="M1656.5,593.2809 C1656.5,593.2809 1656.5,647.9176 1656.5,647.9176 " fill="none" id="soen6441riskgame.models.Country-soen6441riskgame.models.Player" style="stroke: #A80036; stroke-width: 1.0;"/><polygon fill="#A80036" points="1656.5,652.9176,1660.5,643.9176,1656.5,647.9176,1652.5,643.9176,1656.5,652.9176" style="stroke: #A80036; stroke-width: 1.0;"/><text fill="#000000" font-family="sans-serif" font-size="13" lengthAdjust="spacingAndGlyphs" textLength="57" x="1598.7656" y="642.1876">conquerer</text><!--link soen6441riskgame.models.Player to soen6441riskgame.models.Country--><path d="M1604.5,652.8262 C1604.5,652.8262 1604.5,598.1515 1604.5,598.1515 " fill="none" id="soen6441riskgame.models.Player-soen6441riskgame.models.Country" style="stroke: #A80036; stroke-width: 1.0; stroke-dasharray: 7.0,7.0;"/><polygon fill="#A80036" points="1604.5,593.1515,1600.5,602.1515,1604.5,598.1515,1608.5,602.1515,1604.5,593.1515" style="stroke: #A80036; stroke-width: 1.0;"/><!--link soen6441riskgame.models.Country to soen6441riskgame.models.Viewable--><path d="M1777.17,593.2809 C1777.17,593.2809 1777.17,632.9176 1777.17,632.9176 " fill="none" id="soen6441riskgame.models.Country-soen6441riskgame.models.Viewable" style="stroke: #A80036; stroke-width: 1.0; stroke-dasharray: 7.0,7.0;"/><polygon fill="none" points="1784.17,632.9176,1777.17,652.9176,1770.17,632.9176,1784.17,632.9176" style="stroke: #A80036; stroke-width: 1.0;"/><!--link soen6441riskgame.models.Country to soen6441riskgame.models.Country--><path d="M1779,107.942 C1779,89.57 1779,78 1779,78 C1779,78 1868.5,78 1868.5,78 C1868.5,78 1868.5,623 1868.5,623 C1868.5,623 1810.83,623 1810.83,623 C1810.83,623 1810.83,598.0582 1810.83,598.0582 " fill="none" id="soen6441riskgame.models.Country-soen6441riskgame.models.Country" style="stroke: #A80036; stroke-width: 1.0; stroke-dasharray: 7.0,7.0;"/><polygon fill="#A80036" points="1810.83,593.0582,1806.83,602.0582,1810.83,598.0582,1814.83,602.0582,1810.83,593.0582" style="stroke: #A80036; stroke-width: 1.0;"/><!--link soen6441riskgame.models.Country to java.io.PrintStream--><path d="M1844.67,533 C1922.4,533 1991.5,533 1991.5,533 C1991.5,533 1991.5,647.9414 1991.5,647.9414 " fill="none" id="soen6441riskgame.models.Country-java.io.PrintStream" style="stroke: #A80036; stroke-width: 1.0; stroke-dasharray: 7.0,7.0;"/><polygon fill="#A80036" points="1991.5,652.9414,1995.5,643.9414,1991.5,647.9414,1987.5,643.9414,1991.5,652.9414" style="stroke: #A80036; stroke-width: 1.0;"/><!--link soen6441riskgame.models.serializers.SerializableGame to soen6441riskgame.models.Country--><path d="M314.5,48.075 C314.5,122.445 314.5,378 314.5,378 C314.5,378 1411.5,378 1411.5,378 " fill="none" id="soen6441riskgame.models.serializers.SerializableGame-soen6441riskgame.models.Country" style="stroke: #A80036; stroke-width: 1.0;"/><polygon fill="#A80036" points="1416.5,378,1407.5,374,1411.5,378,1407.5,382,1416.5,378" style="stroke: #A80036; stroke-width: 1.0;"/><text fill="#000000" font-family="sans-serif" font-size="13" lengthAdjust="spacingAndGlyphs" textLength="62" x="1346.4609" y="376.1391">countries *</text><!--link soen6441riskgame.models.serializers.SerializableGame.Builder to soen6441riskgame.models.Country--><path d="M556.5,48.345 C556.5,115.22 556.5,324 556.5,324 C556.5,324 1411.39,324 1411.39,324 " fill="none" id="soen6441riskgame.models.serializers.SerializableGame.Builder-soen6441riskgame.models.Country" style="stroke: #A80036; stroke-width: 1.0;"/><polygon fill="#A80036" points="1416.39,324,1407.39,320,1411.39,324,1407.39,328,1416.39,324" style="stroke: #A80036; stroke-width: 1.0;"/><text fill="#000000" font-family="sans-serif" font-size="13" lengthAdjust="spacingAndGlyphs" textLength="62" x="1346.3473" y="320.3672">countries *</text><!--link soen6441riskgame.models.strategies.AggressiveStrategy to soen6441riskgame.models.Country--><path d="M797.5,48.217 C797.5,106.379 797.5,270 797.5,270 C797.5,270 1411.25,270 1411.25,270 " fill="none" id="soen6441riskgame.models.strategies.AggressiveStrategy-soen6441riskgame.models.Country" style="stroke: #A80036; stroke-width: 1.0; stroke-dasharray: 7.0,7.0;"/><polygon fill="#A80036" points="1416.25,270,1407.25,266,1411.25,270,1407.25,274,1416.25,270" style="stroke: #A80036; stroke-width: 1.0;"/><!--link soen6441riskgame.models.strategies.BenevolentStrategy to soen6441riskgame.models.Country--><path d="M1035.5,48.119 C1035.5,96.618 1035.5,216 1035.5,216 C1035.5,216 1411.11,216 1411.11,216 " fill="none" id="soen6441riskgame.models.strategies.BenevolentStrategy-soen6441riskgame.models.Country" style="stroke: #A80036; stroke-width: 1.0; stroke-dasharray: 7.0,7.0;"/><polygon fill="#A80036" points="1416.11,216,1407.11,212,1411.11,216,1407.11,220,1416.11,216" style="stroke: #A80036; stroke-width: 1.0;"/><!--link soen6441riskgame.models.strategies.CheaterStrategy to soen6441riskgame.models.Country--><path d="M1368.25,48.061 C1368.25,85.443 1368.25,162 1368.25,162 C1368.25,162 1411.35,162 1411.35,162 " fill="none" id="soen6441riskgame.models.strategies.CheaterStrategy-soen6441riskgame.models.Country" style="stroke: #A80036; stroke-width: 1.0; stroke-dasharray: 7.0,7.0;"/><polygon fill="#A80036" points="1416.35,162,1407.35,158,1411.35,162,1407.35,166,1416.35,162" style="stroke: #A80036; stroke-width: 1.0;"/><!--link soen6441riskgame.models.strategies.HumanStrategy to soen6441riskgame.models.Country--><path d="M1514.75,48.174 C1514.75,48.174 1514.75,102.849 1514.75,102.849 " fill="none" id="soen6441riskgame.models.strategies.HumanStrategy-soen6441riskgame.models.Country" style="stroke: #A80036; stroke-width: 1.0; stroke-dasharray: 7.0,7.0;"/><polygon fill="#A80036" points="1514.75,107.849,1518.75,98.849,1514.75,102.849,1510.75,98.849,1514.75,107.849" style="stroke: #A80036; stroke-width: 1.0;"/><!--link soen6441riskgame.models.strategies.RandomStrategy to soen6441riskgame.models.Country--><path d="M1713.5,48.174 C1713.5,48.174 1713.5,102.849 1713.5,102.849 " fill="none" id="soen6441riskgame.models.strategies.RandomStrategy-soen6441riskgame.models.Country" style="stroke: #A80036; stroke-width: 1.0; stroke-dasharray: 7.0,7.0;"/><polygon fill="#A80036" points="1713.5,107.849,1717.5,98.849,1713.5,102.849,1709.5,98.849,1713.5,107.849" style="stroke: #A80036; stroke-width: 1.0;"/><!--link soen6441riskgame.models.strategies.Strategy to soen6441riskgame.models.Country--><path d="M1892.75,48.202 C1892.75,87.19 1892.75,169 1892.75,169 C1892.75,169 1849.65,169 1849.65,169 " fill="none" id="soen6441riskgame.models.strategies.Strategy-soen6441riskgame.models.Country" style="stroke: #A80036; stroke-width: 1.0; stroke-dasharray: 7.0,7.0;"/><polygon fill="#A80036" points="1844.65,169,1853.65,173,1849.65,169,1853.65,165,1844.65,169" style="stroke: #A80036; stroke-width: 1.0;"/><!--link soen6441riskgame.singleton.GameBoardMap to soen6441riskgame.models.Country--><path d="M2208.5,48.107 C2208.5,99.201 2208.5,230 2208.5,230 C2208.5,230 1849.9,230 1849.9,230 " fill="none" id="soen6441riskgame.singleton.GameBoardMap-soen6441riskgame.models.Country" style="stroke: #A80036; stroke-width: 1.0; stroke-dasharray: 7.0,7.0;"/><polygon fill="#A80036" points="1844.9,230,1853.9,234,1849.9,230,1853.9,226,1844.9,230" style="stroke: #A80036; stroke-width: 1.0;"/><!--link soen6441riskgame.singleton.GameBoardPlaying to soen6441riskgame.models.Country--><path d="M2436,48.205 C2436,118.918 2436,351 2436,351 C2436,351 1849.51,351 1849.51,351 " fill="none" id="soen6441riskgame.singleton.GameBoardPlaying-soen6441riskgame.models.Country" style="stroke: #A80036; stroke-width: 1.0;"/><polygon fill="#A80036" points="1844.51,351,1853.51,355,1849.51,351,1853.51,347,1844.51,351" style="stroke: #A80036; stroke-width: 1.0;"/><text fill="#000000" font-family="sans-serif" font-size="13" lengthAdjust="spacingAndGlyphs" textLength="98" x="1852.3181" y="348.2762">attackingCountry</text><!--link soen6441riskgame.singleton.GameBoardPlaying to soen6441riskgame.models.Country--><path d="M2381,48.124 C2381,109.474 2381,290 2381,290 C2381,290 1849.56,290 1849.56,290 " fill="none" id="soen6441riskgame.singleton.GameBoardPlaying-soen6441riskgame.models.Country" style="stroke: #A80036; stroke-width: 1.0;"/><polygon fill="#A80036" points="1844.56,290,1853.56,294,1849.56,290,1853.56,286,1844.56,290" style="stroke: #A80036; stroke-width: 1.0;"/><text fill="#000000" font-family="sans-serif" font-size="13" lengthAdjust="spacingAndGlyphs" textLength="100" x="1852.3993" y="285.4652">defendingCountry</text><!--link soen6441riskgame.utils.GameHelper to soen6441riskgame.models.Country--><path d="M2596.5,48.105 C2596.5,127.116 2596.5,412 2596.5,412 C2596.5,412 1849.59,412 1849.59,412 " fill="none" id="soen6441riskgame.utils.GameHelper-soen6441riskgame.models.Country" style="stroke: #A80036; stroke-width: 1.0; stroke-dasharray: 7.0,7.0;"/><polygon fill="#A80036" points="1844.59,412,1853.59,416,1849.59,412,1853.59,408,1844.59,412" style="stroke: #A80036; stroke-width: 1.0;"/><!--link soen6441riskgame.utils.GraphChecker to soen6441riskgame.models.Country--><path d="M2772.5,48.231 C2772.5,135.091 2772.5,472 2772.5,472 C2772.5,472 1849.63,472 1849.63,472 " fill="none" id="soen6441riskgame.utils.GraphChecker-soen6441riskgame.models.Country" style="stroke: #A80036; stroke-width: 1.0; stroke-dasharray: 7.0,7.0;"/><polygon fill="#A80036" points="1844.63,472,1853.63,476,1849.63,472,1853.63,468,1844.63,472" style="stroke: #A80036; stroke-width: 1.0;"/><!--
@startuml

skinparam svgLinkTarget _parent
skinparam linetype ortho
set namespaceSeparator none
class "<b><size:14>Country</b>\n<size:10>soen6441riskgame.models" as soen6441riskgame.models.Country  [[../../soen6441riskgame/models/Country.html{soen6441riskgame.models.Country}]] {
-Coordinate coordinate
-int armyAmount
-String name
-Continent continent
-Player conquerer
-int serializedOrder
-String continentName
-String conquererName
+Country(int order,String name,Coordinate coordinate,Continent continent)
+Country(Country serializedCountry,List<Continent> continents,List<Player> players)
+int getSerializedOrder()
+Player getConquerer()
+void setConquerer(Player conquerer)
+Continent getContinent()
+String getName()
+int getArmyAmount()
+void setArmyAmount(int armyAmount)
+int getOrder()
+Coordinate getCoordinate()
+ArrayList<Country> getNeighbors()
+boolean isConquered()
+void receiveArmiesFromUnPlacedArmies(int amount)
+void increaseArmies(int amount)
+void decreaseArmies(int amount)
+void moveArmies(Country toCountry,int armiesToMove)
+void placeArmy(Player player)
+boolean isNeighboringCountries(Country neighborCountry)
+boolean isCountryBelongToPlayer(Player player)
+void viewWithoutNeighbors(int indent)
+void viewWithoutNeighbors(PrintStream printStream,int indent)
+void view(PrintStream printStream,int indent)
}


class "<b><size:14>MapController</b>\n<size:10>soen6441riskgame.controllers" as soen6441riskgame.controllers.MapController  [[../../soen6441riskgame/controllers/MapController.html{soen6441riskgame.controllers.MapController}]] #white {
}

hide soen6441riskgame.controllers.MapController fields
hide soen6441riskgame.controllers.MapController methods

soen6441riskgame.controllers.MapController ..> soen6441riskgame.models.Country

class "<b><size:14>Continent</b>\n<size:10>soen6441riskgame.models" as soen6441riskgame.models.Continent  [[../../soen6441riskgame/models/Continent.html{soen6441riskgame.models.Continent}]] {
}

hide soen6441riskgame.models.Continent fields
hide soen6441riskgame.models.Continent methods

soen6441riskgame.models.Continent ..> soen6441riskgame.models.Country

class "<b><size:14>Coordinate</b>\n<size:10>soen6441riskgame.models" as soen6441riskgame.models.Coordinate  [[../../soen6441riskgame/models/Coordinate.html{soen6441riskgame.models.Coordinate}]] {
}

hide soen6441riskgame.models.Coordinate fields
hide soen6441riskgame.models.Coordinate methods

soen6441riskgame.models.Country - ->  "coordinate" soen6441riskgame.models.Coordinate

soen6441riskgame.models.Country - ->  "continent" soen6441riskgame.models.Continent

class "<b><size:14>Player</b>\n<size:10>soen6441riskgame.models" as soen6441riskgame.models.Player  [[../../soen6441riskgame/models/Player.html{soen6441riskgame.models.Player}]] {
}

hide soen6441riskgame.models.Player fields
hide soen6441riskgame.models.Player methods

soen6441riskgame.models.Country - ->  "conquerer" soen6441riskgame.models.Player


interface "<b><size:14>Viewable</b>\n<size:10>soen6441riskgame.models" as soen6441riskgame.models.Viewable  [[../../soen6441riskgame/models/Viewable.html{soen6441riskgame.models.Viewable}]] {
}

hide soen6441riskgame.models.Viewable fields
hide soen6441riskgame.models.Viewable methods

soen6441riskgame.models.Country ..|> soen6441riskgame.models.Viewable




soen6441riskgame.models.Country ..> soen6441riskgame.models.Country

class "<b><size:14>PrintStream</b>\n<size:10>java.io" as java.io.PrintStream  #lightgrey {
}

hide java.io.PrintStream fields
hide java.io.PrintStream methods

soen6441riskgame.models.Country ..> java.io.PrintStream

soen6441riskgame.models.Player ..> soen6441riskgame.models.Country

class "<b><size:14>SerializableGame</b>\n<size:10>soen6441riskgame.models.serializers" as soen6441riskgame.models.serializers.SerializableGame  [[../../soen6441riskgame/models/serializers/SerializableGame.html{soen6441riskgame.models.serializers.SerializableGame}]] #white {
}

hide soen6441riskgame.models.serializers.SerializableGame fields
hide soen6441riskgame.models.serializers.SerializableGame methods

soen6441riskgame.models.serializers.SerializableGame - ->  "countries *" soen6441riskgame.models.Country

class "<b><size:14>SerializableGame.Builder</b>\n<size:10>soen6441riskgame.models.serializers" as soen6441riskgame.models.serializers.SerializableGame.Builder  [[../../soen6441riskgame/models/serializers/SerializableGame.Builder.html{soen6441riskgame.models.serializers.SerializableGame.Builder}]] #white {
}

hide soen6441riskgame.models.serializers.SerializableGame.Builder fields
hide soen6441riskgame.models.serializers.SerializableGame.Builder methods

soen6441riskgame.models.serializers.SerializableGame.Builder - ->  "countries *" soen6441riskgame.models.Country

class "<b><size:14>AggressiveStrategy</b>\n<size:10>soen6441riskgame.models.strategies" as soen6441riskgame.models.strategies.AggressiveStrategy  [[../../soen6441riskgame/models/strategies/AggressiveStrategy.html{soen6441riskgame.models.strategies.AggressiveStrategy}]] #white {
}

hide soen6441riskgame.models.strategies.AggressiveStrategy fields
hide soen6441riskgame.models.strategies.AggressiveStrategy methods

soen6441riskgame.models.strategies.AggressiveStrategy ..> soen6441riskgame.models.Country

class "<b><size:14>BenevolentStrategy</b>\n<size:10>soen6441riskgame.models.strategies" as soen6441riskgame.models.strategies.BenevolentStrategy  [[../../soen6441riskgame/models/strategies/BenevolentStrategy.html{soen6441riskgame.models.strategies.BenevolentStrategy}]] #white {
}

hide soen6441riskgame.models.strategies.BenevolentStrategy fields
hide soen6441riskgame.models.strategies.BenevolentStrategy methods

soen6441riskgame.models.strategies.BenevolentStrategy ..> soen6441riskgame.models.Country

class "<b><size:14>CheaterStrategy</b>\n<size:10>soen6441riskgame.models.strategies" as soen6441riskgame.models.strategies.CheaterStrategy  [[../../soen6441riskgame/models/strategies/CheaterStrategy.html{soen6441riskgame.models.strategies.CheaterStrategy}]] #white {
}

hide soen6441riskgame.models.strategies.CheaterStrategy fields
hide soen6441riskgame.models.strategies.CheaterStrategy methods

soen6441riskgame.models.strategies.CheaterStrategy ..> soen6441riskgame.models.Country

class "<b><size:14>HumanStrategy</b>\n<size:10>soen6441riskgame.models.strategies" as soen6441riskgame.models.strategies.HumanStrategy  [[../../soen6441riskgame/models/strategies/HumanStrategy.html{soen6441riskgame.models.strategies.HumanStrategy}]] #white {
}

hide soen6441riskgame.models.strategies.HumanStrategy fields
hide soen6441riskgame.models.strategies.HumanStrategy methods

soen6441riskgame.models.strategies.HumanStrategy ..> soen6441riskgame.models.Country

class "<b><size:14>RandomStrategy</b>\n<size:10>soen6441riskgame.models.strategies" as soen6441riskgame.models.strategies.RandomStrategy  [[../../soen6441riskgame/models/strategies/RandomStrategy.html{soen6441riskgame.models.strategies.RandomStrategy}]] #white {
}

hide soen6441riskgame.models.strategies.RandomStrategy fields
hide soen6441riskgame.models.strategies.RandomStrategy methods

soen6441riskgame.models.strategies.RandomStrategy ..> soen6441riskgame.models.Country

interface "<b><size:14>Strategy</b>\n<size:10>soen6441riskgame.models.strategies" as soen6441riskgame.models.strategies.Strategy  [[../../soen6441riskgame/models/strategies/Strategy.html{soen6441riskgame.models.strategies.Strategy}]] #white {
}

hide soen6441riskgame.models.strategies.Strategy fields
hide soen6441riskgame.models.strategies.Strategy methods

soen6441riskgame.models.strategies.Strategy ..> soen6441riskgame.models.Country

class "<b><size:14>GameBoardMap</b>\n<size:10>soen6441riskgame.singleton" as soen6441riskgame.singleton.GameBoardMap  [[../../soen6441riskgame/singleton/GameBoardMap.html{soen6441riskgame.singleton.GameBoardMap}]] #white {
}

hide soen6441riskgame.singleton.GameBoardMap fields
hide soen6441riskgame.singleton.GameBoardMap methods

soen6441riskgame.singleton.GameBoardMap ..> soen6441riskgame.models.Country

class "<b><size:14>GameBoardPlaying</b>\n<size:10>soen6441riskgame.singleton" as soen6441riskgame.singleton.GameBoardPlaying  [[../../soen6441riskgame/singleton/GameBoardPlaying.html{soen6441riskgame.singleton.GameBoardPlaying}]] #white {
}

hide soen6441riskgame.singleton.GameBoardPlaying fields
hide soen6441riskgame.singleton.GameBoardPlaying methods

soen6441riskgame.singleton.GameBoardPlaying - ->  "attackingCountry" soen6441riskgame.models.Country

soen6441riskgame.singleton.GameBoardPlaying - ->  "defendingCountry" soen6441riskgame.models.Country

class "<b><size:14>GameHelper</b>\n<size:10>soen6441riskgame.utils" as soen6441riskgame.utils.GameHelper  [[../../soen6441riskgame/utils/GameHelper.html{soen6441riskgame.utils.GameHelper}]] #white {
}

hide soen6441riskgame.utils.GameHelper fields
hide soen6441riskgame.utils.GameHelper methods

soen6441riskgame.utils.GameHelper ..> soen6441riskgame.models.Country

class "<b><size:14>GraphChecker</b>\n<size:10>soen6441riskgame.utils" as soen6441riskgame.utils.GraphChecker  [[../../soen6441riskgame/utils/GraphChecker.html{soen6441riskgame.utils.GraphChecker}]] #white {
}

hide soen6441riskgame.utils.GraphChecker fields
hide soen6441riskgame.utils.GraphChecker methods

soen6441riskgame.utils.GraphChecker ..> soen6441riskgame.models.Country


@enduml

PlantUML version 1.2017.15(Mon Jul 03 12:45:34 EDT 2017)
(GPL source distribution)
Java Runtime: Java(TM) SE Runtime Environment
JVM: Java HotSpot(TM) 64-Bit Server VM
Java Version: 1.8.0_231-b11
Operating System: Windows 10
OS Version: 10.0
Default Encoding: Cp1252
Language: en
Country: US
--></g></svg>