<?xml version="1.0" encoding="UTF-8" standalone="no"?><svg xmlns="http://www.w3.org/2000/svg" xmlns:xlink="http://www.w3.org/1999/xlink" contentScriptType="application/ecmascript" contentStyleType="text/css" height="258px" preserveAspectRatio="none" style="width:427px;height:258px;" version="1.1" viewBox="0 0 427 258" width="427px" zoomAndPan="magnify"><defs><filter height="300%" id="f1s6bx7umkyzr9" width="300%" x="-1" y="-1"><feGaussianBlur result="blurOut" stdDeviation="2.0"/><feColorMatrix in="blurOut" result="blurOut2" type="matrix" values="0 0 0 0 0 0 0 0 0 0 0 0 0 0 0 0 0 0 .4 0"/><feOffset dx="4.0" dy="4.0" in="blurOut2" result="blurOut3"/><feBlend in="SourceGraphic" in2="blurOut3" mode="normal"/></filter></defs><g><!--class soen6441riskgame.models.ModelCommandsPair--><a target="_parent" xlink:actuate="onRequest" xlink:href="../../soen6441riskgame/models/ModelCommandsPair.html" xlink:show="new" xlink:title="soen6441riskgame.models.ModelCommandsPair" xlink:type="simple"><rect fill="#FEFECE" filter="url(#f1s6bx7umkyzr9)" height="139.2031" id="soen6441riskgame.models.ModelCommandsPair" style="stroke: #A80036; stroke-width: 1.5;" width="410" x="6" y="108"/><ellipse cx="132.75" cy="128.0938" fill="#ADD1B2" rx="11" ry="11" style="stroke: #A80036; stroke-width: 1.0;"/><path d="M135.5156,123.9688 Q135.6719,123.75 135.8594,123.6406 Q136.0469,123.5313 136.2656,123.5313 Q136.6406,123.5313 136.875,123.7891 Q137.1094,124.0469 137.1094,124.6563 L137.1094,126.1094 Q137.1094,126.7188 136.875,126.9844 Q136.6406,127.25 136.2656,127.25 Q135.9219,127.25 135.7188,127.0469 Q135.5156,126.8594 135.4063,126.3438 Q135.3594,125.9844 135.1719,125.7969 Q134.8438,125.4219 134.2344,125.2031 Q133.625,124.9844 133,124.9844 Q132.2344,124.9844 131.6016,125.3125 Q130.9688,125.6406 130.4766,126.3906 Q129.9844,127.1406 129.9844,128.1719 L129.9844,129.2656 Q129.9844,130.5 130.875,131.3203 Q131.7656,132.1406 133.3594,132.1406 Q134.2969,132.1406 134.9531,131.8906 Q135.3438,131.7344 135.7656,131.2969 Q136.0313,131.0313 136.1797,130.9531 Q136.3281,130.875 136.5313,130.875 Q136.8594,130.875 137.1172,131.1328 Q137.375,131.3906 137.375,131.7344 Q137.375,132.0781 137.0313,132.4844 Q136.5313,133.0625 135.7344,133.3906 Q134.6563,133.8438 133.3594,133.8438 Q131.8438,133.8438 130.6406,133.2188 Q129.6563,132.7188 128.9688,131.6484 Q128.2813,130.5781 128.2813,129.2969 L128.2813,128.1406 Q128.2813,126.8125 128.8984,125.6641 Q129.5156,124.5156 130.6094,123.8984 Q131.7031,123.2813 132.9375,123.2813 Q133.6719,123.2813 134.3203,123.4453 Q134.9688,123.6094 135.5156,123.9688 Z "/><text fill="#000000" font-family="sans-serif" font-size="14" font-weight="bold" lengthAdjust="spacingAndGlyphs" textLength="148" x="153.25" y="127.5332">ModelCommandsPair</text><text fill="#000000" font-family="sans-serif" font-size="10" lengthAdjust="spacingAndGlyphs" textLength="124" x="165.25" y="140.9902">soen6441riskgame.models</text><line style="stroke: #A80036; stroke-width: 1.5;" x1="7" x2="415" y1="148.1875" y2="148.1875"/><ellipse cx="17" cy="160.6055" fill="none" rx="3" ry="3" style="stroke: #038048; stroke-width: 1.0;"/><text fill="#000000" font-family="sans-serif" font-size="11" lengthAdjust="spacingAndGlyphs" textLength="61" x="26" y="163.6064">String param</text><ellipse cx="17" cy="174.4414" fill="none" rx="3" ry="3" style="stroke: #038048; stroke-width: 1.0;"/><text fill="#000000" font-family="sans-serif" font-size="11" lengthAdjust="spacingAndGlyphs" textLength="63" x="26" y="177.4424">String value1</text><ellipse cx="17" cy="188.2773" fill="none" rx="3" ry="3" style="stroke: #038048; stroke-width: 1.0;"/><text fill="#000000" font-family="sans-serif" font-size="11" lengthAdjust="spacingAndGlyphs" textLength="63" x="26" y="191.2783">String value2</text><line style="stroke: #A80036; stroke-width: 1.5;" x1="7" x2="415" y1="197.6953" y2="197.6953"/><ellipse cx="17" cy="210.1133" fill="#84BE84" rx="3" ry="3" style="stroke: #038048; stroke-width: 1.0;"/><text fill="#000000" font-family="sans-serif" font-size="11" lengthAdjust="spacingAndGlyphs" textLength="384" x="26" y="213.1143">ModelCommandsPair(String new_param,String new_value1,String new_value2)</text><ellipse cx="17" cy="223.9492" fill="#84BE84" rx="3" ry="3" style="stroke: #038048; stroke-width: 1.0;"/><text fill="#000000" font-family="sans-serif" font-size="11" lengthAdjust="spacingAndGlyphs" textLength="290" x="26" y="226.9502">ModelCommandsPair(String new_param,String new_value1)</text><ellipse cx="17" cy="237.7852" fill="#84BE84" rx="3" ry="3" style="stroke: #038048; stroke-width: 1.0;"/><text fill="#000000" font-family="sans-serif" font-size="11" lengthAdjust="spacingAndGlyphs" textLength="104" x="26" y="240.7861">String toStringArray()</text></a><!--class soen6441riskgame.models.ModelCommands--><a target="_parent" xlink:actuate="onRequest" xlink:href="../../soen6441riskgame/models/ModelCommands.html" xlink:show="new" xlink:title="soen6441riskgame.models.ModelCommands" xlink:type="simple"><rect fill="#FEFECE" filter="url(#f1s6bx7umkyzr9)" height="40.1875" id="soen6441riskgame.models.ModelCommands" style="stroke: #A80036; stroke-width: 1.5;" width="156" x="133" y="8"/><ellipse cx="148" cy="28.0938" fill="#ADD1B2" rx="11" ry="11" style="stroke: #A80036; stroke-width: 1.0;"/><path d="M150.7656,23.9688 Q150.9219,23.75 151.1094,23.6406 Q151.2969,23.5313 151.5156,23.5313 Q151.8906,23.5313 152.125,23.7891 Q152.3594,24.0469 152.3594,24.6563 L152.3594,26.1094 Q152.3594,26.7188 152.125,26.9844 Q151.8906,27.25 151.5156,27.25 Q151.1719,27.25 150.9688,27.0469 Q150.7656,26.8594 150.6563,26.3438 Q150.6094,25.9844 150.4219,25.7969 Q150.0938,25.4219 149.4844,25.2031 Q148.875,24.9844 148.25,24.9844 Q147.4844,24.9844 146.8516,25.3125 Q146.2188,25.6406 145.7266,26.3906 Q145.2344,27.1406 145.2344,28.1719 L145.2344,29.2656 Q145.2344,30.5 146.125,31.3203 Q147.0156,32.1406 148.6094,32.1406 Q149.5469,32.1406 150.2031,31.8906 Q150.5938,31.7344 151.0156,31.2969 Q151.2813,31.0313 151.4297,30.9531 Q151.5781,30.875 151.7813,30.875 Q152.1094,30.875 152.3672,31.1328 Q152.625,31.3906 152.625,31.7344 Q152.625,32.0781 152.2813,32.4844 Q151.7813,33.0625 150.9844,33.3906 Q149.9063,33.8438 148.6094,33.8438 Q147.0938,33.8438 145.8906,33.2188 Q144.9063,32.7188 144.2188,31.6484 Q143.5313,30.5781 143.5313,29.2969 L143.5313,28.1406 Q143.5313,26.8125 144.1484,25.6641 Q144.7656,24.5156 145.8594,23.8984 Q146.9531,23.2813 148.1875,23.2813 Q148.9219,23.2813 149.5703,23.4453 Q150.2188,23.6094 150.7656,23.9688 Z "/><text fill="#000000" font-family="sans-serif" font-size="14" font-weight="bold" lengthAdjust="spacingAndGlyphs" textLength="121" x="163.5" y="27.5332">ModelCommands</text><text fill="#000000" font-family="sans-serif" font-size="10" lengthAdjust="spacingAndGlyphs" textLength="124" x="162" y="40.9902">soen6441riskgame.models</text></a><!--link soen6441riskgame.models.ModelCommands to soen6441riskgame.models.ModelCommandsPair--><path d="M211,48.162 C211,48.162 211,102.691 211,102.691 " fill="none" id="soen6441riskgame.models.ModelCommands-soen6441riskgame.models.ModelCommandsPair" style="stroke: #A80036; stroke-width: 1.0;"/><polygon fill="#A80036" points="211,107.691,215,98.691,211,102.691,207,98.691,211,107.691" style="stroke: #A80036; stroke-width: 1.0;"/><text fill="#000000" font-family="sans-serif" font-size="13" lengthAdjust="spacingAndGlyphs" textLength="74" x="133.1844" y="97.1697">subRoutine *</text><!--
@startuml

skinparam svgLinkTarget _parent
skinparam linetype ortho
set namespaceSeparator none
class "<b><size:14>ModelCommandsPair</b>\n<size:10>soen6441riskgame.models" as soen6441riskgame.models.ModelCommandsPair  [[../../soen6441riskgame/models/ModelCommandsPair.html{soen6441riskgame.models.ModelCommandsPair}]] {
+String param
+String value1
+String value2
+ModelCommandsPair(String new_param,String new_value1,String new_value2)
+ModelCommandsPair(String new_param,String new_value1)
+String toStringArray()
}


class "<b><size:14>ModelCommands</b>\n<size:10>soen6441riskgame.models" as soen6441riskgame.models.ModelCommands  [[../../soen6441riskgame/models/ModelCommands.html{soen6441riskgame.models.ModelCommands}]] {
}

hide soen6441riskgame.models.ModelCommands fields
hide soen6441riskgame.models.ModelCommands methods

soen6441riskgame.models.ModelCommands - ->  "subRoutine *" soen6441riskgame.models.ModelCommandsPair


@enduml

PlantUML version 1.2017.15(Mon Jul 03 12:45:34 EDT 2017)
(GPL source distribution)
Java Runtime: Java(TM) SE Runtime Environment
JVM: Java HotSpot(TM) 64-Bit Server VM
Java Version: 1.8.0_231-b11
Operating System: Windows 10
OS Version: 10.0
Default Encoding: Cp1252
Language: en
Country: US
--></g></svg>