<?xml version="1.0" encoding="UTF-8" standalone="no"?><svg xmlns="http://www.w3.org/2000/svg" xmlns:xlink="http://www.w3.org/1999/xlink" contentScriptType="application/ecmascript" contentStyleType="text/css" height="258px" preserveAspectRatio="none" style="width:413px;height:258px;" version="1.1" viewBox="0 0 413 258" width="413px" zoomAndPan="magnify"><defs><filter height="300%" id="fe5mvy6cwihjq" width="300%" x="-1" y="-1"><feGaussianBlur result="blurOut" stdDeviation="2.0"/><feColorMatrix in="blurOut" result="blurOut2" type="matrix" values="0 0 0 0 0 0 0 0 0 0 0 0 0 0 0 0 0 0 .4 0"/><feOffset dx="4.0" dy="4.0" in="blurOut2" result="blurOut3"/><feBlend in="SourceGraphic" in2="blurOut3" mode="normal"/></filter></defs><g><!--class soen6441riskgame.models.ModelCommandsPair--><a target="_parent" xlink:actuate="onRequest" xlink:href="../../soen6441riskgame/models/ModelCommandsPair.html" xlink:show="new" xlink:title="soen6441riskgame.models.ModelCommandsPair" xlink:type="simple"><rect fill="#FEFECE" filter="url(#fe5mvy6cwihjq)" height="139.2031" id="soen6441riskgame.models.ModelCommandsPair" style="stroke: #A80036; stroke-width: 1.5;" width="396" x="6" y="108"/><ellipse cx="125.75" cy="128.0938" fill="#ADD1B2" rx="11" ry="11" style="stroke: #A80036; stroke-width: 1.0;"/><path d="M128.5156,123.9688 Q128.6719,123.75 128.8594,123.6406 Q129.0469,123.5313 129.2656,123.5313 Q129.6406,123.5313 129.875,123.7891 Q130.1094,124.0469 130.1094,124.6563 L130.1094,126.1094 Q130.1094,126.7188 129.875,126.9844 Q129.6406,127.25 129.2656,127.25 Q128.9219,127.25 128.7188,127.0469 Q128.5156,126.8594 128.4063,126.3438 Q128.3594,125.9844 128.1719,125.7969 Q127.8438,125.4219 127.2344,125.2031 Q126.625,124.9844 126,124.9844 Q125.2344,124.9844 124.6016,125.3125 Q123.9688,125.6406 123.4766,126.3906 Q122.9844,127.1406 122.9844,128.1719 L122.9844,129.2656 Q122.9844,130.5 123.875,131.3203 Q124.7656,132.1406 126.3594,132.1406 Q127.2969,132.1406 127.9531,131.8906 Q128.3438,131.7344 128.7656,131.2969 Q129.0313,131.0313 129.1797,130.9531 Q129.3281,130.875 129.5313,130.875 Q129.8594,130.875 130.1172,131.1328 Q130.375,131.3906 130.375,131.7344 Q130.375,132.0781 130.0313,132.4844 Q129.5313,133.0625 128.7344,133.3906 Q127.6563,133.8438 126.3594,133.8438 Q124.8438,133.8438 123.6406,133.2188 Q122.6563,132.7188 121.9688,131.6484 Q121.2813,130.5781 121.2813,129.2969 L121.2813,128.1406 Q121.2813,126.8125 121.8984,125.6641 Q122.5156,124.5156 123.6094,123.8984 Q124.7031,123.2813 125.9375,123.2813 Q126.6719,123.2813 127.3203,123.4453 Q127.9688,123.6094 128.5156,123.9688 Z "/><text fill="#000000" font-family="sans-serif" font-size="14" font-weight="bold" lengthAdjust="spacingAndGlyphs" textLength="148" x="146.25" y="127.5332">ModelCommandsPair</text><text fill="#000000" font-family="sans-serif" font-size="10" lengthAdjust="spacingAndGlyphs" textLength="124" x="158.25" y="140.9902">soen6441riskgame.models</text><line style="stroke: #A80036; stroke-width: 1.5;" x1="7" x2="401" y1="148.1875" y2="148.1875"/><ellipse cx="17" cy="160.6055" fill="none" rx="3" ry="3" style="stroke: #038048; stroke-width: 1.0;"/><text fill="#000000" font-family="sans-serif" font-size="11" lengthAdjust="spacingAndGlyphs" textLength="61" x="26" y="163.6064">String param</text><ellipse cx="17" cy="174.4414" fill="none" rx="3" ry="3" style="stroke: #038048; stroke-width: 1.0;"/><text fill="#000000" font-family="sans-serif" font-size="11" lengthAdjust="spacingAndGlyphs" textLength="63" x="26" y="177.4424">String value1</text><ellipse cx="17" cy="188.2773" fill="none" rx="3" ry="3" style="stroke: #038048; stroke-width: 1.0;"/><text fill="#000000" font-family="sans-serif" font-size="11" lengthAdjust="spacingAndGlyphs" textLength="63" x="26" y="191.2783">String value2</text><line style="stroke: #A80036; stroke-width: 1.5;" x1="7" x2="401" y1="197.6953" y2="197.6953"/><ellipse cx="17" cy="210.1133" fill="#84BE84" rx="3" ry="3" style="stroke: #038048; stroke-width: 1.0;"/><text fill="#000000" font-family="sans-serif" font-size="11" lengthAdjust="spacingAndGlyphs" textLength="370" x="26" y="213.1143">ModelCommandsPair(String newParam,String newValue1,String newValue2)</text><ellipse cx="17" cy="223.9492" fill="#84BE84" rx="3" ry="3" style="stroke: #038048; stroke-width: 1.0;"/><text fill="#000000" font-family="sans-serif" font-size="11" lengthAdjust="spacingAndGlyphs" textLength="280" x="26" y="226.9502">ModelCommandsPair(String newParam,String newValue1)</text><ellipse cx="17" cy="237.7852" fill="#84BE84" rx="3" ry="3" style="stroke: #038048; stroke-width: 1.0;"/><text fill="#000000" font-family="sans-serif" font-size="11" lengthAdjust="spacingAndGlyphs" textLength="104" x="26" y="240.7861">String toStringArray()</text></a><!--class soen6441riskgame.models.ModelCommands--><a target="_parent" xlink:actuate="onRequest" xlink:href="../../soen6441riskgame/models/ModelCommands.html" xlink:show="new" xlink:title="soen6441riskgame.models.ModelCommands" xlink:type="simple"><rect fill="#FEFECE" filter="url(#fe5mvy6cwihjq)" height="40.1875" id="soen6441riskgame.models.ModelCommands" style="stroke: #A80036; stroke-width: 1.5;" width="156" x="126" y="8"/><ellipse cx="141" cy="28.0938" fill="#ADD1B2" rx="11" ry="11" style="stroke: #A80036; stroke-width: 1.0;"/><path d="M143.7656,23.9688 Q143.9219,23.75 144.1094,23.6406 Q144.2969,23.5313 144.5156,23.5313 Q144.8906,23.5313 145.125,23.7891 Q145.3594,24.0469 145.3594,24.6563 L145.3594,26.1094 Q145.3594,26.7188 145.125,26.9844 Q144.8906,27.25 144.5156,27.25 Q144.1719,27.25 143.9688,27.0469 Q143.7656,26.8594 143.6563,26.3438 Q143.6094,25.9844 143.4219,25.7969 Q143.0938,25.4219 142.4844,25.2031 Q141.875,24.9844 141.25,24.9844 Q140.4844,24.9844 139.8516,25.3125 Q139.2188,25.6406 138.7266,26.3906 Q138.2344,27.1406 138.2344,28.1719 L138.2344,29.2656 Q138.2344,30.5 139.125,31.3203 Q140.0156,32.1406 141.6094,32.1406 Q142.5469,32.1406 143.2031,31.8906 Q143.5938,31.7344 144.0156,31.2969 Q144.2813,31.0313 144.4297,30.9531 Q144.5781,30.875 144.7813,30.875 Q145.1094,30.875 145.3672,31.1328 Q145.625,31.3906 145.625,31.7344 Q145.625,32.0781 145.2813,32.4844 Q144.7813,33.0625 143.9844,33.3906 Q142.9063,33.8438 141.6094,33.8438 Q140.0938,33.8438 138.8906,33.2188 Q137.9063,32.7188 137.2188,31.6484 Q136.5313,30.5781 136.5313,29.2969 L136.5313,28.1406 Q136.5313,26.8125 137.1484,25.6641 Q137.7656,24.5156 138.8594,23.8984 Q139.9531,23.2813 141.1875,23.2813 Q141.9219,23.2813 142.5703,23.4453 Q143.2188,23.6094 143.7656,23.9688 Z "/><text fill="#000000" font-family="sans-serif" font-size="14" font-weight="bold" lengthAdjust="spacingAndGlyphs" textLength="121" x="156.5" y="27.5332">ModelCommands</text><text fill="#000000" font-family="sans-serif" font-size="10" lengthAdjust="spacingAndGlyphs" textLength="124" x="155" y="40.9902">soen6441riskgame.models</text></a><!--link soen6441riskgame.models.ModelCommands to soen6441riskgame.models.ModelCommandsPair--><path d="M204,48.162 C204,48.162 204,102.691 204,102.691 " fill="none" id="soen6441riskgame.models.ModelCommands-soen6441riskgame.models.ModelCommandsPair" style="stroke: #A80036; stroke-width: 1.0;"/><polygon fill="#A80036" points="204,107.691,208,98.691,204,102.691,200,98.691,204,107.691" style="stroke: #A80036; stroke-width: 1.0;"/><text fill="#000000" font-family="sans-serif" font-size="13" lengthAdjust="spacingAndGlyphs" textLength="74" x="126.1844" y="97.1697">subRoutine *</text><!--
@startuml

skinparam svgLinkTarget _parent
skinparam linetype ortho
set namespaceSeparator none
class "<b><size:14>ModelCommandsPair</b>\n<size:10>soen6441riskgame.models" as soen6441riskgame.models.ModelCommandsPair  [[../../soen6441riskgame/models/ModelCommandsPair.html{soen6441riskgame.models.ModelCommandsPair}]] {
+String param
+String value1
+String value2
+ModelCommandsPair(String newParam,String newValue1,String newValue2)
+ModelCommandsPair(String newParam,String newValue1)
+String toStringArray()
}


class "<b><size:14>ModelCommands</b>\n<size:10>soen6441riskgame.models" as soen6441riskgame.models.ModelCommands  [[../../soen6441riskgame/models/ModelCommands.html{soen6441riskgame.models.ModelCommands}]] {
}

hide soen6441riskgame.models.ModelCommands fields
hide soen6441riskgame.models.ModelCommands methods

soen6441riskgame.models.ModelCommands - ->  "subRoutine *" soen6441riskgame.models.ModelCommandsPair


@enduml

PlantUML version 1.2017.15(Mon Jul 03 12:45:34 EDT 2017)
(GPL source distribution)
Java Runtime: Java(TM) SE Runtime Environment
JVM: Java HotSpot(TM) 64-Bit Server VM
Java Version: 1.8.0_231-b11
Operating System: Windows 10
OS Version: 10.0
Default Encoding: Cp1252
Language: en
Country: US
--></g></svg>