<?xml version="1.0" encoding="UTF-8" standalone="no"?><svg xmlns="http://www.w3.org/2000/svg" xmlns:xlink="http://www.w3.org/1999/xlink" contentScriptType="application/ecmascript" contentStyleType="text/css" height="386px" preserveAspectRatio="none" style="width:413px;height:386px;" version="1.1" viewBox="0 0 413 386" width="413px" zoomAndPan="magnify"><defs><filter height="300%" id="f1a8tpxn1j3c5f" width="300%" x="-1" y="-1"><feGaussianBlur result="blurOut" stdDeviation="2.0"/><feColorMatrix in="blurOut" result="blurOut2" type="matrix" values="0 0 0 0 0 0 0 0 0 0 0 0 0 0 0 0 0 0 .4 0"/><feOffset dx="4.0" dy="4.0" in="blurOut2" result="blurOut3"/><feBlend in="SourceGraphic" in2="blurOut3" mode="normal"/></filter></defs><g><!--class soen6441riskgame.models.ModelCommands--><a target="_parent" xlink:actuate="onRequest" xlink:href="../../soen6441riskgame/models/ModelCommands.html" xlink:show="new" xlink:title="soen6441riskgame.models.ModelCommands" xlink:type="simple"><rect fill="#FEFECE" filter="url(#f1a8tpxn1j3c5f)" height="166.875" id="soen6441riskgame.models.ModelCommands" style="stroke: #A80036; stroke-width: 1.5;" width="396" x="6" y="108"/><ellipse cx="137.75" cy="128.0938" fill="#ADD1B2" rx="11" ry="11" style="stroke: #A80036; stroke-width: 1.0;"/><path d="M140.5156,123.9688 Q140.6719,123.75 140.8594,123.6406 Q141.0469,123.5313 141.2656,123.5313 Q141.6406,123.5313 141.875,123.7891 Q142.1094,124.0469 142.1094,124.6563 L142.1094,126.1094 Q142.1094,126.7188 141.875,126.9844 Q141.6406,127.25 141.2656,127.25 Q140.9219,127.25 140.7188,127.0469 Q140.5156,126.8594 140.4063,126.3438 Q140.3594,125.9844 140.1719,125.7969 Q139.8438,125.4219 139.2344,125.2031 Q138.625,124.9844 138,124.9844 Q137.2344,124.9844 136.6016,125.3125 Q135.9688,125.6406 135.4766,126.3906 Q134.9844,127.1406 134.9844,128.1719 L134.9844,129.2656 Q134.9844,130.5 135.875,131.3203 Q136.7656,132.1406 138.3594,132.1406 Q139.2969,132.1406 139.9531,131.8906 Q140.3438,131.7344 140.7656,131.2969 Q141.0313,131.0313 141.1797,130.9531 Q141.3281,130.875 141.5313,130.875 Q141.8594,130.875 142.1172,131.1328 Q142.375,131.3906 142.375,131.7344 Q142.375,132.0781 142.0313,132.4844 Q141.5313,133.0625 140.7344,133.3906 Q139.6563,133.8438 138.3594,133.8438 Q136.8438,133.8438 135.6406,133.2188 Q134.6563,132.7188 133.9688,131.6484 Q133.2813,130.5781 133.2813,129.2969 L133.2813,128.1406 Q133.2813,126.8125 133.8984,125.6641 Q134.5156,124.5156 135.6094,123.8984 Q136.7031,123.2813 137.9375,123.2813 Q138.6719,123.2813 139.3203,123.4453 Q139.9688,123.6094 140.5156,123.9688 Z "/><text fill="#000000" font-family="sans-serif" font-size="14" font-weight="bold" lengthAdjust="spacingAndGlyphs" textLength="121" x="159.75" y="127.5332">ModelCommands</text><text fill="#000000" font-family="sans-serif" font-size="10" lengthAdjust="spacingAndGlyphs" textLength="124" x="158.25" y="140.9902">soen6441riskgame.models</text><line style="stroke: #A80036; stroke-width: 1.5;" x1="7" x2="401" y1="148.1875" y2="148.1875"/><ellipse cx="17" cy="160.6055" fill="none" rx="3" ry="3" style="stroke: #038048; stroke-width: 1.0;"/><text fill="#000000" font-family="sans-serif" font-size="11" lengthAdjust="spacingAndGlyphs" textLength="51" x="26" y="163.6064">String cmd</text><ellipse cx="17" cy="174.4414" fill="none" rx="3" ry="3" style="stroke: #038048; stroke-width: 1.0;"/><text fill="#000000" font-family="sans-serif" font-size="11" lengthAdjust="spacingAndGlyphs" textLength="147" x="26" y="177.4424">List&lt;String&gt; regularCommands</text><ellipse cx="17" cy="188.2773" fill="none" rx="3" ry="3" style="stroke: #038048; stroke-width: 1.0;"/><text fill="#000000" font-family="sans-serif" font-size="11" lengthAdjust="spacingAndGlyphs" textLength="185" x="26" y="191.2783">List&lt;ModelCommandsPair&gt; subRoutine</text><line style="stroke: #A80036; stroke-width: 1.5;" x1="7" x2="401" y1="197.6953" y2="197.6953"/><ellipse cx="17" cy="210.1133" fill="#84BE84" rx="3" ry="3" style="stroke: #038048; stroke-width: 1.0;"/><text fill="#000000" font-family="sans-serif" font-size="11" lengthAdjust="spacingAndGlyphs" textLength="166" x="26" y="213.1143">ModelCommands(String newArgs)</text><rect fill="#F24D5C" height="6" style="stroke: #C82930; stroke-width: 1.0;" width="6" x="14" y="220.9492"/><text fill="#000000" font-family="sans-serif" font-size="11" lengthAdjust="spacingAndGlyphs" textLength="125" x="26" y="226.9502">void init(String new_args)</text><rect fill="#F24D5C" height="6" style="stroke: #C82930; stroke-width: 1.0;" width="6" x="14" y="234.7852"/><text fill="#000000" font-family="sans-serif" font-size="11" lengthAdjust="spacingAndGlyphs" textLength="370" x="26" y="240.7861">void populateRegularCommandsOrSubRoutines(String paramsArray,String s)</text><rect fill="#F24D5C" height="6" style="stroke: #C82930; stroke-width: 1.0;" width="6" x="14" y="248.6211"/><text fill="#000000" font-family="sans-serif" font-size="11" lengthAdjust="spacingAndGlyphs" textLength="181" x="26" y="254.6221">void buildSubRoutines(String params)</text><rect fill="#F24D5C" height="6" style="stroke: #C82930; stroke-width: 1.0;" width="6" x="14" y="262.457"/><text fill="#000000" font-family="sans-serif" font-size="11" lengthAdjust="spacingAndGlyphs" textLength="308" x="26" y="268.458">void buildRegularCommands(String paramsArray,String params)</text></a><!--class soen6441riskgame.App--><a target="_parent" xlink:actuate="onRequest" xlink:href="../../soen6441riskgame/App.html" xlink:show="new" xlink:title="soen6441riskgame.App" xlink:type="simple"><rect fill="#FFFFFF" filter="url(#f1a8tpxn1j3c5f)" height="40.1875" id="soen6441riskgame.App" style="stroke: #A80036; stroke-width: 1.5;" width="119" x="144.5" y="8"/><rect fill="#FFFFFF" height="40.1875" style="stroke: #A80036; stroke-width: 1.5;" width="119" x="144.5" y="8"/><ellipse cx="159.5" cy="28.0938" fill="#ADD1B2" rx="11" ry="11" style="stroke: #A80036; stroke-width: 1.0;"/><path d="M162.2656,23.9688 Q162.4219,23.75 162.6094,23.6406 Q162.7969,23.5313 163.0156,23.5313 Q163.3906,23.5313 163.625,23.7891 Q163.8594,24.0469 163.8594,24.6563 L163.8594,26.1094 Q163.8594,26.7188 163.625,26.9844 Q163.3906,27.25 163.0156,27.25 Q162.6719,27.25 162.4688,27.0469 Q162.2656,26.8594 162.1563,26.3438 Q162.1094,25.9844 161.9219,25.7969 Q161.5938,25.4219 160.9844,25.2031 Q160.375,24.9844 159.75,24.9844 Q158.9844,24.9844 158.3516,25.3125 Q157.7188,25.6406 157.2266,26.3906 Q156.7344,27.1406 156.7344,28.1719 L156.7344,29.2656 Q156.7344,30.5 157.625,31.3203 Q158.5156,32.1406 160.1094,32.1406 Q161.0469,32.1406 161.7031,31.8906 Q162.0938,31.7344 162.5156,31.2969 Q162.7813,31.0313 162.9297,30.9531 Q163.0781,30.875 163.2813,30.875 Q163.6094,30.875 163.8672,31.1328 Q164.125,31.3906 164.125,31.7344 Q164.125,32.0781 163.7813,32.4844 Q163.2813,33.0625 162.4844,33.3906 Q161.4063,33.8438 160.1094,33.8438 Q158.5938,33.8438 157.3906,33.2188 Q156.4063,32.7188 155.7188,31.6484 Q155.0313,30.5781 155.0313,29.2969 L155.0313,28.1406 Q155.0313,26.8125 155.6484,25.6641 Q156.2656,24.5156 157.3594,23.8984 Q158.4531,23.2813 159.6875,23.2813 Q160.4219,23.2813 161.0703,23.4453 Q161.7188,23.6094 162.2656,23.9688 Z "/><text fill="#000000" font-family="sans-serif" font-size="14" font-weight="bold" lengthAdjust="spacingAndGlyphs" textLength="27" x="203.5" y="27.5332">App</text><text fill="#000000" font-family="sans-serif" font-size="10" lengthAdjust="spacingAndGlyphs" textLength="87" x="173.5" y="40.9902">soen6441riskgame</text></a><!--class soen6441riskgame.models.ModelCommandsPair--><a target="_parent" xlink:actuate="onRequest" xlink:href="../../soen6441riskgame/models/ModelCommandsPair.html" xlink:show="new" xlink:title="soen6441riskgame.models.ModelCommandsPair" xlink:type="simple"><rect fill="#FEFECE" filter="url(#f1a8tpxn1j3c5f)" height="40.1875" id="soen6441riskgame.models.ModelCommandsPair" style="stroke: #A80036; stroke-width: 1.5;" width="180" x="114" y="335"/><ellipse cx="129" cy="355.0938" fill="#ADD1B2" rx="11" ry="11" style="stroke: #A80036; stroke-width: 1.0;"/><path d="M131.7656,350.9688 Q131.9219,350.75 132.1094,350.6406 Q132.2969,350.5313 132.5156,350.5313 Q132.8906,350.5313 133.125,350.7891 Q133.3594,351.0469 133.3594,351.6563 L133.3594,353.1094 Q133.3594,353.7188 133.125,353.9844 Q132.8906,354.25 132.5156,354.25 Q132.1719,354.25 131.9688,354.0469 Q131.7656,353.8594 131.6563,353.3438 Q131.6094,352.9844 131.4219,352.7969 Q131.0938,352.4219 130.4844,352.2031 Q129.875,351.9844 129.25,351.9844 Q128.4844,351.9844 127.8516,352.3125 Q127.2188,352.6406 126.7266,353.3906 Q126.2344,354.1406 126.2344,355.1719 L126.2344,356.2656 Q126.2344,357.5 127.125,358.3203 Q128.0156,359.1406 129.6094,359.1406 Q130.5469,359.1406 131.2031,358.8906 Q131.5938,358.7344 132.0156,358.2969 Q132.2813,358.0313 132.4297,357.9531 Q132.5781,357.875 132.7813,357.875 Q133.1094,357.875 133.3672,358.1328 Q133.625,358.3906 133.625,358.7344 Q133.625,359.0781 133.2813,359.4844 Q132.7813,360.0625 131.9844,360.3906 Q130.9063,360.8438 129.6094,360.8438 Q128.0938,360.8438 126.8906,360.2188 Q125.9063,359.7188 125.2188,358.6484 Q124.5313,357.5781 124.5313,356.2969 L124.5313,355.1406 Q124.5313,353.8125 125.1484,352.6641 Q125.7656,351.5156 126.8594,350.8984 Q127.9531,350.2813 129.1875,350.2813 Q129.9219,350.2813 130.5703,350.4453 Q131.2188,350.6094 131.7656,350.9688 Z "/><text fill="#000000" font-family="sans-serif" font-size="14" font-weight="bold" lengthAdjust="spacingAndGlyphs" textLength="148" x="143" y="354.5332">ModelCommandsPair</text><text fill="#000000" font-family="sans-serif" font-size="10" lengthAdjust="spacingAndGlyphs" textLength="124" x="155" y="367.9902">soen6441riskgame.models</text></a><!--link soen6441riskgame.App to soen6441riskgame.models.ModelCommands--><path d="M204,48.048 C204,48.048 204,102.759 204,102.759 " fill="none" id="soen6441riskgame.App-soen6441riskgame.models.ModelCommands" style="stroke: #A80036; stroke-width: 1.0; stroke-dasharray: 7.0,7.0;"/><polygon fill="#A80036" points="204,107.759,208,98.759,204,102.759,200,98.759,204,107.759" style="stroke: #A80036; stroke-width: 1.0;"/><!--link soen6441riskgame.models.ModelCommands to soen6441riskgame.models.ModelCommandsPair--><path d="M204,275.1659 C204,275.1659 204,329.88 204,329.88 " fill="none" id="soen6441riskgame.models.ModelCommands-soen6441riskgame.models.ModelCommandsPair" style="stroke: #A80036; stroke-width: 1.0;"/><polygon fill="#A80036" points="204,334.88,208,325.88,204,329.88,200,325.88,204,334.88" style="stroke: #A80036; stroke-width: 1.0;"/><text fill="#000000" font-family="sans-serif" font-size="13" lengthAdjust="spacingAndGlyphs" textLength="74" x="119.1313" y="324.139">subRoutine *</text><!--
@startuml

skinparam svgLinkTarget _parent
skinparam linetype ortho
set namespaceSeparator none
class "<b><size:14>ModelCommands</b>\n<size:10>soen6441riskgame.models" as soen6441riskgame.models.ModelCommands  [[../../soen6441riskgame/models/ModelCommands.html{soen6441riskgame.models.ModelCommands}]] {
+String cmd
+List<String> regularCommands
+List<ModelCommandsPair> subRoutine
+ModelCommands(String newArgs)
-void init(String new_args)
-void populateRegularCommandsOrSubRoutines(String paramsArray,String s)
-void buildSubRoutines(String params)
-void buildRegularCommands(String paramsArray,String params)
}


class "<b><size:14>App</b>\n<size:10>soen6441riskgame" as soen6441riskgame.App  [[../../soen6441riskgame/App.html{soen6441riskgame.App}]] #white {
}

hide soen6441riskgame.App fields
hide soen6441riskgame.App methods

soen6441riskgame.App ..> soen6441riskgame.models.ModelCommands



class "<b><size:14>ModelCommandsPair</b>\n<size:10>soen6441riskgame.models" as soen6441riskgame.models.ModelCommandsPair  [[../../soen6441riskgame/models/ModelCommandsPair.html{soen6441riskgame.models.ModelCommandsPair}]] {
}

hide soen6441riskgame.models.ModelCommandsPair fields
hide soen6441riskgame.models.ModelCommandsPair methods

soen6441riskgame.models.ModelCommands - ->  "subRoutine *" soen6441riskgame.models.ModelCommandsPair


@enduml

PlantUML version 1.2017.15(Mon Jul 03 12:45:34 EDT 2017)
(GPL source distribution)
Java Runtime: Java(TM) SE Runtime Environment
JVM: Java HotSpot(TM) 64-Bit Server VM
Java Version: 1.8.0_231-b11
Operating System: Windows 10
OS Version: 10.0
Default Encoding: Cp1252
Language: en
Country: US
--></g></svg>