<?xml version="1.0" encoding="UTF-8" standalone="no"?><svg xmlns="http://www.w3.org/2000/svg" xmlns:xlink="http://www.w3.org/1999/xlink" contentScriptType="application/ecmascript" contentStyleType="text/css" height="580px" preserveAspectRatio="none" style="width:1977px;height:580px;" version="1.1" viewBox="0 0 1977 580" width="1977px" zoomAndPan="magnify"><defs><filter height="300%" id="fa6pzkbzc4ztn" width="300%" x="-1" y="-1"><feGaussianBlur result="blurOut" stdDeviation="2.0"/><feColorMatrix in="blurOut" result="blurOut2" type="matrix" values="0 0 0 0 0 0 0 0 0 0 0 0 0 0 0 0 0 0 .4 0"/><feOffset dx="4.0" dy="4.0" in="blurOut2" result="blurOut3"/><feBlend in="SourceGraphic" in2="blurOut3" mode="normal"/></filter></defs><g><!--cluster soen6441riskgame.models--><a target="_parent" xlink:actuate="onRequest" xlink:href="../../soen6441riskgame/models/package-summary.html" xlink:show="new" xlink:title="soen6441riskgame.models" xlink:type="simple"><polygon fill="#FFFFE0" filter="url(#fa6pzkbzc4ztn)" points="1058,24,1250,24,1257,47.6094,1502,47.6094,1502,568,1058,568,1058,24" style="stroke: #000000; stroke-width: 2.0;"/><line style="stroke: #000000; stroke-width: 2.0;" x1="1058" x2="1257" y1="47.6094" y2="47.6094"/><text fill="#000000" font-family="sans-serif" font-size="14" font-weight="bold" lengthAdjust="spacingAndGlyphs" textLength="186" x="1062" y="40.5332">soen6441riskgame.models</text></a><!--cluster soen6441riskgame.models.commands--><a target="_parent" xlink:actuate="onRequest" xlink:href="../../soen6441riskgame/models/commands/package-summary.html" xlink:show="new" xlink:title="soen6441riskgame.models.commands" xlink:type="simple"><polygon fill="#FFFFFF" filter="url(#fa6pzkbzc4ztn)" points="22,24,293,24,300,47.6094,420,47.6094,420,200,22,200,22,24" style="stroke: #000000; stroke-width: 2.0;"/><line style="stroke: #000000; stroke-width: 2.0;" x1="22" x2="300" y1="47.6094" y2="47.6094"/><text fill="#000000" font-family="sans-serif" font-size="14" font-weight="bold" lengthAdjust="spacingAndGlyphs" textLength="265" x="26" y="40.5332">soen6441riskgame.models.commands</text></a><!--cluster soen6441riskgame.models.serializers--><a target="_parent" xlink:actuate="onRequest" xlink:href="../../soen6441riskgame/models/serializers/package-summary.html" xlink:show="new" xlink:title="soen6441riskgame.models.serializers" xlink:type="simple"><polygon fill="#FFFFFF" filter="url(#fa6pzkbzc4ztn)" points="1526,24,1795,24,1802,47.6094,1955,47.6094,1955,108,1526,108,1526,24" style="stroke: #000000; stroke-width: 2.0;"/><line style="stroke: #000000; stroke-width: 2.0;" x1="1526" x2="1802" y1="47.6094" y2="47.6094"/><text fill="#000000" font-family="sans-serif" font-size="14" font-weight="bold" lengthAdjust="spacingAndGlyphs" textLength="263" x="1530" y="40.5332">soen6441riskgame.models.serializers</text></a><!--cluster soen6441riskgame.models.strategies--><a target="_parent" xlink:actuate="onRequest" xlink:href="../../soen6441riskgame/models/strategies/package-summary.html" xlink:show="new" xlink:title="soen6441riskgame.models.strategies" xlink:type="simple"><polygon fill="#FFFFFF" filter="url(#fa6pzkbzc4ztn)" points="444,24,711,24,718,47.6094,1034,47.6094,1034,200,444,200,444,24" style="stroke: #000000; stroke-width: 2.0;"/><line style="stroke: #000000; stroke-width: 2.0;" x1="444" x2="718" y1="47.6094" y2="47.6094"/><text fill="#000000" font-family="sans-serif" font-size="14" font-weight="bold" lengthAdjust="spacingAndGlyphs" textLength="261" x="448" y="40.5332">soen6441riskgame.models.strategies</text></a><!--class soen6441riskgame.models.Boundary--><a target="_parent" xlink:actuate="onRequest" xlink:href="../../soen6441riskgame/models/Boundary.html" xlink:show="new" xlink:title="soen6441riskgame.models.Boundary" xlink:type="simple"><rect fill="#FEFECE" filter="url(#fa6pzkbzc4ztn)" height="32" id="soen6441riskgame.models.Boundary" style="stroke: #A80036; stroke-width: 1.5;" width="99" x="1386.5" y="60"/><ellipse cx="1401.5" cy="76" fill="#ADD1B2" rx="11" ry="11" style="stroke: #A80036; stroke-width: 1.0;"/><path d="M1404.2656,71.875 Q1404.4219,71.6563 1404.6094,71.5469 Q1404.7969,71.4375 1405.0156,71.4375 Q1405.3906,71.4375 1405.625,71.6953 Q1405.8594,71.9531 1405.8594,72.5625 L1405.8594,74.0156 Q1405.8594,74.625 1405.625,74.8906 Q1405.3906,75.1563 1405.0156,75.1563 Q1404.6719,75.1563 1404.4688,74.9531 Q1404.2656,74.7656 1404.1563,74.25 Q1404.1094,73.8906 1403.9219,73.7031 Q1403.5938,73.3281 1402.9844,73.1094 Q1402.375,72.8906 1401.75,72.8906 Q1400.9844,72.8906 1400.3516,73.2188 Q1399.7188,73.5469 1399.2266,74.2969 Q1398.7344,75.0469 1398.7344,76.0781 L1398.7344,77.1719 Q1398.7344,78.4063 1399.625,79.2266 Q1400.5156,80.0469 1402.1094,80.0469 Q1403.0469,80.0469 1403.7031,79.7969 Q1404.0938,79.6406 1404.5156,79.2031 Q1404.7813,78.9375 1404.9297,78.8594 Q1405.0781,78.7813 1405.2813,78.7813 Q1405.6094,78.7813 1405.8672,79.0391 Q1406.125,79.2969 1406.125,79.6406 Q1406.125,79.9844 1405.7813,80.3906 Q1405.2813,80.9688 1404.4844,81.2969 Q1403.4063,81.75 1402.1094,81.75 Q1400.5938,81.75 1399.3906,81.125 Q1398.4063,80.625 1397.7188,79.5547 Q1397.0313,78.4844 1397.0313,77.2031 L1397.0313,76.0469 Q1397.0313,74.7188 1397.6484,73.5703 Q1398.2656,72.4219 1399.3594,71.8047 Q1400.4531,71.1875 1401.6875,71.1875 Q1402.4219,71.1875 1403.0703,71.3516 Q1403.7188,71.5156 1404.2656,71.875 Z "/><text fill="#000000" font-family="sans-serif" font-size="14" font-weight="bold" lengthAdjust="spacingAndGlyphs" textLength="67" x="1415.5" y="81.7285">Boundary</text></a><!--class soen6441riskgame.models.Card--><a target="_parent" xlink:actuate="onRequest" xlink:href="../../soen6441riskgame/models/Card.html" xlink:show="new" xlink:title="soen6441riskgame.models.Card" xlink:type="simple"><rect fill="#FEFECE" filter="url(#fa6pzkbzc4ztn)" height="32" id="soen6441riskgame.models.Card" style="stroke: #A80036; stroke-width: 1.5;" width="65" x="1289.5" y="152"/><ellipse cx="1304.5" cy="168" fill="#ADD1B2" rx="11" ry="11" style="stroke: #A80036; stroke-width: 1.0;"/><path d="M1307.2656,163.875 Q1307.4219,163.6563 1307.6094,163.5469 Q1307.7969,163.4375 1308.0156,163.4375 Q1308.3906,163.4375 1308.625,163.6953 Q1308.8594,163.9531 1308.8594,164.5625 L1308.8594,166.0156 Q1308.8594,166.625 1308.625,166.8906 Q1308.3906,167.1563 1308.0156,167.1563 Q1307.6719,167.1563 1307.4688,166.9531 Q1307.2656,166.7656 1307.1563,166.25 Q1307.1094,165.8906 1306.9219,165.7031 Q1306.5938,165.3281 1305.9844,165.1094 Q1305.375,164.8906 1304.75,164.8906 Q1303.9844,164.8906 1303.3516,165.2188 Q1302.7188,165.5469 1302.2266,166.2969 Q1301.7344,167.0469 1301.7344,168.0781 L1301.7344,169.1719 Q1301.7344,170.4063 1302.625,171.2266 Q1303.5156,172.0469 1305.1094,172.0469 Q1306.0469,172.0469 1306.7031,171.7969 Q1307.0938,171.6406 1307.5156,171.2031 Q1307.7813,170.9375 1307.9297,170.8594 Q1308.0781,170.7813 1308.2813,170.7813 Q1308.6094,170.7813 1308.8672,171.0391 Q1309.125,171.2969 1309.125,171.6406 Q1309.125,171.9844 1308.7813,172.3906 Q1308.2813,172.9688 1307.4844,173.2969 Q1306.4063,173.75 1305.1094,173.75 Q1303.5938,173.75 1302.3906,173.125 Q1301.4063,172.625 1300.7188,171.5547 Q1300.0313,170.4844 1300.0313,169.2031 L1300.0313,168.0469 Q1300.0313,166.7188 1300.6484,165.5703 Q1301.2656,164.4219 1302.3594,163.8047 Q1303.4531,163.1875 1304.6875,163.1875 Q1305.4219,163.1875 1306.0703,163.3516 Q1306.7188,163.5156 1307.2656,163.875 Z "/><text fill="#000000" font-family="sans-serif" font-size="14" font-weight="bold" lengthAdjust="spacingAndGlyphs" textLength="33" x="1318.5" y="173.7285">Card</text></a><!--class soen6441riskgame.models.CardSet--><a target="_parent" xlink:actuate="onRequest" xlink:href="../../soen6441riskgame/models/CardSet.html" xlink:show="new" xlink:title="soen6441riskgame.models.CardSet" xlink:type="simple"><rect fill="#FEFECE" filter="url(#fa6pzkbzc4ztn)" height="32" id="soen6441riskgame.models.CardSet" style="stroke: #A80036; stroke-width: 1.5;" width="88" x="1263" y="60"/><ellipse cx="1278" cy="76" fill="#ADD1B2" rx="11" ry="11" style="stroke: #A80036; stroke-width: 1.0;"/><path d="M1280.7656,71.875 Q1280.9219,71.6563 1281.1094,71.5469 Q1281.2969,71.4375 1281.5156,71.4375 Q1281.8906,71.4375 1282.125,71.6953 Q1282.3594,71.9531 1282.3594,72.5625 L1282.3594,74.0156 Q1282.3594,74.625 1282.125,74.8906 Q1281.8906,75.1563 1281.5156,75.1563 Q1281.1719,75.1563 1280.9688,74.9531 Q1280.7656,74.7656 1280.6563,74.25 Q1280.6094,73.8906 1280.4219,73.7031 Q1280.0938,73.3281 1279.4844,73.1094 Q1278.875,72.8906 1278.25,72.8906 Q1277.4844,72.8906 1276.8516,73.2188 Q1276.2188,73.5469 1275.7266,74.2969 Q1275.2344,75.0469 1275.2344,76.0781 L1275.2344,77.1719 Q1275.2344,78.4063 1276.125,79.2266 Q1277.0156,80.0469 1278.6094,80.0469 Q1279.5469,80.0469 1280.2031,79.7969 Q1280.5938,79.6406 1281.0156,79.2031 Q1281.2813,78.9375 1281.4297,78.8594 Q1281.5781,78.7813 1281.7813,78.7813 Q1282.1094,78.7813 1282.3672,79.0391 Q1282.625,79.2969 1282.625,79.6406 Q1282.625,79.9844 1282.2813,80.3906 Q1281.7813,80.9688 1280.9844,81.2969 Q1279.9063,81.75 1278.6094,81.75 Q1277.0938,81.75 1275.8906,81.125 Q1274.9063,80.625 1274.2188,79.5547 Q1273.5313,78.4844 1273.5313,77.2031 L1273.5313,76.0469 Q1273.5313,74.7188 1274.1484,73.5703 Q1274.7656,72.4219 1275.8594,71.8047 Q1276.9531,71.1875 1278.1875,71.1875 Q1278.9219,71.1875 1279.5703,71.3516 Q1280.2188,71.5156 1280.7656,71.875 Z "/><text fill="#000000" font-family="sans-serif" font-size="14" font-weight="bold" lengthAdjust="spacingAndGlyphs" textLength="56" x="1292" y="81.7285">CardSet</text></a><!--class soen6441riskgame.models.Continent--><a target="_parent" xlink:actuate="onRequest" xlink:href="../../soen6441riskgame/models/Continent.html" xlink:show="new" xlink:title="soen6441riskgame.models.Continent" xlink:type="simple"><rect fill="#FEFECE" filter="url(#fa6pzkbzc4ztn)" height="32" id="soen6441riskgame.models.Continent" style="stroke: #A80036; stroke-width: 1.5;" width="101" x="1161.5" y="428"/><ellipse cx="1176.5" cy="444" fill="#ADD1B2" rx="11" ry="11" style="stroke: #A80036; stroke-width: 1.0;"/><path d="M1179.2656,439.875 Q1179.4219,439.6563 1179.6094,439.5469 Q1179.7969,439.4375 1180.0156,439.4375 Q1180.3906,439.4375 1180.625,439.6953 Q1180.8594,439.9531 1180.8594,440.5625 L1180.8594,442.0156 Q1180.8594,442.625 1180.625,442.8906 Q1180.3906,443.1563 1180.0156,443.1563 Q1179.6719,443.1563 1179.4688,442.9531 Q1179.2656,442.7656 1179.1563,442.25 Q1179.1094,441.8906 1178.9219,441.7031 Q1178.5938,441.3281 1177.9844,441.1094 Q1177.375,440.8906 1176.75,440.8906 Q1175.9844,440.8906 1175.3516,441.2188 Q1174.7188,441.5469 1174.2266,442.2969 Q1173.7344,443.0469 1173.7344,444.0781 L1173.7344,445.1719 Q1173.7344,446.4063 1174.625,447.2266 Q1175.5156,448.0469 1177.1094,448.0469 Q1178.0469,448.0469 1178.7031,447.7969 Q1179.0938,447.6406 1179.5156,447.2031 Q1179.7813,446.9375 1179.9297,446.8594 Q1180.0781,446.7813 1180.2813,446.7813 Q1180.6094,446.7813 1180.8672,447.0391 Q1181.125,447.2969 1181.125,447.6406 Q1181.125,447.9844 1180.7813,448.3906 Q1180.2813,448.9688 1179.4844,449.2969 Q1178.4063,449.75 1177.1094,449.75 Q1175.5938,449.75 1174.3906,449.125 Q1173.4063,448.625 1172.7188,447.5547 Q1172.0313,446.4844 1172.0313,445.2031 L1172.0313,444.0469 Q1172.0313,442.7188 1172.6484,441.5703 Q1173.2656,440.4219 1174.3594,439.8047 Q1175.4531,439.1875 1176.6875,439.1875 Q1177.4219,439.1875 1178.0703,439.3516 Q1178.7188,439.5156 1179.2656,439.875 Z "/><text fill="#000000" font-family="sans-serif" font-size="14" font-weight="bold" lengthAdjust="spacingAndGlyphs" textLength="69" x="1190.5" y="449.7285">Continent</text></a><!--class soen6441riskgame.models.Coordinate--><a target="_parent" xlink:actuate="onRequest" xlink:href="../../soen6441riskgame/models/Coordinate.html" xlink:show="new" xlink:title="soen6441riskgame.models.Coordinate" xlink:type="simple"><rect fill="#FEFECE" filter="url(#fa6pzkbzc4ztn)" height="32" id="soen6441riskgame.models.Coordinate" style="stroke: #A80036; stroke-width: 1.5;" width="110" x="1298" y="428"/><ellipse cx="1313" cy="444" fill="#ADD1B2" rx="11" ry="11" style="stroke: #A80036; stroke-width: 1.0;"/><path d="M1315.7656,439.875 Q1315.9219,439.6563 1316.1094,439.5469 Q1316.2969,439.4375 1316.5156,439.4375 Q1316.8906,439.4375 1317.125,439.6953 Q1317.3594,439.9531 1317.3594,440.5625 L1317.3594,442.0156 Q1317.3594,442.625 1317.125,442.8906 Q1316.8906,443.1563 1316.5156,443.1563 Q1316.1719,443.1563 1315.9688,442.9531 Q1315.7656,442.7656 1315.6563,442.25 Q1315.6094,441.8906 1315.4219,441.7031 Q1315.0938,441.3281 1314.4844,441.1094 Q1313.875,440.8906 1313.25,440.8906 Q1312.4844,440.8906 1311.8516,441.2188 Q1311.2188,441.5469 1310.7266,442.2969 Q1310.2344,443.0469 1310.2344,444.0781 L1310.2344,445.1719 Q1310.2344,446.4063 1311.125,447.2266 Q1312.0156,448.0469 1313.6094,448.0469 Q1314.5469,448.0469 1315.2031,447.7969 Q1315.5938,447.6406 1316.0156,447.2031 Q1316.2813,446.9375 1316.4297,446.8594 Q1316.5781,446.7813 1316.7813,446.7813 Q1317.1094,446.7813 1317.3672,447.0391 Q1317.625,447.2969 1317.625,447.6406 Q1317.625,447.9844 1317.2813,448.3906 Q1316.7813,448.9688 1315.9844,449.2969 Q1314.9063,449.75 1313.6094,449.75 Q1312.0938,449.75 1310.8906,449.125 Q1309.9063,448.625 1309.2188,447.5547 Q1308.5313,446.4844 1308.5313,445.2031 L1308.5313,444.0469 Q1308.5313,442.7188 1309.1484,441.5703 Q1309.7656,440.4219 1310.8594,439.8047 Q1311.9531,439.1875 1313.1875,439.1875 Q1313.9219,439.1875 1314.5703,439.3516 Q1315.2188,439.5156 1315.7656,439.875 Z "/><text fill="#000000" font-family="sans-serif" font-size="14" font-weight="bold" lengthAdjust="spacingAndGlyphs" textLength="78" x="1327" y="449.7285">Coordinate</text></a><!--class soen6441riskgame.models.Country--><a target="_parent" xlink:actuate="onRequest" xlink:href="../../soen6441riskgame/models/Country.html" xlink:show="new" xlink:title="soen6441riskgame.models.Country" xlink:type="simple"><rect fill="#FEFECE" filter="url(#fa6pzkbzc4ztn)" height="32" id="soen6441riskgame.models.Country" style="stroke: #A80036; stroke-width: 1.5;" width="87" x="1267.5" y="336"/><ellipse cx="1282.5" cy="352" fill="#ADD1B2" rx="11" ry="11" style="stroke: #A80036; stroke-width: 1.0;"/><path d="M1285.2656,347.875 Q1285.4219,347.6563 1285.6094,347.5469 Q1285.7969,347.4375 1286.0156,347.4375 Q1286.3906,347.4375 1286.625,347.6953 Q1286.8594,347.9531 1286.8594,348.5625 L1286.8594,350.0156 Q1286.8594,350.625 1286.625,350.8906 Q1286.3906,351.1563 1286.0156,351.1563 Q1285.6719,351.1563 1285.4688,350.9531 Q1285.2656,350.7656 1285.1563,350.25 Q1285.1094,349.8906 1284.9219,349.7031 Q1284.5938,349.3281 1283.9844,349.1094 Q1283.375,348.8906 1282.75,348.8906 Q1281.9844,348.8906 1281.3516,349.2188 Q1280.7188,349.5469 1280.2266,350.2969 Q1279.7344,351.0469 1279.7344,352.0781 L1279.7344,353.1719 Q1279.7344,354.4063 1280.625,355.2266 Q1281.5156,356.0469 1283.1094,356.0469 Q1284.0469,356.0469 1284.7031,355.7969 Q1285.0938,355.6406 1285.5156,355.2031 Q1285.7813,354.9375 1285.9297,354.8594 Q1286.0781,354.7813 1286.2813,354.7813 Q1286.6094,354.7813 1286.8672,355.0391 Q1287.125,355.2969 1287.125,355.6406 Q1287.125,355.9844 1286.7813,356.3906 Q1286.2813,356.9688 1285.4844,357.2969 Q1284.4063,357.75 1283.1094,357.75 Q1281.5938,357.75 1280.3906,357.125 Q1279.4063,356.625 1278.7188,355.5547 Q1278.0313,354.4844 1278.0313,353.2031 L1278.0313,352.0469 Q1278.0313,350.7188 1278.6484,349.5703 Q1279.2656,348.4219 1280.3594,347.8047 Q1281.4531,347.1875 1282.6875,347.1875 Q1283.4219,347.1875 1284.0703,347.3516 Q1284.7188,347.5156 1285.2656,347.875 Z "/><text fill="#000000" font-family="sans-serif" font-size="14" font-weight="bold" lengthAdjust="spacingAndGlyphs" textLength="55" x="1296.5" y="357.7285">Country</text></a><!--class soen6441riskgame.models.ModelCommands--><a target="_parent" xlink:actuate="onRequest" xlink:href="../../soen6441riskgame/models/ModelCommands.html" xlink:show="new" xlink:title="soen6441riskgame.models.ModelCommands" xlink:type="simple"><rect fill="#FEFECE" filter="url(#fa6pzkbzc4ztn)" height="32" id="soen6441riskgame.models.ModelCommands" style="stroke: #A80036; stroke-width: 1.5;" width="153" x="1074.5" y="60"/><ellipse cx="1089.5" cy="76" fill="#ADD1B2" rx="11" ry="11" style="stroke: #A80036; stroke-width: 1.0;"/><path d="M1092.2656,71.875 Q1092.4219,71.6563 1092.6094,71.5469 Q1092.7969,71.4375 1093.0156,71.4375 Q1093.3906,71.4375 1093.625,71.6953 Q1093.8594,71.9531 1093.8594,72.5625 L1093.8594,74.0156 Q1093.8594,74.625 1093.625,74.8906 Q1093.3906,75.1563 1093.0156,75.1563 Q1092.6719,75.1563 1092.4688,74.9531 Q1092.2656,74.7656 1092.1563,74.25 Q1092.1094,73.8906 1091.9219,73.7031 Q1091.5938,73.3281 1090.9844,73.1094 Q1090.375,72.8906 1089.75,72.8906 Q1088.9844,72.8906 1088.3516,73.2188 Q1087.7188,73.5469 1087.2266,74.2969 Q1086.7344,75.0469 1086.7344,76.0781 L1086.7344,77.1719 Q1086.7344,78.4063 1087.625,79.2266 Q1088.5156,80.0469 1090.1094,80.0469 Q1091.0469,80.0469 1091.7031,79.7969 Q1092.0938,79.6406 1092.5156,79.2031 Q1092.7813,78.9375 1092.9297,78.8594 Q1093.0781,78.7813 1093.2813,78.7813 Q1093.6094,78.7813 1093.8672,79.0391 Q1094.125,79.2969 1094.125,79.6406 Q1094.125,79.9844 1093.7813,80.3906 Q1093.2813,80.9688 1092.4844,81.2969 Q1091.4063,81.75 1090.1094,81.75 Q1088.5938,81.75 1087.3906,81.125 Q1086.4063,80.625 1085.7188,79.5547 Q1085.0313,78.4844 1085.0313,77.2031 L1085.0313,76.0469 Q1085.0313,74.7188 1085.6484,73.5703 Q1086.2656,72.4219 1087.3594,71.8047 Q1088.4531,71.1875 1089.6875,71.1875 Q1090.4219,71.1875 1091.0703,71.3516 Q1091.7188,71.5156 1092.2656,71.875 Z "/><text fill="#000000" font-family="sans-serif" font-size="14" font-weight="bold" lengthAdjust="spacingAndGlyphs" textLength="121" x="1103.5" y="81.7285">ModelCommands</text></a><!--class soen6441riskgame.models.ModelCommandsPair--><a target="_parent" xlink:actuate="onRequest" xlink:href="../../soen6441riskgame/models/ModelCommandsPair.html" xlink:show="new" xlink:title="soen6441riskgame.models.ModelCommandsPair" xlink:type="simple"><rect fill="#FEFECE" filter="url(#fa6pzkbzc4ztn)" height="32" id="soen6441riskgame.models.ModelCommandsPair" style="stroke: #A80036; stroke-width: 1.5;" width="180" x="1074" y="152"/><ellipse cx="1089" cy="168" fill="#ADD1B2" rx="11" ry="11" style="stroke: #A80036; stroke-width: 1.0;"/><path d="M1091.7656,163.875 Q1091.9219,163.6563 1092.1094,163.5469 Q1092.2969,163.4375 1092.5156,163.4375 Q1092.8906,163.4375 1093.125,163.6953 Q1093.3594,163.9531 1093.3594,164.5625 L1093.3594,166.0156 Q1093.3594,166.625 1093.125,166.8906 Q1092.8906,167.1563 1092.5156,167.1563 Q1092.1719,167.1563 1091.9688,166.9531 Q1091.7656,166.7656 1091.6563,166.25 Q1091.6094,165.8906 1091.4219,165.7031 Q1091.0938,165.3281 1090.4844,165.1094 Q1089.875,164.8906 1089.25,164.8906 Q1088.4844,164.8906 1087.8516,165.2188 Q1087.2188,165.5469 1086.7266,166.2969 Q1086.2344,167.0469 1086.2344,168.0781 L1086.2344,169.1719 Q1086.2344,170.4063 1087.125,171.2266 Q1088.0156,172.0469 1089.6094,172.0469 Q1090.5469,172.0469 1091.2031,171.7969 Q1091.5938,171.6406 1092.0156,171.2031 Q1092.2813,170.9375 1092.4297,170.8594 Q1092.5781,170.7813 1092.7813,170.7813 Q1093.1094,170.7813 1093.3672,171.0391 Q1093.625,171.2969 1093.625,171.6406 Q1093.625,171.9844 1093.2813,172.3906 Q1092.7813,172.9688 1091.9844,173.2969 Q1090.9063,173.75 1089.6094,173.75 Q1088.0938,173.75 1086.8906,173.125 Q1085.9063,172.625 1085.2188,171.5547 Q1084.5313,170.4844 1084.5313,169.2031 L1084.5313,168.0469 Q1084.5313,166.7188 1085.1484,165.5703 Q1085.7656,164.4219 1086.8594,163.8047 Q1087.9531,163.1875 1089.1875,163.1875 Q1089.9219,163.1875 1090.5703,163.3516 Q1091.2188,163.5156 1091.7656,163.875 Z "/><text fill="#000000" font-family="sans-serif" font-size="14" font-weight="bold" lengthAdjust="spacingAndGlyphs" textLength="148" x="1103" y="173.7285">ModelCommandsPair</text></a><!--class soen6441riskgame.models.Player--><a target="_parent" xlink:actuate="onRequest" xlink:href="../../soen6441riskgame/models/Player.html" xlink:show="new" xlink:title="soen6441riskgame.models.Player" xlink:type="simple"><rect fill="#FEFECE" filter="url(#fa6pzkbzc4ztn)" height="32" id="soen6441riskgame.models.Player" style="stroke: #A80036; stroke-width: 1.5;" width="75" x="1273.5" y="244"/><ellipse cx="1288.5" cy="260" fill="#ADD1B2" rx="11" ry="11" style="stroke: #A80036; stroke-width: 1.0;"/><path d="M1291.2656,255.875 Q1291.4219,255.6563 1291.6094,255.5469 Q1291.7969,255.4375 1292.0156,255.4375 Q1292.3906,255.4375 1292.625,255.6953 Q1292.8594,255.9531 1292.8594,256.5625 L1292.8594,258.0156 Q1292.8594,258.625 1292.625,258.8906 Q1292.3906,259.1563 1292.0156,259.1563 Q1291.6719,259.1563 1291.4688,258.9531 Q1291.2656,258.7656 1291.1563,258.25 Q1291.1094,257.8906 1290.9219,257.7031 Q1290.5938,257.3281 1289.9844,257.1094 Q1289.375,256.8906 1288.75,256.8906 Q1287.9844,256.8906 1287.3516,257.2188 Q1286.7188,257.5469 1286.2266,258.2969 Q1285.7344,259.0469 1285.7344,260.0781 L1285.7344,261.1719 Q1285.7344,262.4063 1286.625,263.2266 Q1287.5156,264.0469 1289.1094,264.0469 Q1290.0469,264.0469 1290.7031,263.7969 Q1291.0938,263.6406 1291.5156,263.2031 Q1291.7813,262.9375 1291.9297,262.8594 Q1292.0781,262.7813 1292.2813,262.7813 Q1292.6094,262.7813 1292.8672,263.0391 Q1293.125,263.2969 1293.125,263.6406 Q1293.125,263.9844 1292.7813,264.3906 Q1292.2813,264.9688 1291.4844,265.2969 Q1290.4063,265.75 1289.1094,265.75 Q1287.5938,265.75 1286.3906,265.125 Q1285.4063,264.625 1284.7188,263.5547 Q1284.0313,262.4844 1284.0313,261.2031 L1284.0313,260.0469 Q1284.0313,258.7188 1284.6484,257.5703 Q1285.2656,256.4219 1286.3594,255.8047 Q1287.4531,255.1875 1288.6875,255.1875 Q1289.4219,255.1875 1290.0703,255.3516 Q1290.7188,255.5156 1291.2656,255.875 Z "/><text fill="#000000" font-family="sans-serif" font-size="14" font-weight="bold" lengthAdjust="spacingAndGlyphs" textLength="43" x="1302.5" y="265.7285">Player</text></a><!--class soen6441riskgame.models.Viewable--><a target="_parent" xlink:actuate="onRequest" xlink:href="../../soen6441riskgame/models/Viewable.html" xlink:show="new" xlink:title="soen6441riskgame.models.Viewable" xlink:type="simple"><rect fill="#FEFECE" filter="url(#fa6pzkbzc4ztn)" height="32" id="soen6441riskgame.models.Viewable" style="stroke: #A80036; stroke-width: 1.5;" width="94" x="1392" y="520"/><ellipse cx="1407" cy="536" fill="#B4A7E5" rx="11" ry="11" style="stroke: #A80036; stroke-width: 1.0;"/><path d="M1407.9531,532.6406 L1407.9531,539.2969 L1409.6719,539.2969 Q1410.2813,539.2969 1410.5469,539.5313 Q1410.8125,539.7656 1410.8125,540.1563 Q1410.8125,540.5313 1410.5469,540.7656 Q1410.2813,541 1409.6719,541 L1404.5313,541 Q1403.9219,541 1403.6563,540.7656 Q1403.3906,540.5313 1403.3906,540.1406 Q1403.3906,539.7656 1403.6563,539.5313 Q1403.9219,539.2969 1404.5313,539.2969 L1406.25,539.2969 L1406.25,532.6406 L1404.5313,532.6406 Q1403.9219,532.6406 1403.6563,532.4063 Q1403.3906,532.1719 1403.3906,531.7813 Q1403.3906,531.4063 1403.6563,531.1719 Q1403.9219,530.9375 1404.5313,530.9375 L1409.6719,530.9375 Q1410.2813,530.9375 1410.5469,531.1719 Q1410.8125,531.4063 1410.8125,531.7813 Q1410.8125,532.1719 1410.5469,532.4063 Q1410.2813,532.6406 1409.6719,532.6406 L1407.9531,532.6406 Z "/><text fill="#000000" font-family="sans-serif" font-size="14" font-style="italic" font-weight="bold" lengthAdjust="spacingAndGlyphs" textLength="62" x="1421" y="541.7285">Viewable</text></a><!--class soen6441riskgame.models.commands.GameCommands--><a target="_parent" xlink:actuate="onRequest" xlink:href="../../soen6441riskgame/models/commands/GameCommands.html" xlink:show="new" xlink:title="soen6441riskgame.models.commands.GameCommands" xlink:type="simple"><rect fill="#FEFECE" filter="url(#fa6pzkbzc4ztn)" height="32" id="soen6441riskgame.models.commands.GameCommands" style="stroke: #A80036; stroke-width: 1.5;" width="149" x="38.5" y="60"/><ellipse cx="53.5" cy="76" fill="#ADD1B2" rx="11" ry="11" style="stroke: #A80036; stroke-width: 1.0;"/><path d="M56.2656,71.875 Q56.4219,71.6563 56.6094,71.5469 Q56.7969,71.4375 57.0156,71.4375 Q57.3906,71.4375 57.625,71.6953 Q57.8594,71.9531 57.8594,72.5625 L57.8594,74.0156 Q57.8594,74.625 57.625,74.8906 Q57.3906,75.1563 57.0156,75.1563 Q56.6719,75.1563 56.4688,74.9531 Q56.2656,74.7656 56.1563,74.25 Q56.1094,73.8906 55.9219,73.7031 Q55.5938,73.3281 54.9844,73.1094 Q54.375,72.8906 53.75,72.8906 Q52.9844,72.8906 52.3516,73.2188 Q51.7188,73.5469 51.2266,74.2969 Q50.7344,75.0469 50.7344,76.0781 L50.7344,77.1719 Q50.7344,78.4063 51.625,79.2266 Q52.5156,80.0469 54.1094,80.0469 Q55.0469,80.0469 55.7031,79.7969 Q56.0938,79.6406 56.5156,79.2031 Q56.7813,78.9375 56.9297,78.8594 Q57.0781,78.7813 57.2813,78.7813 Q57.6094,78.7813 57.8672,79.0391 Q58.125,79.2969 58.125,79.6406 Q58.125,79.9844 57.7813,80.3906 Q57.2813,80.9688 56.4844,81.2969 Q55.4063,81.75 54.1094,81.75 Q52.5938,81.75 51.3906,81.125 Q50.4063,80.625 49.7188,79.5547 Q49.0313,78.4844 49.0313,77.2031 L49.0313,76.0469 Q49.0313,74.7188 49.6484,73.5703 Q50.2656,72.4219 51.3594,71.8047 Q52.4531,71.1875 53.6875,71.1875 Q54.4219,71.1875 55.0703,71.3516 Q55.7188,71.5156 56.2656,71.875 Z "/><text fill="#000000" font-family="sans-serif" font-size="14" font-weight="bold" lengthAdjust="spacingAndGlyphs" textLength="117" x="67.5" y="81.7285">GameCommands</text></a><!--class soen6441riskgame.models.commands.MapEditorCommands--><a target="_parent" xlink:actuate="onRequest" xlink:href="../../soen6441riskgame/models/commands/MapEditorCommands.html" xlink:show="new" xlink:title="soen6441riskgame.models.commands.MapEditorCommands" xlink:type="simple"><rect fill="#FEFECE" filter="url(#fa6pzkbzc4ztn)" height="32" id="soen6441riskgame.models.commands.MapEditorCommands" style="stroke: #A80036; stroke-width: 1.5;" width="181" x="222.5" y="60"/><ellipse cx="237.5" cy="76" fill="#ADD1B2" rx="11" ry="11" style="stroke: #A80036; stroke-width: 1.0;"/><path d="M240.2656,71.875 Q240.4219,71.6563 240.6094,71.5469 Q240.7969,71.4375 241.0156,71.4375 Q241.3906,71.4375 241.625,71.6953 Q241.8594,71.9531 241.8594,72.5625 L241.8594,74.0156 Q241.8594,74.625 241.625,74.8906 Q241.3906,75.1563 241.0156,75.1563 Q240.6719,75.1563 240.4688,74.9531 Q240.2656,74.7656 240.1563,74.25 Q240.1094,73.8906 239.9219,73.7031 Q239.5938,73.3281 238.9844,73.1094 Q238.375,72.8906 237.75,72.8906 Q236.9844,72.8906 236.3516,73.2188 Q235.7188,73.5469 235.2266,74.2969 Q234.7344,75.0469 234.7344,76.0781 L234.7344,77.1719 Q234.7344,78.4063 235.625,79.2266 Q236.5156,80.0469 238.1094,80.0469 Q239.0469,80.0469 239.7031,79.7969 Q240.0938,79.6406 240.5156,79.2031 Q240.7813,78.9375 240.9297,78.8594 Q241.0781,78.7813 241.2813,78.7813 Q241.6094,78.7813 241.8672,79.0391 Q242.125,79.2969 242.125,79.6406 Q242.125,79.9844 241.7813,80.3906 Q241.2813,80.9688 240.4844,81.2969 Q239.4063,81.75 238.1094,81.75 Q236.5938,81.75 235.3906,81.125 Q234.4063,80.625 233.7188,79.5547 Q233.0313,78.4844 233.0313,77.2031 L233.0313,76.0469 Q233.0313,74.7188 233.6484,73.5703 Q234.2656,72.4219 235.3594,71.8047 Q236.4531,71.1875 237.6875,71.1875 Q238.4219,71.1875 239.0703,71.3516 Q239.7188,71.5156 240.2656,71.875 Z "/><text fill="#000000" font-family="sans-serif" font-size="14" font-weight="bold" lengthAdjust="spacingAndGlyphs" textLength="149" x="251.5" y="81.7285">MapEditorCommands</text></a><!--class soen6441riskgame.models.commands.TournamentCommands--><a target="_parent" xlink:actuate="onRequest" xlink:href="../../soen6441riskgame/models/commands/TournamentCommands.html" xlink:show="new" xlink:title="soen6441riskgame.models.commands.TournamentCommands" xlink:type="simple"><rect fill="#FEFECE" filter="url(#fa6pzkbzc4ztn)" height="32" id="soen6441riskgame.models.commands.TournamentCommands" style="stroke: #A80036; stroke-width: 1.5;" width="193" x="38.5" y="152"/><ellipse cx="53.5" cy="168" fill="#ADD1B2" rx="11" ry="11" style="stroke: #A80036; stroke-width: 1.0;"/><path d="M56.2656,163.875 Q56.4219,163.6563 56.6094,163.5469 Q56.7969,163.4375 57.0156,163.4375 Q57.3906,163.4375 57.625,163.6953 Q57.8594,163.9531 57.8594,164.5625 L57.8594,166.0156 Q57.8594,166.625 57.625,166.8906 Q57.3906,167.1563 57.0156,167.1563 Q56.6719,167.1563 56.4688,166.9531 Q56.2656,166.7656 56.1563,166.25 Q56.1094,165.8906 55.9219,165.7031 Q55.5938,165.3281 54.9844,165.1094 Q54.375,164.8906 53.75,164.8906 Q52.9844,164.8906 52.3516,165.2188 Q51.7188,165.5469 51.2266,166.2969 Q50.7344,167.0469 50.7344,168.0781 L50.7344,169.1719 Q50.7344,170.4063 51.625,171.2266 Q52.5156,172.0469 54.1094,172.0469 Q55.0469,172.0469 55.7031,171.7969 Q56.0938,171.6406 56.5156,171.2031 Q56.7813,170.9375 56.9297,170.8594 Q57.0781,170.7813 57.2813,170.7813 Q57.6094,170.7813 57.8672,171.0391 Q58.125,171.2969 58.125,171.6406 Q58.125,171.9844 57.7813,172.3906 Q57.2813,172.9688 56.4844,173.2969 Q55.4063,173.75 54.1094,173.75 Q52.5938,173.75 51.3906,173.125 Q50.4063,172.625 49.7188,171.5547 Q49.0313,170.4844 49.0313,169.2031 L49.0313,168.0469 Q49.0313,166.7188 49.6484,165.5703 Q50.2656,164.4219 51.3594,163.8047 Q52.4531,163.1875 53.6875,163.1875 Q54.4219,163.1875 55.0703,163.3516 Q55.7188,163.5156 56.2656,163.875 Z "/><text fill="#000000" font-family="sans-serif" font-size="14" font-weight="bold" lengthAdjust="spacingAndGlyphs" textLength="161" x="67.5" y="173.7285">TournamentCommands</text></a><!--class soen6441riskgame.models.serializers.SerializableGame--><a target="_parent" xlink:actuate="onRequest" xlink:href="../../soen6441riskgame/models/serializers/SerializableGame.html" xlink:show="new" xlink:title="soen6441riskgame.models.serializers.SerializableGame" xlink:type="simple"><rect fill="#FEFECE" filter="url(#fa6pzkbzc4ztn)" height="32" id="soen6441riskgame.models.serializers.SerializableGame" style="stroke: #A80036; stroke-width: 1.5;" width="153" x="1785.5" y="60"/><ellipse cx="1800.5" cy="76" fill="#ADD1B2" rx="11" ry="11" style="stroke: #A80036; stroke-width: 1.0;"/><path d="M1803.2656,71.875 Q1803.4219,71.6563 1803.6094,71.5469 Q1803.7969,71.4375 1804.0156,71.4375 Q1804.3906,71.4375 1804.625,71.6953 Q1804.8594,71.9531 1804.8594,72.5625 L1804.8594,74.0156 Q1804.8594,74.625 1804.625,74.8906 Q1804.3906,75.1563 1804.0156,75.1563 Q1803.6719,75.1563 1803.4688,74.9531 Q1803.2656,74.7656 1803.1563,74.25 Q1803.1094,73.8906 1802.9219,73.7031 Q1802.5938,73.3281 1801.9844,73.1094 Q1801.375,72.8906 1800.75,72.8906 Q1799.9844,72.8906 1799.3516,73.2188 Q1798.7188,73.5469 1798.2266,74.2969 Q1797.7344,75.0469 1797.7344,76.0781 L1797.7344,77.1719 Q1797.7344,78.4063 1798.625,79.2266 Q1799.5156,80.0469 1801.1094,80.0469 Q1802.0469,80.0469 1802.7031,79.7969 Q1803.0938,79.6406 1803.5156,79.2031 Q1803.7813,78.9375 1803.9297,78.8594 Q1804.0781,78.7813 1804.2813,78.7813 Q1804.6094,78.7813 1804.8672,79.0391 Q1805.125,79.2969 1805.125,79.6406 Q1805.125,79.9844 1804.7813,80.3906 Q1804.2813,80.9688 1803.4844,81.2969 Q1802.4063,81.75 1801.1094,81.75 Q1799.5938,81.75 1798.3906,81.125 Q1797.4063,80.625 1796.7188,79.5547 Q1796.0313,78.4844 1796.0313,77.2031 L1796.0313,76.0469 Q1796.0313,74.7188 1796.6484,73.5703 Q1797.2656,72.4219 1798.3594,71.8047 Q1799.4531,71.1875 1800.6875,71.1875 Q1801.4219,71.1875 1802.0703,71.3516 Q1802.7188,71.5156 1803.2656,71.875 Z "/><text fill="#000000" font-family="sans-serif" font-size="14" font-weight="bold" lengthAdjust="spacingAndGlyphs" textLength="121" x="1814.5" y="81.7285">SerializableGame</text></a><!--class soen6441riskgame.models.serializers.SerializableGame.Builder--><a target="_parent" xlink:actuate="onRequest" xlink:href="../../soen6441riskgame/models/serializers/SerializableGame.Builder.html" xlink:show="new" xlink:title="soen6441riskgame.models.serializers.SerializableGame.Builder" xlink:type="simple"><rect fill="#FEFECE" filter="url(#fa6pzkbzc4ztn)" height="32" id="soen6441riskgame.models.serializers.SerializableGame.Builder" style="stroke: #A80036; stroke-width: 1.5;" width="208" x="1542" y="60"/><ellipse cx="1557" cy="76" fill="#ADD1B2" rx="11" ry="11" style="stroke: #A80036; stroke-width: 1.0;"/><path d="M1559.7656,71.875 Q1559.9219,71.6563 1560.1094,71.5469 Q1560.2969,71.4375 1560.5156,71.4375 Q1560.8906,71.4375 1561.125,71.6953 Q1561.3594,71.9531 1561.3594,72.5625 L1561.3594,74.0156 Q1561.3594,74.625 1561.125,74.8906 Q1560.8906,75.1563 1560.5156,75.1563 Q1560.1719,75.1563 1559.9688,74.9531 Q1559.7656,74.7656 1559.6563,74.25 Q1559.6094,73.8906 1559.4219,73.7031 Q1559.0938,73.3281 1558.4844,73.1094 Q1557.875,72.8906 1557.25,72.8906 Q1556.4844,72.8906 1555.8516,73.2188 Q1555.2188,73.5469 1554.7266,74.2969 Q1554.2344,75.0469 1554.2344,76.0781 L1554.2344,77.1719 Q1554.2344,78.4063 1555.125,79.2266 Q1556.0156,80.0469 1557.6094,80.0469 Q1558.5469,80.0469 1559.2031,79.7969 Q1559.5938,79.6406 1560.0156,79.2031 Q1560.2813,78.9375 1560.4297,78.8594 Q1560.5781,78.7813 1560.7813,78.7813 Q1561.1094,78.7813 1561.3672,79.0391 Q1561.625,79.2969 1561.625,79.6406 Q1561.625,79.9844 1561.2813,80.3906 Q1560.7813,80.9688 1559.9844,81.2969 Q1558.9063,81.75 1557.6094,81.75 Q1556.0938,81.75 1554.8906,81.125 Q1553.9063,80.625 1553.2188,79.5547 Q1552.5313,78.4844 1552.5313,77.2031 L1552.5313,76.0469 Q1552.5313,74.7188 1553.1484,73.5703 Q1553.7656,72.4219 1554.8594,71.8047 Q1555.9531,71.1875 1557.1875,71.1875 Q1557.9219,71.1875 1558.5703,71.3516 Q1559.2188,71.5156 1559.7656,71.875 Z "/><text fill="#000000" font-family="sans-serif" font-size="14" font-weight="bold" lengthAdjust="spacingAndGlyphs" textLength="176" x="1571" y="81.7285">SerializableGame.Builder</text></a><!--class soen6441riskgame.models.strategies.AggressiveStrategy--><a target="_parent" xlink:actuate="onRequest" xlink:href="../../soen6441riskgame/models/strategies/AggressiveStrategy.html" xlink:show="new" xlink:title="soen6441riskgame.models.strategies.AggressiveStrategy" xlink:type="simple"><rect fill="#FEFECE" filter="url(#fa6pzkbzc4ztn)" height="32" id="soen6441riskgame.models.strategies.AggressiveStrategy" style="stroke: #A80036; stroke-width: 1.5;" width="170" x="460" y="60"/><ellipse cx="475" cy="76" fill="#ADD1B2" rx="11" ry="11" style="stroke: #A80036; stroke-width: 1.0;"/><path d="M477.7656,71.875 Q477.9219,71.6563 478.1094,71.5469 Q478.2969,71.4375 478.5156,71.4375 Q478.8906,71.4375 479.125,71.6953 Q479.3594,71.9531 479.3594,72.5625 L479.3594,74.0156 Q479.3594,74.625 479.125,74.8906 Q478.8906,75.1563 478.5156,75.1563 Q478.1719,75.1563 477.9688,74.9531 Q477.7656,74.7656 477.6563,74.25 Q477.6094,73.8906 477.4219,73.7031 Q477.0938,73.3281 476.4844,73.1094 Q475.875,72.8906 475.25,72.8906 Q474.4844,72.8906 473.8516,73.2188 Q473.2188,73.5469 472.7266,74.2969 Q472.2344,75.0469 472.2344,76.0781 L472.2344,77.1719 Q472.2344,78.4063 473.125,79.2266 Q474.0156,80.0469 475.6094,80.0469 Q476.5469,80.0469 477.2031,79.7969 Q477.5938,79.6406 478.0156,79.2031 Q478.2813,78.9375 478.4297,78.8594 Q478.5781,78.7813 478.7813,78.7813 Q479.1094,78.7813 479.3672,79.0391 Q479.625,79.2969 479.625,79.6406 Q479.625,79.9844 479.2813,80.3906 Q478.7813,80.9688 477.9844,81.2969 Q476.9063,81.75 475.6094,81.75 Q474.0938,81.75 472.8906,81.125 Q471.9063,80.625 471.2188,79.5547 Q470.5313,78.4844 470.5313,77.2031 L470.5313,76.0469 Q470.5313,74.7188 471.1484,73.5703 Q471.7656,72.4219 472.8594,71.8047 Q473.9531,71.1875 475.1875,71.1875 Q475.9219,71.1875 476.5703,71.3516 Q477.2188,71.5156 477.7656,71.875 Z "/><text fill="#000000" font-family="sans-serif" font-size="14" font-weight="bold" lengthAdjust="spacingAndGlyphs" textLength="138" x="489" y="81.7285">AggressiveStrategy</text></a><!--class soen6441riskgame.models.strategies.BenevolentStrategy--><a target="_parent" xlink:actuate="onRequest" xlink:href="../../soen6441riskgame/models/strategies/BenevolentStrategy.html" xlink:show="new" xlink:title="soen6441riskgame.models.strategies.BenevolentStrategy" xlink:type="simple"><rect fill="#FEFECE" filter="url(#fa6pzkbzc4ztn)" height="32" id="soen6441riskgame.models.strategies.BenevolentStrategy" style="stroke: #A80036; stroke-width: 1.5;" width="172" x="665" y="60"/><ellipse cx="680" cy="76" fill="#ADD1B2" rx="11" ry="11" style="stroke: #A80036; stroke-width: 1.0;"/><path d="M682.7656,71.875 Q682.9219,71.6563 683.1094,71.5469 Q683.2969,71.4375 683.5156,71.4375 Q683.8906,71.4375 684.125,71.6953 Q684.3594,71.9531 684.3594,72.5625 L684.3594,74.0156 Q684.3594,74.625 684.125,74.8906 Q683.8906,75.1563 683.5156,75.1563 Q683.1719,75.1563 682.9688,74.9531 Q682.7656,74.7656 682.6563,74.25 Q682.6094,73.8906 682.4219,73.7031 Q682.0938,73.3281 681.4844,73.1094 Q680.875,72.8906 680.25,72.8906 Q679.4844,72.8906 678.8516,73.2188 Q678.2188,73.5469 677.7266,74.2969 Q677.2344,75.0469 677.2344,76.0781 L677.2344,77.1719 Q677.2344,78.4063 678.125,79.2266 Q679.0156,80.0469 680.6094,80.0469 Q681.5469,80.0469 682.2031,79.7969 Q682.5938,79.6406 683.0156,79.2031 Q683.2813,78.9375 683.4297,78.8594 Q683.5781,78.7813 683.7813,78.7813 Q684.1094,78.7813 684.3672,79.0391 Q684.625,79.2969 684.625,79.6406 Q684.625,79.9844 684.2813,80.3906 Q683.7813,80.9688 682.9844,81.2969 Q681.9063,81.75 680.6094,81.75 Q679.0938,81.75 677.8906,81.125 Q676.9063,80.625 676.2188,79.5547 Q675.5313,78.4844 675.5313,77.2031 L675.5313,76.0469 Q675.5313,74.7188 676.1484,73.5703 Q676.7656,72.4219 677.8594,71.8047 Q678.9531,71.1875 680.1875,71.1875 Q680.9219,71.1875 681.5703,71.3516 Q682.2188,71.5156 682.7656,71.875 Z "/><text fill="#000000" font-family="sans-serif" font-size="14" font-weight="bold" lengthAdjust="spacingAndGlyphs" textLength="140" x="694" y="81.7285">BenevolentStrategy</text></a><!--class soen6441riskgame.models.strategies.CheaterStrategy--><a target="_parent" xlink:actuate="onRequest" xlink:href="../../soen6441riskgame/models/strategies/CheaterStrategy.html" xlink:show="new" xlink:title="soen6441riskgame.models.strategies.CheaterStrategy" xlink:type="simple"><rect fill="#FEFECE" filter="url(#fa6pzkbzc4ztn)" height="32" id="soen6441riskgame.models.strategies.CheaterStrategy" style="stroke: #A80036; stroke-width: 1.5;" width="146" x="872" y="60"/><ellipse cx="887" cy="76" fill="#ADD1B2" rx="11" ry="11" style="stroke: #A80036; stroke-width: 1.0;"/><path d="M889.7656,71.875 Q889.9219,71.6563 890.1094,71.5469 Q890.2969,71.4375 890.5156,71.4375 Q890.8906,71.4375 891.125,71.6953 Q891.3594,71.9531 891.3594,72.5625 L891.3594,74.0156 Q891.3594,74.625 891.125,74.8906 Q890.8906,75.1563 890.5156,75.1563 Q890.1719,75.1563 889.9688,74.9531 Q889.7656,74.7656 889.6563,74.25 Q889.6094,73.8906 889.4219,73.7031 Q889.0938,73.3281 888.4844,73.1094 Q887.875,72.8906 887.25,72.8906 Q886.4844,72.8906 885.8516,73.2188 Q885.2188,73.5469 884.7266,74.2969 Q884.2344,75.0469 884.2344,76.0781 L884.2344,77.1719 Q884.2344,78.4063 885.125,79.2266 Q886.0156,80.0469 887.6094,80.0469 Q888.5469,80.0469 889.2031,79.7969 Q889.5938,79.6406 890.0156,79.2031 Q890.2813,78.9375 890.4297,78.8594 Q890.5781,78.7813 890.7813,78.7813 Q891.1094,78.7813 891.3672,79.0391 Q891.625,79.2969 891.625,79.6406 Q891.625,79.9844 891.2813,80.3906 Q890.7813,80.9688 889.9844,81.2969 Q888.9063,81.75 887.6094,81.75 Q886.0938,81.75 884.8906,81.125 Q883.9063,80.625 883.2188,79.5547 Q882.5313,78.4844 882.5313,77.2031 L882.5313,76.0469 Q882.5313,74.7188 883.1484,73.5703 Q883.7656,72.4219 884.8594,71.8047 Q885.9531,71.1875 887.1875,71.1875 Q887.9219,71.1875 888.5703,71.3516 Q889.2188,71.5156 889.7656,71.875 Z "/><text fill="#000000" font-family="sans-serif" font-size="14" font-weight="bold" lengthAdjust="spacingAndGlyphs" textLength="114" x="901" y="81.7285">CheaterStrategy</text></a><!--class soen6441riskgame.models.strategies.HumanStrategy--><a target="_parent" xlink:actuate="onRequest" xlink:href="../../soen6441riskgame/models/strategies/HumanStrategy.html" xlink:show="new" xlink:title="soen6441riskgame.models.strategies.HumanStrategy" xlink:type="simple"><rect fill="#FEFECE" filter="url(#fa6pzkbzc4ztn)" height="32" id="soen6441riskgame.models.strategies.HumanStrategy" style="stroke: #A80036; stroke-width: 1.5;" width="138" x="476" y="152"/><ellipse cx="491" cy="168" fill="#ADD1B2" rx="11" ry="11" style="stroke: #A80036; stroke-width: 1.0;"/><path d="M493.7656,163.875 Q493.9219,163.6563 494.1094,163.5469 Q494.2969,163.4375 494.5156,163.4375 Q494.8906,163.4375 495.125,163.6953 Q495.3594,163.9531 495.3594,164.5625 L495.3594,166.0156 Q495.3594,166.625 495.125,166.8906 Q494.8906,167.1563 494.5156,167.1563 Q494.1719,167.1563 493.9688,166.9531 Q493.7656,166.7656 493.6563,166.25 Q493.6094,165.8906 493.4219,165.7031 Q493.0938,165.3281 492.4844,165.1094 Q491.875,164.8906 491.25,164.8906 Q490.4844,164.8906 489.8516,165.2188 Q489.2188,165.5469 488.7266,166.2969 Q488.2344,167.0469 488.2344,168.0781 L488.2344,169.1719 Q488.2344,170.4063 489.125,171.2266 Q490.0156,172.0469 491.6094,172.0469 Q492.5469,172.0469 493.2031,171.7969 Q493.5938,171.6406 494.0156,171.2031 Q494.2813,170.9375 494.4297,170.8594 Q494.5781,170.7813 494.7813,170.7813 Q495.1094,170.7813 495.3672,171.0391 Q495.625,171.2969 495.625,171.6406 Q495.625,171.9844 495.2813,172.3906 Q494.7813,172.9688 493.9844,173.2969 Q492.9063,173.75 491.6094,173.75 Q490.0938,173.75 488.8906,173.125 Q487.9063,172.625 487.2188,171.5547 Q486.5313,170.4844 486.5313,169.2031 L486.5313,168.0469 Q486.5313,166.7188 487.1484,165.5703 Q487.7656,164.4219 488.8594,163.8047 Q489.9531,163.1875 491.1875,163.1875 Q491.9219,163.1875 492.5703,163.3516 Q493.2188,163.5156 493.7656,163.875 Z "/><text fill="#000000" font-family="sans-serif" font-size="14" font-weight="bold" lengthAdjust="spacingAndGlyphs" textLength="106" x="505" y="173.7285">HumanStrategy</text></a><!--class soen6441riskgame.models.strategies.RandomStrategy--><a target="_parent" xlink:actuate="onRequest" xlink:href="../../soen6441riskgame/models/strategies/RandomStrategy.html" xlink:show="new" xlink:title="soen6441riskgame.models.strategies.RandomStrategy" xlink:type="simple"><rect fill="#FEFECE" filter="url(#fa6pzkbzc4ztn)" height="32" id="soen6441riskgame.models.strategies.RandomStrategy" style="stroke: #A80036; stroke-width: 1.5;" width="147" x="649.5" y="152"/><ellipse cx="664.5" cy="168" fill="#ADD1B2" rx="11" ry="11" style="stroke: #A80036; stroke-width: 1.0;"/><path d="M667.2656,163.875 Q667.4219,163.6563 667.6094,163.5469 Q667.7969,163.4375 668.0156,163.4375 Q668.3906,163.4375 668.625,163.6953 Q668.8594,163.9531 668.8594,164.5625 L668.8594,166.0156 Q668.8594,166.625 668.625,166.8906 Q668.3906,167.1563 668.0156,167.1563 Q667.6719,167.1563 667.4688,166.9531 Q667.2656,166.7656 667.1563,166.25 Q667.1094,165.8906 666.9219,165.7031 Q666.5938,165.3281 665.9844,165.1094 Q665.375,164.8906 664.75,164.8906 Q663.9844,164.8906 663.3516,165.2188 Q662.7188,165.5469 662.2266,166.2969 Q661.7344,167.0469 661.7344,168.0781 L661.7344,169.1719 Q661.7344,170.4063 662.625,171.2266 Q663.5156,172.0469 665.1094,172.0469 Q666.0469,172.0469 666.7031,171.7969 Q667.0938,171.6406 667.5156,171.2031 Q667.7813,170.9375 667.9297,170.8594 Q668.0781,170.7813 668.2813,170.7813 Q668.6094,170.7813 668.8672,171.0391 Q669.125,171.2969 669.125,171.6406 Q669.125,171.9844 668.7813,172.3906 Q668.2813,172.9688 667.4844,173.2969 Q666.4063,173.75 665.1094,173.75 Q663.5938,173.75 662.3906,173.125 Q661.4063,172.625 660.7188,171.5547 Q660.0313,170.4844 660.0313,169.2031 L660.0313,168.0469 Q660.0313,166.7188 660.6484,165.5703 Q661.2656,164.4219 662.3594,163.8047 Q663.4531,163.1875 664.6875,163.1875 Q665.4219,163.1875 666.0703,163.3516 Q666.7188,163.5156 667.2656,163.875 Z "/><text fill="#000000" font-family="sans-serif" font-size="14" font-weight="bold" lengthAdjust="spacingAndGlyphs" textLength="115" x="678.5" y="173.7285">RandomStrategy</text></a><!--class soen6441riskgame.models.strategies.Strategy--><a target="_parent" xlink:actuate="onRequest" xlink:href="../../soen6441riskgame/models/strategies/Strategy.html" xlink:show="new" xlink:title="soen6441riskgame.models.strategies.Strategy" xlink:type="simple"><rect fill="#FEFECE" filter="url(#fa6pzkbzc4ztn)" height="32" id="soen6441riskgame.models.strategies.Strategy" style="stroke: #A80036; stroke-width: 1.5;" width="88" x="832" y="152"/><ellipse cx="847" cy="168" fill="#B4A7E5" rx="11" ry="11" style="stroke: #A80036; stroke-width: 1.0;"/><path d="M847.9531,164.6406 L847.9531,171.2969 L849.6719,171.2969 Q850.2813,171.2969 850.5469,171.5313 Q850.8125,171.7656 850.8125,172.1563 Q850.8125,172.5313 850.5469,172.7656 Q850.2813,173 849.6719,173 L844.5313,173 Q843.9219,173 843.6563,172.7656 Q843.3906,172.5313 843.3906,172.1406 Q843.3906,171.7656 843.6563,171.5313 Q843.9219,171.2969 844.5313,171.2969 L846.25,171.2969 L846.25,164.6406 L844.5313,164.6406 Q843.9219,164.6406 843.6563,164.4063 Q843.3906,164.1719 843.3906,163.7813 Q843.3906,163.4063 843.6563,163.1719 Q843.9219,162.9375 844.5313,162.9375 L849.6719,162.9375 Q850.2813,162.9375 850.5469,163.1719 Q850.8125,163.4063 850.8125,163.7813 Q850.8125,164.1719 850.5469,164.4063 Q850.2813,164.6406 849.6719,164.6406 L847.9531,164.6406 Z "/><text fill="#000000" font-family="sans-serif" font-size="14" font-style="italic" font-weight="bold" lengthAdjust="spacingAndGlyphs" textLength="56" x="861" y="173.7285">Strategy</text></a><!--link soen6441riskgame.models.Card to soen6441riskgame.models.Player--><path d="M1309.17,184.025 C1309.17,184.025 1309.17,238.85 1309.17,238.85 " fill="none" id="soen6441riskgame.models.Card-soen6441riskgame.models.Player" style="stroke: #A80036; stroke-width: 1.0;"/><polygon fill="#A80036" points="1309.17,243.85,1313.17,234.85,1309.17,238.85,1305.17,234.85,1309.17,243.85" style="stroke: #A80036; stroke-width: 1.0;"/><text fill="#000000" font-family="sans-serif" font-size="13" lengthAdjust="spacingAndGlyphs" textLength="78" x="1217.1347" y="233.104">holdingPlayer</text><!--link soen6441riskgame.models.Player to soen6441riskgame.models.Card--><path d="M1328.83,243.975 C1328.83,243.975 1328.83,189.15 1328.83,189.15 " fill="none" id="soen6441riskgame.models.Player-soen6441riskgame.models.Card" style="stroke: #A80036; stroke-width: 1.0; stroke-dasharray: 7.0,7.0;"/><polygon fill="#A80036" points="1328.83,184.15,1324.83,193.15,1328.83,189.15,1332.83,193.15,1328.83,184.15" style="stroke: #A80036; stroke-width: 1.0;"/><!--link soen6441riskgame.models.Card to soen6441riskgame.models.Viewable--><path d="M1354.63,168 C1395.33,168 1459.67,168 1459.67,168 C1459.67,168 1459.67,499.7127 1459.67,499.7127 " fill="none" id="soen6441riskgame.models.Card-soen6441riskgame.models.Viewable" style="stroke: #A80036; stroke-width: 1.0; stroke-dasharray: 7.0,7.0;"/><polygon fill="none" points="1466.67,499.7127,1459.67,519.7127,1452.67,499.7126,1466.67,499.7127" style="stroke: #A80036; stroke-width: 1.0;"/><!--link soen6441riskgame.models.CardSet to soen6441riskgame.models.Card--><path d="M1320.25,92.025 C1320.25,92.025 1320.25,146.85 1320.25,146.85 " fill="none" id="soen6441riskgame.models.CardSet-soen6441riskgame.models.Card" style="stroke: #A80036; stroke-width: 1.0; stroke-dasharray: 7.0,7.0;"/><polygon fill="#A80036" points="1320.25,151.85,1324.25,142.85,1320.25,146.85,1316.25,142.85,1320.25,151.85" style="stroke: #A80036; stroke-width: 1.0;"/><!--link soen6441riskgame.models.Continent to soen6441riskgame.models.Country--><path d="M1258.86,427.982 C1258.86,400.432 1258.86,347 1258.86,347 C1258.86,347 1262.47,347 1262.47,347 " fill="none" id="soen6441riskgame.models.Continent-soen6441riskgame.models.Country" style="stroke: #A80036; stroke-width: 1.0; stroke-dasharray: 7.0,7.0;"/><polygon fill="#A80036" points="1267.47,347,1258.47,343,1262.47,347,1258.47,351,1267.47,347" style="stroke: #A80036; stroke-width: 1.0;"/><!--link soen6441riskgame.models.Country to soen6441riskgame.models.Continent--><path d="M1267.15,358 C1262.87,358 1260.07,358 1260.07,358 C1260.07,358 1260.07,422.824 1260.07,422.824 " fill="none" id="soen6441riskgame.models.Country-soen6441riskgame.models.Continent" style="stroke: #A80036; stroke-width: 1.0;"/><polygon fill="#A80036" points="1260.07,427.824,1264.07,418.824,1260.07,422.824,1256.07,418.824,1260.07,427.824" style="stroke: #A80036; stroke-width: 1.0;"/><text fill="#000000" font-family="sans-serif" font-size="13" lengthAdjust="spacingAndGlyphs" textLength="53" x="1214.4847" y="417.069">continent</text><!--link soen6441riskgame.models.Continent to soen6441riskgame.models.Viewable--><path d="M1212,460.025 C1212,486.3838 1212,536 1212,536 C1212,536 1371.97,536 1371.97,536 " fill="none" id="soen6441riskgame.models.Continent-soen6441riskgame.models.Viewable" style="stroke: #A80036; stroke-width: 1.0; stroke-dasharray: 7.0,7.0;"/><polygon fill="none" points="1371.97,528.9999,1391.97,536,1371.97,542.9999,1371.97,528.9999" style="stroke: #A80036; stroke-width: 1.0;"/><!--link soen6441riskgame.models.Continent to soen6441riskgame.models.Player--><path d="M1207.75,427.886 C1207.75,382.18 1207.75,255 1207.75,255 C1207.75,255 1268.43,255 1268.43,255 " fill="none" id="soen6441riskgame.models.Continent-soen6441riskgame.models.Player" style="stroke: #A80036; stroke-width: 1.0; stroke-dasharray: 7.0,7.0;"/><polygon fill="#A80036" points="1273.43,255,1264.43,251,1268.43,255,1264.43,259,1273.43,255" style="stroke: #A80036; stroke-width: 1.0;"/><!--link soen6441riskgame.models.Player to soen6441riskgame.models.Continent--><path d="M1273.48,266 C1263.39,266 1255.21,266 1255.21,266 C1255.21,266 1255.21,422.89 1255.21,422.89 " fill="none" id="soen6441riskgame.models.Player-soen6441riskgame.models.Continent" style="stroke: #A80036; stroke-width: 1.0; stroke-dasharray: 7.0,7.0;"/><polygon fill="#A80036" points="1255.21,427.89,1259.21,418.89,1255.21,422.89,1251.21,418.89,1255.21,427.89" style="stroke: #A80036; stroke-width: 1.0;"/><!--link soen6441riskgame.models.Country to soen6441riskgame.models.Coordinate--><path d="M1326.25,368.025 C1326.25,368.025 1326.25,422.85 1326.25,422.85 " fill="none" id="soen6441riskgame.models.Country-soen6441riskgame.models.Coordinate" style="stroke: #A80036; stroke-width: 1.0;"/><polygon fill="#A80036" points="1326.25,427.85,1330.25,418.85,1326.25,422.85,1322.25,418.85,1326.25,427.85" style="stroke: #A80036; stroke-width: 1.0;"/><text fill="#000000" font-family="sans-serif" font-size="13" lengthAdjust="spacingAndGlyphs" textLength="60" x="1255.855" y="417.0185">coordinate</text><!--link soen6441riskgame.models.Country to soen6441riskgame.models.Player--><path d="M1323.5,335.975 C1323.5,335.975 1323.5,281.15 1323.5,281.15 " fill="none" id="soen6441riskgame.models.Country-soen6441riskgame.models.Player" style="stroke: #A80036; stroke-width: 1.0;"/><polygon fill="#A80036" points="1323.5,276.15,1319.5,285.15,1323.5,281.15,1327.5,285.15,1323.5,276.15" style="stroke: #A80036; stroke-width: 1.0;"/><text fill="#000000" font-family="sans-serif" font-size="13" lengthAdjust="spacingAndGlyphs" textLength="57" x="1336.5688" y="297.399">conquerer</text><!--link soen6441riskgame.models.Player to soen6441riskgame.models.Country--><path d="M1336,276.025 C1336,276.025 1336,330.85 1336,330.85 " fill="none" id="soen6441riskgame.models.Player-soen6441riskgame.models.Country" style="stroke: #A80036; stroke-width: 1.0; stroke-dasharray: 7.0,7.0;"/><polygon fill="#A80036" points="1336,335.85,1340,326.85,1336,330.85,1332,326.85,1336,335.85" style="stroke: #A80036; stroke-width: 1.0;"/><!--link soen6441riskgame.models.Country to soen6441riskgame.models.Viewable--><path d="M1354.65,352 C1389.96,352 1433.83,352 1433.83,352 C1433.83,352 1433.83,499.9931 1433.83,499.9931 " fill="none" id="soen6441riskgame.models.Country-soen6441riskgame.models.Viewable" style="stroke: #A80036; stroke-width: 1.0; stroke-dasharray: 7.0,7.0;"/><polygon fill="none" points="1440.83,499.9931,1433.83,519.9931,1426.83,499.9931,1440.83,499.9931" style="stroke: #A80036; stroke-width: 1.0;"/><!--link soen6441riskgame.models.Country to soen6441riskgame.models.Country--><path d="M1286,335.774 C1286,328.273 1286,321 1286,321 C1286,321 1257.64,321 1257.64,321 C1257.64,321 1257.64,398 1257.64,398 C1257.64,398 1282.75,398 1282.75,398 C1282.75,398 1282.75,373.089 1282.75,373.089 " fill="none" id="soen6441riskgame.models.Country-soen6441riskgame.models.Country" style="stroke: #A80036; stroke-width: 1.0; stroke-dasharray: 7.0,7.0;"/><polygon fill="#A80036" points="1282.75,368.089,1278.75,377.089,1282.75,373.089,1286.75,377.089,1282.75,368.089" style="stroke: #A80036; stroke-width: 1.0;"/><!--link soen6441riskgame.models.ModelCommands to soen6441riskgame.models.ModelCommandsPair--><path d="M1151,92.025 C1151,92.025 1151,146.85 1151,146.85 " fill="none" id="soen6441riskgame.models.ModelCommands-soen6441riskgame.models.ModelCommandsPair" style="stroke: #A80036; stroke-width: 1.0;"/><polygon fill="#A80036" points="1151,151.85,1155,142.85,1151,146.85,1147,142.85,1151,151.85" style="stroke: #A80036; stroke-width: 1.0;"/><text fill="#000000" font-family="sans-serif" font-size="13" lengthAdjust="spacingAndGlyphs" textLength="74" x="1059.8125" y="141.104">subRoutine *</text><!--link soen6441riskgame.models.Player to soen6441riskgame.models.Player--><path d="M1284.17,243.802 C1284.17,227.264 1284.17,204 1284.17,204 C1284.17,204 1256.43,204 1256.43,204 C1256.43,204 1256.43,306 1256.43,306 C1256.43,306 1311,306 1311,306 C1311,306 1311,281.089 1311,281.089 " fill="none" id="soen6441riskgame.models.Player-soen6441riskgame.models.Player" style="stroke: #A80036; stroke-width: 1.0;"/><polygon fill="#A80036" points="1311,276.089,1307,285.089,1311,281.089,1315,285.089,1311,276.089" style="stroke: #A80036; stroke-width: 1.0;"/><text fill="#000000" font-family="sans-serif" font-size="13" lengthAdjust="spacingAndGlyphs" textLength="62" x="1238.7313" y="297.6218">nextPlayer</text><!--link soen6441riskgame.models.Player to soen6441riskgame.models.Player--><path d="M1278.83,243.685 C1278.83,234.16 1278.83,224 1278.83,224 C1278.83,224 1261.29,224 1261.29,224 C1261.29,224 1261.29,291 1261.29,291 C1261.29,291 1298.5,291 1298.5,291 C1298.5,291 1298.5,281.226 1298.5,281.226 " fill="none" id="soen6441riskgame.models.Player-soen6441riskgame.models.Player" style="stroke: #A80036; stroke-width: 1.0;"/><polygon fill="#A80036" points="1298.5,276.226,1294.5,285.226,1298.5,281.226,1302.5,285.226,1298.5,276.226" style="stroke: #A80036; stroke-width: 1.0;"/><text fill="#000000" font-family="sans-serif" font-size="13" lengthAdjust="spacingAndGlyphs" textLength="84" x="1181.1188" y="278.8672">previousPlayer</text><!--link soen6441riskgame.models.commands.GameCommands to soen6441riskgame.models.commands.MapEditorCommands--><!--link soen6441riskgame.models.commands.GameCommands to soen6441riskgame.models.commands.TournamentCommands--><!--link soen6441riskgame.models.strategies.AggressiveStrategy to soen6441riskgame.models.strategies.BenevolentStrategy--><!--link soen6441riskgame.models.strategies.BenevolentStrategy to soen6441riskgame.models.strategies.CheaterStrategy--><!--link soen6441riskgame.models.strategies.AggressiveStrategy to soen6441riskgame.models.strategies.HumanStrategy--><!--link soen6441riskgame.models.strategies.HumanStrategy to soen6441riskgame.models.strategies.RandomStrategy--><!--link soen6441riskgame.models.strategies.RandomStrategy to soen6441riskgame.models.strategies.Strategy--><!--
@startuml

skinparam svgLinkTarget _parent
skinparam linetype ortho
package soen6441riskgame.models [[../../soen6441riskgame/models/package-summary.html{soen6441riskgame.models}]] #lightyellow {
}

class "<b><size:14>Boundary</b>" as soen6441riskgame.models.Boundary  [[../../soen6441riskgame/models/Boundary.html{soen6441riskgame.models.Boundary}]] {
}

hide soen6441riskgame.models.Boundary fields
hide soen6441riskgame.models.Boundary methods

class "<b><size:14>Card</b>" as soen6441riskgame.models.Card  [[../../soen6441riskgame/models/Card.html{soen6441riskgame.models.Card}]] {
}

hide soen6441riskgame.models.Card fields
hide soen6441riskgame.models.Card methods

class "<b><size:14>CardSet</b>" as soen6441riskgame.models.CardSet  [[../../soen6441riskgame/models/CardSet.html{soen6441riskgame.models.CardSet}]] {
}

hide soen6441riskgame.models.CardSet fields
hide soen6441riskgame.models.CardSet methods

class "<b><size:14>Continent</b>" as soen6441riskgame.models.Continent  [[../../soen6441riskgame/models/Continent.html{soen6441riskgame.models.Continent}]] {
}

hide soen6441riskgame.models.Continent fields
hide soen6441riskgame.models.Continent methods

class "<b><size:14>Coordinate</b>" as soen6441riskgame.models.Coordinate  [[../../soen6441riskgame/models/Coordinate.html{soen6441riskgame.models.Coordinate}]] {
}

hide soen6441riskgame.models.Coordinate fields
hide soen6441riskgame.models.Coordinate methods

class "<b><size:14>Country</b>" as soen6441riskgame.models.Country  [[../../soen6441riskgame/models/Country.html{soen6441riskgame.models.Country}]] {
}

hide soen6441riskgame.models.Country fields
hide soen6441riskgame.models.Country methods

class "<b><size:14>ModelCommands</b>" as soen6441riskgame.models.ModelCommands  [[../../soen6441riskgame/models/ModelCommands.html{soen6441riskgame.models.ModelCommands}]] {
}

hide soen6441riskgame.models.ModelCommands fields
hide soen6441riskgame.models.ModelCommands methods

class "<b><size:14>ModelCommandsPair</b>" as soen6441riskgame.models.ModelCommandsPair  [[../../soen6441riskgame/models/ModelCommandsPair.html{soen6441riskgame.models.ModelCommandsPair}]] {
}

hide soen6441riskgame.models.ModelCommandsPair fields
hide soen6441riskgame.models.ModelCommandsPair methods

class "<b><size:14>Player</b>" as soen6441riskgame.models.Player  [[../../soen6441riskgame/models/Player.html{soen6441riskgame.models.Player}]] {
}

hide soen6441riskgame.models.Player fields
hide soen6441riskgame.models.Player methods

interface "<b><size:14>Viewable</b>" as soen6441riskgame.models.Viewable  [[../../soen6441riskgame/models/Viewable.html{soen6441riskgame.models.Viewable}]] {
}

hide soen6441riskgame.models.Viewable fields
hide soen6441riskgame.models.Viewable methods

soen6441riskgame.models.Card - ->  "holdingPlayer" soen6441riskgame.models.Player
soen6441riskgame.models.Card ..|> soen6441riskgame.models.Viewable
soen6441riskgame.models.CardSet ..> soen6441riskgame.models.Card
soen6441riskgame.models.Continent ..> soen6441riskgame.models.Country
soen6441riskgame.models.Continent ..|> soen6441riskgame.models.Viewable
soen6441riskgame.models.Continent ..> soen6441riskgame.models.Player
soen6441riskgame.models.Country - ->  "coordinate" soen6441riskgame.models.Coordinate
soen6441riskgame.models.Country - ->  "continent" soen6441riskgame.models.Continent
soen6441riskgame.models.Country - ->  "conquerer" soen6441riskgame.models.Player
soen6441riskgame.models.Country ..|> soen6441riskgame.models.Viewable
soen6441riskgame.models.Country ..> soen6441riskgame.models.Country
soen6441riskgame.models.ModelCommands - ->  "subRoutine *" soen6441riskgame.models.ModelCommandsPair
soen6441riskgame.models.Player - ->  "nextPlayer" soen6441riskgame.models.Player
soen6441riskgame.models.Player - ->  "previousPlayer" soen6441riskgame.models.Player
soen6441riskgame.models.Player ..> soen6441riskgame.models.Card
soen6441riskgame.models.Player ..> soen6441riskgame.models.Continent
soen6441riskgame.models.Player ..> soen6441riskgame.models.Country
package soen6441riskgame.models.commands [[../../soen6441riskgame/models/commands/package-summary.html{soen6441riskgame.models.commands}]] {
}

class "<b><size:14>GameCommands</b>" as soen6441riskgame.models.commands.GameCommands  [[../../soen6441riskgame/models/commands/GameCommands.html{soen6441riskgame.models.commands.GameCommands}]] {
}

hide soen6441riskgame.models.commands.GameCommands fields
hide soen6441riskgame.models.commands.GameCommands methods

class "<b><size:14>MapEditorCommands</b>" as soen6441riskgame.models.commands.MapEditorCommands  [[../../soen6441riskgame/models/commands/MapEditorCommands.html{soen6441riskgame.models.commands.MapEditorCommands}]] {
}

hide soen6441riskgame.models.commands.MapEditorCommands fields
hide soen6441riskgame.models.commands.MapEditorCommands methods

class "<b><size:14>TournamentCommands</b>" as soen6441riskgame.models.commands.TournamentCommands  [[../../soen6441riskgame/models/commands/TournamentCommands.html{soen6441riskgame.models.commands.TournamentCommands}]] {
}

hide soen6441riskgame.models.commands.TournamentCommands fields
hide soen6441riskgame.models.commands.TournamentCommands methods

package soen6441riskgame.models.serializers [[../../soen6441riskgame/models/serializers/package-summary.html{soen6441riskgame.models.serializers}]] {
}

class "<b><size:14>SerializableGame</b>" as soen6441riskgame.models.serializers.SerializableGame  [[../../soen6441riskgame/models/serializers/SerializableGame.html{soen6441riskgame.models.serializers.SerializableGame}]] {
}

hide soen6441riskgame.models.serializers.SerializableGame fields
hide soen6441riskgame.models.serializers.SerializableGame methods

class "<b><size:14>SerializableGame.Builder</b>" as soen6441riskgame.models.serializers.SerializableGame.Builder  [[../../soen6441riskgame/models/serializers/SerializableGame.Builder.html{soen6441riskgame.models.serializers.SerializableGame.Builder}]] {
}

hide soen6441riskgame.models.serializers.SerializableGame.Builder fields
hide soen6441riskgame.models.serializers.SerializableGame.Builder methods

package soen6441riskgame.models.strategies [[../../soen6441riskgame/models/strategies/package-summary.html{soen6441riskgame.models.strategies}]] {
}

class "<b><size:14>AggressiveStrategy</b>" as soen6441riskgame.models.strategies.AggressiveStrategy  [[../../soen6441riskgame/models/strategies/AggressiveStrategy.html{soen6441riskgame.models.strategies.AggressiveStrategy}]] {
}

hide soen6441riskgame.models.strategies.AggressiveStrategy fields
hide soen6441riskgame.models.strategies.AggressiveStrategy methods

class "<b><size:14>BenevolentStrategy</b>" as soen6441riskgame.models.strategies.BenevolentStrategy  [[../../soen6441riskgame/models/strategies/BenevolentStrategy.html{soen6441riskgame.models.strategies.BenevolentStrategy}]] {
}

hide soen6441riskgame.models.strategies.BenevolentStrategy fields
hide soen6441riskgame.models.strategies.BenevolentStrategy methods

class "<b><size:14>CheaterStrategy</b>" as soen6441riskgame.models.strategies.CheaterStrategy  [[../../soen6441riskgame/models/strategies/CheaterStrategy.html{soen6441riskgame.models.strategies.CheaterStrategy}]] {
}

hide soen6441riskgame.models.strategies.CheaterStrategy fields
hide soen6441riskgame.models.strategies.CheaterStrategy methods

class "<b><size:14>HumanStrategy</b>" as soen6441riskgame.models.strategies.HumanStrategy  [[../../soen6441riskgame/models/strategies/HumanStrategy.html{soen6441riskgame.models.strategies.HumanStrategy}]] {
}

hide soen6441riskgame.models.strategies.HumanStrategy fields
hide soen6441riskgame.models.strategies.HumanStrategy methods

class "<b><size:14>RandomStrategy</b>" as soen6441riskgame.models.strategies.RandomStrategy  [[../../soen6441riskgame/models/strategies/RandomStrategy.html{soen6441riskgame.models.strategies.RandomStrategy}]] {
}

hide soen6441riskgame.models.strategies.RandomStrategy fields
hide soen6441riskgame.models.strategies.RandomStrategy methods

interface "<b><size:14>Strategy</b>" as soen6441riskgame.models.strategies.Strategy  [[../../soen6441riskgame/models/strategies/Strategy.html{soen6441riskgame.models.strategies.Strategy}]] {
}

hide soen6441riskgame.models.strategies.Strategy fields
hide soen6441riskgame.models.strategies.Strategy methods


@enduml

PlantUML version 1.2017.15(Mon Jul 03 12:45:34 EDT 2017)
(GPL source distribution)
Java Runtime: Java(TM) SE Runtime Environment
JVM: Java HotSpot(TM) 64-Bit Server VM
Java Version: 1.8.0_231-b11
Operating System: Windows 10
OS Version: 10.0
Default Encoding: Cp1252
Language: en
Country: US
--></g></svg>