<?xml version="1.0" encoding="UTF-8" standalone="no"?><svg xmlns="http://www.w3.org/2000/svg" xmlns:xlink="http://www.w3.org/1999/xlink" contentScriptType="application/ecmascript" contentStyleType="text/css" height="488px" preserveAspectRatio="none" style="width:1966px;height:488px;" version="1.1" viewBox="0 0 1966 488" width="1966px" zoomAndPan="magnify"><defs><filter height="300%" id="f6zv4r9lyciur" width="300%" x="-1" y="-1"><feGaussianBlur result="blurOut" stdDeviation="2.0"/><feColorMatrix in="blurOut" result="blurOut2" type="matrix" values="0 0 0 0 0 0 0 0 0 0 0 0 0 0 0 0 0 0 .4 0"/><feOffset dx="4.0" dy="4.0" in="blurOut2" result="blurOut3"/><feBlend in="SourceGraphic" in2="blurOut3" mode="normal"/></filter></defs><g><!--cluster soen6441riskgame.models--><a target="_parent" xlink:actuate="onRequest" xlink:href="../../soen6441riskgame/models/package-summary.html" xlink:show="new" xlink:title="soen6441riskgame.models" xlink:type="simple"><polygon fill="#FFFFE0" filter="url(#f6zv4r9lyciur)" points="1058,24,1250,24,1257,47.6094,1491,47.6094,1491,476,1058,476,1058,24" style="stroke: #000000; stroke-width: 2.0;"/><line style="stroke: #000000; stroke-width: 2.0;" x1="1058" x2="1257" y1="47.6094" y2="47.6094"/><text fill="#000000" font-family="sans-serif" font-size="14" font-weight="bold" lengthAdjust="spacingAndGlyphs" textLength="186" x="1062" y="40.5332">soen6441riskgame.models</text></a><!--cluster soen6441riskgame.models.commands--><a target="_parent" xlink:actuate="onRequest" xlink:href="../../soen6441riskgame/models/commands/package-summary.html" xlink:show="new" xlink:title="soen6441riskgame.models.commands" xlink:type="simple"><polygon fill="#FFFFFF" filter="url(#f6zv4r9lyciur)" points="22,24,293,24,300,47.6094,420,47.6094,420,200,22,200,22,24" style="stroke: #000000; stroke-width: 2.0;"/><line style="stroke: #000000; stroke-width: 2.0;" x1="22" x2="300" y1="47.6094" y2="47.6094"/><text fill="#000000" font-family="sans-serif" font-size="14" font-weight="bold" lengthAdjust="spacingAndGlyphs" textLength="265" x="26" y="40.5332">soen6441riskgame.models.commands</text></a><!--cluster soen6441riskgame.models.serializers--><a target="_parent" xlink:actuate="onRequest" xlink:href="../../soen6441riskgame/models/serializers/package-summary.html" xlink:show="new" xlink:title="soen6441riskgame.models.serializers" xlink:type="simple"><polygon fill="#FFFFFF" filter="url(#f6zv4r9lyciur)" points="1515,24,1784,24,1791,47.6094,1944,47.6094,1944,108,1515,108,1515,24" style="stroke: #000000; stroke-width: 2.0;"/><line style="stroke: #000000; stroke-width: 2.0;" x1="1515" x2="1791" y1="47.6094" y2="47.6094"/><text fill="#000000" font-family="sans-serif" font-size="14" font-weight="bold" lengthAdjust="spacingAndGlyphs" textLength="263" x="1519" y="40.5332">soen6441riskgame.models.serializers</text></a><!--cluster soen6441riskgame.models.strategies--><a target="_parent" xlink:actuate="onRequest" xlink:href="../../soen6441riskgame/models/strategies/package-summary.html" xlink:show="new" xlink:title="soen6441riskgame.models.strategies" xlink:type="simple"><polygon fill="#FFFFFF" filter="url(#f6zv4r9lyciur)" points="444,24,711,24,718,47.6094,1034,47.6094,1034,200,444,200,444,24" style="stroke: #000000; stroke-width: 2.0;"/><line style="stroke: #000000; stroke-width: 2.0;" x1="444" x2="718" y1="47.6094" y2="47.6094"/><text fill="#000000" font-family="sans-serif" font-size="14" font-weight="bold" lengthAdjust="spacingAndGlyphs" textLength="261" x="448" y="40.5332">soen6441riskgame.models.strategies</text></a><!--class soen6441riskgame.models.Boundary--><a target="_parent" xlink:actuate="onRequest" xlink:href="../../soen6441riskgame/models/Boundary.html" xlink:show="new" xlink:title="soen6441riskgame.models.Boundary" xlink:type="simple"><rect fill="#FEFECE" filter="url(#f6zv4r9lyciur)" height="32" id="soen6441riskgame.models.Boundary" style="stroke: #A80036; stroke-width: 1.5;" width="99" x="1375.5" y="60"/><ellipse cx="1390.5" cy="76" fill="#ADD1B2" rx="11" ry="11" style="stroke: #A80036; stroke-width: 1.0;"/><path d="M1393.2656,71.875 Q1393.4219,71.6563 1393.6094,71.5469 Q1393.7969,71.4375 1394.0156,71.4375 Q1394.3906,71.4375 1394.625,71.6953 Q1394.8594,71.9531 1394.8594,72.5625 L1394.8594,74.0156 Q1394.8594,74.625 1394.625,74.8906 Q1394.3906,75.1563 1394.0156,75.1563 Q1393.6719,75.1563 1393.4688,74.9531 Q1393.2656,74.7656 1393.1563,74.25 Q1393.1094,73.8906 1392.9219,73.7031 Q1392.5938,73.3281 1391.9844,73.1094 Q1391.375,72.8906 1390.75,72.8906 Q1389.9844,72.8906 1389.3516,73.2188 Q1388.7188,73.5469 1388.2266,74.2969 Q1387.7344,75.0469 1387.7344,76.0781 L1387.7344,77.1719 Q1387.7344,78.4063 1388.625,79.2266 Q1389.5156,80.0469 1391.1094,80.0469 Q1392.0469,80.0469 1392.7031,79.7969 Q1393.0938,79.6406 1393.5156,79.2031 Q1393.7813,78.9375 1393.9297,78.8594 Q1394.0781,78.7813 1394.2813,78.7813 Q1394.6094,78.7813 1394.8672,79.0391 Q1395.125,79.2969 1395.125,79.6406 Q1395.125,79.9844 1394.7813,80.3906 Q1394.2813,80.9688 1393.4844,81.2969 Q1392.4063,81.75 1391.1094,81.75 Q1389.5938,81.75 1388.3906,81.125 Q1387.4063,80.625 1386.7188,79.5547 Q1386.0313,78.4844 1386.0313,77.2031 L1386.0313,76.0469 Q1386.0313,74.7188 1386.6484,73.5703 Q1387.2656,72.4219 1388.3594,71.8047 Q1389.4531,71.1875 1390.6875,71.1875 Q1391.4219,71.1875 1392.0703,71.3516 Q1392.7188,71.5156 1393.2656,71.875 Z "/><text fill="#000000" font-family="sans-serif" font-size="14" font-weight="bold" lengthAdjust="spacingAndGlyphs" textLength="67" x="1404.5" y="81.7285">Boundary</text></a><!--class soen6441riskgame.models.Card--><a target="_parent" xlink:actuate="onRequest" xlink:href="../../soen6441riskgame/models/Card.html" xlink:show="new" xlink:title="soen6441riskgame.models.Card" xlink:type="simple"><rect fill="#FEFECE" filter="url(#f6zv4r9lyciur)" height="32" id="soen6441riskgame.models.Card" style="stroke: #A80036; stroke-width: 1.5;" width="65" x="1275.5" y="60"/><ellipse cx="1290.5" cy="76" fill="#ADD1B2" rx="11" ry="11" style="stroke: #A80036; stroke-width: 1.0;"/><path d="M1293.2656,71.875 Q1293.4219,71.6563 1293.6094,71.5469 Q1293.7969,71.4375 1294.0156,71.4375 Q1294.3906,71.4375 1294.625,71.6953 Q1294.8594,71.9531 1294.8594,72.5625 L1294.8594,74.0156 Q1294.8594,74.625 1294.625,74.8906 Q1294.3906,75.1563 1294.0156,75.1563 Q1293.6719,75.1563 1293.4688,74.9531 Q1293.2656,74.7656 1293.1563,74.25 Q1293.1094,73.8906 1292.9219,73.7031 Q1292.5938,73.3281 1291.9844,73.1094 Q1291.375,72.8906 1290.75,72.8906 Q1289.9844,72.8906 1289.3516,73.2188 Q1288.7188,73.5469 1288.2266,74.2969 Q1287.7344,75.0469 1287.7344,76.0781 L1287.7344,77.1719 Q1287.7344,78.4063 1288.625,79.2266 Q1289.5156,80.0469 1291.1094,80.0469 Q1292.0469,80.0469 1292.7031,79.7969 Q1293.0938,79.6406 1293.5156,79.2031 Q1293.7813,78.9375 1293.9297,78.8594 Q1294.0781,78.7813 1294.2813,78.7813 Q1294.6094,78.7813 1294.8672,79.0391 Q1295.125,79.2969 1295.125,79.6406 Q1295.125,79.9844 1294.7813,80.3906 Q1294.2813,80.9688 1293.4844,81.2969 Q1292.4063,81.75 1291.1094,81.75 Q1289.5938,81.75 1288.3906,81.125 Q1287.4063,80.625 1286.7188,79.5547 Q1286.0313,78.4844 1286.0313,77.2031 L1286.0313,76.0469 Q1286.0313,74.7188 1286.6484,73.5703 Q1287.2656,72.4219 1288.3594,71.8047 Q1289.4531,71.1875 1290.6875,71.1875 Q1291.4219,71.1875 1292.0703,71.3516 Q1292.7188,71.5156 1293.2656,71.875 Z "/><text fill="#000000" font-family="sans-serif" font-size="14" font-weight="bold" lengthAdjust="spacingAndGlyphs" textLength="33" x="1304.5" y="81.7285">Card</text></a><!--class soen6441riskgame.models.CardSet--><a target="_parent" xlink:actuate="onRequest" xlink:href="../../soen6441riskgame/models/CardSet.html" xlink:show="new" xlink:title="soen6441riskgame.models.CardSet" xlink:type="simple"><rect fill="#FEFECE" filter="url(#f6zv4r9lyciur)" height="32" id="soen6441riskgame.models.CardSet" style="stroke: #A80036; stroke-width: 1.5;" width="88" x="1197" y="244"/><ellipse cx="1212" cy="260" fill="#ADD1B2" rx="11" ry="11" style="stroke: #A80036; stroke-width: 1.0;"/><path d="M1214.7656,255.875 Q1214.9219,255.6563 1215.1094,255.5469 Q1215.2969,255.4375 1215.5156,255.4375 Q1215.8906,255.4375 1216.125,255.6953 Q1216.3594,255.9531 1216.3594,256.5625 L1216.3594,258.0156 Q1216.3594,258.625 1216.125,258.8906 Q1215.8906,259.1563 1215.5156,259.1563 Q1215.1719,259.1563 1214.9688,258.9531 Q1214.7656,258.7656 1214.6563,258.25 Q1214.6094,257.8906 1214.4219,257.7031 Q1214.0938,257.3281 1213.4844,257.1094 Q1212.875,256.8906 1212.25,256.8906 Q1211.4844,256.8906 1210.8516,257.2188 Q1210.2188,257.5469 1209.7266,258.2969 Q1209.2344,259.0469 1209.2344,260.0781 L1209.2344,261.1719 Q1209.2344,262.4063 1210.125,263.2266 Q1211.0156,264.0469 1212.6094,264.0469 Q1213.5469,264.0469 1214.2031,263.7969 Q1214.5938,263.6406 1215.0156,263.2031 Q1215.2813,262.9375 1215.4297,262.8594 Q1215.5781,262.7813 1215.7813,262.7813 Q1216.1094,262.7813 1216.3672,263.0391 Q1216.625,263.2969 1216.625,263.6406 Q1216.625,263.9844 1216.2813,264.3906 Q1215.7813,264.9688 1214.9844,265.2969 Q1213.9063,265.75 1212.6094,265.75 Q1211.0938,265.75 1209.8906,265.125 Q1208.9063,264.625 1208.2188,263.5547 Q1207.5313,262.4844 1207.5313,261.2031 L1207.5313,260.0469 Q1207.5313,258.7188 1208.1484,257.5703 Q1208.7656,256.4219 1209.8594,255.8047 Q1210.9531,255.1875 1212.1875,255.1875 Q1212.9219,255.1875 1213.5703,255.3516 Q1214.2188,255.5156 1214.7656,255.875 Z "/><text fill="#000000" font-family="sans-serif" font-size="14" font-weight="bold" lengthAdjust="spacingAndGlyphs" textLength="56" x="1226" y="265.7285">CardSet</text></a><!--class soen6441riskgame.models.Continent--><a target="_parent" xlink:actuate="onRequest" xlink:href="../../soen6441riskgame/models/Continent.html" xlink:show="new" xlink:title="soen6441riskgame.models.Continent" xlink:type="simple"><rect fill="#FEFECE" filter="url(#f6zv4r9lyciur)" height="32" id="soen6441riskgame.models.Continent" style="stroke: #A80036; stroke-width: 1.5;" width="101" x="1191.5" y="336"/><ellipse cx="1206.5" cy="352" fill="#ADD1B2" rx="11" ry="11" style="stroke: #A80036; stroke-width: 1.0;"/><path d="M1209.2656,347.875 Q1209.4219,347.6563 1209.6094,347.5469 Q1209.7969,347.4375 1210.0156,347.4375 Q1210.3906,347.4375 1210.625,347.6953 Q1210.8594,347.9531 1210.8594,348.5625 L1210.8594,350.0156 Q1210.8594,350.625 1210.625,350.8906 Q1210.3906,351.1563 1210.0156,351.1563 Q1209.6719,351.1563 1209.4688,350.9531 Q1209.2656,350.7656 1209.1563,350.25 Q1209.1094,349.8906 1208.9219,349.7031 Q1208.5938,349.3281 1207.9844,349.1094 Q1207.375,348.8906 1206.75,348.8906 Q1205.9844,348.8906 1205.3516,349.2188 Q1204.7188,349.5469 1204.2266,350.2969 Q1203.7344,351.0469 1203.7344,352.0781 L1203.7344,353.1719 Q1203.7344,354.4063 1204.625,355.2266 Q1205.5156,356.0469 1207.1094,356.0469 Q1208.0469,356.0469 1208.7031,355.7969 Q1209.0938,355.6406 1209.5156,355.2031 Q1209.7813,354.9375 1209.9297,354.8594 Q1210.0781,354.7813 1210.2813,354.7813 Q1210.6094,354.7813 1210.8672,355.0391 Q1211.125,355.2969 1211.125,355.6406 Q1211.125,355.9844 1210.7813,356.3906 Q1210.2813,356.9688 1209.4844,357.2969 Q1208.4063,357.75 1207.1094,357.75 Q1205.5938,357.75 1204.3906,357.125 Q1203.4063,356.625 1202.7188,355.5547 Q1202.0313,354.4844 1202.0313,353.2031 L1202.0313,352.0469 Q1202.0313,350.7188 1202.6484,349.5703 Q1203.2656,348.4219 1204.3594,347.8047 Q1205.4531,347.1875 1206.6875,347.1875 Q1207.4219,347.1875 1208.0703,347.3516 Q1208.7188,347.5156 1209.2656,347.875 Z "/><text fill="#000000" font-family="sans-serif" font-size="14" font-weight="bold" lengthAdjust="spacingAndGlyphs" textLength="69" x="1220.5" y="357.7285">Continent</text></a><!--class soen6441riskgame.models.Coordinate--><a target="_parent" xlink:actuate="onRequest" xlink:href="../../soen6441riskgame/models/Coordinate.html" xlink:show="new" xlink:title="soen6441riskgame.models.Coordinate" xlink:type="simple"><rect fill="#FEFECE" filter="url(#f6zv4r9lyciur)" height="32" id="soen6441riskgame.models.Coordinate" style="stroke: #A80036; stroke-width: 1.5;" width="110" x="1328" y="336"/><ellipse cx="1343" cy="352" fill="#ADD1B2" rx="11" ry="11" style="stroke: #A80036; stroke-width: 1.0;"/><path d="M1345.7656,347.875 Q1345.9219,347.6563 1346.1094,347.5469 Q1346.2969,347.4375 1346.5156,347.4375 Q1346.8906,347.4375 1347.125,347.6953 Q1347.3594,347.9531 1347.3594,348.5625 L1347.3594,350.0156 Q1347.3594,350.625 1347.125,350.8906 Q1346.8906,351.1563 1346.5156,351.1563 Q1346.1719,351.1563 1345.9688,350.9531 Q1345.7656,350.7656 1345.6563,350.25 Q1345.6094,349.8906 1345.4219,349.7031 Q1345.0938,349.3281 1344.4844,349.1094 Q1343.875,348.8906 1343.25,348.8906 Q1342.4844,348.8906 1341.8516,349.2188 Q1341.2188,349.5469 1340.7266,350.2969 Q1340.2344,351.0469 1340.2344,352.0781 L1340.2344,353.1719 Q1340.2344,354.4063 1341.125,355.2266 Q1342.0156,356.0469 1343.6094,356.0469 Q1344.5469,356.0469 1345.2031,355.7969 Q1345.5938,355.6406 1346.0156,355.2031 Q1346.2813,354.9375 1346.4297,354.8594 Q1346.5781,354.7813 1346.7813,354.7813 Q1347.1094,354.7813 1347.3672,355.0391 Q1347.625,355.2969 1347.625,355.6406 Q1347.625,355.9844 1347.2813,356.3906 Q1346.7813,356.9688 1345.9844,357.2969 Q1344.9063,357.75 1343.6094,357.75 Q1342.0938,357.75 1340.8906,357.125 Q1339.9063,356.625 1339.2188,355.5547 Q1338.5313,354.4844 1338.5313,353.2031 L1338.5313,352.0469 Q1338.5313,350.7188 1339.1484,349.5703 Q1339.7656,348.4219 1340.8594,347.8047 Q1341.9531,347.1875 1343.1875,347.1875 Q1343.9219,347.1875 1344.5703,347.3516 Q1345.2188,347.5156 1345.7656,347.875 Z "/><text fill="#000000" font-family="sans-serif" font-size="14" font-weight="bold" lengthAdjust="spacingAndGlyphs" textLength="78" x="1357" y="357.7285">Coordinate</text></a><!--class soen6441riskgame.models.Country--><a target="_parent" xlink:actuate="onRequest" xlink:href="../../soen6441riskgame/models/Country.html" xlink:show="new" xlink:title="soen6441riskgame.models.Country" xlink:type="simple"><rect fill="#FEFECE" filter="url(#f6zv4r9lyciur)" height="32" id="soen6441riskgame.models.Country" style="stroke: #A80036; stroke-width: 1.5;" width="87" x="1357.5" y="244"/><ellipse cx="1372.5" cy="260" fill="#ADD1B2" rx="11" ry="11" style="stroke: #A80036; stroke-width: 1.0;"/><path d="M1375.2656,255.875 Q1375.4219,255.6563 1375.6094,255.5469 Q1375.7969,255.4375 1376.0156,255.4375 Q1376.3906,255.4375 1376.625,255.6953 Q1376.8594,255.9531 1376.8594,256.5625 L1376.8594,258.0156 Q1376.8594,258.625 1376.625,258.8906 Q1376.3906,259.1563 1376.0156,259.1563 Q1375.6719,259.1563 1375.4688,258.9531 Q1375.2656,258.7656 1375.1563,258.25 Q1375.1094,257.8906 1374.9219,257.7031 Q1374.5938,257.3281 1373.9844,257.1094 Q1373.375,256.8906 1372.75,256.8906 Q1371.9844,256.8906 1371.3516,257.2188 Q1370.7188,257.5469 1370.2266,258.2969 Q1369.7344,259.0469 1369.7344,260.0781 L1369.7344,261.1719 Q1369.7344,262.4063 1370.625,263.2266 Q1371.5156,264.0469 1373.1094,264.0469 Q1374.0469,264.0469 1374.7031,263.7969 Q1375.0938,263.6406 1375.5156,263.2031 Q1375.7813,262.9375 1375.9297,262.8594 Q1376.0781,262.7813 1376.2813,262.7813 Q1376.6094,262.7813 1376.8672,263.0391 Q1377.125,263.2969 1377.125,263.6406 Q1377.125,263.9844 1376.7813,264.3906 Q1376.2813,264.9688 1375.4844,265.2969 Q1374.4063,265.75 1373.1094,265.75 Q1371.5938,265.75 1370.3906,265.125 Q1369.4063,264.625 1368.7188,263.5547 Q1368.0313,262.4844 1368.0313,261.2031 L1368.0313,260.0469 Q1368.0313,258.7188 1368.6484,257.5703 Q1369.2656,256.4219 1370.3594,255.8047 Q1371.4531,255.1875 1372.6875,255.1875 Q1373.4219,255.1875 1374.0703,255.3516 Q1374.7188,255.5156 1375.2656,255.875 Z "/><text fill="#000000" font-family="sans-serif" font-size="14" font-weight="bold" lengthAdjust="spacingAndGlyphs" textLength="55" x="1386.5" y="265.7285">Country</text></a><!--class soen6441riskgame.models.ModelCommands--><a target="_parent" xlink:actuate="onRequest" xlink:href="../../soen6441riskgame/models/ModelCommands.html" xlink:show="new" xlink:title="soen6441riskgame.models.ModelCommands" xlink:type="simple"><rect fill="#FEFECE" filter="url(#f6zv4r9lyciur)" height="32" id="soen6441riskgame.models.ModelCommands" style="stroke: #A80036; stroke-width: 1.5;" width="153" x="1087.5" y="60"/><ellipse cx="1102.5" cy="76" fill="#ADD1B2" rx="11" ry="11" style="stroke: #A80036; stroke-width: 1.0;"/><path d="M1105.2656,71.875 Q1105.4219,71.6563 1105.6094,71.5469 Q1105.7969,71.4375 1106.0156,71.4375 Q1106.3906,71.4375 1106.625,71.6953 Q1106.8594,71.9531 1106.8594,72.5625 L1106.8594,74.0156 Q1106.8594,74.625 1106.625,74.8906 Q1106.3906,75.1563 1106.0156,75.1563 Q1105.6719,75.1563 1105.4688,74.9531 Q1105.2656,74.7656 1105.1563,74.25 Q1105.1094,73.8906 1104.9219,73.7031 Q1104.5938,73.3281 1103.9844,73.1094 Q1103.375,72.8906 1102.75,72.8906 Q1101.9844,72.8906 1101.3516,73.2188 Q1100.7188,73.5469 1100.2266,74.2969 Q1099.7344,75.0469 1099.7344,76.0781 L1099.7344,77.1719 Q1099.7344,78.4063 1100.625,79.2266 Q1101.5156,80.0469 1103.1094,80.0469 Q1104.0469,80.0469 1104.7031,79.7969 Q1105.0938,79.6406 1105.5156,79.2031 Q1105.7813,78.9375 1105.9297,78.8594 Q1106.0781,78.7813 1106.2813,78.7813 Q1106.6094,78.7813 1106.8672,79.0391 Q1107.125,79.2969 1107.125,79.6406 Q1107.125,79.9844 1106.7813,80.3906 Q1106.2813,80.9688 1105.4844,81.2969 Q1104.4063,81.75 1103.1094,81.75 Q1101.5938,81.75 1100.3906,81.125 Q1099.4063,80.625 1098.7188,79.5547 Q1098.0313,78.4844 1098.0313,77.2031 L1098.0313,76.0469 Q1098.0313,74.7188 1098.6484,73.5703 Q1099.2656,72.4219 1100.3594,71.8047 Q1101.4531,71.1875 1102.6875,71.1875 Q1103.4219,71.1875 1104.0703,71.3516 Q1104.7188,71.5156 1105.2656,71.875 Z "/><text fill="#000000" font-family="sans-serif" font-size="14" font-weight="bold" lengthAdjust="spacingAndGlyphs" textLength="121" x="1116.5" y="81.7285">ModelCommands</text></a><!--class soen6441riskgame.models.ModelCommandsPair--><a target="_parent" xlink:actuate="onRequest" xlink:href="../../soen6441riskgame/models/ModelCommandsPair.html" xlink:show="new" xlink:title="soen6441riskgame.models.ModelCommandsPair" xlink:type="simple"><rect fill="#FEFECE" filter="url(#f6zv4r9lyciur)" height="32" id="soen6441riskgame.models.ModelCommandsPair" style="stroke: #A80036; stroke-width: 1.5;" width="180" x="1074" y="152"/><ellipse cx="1089" cy="168" fill="#ADD1B2" rx="11" ry="11" style="stroke: #A80036; stroke-width: 1.0;"/><path d="M1091.7656,163.875 Q1091.9219,163.6563 1092.1094,163.5469 Q1092.2969,163.4375 1092.5156,163.4375 Q1092.8906,163.4375 1093.125,163.6953 Q1093.3594,163.9531 1093.3594,164.5625 L1093.3594,166.0156 Q1093.3594,166.625 1093.125,166.8906 Q1092.8906,167.1563 1092.5156,167.1563 Q1092.1719,167.1563 1091.9688,166.9531 Q1091.7656,166.7656 1091.6563,166.25 Q1091.6094,165.8906 1091.4219,165.7031 Q1091.0938,165.3281 1090.4844,165.1094 Q1089.875,164.8906 1089.25,164.8906 Q1088.4844,164.8906 1087.8516,165.2188 Q1087.2188,165.5469 1086.7266,166.2969 Q1086.2344,167.0469 1086.2344,168.0781 L1086.2344,169.1719 Q1086.2344,170.4063 1087.125,171.2266 Q1088.0156,172.0469 1089.6094,172.0469 Q1090.5469,172.0469 1091.2031,171.7969 Q1091.5938,171.6406 1092.0156,171.2031 Q1092.2813,170.9375 1092.4297,170.8594 Q1092.5781,170.7813 1092.7813,170.7813 Q1093.1094,170.7813 1093.3672,171.0391 Q1093.625,171.2969 1093.625,171.6406 Q1093.625,171.9844 1093.2813,172.3906 Q1092.7813,172.9688 1091.9844,173.2969 Q1090.9063,173.75 1089.6094,173.75 Q1088.0938,173.75 1086.8906,173.125 Q1085.9063,172.625 1085.2188,171.5547 Q1084.5313,170.4844 1084.5313,169.2031 L1084.5313,168.0469 Q1084.5313,166.7188 1085.1484,165.5703 Q1085.7656,164.4219 1086.8594,163.8047 Q1087.9531,163.1875 1089.1875,163.1875 Q1089.9219,163.1875 1090.5703,163.3516 Q1091.2188,163.5156 1091.7656,163.875 Z "/><text fill="#000000" font-family="sans-serif" font-size="14" font-weight="bold" lengthAdjust="spacingAndGlyphs" textLength="148" x="1103" y="173.7285">ModelCommandsPair</text></a><!--class soen6441riskgame.models.Player--><a target="_parent" xlink:actuate="onRequest" xlink:href="../../soen6441riskgame/models/Player.html" xlink:show="new" xlink:title="soen6441riskgame.models.Player" xlink:type="simple"><rect fill="#FEFECE" filter="url(#f6zv4r9lyciur)" height="32" id="soen6441riskgame.models.Player" style="stroke: #A80036; stroke-width: 1.5;" width="75" x="1363.5" y="152"/><ellipse cx="1378.5" cy="168" fill="#ADD1B2" rx="11" ry="11" style="stroke: #A80036; stroke-width: 1.0;"/><path d="M1381.2656,163.875 Q1381.4219,163.6563 1381.6094,163.5469 Q1381.7969,163.4375 1382.0156,163.4375 Q1382.3906,163.4375 1382.625,163.6953 Q1382.8594,163.9531 1382.8594,164.5625 L1382.8594,166.0156 Q1382.8594,166.625 1382.625,166.8906 Q1382.3906,167.1563 1382.0156,167.1563 Q1381.6719,167.1563 1381.4688,166.9531 Q1381.2656,166.7656 1381.1563,166.25 Q1381.1094,165.8906 1380.9219,165.7031 Q1380.5938,165.3281 1379.9844,165.1094 Q1379.375,164.8906 1378.75,164.8906 Q1377.9844,164.8906 1377.3516,165.2188 Q1376.7188,165.5469 1376.2266,166.2969 Q1375.7344,167.0469 1375.7344,168.0781 L1375.7344,169.1719 Q1375.7344,170.4063 1376.625,171.2266 Q1377.5156,172.0469 1379.1094,172.0469 Q1380.0469,172.0469 1380.7031,171.7969 Q1381.0938,171.6406 1381.5156,171.2031 Q1381.7813,170.9375 1381.9297,170.8594 Q1382.0781,170.7813 1382.2813,170.7813 Q1382.6094,170.7813 1382.8672,171.0391 Q1383.125,171.2969 1383.125,171.6406 Q1383.125,171.9844 1382.7813,172.3906 Q1382.2813,172.9688 1381.4844,173.2969 Q1380.4063,173.75 1379.1094,173.75 Q1377.5938,173.75 1376.3906,173.125 Q1375.4063,172.625 1374.7188,171.5547 Q1374.0313,170.4844 1374.0313,169.2031 L1374.0313,168.0469 Q1374.0313,166.7188 1374.6484,165.5703 Q1375.2656,164.4219 1376.3594,163.8047 Q1377.4531,163.1875 1378.6875,163.1875 Q1379.4219,163.1875 1380.0703,163.3516 Q1380.7188,163.5156 1381.2656,163.875 Z "/><text fill="#000000" font-family="sans-serif" font-size="14" font-weight="bold" lengthAdjust="spacingAndGlyphs" textLength="43" x="1392.5" y="173.7285">Player</text></a><!--class soen6441riskgame.models.Viewable--><a target="_parent" xlink:actuate="onRequest" xlink:href="../../soen6441riskgame/models/Viewable.html" xlink:show="new" xlink:title="soen6441riskgame.models.Viewable" xlink:type="simple"><rect fill="#FEFECE" filter="url(#f6zv4r9lyciur)" height="32" id="soen6441riskgame.models.Viewable" style="stroke: #A80036; stroke-width: 1.5;" width="94" x="1195" y="428"/><ellipse cx="1210" cy="444" fill="#B4A7E5" rx="11" ry="11" style="stroke: #A80036; stroke-width: 1.0;"/><path d="M1210.9531,440.6406 L1210.9531,447.2969 L1212.6719,447.2969 Q1213.2813,447.2969 1213.5469,447.5313 Q1213.8125,447.7656 1213.8125,448.1563 Q1213.8125,448.5313 1213.5469,448.7656 Q1213.2813,449 1212.6719,449 L1207.5313,449 Q1206.9219,449 1206.6563,448.7656 Q1206.3906,448.5313 1206.3906,448.1406 Q1206.3906,447.7656 1206.6563,447.5313 Q1206.9219,447.2969 1207.5313,447.2969 L1209.25,447.2969 L1209.25,440.6406 L1207.5313,440.6406 Q1206.9219,440.6406 1206.6563,440.4063 Q1206.3906,440.1719 1206.3906,439.7813 Q1206.3906,439.4063 1206.6563,439.1719 Q1206.9219,438.9375 1207.5313,438.9375 L1212.6719,438.9375 Q1213.2813,438.9375 1213.5469,439.1719 Q1213.8125,439.4063 1213.8125,439.7813 Q1213.8125,440.1719 1213.5469,440.4063 Q1213.2813,440.6406 1212.6719,440.6406 L1210.9531,440.6406 Z "/><text fill="#000000" font-family="sans-serif" font-size="14" font-style="italic" font-weight="bold" lengthAdjust="spacingAndGlyphs" textLength="62" x="1224" y="449.7285">Viewable</text></a><!--class soen6441riskgame.models.commands.GameCommands--><a target="_parent" xlink:actuate="onRequest" xlink:href="../../soen6441riskgame/models/commands/GameCommands.html" xlink:show="new" xlink:title="soen6441riskgame.models.commands.GameCommands" xlink:type="simple"><rect fill="#FEFECE" filter="url(#f6zv4r9lyciur)" height="32" id="soen6441riskgame.models.commands.GameCommands" style="stroke: #A80036; stroke-width: 1.5;" width="149" x="38.5" y="60"/><ellipse cx="53.5" cy="76" fill="#ADD1B2" rx="11" ry="11" style="stroke: #A80036; stroke-width: 1.0;"/><path d="M56.2656,71.875 Q56.4219,71.6563 56.6094,71.5469 Q56.7969,71.4375 57.0156,71.4375 Q57.3906,71.4375 57.625,71.6953 Q57.8594,71.9531 57.8594,72.5625 L57.8594,74.0156 Q57.8594,74.625 57.625,74.8906 Q57.3906,75.1563 57.0156,75.1563 Q56.6719,75.1563 56.4688,74.9531 Q56.2656,74.7656 56.1563,74.25 Q56.1094,73.8906 55.9219,73.7031 Q55.5938,73.3281 54.9844,73.1094 Q54.375,72.8906 53.75,72.8906 Q52.9844,72.8906 52.3516,73.2188 Q51.7188,73.5469 51.2266,74.2969 Q50.7344,75.0469 50.7344,76.0781 L50.7344,77.1719 Q50.7344,78.4063 51.625,79.2266 Q52.5156,80.0469 54.1094,80.0469 Q55.0469,80.0469 55.7031,79.7969 Q56.0938,79.6406 56.5156,79.2031 Q56.7813,78.9375 56.9297,78.8594 Q57.0781,78.7813 57.2813,78.7813 Q57.6094,78.7813 57.8672,79.0391 Q58.125,79.2969 58.125,79.6406 Q58.125,79.9844 57.7813,80.3906 Q57.2813,80.9688 56.4844,81.2969 Q55.4063,81.75 54.1094,81.75 Q52.5938,81.75 51.3906,81.125 Q50.4063,80.625 49.7188,79.5547 Q49.0313,78.4844 49.0313,77.2031 L49.0313,76.0469 Q49.0313,74.7188 49.6484,73.5703 Q50.2656,72.4219 51.3594,71.8047 Q52.4531,71.1875 53.6875,71.1875 Q54.4219,71.1875 55.0703,71.3516 Q55.7188,71.5156 56.2656,71.875 Z "/><text fill="#000000" font-family="sans-serif" font-size="14" font-weight="bold" lengthAdjust="spacingAndGlyphs" textLength="117" x="67.5" y="81.7285">GameCommands</text></a><!--class soen6441riskgame.models.commands.MapEditorCommands--><a target="_parent" xlink:actuate="onRequest" xlink:href="../../soen6441riskgame/models/commands/MapEditorCommands.html" xlink:show="new" xlink:title="soen6441riskgame.models.commands.MapEditorCommands" xlink:type="simple"><rect fill="#FEFECE" filter="url(#f6zv4r9lyciur)" height="32" id="soen6441riskgame.models.commands.MapEditorCommands" style="stroke: #A80036; stroke-width: 1.5;" width="181" x="222.5" y="60"/><ellipse cx="237.5" cy="76" fill="#ADD1B2" rx="11" ry="11" style="stroke: #A80036; stroke-width: 1.0;"/><path d="M240.2656,71.875 Q240.4219,71.6563 240.6094,71.5469 Q240.7969,71.4375 241.0156,71.4375 Q241.3906,71.4375 241.625,71.6953 Q241.8594,71.9531 241.8594,72.5625 L241.8594,74.0156 Q241.8594,74.625 241.625,74.8906 Q241.3906,75.1563 241.0156,75.1563 Q240.6719,75.1563 240.4688,74.9531 Q240.2656,74.7656 240.1563,74.25 Q240.1094,73.8906 239.9219,73.7031 Q239.5938,73.3281 238.9844,73.1094 Q238.375,72.8906 237.75,72.8906 Q236.9844,72.8906 236.3516,73.2188 Q235.7188,73.5469 235.2266,74.2969 Q234.7344,75.0469 234.7344,76.0781 L234.7344,77.1719 Q234.7344,78.4063 235.625,79.2266 Q236.5156,80.0469 238.1094,80.0469 Q239.0469,80.0469 239.7031,79.7969 Q240.0938,79.6406 240.5156,79.2031 Q240.7813,78.9375 240.9297,78.8594 Q241.0781,78.7813 241.2813,78.7813 Q241.6094,78.7813 241.8672,79.0391 Q242.125,79.2969 242.125,79.6406 Q242.125,79.9844 241.7813,80.3906 Q241.2813,80.9688 240.4844,81.2969 Q239.4063,81.75 238.1094,81.75 Q236.5938,81.75 235.3906,81.125 Q234.4063,80.625 233.7188,79.5547 Q233.0313,78.4844 233.0313,77.2031 L233.0313,76.0469 Q233.0313,74.7188 233.6484,73.5703 Q234.2656,72.4219 235.3594,71.8047 Q236.4531,71.1875 237.6875,71.1875 Q238.4219,71.1875 239.0703,71.3516 Q239.7188,71.5156 240.2656,71.875 Z "/><text fill="#000000" font-family="sans-serif" font-size="14" font-weight="bold" lengthAdjust="spacingAndGlyphs" textLength="149" x="251.5" y="81.7285">MapEditorCommands</text></a><!--class soen6441riskgame.models.commands.TournamentCommands--><a target="_parent" xlink:actuate="onRequest" xlink:href="../../soen6441riskgame/models/commands/TournamentCommands.html" xlink:show="new" xlink:title="soen6441riskgame.models.commands.TournamentCommands" xlink:type="simple"><rect fill="#FEFECE" filter="url(#f6zv4r9lyciur)" height="32" id="soen6441riskgame.models.commands.TournamentCommands" style="stroke: #A80036; stroke-width: 1.5;" width="193" x="38.5" y="152"/><ellipse cx="53.5" cy="168" fill="#ADD1B2" rx="11" ry="11" style="stroke: #A80036; stroke-width: 1.0;"/><path d="M56.2656,163.875 Q56.4219,163.6563 56.6094,163.5469 Q56.7969,163.4375 57.0156,163.4375 Q57.3906,163.4375 57.625,163.6953 Q57.8594,163.9531 57.8594,164.5625 L57.8594,166.0156 Q57.8594,166.625 57.625,166.8906 Q57.3906,167.1563 57.0156,167.1563 Q56.6719,167.1563 56.4688,166.9531 Q56.2656,166.7656 56.1563,166.25 Q56.1094,165.8906 55.9219,165.7031 Q55.5938,165.3281 54.9844,165.1094 Q54.375,164.8906 53.75,164.8906 Q52.9844,164.8906 52.3516,165.2188 Q51.7188,165.5469 51.2266,166.2969 Q50.7344,167.0469 50.7344,168.0781 L50.7344,169.1719 Q50.7344,170.4063 51.625,171.2266 Q52.5156,172.0469 54.1094,172.0469 Q55.0469,172.0469 55.7031,171.7969 Q56.0938,171.6406 56.5156,171.2031 Q56.7813,170.9375 56.9297,170.8594 Q57.0781,170.7813 57.2813,170.7813 Q57.6094,170.7813 57.8672,171.0391 Q58.125,171.2969 58.125,171.6406 Q58.125,171.9844 57.7813,172.3906 Q57.2813,172.9688 56.4844,173.2969 Q55.4063,173.75 54.1094,173.75 Q52.5938,173.75 51.3906,173.125 Q50.4063,172.625 49.7188,171.5547 Q49.0313,170.4844 49.0313,169.2031 L49.0313,168.0469 Q49.0313,166.7188 49.6484,165.5703 Q50.2656,164.4219 51.3594,163.8047 Q52.4531,163.1875 53.6875,163.1875 Q54.4219,163.1875 55.0703,163.3516 Q55.7188,163.5156 56.2656,163.875 Z "/><text fill="#000000" font-family="sans-serif" font-size="14" font-weight="bold" lengthAdjust="spacingAndGlyphs" textLength="161" x="67.5" y="173.7285">TournamentCommands</text></a><!--class soen6441riskgame.models.serializers.SerializableGame--><a target="_parent" xlink:actuate="onRequest" xlink:href="../../soen6441riskgame/models/serializers/SerializableGame.html" xlink:show="new" xlink:title="soen6441riskgame.models.serializers.SerializableGame" xlink:type="simple"><rect fill="#FEFECE" filter="url(#f6zv4r9lyciur)" height="32" id="soen6441riskgame.models.serializers.SerializableGame" style="stroke: #A80036; stroke-width: 1.5;" width="153" x="1774.5" y="60"/><ellipse cx="1789.5" cy="76" fill="#ADD1B2" rx="11" ry="11" style="stroke: #A80036; stroke-width: 1.0;"/><path d="M1792.2656,71.875 Q1792.4219,71.6563 1792.6094,71.5469 Q1792.7969,71.4375 1793.0156,71.4375 Q1793.3906,71.4375 1793.625,71.6953 Q1793.8594,71.9531 1793.8594,72.5625 L1793.8594,74.0156 Q1793.8594,74.625 1793.625,74.8906 Q1793.3906,75.1563 1793.0156,75.1563 Q1792.6719,75.1563 1792.4688,74.9531 Q1792.2656,74.7656 1792.1563,74.25 Q1792.1094,73.8906 1791.9219,73.7031 Q1791.5938,73.3281 1790.9844,73.1094 Q1790.375,72.8906 1789.75,72.8906 Q1788.9844,72.8906 1788.3516,73.2188 Q1787.7188,73.5469 1787.2266,74.2969 Q1786.7344,75.0469 1786.7344,76.0781 L1786.7344,77.1719 Q1786.7344,78.4063 1787.625,79.2266 Q1788.5156,80.0469 1790.1094,80.0469 Q1791.0469,80.0469 1791.7031,79.7969 Q1792.0938,79.6406 1792.5156,79.2031 Q1792.7813,78.9375 1792.9297,78.8594 Q1793.0781,78.7813 1793.2813,78.7813 Q1793.6094,78.7813 1793.8672,79.0391 Q1794.125,79.2969 1794.125,79.6406 Q1794.125,79.9844 1793.7813,80.3906 Q1793.2813,80.9688 1792.4844,81.2969 Q1791.4063,81.75 1790.1094,81.75 Q1788.5938,81.75 1787.3906,81.125 Q1786.4063,80.625 1785.7188,79.5547 Q1785.0313,78.4844 1785.0313,77.2031 L1785.0313,76.0469 Q1785.0313,74.7188 1785.6484,73.5703 Q1786.2656,72.4219 1787.3594,71.8047 Q1788.4531,71.1875 1789.6875,71.1875 Q1790.4219,71.1875 1791.0703,71.3516 Q1791.7188,71.5156 1792.2656,71.875 Z "/><text fill="#000000" font-family="sans-serif" font-size="14" font-weight="bold" lengthAdjust="spacingAndGlyphs" textLength="121" x="1803.5" y="81.7285">SerializableGame</text></a><!--class soen6441riskgame.models.serializers.SerializableGame.Builder--><a target="_parent" xlink:actuate="onRequest" xlink:href="../../soen6441riskgame/models/serializers/SerializableGame.Builder.html" xlink:show="new" xlink:title="soen6441riskgame.models.serializers.SerializableGame.Builder" xlink:type="simple"><rect fill="#FEFECE" filter="url(#f6zv4r9lyciur)" height="32" id="soen6441riskgame.models.serializers.SerializableGame.Builder" style="stroke: #A80036; stroke-width: 1.5;" width="208" x="1531" y="60"/><ellipse cx="1546" cy="76" fill="#ADD1B2" rx="11" ry="11" style="stroke: #A80036; stroke-width: 1.0;"/><path d="M1548.7656,71.875 Q1548.9219,71.6563 1549.1094,71.5469 Q1549.2969,71.4375 1549.5156,71.4375 Q1549.8906,71.4375 1550.125,71.6953 Q1550.3594,71.9531 1550.3594,72.5625 L1550.3594,74.0156 Q1550.3594,74.625 1550.125,74.8906 Q1549.8906,75.1563 1549.5156,75.1563 Q1549.1719,75.1563 1548.9688,74.9531 Q1548.7656,74.7656 1548.6563,74.25 Q1548.6094,73.8906 1548.4219,73.7031 Q1548.0938,73.3281 1547.4844,73.1094 Q1546.875,72.8906 1546.25,72.8906 Q1545.4844,72.8906 1544.8516,73.2188 Q1544.2188,73.5469 1543.7266,74.2969 Q1543.2344,75.0469 1543.2344,76.0781 L1543.2344,77.1719 Q1543.2344,78.4063 1544.125,79.2266 Q1545.0156,80.0469 1546.6094,80.0469 Q1547.5469,80.0469 1548.2031,79.7969 Q1548.5938,79.6406 1549.0156,79.2031 Q1549.2813,78.9375 1549.4297,78.8594 Q1549.5781,78.7813 1549.7813,78.7813 Q1550.1094,78.7813 1550.3672,79.0391 Q1550.625,79.2969 1550.625,79.6406 Q1550.625,79.9844 1550.2813,80.3906 Q1549.7813,80.9688 1548.9844,81.2969 Q1547.9063,81.75 1546.6094,81.75 Q1545.0938,81.75 1543.8906,81.125 Q1542.9063,80.625 1542.2188,79.5547 Q1541.5313,78.4844 1541.5313,77.2031 L1541.5313,76.0469 Q1541.5313,74.7188 1542.1484,73.5703 Q1542.7656,72.4219 1543.8594,71.8047 Q1544.9531,71.1875 1546.1875,71.1875 Q1546.9219,71.1875 1547.5703,71.3516 Q1548.2188,71.5156 1548.7656,71.875 Z "/><text fill="#000000" font-family="sans-serif" font-size="14" font-weight="bold" lengthAdjust="spacingAndGlyphs" textLength="176" x="1560" y="81.7285">SerializableGame.Builder</text></a><!--class soen6441riskgame.models.strategies.AggressiveStrategy--><a target="_parent" xlink:actuate="onRequest" xlink:href="../../soen6441riskgame/models/strategies/AggressiveStrategy.html" xlink:show="new" xlink:title="soen6441riskgame.models.strategies.AggressiveStrategy" xlink:type="simple"><rect fill="#FEFECE" filter="url(#f6zv4r9lyciur)" height="32" id="soen6441riskgame.models.strategies.AggressiveStrategy" style="stroke: #A80036; stroke-width: 1.5;" width="170" x="460" y="60"/><ellipse cx="475" cy="76" fill="#ADD1B2" rx="11" ry="11" style="stroke: #A80036; stroke-width: 1.0;"/><path d="M477.7656,71.875 Q477.9219,71.6563 478.1094,71.5469 Q478.2969,71.4375 478.5156,71.4375 Q478.8906,71.4375 479.125,71.6953 Q479.3594,71.9531 479.3594,72.5625 L479.3594,74.0156 Q479.3594,74.625 479.125,74.8906 Q478.8906,75.1563 478.5156,75.1563 Q478.1719,75.1563 477.9688,74.9531 Q477.7656,74.7656 477.6563,74.25 Q477.6094,73.8906 477.4219,73.7031 Q477.0938,73.3281 476.4844,73.1094 Q475.875,72.8906 475.25,72.8906 Q474.4844,72.8906 473.8516,73.2188 Q473.2188,73.5469 472.7266,74.2969 Q472.2344,75.0469 472.2344,76.0781 L472.2344,77.1719 Q472.2344,78.4063 473.125,79.2266 Q474.0156,80.0469 475.6094,80.0469 Q476.5469,80.0469 477.2031,79.7969 Q477.5938,79.6406 478.0156,79.2031 Q478.2813,78.9375 478.4297,78.8594 Q478.5781,78.7813 478.7813,78.7813 Q479.1094,78.7813 479.3672,79.0391 Q479.625,79.2969 479.625,79.6406 Q479.625,79.9844 479.2813,80.3906 Q478.7813,80.9688 477.9844,81.2969 Q476.9063,81.75 475.6094,81.75 Q474.0938,81.75 472.8906,81.125 Q471.9063,80.625 471.2188,79.5547 Q470.5313,78.4844 470.5313,77.2031 L470.5313,76.0469 Q470.5313,74.7188 471.1484,73.5703 Q471.7656,72.4219 472.8594,71.8047 Q473.9531,71.1875 475.1875,71.1875 Q475.9219,71.1875 476.5703,71.3516 Q477.2188,71.5156 477.7656,71.875 Z "/><text fill="#000000" font-family="sans-serif" font-size="14" font-weight="bold" lengthAdjust="spacingAndGlyphs" textLength="138" x="489" y="81.7285">AggressiveStrategy</text></a><!--class soen6441riskgame.models.strategies.BenevolentStrategy--><a target="_parent" xlink:actuate="onRequest" xlink:href="../../soen6441riskgame/models/strategies/BenevolentStrategy.html" xlink:show="new" xlink:title="soen6441riskgame.models.strategies.BenevolentStrategy" xlink:type="simple"><rect fill="#FEFECE" filter="url(#f6zv4r9lyciur)" height="32" id="soen6441riskgame.models.strategies.BenevolentStrategy" style="stroke: #A80036; stroke-width: 1.5;" width="172" x="665" y="60"/><ellipse cx="680" cy="76" fill="#ADD1B2" rx="11" ry="11" style="stroke: #A80036; stroke-width: 1.0;"/><path d="M682.7656,71.875 Q682.9219,71.6563 683.1094,71.5469 Q683.2969,71.4375 683.5156,71.4375 Q683.8906,71.4375 684.125,71.6953 Q684.3594,71.9531 684.3594,72.5625 L684.3594,74.0156 Q684.3594,74.625 684.125,74.8906 Q683.8906,75.1563 683.5156,75.1563 Q683.1719,75.1563 682.9688,74.9531 Q682.7656,74.7656 682.6563,74.25 Q682.6094,73.8906 682.4219,73.7031 Q682.0938,73.3281 681.4844,73.1094 Q680.875,72.8906 680.25,72.8906 Q679.4844,72.8906 678.8516,73.2188 Q678.2188,73.5469 677.7266,74.2969 Q677.2344,75.0469 677.2344,76.0781 L677.2344,77.1719 Q677.2344,78.4063 678.125,79.2266 Q679.0156,80.0469 680.6094,80.0469 Q681.5469,80.0469 682.2031,79.7969 Q682.5938,79.6406 683.0156,79.2031 Q683.2813,78.9375 683.4297,78.8594 Q683.5781,78.7813 683.7813,78.7813 Q684.1094,78.7813 684.3672,79.0391 Q684.625,79.2969 684.625,79.6406 Q684.625,79.9844 684.2813,80.3906 Q683.7813,80.9688 682.9844,81.2969 Q681.9063,81.75 680.6094,81.75 Q679.0938,81.75 677.8906,81.125 Q676.9063,80.625 676.2188,79.5547 Q675.5313,78.4844 675.5313,77.2031 L675.5313,76.0469 Q675.5313,74.7188 676.1484,73.5703 Q676.7656,72.4219 677.8594,71.8047 Q678.9531,71.1875 680.1875,71.1875 Q680.9219,71.1875 681.5703,71.3516 Q682.2188,71.5156 682.7656,71.875 Z "/><text fill="#000000" font-family="sans-serif" font-size="14" font-weight="bold" lengthAdjust="spacingAndGlyphs" textLength="140" x="694" y="81.7285">BenevolentStrategy</text></a><!--class soen6441riskgame.models.strategies.CheaterStrategy--><a target="_parent" xlink:actuate="onRequest" xlink:href="../../soen6441riskgame/models/strategies/CheaterStrategy.html" xlink:show="new" xlink:title="soen6441riskgame.models.strategies.CheaterStrategy" xlink:type="simple"><rect fill="#FEFECE" filter="url(#f6zv4r9lyciur)" height="32" id="soen6441riskgame.models.strategies.CheaterStrategy" style="stroke: #A80036; stroke-width: 1.5;" width="146" x="872" y="60"/><ellipse cx="887" cy="76" fill="#ADD1B2" rx="11" ry="11" style="stroke: #A80036; stroke-width: 1.0;"/><path d="M889.7656,71.875 Q889.9219,71.6563 890.1094,71.5469 Q890.2969,71.4375 890.5156,71.4375 Q890.8906,71.4375 891.125,71.6953 Q891.3594,71.9531 891.3594,72.5625 L891.3594,74.0156 Q891.3594,74.625 891.125,74.8906 Q890.8906,75.1563 890.5156,75.1563 Q890.1719,75.1563 889.9688,74.9531 Q889.7656,74.7656 889.6563,74.25 Q889.6094,73.8906 889.4219,73.7031 Q889.0938,73.3281 888.4844,73.1094 Q887.875,72.8906 887.25,72.8906 Q886.4844,72.8906 885.8516,73.2188 Q885.2188,73.5469 884.7266,74.2969 Q884.2344,75.0469 884.2344,76.0781 L884.2344,77.1719 Q884.2344,78.4063 885.125,79.2266 Q886.0156,80.0469 887.6094,80.0469 Q888.5469,80.0469 889.2031,79.7969 Q889.5938,79.6406 890.0156,79.2031 Q890.2813,78.9375 890.4297,78.8594 Q890.5781,78.7813 890.7813,78.7813 Q891.1094,78.7813 891.3672,79.0391 Q891.625,79.2969 891.625,79.6406 Q891.625,79.9844 891.2813,80.3906 Q890.7813,80.9688 889.9844,81.2969 Q888.9063,81.75 887.6094,81.75 Q886.0938,81.75 884.8906,81.125 Q883.9063,80.625 883.2188,79.5547 Q882.5313,78.4844 882.5313,77.2031 L882.5313,76.0469 Q882.5313,74.7188 883.1484,73.5703 Q883.7656,72.4219 884.8594,71.8047 Q885.9531,71.1875 887.1875,71.1875 Q887.9219,71.1875 888.5703,71.3516 Q889.2188,71.5156 889.7656,71.875 Z "/><text fill="#000000" font-family="sans-serif" font-size="14" font-weight="bold" lengthAdjust="spacingAndGlyphs" textLength="114" x="901" y="81.7285">CheaterStrategy</text></a><!--class soen6441riskgame.models.strategies.HumanStrategy--><a target="_parent" xlink:actuate="onRequest" xlink:href="../../soen6441riskgame/models/strategies/HumanStrategy.html" xlink:show="new" xlink:title="soen6441riskgame.models.strategies.HumanStrategy" xlink:type="simple"><rect fill="#FEFECE" filter="url(#f6zv4r9lyciur)" height="32" id="soen6441riskgame.models.strategies.HumanStrategy" style="stroke: #A80036; stroke-width: 1.5;" width="138" x="476" y="152"/><ellipse cx="491" cy="168" fill="#ADD1B2" rx="11" ry="11" style="stroke: #A80036; stroke-width: 1.0;"/><path d="M493.7656,163.875 Q493.9219,163.6563 494.1094,163.5469 Q494.2969,163.4375 494.5156,163.4375 Q494.8906,163.4375 495.125,163.6953 Q495.3594,163.9531 495.3594,164.5625 L495.3594,166.0156 Q495.3594,166.625 495.125,166.8906 Q494.8906,167.1563 494.5156,167.1563 Q494.1719,167.1563 493.9688,166.9531 Q493.7656,166.7656 493.6563,166.25 Q493.6094,165.8906 493.4219,165.7031 Q493.0938,165.3281 492.4844,165.1094 Q491.875,164.8906 491.25,164.8906 Q490.4844,164.8906 489.8516,165.2188 Q489.2188,165.5469 488.7266,166.2969 Q488.2344,167.0469 488.2344,168.0781 L488.2344,169.1719 Q488.2344,170.4063 489.125,171.2266 Q490.0156,172.0469 491.6094,172.0469 Q492.5469,172.0469 493.2031,171.7969 Q493.5938,171.6406 494.0156,171.2031 Q494.2813,170.9375 494.4297,170.8594 Q494.5781,170.7813 494.7813,170.7813 Q495.1094,170.7813 495.3672,171.0391 Q495.625,171.2969 495.625,171.6406 Q495.625,171.9844 495.2813,172.3906 Q494.7813,172.9688 493.9844,173.2969 Q492.9063,173.75 491.6094,173.75 Q490.0938,173.75 488.8906,173.125 Q487.9063,172.625 487.2188,171.5547 Q486.5313,170.4844 486.5313,169.2031 L486.5313,168.0469 Q486.5313,166.7188 487.1484,165.5703 Q487.7656,164.4219 488.8594,163.8047 Q489.9531,163.1875 491.1875,163.1875 Q491.9219,163.1875 492.5703,163.3516 Q493.2188,163.5156 493.7656,163.875 Z "/><text fill="#000000" font-family="sans-serif" font-size="14" font-weight="bold" lengthAdjust="spacingAndGlyphs" textLength="106" x="505" y="173.7285">HumanStrategy</text></a><!--class soen6441riskgame.models.strategies.RandomStrategy--><a target="_parent" xlink:actuate="onRequest" xlink:href="../../soen6441riskgame/models/strategies/RandomStrategy.html" xlink:show="new" xlink:title="soen6441riskgame.models.strategies.RandomStrategy" xlink:type="simple"><rect fill="#FEFECE" filter="url(#f6zv4r9lyciur)" height="32" id="soen6441riskgame.models.strategies.RandomStrategy" style="stroke: #A80036; stroke-width: 1.5;" width="147" x="649.5" y="152"/><ellipse cx="664.5" cy="168" fill="#ADD1B2" rx="11" ry="11" style="stroke: #A80036; stroke-width: 1.0;"/><path d="M667.2656,163.875 Q667.4219,163.6563 667.6094,163.5469 Q667.7969,163.4375 668.0156,163.4375 Q668.3906,163.4375 668.625,163.6953 Q668.8594,163.9531 668.8594,164.5625 L668.8594,166.0156 Q668.8594,166.625 668.625,166.8906 Q668.3906,167.1563 668.0156,167.1563 Q667.6719,167.1563 667.4688,166.9531 Q667.2656,166.7656 667.1563,166.25 Q667.1094,165.8906 666.9219,165.7031 Q666.5938,165.3281 665.9844,165.1094 Q665.375,164.8906 664.75,164.8906 Q663.9844,164.8906 663.3516,165.2188 Q662.7188,165.5469 662.2266,166.2969 Q661.7344,167.0469 661.7344,168.0781 L661.7344,169.1719 Q661.7344,170.4063 662.625,171.2266 Q663.5156,172.0469 665.1094,172.0469 Q666.0469,172.0469 666.7031,171.7969 Q667.0938,171.6406 667.5156,171.2031 Q667.7813,170.9375 667.9297,170.8594 Q668.0781,170.7813 668.2813,170.7813 Q668.6094,170.7813 668.8672,171.0391 Q669.125,171.2969 669.125,171.6406 Q669.125,171.9844 668.7813,172.3906 Q668.2813,172.9688 667.4844,173.2969 Q666.4063,173.75 665.1094,173.75 Q663.5938,173.75 662.3906,173.125 Q661.4063,172.625 660.7188,171.5547 Q660.0313,170.4844 660.0313,169.2031 L660.0313,168.0469 Q660.0313,166.7188 660.6484,165.5703 Q661.2656,164.4219 662.3594,163.8047 Q663.4531,163.1875 664.6875,163.1875 Q665.4219,163.1875 666.0703,163.3516 Q666.7188,163.5156 667.2656,163.875 Z "/><text fill="#000000" font-family="sans-serif" font-size="14" font-weight="bold" lengthAdjust="spacingAndGlyphs" textLength="115" x="678.5" y="173.7285">RandomStrategy</text></a><!--class soen6441riskgame.models.strategies.Strategy--><a target="_parent" xlink:actuate="onRequest" xlink:href="../../soen6441riskgame/models/strategies/Strategy.html" xlink:show="new" xlink:title="soen6441riskgame.models.strategies.Strategy" xlink:type="simple"><rect fill="#FEFECE" filter="url(#f6zv4r9lyciur)" height="32" id="soen6441riskgame.models.strategies.Strategy" style="stroke: #A80036; stroke-width: 1.5;" width="88" x="832" y="152"/><ellipse cx="847" cy="168" fill="#B4A7E5" rx="11" ry="11" style="stroke: #A80036; stroke-width: 1.0;"/><path d="M847.9531,164.6406 L847.9531,171.2969 L849.6719,171.2969 Q850.2813,171.2969 850.5469,171.5313 Q850.8125,171.7656 850.8125,172.1563 Q850.8125,172.5313 850.5469,172.7656 Q850.2813,173 849.6719,173 L844.5313,173 Q843.9219,173 843.6563,172.7656 Q843.3906,172.5313 843.3906,172.1406 Q843.3906,171.7656 843.6563,171.5313 Q843.9219,171.2969 844.5313,171.2969 L846.25,171.2969 L846.25,164.6406 L844.5313,164.6406 Q843.9219,164.6406 843.6563,164.4063 Q843.3906,164.1719 843.3906,163.7813 Q843.3906,163.4063 843.6563,163.1719 Q843.9219,162.9375 844.5313,162.9375 L849.6719,162.9375 Q850.2813,162.9375 850.5469,163.1719 Q850.8125,163.4063 850.8125,163.7813 Q850.8125,164.1719 850.5469,164.4063 Q850.2813,164.6406 849.6719,164.6406 L847.9531,164.6406 Z "/><text fill="#000000" font-family="sans-serif" font-size="14" font-style="italic" font-weight="bold" lengthAdjust="spacingAndGlyphs" textLength="56" x="861" y="173.7285">Strategy</text></a><!--link soen6441riskgame.models.Card to soen6441riskgame.models.Player--><path d="M1334.25,92.003 C1334.25,116.122 1334.25,159 1334.25,159 C1334.25,159 1358.33,159 1358.33,159 " fill="none" id="soen6441riskgame.models.Card-soen6441riskgame.models.Player" style="stroke: #A80036; stroke-width: 1.0;"/><polygon fill="#A80036" points="1363.33,159,1354.33,155,1358.33,159,1354.33,163,1363.33,159" style="stroke: #A80036; stroke-width: 1.0;"/><text fill="#000000" font-family="sans-serif" font-size="13" lengthAdjust="spacingAndGlyphs" textLength="78" x="1277.4234" y="154.7601">holdingPlayer</text><!--link soen6441riskgame.models.Player to soen6441riskgame.models.Card--><path d="M1372.5,151.975 C1372.5,125.616 1372.5,76 1372.5,76 C1372.5,76 1345.63,76 1345.63,76 " fill="none" id="soen6441riskgame.models.Player-soen6441riskgame.models.Card" style="stroke: #A80036; stroke-width: 1.0; stroke-dasharray: 7.0,7.0;"/><polygon fill="#A80036" points="1340.63,76,1349.63,80,1345.63,76,1349.63,72,1340.63,76" style="stroke: #A80036; stroke-width: 1.0;"/><!--link soen6441riskgame.models.Card to soen6441riskgame.models.Viewable--><path d="M1304.33,92.066 C1304.33,162.317 1304.33,439 1304.33,439 C1304.33,439 1302.82,439 1302.82,439 " fill="none" id="soen6441riskgame.models.Card-soen6441riskgame.models.Viewable" style="stroke: #A80036; stroke-width: 1.0; stroke-dasharray: 7.0,7.0;"/><polygon fill="none" points="1309.24,445.9999,1289.24,439,1309.24,431.9999,1309.24,445.9999" style="stroke: #A80036; stroke-width: 1.0;"/><!--link soen6441riskgame.models.CardSet to soen6441riskgame.models.Card--><path d="M1278.67,243.993 C1278.67,243.993 1278.67,97.101 1278.67,97.101 " fill="none" id="soen6441riskgame.models.CardSet-soen6441riskgame.models.Card" style="stroke: #A80036; stroke-width: 1.0; stroke-dasharray: 7.0,7.0;"/><polygon fill="#A80036" points="1278.67,92.101,1274.67,101.101,1278.67,97.101,1282.67,101.101,1278.67,92.101" style="stroke: #A80036; stroke-width: 1.0;"/><!--link soen6441riskgame.models.Continent to soen6441riskgame.models.Country--><path d="M1291,335.975 C1291,309.616 1291,260 1291,260 C1291,260 1352.21,260 1352.21,260 " fill="none" id="soen6441riskgame.models.Continent-soen6441riskgame.models.Country" style="stroke: #A80036; stroke-width: 1.0; stroke-dasharray: 7.0,7.0;"/><polygon fill="#A80036" points="1357.21,260,1348.21,256,1352.21,260,1348.21,264,1357.21,260" style="stroke: #A80036; stroke-width: 1.0;"/><!--link soen6441riskgame.models.Country to soen6441riskgame.models.Continent--><path d="M1357.25,252 C1326.01,252 1289.5,252 1289.5,252 C1289.5,252 1289.5,330.933 1289.5,330.933 " fill="none" id="soen6441riskgame.models.Country-soen6441riskgame.models.Continent" style="stroke: #A80036; stroke-width: 1.0;"/><polygon fill="#A80036" points="1289.5,335.933,1293.5,326.933,1289.5,330.933,1285.5,326.933,1289.5,335.933" style="stroke: #A80036; stroke-width: 1.0;"/><text fill="#000000" font-family="sans-serif" font-size="13" lengthAdjust="spacingAndGlyphs" textLength="53" x="1243.7188" y="325.2155">continent</text><!--link soen6441riskgame.models.Continent to soen6441riskgame.models.Viewable--><path d="M1242,368.025 C1242,368.025 1242,407.8498 1242,407.8498 " fill="none" id="soen6441riskgame.models.Continent-soen6441riskgame.models.Viewable" style="stroke: #A80036; stroke-width: 1.0; stroke-dasharray: 7.0,7.0;"/><polygon fill="none" points="1249,407.8498,1242,427.8498,1235,407.8497,1249,407.8498" style="stroke: #A80036; stroke-width: 1.0;"/><!--link soen6441riskgame.models.Continent to soen6441riskgame.models.Player--><path d="M1288,335.942 C1288,292.867 1288,178 1288,178 C1288,178 1358.37,178 1358.37,178 " fill="none" id="soen6441riskgame.models.Continent-soen6441riskgame.models.Player" style="stroke: #A80036; stroke-width: 1.0; stroke-dasharray: 7.0,7.0;"/><polygon fill="#A80036" points="1363.37,178,1354.37,174,1358.37,178,1354.37,182,1363.37,178" style="stroke: #A80036; stroke-width: 1.0;"/><!--link soen6441riskgame.models.Player to soen6441riskgame.models.Continent--><path d="M1363.19,172 C1329.84,172 1286.5,172 1286.5,172 C1286.5,172 1286.5,330.709 1286.5,330.709 " fill="none" id="soen6441riskgame.models.Player-soen6441riskgame.models.Continent" style="stroke: #A80036; stroke-width: 1.0; stroke-dasharray: 7.0,7.0;"/><polygon fill="#A80036" points="1286.5,335.709,1290.5,326.709,1286.5,330.709,1282.5,326.709,1286.5,335.709" style="stroke: #A80036; stroke-width: 1.0;"/><!--link soen6441riskgame.models.Country to soen6441riskgame.models.Coordinate--><path d="M1411.17,276.025 C1411.17,276.025 1411.17,330.85 1411.17,330.85 " fill="none" id="soen6441riskgame.models.Country-soen6441riskgame.models.Coordinate" style="stroke: #A80036; stroke-width: 1.0;"/><polygon fill="#A80036" points="1411.17,335.85,1415.17,326.85,1411.17,330.85,1407.17,326.85,1411.17,335.85" style="stroke: #A80036; stroke-width: 1.0;"/><text fill="#000000" font-family="sans-serif" font-size="13" lengthAdjust="spacingAndGlyphs" textLength="60" x="1350.5409" y="325.104">coordinate</text><!--link soen6441riskgame.models.Country to soen6441riskgame.models.Player--><path d="M1413.5,243.975 C1413.5,243.975 1413.5,189.15 1413.5,189.15 " fill="none" id="soen6441riskgame.models.Country-soen6441riskgame.models.Player" style="stroke: #A80036; stroke-width: 1.0;"/><polygon fill="#A80036" points="1413.5,184.15,1409.5,193.15,1413.5,189.15,1417.5,193.15,1413.5,184.15" style="stroke: #A80036; stroke-width: 1.0;"/><text fill="#000000" font-family="sans-serif" font-size="13" lengthAdjust="spacingAndGlyphs" textLength="57" x="1426.5688" y="205.399">conquerer</text><!--link soen6441riskgame.models.Player to soen6441riskgame.models.Country--><path d="M1426,184.025 C1426,184.025 1426,238.85 1426,238.85 " fill="none" id="soen6441riskgame.models.Player-soen6441riskgame.models.Country" style="stroke: #A80036; stroke-width: 1.0; stroke-dasharray: 7.0,7.0;"/><polygon fill="#A80036" points="1426,243.85,1430,234.85,1426,238.85,1422,234.85,1426,243.85" style="stroke: #A80036; stroke-width: 1.0;"/><!--link soen6441riskgame.models.Country to soen6441riskgame.models.Viewable--><path d="M1357.09,268 C1336.39,268 1316.17,268 1316.17,268 C1316.17,268 1316.17,450 1316.17,450 C1316.17,450 1309.39,450 1309.39,450 " fill="none" id="soen6441riskgame.models.Country-soen6441riskgame.models.Viewable" style="stroke: #A80036; stroke-width: 1.0; stroke-dasharray: 7.0,7.0;"/><polygon fill="none" points="1309.39,456.9999,1289.39,450,1309.39,442.9999,1309.39,456.9999" style="stroke: #A80036; stroke-width: 1.0;"/><!--link soen6441riskgame.models.Country to soen6441riskgame.models.Country--><path d="M1376,243.774 C1376,236.273 1376,229 1376,229 C1376,229 1349,229 1349,229 C1349,229 1349,306 1349,306 C1349,306 1384.33,306 1384.33,306 C1384.33,306 1384.33,281.089 1384.33,281.089 " fill="none" id="soen6441riskgame.models.Country-soen6441riskgame.models.Country" style="stroke: #A80036; stroke-width: 1.0; stroke-dasharray: 7.0,7.0;"/><polygon fill="#A80036" points="1384.33,276.089,1380.33,285.089,1384.33,281.089,1388.33,285.089,1384.33,276.089" style="stroke: #A80036; stroke-width: 1.0;"/><!--link soen6441riskgame.models.ModelCommands to soen6441riskgame.models.ModelCommandsPair--><path d="M1164,92.025 C1164,92.025 1164,146.85 1164,146.85 " fill="none" id="soen6441riskgame.models.ModelCommands-soen6441riskgame.models.ModelCommandsPair" style="stroke: #A80036; stroke-width: 1.0;"/><polygon fill="#A80036" points="1164,151.85,1168,142.85,1164,146.85,1160,142.85,1164,151.85" style="stroke: #A80036; stroke-width: 1.0;"/><text fill="#000000" font-family="sans-serif" font-size="13" lengthAdjust="spacingAndGlyphs" textLength="74" x="1077.2813" y="141.104">subRoutine *</text><!--link soen6441riskgame.models.Player to soen6441riskgame.models.Player--><path d="M1366.5,151.685 C1366.5,142.16 1366.5,132 1366.5,132 C1366.5,132 1353.25,132 1353.25,132 C1353.25,132 1353.25,199 1353.25,199 C1353.25,199 1388.5,199 1388.5,199 C1388.5,199 1388.5,189.226 1388.5,189.226 " fill="none" id="soen6441riskgame.models.Player-soen6441riskgame.models.Player" style="stroke: #A80036; stroke-width: 1.0;"/><polygon fill="#A80036" points="1388.5,184.226,1384.5,193.226,1388.5,189.226,1392.5,193.226,1388.5,184.226" style="stroke: #A80036; stroke-width: 1.0;"/><text fill="#000000" font-family="sans-serif" font-size="13" lengthAdjust="spacingAndGlyphs" textLength="62" x="1312.6344" y="205.4992">nextPlayer</text><!--link soen6441riskgame.models.Player to soen6441riskgame.models.Player--><path d="M1369.5,151.802 C1369.5,135.264 1369.5,112 1369.5,112 C1369.5,112 1344.75,112 1344.75,112 C1344.75,112 1344.75,214 1344.75,214 C1344.75,214 1401,214 1401,214 C1401,214 1401,189.089 1401,189.089 " fill="none" id="soen6441riskgame.models.Player-soen6441riskgame.models.Player" style="stroke: #A80036; stroke-width: 1.0;"/><polygon fill="#A80036" points="1401,184.089,1397,193.089,1401,189.089,1405,193.089,1401,184.089" style="stroke: #A80036; stroke-width: 1.0;"/><text fill="#000000" font-family="sans-serif" font-size="13" lengthAdjust="spacingAndGlyphs" textLength="84" x="1446.15" y="190.4688">previousPlayer</text><!--link soen6441riskgame.models.Player to soen6441riskgame.models.CardSet--><path d="M1363.29,165 C1328.38,165 1281.83,165 1281.83,165 C1281.83,165 1281.83,238.885 1281.83,238.885 " fill="none" id="soen6441riskgame.models.Player-soen6441riskgame.models.CardSet" style="stroke: #A80036; stroke-width: 1.0; stroke-dasharray: 7.0,7.0;"/><polygon fill="#A80036" points="1281.83,243.885,1285.83,234.885,1281.83,238.885,1277.83,234.885,1281.83,243.885" style="stroke: #A80036; stroke-width: 1.0;"/><!--link soen6441riskgame.models.commands.GameCommands to soen6441riskgame.models.commands.MapEditorCommands--><!--link soen6441riskgame.models.commands.GameCommands to soen6441riskgame.models.commands.TournamentCommands--><!--link soen6441riskgame.models.strategies.AggressiveStrategy to soen6441riskgame.models.strategies.BenevolentStrategy--><!--link soen6441riskgame.models.strategies.BenevolentStrategy to soen6441riskgame.models.strategies.CheaterStrategy--><!--link soen6441riskgame.models.strategies.AggressiveStrategy to soen6441riskgame.models.strategies.HumanStrategy--><!--link soen6441riskgame.models.strategies.HumanStrategy to soen6441riskgame.models.strategies.RandomStrategy--><!--link soen6441riskgame.models.strategies.RandomStrategy to soen6441riskgame.models.strategies.Strategy--><!--
@startuml

skinparam svgLinkTarget _parent
skinparam linetype ortho
package soen6441riskgame.models [[../../soen6441riskgame/models/package-summary.html{soen6441riskgame.models}]] #lightyellow {
}

class "<b><size:14>Boundary</b>" as soen6441riskgame.models.Boundary  [[../../soen6441riskgame/models/Boundary.html{soen6441riskgame.models.Boundary}]] {
}

hide soen6441riskgame.models.Boundary fields
hide soen6441riskgame.models.Boundary methods

class "<b><size:14>Card</b>" as soen6441riskgame.models.Card  [[../../soen6441riskgame/models/Card.html{soen6441riskgame.models.Card}]] {
}

hide soen6441riskgame.models.Card fields
hide soen6441riskgame.models.Card methods

class "<b><size:14>CardSet</b>" as soen6441riskgame.models.CardSet  [[../../soen6441riskgame/models/CardSet.html{soen6441riskgame.models.CardSet}]] {
}

hide soen6441riskgame.models.CardSet fields
hide soen6441riskgame.models.CardSet methods

class "<b><size:14>Continent</b>" as soen6441riskgame.models.Continent  [[../../soen6441riskgame/models/Continent.html{soen6441riskgame.models.Continent}]] {
}

hide soen6441riskgame.models.Continent fields
hide soen6441riskgame.models.Continent methods

class "<b><size:14>Coordinate</b>" as soen6441riskgame.models.Coordinate  [[../../soen6441riskgame/models/Coordinate.html{soen6441riskgame.models.Coordinate}]] {
}

hide soen6441riskgame.models.Coordinate fields
hide soen6441riskgame.models.Coordinate methods

class "<b><size:14>Country</b>" as soen6441riskgame.models.Country  [[../../soen6441riskgame/models/Country.html{soen6441riskgame.models.Country}]] {
}

hide soen6441riskgame.models.Country fields
hide soen6441riskgame.models.Country methods

class "<b><size:14>ModelCommands</b>" as soen6441riskgame.models.ModelCommands  [[../../soen6441riskgame/models/ModelCommands.html{soen6441riskgame.models.ModelCommands}]] {
}

hide soen6441riskgame.models.ModelCommands fields
hide soen6441riskgame.models.ModelCommands methods

class "<b><size:14>ModelCommandsPair</b>" as soen6441riskgame.models.ModelCommandsPair  [[../../soen6441riskgame/models/ModelCommandsPair.html{soen6441riskgame.models.ModelCommandsPair}]] {
}

hide soen6441riskgame.models.ModelCommandsPair fields
hide soen6441riskgame.models.ModelCommandsPair methods

class "<b><size:14>Player</b>" as soen6441riskgame.models.Player  [[../../soen6441riskgame/models/Player.html{soen6441riskgame.models.Player}]] {
}

hide soen6441riskgame.models.Player fields
hide soen6441riskgame.models.Player methods

interface "<b><size:14>Viewable</b>" as soen6441riskgame.models.Viewable  [[../../soen6441riskgame/models/Viewable.html{soen6441riskgame.models.Viewable}]] {
}

hide soen6441riskgame.models.Viewable fields
hide soen6441riskgame.models.Viewable methods

soen6441riskgame.models.Card - ->  "holdingPlayer" soen6441riskgame.models.Player
soen6441riskgame.models.Card ..|> soen6441riskgame.models.Viewable
soen6441riskgame.models.CardSet ..> soen6441riskgame.models.Card
soen6441riskgame.models.Continent ..> soen6441riskgame.models.Country
soen6441riskgame.models.Continent ..|> soen6441riskgame.models.Viewable
soen6441riskgame.models.Continent ..> soen6441riskgame.models.Player
soen6441riskgame.models.Country - ->  "coordinate" soen6441riskgame.models.Coordinate
soen6441riskgame.models.Country - ->  "continent" soen6441riskgame.models.Continent
soen6441riskgame.models.Country - ->  "conquerer" soen6441riskgame.models.Player
soen6441riskgame.models.Country ..|> soen6441riskgame.models.Viewable
soen6441riskgame.models.Country ..> soen6441riskgame.models.Country
soen6441riskgame.models.ModelCommands - ->  "subRoutine *" soen6441riskgame.models.ModelCommandsPair
soen6441riskgame.models.Player - ->  "nextPlayer" soen6441riskgame.models.Player
soen6441riskgame.models.Player - ->  "previousPlayer" soen6441riskgame.models.Player
soen6441riskgame.models.Player ..> soen6441riskgame.models.Card
soen6441riskgame.models.Player ..> soen6441riskgame.models.Continent
soen6441riskgame.models.Player ..> soen6441riskgame.models.Country
soen6441riskgame.models.Player ..> soen6441riskgame.models.CardSet
package soen6441riskgame.models.commands [[../../soen6441riskgame/models/commands/package-summary.html{soen6441riskgame.models.commands}]] {
}

class "<b><size:14>GameCommands</b>" as soen6441riskgame.models.commands.GameCommands  [[../../soen6441riskgame/models/commands/GameCommands.html{soen6441riskgame.models.commands.GameCommands}]] {
}

hide soen6441riskgame.models.commands.GameCommands fields
hide soen6441riskgame.models.commands.GameCommands methods

class "<b><size:14>MapEditorCommands</b>" as soen6441riskgame.models.commands.MapEditorCommands  [[../../soen6441riskgame/models/commands/MapEditorCommands.html{soen6441riskgame.models.commands.MapEditorCommands}]] {
}

hide soen6441riskgame.models.commands.MapEditorCommands fields
hide soen6441riskgame.models.commands.MapEditorCommands methods

class "<b><size:14>TournamentCommands</b>" as soen6441riskgame.models.commands.TournamentCommands  [[../../soen6441riskgame/models/commands/TournamentCommands.html{soen6441riskgame.models.commands.TournamentCommands}]] {
}

hide soen6441riskgame.models.commands.TournamentCommands fields
hide soen6441riskgame.models.commands.TournamentCommands methods

package soen6441riskgame.models.serializers [[../../soen6441riskgame/models/serializers/package-summary.html{soen6441riskgame.models.serializers}]] {
}

class "<b><size:14>SerializableGame</b>" as soen6441riskgame.models.serializers.SerializableGame  [[../../soen6441riskgame/models/serializers/SerializableGame.html{soen6441riskgame.models.serializers.SerializableGame}]] {
}

hide soen6441riskgame.models.serializers.SerializableGame fields
hide soen6441riskgame.models.serializers.SerializableGame methods

class "<b><size:14>SerializableGame.Builder</b>" as soen6441riskgame.models.serializers.SerializableGame.Builder  [[../../soen6441riskgame/models/serializers/SerializableGame.Builder.html{soen6441riskgame.models.serializers.SerializableGame.Builder}]] {
}

hide soen6441riskgame.models.serializers.SerializableGame.Builder fields
hide soen6441riskgame.models.serializers.SerializableGame.Builder methods

package soen6441riskgame.models.strategies [[../../soen6441riskgame/models/strategies/package-summary.html{soen6441riskgame.models.strategies}]] {
}

class "<b><size:14>AggressiveStrategy</b>" as soen6441riskgame.models.strategies.AggressiveStrategy  [[../../soen6441riskgame/models/strategies/AggressiveStrategy.html{soen6441riskgame.models.strategies.AggressiveStrategy}]] {
}

hide soen6441riskgame.models.strategies.AggressiveStrategy fields
hide soen6441riskgame.models.strategies.AggressiveStrategy methods

class "<b><size:14>BenevolentStrategy</b>" as soen6441riskgame.models.strategies.BenevolentStrategy  [[../../soen6441riskgame/models/strategies/BenevolentStrategy.html{soen6441riskgame.models.strategies.BenevolentStrategy}]] {
}

hide soen6441riskgame.models.strategies.BenevolentStrategy fields
hide soen6441riskgame.models.strategies.BenevolentStrategy methods

class "<b><size:14>CheaterStrategy</b>" as soen6441riskgame.models.strategies.CheaterStrategy  [[../../soen6441riskgame/models/strategies/CheaterStrategy.html{soen6441riskgame.models.strategies.CheaterStrategy}]] {
}

hide soen6441riskgame.models.strategies.CheaterStrategy fields
hide soen6441riskgame.models.strategies.CheaterStrategy methods

class "<b><size:14>HumanStrategy</b>" as soen6441riskgame.models.strategies.HumanStrategy  [[../../soen6441riskgame/models/strategies/HumanStrategy.html{soen6441riskgame.models.strategies.HumanStrategy}]] {
}

hide soen6441riskgame.models.strategies.HumanStrategy fields
hide soen6441riskgame.models.strategies.HumanStrategy methods

class "<b><size:14>RandomStrategy</b>" as soen6441riskgame.models.strategies.RandomStrategy  [[../../soen6441riskgame/models/strategies/RandomStrategy.html{soen6441riskgame.models.strategies.RandomStrategy}]] {
}

hide soen6441riskgame.models.strategies.RandomStrategy fields
hide soen6441riskgame.models.strategies.RandomStrategy methods

interface "<b><size:14>Strategy</b>" as soen6441riskgame.models.strategies.Strategy  [[../../soen6441riskgame/models/strategies/Strategy.html{soen6441riskgame.models.strategies.Strategy}]] {
}

hide soen6441riskgame.models.strategies.Strategy fields
hide soen6441riskgame.models.strategies.Strategy methods


@enduml

PlantUML version 1.2017.15(Mon Jul 03 12:45:34 EDT 2017)
(GPL source distribution)
Java Runtime: Java(TM) SE Runtime Environment
JVM: Java HotSpot(TM) 64-Bit Server VM
Java Version: 1.8.0_231-b11
Operating System: Windows 10
OS Version: 10.0
Default Encoding: Cp1252
Language: en
Country: US
--></g></svg>