<?xml version="1.0" encoding="UTF-8" standalone="no"?><svg xmlns="http://www.w3.org/2000/svg" xmlns:xlink="http://www.w3.org/1999/xlink" contentScriptType="application/ecmascript" contentStyleType="text/css" height="580px" preserveAspectRatio="none" style="width:1280px;height:580px;" version="1.1" viewBox="0 0 1280 580" width="1280px" zoomAndPan="magnify"><defs><filter height="300%" id="f1qq4d8g96ui5e" width="300%" x="-1" y="-1"><feGaussianBlur result="blurOut" stdDeviation="2.0"/><feColorMatrix in="blurOut" result="blurOut2" type="matrix" values="0 0 0 0 0 0 0 0 0 0 0 0 0 0 0 0 0 0 .4 0"/><feOffset dx="4.0" dy="4.0" in="blurOut2" result="blurOut3"/><feBlend in="SourceGraphic" in2="blurOut3" mode="normal"/></filter></defs><g><!--cluster soen6441riskgame.models--><a target="_parent" xlink:actuate="onRequest" xlink:href="../../soen6441riskgame/models/package-summary.html" xlink:show="new" xlink:title="soen6441riskgame.models" xlink:type="simple"><polygon fill="#FFFFE0" filter="url(#f1qq4d8g96ui5e)" points="483,24,675,24,682,47.6094,836,47.6094,836,568,483,568,483,24" style="stroke: #000000; stroke-width: 2.0;"/><line style="stroke: #000000; stroke-width: 2.0;" x1="483" x2="682" y1="47.6094" y2="47.6094"/><text fill="#000000" font-family="sans-serif" font-size="14" font-weight="bold" lengthAdjust="spacingAndGlyphs" textLength="186" x="487" y="40.5332">soen6441riskgame.models</text></a><!--cluster soen6441riskgame.models.commands--><a target="_parent" xlink:actuate="onRequest" xlink:href="../../soen6441riskgame/models/commands/package-summary.html" xlink:show="new" xlink:title="soen6441riskgame.models.commands" xlink:type="simple"><polygon fill="#FFFFFF" filter="url(#f1qq4d8g96ui5e)" points="860,24,1131,24,1138,47.6094,1258,47.6094,1258,108,860,108,860,24" style="stroke: #000000; stroke-width: 2.0;"/><line style="stroke: #000000; stroke-width: 2.0;" x1="860" x2="1138" y1="47.6094" y2="47.6094"/><text fill="#000000" font-family="sans-serif" font-size="14" font-weight="bold" lengthAdjust="spacingAndGlyphs" textLength="265" x="864" y="40.5332">soen6441riskgame.models.commands</text></a><!--cluster soen6441riskgame.models.serializers--><a target="_parent" xlink:actuate="onRequest" xlink:href="../../soen6441riskgame/models/serializers/package-summary.html" xlink:show="new" xlink:title="soen6441riskgame.models.serializers" xlink:type="simple"><polygon fill="#FFFFFF" filter="url(#f1qq4d8g96ui5e)" points="22,24,291,24,298,47.6094,459,47.6094,459,200,22,200,22,24" style="stroke: #000000; stroke-width: 2.0;"/><line style="stroke: #000000; stroke-width: 2.0;" x1="22" x2="298" y1="47.6094" y2="47.6094"/><text fill="#000000" font-family="sans-serif" font-size="14" font-weight="bold" lengthAdjust="spacingAndGlyphs" textLength="263" x="26" y="40.5332">soen6441riskgame.models.serializers</text></a><!--class soen6441riskgame.models.Card--><a target="_parent" xlink:actuate="onRequest" xlink:href="../../soen6441riskgame/models/Card.html" xlink:show="new" xlink:title="soen6441riskgame.models.Card" xlink:type="simple"><rect fill="#FEFECE" filter="url(#f1qq4d8g96ui5e)" height="32" id="soen6441riskgame.models.Card" style="stroke: #A80036; stroke-width: 1.5;" width="65" x="714.5" y="152"/><ellipse cx="729.5" cy="168" fill="#ADD1B2" rx="11" ry="11" style="stroke: #A80036; stroke-width: 1.0;"/><path d="M732.2656,163.875 Q732.4219,163.6563 732.6094,163.5469 Q732.7969,163.4375 733.0156,163.4375 Q733.3906,163.4375 733.625,163.6953 Q733.8594,163.9531 733.8594,164.5625 L733.8594,166.0156 Q733.8594,166.625 733.625,166.8906 Q733.3906,167.1563 733.0156,167.1563 Q732.6719,167.1563 732.4688,166.9531 Q732.2656,166.7656 732.1563,166.25 Q732.1094,165.8906 731.9219,165.7031 Q731.5938,165.3281 730.9844,165.1094 Q730.375,164.8906 729.75,164.8906 Q728.9844,164.8906 728.3516,165.2188 Q727.7188,165.5469 727.2266,166.2969 Q726.7344,167.0469 726.7344,168.0781 L726.7344,169.1719 Q726.7344,170.4063 727.625,171.2266 Q728.5156,172.0469 730.1094,172.0469 Q731.0469,172.0469 731.7031,171.7969 Q732.0938,171.6406 732.5156,171.2031 Q732.7813,170.9375 732.9297,170.8594 Q733.0781,170.7813 733.2813,170.7813 Q733.6094,170.7813 733.8672,171.0391 Q734.125,171.2969 734.125,171.6406 Q734.125,171.9844 733.7813,172.3906 Q733.2813,172.9688 732.4844,173.2969 Q731.4063,173.75 730.1094,173.75 Q728.5938,173.75 727.3906,173.125 Q726.4063,172.625 725.7188,171.5547 Q725.0313,170.4844 725.0313,169.2031 L725.0313,168.0469 Q725.0313,166.7188 725.6484,165.5703 Q726.2656,164.4219 727.3594,163.8047 Q728.4531,163.1875 729.6875,163.1875 Q730.4219,163.1875 731.0703,163.3516 Q731.7188,163.5156 732.2656,163.875 Z "/><text fill="#000000" font-family="sans-serif" font-size="14" font-weight="bold" lengthAdjust="spacingAndGlyphs" textLength="33" x="743.5" y="173.7285">Card</text></a><!--class soen6441riskgame.models.CardSet--><a target="_parent" xlink:actuate="onRequest" xlink:href="../../soen6441riskgame/models/CardSet.html" xlink:show="new" xlink:title="soen6441riskgame.models.CardSet" xlink:type="simple"><rect fill="#FEFECE" filter="url(#f1qq4d8g96ui5e)" height="32" id="soen6441riskgame.models.CardSet" style="stroke: #A80036; stroke-width: 1.5;" width="88" x="703" y="60"/><ellipse cx="718" cy="76" fill="#ADD1B2" rx="11" ry="11" style="stroke: #A80036; stroke-width: 1.0;"/><path d="M720.7656,71.875 Q720.9219,71.6563 721.1094,71.5469 Q721.2969,71.4375 721.5156,71.4375 Q721.8906,71.4375 722.125,71.6953 Q722.3594,71.9531 722.3594,72.5625 L722.3594,74.0156 Q722.3594,74.625 722.125,74.8906 Q721.8906,75.1563 721.5156,75.1563 Q721.1719,75.1563 720.9688,74.9531 Q720.7656,74.7656 720.6563,74.25 Q720.6094,73.8906 720.4219,73.7031 Q720.0938,73.3281 719.4844,73.1094 Q718.875,72.8906 718.25,72.8906 Q717.4844,72.8906 716.8516,73.2188 Q716.2188,73.5469 715.7266,74.2969 Q715.2344,75.0469 715.2344,76.0781 L715.2344,77.1719 Q715.2344,78.4063 716.125,79.2266 Q717.0156,80.0469 718.6094,80.0469 Q719.5469,80.0469 720.2031,79.7969 Q720.5938,79.6406 721.0156,79.2031 Q721.2813,78.9375 721.4297,78.8594 Q721.5781,78.7813 721.7813,78.7813 Q722.1094,78.7813 722.3672,79.0391 Q722.625,79.2969 722.625,79.6406 Q722.625,79.9844 722.2813,80.3906 Q721.7813,80.9688 720.9844,81.2969 Q719.9063,81.75 718.6094,81.75 Q717.0938,81.75 715.8906,81.125 Q714.9063,80.625 714.2188,79.5547 Q713.5313,78.4844 713.5313,77.2031 L713.5313,76.0469 Q713.5313,74.7188 714.1484,73.5703 Q714.7656,72.4219 715.8594,71.8047 Q716.9531,71.1875 718.1875,71.1875 Q718.9219,71.1875 719.5703,71.3516 Q720.2188,71.5156 720.7656,71.875 Z "/><text fill="#000000" font-family="sans-serif" font-size="14" font-weight="bold" lengthAdjust="spacingAndGlyphs" textLength="56" x="732" y="81.7285">CardSet</text></a><!--class soen6441riskgame.models.Continent--><a target="_parent" xlink:actuate="onRequest" xlink:href="../../soen6441riskgame/models/Continent.html" xlink:show="new" xlink:title="soen6441riskgame.models.Continent" xlink:type="simple"><rect fill="#FEFECE" filter="url(#f1qq4d8g96ui5e)" height="32" id="soen6441riskgame.models.Continent" style="stroke: #A80036; stroke-width: 1.5;" width="101" x="499.5" y="428"/><ellipse cx="514.5" cy="444" fill="#ADD1B2" rx="11" ry="11" style="stroke: #A80036; stroke-width: 1.0;"/><path d="M517.2656,439.875 Q517.4219,439.6563 517.6094,439.5469 Q517.7969,439.4375 518.0156,439.4375 Q518.3906,439.4375 518.625,439.6953 Q518.8594,439.9531 518.8594,440.5625 L518.8594,442.0156 Q518.8594,442.625 518.625,442.8906 Q518.3906,443.1563 518.0156,443.1563 Q517.6719,443.1563 517.4688,442.9531 Q517.2656,442.7656 517.1563,442.25 Q517.1094,441.8906 516.9219,441.7031 Q516.5938,441.3281 515.9844,441.1094 Q515.375,440.8906 514.75,440.8906 Q513.9844,440.8906 513.3516,441.2188 Q512.7188,441.5469 512.2266,442.2969 Q511.7344,443.0469 511.7344,444.0781 L511.7344,445.1719 Q511.7344,446.4063 512.625,447.2266 Q513.5156,448.0469 515.1094,448.0469 Q516.0469,448.0469 516.7031,447.7969 Q517.0938,447.6406 517.5156,447.2031 Q517.7813,446.9375 517.9297,446.8594 Q518.0781,446.7813 518.2813,446.7813 Q518.6094,446.7813 518.8672,447.0391 Q519.125,447.2969 519.125,447.6406 Q519.125,447.9844 518.7813,448.3906 Q518.2813,448.9688 517.4844,449.2969 Q516.4063,449.75 515.1094,449.75 Q513.5938,449.75 512.3906,449.125 Q511.4063,448.625 510.7188,447.5547 Q510.0313,446.4844 510.0313,445.2031 L510.0313,444.0469 Q510.0313,442.7188 510.6484,441.5703 Q511.2656,440.4219 512.3594,439.8047 Q513.4531,439.1875 514.6875,439.1875 Q515.4219,439.1875 516.0703,439.3516 Q516.7188,439.5156 517.2656,439.875 Z "/><text fill="#000000" font-family="sans-serif" font-size="14" font-weight="bold" lengthAdjust="spacingAndGlyphs" textLength="69" x="528.5" y="449.7285">Continent</text></a><!--class soen6441riskgame.models.Coordinate--><a target="_parent" xlink:actuate="onRequest" xlink:href="../../soen6441riskgame/models/Coordinate.html" xlink:show="new" xlink:title="soen6441riskgame.models.Coordinate" xlink:type="simple"><rect fill="#FEFECE" filter="url(#f1qq4d8g96ui5e)" height="32" id="soen6441riskgame.models.Coordinate" style="stroke: #A80036; stroke-width: 1.5;" width="110" x="636" y="428"/><ellipse cx="651" cy="444" fill="#ADD1B2" rx="11" ry="11" style="stroke: #A80036; stroke-width: 1.0;"/><path d="M653.7656,439.875 Q653.9219,439.6563 654.1094,439.5469 Q654.2969,439.4375 654.5156,439.4375 Q654.8906,439.4375 655.125,439.6953 Q655.3594,439.9531 655.3594,440.5625 L655.3594,442.0156 Q655.3594,442.625 655.125,442.8906 Q654.8906,443.1563 654.5156,443.1563 Q654.1719,443.1563 653.9688,442.9531 Q653.7656,442.7656 653.6563,442.25 Q653.6094,441.8906 653.4219,441.7031 Q653.0938,441.3281 652.4844,441.1094 Q651.875,440.8906 651.25,440.8906 Q650.4844,440.8906 649.8516,441.2188 Q649.2188,441.5469 648.7266,442.2969 Q648.2344,443.0469 648.2344,444.0781 L648.2344,445.1719 Q648.2344,446.4063 649.125,447.2266 Q650.0156,448.0469 651.6094,448.0469 Q652.5469,448.0469 653.2031,447.7969 Q653.5938,447.6406 654.0156,447.2031 Q654.2813,446.9375 654.4297,446.8594 Q654.5781,446.7813 654.7813,446.7813 Q655.1094,446.7813 655.3672,447.0391 Q655.625,447.2969 655.625,447.6406 Q655.625,447.9844 655.2813,448.3906 Q654.7813,448.9688 653.9844,449.2969 Q652.9063,449.75 651.6094,449.75 Q650.0938,449.75 648.8906,449.125 Q647.9063,448.625 647.2188,447.5547 Q646.5313,446.4844 646.5313,445.2031 L646.5313,444.0469 Q646.5313,442.7188 647.1484,441.5703 Q647.7656,440.4219 648.8594,439.8047 Q649.9531,439.1875 651.1875,439.1875 Q651.9219,439.1875 652.5703,439.3516 Q653.2188,439.5156 653.7656,439.875 Z "/><text fill="#000000" font-family="sans-serif" font-size="14" font-weight="bold" lengthAdjust="spacingAndGlyphs" textLength="78" x="665" y="449.7285">Coordinate</text></a><!--class soen6441riskgame.models.Country--><a target="_parent" xlink:actuate="onRequest" xlink:href="../../soen6441riskgame/models/Country.html" xlink:show="new" xlink:title="soen6441riskgame.models.Country" xlink:type="simple"><rect fill="#FEFECE" filter="url(#f1qq4d8g96ui5e)" height="32" id="soen6441riskgame.models.Country" style="stroke: #A80036; stroke-width: 1.5;" width="87" x="631.5" y="336"/><ellipse cx="646.5" cy="352" fill="#ADD1B2" rx="11" ry="11" style="stroke: #A80036; stroke-width: 1.0;"/><path d="M649.2656,347.875 Q649.4219,347.6563 649.6094,347.5469 Q649.7969,347.4375 650.0156,347.4375 Q650.3906,347.4375 650.625,347.6953 Q650.8594,347.9531 650.8594,348.5625 L650.8594,350.0156 Q650.8594,350.625 650.625,350.8906 Q650.3906,351.1563 650.0156,351.1563 Q649.6719,351.1563 649.4688,350.9531 Q649.2656,350.7656 649.1563,350.25 Q649.1094,349.8906 648.9219,349.7031 Q648.5938,349.3281 647.9844,349.1094 Q647.375,348.8906 646.75,348.8906 Q645.9844,348.8906 645.3516,349.2188 Q644.7188,349.5469 644.2266,350.2969 Q643.7344,351.0469 643.7344,352.0781 L643.7344,353.1719 Q643.7344,354.4063 644.625,355.2266 Q645.5156,356.0469 647.1094,356.0469 Q648.0469,356.0469 648.7031,355.7969 Q649.0938,355.6406 649.5156,355.2031 Q649.7813,354.9375 649.9297,354.8594 Q650.0781,354.7813 650.2813,354.7813 Q650.6094,354.7813 650.8672,355.0391 Q651.125,355.2969 651.125,355.6406 Q651.125,355.9844 650.7813,356.3906 Q650.2813,356.9688 649.4844,357.2969 Q648.4063,357.75 647.1094,357.75 Q645.5938,357.75 644.3906,357.125 Q643.4063,356.625 642.7188,355.5547 Q642.0313,354.4844 642.0313,353.2031 L642.0313,352.0469 Q642.0313,350.7188 642.6484,349.5703 Q643.2656,348.4219 644.3594,347.8047 Q645.4531,347.1875 646.6875,347.1875 Q647.4219,347.1875 648.0703,347.3516 Q648.7188,347.5156 649.2656,347.875 Z "/><text fill="#000000" font-family="sans-serif" font-size="14" font-weight="bold" lengthAdjust="spacingAndGlyphs" textLength="55" x="660.5" y="357.7285">Country</text></a><!--class soen6441riskgame.models.ModelCommands--><a target="_parent" xlink:actuate="onRequest" xlink:href="../../soen6441riskgame/models/ModelCommands.html" xlink:show="new" xlink:title="soen6441riskgame.models.ModelCommands" xlink:type="simple"><rect fill="#FEFECE" filter="url(#f1qq4d8g96ui5e)" height="32" id="soen6441riskgame.models.ModelCommands" style="stroke: #A80036; stroke-width: 1.5;" width="153" x="512.5" y="60"/><ellipse cx="527.5" cy="76" fill="#ADD1B2" rx="11" ry="11" style="stroke: #A80036; stroke-width: 1.0;"/><path d="M530.2656,71.875 Q530.4219,71.6563 530.6094,71.5469 Q530.7969,71.4375 531.0156,71.4375 Q531.3906,71.4375 531.625,71.6953 Q531.8594,71.9531 531.8594,72.5625 L531.8594,74.0156 Q531.8594,74.625 531.625,74.8906 Q531.3906,75.1563 531.0156,75.1563 Q530.6719,75.1563 530.4688,74.9531 Q530.2656,74.7656 530.1563,74.25 Q530.1094,73.8906 529.9219,73.7031 Q529.5938,73.3281 528.9844,73.1094 Q528.375,72.8906 527.75,72.8906 Q526.9844,72.8906 526.3516,73.2188 Q525.7188,73.5469 525.2266,74.2969 Q524.7344,75.0469 524.7344,76.0781 L524.7344,77.1719 Q524.7344,78.4063 525.625,79.2266 Q526.5156,80.0469 528.1094,80.0469 Q529.0469,80.0469 529.7031,79.7969 Q530.0938,79.6406 530.5156,79.2031 Q530.7813,78.9375 530.9297,78.8594 Q531.0781,78.7813 531.2813,78.7813 Q531.6094,78.7813 531.8672,79.0391 Q532.125,79.2969 532.125,79.6406 Q532.125,79.9844 531.7813,80.3906 Q531.2813,80.9688 530.4844,81.2969 Q529.4063,81.75 528.1094,81.75 Q526.5938,81.75 525.3906,81.125 Q524.4063,80.625 523.7188,79.5547 Q523.0313,78.4844 523.0313,77.2031 L523.0313,76.0469 Q523.0313,74.7188 523.6484,73.5703 Q524.2656,72.4219 525.3594,71.8047 Q526.4531,71.1875 527.6875,71.1875 Q528.4219,71.1875 529.0703,71.3516 Q529.7188,71.5156 530.2656,71.875 Z "/><text fill="#000000" font-family="sans-serif" font-size="14" font-weight="bold" lengthAdjust="spacingAndGlyphs" textLength="121" x="541.5" y="81.7285">ModelCommands</text></a><!--class soen6441riskgame.models.ModelCommandsPair--><a target="_parent" xlink:actuate="onRequest" xlink:href="../../soen6441riskgame/models/ModelCommandsPair.html" xlink:show="new" xlink:title="soen6441riskgame.models.ModelCommandsPair" xlink:type="simple"><rect fill="#FEFECE" filter="url(#f1qq4d8g96ui5e)" height="32" id="soen6441riskgame.models.ModelCommandsPair" style="stroke: #A80036; stroke-width: 1.5;" width="180" x="499" y="152"/><ellipse cx="514" cy="168" fill="#ADD1B2" rx="11" ry="11" style="stroke: #A80036; stroke-width: 1.0;"/><path d="M516.7656,163.875 Q516.9219,163.6563 517.1094,163.5469 Q517.2969,163.4375 517.5156,163.4375 Q517.8906,163.4375 518.125,163.6953 Q518.3594,163.9531 518.3594,164.5625 L518.3594,166.0156 Q518.3594,166.625 518.125,166.8906 Q517.8906,167.1563 517.5156,167.1563 Q517.1719,167.1563 516.9688,166.9531 Q516.7656,166.7656 516.6563,166.25 Q516.6094,165.8906 516.4219,165.7031 Q516.0938,165.3281 515.4844,165.1094 Q514.875,164.8906 514.25,164.8906 Q513.4844,164.8906 512.8516,165.2188 Q512.2188,165.5469 511.7266,166.2969 Q511.2344,167.0469 511.2344,168.0781 L511.2344,169.1719 Q511.2344,170.4063 512.125,171.2266 Q513.0156,172.0469 514.6094,172.0469 Q515.5469,172.0469 516.2031,171.7969 Q516.5938,171.6406 517.0156,171.2031 Q517.2813,170.9375 517.4297,170.8594 Q517.5781,170.7813 517.7813,170.7813 Q518.1094,170.7813 518.3672,171.0391 Q518.625,171.2969 518.625,171.6406 Q518.625,171.9844 518.2813,172.3906 Q517.7813,172.9688 516.9844,173.2969 Q515.9063,173.75 514.6094,173.75 Q513.0938,173.75 511.8906,173.125 Q510.9063,172.625 510.2188,171.5547 Q509.5313,170.4844 509.5313,169.2031 L509.5313,168.0469 Q509.5313,166.7188 510.1484,165.5703 Q510.7656,164.4219 511.8594,163.8047 Q512.9531,163.1875 514.1875,163.1875 Q514.9219,163.1875 515.5703,163.3516 Q516.2188,163.5156 516.7656,163.875 Z "/><text fill="#000000" font-family="sans-serif" font-size="14" font-weight="bold" lengthAdjust="spacingAndGlyphs" textLength="148" x="528" y="173.7285">ModelCommandsPair</text></a><!--class soen6441riskgame.models.Player--><a target="_parent" xlink:actuate="onRequest" xlink:href="../../soen6441riskgame/models/Player.html" xlink:show="new" xlink:title="soen6441riskgame.models.Player" xlink:type="simple"><rect fill="#FEFECE" filter="url(#f1qq4d8g96ui5e)" height="32" id="soen6441riskgame.models.Player" style="stroke: #A80036; stroke-width: 1.5;" width="75" x="637.5" y="244"/><ellipse cx="652.5" cy="260" fill="#ADD1B2" rx="11" ry="11" style="stroke: #A80036; stroke-width: 1.0;"/><path d="M655.2656,255.875 Q655.4219,255.6563 655.6094,255.5469 Q655.7969,255.4375 656.0156,255.4375 Q656.3906,255.4375 656.625,255.6953 Q656.8594,255.9531 656.8594,256.5625 L656.8594,258.0156 Q656.8594,258.625 656.625,258.8906 Q656.3906,259.1563 656.0156,259.1563 Q655.6719,259.1563 655.4688,258.9531 Q655.2656,258.7656 655.1563,258.25 Q655.1094,257.8906 654.9219,257.7031 Q654.5938,257.3281 653.9844,257.1094 Q653.375,256.8906 652.75,256.8906 Q651.9844,256.8906 651.3516,257.2188 Q650.7188,257.5469 650.2266,258.2969 Q649.7344,259.0469 649.7344,260.0781 L649.7344,261.1719 Q649.7344,262.4063 650.625,263.2266 Q651.5156,264.0469 653.1094,264.0469 Q654.0469,264.0469 654.7031,263.7969 Q655.0938,263.6406 655.5156,263.2031 Q655.7813,262.9375 655.9297,262.8594 Q656.0781,262.7813 656.2813,262.7813 Q656.6094,262.7813 656.8672,263.0391 Q657.125,263.2969 657.125,263.6406 Q657.125,263.9844 656.7813,264.3906 Q656.2813,264.9688 655.4844,265.2969 Q654.4063,265.75 653.1094,265.75 Q651.5938,265.75 650.3906,265.125 Q649.4063,264.625 648.7188,263.5547 Q648.0313,262.4844 648.0313,261.2031 L648.0313,260.0469 Q648.0313,258.7188 648.6484,257.5703 Q649.2656,256.4219 650.3594,255.8047 Q651.4531,255.1875 652.6875,255.1875 Q653.4219,255.1875 654.0703,255.3516 Q654.7188,255.5156 655.2656,255.875 Z "/><text fill="#000000" font-family="sans-serif" font-size="14" font-weight="bold" lengthAdjust="spacingAndGlyphs" textLength="43" x="666.5" y="265.7285">Player</text></a><!--class soen6441riskgame.models.Viewable--><a target="_parent" xlink:actuate="onRequest" xlink:href="../../soen6441riskgame/models/Viewable.html" xlink:show="new" xlink:title="soen6441riskgame.models.Viewable" xlink:type="simple"><rect fill="#FEFECE" filter="url(#f1qq4d8g96ui5e)" height="32" id="soen6441riskgame.models.Viewable" style="stroke: #A80036; stroke-width: 1.5;" width="94" x="726" y="520"/><ellipse cx="741" cy="536" fill="#B4A7E5" rx="11" ry="11" style="stroke: #A80036; stroke-width: 1.0;"/><path d="M741.9531,532.6406 L741.9531,539.2969 L743.6719,539.2969 Q744.2813,539.2969 744.5469,539.5313 Q744.8125,539.7656 744.8125,540.1563 Q744.8125,540.5313 744.5469,540.7656 Q744.2813,541 743.6719,541 L738.5313,541 Q737.9219,541 737.6563,540.7656 Q737.3906,540.5313 737.3906,540.1406 Q737.3906,539.7656 737.6563,539.5313 Q737.9219,539.2969 738.5313,539.2969 L740.25,539.2969 L740.25,532.6406 L738.5313,532.6406 Q737.9219,532.6406 737.6563,532.4063 Q737.3906,532.1719 737.3906,531.7813 Q737.3906,531.4063 737.6563,531.1719 Q737.9219,530.9375 738.5313,530.9375 L743.6719,530.9375 Q744.2813,530.9375 744.5469,531.1719 Q744.8125,531.4063 744.8125,531.7813 Q744.8125,532.1719 744.5469,532.4063 Q744.2813,532.6406 743.6719,532.6406 L741.9531,532.6406 Z "/><text fill="#000000" font-family="sans-serif" font-size="14" font-style="italic" font-weight="bold" lengthAdjust="spacingAndGlyphs" textLength="62" x="755" y="541.7285">Viewable</text></a><!--class soen6441riskgame.models.commands.GameCommands--><a target="_parent" xlink:actuate="onRequest" xlink:href="../../soen6441riskgame/models/commands/GameCommands.html" xlink:show="new" xlink:title="soen6441riskgame.models.commands.GameCommands" xlink:type="simple"><rect fill="#FEFECE" filter="url(#f1qq4d8g96ui5e)" height="32" id="soen6441riskgame.models.commands.GameCommands" style="stroke: #A80036; stroke-width: 1.5;" width="149" x="1092.5" y="60"/><ellipse cx="1107.5" cy="76" fill="#ADD1B2" rx="11" ry="11" style="stroke: #A80036; stroke-width: 1.0;"/><path d="M1110.2656,71.875 Q1110.4219,71.6563 1110.6094,71.5469 Q1110.7969,71.4375 1111.0156,71.4375 Q1111.3906,71.4375 1111.625,71.6953 Q1111.8594,71.9531 1111.8594,72.5625 L1111.8594,74.0156 Q1111.8594,74.625 1111.625,74.8906 Q1111.3906,75.1563 1111.0156,75.1563 Q1110.6719,75.1563 1110.4688,74.9531 Q1110.2656,74.7656 1110.1563,74.25 Q1110.1094,73.8906 1109.9219,73.7031 Q1109.5938,73.3281 1108.9844,73.1094 Q1108.375,72.8906 1107.75,72.8906 Q1106.9844,72.8906 1106.3516,73.2188 Q1105.7188,73.5469 1105.2266,74.2969 Q1104.7344,75.0469 1104.7344,76.0781 L1104.7344,77.1719 Q1104.7344,78.4063 1105.625,79.2266 Q1106.5156,80.0469 1108.1094,80.0469 Q1109.0469,80.0469 1109.7031,79.7969 Q1110.0938,79.6406 1110.5156,79.2031 Q1110.7813,78.9375 1110.9297,78.8594 Q1111.0781,78.7813 1111.2813,78.7813 Q1111.6094,78.7813 1111.8672,79.0391 Q1112.125,79.2969 1112.125,79.6406 Q1112.125,79.9844 1111.7813,80.3906 Q1111.2813,80.9688 1110.4844,81.2969 Q1109.4063,81.75 1108.1094,81.75 Q1106.5938,81.75 1105.3906,81.125 Q1104.4063,80.625 1103.7188,79.5547 Q1103.0313,78.4844 1103.0313,77.2031 L1103.0313,76.0469 Q1103.0313,74.7188 1103.6484,73.5703 Q1104.2656,72.4219 1105.3594,71.8047 Q1106.4531,71.1875 1107.6875,71.1875 Q1108.4219,71.1875 1109.0703,71.3516 Q1109.7188,71.5156 1110.2656,71.875 Z "/><text fill="#000000" font-family="sans-serif" font-size="14" font-weight="bold" lengthAdjust="spacingAndGlyphs" textLength="117" x="1121.5" y="81.7285">GameCommands</text></a><!--class soen6441riskgame.models.commands.MapEditorCommands--><a target="_parent" xlink:actuate="onRequest" xlink:href="../../soen6441riskgame/models/commands/MapEditorCommands.html" xlink:show="new" xlink:title="soen6441riskgame.models.commands.MapEditorCommands" xlink:type="simple"><rect fill="#FEFECE" filter="url(#f1qq4d8g96ui5e)" height="32" id="soen6441riskgame.models.commands.MapEditorCommands" style="stroke: #A80036; stroke-width: 1.5;" width="181" x="876.5" y="60"/><ellipse cx="891.5" cy="76" fill="#ADD1B2" rx="11" ry="11" style="stroke: #A80036; stroke-width: 1.0;"/><path d="M894.2656,71.875 Q894.4219,71.6563 894.6094,71.5469 Q894.7969,71.4375 895.0156,71.4375 Q895.3906,71.4375 895.625,71.6953 Q895.8594,71.9531 895.8594,72.5625 L895.8594,74.0156 Q895.8594,74.625 895.625,74.8906 Q895.3906,75.1563 895.0156,75.1563 Q894.6719,75.1563 894.4688,74.9531 Q894.2656,74.7656 894.1563,74.25 Q894.1094,73.8906 893.9219,73.7031 Q893.5938,73.3281 892.9844,73.1094 Q892.375,72.8906 891.75,72.8906 Q890.9844,72.8906 890.3516,73.2188 Q889.7188,73.5469 889.2266,74.2969 Q888.7344,75.0469 888.7344,76.0781 L888.7344,77.1719 Q888.7344,78.4063 889.625,79.2266 Q890.5156,80.0469 892.1094,80.0469 Q893.0469,80.0469 893.7031,79.7969 Q894.0938,79.6406 894.5156,79.2031 Q894.7813,78.9375 894.9297,78.8594 Q895.0781,78.7813 895.2813,78.7813 Q895.6094,78.7813 895.8672,79.0391 Q896.125,79.2969 896.125,79.6406 Q896.125,79.9844 895.7813,80.3906 Q895.2813,80.9688 894.4844,81.2969 Q893.4063,81.75 892.1094,81.75 Q890.5938,81.75 889.3906,81.125 Q888.4063,80.625 887.7188,79.5547 Q887.0313,78.4844 887.0313,77.2031 L887.0313,76.0469 Q887.0313,74.7188 887.6484,73.5703 Q888.2656,72.4219 889.3594,71.8047 Q890.4531,71.1875 891.6875,71.1875 Q892.4219,71.1875 893.0703,71.3516 Q893.7188,71.5156 894.2656,71.875 Z "/><text fill="#000000" font-family="sans-serif" font-size="14" font-weight="bold" lengthAdjust="spacingAndGlyphs" textLength="149" x="905.5" y="81.7285">MapEditorCommands</text></a><!--class soen6441riskgame.models.serializers.NameOnlyJsonAdapter--><a target="_parent" xlink:actuate="onRequest" xlink:href="../../soen6441riskgame/models/serializers/NameOnlyJsonAdapter.html" xlink:show="new" xlink:title="soen6441riskgame.models.serializers.NameOnlyJsonAdapter" xlink:type="simple"><rect fill="#FEFECE" filter="url(#f1qq4d8g96ui5e)" height="32" id="soen6441riskgame.models.serializers.NameOnlyJsonAdapter" style="stroke: #A80036; stroke-width: 1.5;" width="191" x="38.5" y="60"/><ellipse cx="53.5" cy="76" fill="#ADD1B2" rx="11" ry="11" style="stroke: #A80036; stroke-width: 1.0;"/><path d="M56.2656,71.875 Q56.4219,71.6563 56.6094,71.5469 Q56.7969,71.4375 57.0156,71.4375 Q57.3906,71.4375 57.625,71.6953 Q57.8594,71.9531 57.8594,72.5625 L57.8594,74.0156 Q57.8594,74.625 57.625,74.8906 Q57.3906,75.1563 57.0156,75.1563 Q56.6719,75.1563 56.4688,74.9531 Q56.2656,74.7656 56.1563,74.25 Q56.1094,73.8906 55.9219,73.7031 Q55.5938,73.3281 54.9844,73.1094 Q54.375,72.8906 53.75,72.8906 Q52.9844,72.8906 52.3516,73.2188 Q51.7188,73.5469 51.2266,74.2969 Q50.7344,75.0469 50.7344,76.0781 L50.7344,77.1719 Q50.7344,78.4063 51.625,79.2266 Q52.5156,80.0469 54.1094,80.0469 Q55.0469,80.0469 55.7031,79.7969 Q56.0938,79.6406 56.5156,79.2031 Q56.7813,78.9375 56.9297,78.8594 Q57.0781,78.7813 57.2813,78.7813 Q57.6094,78.7813 57.8672,79.0391 Q58.125,79.2969 58.125,79.6406 Q58.125,79.9844 57.7813,80.3906 Q57.2813,80.9688 56.4844,81.2969 Q55.4063,81.75 54.1094,81.75 Q52.5938,81.75 51.3906,81.125 Q50.4063,80.625 49.7188,79.5547 Q49.0313,78.4844 49.0313,77.2031 L49.0313,76.0469 Q49.0313,74.7188 49.6484,73.5703 Q50.2656,72.4219 51.3594,71.8047 Q52.4531,71.1875 53.6875,71.1875 Q54.4219,71.1875 55.0703,71.3516 Q55.7188,71.5156 56.2656,71.875 Z "/><text fill="#000000" font-family="sans-serif" font-size="14" font-weight="bold" lengthAdjust="spacingAndGlyphs" textLength="159" x="67.5" y="81.7285">NameOnlyJsonAdapter</text></a><!--class soen6441riskgame.models.serializers.NameOnlySerializable--><a target="_parent" xlink:actuate="onRequest" xlink:href="../../soen6441riskgame/models/serializers/NameOnlySerializable.html" xlink:show="new" xlink:title="soen6441riskgame.models.serializers.NameOnlySerializable" xlink:type="simple"><rect fill="#FEFECE" filter="url(#f1qq4d8g96ui5e)" height="32" id="soen6441riskgame.models.serializers.NameOnlySerializable" style="stroke: #A80036; stroke-width: 1.5;" width="178" x="265" y="60"/><ellipse cx="280" cy="76" fill="#B4A7E5" rx="11" ry="11" style="stroke: #A80036; stroke-width: 1.0;"/><path d="M280.9531,72.6406 L280.9531,79.2969 L282.6719,79.2969 Q283.2813,79.2969 283.5469,79.5313 Q283.8125,79.7656 283.8125,80.1563 Q283.8125,80.5313 283.5469,80.7656 Q283.2813,81 282.6719,81 L277.5313,81 Q276.9219,81 276.6563,80.7656 Q276.3906,80.5313 276.3906,80.1406 Q276.3906,79.7656 276.6563,79.5313 Q276.9219,79.2969 277.5313,79.2969 L279.25,79.2969 L279.25,72.6406 L277.5313,72.6406 Q276.9219,72.6406 276.6563,72.4063 Q276.3906,72.1719 276.3906,71.7813 Q276.3906,71.4063 276.6563,71.1719 Q276.9219,70.9375 277.5313,70.9375 L282.6719,70.9375 Q283.2813,70.9375 283.5469,71.1719 Q283.8125,71.4063 283.8125,71.7813 Q283.8125,72.1719 283.5469,72.4063 Q283.2813,72.6406 282.6719,72.6406 L280.9531,72.6406 Z "/><text fill="#000000" font-family="sans-serif" font-size="14" font-style="italic" font-weight="bold" lengthAdjust="spacingAndGlyphs" textLength="146" x="294" y="81.7285">NameOnlySerializable</text></a><!--class soen6441riskgame.models.serializers.SerializableGame--><a target="_parent" xlink:actuate="onRequest" xlink:href="../../soen6441riskgame/models/serializers/SerializableGame.html" xlink:show="new" xlink:title="soen6441riskgame.models.serializers.SerializableGame" xlink:type="simple"><rect fill="#FEFECE" filter="url(#f1qq4d8g96ui5e)" height="32" id="soen6441riskgame.models.serializers.SerializableGame" style="stroke: #A80036; stroke-width: 1.5;" width="153" x="46.5" y="152"/><ellipse cx="61.5" cy="168" fill="#ADD1B2" rx="11" ry="11" style="stroke: #A80036; stroke-width: 1.0;"/><path d="M64.2656,163.875 Q64.4219,163.6563 64.6094,163.5469 Q64.7969,163.4375 65.0156,163.4375 Q65.3906,163.4375 65.625,163.6953 Q65.8594,163.9531 65.8594,164.5625 L65.8594,166.0156 Q65.8594,166.625 65.625,166.8906 Q65.3906,167.1563 65.0156,167.1563 Q64.6719,167.1563 64.4688,166.9531 Q64.2656,166.7656 64.1563,166.25 Q64.1094,165.8906 63.9219,165.7031 Q63.5938,165.3281 62.9844,165.1094 Q62.375,164.8906 61.75,164.8906 Q60.9844,164.8906 60.3516,165.2188 Q59.7188,165.5469 59.2266,166.2969 Q58.7344,167.0469 58.7344,168.0781 L58.7344,169.1719 Q58.7344,170.4063 59.625,171.2266 Q60.5156,172.0469 62.1094,172.0469 Q63.0469,172.0469 63.7031,171.7969 Q64.0938,171.6406 64.5156,171.2031 Q64.7813,170.9375 64.9297,170.8594 Q65.0781,170.7813 65.2813,170.7813 Q65.6094,170.7813 65.8672,171.0391 Q66.125,171.2969 66.125,171.6406 Q66.125,171.9844 65.7813,172.3906 Q65.2813,172.9688 64.4844,173.2969 Q63.4063,173.75 62.1094,173.75 Q60.5938,173.75 59.3906,173.125 Q58.4063,172.625 57.7188,171.5547 Q57.0313,170.4844 57.0313,169.2031 L57.0313,168.0469 Q57.0313,166.7188 57.6484,165.5703 Q58.2656,164.4219 59.3594,163.8047 Q60.4531,163.1875 61.6875,163.1875 Q62.4219,163.1875 63.0703,163.3516 Q63.7188,163.5156 64.2656,163.875 Z "/><text fill="#000000" font-family="sans-serif" font-size="14" font-weight="bold" lengthAdjust="spacingAndGlyphs" textLength="121" x="75.5" y="173.7285">SerializableGame</text></a><!--class soen6441riskgame.models.serializers.SerializableGame.Builder--><a target="_parent" xlink:actuate="onRequest" xlink:href="../../soen6441riskgame/models/serializers/SerializableGame.Builder.html" xlink:show="new" xlink:title="soen6441riskgame.models.serializers.SerializableGame.Builder" xlink:type="simple"><rect fill="#FEFECE" filter="url(#f1qq4d8g96ui5e)" height="32" id="soen6441riskgame.models.serializers.SerializableGame.Builder" style="stroke: #A80036; stroke-width: 1.5;" width="208" x="235" y="152"/><ellipse cx="250" cy="168" fill="#ADD1B2" rx="11" ry="11" style="stroke: #A80036; stroke-width: 1.0;"/><path d="M252.7656,163.875 Q252.9219,163.6563 253.1094,163.5469 Q253.2969,163.4375 253.5156,163.4375 Q253.8906,163.4375 254.125,163.6953 Q254.3594,163.9531 254.3594,164.5625 L254.3594,166.0156 Q254.3594,166.625 254.125,166.8906 Q253.8906,167.1563 253.5156,167.1563 Q253.1719,167.1563 252.9688,166.9531 Q252.7656,166.7656 252.6563,166.25 Q252.6094,165.8906 252.4219,165.7031 Q252.0938,165.3281 251.4844,165.1094 Q250.875,164.8906 250.25,164.8906 Q249.4844,164.8906 248.8516,165.2188 Q248.2188,165.5469 247.7266,166.2969 Q247.2344,167.0469 247.2344,168.0781 L247.2344,169.1719 Q247.2344,170.4063 248.125,171.2266 Q249.0156,172.0469 250.6094,172.0469 Q251.5469,172.0469 252.2031,171.7969 Q252.5938,171.6406 253.0156,171.2031 Q253.2813,170.9375 253.4297,170.8594 Q253.5781,170.7813 253.7813,170.7813 Q254.1094,170.7813 254.3672,171.0391 Q254.625,171.2969 254.625,171.6406 Q254.625,171.9844 254.2813,172.3906 Q253.7813,172.9688 252.9844,173.2969 Q251.9063,173.75 250.6094,173.75 Q249.0938,173.75 247.8906,173.125 Q246.9063,172.625 246.2188,171.5547 Q245.5313,170.4844 245.5313,169.2031 L245.5313,168.0469 Q245.5313,166.7188 246.1484,165.5703 Q246.7656,164.4219 247.8594,163.8047 Q248.9531,163.1875 250.1875,163.1875 Q250.9219,163.1875 251.5703,163.3516 Q252.2188,163.5156 252.7656,163.875 Z "/><text fill="#000000" font-family="sans-serif" font-size="14" font-weight="bold" lengthAdjust="spacingAndGlyphs" textLength="176" x="264" y="173.7285">SerializableGame.Builder</text></a><!--link soen6441riskgame.models.Card to soen6441riskgame.models.Player--><path d="M714.173,174 C709.806,174 706.8,174 706.8,174 C706.8,174 706.8,238.824 706.8,238.824 " fill="none" id="soen6441riskgame.models.Card-soen6441riskgame.models.Player" style="stroke: #A80036; stroke-width: 1.0;"/><polygon fill="#A80036" points="706.8,243.824,710.8,234.824,706.8,238.824,702.8,234.824,706.8,243.824" style="stroke: #A80036; stroke-width: 1.0;"/><text fill="#000000" font-family="sans-serif" font-size="13" lengthAdjust="spacingAndGlyphs" textLength="78" x="626.325" y="233.069">holdingPlayer</text><!--link soen6441riskgame.models.Player to soen6441riskgame.models.Card--><path d="M704.9,243.982 C704.9,216.432 704.9,163 704.9,163 C704.9,163 709.243,163 709.243,163 " fill="none" id="soen6441riskgame.models.Player-soen6441riskgame.models.Card" style="stroke: #A80036; stroke-width: 1.0; stroke-dasharray: 7.0,7.0;"/><polygon fill="#A80036" points="714.243,163,705.243,159,709.243,163,705.243,167,714.243,163" style="stroke: #A80036; stroke-width: 1.0;"/><!--link soen6441riskgame.models.Card to soen6441riskgame.models.Viewable--><path d="M768.333,184.287 C768.333,184.287 768.333,499.9008 768.333,499.9008 " fill="none" id="soen6441riskgame.models.Card-soen6441riskgame.models.Viewable" style="stroke: #A80036; stroke-width: 1.0; stroke-dasharray: 7.0,7.0;"/><polygon fill="none" points="775.333,499.9008,768.333,519.9008,761.333,499.9007,775.333,499.9008" style="stroke: #A80036; stroke-width: 1.0;"/><!--link soen6441riskgame.models.CardSet to soen6441riskgame.models.Card--><path d="M747,92.025 C747,92.025 747,146.85 747,146.85 " fill="none" id="soen6441riskgame.models.CardSet-soen6441riskgame.models.Card" style="stroke: #A80036; stroke-width: 1.0; stroke-dasharray: 7.0,7.0;"/><polygon fill="#A80036" points="747,151.85,751,142.85,747,146.85,743,142.85,747,151.85" style="stroke: #A80036; stroke-width: 1.0;"/><!--link soen6441riskgame.models.Continent to soen6441riskgame.models.Country--><path d="M560.1,427.982 C560.1,400.432 560.1,347 560.1,347 C560.1,347 626.233,347 626.233,347 " fill="none" id="soen6441riskgame.models.Continent-soen6441riskgame.models.Country" style="stroke: #A80036; stroke-width: 1.0; stroke-dasharray: 7.0,7.0;"/><polygon fill="#A80036" points="631.233,347,622.233,343,626.233,347,622.233,351,631.233,347" style="stroke: #A80036; stroke-width: 1.0;"/><!--link soen6441riskgame.models.Country to soen6441riskgame.models.Continent--><path d="M631.254,358 C606.441,358 580.3,358 580.3,358 C580.3,358 580.3,422.824 580.3,422.824 " fill="none" id="soen6441riskgame.models.Country-soen6441riskgame.models.Continent" style="stroke: #A80036; stroke-width: 1.0;"/><polygon fill="#A80036" points="580.3,427.824,584.3,418.824,580.3,422.824,576.3,418.824,580.3,427.824" style="stroke: #A80036; stroke-width: 1.0;"/><text fill="#000000" font-family="sans-serif" font-size="13" lengthAdjust="spacingAndGlyphs" textLength="53" x="528.6062" y="417.069">continent</text><!--link soen6441riskgame.models.Continent to soen6441riskgame.models.Viewable--><path d="M550,460.025 C550,486.3838 550,536 550,536 C550,536 705.98,536 705.98,536 " fill="none" id="soen6441riskgame.models.Continent-soen6441riskgame.models.Viewable" style="stroke: #A80036; stroke-width: 1.0; stroke-dasharray: 7.0,7.0;"/><polygon fill="none" points="705.98,528.9999,725.98,536,705.98,542.9999,705.98,528.9999" style="stroke: #A80036; stroke-width: 1.0;"/><!--link soen6441riskgame.models.Continent to soen6441riskgame.models.Player--><path d="M519.7,427.886 C519.7,382.18 519.7,255 519.7,255 C519.7,255 632.406,255 632.406,255 " fill="none" id="soen6441riskgame.models.Continent-soen6441riskgame.models.Player" style="stroke: #A80036; stroke-width: 1.0; stroke-dasharray: 7.0,7.0;"/><polygon fill="#A80036" points="637.406,255,628.406,251,632.406,255,628.406,259,637.406,255" style="stroke: #A80036; stroke-width: 1.0;"/><!--link soen6441riskgame.models.Player to soen6441riskgame.models.Continent--><path d="M637.367,266 C597.392,266 539.9,266 539.9,266 C539.9,266 539.9,422.89 539.9,422.89 " fill="none" id="soen6441riskgame.models.Player-soen6441riskgame.models.Continent" style="stroke: #A80036; stroke-width: 1.0; stroke-dasharray: 7.0,7.0;"/><polygon fill="#A80036" points="539.9,427.89,543.9,418.89,539.9,422.89,535.9,418.89,539.9,427.89" style="stroke: #A80036; stroke-width: 1.0;"/><!--link soen6441riskgame.models.Country to soen6441riskgame.models.Coordinate--><path d="M663.5,368.025 C663.5,368.025 663.5,422.85 663.5,422.85 " fill="none" id="soen6441riskgame.models.Country-soen6441riskgame.models.Coordinate" style="stroke: #A80036; stroke-width: 1.0;"/><polygon fill="#A80036" points="663.5,427.85,667.5,418.85,663.5,422.85,659.5,418.85,663.5,427.85" style="stroke: #A80036; stroke-width: 1.0;"/><text fill="#000000" font-family="sans-serif" font-size="13" lengthAdjust="spacingAndGlyphs" textLength="60" x="594.5026" y="417.0485">coordinate</text><!--link soen6441riskgame.models.Country to soen6441riskgame.models.Player--><path d="M650,335.975 C650,335.975 650,281.15 650,281.15 " fill="none" id="soen6441riskgame.models.Country-soen6441riskgame.models.Player" style="stroke: #A80036; stroke-width: 1.0;"/><polygon fill="#A80036" points="650,276.15,646,285.15,650,281.15,654,285.15,650,276.15" style="stroke: #A80036; stroke-width: 1.0;"/><text fill="#000000" font-family="sans-serif" font-size="13" lengthAdjust="spacingAndGlyphs" textLength="57" x="575.9469" y="297.399">conquerer</text><!--link soen6441riskgame.models.Player to soen6441riskgame.models.Country--><path d="M662.5,276.025 C662.5,276.025 662.5,330.85 662.5,330.85 " fill="none" id="soen6441riskgame.models.Player-soen6441riskgame.models.Country" style="stroke: #A80036; stroke-width: 1.0; stroke-dasharray: 7.0,7.0;"/><polygon fill="#A80036" points="662.5,335.85,666.5,326.85,662.5,330.85,658.5,326.85,662.5,335.85" style="stroke: #A80036; stroke-width: 1.0;"/><!--link soen6441riskgame.models.Country to soen6441riskgame.models.Viewable--><path d="M718.97,352 C738.506,352 757.167,352 757.167,352 C757.167,352 757.167,499.9931 757.167,499.9931 " fill="none" id="soen6441riskgame.models.Country-soen6441riskgame.models.Viewable" style="stroke: #A80036; stroke-width: 1.0; stroke-dasharray: 7.0,7.0;"/><polygon fill="none" points="764.167,499.9931,757.167,519.9931,750.167,499.9931,764.167,499.9931" style="stroke: #A80036; stroke-width: 1.0;"/><!--link soen6441riskgame.models.Country to soen6441riskgame.models.Country--><path d="M700,335.774 C700,328.273 700,321 700,321 C700,321 739.125,321 739.125,321 C739.125,321 739.125,398 739.125,398 C739.125,398 691,398 691,398 C691,398 691,373.089 691,373.089 " fill="none" id="soen6441riskgame.models.Country-soen6441riskgame.models.Country" style="stroke: #A80036; stroke-width: 1.0; stroke-dasharray: 7.0,7.0;"/><polygon fill="#A80036" points="691,368.089,687,377.089,691,373.089,695,377.089,691,368.089" style="stroke: #A80036; stroke-width: 1.0;"/><!--link soen6441riskgame.models.ModelCommands to soen6441riskgame.models.ModelCommandsPair--><path d="M589,92.025 C589,92.025 589,146.85 589,146.85 " fill="none" id="soen6441riskgame.models.ModelCommands-soen6441riskgame.models.ModelCommandsPair" style="stroke: #A80036; stroke-width: 1.0;"/><polygon fill="#A80036" points="589,151.85,593,142.85,589,146.85,585,142.85,589,151.85" style="stroke: #A80036; stroke-width: 1.0;"/><text fill="#000000" font-family="sans-serif" font-size="13" lengthAdjust="spacingAndGlyphs" textLength="74" x="502.2813" y="141.104">subRoutine *</text><!--link soen6441riskgame.models.Player to soen6441riskgame.models.Player--><path d="M710.6,243.685 C710.6,234.16 710.6,224 710.6,224 C710.6,224 725.375,224 725.375,224 C725.375,224 725.375,291 725.375,291 C725.375,291 687.5,291 687.5,291 C687.5,291 687.5,281.226 687.5,281.226 " fill="none" id="soen6441riskgame.models.Player-soen6441riskgame.models.Player" style="stroke: #A80036; stroke-width: 1.0;"/><polygon fill="#A80036" points="687.5,276.226,683.5,285.226,687.5,281.226,691.5,285.226,687.5,276.226" style="stroke: #A80036; stroke-width: 1.0;"/><text fill="#000000" font-family="sans-serif" font-size="13" lengthAdjust="spacingAndGlyphs" textLength="62" x="701.3656" y="297.4992">nextPlayer</text><!--link soen6441riskgame.models.Player to soen6441riskgame.models.Player--><path d="M708.7,243.802 C708.7,227.264 708.7,204 708.7,204 C708.7,204 732.25,204 732.25,204 C732.25,204 732.25,306 732.25,306 C732.25,306 675,306 675,306 C675,306 675,281.089 675,281.089 " fill="none" id="soen6441riskgame.models.Player-soen6441riskgame.models.Player" style="stroke: #A80036; stroke-width: 1.0;"/><polygon fill="#A80036" points="675,276.089,671,285.089,675,281.089,679,285.089,675,276.089" style="stroke: #A80036; stroke-width: 1.0;"/><text fill="#000000" font-family="sans-serif" font-size="13" lengthAdjust="spacingAndGlyphs" textLength="84" x="545.85" y="282.4688">previousPlayer</text><!--link soen6441riskgame.models.serializers.NameOnlyJsonAdapter to soen6441riskgame.models.serializers.NameOnlySerializable--><!--link soen6441riskgame.models.serializers.NameOnlyJsonAdapter to soen6441riskgame.models.serializers.SerializableGame--><!--link soen6441riskgame.models.serializers.SerializableGame to soen6441riskgame.models.serializers.SerializableGame.Builder--><!--
@startuml

skinparam svgLinkTarget _parent
skinparam linetype ortho
package soen6441riskgame.models [[../../soen6441riskgame/models/package-summary.html{soen6441riskgame.models}]] #lightyellow {
}

class "<b><size:14>Card</b>" as soen6441riskgame.models.Card  [[../../soen6441riskgame/models/Card.html{soen6441riskgame.models.Card}]] {
}

hide soen6441riskgame.models.Card fields
hide soen6441riskgame.models.Card methods

class "<b><size:14>CardSet</b>" as soen6441riskgame.models.CardSet  [[../../soen6441riskgame/models/CardSet.html{soen6441riskgame.models.CardSet}]] {
}

hide soen6441riskgame.models.CardSet fields
hide soen6441riskgame.models.CardSet methods

class "<b><size:14>Continent</b>" as soen6441riskgame.models.Continent  [[../../soen6441riskgame/models/Continent.html{soen6441riskgame.models.Continent}]] {
}

hide soen6441riskgame.models.Continent fields
hide soen6441riskgame.models.Continent methods

class "<b><size:14>Coordinate</b>" as soen6441riskgame.models.Coordinate  [[../../soen6441riskgame/models/Coordinate.html{soen6441riskgame.models.Coordinate}]] {
}

hide soen6441riskgame.models.Coordinate fields
hide soen6441riskgame.models.Coordinate methods

class "<b><size:14>Country</b>" as soen6441riskgame.models.Country  [[../../soen6441riskgame/models/Country.html{soen6441riskgame.models.Country}]] {
}

hide soen6441riskgame.models.Country fields
hide soen6441riskgame.models.Country methods

class "<b><size:14>ModelCommands</b>" as soen6441riskgame.models.ModelCommands  [[../../soen6441riskgame/models/ModelCommands.html{soen6441riskgame.models.ModelCommands}]] {
}

hide soen6441riskgame.models.ModelCommands fields
hide soen6441riskgame.models.ModelCommands methods

class "<b><size:14>ModelCommandsPair</b>" as soen6441riskgame.models.ModelCommandsPair  [[../../soen6441riskgame/models/ModelCommandsPair.html{soen6441riskgame.models.ModelCommandsPair}]] {
}

hide soen6441riskgame.models.ModelCommandsPair fields
hide soen6441riskgame.models.ModelCommandsPair methods

class "<b><size:14>Player</b>" as soen6441riskgame.models.Player  [[../../soen6441riskgame/models/Player.html{soen6441riskgame.models.Player}]] {
}

hide soen6441riskgame.models.Player fields
hide soen6441riskgame.models.Player methods

interface "<b><size:14>Viewable</b>" as soen6441riskgame.models.Viewable  [[../../soen6441riskgame/models/Viewable.html{soen6441riskgame.models.Viewable}]] {
}

hide soen6441riskgame.models.Viewable fields
hide soen6441riskgame.models.Viewable methods

soen6441riskgame.models.Card - ->  "holdingPlayer" soen6441riskgame.models.Player
soen6441riskgame.models.Card ..|> soen6441riskgame.models.Viewable
soen6441riskgame.models.CardSet ..> soen6441riskgame.models.Card
soen6441riskgame.models.Continent ..> soen6441riskgame.models.Country
soen6441riskgame.models.Continent ..|> soen6441riskgame.models.Viewable
soen6441riskgame.models.Continent ..> soen6441riskgame.models.Player
soen6441riskgame.models.Country - ->  "coordinate" soen6441riskgame.models.Coordinate
soen6441riskgame.models.Country - ->  "continent" soen6441riskgame.models.Continent
soen6441riskgame.models.Country - ->  "conquerer" soen6441riskgame.models.Player
soen6441riskgame.models.Country ..|> soen6441riskgame.models.Viewable
soen6441riskgame.models.Country ..> soen6441riskgame.models.Country
soen6441riskgame.models.ModelCommands - ->  "subRoutine *" soen6441riskgame.models.ModelCommandsPair
soen6441riskgame.models.Player - ->  "nextPlayer" soen6441riskgame.models.Player
soen6441riskgame.models.Player - ->  "previousPlayer" soen6441riskgame.models.Player
soen6441riskgame.models.Player ..> soen6441riskgame.models.Card
soen6441riskgame.models.Player ..> soen6441riskgame.models.Continent
soen6441riskgame.models.Player ..> soen6441riskgame.models.Country
package soen6441riskgame.models.commands [[../../soen6441riskgame/models/commands/package-summary.html{soen6441riskgame.models.commands}]] {
}

class "<b><size:14>GameCommands</b>" as soen6441riskgame.models.commands.GameCommands  [[../../soen6441riskgame/models/commands/GameCommands.html{soen6441riskgame.models.commands.GameCommands}]] {
}

hide soen6441riskgame.models.commands.GameCommands fields
hide soen6441riskgame.models.commands.GameCommands methods

class "<b><size:14>MapEditorCommands</b>" as soen6441riskgame.models.commands.MapEditorCommands  [[../../soen6441riskgame/models/commands/MapEditorCommands.html{soen6441riskgame.models.commands.MapEditorCommands}]] {
}

hide soen6441riskgame.models.commands.MapEditorCommands fields
hide soen6441riskgame.models.commands.MapEditorCommands methods

package soen6441riskgame.models.serializers [[../../soen6441riskgame/models/serializers/package-summary.html{soen6441riskgame.models.serializers}]] {
}

class "<b><size:14>NameOnlyJsonAdapter</b>" as soen6441riskgame.models.serializers.NameOnlyJsonAdapter  [[../../soen6441riskgame/models/serializers/NameOnlyJsonAdapter.html{soen6441riskgame.models.serializers.NameOnlyJsonAdapter}]] {
}

hide soen6441riskgame.models.serializers.NameOnlyJsonAdapter fields
hide soen6441riskgame.models.serializers.NameOnlyJsonAdapter methods

interface "<b><size:14>NameOnlySerializable</b>" as soen6441riskgame.models.serializers.NameOnlySerializable  [[../../soen6441riskgame/models/serializers/NameOnlySerializable.html{soen6441riskgame.models.serializers.NameOnlySerializable}]] {
}

hide soen6441riskgame.models.serializers.NameOnlySerializable fields
hide soen6441riskgame.models.serializers.NameOnlySerializable methods

class "<b><size:14>SerializableGame</b>" as soen6441riskgame.models.serializers.SerializableGame  [[../../soen6441riskgame/models/serializers/SerializableGame.html{soen6441riskgame.models.serializers.SerializableGame}]] {
}

hide soen6441riskgame.models.serializers.SerializableGame fields
hide soen6441riskgame.models.serializers.SerializableGame methods

class "<b><size:14>SerializableGame.Builder</b>" as soen6441riskgame.models.serializers.SerializableGame.Builder  [[../../soen6441riskgame/models/serializers/SerializableGame.Builder.html{soen6441riskgame.models.serializers.SerializableGame.Builder}]] {
}

hide soen6441riskgame.models.serializers.SerializableGame.Builder fields
hide soen6441riskgame.models.serializers.SerializableGame.Builder methods


@enduml

PlantUML version 1.2017.15(Mon Jul 03 12:45:34 EDT 2017)
(GPL source distribution)
Java Runtime: Java(TM) SE Runtime Environment
JVM: Java HotSpot(TM) 64-Bit Server VM
Java Version: 1.8.0_231-b11
Operating System: Windows 10
OS Version: 10.0
Default Encoding: Cp1252
Language: en
Country: US
--></g></svg>