<?xml version="1.0" encoding="UTF-8" standalone="no"?><svg xmlns="http://www.w3.org/2000/svg" xmlns:xlink="http://www.w3.org/1999/xlink" contentScriptType="application/ecmascript" contentStyleType="text/css" height="580px" preserveAspectRatio="none" style="width:1678px;height:580px;" version="1.1" viewBox="0 0 1678 580" width="1678px" zoomAndPan="magnify"><defs><filter height="300%" id="f1k9fsyy6r1f7c" width="300%" x="-1" y="-1"><feGaussianBlur result="blurOut" stdDeviation="2.0"/><feColorMatrix in="blurOut" result="blurOut2" type="matrix" values="0 0 0 0 0 0 0 0 0 0 0 0 0 0 0 0 0 0 .4 0"/><feOffset dx="4.0" dy="4.0" in="blurOut2" result="blurOut3"/><feBlend in="SourceGraphic" in2="blurOut3" mode="normal"/></filter></defs><g><!--cluster soen6441riskgame.models--><a target="_parent" xlink:actuate="onRequest" xlink:href="../../soen6441riskgame/models/package-summary.html" xlink:show="new" xlink:title="soen6441riskgame.models" xlink:type="simple"><polygon fill="#FFFFE0" filter="url(#f1k9fsyy6r1f7c)" points="750,24,942,24,949,47.6094,1234,47.6094,1234,568,750,568,750,24" style="stroke: #000000; stroke-width: 2.0;"/><line style="stroke: #000000; stroke-width: 2.0;" x1="750" x2="949" y1="47.6094" y2="47.6094"/><text fill="#000000" font-family="sans-serif" font-size="14" font-weight="bold" lengthAdjust="spacingAndGlyphs" textLength="186" x="754" y="40.5332">soen6441riskgame.models</text></a><!--cluster soen6441riskgame.models.commands--><a target="_parent" xlink:actuate="onRequest" xlink:href="../../soen6441riskgame/models/commands/package-summary.html" xlink:show="new" xlink:title="soen6441riskgame.models.commands" xlink:type="simple"><polygon fill="#FFFFFF" filter="url(#f1k9fsyy6r1f7c)" points="1258,24,1529,24,1536,47.6094,1656,47.6094,1656,108,1258,108,1258,24" style="stroke: #000000; stroke-width: 2.0;"/><line style="stroke: #000000; stroke-width: 2.0;" x1="1258" x2="1536" y1="47.6094" y2="47.6094"/><text fill="#000000" font-family="sans-serif" font-size="14" font-weight="bold" lengthAdjust="spacingAndGlyphs" textLength="265" x="1262" y="40.5332">soen6441riskgame.models.commands</text></a><!--cluster soen6441riskgame.models.serializers--><a target="_parent" xlink:actuate="onRequest" xlink:href="../../soen6441riskgame/models/serializers/package-summary.html" xlink:show="new" xlink:title="soen6441riskgame.models.serializers" xlink:type="simple"><polygon fill="#FFFFFF" filter="url(#f1k9fsyy6r1f7c)" points="22,24,291,24,298,47.6094,726,47.6094,726,200,22,200,22,24" style="stroke: #000000; stroke-width: 2.0;"/><line style="stroke: #000000; stroke-width: 2.0;" x1="22" x2="298" y1="47.6094" y2="47.6094"/><text fill="#000000" font-family="sans-serif" font-size="14" font-weight="bold" lengthAdjust="spacingAndGlyphs" textLength="263" x="26" y="40.5332">soen6441riskgame.models.serializers</text></a><!--class soen6441riskgame.models.Card--><a target="_parent" xlink:actuate="onRequest" xlink:href="../../soen6441riskgame/models/Card.html" xlink:show="new" xlink:title="soen6441riskgame.models.Card" xlink:type="simple"><rect fill="#FEFECE" filter="url(#f1k9fsyy6r1f7c)" height="32" id="soen6441riskgame.models.Card" style="stroke: #A80036; stroke-width: 1.5;" width="65" x="981.5" y="152"/><ellipse cx="996.5" cy="168" fill="#ADD1B2" rx="11" ry="11" style="stroke: #A80036; stroke-width: 1.0;"/><path d="M999.2656,163.875 Q999.4219,163.6563 999.6094,163.5469 Q999.7969,163.4375 1000.0156,163.4375 Q1000.3906,163.4375 1000.625,163.6953 Q1000.8594,163.9531 1000.8594,164.5625 L1000.8594,166.0156 Q1000.8594,166.625 1000.625,166.8906 Q1000.3906,167.1563 1000.0156,167.1563 Q999.6719,167.1563 999.4688,166.9531 Q999.2656,166.7656 999.1563,166.25 Q999.1094,165.8906 998.9219,165.7031 Q998.5938,165.3281 997.9844,165.1094 Q997.375,164.8906 996.75,164.8906 Q995.9844,164.8906 995.3516,165.2188 Q994.7188,165.5469 994.2266,166.2969 Q993.7344,167.0469 993.7344,168.0781 L993.7344,169.1719 Q993.7344,170.4063 994.625,171.2266 Q995.5156,172.0469 997.1094,172.0469 Q998.0469,172.0469 998.7031,171.7969 Q999.0938,171.6406 999.5156,171.2031 Q999.7813,170.9375 999.9297,170.8594 Q1000.0781,170.7813 1000.2813,170.7813 Q1000.6094,170.7813 1000.8672,171.0391 Q1001.125,171.2969 1001.125,171.6406 Q1001.125,171.9844 1000.7813,172.3906 Q1000.2813,172.9688 999.4844,173.2969 Q998.4063,173.75 997.1094,173.75 Q995.5938,173.75 994.3906,173.125 Q993.4063,172.625 992.7188,171.5547 Q992.0313,170.4844 992.0313,169.2031 L992.0313,168.0469 Q992.0313,166.7188 992.6484,165.5703 Q993.2656,164.4219 994.3594,163.8047 Q995.4531,163.1875 996.6875,163.1875 Q997.4219,163.1875 998.0703,163.3516 Q998.7188,163.5156 999.2656,163.875 Z "/><text fill="#000000" font-family="sans-serif" font-size="14" font-weight="bold" lengthAdjust="spacingAndGlyphs" textLength="33" x="1010.5" y="173.7285">Card</text></a><!--class soen6441riskgame.models.CardSet--><a target="_parent" xlink:actuate="onRequest" xlink:href="../../soen6441riskgame/models/CardSet.html" xlink:show="new" xlink:title="soen6441riskgame.models.CardSet" xlink:type="simple"><rect fill="#FEFECE" filter="url(#f1k9fsyy6r1f7c)" height="32" id="soen6441riskgame.models.CardSet" style="stroke: #A80036; stroke-width: 1.5;" width="88" x="970" y="60"/><ellipse cx="985" cy="76" fill="#ADD1B2" rx="11" ry="11" style="stroke: #A80036; stroke-width: 1.0;"/><path d="M987.7656,71.875 Q987.9219,71.6563 988.1094,71.5469 Q988.2969,71.4375 988.5156,71.4375 Q988.8906,71.4375 989.125,71.6953 Q989.3594,71.9531 989.3594,72.5625 L989.3594,74.0156 Q989.3594,74.625 989.125,74.8906 Q988.8906,75.1563 988.5156,75.1563 Q988.1719,75.1563 987.9688,74.9531 Q987.7656,74.7656 987.6563,74.25 Q987.6094,73.8906 987.4219,73.7031 Q987.0938,73.3281 986.4844,73.1094 Q985.875,72.8906 985.25,72.8906 Q984.4844,72.8906 983.8516,73.2188 Q983.2188,73.5469 982.7266,74.2969 Q982.2344,75.0469 982.2344,76.0781 L982.2344,77.1719 Q982.2344,78.4063 983.125,79.2266 Q984.0156,80.0469 985.6094,80.0469 Q986.5469,80.0469 987.2031,79.7969 Q987.5938,79.6406 988.0156,79.2031 Q988.2813,78.9375 988.4297,78.8594 Q988.5781,78.7813 988.7813,78.7813 Q989.1094,78.7813 989.3672,79.0391 Q989.625,79.2969 989.625,79.6406 Q989.625,79.9844 989.2813,80.3906 Q988.7813,80.9688 987.9844,81.2969 Q986.9063,81.75 985.6094,81.75 Q984.0938,81.75 982.8906,81.125 Q981.9063,80.625 981.2188,79.5547 Q980.5313,78.4844 980.5313,77.2031 L980.5313,76.0469 Q980.5313,74.7188 981.1484,73.5703 Q981.7656,72.4219 982.8594,71.8047 Q983.9531,71.1875 985.1875,71.1875 Q985.9219,71.1875 986.5703,71.3516 Q987.2188,71.5156 987.7656,71.875 Z "/><text fill="#000000" font-family="sans-serif" font-size="14" font-weight="bold" lengthAdjust="spacingAndGlyphs" textLength="56" x="999" y="81.7285">CardSet</text></a><!--class soen6441riskgame.models.Continent--><a target="_parent" xlink:actuate="onRequest" xlink:href="../../soen6441riskgame/models/Continent.html" xlink:show="new" xlink:title="soen6441riskgame.models.Continent" xlink:type="simple"><rect fill="#FEFECE" filter="url(#f1k9fsyy6r1f7c)" height="32" id="soen6441riskgame.models.Continent" style="stroke: #A80036; stroke-width: 1.5;" width="101" x="876.5" y="336"/><ellipse cx="891.5" cy="352" fill="#ADD1B2" rx="11" ry="11" style="stroke: #A80036; stroke-width: 1.0;"/><path d="M894.2656,347.875 Q894.4219,347.6563 894.6094,347.5469 Q894.7969,347.4375 895.0156,347.4375 Q895.3906,347.4375 895.625,347.6953 Q895.8594,347.9531 895.8594,348.5625 L895.8594,350.0156 Q895.8594,350.625 895.625,350.8906 Q895.3906,351.1563 895.0156,351.1563 Q894.6719,351.1563 894.4688,350.9531 Q894.2656,350.7656 894.1563,350.25 Q894.1094,349.8906 893.9219,349.7031 Q893.5938,349.3281 892.9844,349.1094 Q892.375,348.8906 891.75,348.8906 Q890.9844,348.8906 890.3516,349.2188 Q889.7188,349.5469 889.2266,350.2969 Q888.7344,351.0469 888.7344,352.0781 L888.7344,353.1719 Q888.7344,354.4063 889.625,355.2266 Q890.5156,356.0469 892.1094,356.0469 Q893.0469,356.0469 893.7031,355.7969 Q894.0938,355.6406 894.5156,355.2031 Q894.7813,354.9375 894.9297,354.8594 Q895.0781,354.7813 895.2813,354.7813 Q895.6094,354.7813 895.8672,355.0391 Q896.125,355.2969 896.125,355.6406 Q896.125,355.9844 895.7813,356.3906 Q895.2813,356.9688 894.4844,357.2969 Q893.4063,357.75 892.1094,357.75 Q890.5938,357.75 889.3906,357.125 Q888.4063,356.625 887.7188,355.5547 Q887.0313,354.4844 887.0313,353.2031 L887.0313,352.0469 Q887.0313,350.7188 887.6484,349.5703 Q888.2656,348.4219 889.3594,347.8047 Q890.4531,347.1875 891.6875,347.1875 Q892.4219,347.1875 893.0703,347.3516 Q893.7188,347.5156 894.2656,347.875 Z "/><text fill="#000000" font-family="sans-serif" font-size="14" font-weight="bold" lengthAdjust="spacingAndGlyphs" textLength="69" x="905.5" y="357.7285">Continent</text></a><!--class soen6441riskgame.models.Coordinate--><a target="_parent" xlink:actuate="onRequest" xlink:href="../../soen6441riskgame/models/Coordinate.html" xlink:show="new" xlink:title="soen6441riskgame.models.Coordinate" xlink:type="simple"><rect fill="#FEFECE" filter="url(#f1k9fsyy6r1f7c)" height="32" id="soen6441riskgame.models.Coordinate" style="stroke: #A80036; stroke-width: 1.5;" width="110" x="1108" y="520"/><ellipse cx="1123" cy="536" fill="#ADD1B2" rx="11" ry="11" style="stroke: #A80036; stroke-width: 1.0;"/><path d="M1125.7656,531.875 Q1125.9219,531.6563 1126.1094,531.5469 Q1126.2969,531.4375 1126.5156,531.4375 Q1126.8906,531.4375 1127.125,531.6953 Q1127.3594,531.9531 1127.3594,532.5625 L1127.3594,534.0156 Q1127.3594,534.625 1127.125,534.8906 Q1126.8906,535.1563 1126.5156,535.1563 Q1126.1719,535.1563 1125.9688,534.9531 Q1125.7656,534.7656 1125.6563,534.25 Q1125.6094,533.8906 1125.4219,533.7031 Q1125.0938,533.3281 1124.4844,533.1094 Q1123.875,532.8906 1123.25,532.8906 Q1122.4844,532.8906 1121.8516,533.2188 Q1121.2188,533.5469 1120.7266,534.2969 Q1120.2344,535.0469 1120.2344,536.0781 L1120.2344,537.1719 Q1120.2344,538.4063 1121.125,539.2266 Q1122.0156,540.0469 1123.6094,540.0469 Q1124.5469,540.0469 1125.2031,539.7969 Q1125.5938,539.6406 1126.0156,539.2031 Q1126.2813,538.9375 1126.4297,538.8594 Q1126.5781,538.7813 1126.7813,538.7813 Q1127.1094,538.7813 1127.3672,539.0391 Q1127.625,539.2969 1127.625,539.6406 Q1127.625,539.9844 1127.2813,540.3906 Q1126.7813,540.9688 1125.9844,541.2969 Q1124.9063,541.75 1123.6094,541.75 Q1122.0938,541.75 1120.8906,541.125 Q1119.9063,540.625 1119.2188,539.5547 Q1118.5313,538.4844 1118.5313,537.2031 L1118.5313,536.0469 Q1118.5313,534.7188 1119.1484,533.5703 Q1119.7656,532.4219 1120.8594,531.8047 Q1121.9531,531.1875 1123.1875,531.1875 Q1123.9219,531.1875 1124.5703,531.3516 Q1125.2188,531.5156 1125.7656,531.875 Z "/><text fill="#000000" font-family="sans-serif" font-size="14" font-weight="bold" lengthAdjust="spacingAndGlyphs" textLength="78" x="1137" y="541.7285">Coordinate</text></a><!--class soen6441riskgame.models.Country--><a target="_parent" xlink:actuate="onRequest" xlink:href="../../soen6441riskgame/models/Country.html" xlink:show="new" xlink:title="soen6441riskgame.models.Country" xlink:type="simple"><rect fill="#FEFECE" filter="url(#f1k9fsyy6r1f7c)" height="32" id="soen6441riskgame.models.Country" style="stroke: #A80036; stroke-width: 1.5;" width="87" x="940.5" y="428"/><ellipse cx="955.5" cy="444" fill="#ADD1B2" rx="11" ry="11" style="stroke: #A80036; stroke-width: 1.0;"/><path d="M958.2656,439.875 Q958.4219,439.6563 958.6094,439.5469 Q958.7969,439.4375 959.0156,439.4375 Q959.3906,439.4375 959.625,439.6953 Q959.8594,439.9531 959.8594,440.5625 L959.8594,442.0156 Q959.8594,442.625 959.625,442.8906 Q959.3906,443.1563 959.0156,443.1563 Q958.6719,443.1563 958.4688,442.9531 Q958.2656,442.7656 958.1563,442.25 Q958.1094,441.8906 957.9219,441.7031 Q957.5938,441.3281 956.9844,441.1094 Q956.375,440.8906 955.75,440.8906 Q954.9844,440.8906 954.3516,441.2188 Q953.7188,441.5469 953.2266,442.2969 Q952.7344,443.0469 952.7344,444.0781 L952.7344,445.1719 Q952.7344,446.4063 953.625,447.2266 Q954.5156,448.0469 956.1094,448.0469 Q957.0469,448.0469 957.7031,447.7969 Q958.0938,447.6406 958.5156,447.2031 Q958.7813,446.9375 958.9297,446.8594 Q959.0781,446.7813 959.2813,446.7813 Q959.6094,446.7813 959.8672,447.0391 Q960.125,447.2969 960.125,447.6406 Q960.125,447.9844 959.7813,448.3906 Q959.2813,448.9688 958.4844,449.2969 Q957.4063,449.75 956.1094,449.75 Q954.5938,449.75 953.3906,449.125 Q952.4063,448.625 951.7188,447.5547 Q951.0313,446.4844 951.0313,445.2031 L951.0313,444.0469 Q951.0313,442.7188 951.6484,441.5703 Q952.2656,440.4219 953.3594,439.8047 Q954.4531,439.1875 955.6875,439.1875 Q956.4219,439.1875 957.0703,439.3516 Q957.7188,439.5156 958.2656,439.875 Z "/><text fill="#000000" font-family="sans-serif" font-size="14" font-weight="bold" lengthAdjust="spacingAndGlyphs" textLength="55" x="969.5" y="449.7285">Country</text></a><!--class soen6441riskgame.models.ModelCommands--><a target="_parent" xlink:actuate="onRequest" xlink:href="../../soen6441riskgame/models/ModelCommands.html" xlink:show="new" xlink:title="soen6441riskgame.models.ModelCommands" xlink:type="simple"><rect fill="#FEFECE" filter="url(#f1k9fsyy6r1f7c)" height="32" id="soen6441riskgame.models.ModelCommands" style="stroke: #A80036; stroke-width: 1.5;" width="153" x="779.5" y="60"/><ellipse cx="794.5" cy="76" fill="#ADD1B2" rx="11" ry="11" style="stroke: #A80036; stroke-width: 1.0;"/><path d="M797.2656,71.875 Q797.4219,71.6563 797.6094,71.5469 Q797.7969,71.4375 798.0156,71.4375 Q798.3906,71.4375 798.625,71.6953 Q798.8594,71.9531 798.8594,72.5625 L798.8594,74.0156 Q798.8594,74.625 798.625,74.8906 Q798.3906,75.1563 798.0156,75.1563 Q797.6719,75.1563 797.4688,74.9531 Q797.2656,74.7656 797.1563,74.25 Q797.1094,73.8906 796.9219,73.7031 Q796.5938,73.3281 795.9844,73.1094 Q795.375,72.8906 794.75,72.8906 Q793.9844,72.8906 793.3516,73.2188 Q792.7188,73.5469 792.2266,74.2969 Q791.7344,75.0469 791.7344,76.0781 L791.7344,77.1719 Q791.7344,78.4063 792.625,79.2266 Q793.5156,80.0469 795.1094,80.0469 Q796.0469,80.0469 796.7031,79.7969 Q797.0938,79.6406 797.5156,79.2031 Q797.7813,78.9375 797.9297,78.8594 Q798.0781,78.7813 798.2813,78.7813 Q798.6094,78.7813 798.8672,79.0391 Q799.125,79.2969 799.125,79.6406 Q799.125,79.9844 798.7813,80.3906 Q798.2813,80.9688 797.4844,81.2969 Q796.4063,81.75 795.1094,81.75 Q793.5938,81.75 792.3906,81.125 Q791.4063,80.625 790.7188,79.5547 Q790.0313,78.4844 790.0313,77.2031 L790.0313,76.0469 Q790.0313,74.7188 790.6484,73.5703 Q791.2656,72.4219 792.3594,71.8047 Q793.4531,71.1875 794.6875,71.1875 Q795.4219,71.1875 796.0703,71.3516 Q796.7188,71.5156 797.2656,71.875 Z "/><text fill="#000000" font-family="sans-serif" font-size="14" font-weight="bold" lengthAdjust="spacingAndGlyphs" textLength="121" x="808.5" y="81.7285">ModelCommands</text></a><!--class soen6441riskgame.models.ModelCommandsPair--><a target="_parent" xlink:actuate="onRequest" xlink:href="../../soen6441riskgame/models/ModelCommandsPair.html" xlink:show="new" xlink:title="soen6441riskgame.models.ModelCommandsPair" xlink:type="simple"><rect fill="#FEFECE" filter="url(#f1k9fsyy6r1f7c)" height="32" id="soen6441riskgame.models.ModelCommandsPair" style="stroke: #A80036; stroke-width: 1.5;" width="180" x="766" y="152"/><ellipse cx="781" cy="168" fill="#ADD1B2" rx="11" ry="11" style="stroke: #A80036; stroke-width: 1.0;"/><path d="M783.7656,163.875 Q783.9219,163.6563 784.1094,163.5469 Q784.2969,163.4375 784.5156,163.4375 Q784.8906,163.4375 785.125,163.6953 Q785.3594,163.9531 785.3594,164.5625 L785.3594,166.0156 Q785.3594,166.625 785.125,166.8906 Q784.8906,167.1563 784.5156,167.1563 Q784.1719,167.1563 783.9688,166.9531 Q783.7656,166.7656 783.6563,166.25 Q783.6094,165.8906 783.4219,165.7031 Q783.0938,165.3281 782.4844,165.1094 Q781.875,164.8906 781.25,164.8906 Q780.4844,164.8906 779.8516,165.2188 Q779.2188,165.5469 778.7266,166.2969 Q778.2344,167.0469 778.2344,168.0781 L778.2344,169.1719 Q778.2344,170.4063 779.125,171.2266 Q780.0156,172.0469 781.6094,172.0469 Q782.5469,172.0469 783.2031,171.7969 Q783.5938,171.6406 784.0156,171.2031 Q784.2813,170.9375 784.4297,170.8594 Q784.5781,170.7813 784.7813,170.7813 Q785.1094,170.7813 785.3672,171.0391 Q785.625,171.2969 785.625,171.6406 Q785.625,171.9844 785.2813,172.3906 Q784.7813,172.9688 783.9844,173.2969 Q782.9063,173.75 781.6094,173.75 Q780.0938,173.75 778.8906,173.125 Q777.9063,172.625 777.2188,171.5547 Q776.5313,170.4844 776.5313,169.2031 L776.5313,168.0469 Q776.5313,166.7188 777.1484,165.5703 Q777.7656,164.4219 778.8594,163.8047 Q779.9531,163.1875 781.1875,163.1875 Q781.9219,163.1875 782.5703,163.3516 Q783.2188,163.5156 783.7656,163.875 Z "/><text fill="#000000" font-family="sans-serif" font-size="14" font-weight="bold" lengthAdjust="spacingAndGlyphs" textLength="148" x="795" y="173.7285">ModelCommandsPair</text></a><!--class soen6441riskgame.models.NameOnlySerializable--><a target="_parent" xlink:actuate="onRequest" xlink:href="../../soen6441riskgame/models/NameOnlySerializable.html" xlink:show="new" xlink:title="soen6441riskgame.models.NameOnlySerializable" xlink:type="simple"><rect fill="#FEFECE" filter="url(#f1k9fsyy6r1f7c)" height="32" id="soen6441riskgame.models.NameOnlySerializable" style="stroke: #A80036; stroke-width: 1.5;" width="178" x="895" y="520"/><ellipse cx="910" cy="536" fill="#B4A7E5" rx="11" ry="11" style="stroke: #A80036; stroke-width: 1.0;"/><path d="M910.9531,532.6406 L910.9531,539.2969 L912.6719,539.2969 Q913.2813,539.2969 913.5469,539.5313 Q913.8125,539.7656 913.8125,540.1563 Q913.8125,540.5313 913.5469,540.7656 Q913.2813,541 912.6719,541 L907.5313,541 Q906.9219,541 906.6563,540.7656 Q906.3906,540.5313 906.3906,540.1406 Q906.3906,539.7656 906.6563,539.5313 Q906.9219,539.2969 907.5313,539.2969 L909.25,539.2969 L909.25,532.6406 L907.5313,532.6406 Q906.9219,532.6406 906.6563,532.4063 Q906.3906,532.1719 906.3906,531.7813 Q906.3906,531.4063 906.6563,531.1719 Q906.9219,530.9375 907.5313,530.9375 L912.6719,530.9375 Q913.2813,530.9375 913.5469,531.1719 Q913.8125,531.4063 913.8125,531.7813 Q913.8125,532.1719 913.5469,532.4063 Q913.2813,532.6406 912.6719,532.6406 L910.9531,532.6406 Z "/><text fill="#000000" font-family="sans-serif" font-size="14" font-style="italic" font-weight="bold" lengthAdjust="spacingAndGlyphs" textLength="146" x="924" y="541.7285">NameOnlySerializable</text></a><!--class soen6441riskgame.models.Player--><a target="_parent" xlink:actuate="onRequest" xlink:href="../../soen6441riskgame/models/Player.html" xlink:show="new" xlink:title="soen6441riskgame.models.Player" xlink:type="simple"><rect fill="#FEFECE" filter="url(#f1k9fsyy6r1f7c)" height="32" id="soen6441riskgame.models.Player" style="stroke: #A80036; stroke-width: 1.5;" width="75" x="976.5" y="244"/><ellipse cx="991.5" cy="260" fill="#ADD1B2" rx="11" ry="11" style="stroke: #A80036; stroke-width: 1.0;"/><path d="M994.2656,255.875 Q994.4219,255.6563 994.6094,255.5469 Q994.7969,255.4375 995.0156,255.4375 Q995.3906,255.4375 995.625,255.6953 Q995.8594,255.9531 995.8594,256.5625 L995.8594,258.0156 Q995.8594,258.625 995.625,258.8906 Q995.3906,259.1563 995.0156,259.1563 Q994.6719,259.1563 994.4688,258.9531 Q994.2656,258.7656 994.1563,258.25 Q994.1094,257.8906 993.9219,257.7031 Q993.5938,257.3281 992.9844,257.1094 Q992.375,256.8906 991.75,256.8906 Q990.9844,256.8906 990.3516,257.2188 Q989.7188,257.5469 989.2266,258.2969 Q988.7344,259.0469 988.7344,260.0781 L988.7344,261.1719 Q988.7344,262.4063 989.625,263.2266 Q990.5156,264.0469 992.1094,264.0469 Q993.0469,264.0469 993.7031,263.7969 Q994.0938,263.6406 994.5156,263.2031 Q994.7813,262.9375 994.9297,262.8594 Q995.0781,262.7813 995.2813,262.7813 Q995.6094,262.7813 995.8672,263.0391 Q996.125,263.2969 996.125,263.6406 Q996.125,263.9844 995.7813,264.3906 Q995.2813,264.9688 994.4844,265.2969 Q993.4063,265.75 992.1094,265.75 Q990.5938,265.75 989.3906,265.125 Q988.4063,264.625 987.7188,263.5547 Q987.0313,262.4844 987.0313,261.2031 L987.0313,260.0469 Q987.0313,258.7188 987.6484,257.5703 Q988.2656,256.4219 989.3594,255.8047 Q990.4531,255.1875 991.6875,255.1875 Q992.4219,255.1875 993.0703,255.3516 Q993.7188,255.5156 994.2656,255.875 Z "/><text fill="#000000" font-family="sans-serif" font-size="14" font-weight="bold" lengthAdjust="spacingAndGlyphs" textLength="43" x="1005.5" y="265.7285">Player</text></a><!--class soen6441riskgame.models.Viewable--><a target="_parent" xlink:actuate="onRequest" xlink:href="../../soen6441riskgame/models/Viewable.html" xlink:show="new" xlink:title="soen6441riskgame.models.Viewable" xlink:type="simple"><rect fill="#FEFECE" filter="url(#f1k9fsyy6r1f7c)" height="32" id="soen6441riskgame.models.Viewable" style="stroke: #A80036; stroke-width: 1.5;" width="94" x="766" y="520"/><ellipse cx="781" cy="536" fill="#B4A7E5" rx="11" ry="11" style="stroke: #A80036; stroke-width: 1.0;"/><path d="M781.9531,532.6406 L781.9531,539.2969 L783.6719,539.2969 Q784.2813,539.2969 784.5469,539.5313 Q784.8125,539.7656 784.8125,540.1563 Q784.8125,540.5313 784.5469,540.7656 Q784.2813,541 783.6719,541 L778.5313,541 Q777.9219,541 777.6563,540.7656 Q777.3906,540.5313 777.3906,540.1406 Q777.3906,539.7656 777.6563,539.5313 Q777.9219,539.2969 778.5313,539.2969 L780.25,539.2969 L780.25,532.6406 L778.5313,532.6406 Q777.9219,532.6406 777.6563,532.4063 Q777.3906,532.1719 777.3906,531.7813 Q777.3906,531.4063 777.6563,531.1719 Q777.9219,530.9375 778.5313,530.9375 L783.6719,530.9375 Q784.2813,530.9375 784.5469,531.1719 Q784.8125,531.4063 784.8125,531.7813 Q784.8125,532.1719 784.5469,532.4063 Q784.2813,532.6406 783.6719,532.6406 L781.9531,532.6406 Z "/><text fill="#000000" font-family="sans-serif" font-size="14" font-style="italic" font-weight="bold" lengthAdjust="spacingAndGlyphs" textLength="62" x="795" y="541.7285">Viewable</text></a><!--class soen6441riskgame.models.commands.GameCommands--><a target="_parent" xlink:actuate="onRequest" xlink:href="../../soen6441riskgame/models/commands/GameCommands.html" xlink:show="new" xlink:title="soen6441riskgame.models.commands.GameCommands" xlink:type="simple"><rect fill="#FEFECE" filter="url(#f1k9fsyy6r1f7c)" height="32" id="soen6441riskgame.models.commands.GameCommands" style="stroke: #A80036; stroke-width: 1.5;" width="149" x="1490.5" y="60"/><ellipse cx="1505.5" cy="76" fill="#ADD1B2" rx="11" ry="11" style="stroke: #A80036; stroke-width: 1.0;"/><path d="M1508.2656,71.875 Q1508.4219,71.6563 1508.6094,71.5469 Q1508.7969,71.4375 1509.0156,71.4375 Q1509.3906,71.4375 1509.625,71.6953 Q1509.8594,71.9531 1509.8594,72.5625 L1509.8594,74.0156 Q1509.8594,74.625 1509.625,74.8906 Q1509.3906,75.1563 1509.0156,75.1563 Q1508.6719,75.1563 1508.4688,74.9531 Q1508.2656,74.7656 1508.1563,74.25 Q1508.1094,73.8906 1507.9219,73.7031 Q1507.5938,73.3281 1506.9844,73.1094 Q1506.375,72.8906 1505.75,72.8906 Q1504.9844,72.8906 1504.3516,73.2188 Q1503.7188,73.5469 1503.2266,74.2969 Q1502.7344,75.0469 1502.7344,76.0781 L1502.7344,77.1719 Q1502.7344,78.4063 1503.625,79.2266 Q1504.5156,80.0469 1506.1094,80.0469 Q1507.0469,80.0469 1507.7031,79.7969 Q1508.0938,79.6406 1508.5156,79.2031 Q1508.7813,78.9375 1508.9297,78.8594 Q1509.0781,78.7813 1509.2813,78.7813 Q1509.6094,78.7813 1509.8672,79.0391 Q1510.125,79.2969 1510.125,79.6406 Q1510.125,79.9844 1509.7813,80.3906 Q1509.2813,80.9688 1508.4844,81.2969 Q1507.4063,81.75 1506.1094,81.75 Q1504.5938,81.75 1503.3906,81.125 Q1502.4063,80.625 1501.7188,79.5547 Q1501.0313,78.4844 1501.0313,77.2031 L1501.0313,76.0469 Q1501.0313,74.7188 1501.6484,73.5703 Q1502.2656,72.4219 1503.3594,71.8047 Q1504.4531,71.1875 1505.6875,71.1875 Q1506.4219,71.1875 1507.0703,71.3516 Q1507.7188,71.5156 1508.2656,71.875 Z "/><text fill="#000000" font-family="sans-serif" font-size="14" font-weight="bold" lengthAdjust="spacingAndGlyphs" textLength="117" x="1519.5" y="81.7285">GameCommands</text></a><!--class soen6441riskgame.models.commands.MapEditorCommands--><a target="_parent" xlink:actuate="onRequest" xlink:href="../../soen6441riskgame/models/commands/MapEditorCommands.html" xlink:show="new" xlink:title="soen6441riskgame.models.commands.MapEditorCommands" xlink:type="simple"><rect fill="#FEFECE" filter="url(#f1k9fsyy6r1f7c)" height="32" id="soen6441riskgame.models.commands.MapEditorCommands" style="stroke: #A80036; stroke-width: 1.5;" width="181" x="1274.5" y="60"/><ellipse cx="1289.5" cy="76" fill="#ADD1B2" rx="11" ry="11" style="stroke: #A80036; stroke-width: 1.0;"/><path d="M1292.2656,71.875 Q1292.4219,71.6563 1292.6094,71.5469 Q1292.7969,71.4375 1293.0156,71.4375 Q1293.3906,71.4375 1293.625,71.6953 Q1293.8594,71.9531 1293.8594,72.5625 L1293.8594,74.0156 Q1293.8594,74.625 1293.625,74.8906 Q1293.3906,75.1563 1293.0156,75.1563 Q1292.6719,75.1563 1292.4688,74.9531 Q1292.2656,74.7656 1292.1563,74.25 Q1292.1094,73.8906 1291.9219,73.7031 Q1291.5938,73.3281 1290.9844,73.1094 Q1290.375,72.8906 1289.75,72.8906 Q1288.9844,72.8906 1288.3516,73.2188 Q1287.7188,73.5469 1287.2266,74.2969 Q1286.7344,75.0469 1286.7344,76.0781 L1286.7344,77.1719 Q1286.7344,78.4063 1287.625,79.2266 Q1288.5156,80.0469 1290.1094,80.0469 Q1291.0469,80.0469 1291.7031,79.7969 Q1292.0938,79.6406 1292.5156,79.2031 Q1292.7813,78.9375 1292.9297,78.8594 Q1293.0781,78.7813 1293.2813,78.7813 Q1293.6094,78.7813 1293.8672,79.0391 Q1294.125,79.2969 1294.125,79.6406 Q1294.125,79.9844 1293.7813,80.3906 Q1293.2813,80.9688 1292.4844,81.2969 Q1291.4063,81.75 1290.1094,81.75 Q1288.5938,81.75 1287.3906,81.125 Q1286.4063,80.625 1285.7188,79.5547 Q1285.0313,78.4844 1285.0313,77.2031 L1285.0313,76.0469 Q1285.0313,74.7188 1285.6484,73.5703 Q1286.2656,72.4219 1287.3594,71.8047 Q1288.4531,71.1875 1289.6875,71.1875 Q1290.4219,71.1875 1291.0703,71.3516 Q1291.7188,71.5156 1292.2656,71.875 Z "/><text fill="#000000" font-family="sans-serif" font-size="14" font-weight="bold" lengthAdjust="spacingAndGlyphs" textLength="149" x="1303.5" y="81.7285">MapEditorCommands</text></a><!--class soen6441riskgame.models.serializers.ArrayNameOnlyJsonAdapter--><a target="_parent" xlink:actuate="onRequest" xlink:href="../../soen6441riskgame/models/serializers/ArrayNameOnlyJsonAdapter.html" xlink:show="new" xlink:title="soen6441riskgame.models.serializers.ArrayNameOnlyJsonAdapter" xlink:type="simple"><rect fill="#FEFECE" filter="url(#f1k9fsyy6r1f7c)" height="32" id="soen6441riskgame.models.serializers.ArrayNameOnlyJsonAdapter" style="stroke: #A80036; stroke-width: 1.5;" width="227" x="38.5" y="60"/><ellipse cx="53.5" cy="76" fill="#ADD1B2" rx="11" ry="11" style="stroke: #A80036; stroke-width: 1.0;"/><path d="M56.2656,71.875 Q56.4219,71.6563 56.6094,71.5469 Q56.7969,71.4375 57.0156,71.4375 Q57.3906,71.4375 57.625,71.6953 Q57.8594,71.9531 57.8594,72.5625 L57.8594,74.0156 Q57.8594,74.625 57.625,74.8906 Q57.3906,75.1563 57.0156,75.1563 Q56.6719,75.1563 56.4688,74.9531 Q56.2656,74.7656 56.1563,74.25 Q56.1094,73.8906 55.9219,73.7031 Q55.5938,73.3281 54.9844,73.1094 Q54.375,72.8906 53.75,72.8906 Q52.9844,72.8906 52.3516,73.2188 Q51.7188,73.5469 51.2266,74.2969 Q50.7344,75.0469 50.7344,76.0781 L50.7344,77.1719 Q50.7344,78.4063 51.625,79.2266 Q52.5156,80.0469 54.1094,80.0469 Q55.0469,80.0469 55.7031,79.7969 Q56.0938,79.6406 56.5156,79.2031 Q56.7813,78.9375 56.9297,78.8594 Q57.0781,78.7813 57.2813,78.7813 Q57.6094,78.7813 57.8672,79.0391 Q58.125,79.2969 58.125,79.6406 Q58.125,79.9844 57.7813,80.3906 Q57.2813,80.9688 56.4844,81.2969 Q55.4063,81.75 54.1094,81.75 Q52.5938,81.75 51.3906,81.125 Q50.4063,80.625 49.7188,79.5547 Q49.0313,78.4844 49.0313,77.2031 L49.0313,76.0469 Q49.0313,74.7188 49.6484,73.5703 Q50.2656,72.4219 51.3594,71.8047 Q52.4531,71.1875 53.6875,71.1875 Q54.4219,71.1875 55.0703,71.3516 Q55.7188,71.5156 56.2656,71.875 Z "/><text fill="#000000" font-family="sans-serif" font-size="14" font-weight="bold" lengthAdjust="spacingAndGlyphs" textLength="195" x="67.5" y="81.7285">ArrayNameOnlyJsonAdapter</text></a><!--class soen6441riskgame.models.serializers.NameOnlyJsonAdapter--><a target="_parent" xlink:actuate="onRequest" xlink:href="../../soen6441riskgame/models/serializers/NameOnlyJsonAdapter.html" xlink:show="new" xlink:title="soen6441riskgame.models.serializers.NameOnlyJsonAdapter" xlink:type="simple"><rect fill="#FEFECE" filter="url(#f1k9fsyy6r1f7c)" height="32" id="soen6441riskgame.models.serializers.NameOnlyJsonAdapter" style="stroke: #A80036; stroke-width: 1.5;" width="191" x="300.5" y="60"/><ellipse cx="315.5" cy="76" fill="#ADD1B2" rx="11" ry="11" style="stroke: #A80036; stroke-width: 1.0;"/><path d="M318.2656,71.875 Q318.4219,71.6563 318.6094,71.5469 Q318.7969,71.4375 319.0156,71.4375 Q319.3906,71.4375 319.625,71.6953 Q319.8594,71.9531 319.8594,72.5625 L319.8594,74.0156 Q319.8594,74.625 319.625,74.8906 Q319.3906,75.1563 319.0156,75.1563 Q318.6719,75.1563 318.4688,74.9531 Q318.2656,74.7656 318.1563,74.25 Q318.1094,73.8906 317.9219,73.7031 Q317.5938,73.3281 316.9844,73.1094 Q316.375,72.8906 315.75,72.8906 Q314.9844,72.8906 314.3516,73.2188 Q313.7188,73.5469 313.2266,74.2969 Q312.7344,75.0469 312.7344,76.0781 L312.7344,77.1719 Q312.7344,78.4063 313.625,79.2266 Q314.5156,80.0469 316.1094,80.0469 Q317.0469,80.0469 317.7031,79.7969 Q318.0938,79.6406 318.5156,79.2031 Q318.7813,78.9375 318.9297,78.8594 Q319.0781,78.7813 319.2813,78.7813 Q319.6094,78.7813 319.8672,79.0391 Q320.125,79.2969 320.125,79.6406 Q320.125,79.9844 319.7813,80.3906 Q319.2813,80.9688 318.4844,81.2969 Q317.4063,81.75 316.1094,81.75 Q314.5938,81.75 313.3906,81.125 Q312.4063,80.625 311.7188,79.5547 Q311.0313,78.4844 311.0313,77.2031 L311.0313,76.0469 Q311.0313,74.7188 311.6484,73.5703 Q312.2656,72.4219 313.3594,71.8047 Q314.4531,71.1875 315.6875,71.1875 Q316.4219,71.1875 317.0703,71.3516 Q317.7188,71.5156 318.2656,71.875 Z "/><text fill="#000000" font-family="sans-serif" font-size="14" font-weight="bold" lengthAdjust="spacingAndGlyphs" textLength="159" x="329.5" y="81.7285">NameOnlyJsonAdapter</text></a><!--class soen6441riskgame.models.serializers.NameOnlySerializable--><a target="_parent" xlink:actuate="onRequest" xlink:href="../../soen6441riskgame/models/serializers/NameOnlySerializable.html" xlink:show="new" xlink:title="soen6441riskgame.models.serializers.NameOnlySerializable" xlink:type="simple"><rect fill="#FEFECE" filter="url(#f1k9fsyy6r1f7c)" height="32" id="soen6441riskgame.models.serializers.NameOnlySerializable" style="stroke: #A80036; stroke-width: 1.5;" width="183" x="526.5" y="60"/><ellipse cx="541.5" cy="76" fill="#ADD1B2" rx="11" ry="11" style="stroke: #A80036; stroke-width: 1.0;"/><path d="M544.2656,71.875 Q544.4219,71.6563 544.6094,71.5469 Q544.7969,71.4375 545.0156,71.4375 Q545.3906,71.4375 545.625,71.6953 Q545.8594,71.9531 545.8594,72.5625 L545.8594,74.0156 Q545.8594,74.625 545.625,74.8906 Q545.3906,75.1563 545.0156,75.1563 Q544.6719,75.1563 544.4688,74.9531 Q544.2656,74.7656 544.1563,74.25 Q544.1094,73.8906 543.9219,73.7031 Q543.5938,73.3281 542.9844,73.1094 Q542.375,72.8906 541.75,72.8906 Q540.9844,72.8906 540.3516,73.2188 Q539.7188,73.5469 539.2266,74.2969 Q538.7344,75.0469 538.7344,76.0781 L538.7344,77.1719 Q538.7344,78.4063 539.625,79.2266 Q540.5156,80.0469 542.1094,80.0469 Q543.0469,80.0469 543.7031,79.7969 Q544.0938,79.6406 544.5156,79.2031 Q544.7813,78.9375 544.9297,78.8594 Q545.0781,78.7813 545.2813,78.7813 Q545.6094,78.7813 545.8672,79.0391 Q546.125,79.2969 546.125,79.6406 Q546.125,79.9844 545.7813,80.3906 Q545.2813,80.9688 544.4844,81.2969 Q543.4063,81.75 542.1094,81.75 Q540.5938,81.75 539.3906,81.125 Q538.4063,80.625 537.7188,79.5547 Q537.0313,78.4844 537.0313,77.2031 L537.0313,76.0469 Q537.0313,74.7188 537.6484,73.5703 Q538.2656,72.4219 539.3594,71.8047 Q540.4531,71.1875 541.6875,71.1875 Q542.4219,71.1875 543.0703,71.3516 Q543.7188,71.5156 544.2656,71.875 Z "/><text fill="#000000" font-family="sans-serif" font-size="14" font-weight="bold" lengthAdjust="spacingAndGlyphs" textLength="151" x="555.5" y="81.7285">NameOnlySerializable</text></a><!--class soen6441riskgame.models.serializers.SerializableGame--><a target="_parent" xlink:actuate="onRequest" xlink:href="../../soen6441riskgame/models/serializers/SerializableGame.html" xlink:show="new" xlink:title="soen6441riskgame.models.serializers.SerializableGame" xlink:type="simple"><rect fill="#FEFECE" filter="url(#f1k9fsyy6r1f7c)" height="32" id="soen6441riskgame.models.serializers.SerializableGame" style="stroke: #A80036; stroke-width: 1.5;" width="153" x="75.5" y="152"/><ellipse cx="90.5" cy="168" fill="#ADD1B2" rx="11" ry="11" style="stroke: #A80036; stroke-width: 1.0;"/><path d="M93.2656,163.875 Q93.4219,163.6563 93.6094,163.5469 Q93.7969,163.4375 94.0156,163.4375 Q94.3906,163.4375 94.625,163.6953 Q94.8594,163.9531 94.8594,164.5625 L94.8594,166.0156 Q94.8594,166.625 94.625,166.8906 Q94.3906,167.1563 94.0156,167.1563 Q93.6719,167.1563 93.4688,166.9531 Q93.2656,166.7656 93.1563,166.25 Q93.1094,165.8906 92.9219,165.7031 Q92.5938,165.3281 91.9844,165.1094 Q91.375,164.8906 90.75,164.8906 Q89.9844,164.8906 89.3516,165.2188 Q88.7188,165.5469 88.2266,166.2969 Q87.7344,167.0469 87.7344,168.0781 L87.7344,169.1719 Q87.7344,170.4063 88.625,171.2266 Q89.5156,172.0469 91.1094,172.0469 Q92.0469,172.0469 92.7031,171.7969 Q93.0938,171.6406 93.5156,171.2031 Q93.7813,170.9375 93.9297,170.8594 Q94.0781,170.7813 94.2813,170.7813 Q94.6094,170.7813 94.8672,171.0391 Q95.125,171.2969 95.125,171.6406 Q95.125,171.9844 94.7813,172.3906 Q94.2813,172.9688 93.4844,173.2969 Q92.4063,173.75 91.1094,173.75 Q89.5938,173.75 88.3906,173.125 Q87.4063,172.625 86.7188,171.5547 Q86.0313,170.4844 86.0313,169.2031 L86.0313,168.0469 Q86.0313,166.7188 86.6484,165.5703 Q87.2656,164.4219 88.3594,163.8047 Q89.4531,163.1875 90.6875,163.1875 Q91.4219,163.1875 92.0703,163.3516 Q92.7188,163.5156 93.2656,163.875 Z "/><text fill="#000000" font-family="sans-serif" font-size="14" font-weight="bold" lengthAdjust="spacingAndGlyphs" textLength="121" x="104.5" y="173.7285">SerializableGame</text></a><!--class soen6441riskgame.models.serializers.SerializableGame.Builder--><a target="_parent" xlink:actuate="onRequest" xlink:href="../../soen6441riskgame/models/serializers/SerializableGame.Builder.html" xlink:show="new" xlink:title="soen6441riskgame.models.serializers.SerializableGame.Builder" xlink:type="simple"><rect fill="#FEFECE" filter="url(#f1k9fsyy6r1f7c)" height="32" id="soen6441riskgame.models.serializers.SerializableGame.Builder" style="stroke: #A80036; stroke-width: 1.5;" width="208" x="264" y="152"/><ellipse cx="279" cy="168" fill="#ADD1B2" rx="11" ry="11" style="stroke: #A80036; stroke-width: 1.0;"/><path d="M281.7656,163.875 Q281.9219,163.6563 282.1094,163.5469 Q282.2969,163.4375 282.5156,163.4375 Q282.8906,163.4375 283.125,163.6953 Q283.3594,163.9531 283.3594,164.5625 L283.3594,166.0156 Q283.3594,166.625 283.125,166.8906 Q282.8906,167.1563 282.5156,167.1563 Q282.1719,167.1563 281.9688,166.9531 Q281.7656,166.7656 281.6563,166.25 Q281.6094,165.8906 281.4219,165.7031 Q281.0938,165.3281 280.4844,165.1094 Q279.875,164.8906 279.25,164.8906 Q278.4844,164.8906 277.8516,165.2188 Q277.2188,165.5469 276.7266,166.2969 Q276.2344,167.0469 276.2344,168.0781 L276.2344,169.1719 Q276.2344,170.4063 277.125,171.2266 Q278.0156,172.0469 279.6094,172.0469 Q280.5469,172.0469 281.2031,171.7969 Q281.5938,171.6406 282.0156,171.2031 Q282.2813,170.9375 282.4297,170.8594 Q282.5781,170.7813 282.7813,170.7813 Q283.1094,170.7813 283.3672,171.0391 Q283.625,171.2969 283.625,171.6406 Q283.625,171.9844 283.2813,172.3906 Q282.7813,172.9688 281.9844,173.2969 Q280.9063,173.75 279.6094,173.75 Q278.0938,173.75 276.8906,173.125 Q275.9063,172.625 275.2188,171.5547 Q274.5313,170.4844 274.5313,169.2031 L274.5313,168.0469 Q274.5313,166.7188 275.1484,165.5703 Q275.7656,164.4219 276.8594,163.8047 Q277.9531,163.1875 279.1875,163.1875 Q279.9219,163.1875 280.5703,163.3516 Q281.2188,163.5156 281.7656,163.875 Z "/><text fill="#000000" font-family="sans-serif" font-size="14" font-weight="bold" lengthAdjust="spacingAndGlyphs" textLength="176" x="293" y="173.7285">SerializableGame.Builder</text></a><!--link soen6441riskgame.models.Card to soen6441riskgame.models.Player--><path d="M1003.167,184.025 C1003.167,184.025 1003.167,238.85 1003.167,238.85 " fill="none" id="soen6441riskgame.models.Card-soen6441riskgame.models.Player" style="stroke: #A80036; stroke-width: 1.0;"/><polygon fill="#A80036" points="1003.167,243.85,1007.167,234.85,1003.167,238.85,999.167,234.85,1003.167,243.85" style="stroke: #A80036; stroke-width: 1.0;"/><text fill="#000000" font-family="sans-serif" font-size="13" lengthAdjust="spacingAndGlyphs" textLength="78" x="908.0369" y="233.104">holdingPlayer</text><!--link soen6441riskgame.models.Player to soen6441riskgame.models.Card--><path d="M1014,243.975 C1014,243.975 1014,189.15 1014,189.15 " fill="none" id="soen6441riskgame.models.Player-soen6441riskgame.models.Card" style="stroke: #A80036; stroke-width: 1.0; stroke-dasharray: 7.0,7.0;"/><polygon fill="#A80036" points="1014,184.15,1010,193.15,1014,189.15,1018,193.15,1014,184.15" style="stroke: #A80036; stroke-width: 1.0;"/><!--link soen6441riskgame.models.Card to soen6441riskgame.models.Viewable--><path d="M992.333,184.226 C992.333,191.727 992.333,199 992.333,199 C992.333,199 797.333,199 797.333,199 C797.333,199 797.333,499.7458 797.333,499.7458 " fill="none" id="soen6441riskgame.models.Card-soen6441riskgame.models.Viewable" style="stroke: #A80036; stroke-width: 1.0; stroke-dasharray: 7.0,7.0;"/><polygon fill="none" points="804.333,499.7458,797.333,519.7458,790.333,499.7458,804.333,499.7458" style="stroke: #A80036; stroke-width: 1.0;"/><!--link soen6441riskgame.models.CardSet to soen6441riskgame.models.Card--><path d="M1014,92.025 C1014,92.025 1014,146.85 1014,146.85 " fill="none" id="soen6441riskgame.models.CardSet-soen6441riskgame.models.Card" style="stroke: #A80036; stroke-width: 1.0; stroke-dasharray: 7.0,7.0;"/><polygon fill="#A80036" points="1014,151.85,1018,142.85,1014,146.85,1010,142.85,1014,151.85" style="stroke: #A80036; stroke-width: 1.0;"/><!--link soen6441riskgame.models.Continent to soen6441riskgame.models.Country--><path d="M952.833,368.025 C952.833,368.025 952.833,422.85 952.833,422.85 " fill="none" id="soen6441riskgame.models.Continent-soen6441riskgame.models.Country" style="stroke: #A80036; stroke-width: 1.0; stroke-dasharray: 7.0,7.0;"/><polygon fill="#A80036" points="952.833,427.85,956.833,418.85,952.833,422.85,948.833,418.85,952.833,427.85" style="stroke: #A80036; stroke-width: 1.0;"/><!--link soen6441riskgame.models.Country to soen6441riskgame.models.Continent--><path d="M965.167,427.975 C965.167,427.975 965.167,373.15 965.167,373.15 " fill="none" id="soen6441riskgame.models.Country-soen6441riskgame.models.Continent" style="stroke: #A80036; stroke-width: 1.0;"/><polygon fill="#A80036" points="965.167,368.15,961.167,377.15,965.167,373.15,969.167,377.15,965.167,368.15" style="stroke: #A80036; stroke-width: 1.0;"/><text fill="#000000" font-family="sans-serif" font-size="13" lengthAdjust="spacingAndGlyphs" textLength="53" x="915.8859" y="389.399">continent</text><!--link soen6441riskgame.models.Continent to soen6441riskgame.models.Viewable--><path d="M885.75,368.007 C885.75,412.773 885.75,536 885.75,536 C885.75,536 880.306,536 880.306,536 " fill="none" id="soen6441riskgame.models.Continent-soen6441riskgame.models.Viewable" style="stroke: #A80036; stroke-width: 1.0; stroke-dasharray: 7.0,7.0;"/><polygon fill="none" points="880.306,542.9999,860.306,536,880.306,528.9999,880.306,542.9999" style="stroke: #A80036; stroke-width: 1.0;"/><!--link soen6441riskgame.models.Continent to soen6441riskgame.models.NameOnlySerializable--><path d="M917.75,368.007 C917.75,368.007 917.75,499.8991 917.75,499.8991 " fill="none" id="soen6441riskgame.models.Continent-soen6441riskgame.models.NameOnlySerializable" style="stroke: #A80036; stroke-width: 1.0; stroke-dasharray: 7.0,7.0;"/><polygon fill="none" points="924.75,499.8991,917.75,519.8991,910.75,499.899,924.75,499.8991" style="stroke: #A80036; stroke-width: 1.0;"/><!--link soen6441riskgame.models.Continent to soen6441riskgame.models.Player--><path d="M962,335.824 C962,310.912 962,266 962,266 C962,266 971.485,266 971.485,266 " fill="none" id="soen6441riskgame.models.Continent-soen6441riskgame.models.Player" style="stroke: #A80036; stroke-width: 1.0; stroke-dasharray: 7.0,7.0;"/><polygon fill="#A80036" points="976.485,266,967.485,262,971.485,266,967.485,270,976.485,266" style="stroke: #A80036; stroke-width: 1.0;"/><!--link soen6441riskgame.models.Player to soen6441riskgame.models.Continent--><path d="M976.342,255 C964.287,255 954,255 954,255 C954,255 954,330.982 954,330.982 " fill="none" id="soen6441riskgame.models.Player-soen6441riskgame.models.Continent" style="stroke: #A80036; stroke-width: 1.0; stroke-dasharray: 7.0,7.0;"/><polygon fill="#A80036" points="954,335.982,958,326.982,954,330.982,950,326.982,954,335.982" style="stroke: #A80036; stroke-width: 1.0;"/><!--link soen6441riskgame.models.Country to soen6441riskgame.models.Coordinate--><path d="M1027.79,444 C1080.78,444 1163,444 1163,444 C1163,444 1163,514.9748 1163,514.9748 " fill="none" id="soen6441riskgame.models.Country-soen6441riskgame.models.Coordinate" style="stroke: #A80036; stroke-width: 1.0;"/><polygon fill="#A80036" points="1163,519.9748,1167,510.9748,1163,514.9748,1159,510.9748,1163,519.9748" style="stroke: #A80036; stroke-width: 1.0;"/><text fill="#000000" font-family="sans-serif" font-size="13" lengthAdjust="spacingAndGlyphs" textLength="60" x="1092.6875" y="509.2717">coordinate</text><!--link soen6441riskgame.models.Country to soen6441riskgame.models.Player--><path d="M1002.5,427.993 C1002.5,427.993 1002.5,281.101 1002.5,281.101 " fill="none" id="soen6441riskgame.models.Country-soen6441riskgame.models.Player" style="stroke: #A80036; stroke-width: 1.0;"/><polygon fill="#A80036" points="1002.5,276.101,998.5,285.101,1002.5,281.101,1006.5,285.101,1002.5,276.101" style="stroke: #A80036; stroke-width: 1.0;"/><text fill="#000000" font-family="sans-serif" font-size="13" lengthAdjust="spacingAndGlyphs" textLength="57" x="932.25" y="297.6378">conquerer</text><!--link soen6441riskgame.models.Player to soen6441riskgame.models.Country--><path d="M990,276.007 C990,276.007 990,422.899 990,422.899 " fill="none" id="soen6441riskgame.models.Player-soen6441riskgame.models.Country" style="stroke: #A80036; stroke-width: 1.0; stroke-dasharray: 7.0,7.0;"/><polygon fill="#A80036" points="990,427.899,994,418.899,990,422.899,986,418.899,990,427.899" style="stroke: #A80036; stroke-width: 1.0;"/><!--link soen6441riskgame.models.Country to soen6441riskgame.models.Viewable--><path d="M940.318,444 C894.374,444 828.667,444 828.667,444 C828.667,444 828.667,499.9748 828.667,499.9748 " fill="none" id="soen6441riskgame.models.Country-soen6441riskgame.models.Viewable" style="stroke: #A80036; stroke-width: 1.0; stroke-dasharray: 7.0,7.0;"/><polygon fill="none" points="835.667,499.9749,828.667,519.9748,821.667,499.9748,835.667,499.9749" style="stroke: #A80036; stroke-width: 1.0;"/><!--link soen6441riskgame.models.Country to soen6441riskgame.models.NameOnlySerializable--><path d="M969.5,460.025 C969.5,460.025 969.5,499.8498 969.5,499.8498 " fill="none" id="soen6441riskgame.models.Country-soen6441riskgame.models.NameOnlySerializable" style="stroke: #A80036; stroke-width: 1.0; stroke-dasharray: 7.0,7.0;"/><polygon fill="none" points="976.5,499.8498,969.5,519.8498,962.5,499.8497,976.5,499.8498" style="stroke: #A80036; stroke-width: 1.0;"/><!--link soen6441riskgame.models.Country to soen6441riskgame.models.Country--><path d="M1015,427.911 C1015,414.646 1015,398 1015,398 C1015,398 1041.9,398 1041.9,398 C1041.9,398 1041.9,490 1041.9,490 C1041.9,490 998.5,490 998.5,490 C998.5,490 998.5,465.089 998.5,465.089 " fill="none" id="soen6441riskgame.models.Country-soen6441riskgame.models.Country" style="stroke: #A80036; stroke-width: 1.0; stroke-dasharray: 7.0,7.0;"/><polygon fill="#A80036" points="998.5,460.089,994.5,469.089,998.5,465.089,1002.5,469.089,998.5,460.089" style="stroke: #A80036; stroke-width: 1.0;"/><!--link soen6441riskgame.models.ModelCommands to soen6441riskgame.models.ModelCommandsPair--><path d="M856,92.025 C856,92.025 856,146.85 856,146.85 " fill="none" id="soen6441riskgame.models.ModelCommands-soen6441riskgame.models.ModelCommandsPair" style="stroke: #A80036; stroke-width: 1.0;"/><polygon fill="#A80036" points="856,151.85,860,142.85,856,146.85,852,142.85,856,151.85" style="stroke: #A80036; stroke-width: 1.0;"/><text fill="#000000" font-family="sans-serif" font-size="13" lengthAdjust="spacingAndGlyphs" textLength="74" x="769.2813" y="141.104">subRoutine *</text><!--link soen6441riskgame.models.Player to soen6441riskgame.models.Player--><path d="M1035.67,243.774 C1035.67,236.273 1035.67,229 1035.67,229 C1035.67,229 1063,229 1063,229 C1063,229 1063,296 1063,296 C1063,296 1037.1,296 1037.1,296 C1037.1,296 1037.1,281.315 1037.1,281.315 " fill="none" id="soen6441riskgame.models.Player-soen6441riskgame.models.Player" style="stroke: #A80036; stroke-width: 1.0;"/><polygon fill="#A80036" points="1037.1,276.315,1033.1,285.315,1037.1,281.315,1041.1,285.315,1037.1,276.315" style="stroke: #A80036; stroke-width: 1.0;"/><text fill="#000000" font-family="sans-serif" font-size="13" lengthAdjust="spacingAndGlyphs" textLength="62" x="1054.3444" y="297.6166">nextPlayer</text><!--link soen6441riskgame.models.Player to soen6441riskgame.models.Player--><path d="M1024.83,243.911 C1024.83,230.646 1024.83,214 1024.83,214 C1024.83,214 1068,214 1068,214 C1068,214 1068,316 1068,316 C1068,316 1032.3,316 1032.3,316 C1032.3,316 1032.3,281.198 1032.3,281.198 " fill="none" id="soen6441riskgame.models.Player-soen6441riskgame.models.Player" style="stroke: #A80036; stroke-width: 1.0;"/><polygon fill="#A80036" points="1032.3,276.198,1028.3,285.198,1032.3,281.198,1036.3,285.198,1032.3,276.198" style="stroke: #A80036; stroke-width: 1.0;"/><text fill="#000000" font-family="sans-serif" font-size="13" lengthAdjust="spacingAndGlyphs" textLength="84" x="1060.1888" y="277.566">previousPlayer</text><!--link soen6441riskgame.models.Player to soen6441riskgame.models.NameOnlySerializable--><path d="M1046.7,276.032 C1046.7,276.032 1046.7,499.9238 1046.7,499.9238 " fill="none" id="soen6441riskgame.models.Player-soen6441riskgame.models.NameOnlySerializable" style="stroke: #A80036; stroke-width: 1.0; stroke-dasharray: 7.0,7.0;"/><polygon fill="none" points="1053.7,499.9239,1046.7,519.9238,1039.7,499.9238,1053.7,499.9239" style="stroke: #A80036; stroke-width: 1.0;"/><!--link soen6441riskgame.models.serializers.ArrayNameOnlyJsonAdapter to soen6441riskgame.models.serializers.NameOnlyJsonAdapter--><!--link soen6441riskgame.models.serializers.NameOnlyJsonAdapter to soen6441riskgame.models.serializers.NameOnlySerializable--><!--link soen6441riskgame.models.serializers.ArrayNameOnlyJsonAdapter to soen6441riskgame.models.serializers.SerializableGame--><!--link soen6441riskgame.models.serializers.SerializableGame to soen6441riskgame.models.serializers.SerializableGame.Builder--><!--
@startuml

skinparam svgLinkTarget _parent
skinparam linetype ortho
package soen6441riskgame.models [[../../soen6441riskgame/models/package-summary.html{soen6441riskgame.models}]] #lightyellow {
}

class "<b><size:14>Card</b>" as soen6441riskgame.models.Card  [[../../soen6441riskgame/models/Card.html{soen6441riskgame.models.Card}]] {
}

hide soen6441riskgame.models.Card fields
hide soen6441riskgame.models.Card methods

class "<b><size:14>CardSet</b>" as soen6441riskgame.models.CardSet  [[../../soen6441riskgame/models/CardSet.html{soen6441riskgame.models.CardSet}]] {
}

hide soen6441riskgame.models.CardSet fields
hide soen6441riskgame.models.CardSet methods

class "<b><size:14>Continent</b>" as soen6441riskgame.models.Continent  [[../../soen6441riskgame/models/Continent.html{soen6441riskgame.models.Continent}]] {
}

hide soen6441riskgame.models.Continent fields
hide soen6441riskgame.models.Continent methods

class "<b><size:14>Coordinate</b>" as soen6441riskgame.models.Coordinate  [[../../soen6441riskgame/models/Coordinate.html{soen6441riskgame.models.Coordinate}]] {
}

hide soen6441riskgame.models.Coordinate fields
hide soen6441riskgame.models.Coordinate methods

class "<b><size:14>Country</b>" as soen6441riskgame.models.Country  [[../../soen6441riskgame/models/Country.html{soen6441riskgame.models.Country}]] {
}

hide soen6441riskgame.models.Country fields
hide soen6441riskgame.models.Country methods

class "<b><size:14>ModelCommands</b>" as soen6441riskgame.models.ModelCommands  [[../../soen6441riskgame/models/ModelCommands.html{soen6441riskgame.models.ModelCommands}]] {
}

hide soen6441riskgame.models.ModelCommands fields
hide soen6441riskgame.models.ModelCommands methods

class "<b><size:14>ModelCommandsPair</b>" as soen6441riskgame.models.ModelCommandsPair  [[../../soen6441riskgame/models/ModelCommandsPair.html{soen6441riskgame.models.ModelCommandsPair}]] {
}

hide soen6441riskgame.models.ModelCommandsPair fields
hide soen6441riskgame.models.ModelCommandsPair methods

interface "<b><size:14>NameOnlySerializable</b>" as soen6441riskgame.models.NameOnlySerializable  [[../../soen6441riskgame/models/NameOnlySerializable.html{soen6441riskgame.models.NameOnlySerializable}]] {
}

hide soen6441riskgame.models.NameOnlySerializable fields
hide soen6441riskgame.models.NameOnlySerializable methods

class "<b><size:14>Player</b>" as soen6441riskgame.models.Player  [[../../soen6441riskgame/models/Player.html{soen6441riskgame.models.Player}]] {
}

hide soen6441riskgame.models.Player fields
hide soen6441riskgame.models.Player methods

interface "<b><size:14>Viewable</b>" as soen6441riskgame.models.Viewable  [[../../soen6441riskgame/models/Viewable.html{soen6441riskgame.models.Viewable}]] {
}

hide soen6441riskgame.models.Viewable fields
hide soen6441riskgame.models.Viewable methods

soen6441riskgame.models.Card - ->  "holdingPlayer" soen6441riskgame.models.Player
soen6441riskgame.models.Card ..|> soen6441riskgame.models.Viewable
soen6441riskgame.models.CardSet ..> soen6441riskgame.models.Card
soen6441riskgame.models.Continent ..> soen6441riskgame.models.Country
soen6441riskgame.models.Continent ..|> soen6441riskgame.models.Viewable
soen6441riskgame.models.Continent ..|> soen6441riskgame.models.NameOnlySerializable
soen6441riskgame.models.Continent ..> soen6441riskgame.models.Player
soen6441riskgame.models.Country - ->  "coordinate" soen6441riskgame.models.Coordinate
soen6441riskgame.models.Country - ->  "continent" soen6441riskgame.models.Continent
soen6441riskgame.models.Country - ->  "conquerer" soen6441riskgame.models.Player
soen6441riskgame.models.Country ..|> soen6441riskgame.models.Viewable
soen6441riskgame.models.Country ..|> soen6441riskgame.models.NameOnlySerializable
soen6441riskgame.models.Country ..> soen6441riskgame.models.Country
soen6441riskgame.models.ModelCommands - ->  "subRoutine *" soen6441riskgame.models.ModelCommandsPair
soen6441riskgame.models.Player - ->  "nextPlayer" soen6441riskgame.models.Player
soen6441riskgame.models.Player - ->  "previousPlayer" soen6441riskgame.models.Player
soen6441riskgame.models.Player ..> soen6441riskgame.models.Card
soen6441riskgame.models.Player ..|> soen6441riskgame.models.NameOnlySerializable
soen6441riskgame.models.Player ..> soen6441riskgame.models.Continent
soen6441riskgame.models.Player ..> soen6441riskgame.models.Country
package soen6441riskgame.models.commands [[../../soen6441riskgame/models/commands/package-summary.html{soen6441riskgame.models.commands}]] {
}

class "<b><size:14>GameCommands</b>" as soen6441riskgame.models.commands.GameCommands  [[../../soen6441riskgame/models/commands/GameCommands.html{soen6441riskgame.models.commands.GameCommands}]] {
}

hide soen6441riskgame.models.commands.GameCommands fields
hide soen6441riskgame.models.commands.GameCommands methods

class "<b><size:14>MapEditorCommands</b>" as soen6441riskgame.models.commands.MapEditorCommands  [[../../soen6441riskgame/models/commands/MapEditorCommands.html{soen6441riskgame.models.commands.MapEditorCommands}]] {
}

hide soen6441riskgame.models.commands.MapEditorCommands fields
hide soen6441riskgame.models.commands.MapEditorCommands methods

package soen6441riskgame.models.serializers [[../../soen6441riskgame/models/serializers/package-summary.html{soen6441riskgame.models.serializers}]] {
}

class "<b><size:14>ArrayNameOnlyJsonAdapter</b>" as soen6441riskgame.models.serializers.ArrayNameOnlyJsonAdapter  [[../../soen6441riskgame/models/serializers/ArrayNameOnlyJsonAdapter.html{soen6441riskgame.models.serializers.ArrayNameOnlyJsonAdapter}]] {
}

hide soen6441riskgame.models.serializers.ArrayNameOnlyJsonAdapter fields
hide soen6441riskgame.models.serializers.ArrayNameOnlyJsonAdapter methods

class "<b><size:14>NameOnlyJsonAdapter</b>" as soen6441riskgame.models.serializers.NameOnlyJsonAdapter  [[../../soen6441riskgame/models/serializers/NameOnlyJsonAdapter.html{soen6441riskgame.models.serializers.NameOnlyJsonAdapter}]] {
}

hide soen6441riskgame.models.serializers.NameOnlyJsonAdapter fields
hide soen6441riskgame.models.serializers.NameOnlyJsonAdapter methods

class "<b><size:14>NameOnlySerializable</b>" as soen6441riskgame.models.serializers.NameOnlySerializable  [[../../soen6441riskgame/models/serializers/NameOnlySerializable.html{soen6441riskgame.models.serializers.NameOnlySerializable}]] {
}

hide soen6441riskgame.models.serializers.NameOnlySerializable fields
hide soen6441riskgame.models.serializers.NameOnlySerializable methods

class "<b><size:14>SerializableGame</b>" as soen6441riskgame.models.serializers.SerializableGame  [[../../soen6441riskgame/models/serializers/SerializableGame.html{soen6441riskgame.models.serializers.SerializableGame}]] {
}

hide soen6441riskgame.models.serializers.SerializableGame fields
hide soen6441riskgame.models.serializers.SerializableGame methods

class "<b><size:14>SerializableGame.Builder</b>" as soen6441riskgame.models.serializers.SerializableGame.Builder  [[../../soen6441riskgame/models/serializers/SerializableGame.Builder.html{soen6441riskgame.models.serializers.SerializableGame.Builder}]] {
}

hide soen6441riskgame.models.serializers.SerializableGame.Builder fields
hide soen6441riskgame.models.serializers.SerializableGame.Builder methods


@enduml

PlantUML version 1.2017.15(Mon Jul 03 12:45:34 EDT 2017)
(GPL source distribution)
Java Runtime: Java(TM) SE Runtime Environment
JVM: Java HotSpot(TM) 64-Bit Server VM
Java Version: 1.8.0_231-b11
Operating System: Windows 10
OS Version: 10.0
Default Encoding: Cp1252
Language: en
Country: US
--></g></svg>