<?xml version="1.0" encoding="UTF-8" standalone="no"?><svg xmlns="http://www.w3.org/2000/svg" xmlns:xlink="http://www.w3.org/1999/xlink" contentScriptType="application/ecmascript" contentStyleType="text/css" height="580px" preserveAspectRatio="none" style="width:1705px;height:580px;" version="1.1" viewBox="0 0 1705 580" width="1705px" zoomAndPan="magnify"><defs><filter height="300%" id="f13zjxjfhz4c02" width="300%" x="-1" y="-1"><feGaussianBlur result="blurOut" stdDeviation="2.0"/><feColorMatrix in="blurOut" result="blurOut2" type="matrix" values="0 0 0 0 0 0 0 0 0 0 0 0 0 0 0 0 0 0 .4 0"/><feOffset dx="4.0" dy="4.0" in="blurOut2" result="blurOut3"/><feBlend in="SourceGraphic" in2="blurOut3" mode="normal"/></filter></defs><g><!--cluster soen6441riskgame.models--><a target="_parent" xlink:actuate="onRequest" xlink:href="../../soen6441riskgame/models/package-summary.html" xlink:show="new" xlink:title="soen6441riskgame.models" xlink:type="simple"><polygon fill="#FFFFE0" filter="url(#f13zjxjfhz4c02)" points="455,24,647,24,654,47.6094,808,47.6094,808,568,455,568,455,24" style="stroke: #000000; stroke-width: 2.0;"/><line style="stroke: #000000; stroke-width: 2.0;" x1="455" x2="654" y1="47.6094" y2="47.6094"/><text fill="#000000" font-family="sans-serif" font-size="14" font-weight="bold" lengthAdjust="spacingAndGlyphs" textLength="186" x="459" y="40.5332">soen6441riskgame.models</text></a><!--cluster soen6441riskgame.models.commands--><a target="_parent" xlink:actuate="onRequest" xlink:href="../../soen6441riskgame/models/commands/package-summary.html" xlink:show="new" xlink:title="soen6441riskgame.models.commands" xlink:type="simple"><polygon fill="#FFFFFF" filter="url(#f13zjxjfhz4c02)" points="832,24,1103,24,1110,47.6094,1230,47.6094,1230,108,832,108,832,24" style="stroke: #000000; stroke-width: 2.0;"/><line style="stroke: #000000; stroke-width: 2.0;" x1="832" x2="1110" y1="47.6094" y2="47.6094"/><text fill="#000000" font-family="sans-serif" font-size="14" font-weight="bold" lengthAdjust="spacingAndGlyphs" textLength="265" x="836" y="40.5332">soen6441riskgame.models.commands</text></a><!--cluster soen6441riskgame.models.serializers--><a target="_parent" xlink:actuate="onRequest" xlink:href="../../soen6441riskgame/models/serializers/package-summary.html" xlink:show="new" xlink:title="soen6441riskgame.models.serializers" xlink:type="simple"><polygon fill="#FFFFFF" filter="url(#f13zjxjfhz4c02)" points="1254,24,1523,24,1530,47.6094,1683,47.6094,1683,108,1254,108,1254,24" style="stroke: #000000; stroke-width: 2.0;"/><line style="stroke: #000000; stroke-width: 2.0;" x1="1254" x2="1530" y1="47.6094" y2="47.6094"/><text fill="#000000" font-family="sans-serif" font-size="14" font-weight="bold" lengthAdjust="spacingAndGlyphs" textLength="263" x="1258" y="40.5332">soen6441riskgame.models.serializers</text></a><!--cluster soen6441riskgame.models.strategies--><a target="_parent" xlink:actuate="onRequest" xlink:href="../../soen6441riskgame/models/strategies/package-summary.html" xlink:show="new" xlink:title="soen6441riskgame.models.strategies" xlink:type="simple"><polygon fill="#FFFFFF" filter="url(#f13zjxjfhz4c02)" points="22,24,289,24,296,47.6094,431,47.6094,431,200,22,200,22,24" style="stroke: #000000; stroke-width: 2.0;"/><line style="stroke: #000000; stroke-width: 2.0;" x1="22" x2="296" y1="47.6094" y2="47.6094"/><text fill="#000000" font-family="sans-serif" font-size="14" font-weight="bold" lengthAdjust="spacingAndGlyphs" textLength="261" x="26" y="40.5332">soen6441riskgame.models.strategies</text></a><!--class soen6441riskgame.models.Card--><a target="_parent" xlink:actuate="onRequest" xlink:href="../../soen6441riskgame/models/Card.html" xlink:show="new" xlink:title="soen6441riskgame.models.Card" xlink:type="simple"><rect fill="#FEFECE" filter="url(#f13zjxjfhz4c02)" height="32" id="soen6441riskgame.models.Card" style="stroke: #A80036; stroke-width: 1.5;" width="65" x="686.5" y="152"/><ellipse cx="701.5" cy="168" fill="#ADD1B2" rx="11" ry="11" style="stroke: #A80036; stroke-width: 1.0;"/><path d="M704.2656,163.875 Q704.4219,163.6563 704.6094,163.5469 Q704.7969,163.4375 705.0156,163.4375 Q705.3906,163.4375 705.625,163.6953 Q705.8594,163.9531 705.8594,164.5625 L705.8594,166.0156 Q705.8594,166.625 705.625,166.8906 Q705.3906,167.1563 705.0156,167.1563 Q704.6719,167.1563 704.4688,166.9531 Q704.2656,166.7656 704.1563,166.25 Q704.1094,165.8906 703.9219,165.7031 Q703.5938,165.3281 702.9844,165.1094 Q702.375,164.8906 701.75,164.8906 Q700.9844,164.8906 700.3516,165.2188 Q699.7188,165.5469 699.2266,166.2969 Q698.7344,167.0469 698.7344,168.0781 L698.7344,169.1719 Q698.7344,170.4063 699.625,171.2266 Q700.5156,172.0469 702.1094,172.0469 Q703.0469,172.0469 703.7031,171.7969 Q704.0938,171.6406 704.5156,171.2031 Q704.7813,170.9375 704.9297,170.8594 Q705.0781,170.7813 705.2813,170.7813 Q705.6094,170.7813 705.8672,171.0391 Q706.125,171.2969 706.125,171.6406 Q706.125,171.9844 705.7813,172.3906 Q705.2813,172.9688 704.4844,173.2969 Q703.4063,173.75 702.1094,173.75 Q700.5938,173.75 699.3906,173.125 Q698.4063,172.625 697.7188,171.5547 Q697.0313,170.4844 697.0313,169.2031 L697.0313,168.0469 Q697.0313,166.7188 697.6484,165.5703 Q698.2656,164.4219 699.3594,163.8047 Q700.4531,163.1875 701.6875,163.1875 Q702.4219,163.1875 703.0703,163.3516 Q703.7188,163.5156 704.2656,163.875 Z "/><text fill="#000000" font-family="sans-serif" font-size="14" font-weight="bold" lengthAdjust="spacingAndGlyphs" textLength="33" x="715.5" y="173.7285">Card</text></a><!--class soen6441riskgame.models.CardSet--><a target="_parent" xlink:actuate="onRequest" xlink:href="../../soen6441riskgame/models/CardSet.html" xlink:show="new" xlink:title="soen6441riskgame.models.CardSet" xlink:type="simple"><rect fill="#FEFECE" filter="url(#f13zjxjfhz4c02)" height="32" id="soen6441riskgame.models.CardSet" style="stroke: #A80036; stroke-width: 1.5;" width="88" x="675" y="60"/><ellipse cx="690" cy="76" fill="#ADD1B2" rx="11" ry="11" style="stroke: #A80036; stroke-width: 1.0;"/><path d="M692.7656,71.875 Q692.9219,71.6563 693.1094,71.5469 Q693.2969,71.4375 693.5156,71.4375 Q693.8906,71.4375 694.125,71.6953 Q694.3594,71.9531 694.3594,72.5625 L694.3594,74.0156 Q694.3594,74.625 694.125,74.8906 Q693.8906,75.1563 693.5156,75.1563 Q693.1719,75.1563 692.9688,74.9531 Q692.7656,74.7656 692.6563,74.25 Q692.6094,73.8906 692.4219,73.7031 Q692.0938,73.3281 691.4844,73.1094 Q690.875,72.8906 690.25,72.8906 Q689.4844,72.8906 688.8516,73.2188 Q688.2188,73.5469 687.7266,74.2969 Q687.2344,75.0469 687.2344,76.0781 L687.2344,77.1719 Q687.2344,78.4063 688.125,79.2266 Q689.0156,80.0469 690.6094,80.0469 Q691.5469,80.0469 692.2031,79.7969 Q692.5938,79.6406 693.0156,79.2031 Q693.2813,78.9375 693.4297,78.8594 Q693.5781,78.7813 693.7813,78.7813 Q694.1094,78.7813 694.3672,79.0391 Q694.625,79.2969 694.625,79.6406 Q694.625,79.9844 694.2813,80.3906 Q693.7813,80.9688 692.9844,81.2969 Q691.9063,81.75 690.6094,81.75 Q689.0938,81.75 687.8906,81.125 Q686.9063,80.625 686.2188,79.5547 Q685.5313,78.4844 685.5313,77.2031 L685.5313,76.0469 Q685.5313,74.7188 686.1484,73.5703 Q686.7656,72.4219 687.8594,71.8047 Q688.9531,71.1875 690.1875,71.1875 Q690.9219,71.1875 691.5703,71.3516 Q692.2188,71.5156 692.7656,71.875 Z "/><text fill="#000000" font-family="sans-serif" font-size="14" font-weight="bold" lengthAdjust="spacingAndGlyphs" textLength="56" x="704" y="81.7285">CardSet</text></a><!--class soen6441riskgame.models.Continent--><a target="_parent" xlink:actuate="onRequest" xlink:href="../../soen6441riskgame/models/Continent.html" xlink:show="new" xlink:title="soen6441riskgame.models.Continent" xlink:type="simple"><rect fill="#FEFECE" filter="url(#f13zjxjfhz4c02)" height="32" id="soen6441riskgame.models.Continent" style="stroke: #A80036; stroke-width: 1.5;" width="101" x="471.5" y="428"/><ellipse cx="486.5" cy="444" fill="#ADD1B2" rx="11" ry="11" style="stroke: #A80036; stroke-width: 1.0;"/><path d="M489.2656,439.875 Q489.4219,439.6563 489.6094,439.5469 Q489.7969,439.4375 490.0156,439.4375 Q490.3906,439.4375 490.625,439.6953 Q490.8594,439.9531 490.8594,440.5625 L490.8594,442.0156 Q490.8594,442.625 490.625,442.8906 Q490.3906,443.1563 490.0156,443.1563 Q489.6719,443.1563 489.4688,442.9531 Q489.2656,442.7656 489.1563,442.25 Q489.1094,441.8906 488.9219,441.7031 Q488.5938,441.3281 487.9844,441.1094 Q487.375,440.8906 486.75,440.8906 Q485.9844,440.8906 485.3516,441.2188 Q484.7188,441.5469 484.2266,442.2969 Q483.7344,443.0469 483.7344,444.0781 L483.7344,445.1719 Q483.7344,446.4063 484.625,447.2266 Q485.5156,448.0469 487.1094,448.0469 Q488.0469,448.0469 488.7031,447.7969 Q489.0938,447.6406 489.5156,447.2031 Q489.7813,446.9375 489.9297,446.8594 Q490.0781,446.7813 490.2813,446.7813 Q490.6094,446.7813 490.8672,447.0391 Q491.125,447.2969 491.125,447.6406 Q491.125,447.9844 490.7813,448.3906 Q490.2813,448.9688 489.4844,449.2969 Q488.4063,449.75 487.1094,449.75 Q485.5938,449.75 484.3906,449.125 Q483.4063,448.625 482.7188,447.5547 Q482.0313,446.4844 482.0313,445.2031 L482.0313,444.0469 Q482.0313,442.7188 482.6484,441.5703 Q483.2656,440.4219 484.3594,439.8047 Q485.4531,439.1875 486.6875,439.1875 Q487.4219,439.1875 488.0703,439.3516 Q488.7188,439.5156 489.2656,439.875 Z "/><text fill="#000000" font-family="sans-serif" font-size="14" font-weight="bold" lengthAdjust="spacingAndGlyphs" textLength="69" x="500.5" y="449.7285">Continent</text></a><!--class soen6441riskgame.models.Coordinate--><a target="_parent" xlink:actuate="onRequest" xlink:href="../../soen6441riskgame/models/Coordinate.html" xlink:show="new" xlink:title="soen6441riskgame.models.Coordinate" xlink:type="simple"><rect fill="#FEFECE" filter="url(#f13zjxjfhz4c02)" height="32" id="soen6441riskgame.models.Coordinate" style="stroke: #A80036; stroke-width: 1.5;" width="110" x="608" y="428"/><ellipse cx="623" cy="444" fill="#ADD1B2" rx="11" ry="11" style="stroke: #A80036; stroke-width: 1.0;"/><path d="M625.7656,439.875 Q625.9219,439.6563 626.1094,439.5469 Q626.2969,439.4375 626.5156,439.4375 Q626.8906,439.4375 627.125,439.6953 Q627.3594,439.9531 627.3594,440.5625 L627.3594,442.0156 Q627.3594,442.625 627.125,442.8906 Q626.8906,443.1563 626.5156,443.1563 Q626.1719,443.1563 625.9688,442.9531 Q625.7656,442.7656 625.6563,442.25 Q625.6094,441.8906 625.4219,441.7031 Q625.0938,441.3281 624.4844,441.1094 Q623.875,440.8906 623.25,440.8906 Q622.4844,440.8906 621.8516,441.2188 Q621.2188,441.5469 620.7266,442.2969 Q620.2344,443.0469 620.2344,444.0781 L620.2344,445.1719 Q620.2344,446.4063 621.125,447.2266 Q622.0156,448.0469 623.6094,448.0469 Q624.5469,448.0469 625.2031,447.7969 Q625.5938,447.6406 626.0156,447.2031 Q626.2813,446.9375 626.4297,446.8594 Q626.5781,446.7813 626.7813,446.7813 Q627.1094,446.7813 627.3672,447.0391 Q627.625,447.2969 627.625,447.6406 Q627.625,447.9844 627.2813,448.3906 Q626.7813,448.9688 625.9844,449.2969 Q624.9063,449.75 623.6094,449.75 Q622.0938,449.75 620.8906,449.125 Q619.9063,448.625 619.2188,447.5547 Q618.5313,446.4844 618.5313,445.2031 L618.5313,444.0469 Q618.5313,442.7188 619.1484,441.5703 Q619.7656,440.4219 620.8594,439.8047 Q621.9531,439.1875 623.1875,439.1875 Q623.9219,439.1875 624.5703,439.3516 Q625.2188,439.5156 625.7656,439.875 Z "/><text fill="#000000" font-family="sans-serif" font-size="14" font-weight="bold" lengthAdjust="spacingAndGlyphs" textLength="78" x="637" y="449.7285">Coordinate</text></a><!--class soen6441riskgame.models.Country--><a target="_parent" xlink:actuate="onRequest" xlink:href="../../soen6441riskgame/models/Country.html" xlink:show="new" xlink:title="soen6441riskgame.models.Country" xlink:type="simple"><rect fill="#FEFECE" filter="url(#f13zjxjfhz4c02)" height="32" id="soen6441riskgame.models.Country" style="stroke: #A80036; stroke-width: 1.5;" width="87" x="603.5" y="336"/><ellipse cx="618.5" cy="352" fill="#ADD1B2" rx="11" ry="11" style="stroke: #A80036; stroke-width: 1.0;"/><path d="M621.2656,347.875 Q621.4219,347.6563 621.6094,347.5469 Q621.7969,347.4375 622.0156,347.4375 Q622.3906,347.4375 622.625,347.6953 Q622.8594,347.9531 622.8594,348.5625 L622.8594,350.0156 Q622.8594,350.625 622.625,350.8906 Q622.3906,351.1563 622.0156,351.1563 Q621.6719,351.1563 621.4688,350.9531 Q621.2656,350.7656 621.1563,350.25 Q621.1094,349.8906 620.9219,349.7031 Q620.5938,349.3281 619.9844,349.1094 Q619.375,348.8906 618.75,348.8906 Q617.9844,348.8906 617.3516,349.2188 Q616.7188,349.5469 616.2266,350.2969 Q615.7344,351.0469 615.7344,352.0781 L615.7344,353.1719 Q615.7344,354.4063 616.625,355.2266 Q617.5156,356.0469 619.1094,356.0469 Q620.0469,356.0469 620.7031,355.7969 Q621.0938,355.6406 621.5156,355.2031 Q621.7813,354.9375 621.9297,354.8594 Q622.0781,354.7813 622.2813,354.7813 Q622.6094,354.7813 622.8672,355.0391 Q623.125,355.2969 623.125,355.6406 Q623.125,355.9844 622.7813,356.3906 Q622.2813,356.9688 621.4844,357.2969 Q620.4063,357.75 619.1094,357.75 Q617.5938,357.75 616.3906,357.125 Q615.4063,356.625 614.7188,355.5547 Q614.0313,354.4844 614.0313,353.2031 L614.0313,352.0469 Q614.0313,350.7188 614.6484,349.5703 Q615.2656,348.4219 616.3594,347.8047 Q617.4531,347.1875 618.6875,347.1875 Q619.4219,347.1875 620.0703,347.3516 Q620.7188,347.5156 621.2656,347.875 Z "/><text fill="#000000" font-family="sans-serif" font-size="14" font-weight="bold" lengthAdjust="spacingAndGlyphs" textLength="55" x="632.5" y="357.7285">Country</text></a><!--class soen6441riskgame.models.ModelCommands--><a target="_parent" xlink:actuate="onRequest" xlink:href="../../soen6441riskgame/models/ModelCommands.html" xlink:show="new" xlink:title="soen6441riskgame.models.ModelCommands" xlink:type="simple"><rect fill="#FEFECE" filter="url(#f13zjxjfhz4c02)" height="32" id="soen6441riskgame.models.ModelCommands" style="stroke: #A80036; stroke-width: 1.5;" width="153" x="484.5" y="60"/><ellipse cx="499.5" cy="76" fill="#ADD1B2" rx="11" ry="11" style="stroke: #A80036; stroke-width: 1.0;"/><path d="M502.2656,71.875 Q502.4219,71.6563 502.6094,71.5469 Q502.7969,71.4375 503.0156,71.4375 Q503.3906,71.4375 503.625,71.6953 Q503.8594,71.9531 503.8594,72.5625 L503.8594,74.0156 Q503.8594,74.625 503.625,74.8906 Q503.3906,75.1563 503.0156,75.1563 Q502.6719,75.1563 502.4688,74.9531 Q502.2656,74.7656 502.1563,74.25 Q502.1094,73.8906 501.9219,73.7031 Q501.5938,73.3281 500.9844,73.1094 Q500.375,72.8906 499.75,72.8906 Q498.9844,72.8906 498.3516,73.2188 Q497.7188,73.5469 497.2266,74.2969 Q496.7344,75.0469 496.7344,76.0781 L496.7344,77.1719 Q496.7344,78.4063 497.625,79.2266 Q498.5156,80.0469 500.1094,80.0469 Q501.0469,80.0469 501.7031,79.7969 Q502.0938,79.6406 502.5156,79.2031 Q502.7813,78.9375 502.9297,78.8594 Q503.0781,78.7813 503.2813,78.7813 Q503.6094,78.7813 503.8672,79.0391 Q504.125,79.2969 504.125,79.6406 Q504.125,79.9844 503.7813,80.3906 Q503.2813,80.9688 502.4844,81.2969 Q501.4063,81.75 500.1094,81.75 Q498.5938,81.75 497.3906,81.125 Q496.4063,80.625 495.7188,79.5547 Q495.0313,78.4844 495.0313,77.2031 L495.0313,76.0469 Q495.0313,74.7188 495.6484,73.5703 Q496.2656,72.4219 497.3594,71.8047 Q498.4531,71.1875 499.6875,71.1875 Q500.4219,71.1875 501.0703,71.3516 Q501.7188,71.5156 502.2656,71.875 Z "/><text fill="#000000" font-family="sans-serif" font-size="14" font-weight="bold" lengthAdjust="spacingAndGlyphs" textLength="121" x="513.5" y="81.7285">ModelCommands</text></a><!--class soen6441riskgame.models.ModelCommandsPair--><a target="_parent" xlink:actuate="onRequest" xlink:href="../../soen6441riskgame/models/ModelCommandsPair.html" xlink:show="new" xlink:title="soen6441riskgame.models.ModelCommandsPair" xlink:type="simple"><rect fill="#FEFECE" filter="url(#f13zjxjfhz4c02)" height="32" id="soen6441riskgame.models.ModelCommandsPair" style="stroke: #A80036; stroke-width: 1.5;" width="180" x="471" y="152"/><ellipse cx="486" cy="168" fill="#ADD1B2" rx="11" ry="11" style="stroke: #A80036; stroke-width: 1.0;"/><path d="M488.7656,163.875 Q488.9219,163.6563 489.1094,163.5469 Q489.2969,163.4375 489.5156,163.4375 Q489.8906,163.4375 490.125,163.6953 Q490.3594,163.9531 490.3594,164.5625 L490.3594,166.0156 Q490.3594,166.625 490.125,166.8906 Q489.8906,167.1563 489.5156,167.1563 Q489.1719,167.1563 488.9688,166.9531 Q488.7656,166.7656 488.6563,166.25 Q488.6094,165.8906 488.4219,165.7031 Q488.0938,165.3281 487.4844,165.1094 Q486.875,164.8906 486.25,164.8906 Q485.4844,164.8906 484.8516,165.2188 Q484.2188,165.5469 483.7266,166.2969 Q483.2344,167.0469 483.2344,168.0781 L483.2344,169.1719 Q483.2344,170.4063 484.125,171.2266 Q485.0156,172.0469 486.6094,172.0469 Q487.5469,172.0469 488.2031,171.7969 Q488.5938,171.6406 489.0156,171.2031 Q489.2813,170.9375 489.4297,170.8594 Q489.5781,170.7813 489.7813,170.7813 Q490.1094,170.7813 490.3672,171.0391 Q490.625,171.2969 490.625,171.6406 Q490.625,171.9844 490.2813,172.3906 Q489.7813,172.9688 488.9844,173.2969 Q487.9063,173.75 486.6094,173.75 Q485.0938,173.75 483.8906,173.125 Q482.9063,172.625 482.2188,171.5547 Q481.5313,170.4844 481.5313,169.2031 L481.5313,168.0469 Q481.5313,166.7188 482.1484,165.5703 Q482.7656,164.4219 483.8594,163.8047 Q484.9531,163.1875 486.1875,163.1875 Q486.9219,163.1875 487.5703,163.3516 Q488.2188,163.5156 488.7656,163.875 Z "/><text fill="#000000" font-family="sans-serif" font-size="14" font-weight="bold" lengthAdjust="spacingAndGlyphs" textLength="148" x="500" y="173.7285">ModelCommandsPair</text></a><!--class soen6441riskgame.models.Player--><a target="_parent" xlink:actuate="onRequest" xlink:href="../../soen6441riskgame/models/Player.html" xlink:show="new" xlink:title="soen6441riskgame.models.Player" xlink:type="simple"><rect fill="#FEFECE" filter="url(#f13zjxjfhz4c02)" height="32" id="soen6441riskgame.models.Player" style="stroke: #A80036; stroke-width: 1.5;" width="75" x="609.5" y="244"/><ellipse cx="624.5" cy="260" fill="#ADD1B2" rx="11" ry="11" style="stroke: #A80036; stroke-width: 1.0;"/><path d="M627.2656,255.875 Q627.4219,255.6563 627.6094,255.5469 Q627.7969,255.4375 628.0156,255.4375 Q628.3906,255.4375 628.625,255.6953 Q628.8594,255.9531 628.8594,256.5625 L628.8594,258.0156 Q628.8594,258.625 628.625,258.8906 Q628.3906,259.1563 628.0156,259.1563 Q627.6719,259.1563 627.4688,258.9531 Q627.2656,258.7656 627.1563,258.25 Q627.1094,257.8906 626.9219,257.7031 Q626.5938,257.3281 625.9844,257.1094 Q625.375,256.8906 624.75,256.8906 Q623.9844,256.8906 623.3516,257.2188 Q622.7188,257.5469 622.2266,258.2969 Q621.7344,259.0469 621.7344,260.0781 L621.7344,261.1719 Q621.7344,262.4063 622.625,263.2266 Q623.5156,264.0469 625.1094,264.0469 Q626.0469,264.0469 626.7031,263.7969 Q627.0938,263.6406 627.5156,263.2031 Q627.7813,262.9375 627.9297,262.8594 Q628.0781,262.7813 628.2813,262.7813 Q628.6094,262.7813 628.8672,263.0391 Q629.125,263.2969 629.125,263.6406 Q629.125,263.9844 628.7813,264.3906 Q628.2813,264.9688 627.4844,265.2969 Q626.4063,265.75 625.1094,265.75 Q623.5938,265.75 622.3906,265.125 Q621.4063,264.625 620.7188,263.5547 Q620.0313,262.4844 620.0313,261.2031 L620.0313,260.0469 Q620.0313,258.7188 620.6484,257.5703 Q621.2656,256.4219 622.3594,255.8047 Q623.4531,255.1875 624.6875,255.1875 Q625.4219,255.1875 626.0703,255.3516 Q626.7188,255.5156 627.2656,255.875 Z "/><text fill="#000000" font-family="sans-serif" font-size="14" font-weight="bold" lengthAdjust="spacingAndGlyphs" textLength="43" x="638.5" y="265.7285">Player</text></a><!--class soen6441riskgame.models.Viewable--><a target="_parent" xlink:actuate="onRequest" xlink:href="../../soen6441riskgame/models/Viewable.html" xlink:show="new" xlink:title="soen6441riskgame.models.Viewable" xlink:type="simple"><rect fill="#FEFECE" filter="url(#f13zjxjfhz4c02)" height="32" id="soen6441riskgame.models.Viewable" style="stroke: #A80036; stroke-width: 1.5;" width="94" x="698" y="520"/><ellipse cx="713" cy="536" fill="#B4A7E5" rx="11" ry="11" style="stroke: #A80036; stroke-width: 1.0;"/><path d="M713.9531,532.6406 L713.9531,539.2969 L715.6719,539.2969 Q716.2813,539.2969 716.5469,539.5313 Q716.8125,539.7656 716.8125,540.1563 Q716.8125,540.5313 716.5469,540.7656 Q716.2813,541 715.6719,541 L710.5313,541 Q709.9219,541 709.6563,540.7656 Q709.3906,540.5313 709.3906,540.1406 Q709.3906,539.7656 709.6563,539.5313 Q709.9219,539.2969 710.5313,539.2969 L712.25,539.2969 L712.25,532.6406 L710.5313,532.6406 Q709.9219,532.6406 709.6563,532.4063 Q709.3906,532.1719 709.3906,531.7813 Q709.3906,531.4063 709.6563,531.1719 Q709.9219,530.9375 710.5313,530.9375 L715.6719,530.9375 Q716.2813,530.9375 716.5469,531.1719 Q716.8125,531.4063 716.8125,531.7813 Q716.8125,532.1719 716.5469,532.4063 Q716.2813,532.6406 715.6719,532.6406 L713.9531,532.6406 Z "/><text fill="#000000" font-family="sans-serif" font-size="14" font-style="italic" font-weight="bold" lengthAdjust="spacingAndGlyphs" textLength="62" x="727" y="541.7285">Viewable</text></a><!--class soen6441riskgame.models.commands.GameCommands--><a target="_parent" xlink:actuate="onRequest" xlink:href="../../soen6441riskgame/models/commands/GameCommands.html" xlink:show="new" xlink:title="soen6441riskgame.models.commands.GameCommands" xlink:type="simple"><rect fill="#FEFECE" filter="url(#f13zjxjfhz4c02)" height="32" id="soen6441riskgame.models.commands.GameCommands" style="stroke: #A80036; stroke-width: 1.5;" width="149" x="1064.5" y="60"/><ellipse cx="1079.5" cy="76" fill="#ADD1B2" rx="11" ry="11" style="stroke: #A80036; stroke-width: 1.0;"/><path d="M1082.2656,71.875 Q1082.4219,71.6563 1082.6094,71.5469 Q1082.7969,71.4375 1083.0156,71.4375 Q1083.3906,71.4375 1083.625,71.6953 Q1083.8594,71.9531 1083.8594,72.5625 L1083.8594,74.0156 Q1083.8594,74.625 1083.625,74.8906 Q1083.3906,75.1563 1083.0156,75.1563 Q1082.6719,75.1563 1082.4688,74.9531 Q1082.2656,74.7656 1082.1563,74.25 Q1082.1094,73.8906 1081.9219,73.7031 Q1081.5938,73.3281 1080.9844,73.1094 Q1080.375,72.8906 1079.75,72.8906 Q1078.9844,72.8906 1078.3516,73.2188 Q1077.7188,73.5469 1077.2266,74.2969 Q1076.7344,75.0469 1076.7344,76.0781 L1076.7344,77.1719 Q1076.7344,78.4063 1077.625,79.2266 Q1078.5156,80.0469 1080.1094,80.0469 Q1081.0469,80.0469 1081.7031,79.7969 Q1082.0938,79.6406 1082.5156,79.2031 Q1082.7813,78.9375 1082.9297,78.8594 Q1083.0781,78.7813 1083.2813,78.7813 Q1083.6094,78.7813 1083.8672,79.0391 Q1084.125,79.2969 1084.125,79.6406 Q1084.125,79.9844 1083.7813,80.3906 Q1083.2813,80.9688 1082.4844,81.2969 Q1081.4063,81.75 1080.1094,81.75 Q1078.5938,81.75 1077.3906,81.125 Q1076.4063,80.625 1075.7188,79.5547 Q1075.0313,78.4844 1075.0313,77.2031 L1075.0313,76.0469 Q1075.0313,74.7188 1075.6484,73.5703 Q1076.2656,72.4219 1077.3594,71.8047 Q1078.4531,71.1875 1079.6875,71.1875 Q1080.4219,71.1875 1081.0703,71.3516 Q1081.7188,71.5156 1082.2656,71.875 Z "/><text fill="#000000" font-family="sans-serif" font-size="14" font-weight="bold" lengthAdjust="spacingAndGlyphs" textLength="117" x="1093.5" y="81.7285">GameCommands</text></a><!--class soen6441riskgame.models.commands.MapEditorCommands--><a target="_parent" xlink:actuate="onRequest" xlink:href="../../soen6441riskgame/models/commands/MapEditorCommands.html" xlink:show="new" xlink:title="soen6441riskgame.models.commands.MapEditorCommands" xlink:type="simple"><rect fill="#FEFECE" filter="url(#f13zjxjfhz4c02)" height="32" id="soen6441riskgame.models.commands.MapEditorCommands" style="stroke: #A80036; stroke-width: 1.5;" width="181" x="848.5" y="60"/><ellipse cx="863.5" cy="76" fill="#ADD1B2" rx="11" ry="11" style="stroke: #A80036; stroke-width: 1.0;"/><path d="M866.2656,71.875 Q866.4219,71.6563 866.6094,71.5469 Q866.7969,71.4375 867.0156,71.4375 Q867.3906,71.4375 867.625,71.6953 Q867.8594,71.9531 867.8594,72.5625 L867.8594,74.0156 Q867.8594,74.625 867.625,74.8906 Q867.3906,75.1563 867.0156,75.1563 Q866.6719,75.1563 866.4688,74.9531 Q866.2656,74.7656 866.1563,74.25 Q866.1094,73.8906 865.9219,73.7031 Q865.5938,73.3281 864.9844,73.1094 Q864.375,72.8906 863.75,72.8906 Q862.9844,72.8906 862.3516,73.2188 Q861.7188,73.5469 861.2266,74.2969 Q860.7344,75.0469 860.7344,76.0781 L860.7344,77.1719 Q860.7344,78.4063 861.625,79.2266 Q862.5156,80.0469 864.1094,80.0469 Q865.0469,80.0469 865.7031,79.7969 Q866.0938,79.6406 866.5156,79.2031 Q866.7813,78.9375 866.9297,78.8594 Q867.0781,78.7813 867.2813,78.7813 Q867.6094,78.7813 867.8672,79.0391 Q868.125,79.2969 868.125,79.6406 Q868.125,79.9844 867.7813,80.3906 Q867.2813,80.9688 866.4844,81.2969 Q865.4063,81.75 864.1094,81.75 Q862.5938,81.75 861.3906,81.125 Q860.4063,80.625 859.7188,79.5547 Q859.0313,78.4844 859.0313,77.2031 L859.0313,76.0469 Q859.0313,74.7188 859.6484,73.5703 Q860.2656,72.4219 861.3594,71.8047 Q862.4531,71.1875 863.6875,71.1875 Q864.4219,71.1875 865.0703,71.3516 Q865.7188,71.5156 866.2656,71.875 Z "/><text fill="#000000" font-family="sans-serif" font-size="14" font-weight="bold" lengthAdjust="spacingAndGlyphs" textLength="149" x="877.5" y="81.7285">MapEditorCommands</text></a><!--class soen6441riskgame.models.serializers.SerializableGame--><a target="_parent" xlink:actuate="onRequest" xlink:href="../../soen6441riskgame/models/serializers/SerializableGame.html" xlink:show="new" xlink:title="soen6441riskgame.models.serializers.SerializableGame" xlink:type="simple"><rect fill="#FEFECE" filter="url(#f13zjxjfhz4c02)" height="32" id="soen6441riskgame.models.serializers.SerializableGame" style="stroke: #A80036; stroke-width: 1.5;" width="153" x="1513.5" y="60"/><ellipse cx="1528.5" cy="76" fill="#ADD1B2" rx="11" ry="11" style="stroke: #A80036; stroke-width: 1.0;"/><path d="M1531.2656,71.875 Q1531.4219,71.6563 1531.6094,71.5469 Q1531.7969,71.4375 1532.0156,71.4375 Q1532.3906,71.4375 1532.625,71.6953 Q1532.8594,71.9531 1532.8594,72.5625 L1532.8594,74.0156 Q1532.8594,74.625 1532.625,74.8906 Q1532.3906,75.1563 1532.0156,75.1563 Q1531.6719,75.1563 1531.4688,74.9531 Q1531.2656,74.7656 1531.1563,74.25 Q1531.1094,73.8906 1530.9219,73.7031 Q1530.5938,73.3281 1529.9844,73.1094 Q1529.375,72.8906 1528.75,72.8906 Q1527.9844,72.8906 1527.3516,73.2188 Q1526.7188,73.5469 1526.2266,74.2969 Q1525.7344,75.0469 1525.7344,76.0781 L1525.7344,77.1719 Q1525.7344,78.4063 1526.625,79.2266 Q1527.5156,80.0469 1529.1094,80.0469 Q1530.0469,80.0469 1530.7031,79.7969 Q1531.0938,79.6406 1531.5156,79.2031 Q1531.7813,78.9375 1531.9297,78.8594 Q1532.0781,78.7813 1532.2813,78.7813 Q1532.6094,78.7813 1532.8672,79.0391 Q1533.125,79.2969 1533.125,79.6406 Q1533.125,79.9844 1532.7813,80.3906 Q1532.2813,80.9688 1531.4844,81.2969 Q1530.4063,81.75 1529.1094,81.75 Q1527.5938,81.75 1526.3906,81.125 Q1525.4063,80.625 1524.7188,79.5547 Q1524.0313,78.4844 1524.0313,77.2031 L1524.0313,76.0469 Q1524.0313,74.7188 1524.6484,73.5703 Q1525.2656,72.4219 1526.3594,71.8047 Q1527.4531,71.1875 1528.6875,71.1875 Q1529.4219,71.1875 1530.0703,71.3516 Q1530.7188,71.5156 1531.2656,71.875 Z "/><text fill="#000000" font-family="sans-serif" font-size="14" font-weight="bold" lengthAdjust="spacingAndGlyphs" textLength="121" x="1542.5" y="81.7285">SerializableGame</text></a><!--class soen6441riskgame.models.serializers.SerializableGame.Builder--><a target="_parent" xlink:actuate="onRequest" xlink:href="../../soen6441riskgame/models/serializers/SerializableGame.Builder.html" xlink:show="new" xlink:title="soen6441riskgame.models.serializers.SerializableGame.Builder" xlink:type="simple"><rect fill="#FEFECE" filter="url(#f13zjxjfhz4c02)" height="32" id="soen6441riskgame.models.serializers.SerializableGame.Builder" style="stroke: #A80036; stroke-width: 1.5;" width="208" x="1270" y="60"/><ellipse cx="1285" cy="76" fill="#ADD1B2" rx="11" ry="11" style="stroke: #A80036; stroke-width: 1.0;"/><path d="M1287.7656,71.875 Q1287.9219,71.6563 1288.1094,71.5469 Q1288.2969,71.4375 1288.5156,71.4375 Q1288.8906,71.4375 1289.125,71.6953 Q1289.3594,71.9531 1289.3594,72.5625 L1289.3594,74.0156 Q1289.3594,74.625 1289.125,74.8906 Q1288.8906,75.1563 1288.5156,75.1563 Q1288.1719,75.1563 1287.9688,74.9531 Q1287.7656,74.7656 1287.6563,74.25 Q1287.6094,73.8906 1287.4219,73.7031 Q1287.0938,73.3281 1286.4844,73.1094 Q1285.875,72.8906 1285.25,72.8906 Q1284.4844,72.8906 1283.8516,73.2188 Q1283.2188,73.5469 1282.7266,74.2969 Q1282.2344,75.0469 1282.2344,76.0781 L1282.2344,77.1719 Q1282.2344,78.4063 1283.125,79.2266 Q1284.0156,80.0469 1285.6094,80.0469 Q1286.5469,80.0469 1287.2031,79.7969 Q1287.5938,79.6406 1288.0156,79.2031 Q1288.2813,78.9375 1288.4297,78.8594 Q1288.5781,78.7813 1288.7813,78.7813 Q1289.1094,78.7813 1289.3672,79.0391 Q1289.625,79.2969 1289.625,79.6406 Q1289.625,79.9844 1289.2813,80.3906 Q1288.7813,80.9688 1287.9844,81.2969 Q1286.9063,81.75 1285.6094,81.75 Q1284.0938,81.75 1282.8906,81.125 Q1281.9063,80.625 1281.2188,79.5547 Q1280.5313,78.4844 1280.5313,77.2031 L1280.5313,76.0469 Q1280.5313,74.7188 1281.1484,73.5703 Q1281.7656,72.4219 1282.8594,71.8047 Q1283.9531,71.1875 1285.1875,71.1875 Q1285.9219,71.1875 1286.5703,71.3516 Q1287.2188,71.5156 1287.7656,71.875 Z "/><text fill="#000000" font-family="sans-serif" font-size="14" font-weight="bold" lengthAdjust="spacingAndGlyphs" textLength="176" x="1299" y="81.7285">SerializableGame.Builder</text></a><!--class soen6441riskgame.models.strategies.AggressiveStrategy--><a target="_parent" xlink:actuate="onRequest" xlink:href="../../soen6441riskgame/models/strategies/AggressiveStrategy.html" xlink:show="new" xlink:title="soen6441riskgame.models.strategies.AggressiveStrategy" xlink:type="simple"><rect fill="#FEFECE" filter="url(#f13zjxjfhz4c02)" height="32" id="soen6441riskgame.models.strategies.AggressiveStrategy" style="stroke: #A80036; stroke-width: 1.5;" width="170" x="38" y="60"/><ellipse cx="53" cy="76" fill="#ADD1B2" rx="11" ry="11" style="stroke: #A80036; stroke-width: 1.0;"/><path d="M55.7656,71.875 Q55.9219,71.6563 56.1094,71.5469 Q56.2969,71.4375 56.5156,71.4375 Q56.8906,71.4375 57.125,71.6953 Q57.3594,71.9531 57.3594,72.5625 L57.3594,74.0156 Q57.3594,74.625 57.125,74.8906 Q56.8906,75.1563 56.5156,75.1563 Q56.1719,75.1563 55.9688,74.9531 Q55.7656,74.7656 55.6563,74.25 Q55.6094,73.8906 55.4219,73.7031 Q55.0938,73.3281 54.4844,73.1094 Q53.875,72.8906 53.25,72.8906 Q52.4844,72.8906 51.8516,73.2188 Q51.2188,73.5469 50.7266,74.2969 Q50.2344,75.0469 50.2344,76.0781 L50.2344,77.1719 Q50.2344,78.4063 51.125,79.2266 Q52.0156,80.0469 53.6094,80.0469 Q54.5469,80.0469 55.2031,79.7969 Q55.5938,79.6406 56.0156,79.2031 Q56.2813,78.9375 56.4297,78.8594 Q56.5781,78.7813 56.7813,78.7813 Q57.1094,78.7813 57.3672,79.0391 Q57.625,79.2969 57.625,79.6406 Q57.625,79.9844 57.2813,80.3906 Q56.7813,80.9688 55.9844,81.2969 Q54.9063,81.75 53.6094,81.75 Q52.0938,81.75 50.8906,81.125 Q49.9063,80.625 49.2188,79.5547 Q48.5313,78.4844 48.5313,77.2031 L48.5313,76.0469 Q48.5313,74.7188 49.1484,73.5703 Q49.7656,72.4219 50.8594,71.8047 Q51.9531,71.1875 53.1875,71.1875 Q53.9219,71.1875 54.5703,71.3516 Q55.2188,71.5156 55.7656,71.875 Z "/><text fill="#000000" font-family="sans-serif" font-size="14" font-weight="bold" lengthAdjust="spacingAndGlyphs" textLength="138" x="67" y="81.7285">AggressiveStrategy</text></a><!--class soen6441riskgame.models.strategies.BenevolentStrategy--><a target="_parent" xlink:actuate="onRequest" xlink:href="../../soen6441riskgame/models/strategies/BenevolentStrategy.html" xlink:show="new" xlink:title="soen6441riskgame.models.strategies.BenevolentStrategy" xlink:type="simple"><rect fill="#FEFECE" filter="url(#f13zjxjfhz4c02)" height="32" id="soen6441riskgame.models.strategies.BenevolentStrategy" style="stroke: #A80036; stroke-width: 1.5;" width="172" x="243" y="60"/><ellipse cx="258" cy="76" fill="#ADD1B2" rx="11" ry="11" style="stroke: #A80036; stroke-width: 1.0;"/><path d="M260.7656,71.875 Q260.9219,71.6563 261.1094,71.5469 Q261.2969,71.4375 261.5156,71.4375 Q261.8906,71.4375 262.125,71.6953 Q262.3594,71.9531 262.3594,72.5625 L262.3594,74.0156 Q262.3594,74.625 262.125,74.8906 Q261.8906,75.1563 261.5156,75.1563 Q261.1719,75.1563 260.9688,74.9531 Q260.7656,74.7656 260.6563,74.25 Q260.6094,73.8906 260.4219,73.7031 Q260.0938,73.3281 259.4844,73.1094 Q258.875,72.8906 258.25,72.8906 Q257.4844,72.8906 256.8516,73.2188 Q256.2188,73.5469 255.7266,74.2969 Q255.2344,75.0469 255.2344,76.0781 L255.2344,77.1719 Q255.2344,78.4063 256.125,79.2266 Q257.0156,80.0469 258.6094,80.0469 Q259.5469,80.0469 260.2031,79.7969 Q260.5938,79.6406 261.0156,79.2031 Q261.2813,78.9375 261.4297,78.8594 Q261.5781,78.7813 261.7813,78.7813 Q262.1094,78.7813 262.3672,79.0391 Q262.625,79.2969 262.625,79.6406 Q262.625,79.9844 262.2813,80.3906 Q261.7813,80.9688 260.9844,81.2969 Q259.9063,81.75 258.6094,81.75 Q257.0938,81.75 255.8906,81.125 Q254.9063,80.625 254.2188,79.5547 Q253.5313,78.4844 253.5313,77.2031 L253.5313,76.0469 Q253.5313,74.7188 254.1484,73.5703 Q254.7656,72.4219 255.8594,71.8047 Q256.9531,71.1875 258.1875,71.1875 Q258.9219,71.1875 259.5703,71.3516 Q260.2188,71.5156 260.7656,71.875 Z "/><text fill="#000000" font-family="sans-serif" font-size="14" font-weight="bold" lengthAdjust="spacingAndGlyphs" textLength="140" x="272" y="81.7285">BenevolentStrategy</text></a><!--class soen6441riskgame.models.strategies.IStrategy--><a target="_parent" xlink:actuate="onRequest" xlink:href="../../soen6441riskgame/models/strategies/IStrategy.html" xlink:show="new" xlink:title="soen6441riskgame.models.strategies.IStrategy" xlink:type="simple"><rect fill="#FEFECE" filter="url(#f13zjxjfhz4c02)" height="32" id="soen6441riskgame.models.strategies.IStrategy" style="stroke: #A80036; stroke-width: 1.5;" width="91" x="77.5" y="152"/><ellipse cx="92.5" cy="168" fill="#B4A7E5" rx="11" ry="11" style="stroke: #A80036; stroke-width: 1.0;"/><path d="M93.4531,164.6406 L93.4531,171.2969 L95.1719,171.2969 Q95.7813,171.2969 96.0469,171.5313 Q96.3125,171.7656 96.3125,172.1563 Q96.3125,172.5313 96.0469,172.7656 Q95.7813,173 95.1719,173 L90.0313,173 Q89.4219,173 89.1563,172.7656 Q88.8906,172.5313 88.8906,172.1406 Q88.8906,171.7656 89.1563,171.5313 Q89.4219,171.2969 90.0313,171.2969 L91.75,171.2969 L91.75,164.6406 L90.0313,164.6406 Q89.4219,164.6406 89.1563,164.4063 Q88.8906,164.1719 88.8906,163.7813 Q88.8906,163.4063 89.1563,163.1719 Q89.4219,162.9375 90.0313,162.9375 L95.1719,162.9375 Q95.7813,162.9375 96.0469,163.1719 Q96.3125,163.4063 96.3125,163.7813 Q96.3125,164.1719 96.0469,164.4063 Q95.7813,164.6406 95.1719,164.6406 L93.4531,164.6406 Z "/><text fill="#000000" font-family="sans-serif" font-size="14" font-style="italic" font-weight="bold" lengthAdjust="spacingAndGlyphs" textLength="59" x="106.5" y="173.7285">IStrategy</text></a><!--class soen6441riskgame.models.strategies.RandomStrategy--><a target="_parent" xlink:actuate="onRequest" xlink:href="../../soen6441riskgame/models/strategies/RandomStrategy.html" xlink:show="new" xlink:title="soen6441riskgame.models.strategies.RandomStrategy" xlink:type="simple"><rect fill="#FEFECE" filter="url(#f13zjxjfhz4c02)" height="32" id="soen6441riskgame.models.strategies.RandomStrategy" style="stroke: #A80036; stroke-width: 1.5;" width="147" x="203.5" y="152"/><ellipse cx="218.5" cy="168" fill="#ADD1B2" rx="11" ry="11" style="stroke: #A80036; stroke-width: 1.0;"/><path d="M221.2656,163.875 Q221.4219,163.6563 221.6094,163.5469 Q221.7969,163.4375 222.0156,163.4375 Q222.3906,163.4375 222.625,163.6953 Q222.8594,163.9531 222.8594,164.5625 L222.8594,166.0156 Q222.8594,166.625 222.625,166.8906 Q222.3906,167.1563 222.0156,167.1563 Q221.6719,167.1563 221.4688,166.9531 Q221.2656,166.7656 221.1563,166.25 Q221.1094,165.8906 220.9219,165.7031 Q220.5938,165.3281 219.9844,165.1094 Q219.375,164.8906 218.75,164.8906 Q217.9844,164.8906 217.3516,165.2188 Q216.7188,165.5469 216.2266,166.2969 Q215.7344,167.0469 215.7344,168.0781 L215.7344,169.1719 Q215.7344,170.4063 216.625,171.2266 Q217.5156,172.0469 219.1094,172.0469 Q220.0469,172.0469 220.7031,171.7969 Q221.0938,171.6406 221.5156,171.2031 Q221.7813,170.9375 221.9297,170.8594 Q222.0781,170.7813 222.2813,170.7813 Q222.6094,170.7813 222.8672,171.0391 Q223.125,171.2969 223.125,171.6406 Q223.125,171.9844 222.7813,172.3906 Q222.2813,172.9688 221.4844,173.2969 Q220.4063,173.75 219.1094,173.75 Q217.5938,173.75 216.3906,173.125 Q215.4063,172.625 214.7188,171.5547 Q214.0313,170.4844 214.0313,169.2031 L214.0313,168.0469 Q214.0313,166.7188 214.6484,165.5703 Q215.2656,164.4219 216.3594,163.8047 Q217.4531,163.1875 218.6875,163.1875 Q219.4219,163.1875 220.0703,163.3516 Q220.7188,163.5156 221.2656,163.875 Z "/><text fill="#000000" font-family="sans-serif" font-size="14" font-weight="bold" lengthAdjust="spacingAndGlyphs" textLength="115" x="232.5" y="173.7285">RandomStrategy</text></a><!--link soen6441riskgame.models.Card to soen6441riskgame.models.Player--><path d="M686.243,163 C680.808,163 676.9,163 676.9,163 C676.9,163 676.9,238.982 676.9,238.982 " fill="none" id="soen6441riskgame.models.Card-soen6441riskgame.models.Player" style="stroke: #A80036; stroke-width: 1.0;"/><polygon fill="#A80036" points="676.9,243.982,680.9,234.982,676.9,238.982,672.9,234.982,676.9,243.982" style="stroke: #A80036; stroke-width: 1.0;"/><text fill="#000000" font-family="sans-serif" font-size="13" lengthAdjust="spacingAndGlyphs" textLength="78" x="595.7719" y="233.2814">holdingPlayer</text><!--link soen6441riskgame.models.Player to soen6441riskgame.models.Card--><path d="M678.8,243.824 C678.8,218.912 678.8,174 678.8,174 C678.8,174 681.173,174 681.173,174 " fill="none" id="soen6441riskgame.models.Player-soen6441riskgame.models.Card" style="stroke: #A80036; stroke-width: 1.0; stroke-dasharray: 7.0,7.0;"/><polygon fill="#A80036" points="686.173,174,677.173,170,681.173,174,677.173,178,686.173,174" style="stroke: #A80036; stroke-width: 1.0;"/><!--link soen6441riskgame.models.Card to soen6441riskgame.models.Viewable--><path d="M740.333,184.287 C740.333,184.287 740.333,499.9008 740.333,499.9008 " fill="none" id="soen6441riskgame.models.Card-soen6441riskgame.models.Viewable" style="stroke: #A80036; stroke-width: 1.0; stroke-dasharray: 7.0,7.0;"/><polygon fill="none" points="747.333,499.9008,740.333,519.9008,733.333,499.9007,747.333,499.9008" style="stroke: #A80036; stroke-width: 1.0;"/><!--link soen6441riskgame.models.CardSet to soen6441riskgame.models.Card--><path d="M719,92.025 C719,92.025 719,146.85 719,146.85 " fill="none" id="soen6441riskgame.models.CardSet-soen6441riskgame.models.Card" style="stroke: #A80036; stroke-width: 1.0; stroke-dasharray: 7.0,7.0;"/><polygon fill="#A80036" points="719,151.85,723,142.85,719,146.85,715,142.85,719,151.85" style="stroke: #A80036; stroke-width: 1.0;"/><!--link soen6441riskgame.models.Continent to soen6441riskgame.models.Country--><path d="M532.1,427.982 C532.1,400.432 532.1,347 532.1,347 C532.1,347 598.233,347 598.233,347 " fill="none" id="soen6441riskgame.models.Continent-soen6441riskgame.models.Country" style="stroke: #A80036; stroke-width: 1.0; stroke-dasharray: 7.0,7.0;"/><polygon fill="#A80036" points="603.233,347,594.233,343,598.233,347,594.233,351,603.233,347" style="stroke: #A80036; stroke-width: 1.0;"/><!--link soen6441riskgame.models.Country to soen6441riskgame.models.Continent--><path d="M603.254,358 C578.441,358 552.3,358 552.3,358 C552.3,358 552.3,422.824 552.3,422.824 " fill="none" id="soen6441riskgame.models.Country-soen6441riskgame.models.Continent" style="stroke: #A80036; stroke-width: 1.0;"/><polygon fill="#A80036" points="552.3,427.824,556.3,418.824,552.3,422.824,548.3,418.824,552.3,427.824" style="stroke: #A80036; stroke-width: 1.0;"/><text fill="#000000" font-family="sans-serif" font-size="13" lengthAdjust="spacingAndGlyphs" textLength="53" x="500.6063" y="417.069">continent</text><!--link soen6441riskgame.models.Continent to soen6441riskgame.models.Viewable--><path d="M522,460.025 C522,486.3838 522,536 522,536 C522,536 677.98,536 677.98,536 " fill="none" id="soen6441riskgame.models.Continent-soen6441riskgame.models.Viewable" style="stroke: #A80036; stroke-width: 1.0; stroke-dasharray: 7.0,7.0;"/><polygon fill="none" points="677.98,528.9999,697.98,536,677.98,542.9999,677.98,528.9999" style="stroke: #A80036; stroke-width: 1.0;"/><!--link soen6441riskgame.models.Continent to soen6441riskgame.models.Player--><path d="M491.7,427.886 C491.7,382.18 491.7,255 491.7,255 C491.7,255 604.406,255 604.406,255 " fill="none" id="soen6441riskgame.models.Continent-soen6441riskgame.models.Player" style="stroke: #A80036; stroke-width: 1.0; stroke-dasharray: 7.0,7.0;"/><polygon fill="#A80036" points="609.406,255,600.406,251,604.406,255,600.406,259,609.406,255" style="stroke: #A80036; stroke-width: 1.0;"/><!--link soen6441riskgame.models.Player to soen6441riskgame.models.Continent--><path d="M609.367,266 C569.392,266 511.9,266 511.9,266 C511.9,266 511.9,422.89 511.9,422.89 " fill="none" id="soen6441riskgame.models.Player-soen6441riskgame.models.Continent" style="stroke: #A80036; stroke-width: 1.0; stroke-dasharray: 7.0,7.0;"/><polygon fill="#A80036" points="511.9,427.89,515.9,418.89,511.9,422.89,507.9,418.89,511.9,427.89" style="stroke: #A80036; stroke-width: 1.0;"/><!--link soen6441riskgame.models.Country to soen6441riskgame.models.Coordinate--><path d="M635.5,368.025 C635.5,368.025 635.5,422.85 635.5,422.85 " fill="none" id="soen6441riskgame.models.Country-soen6441riskgame.models.Coordinate" style="stroke: #A80036; stroke-width: 1.0;"/><polygon fill="#A80036" points="635.5,427.85,639.5,418.85,635.5,422.85,631.5,418.85,635.5,427.85" style="stroke: #A80036; stroke-width: 1.0;"/><text fill="#000000" font-family="sans-serif" font-size="13" lengthAdjust="spacingAndGlyphs" textLength="60" x="566.5026" y="417.0485">coordinate</text><!--link soen6441riskgame.models.Country to soen6441riskgame.models.Player--><path d="M622,335.975 C622,335.975 622,281.15 622,281.15 " fill="none" id="soen6441riskgame.models.Country-soen6441riskgame.models.Player" style="stroke: #A80036; stroke-width: 1.0;"/><polygon fill="#A80036" points="622,276.15,618,285.15,622,281.15,626,285.15,622,276.15" style="stroke: #A80036; stroke-width: 1.0;"/><text fill="#000000" font-family="sans-serif" font-size="13" lengthAdjust="spacingAndGlyphs" textLength="57" x="547.9469" y="297.399">conquerer</text><!--link soen6441riskgame.models.Player to soen6441riskgame.models.Country--><path d="M634.5,276.025 C634.5,276.025 634.5,330.85 634.5,330.85 " fill="none" id="soen6441riskgame.models.Player-soen6441riskgame.models.Country" style="stroke: #A80036; stroke-width: 1.0; stroke-dasharray: 7.0,7.0;"/><polygon fill="#A80036" points="634.5,335.85,638.5,326.85,634.5,330.85,630.5,326.85,634.5,335.85" style="stroke: #A80036; stroke-width: 1.0;"/><!--link soen6441riskgame.models.Country to soen6441riskgame.models.Viewable--><path d="M690.97,352 C710.506,352 729.167,352 729.167,352 C729.167,352 729.167,499.9931 729.167,499.9931 " fill="none" id="soen6441riskgame.models.Country-soen6441riskgame.models.Viewable" style="stroke: #A80036; stroke-width: 1.0; stroke-dasharray: 7.0,7.0;"/><polygon fill="none" points="736.167,499.9931,729.167,519.9931,722.167,499.9931,736.167,499.9931" style="stroke: #A80036; stroke-width: 1.0;"/><!--link soen6441riskgame.models.Country to soen6441riskgame.models.Country--><path d="M672,335.774 C672,328.273 672,321 672,321 C672,321 711.125,321 711.125,321 C711.125,321 711.125,398 711.125,398 C711.125,398 663,398 663,398 C663,398 663,373.089 663,373.089 " fill="none" id="soen6441riskgame.models.Country-soen6441riskgame.models.Country" style="stroke: #A80036; stroke-width: 1.0; stroke-dasharray: 7.0,7.0;"/><polygon fill="#A80036" points="663,368.089,659,377.089,663,373.089,667,377.089,663,368.089" style="stroke: #A80036; stroke-width: 1.0;"/><!--link soen6441riskgame.models.ModelCommands to soen6441riskgame.models.ModelCommandsPair--><path d="M561,92.025 C561,92.025 561,146.85 561,146.85 " fill="none" id="soen6441riskgame.models.ModelCommands-soen6441riskgame.models.ModelCommandsPair" style="stroke: #A80036; stroke-width: 1.0;"/><polygon fill="#A80036" points="561,151.85,565,142.85,561,146.85,557,142.85,561,151.85" style="stroke: #A80036; stroke-width: 1.0;"/><text fill="#000000" font-family="sans-serif" font-size="13" lengthAdjust="spacingAndGlyphs" textLength="74" x="474.2813" y="141.104">subRoutine *</text><!--link soen6441riskgame.models.Player to soen6441riskgame.models.Player--><path d="M682.6,243.685 C682.6,234.16 682.6,224 682.6,224 C682.6,224 697.375,224 697.375,224 C697.375,224 697.375,291 697.375,291 C697.375,291 659.5,291 659.5,291 C659.5,291 659.5,281.226 659.5,281.226 " fill="none" id="soen6441riskgame.models.Player-soen6441riskgame.models.Player" style="stroke: #A80036; stroke-width: 1.0;"/><polygon fill="#A80036" points="659.5,276.226,655.5,285.226,659.5,281.226,663.5,285.226,659.5,276.226" style="stroke: #A80036; stroke-width: 1.0;"/><text fill="#000000" font-family="sans-serif" font-size="13" lengthAdjust="spacingAndGlyphs" textLength="62" x="673.3656" y="297.4992">nextPlayer</text><!--link soen6441riskgame.models.Player to soen6441riskgame.models.Player--><path d="M680.7,243.802 C680.7,227.264 680.7,204 680.7,204 C680.7,204 704.25,204 704.25,204 C704.25,204 704.25,306 704.25,306 C704.25,306 647,306 647,306 C647,306 647,281.089 647,281.089 " fill="none" id="soen6441riskgame.models.Player-soen6441riskgame.models.Player" style="stroke: #A80036; stroke-width: 1.0;"/><polygon fill="#A80036" points="647,276.089,643,285.089,647,281.089,651,285.089,647,276.089" style="stroke: #A80036; stroke-width: 1.0;"/><text fill="#000000" font-family="sans-serif" font-size="13" lengthAdjust="spacingAndGlyphs" textLength="84" x="517.85" y="282.4688">previousPlayer</text><!--link soen6441riskgame.models.strategies.AggressiveStrategy to soen6441riskgame.models.strategies.BenevolentStrategy--><!--link soen6441riskgame.models.strategies.AggressiveStrategy to soen6441riskgame.models.strategies.IStrategy--><!--link soen6441riskgame.models.strategies.IStrategy to soen6441riskgame.models.strategies.RandomStrategy--><!--
@startuml

skinparam svgLinkTarget _parent
skinparam linetype ortho
package soen6441riskgame.models [[../../soen6441riskgame/models/package-summary.html{soen6441riskgame.models}]] #lightyellow {
}

class "<b><size:14>Card</b>" as soen6441riskgame.models.Card  [[../../soen6441riskgame/models/Card.html{soen6441riskgame.models.Card}]] {
}

hide soen6441riskgame.models.Card fields
hide soen6441riskgame.models.Card methods

class "<b><size:14>CardSet</b>" as soen6441riskgame.models.CardSet  [[../../soen6441riskgame/models/CardSet.html{soen6441riskgame.models.CardSet}]] {
}

hide soen6441riskgame.models.CardSet fields
hide soen6441riskgame.models.CardSet methods

class "<b><size:14>Continent</b>" as soen6441riskgame.models.Continent  [[../../soen6441riskgame/models/Continent.html{soen6441riskgame.models.Continent}]] {
}

hide soen6441riskgame.models.Continent fields
hide soen6441riskgame.models.Continent methods

class "<b><size:14>Coordinate</b>" as soen6441riskgame.models.Coordinate  [[../../soen6441riskgame/models/Coordinate.html{soen6441riskgame.models.Coordinate}]] {
}

hide soen6441riskgame.models.Coordinate fields
hide soen6441riskgame.models.Coordinate methods

class "<b><size:14>Country</b>" as soen6441riskgame.models.Country  [[../../soen6441riskgame/models/Country.html{soen6441riskgame.models.Country}]] {
}

hide soen6441riskgame.models.Country fields
hide soen6441riskgame.models.Country methods

class "<b><size:14>ModelCommands</b>" as soen6441riskgame.models.ModelCommands  [[../../soen6441riskgame/models/ModelCommands.html{soen6441riskgame.models.ModelCommands}]] {
}

hide soen6441riskgame.models.ModelCommands fields
hide soen6441riskgame.models.ModelCommands methods

class "<b><size:14>ModelCommandsPair</b>" as soen6441riskgame.models.ModelCommandsPair  [[../../soen6441riskgame/models/ModelCommandsPair.html{soen6441riskgame.models.ModelCommandsPair}]] {
}

hide soen6441riskgame.models.ModelCommandsPair fields
hide soen6441riskgame.models.ModelCommandsPair methods

class "<b><size:14>Player</b>" as soen6441riskgame.models.Player  [[../../soen6441riskgame/models/Player.html{soen6441riskgame.models.Player}]] {
}

hide soen6441riskgame.models.Player fields
hide soen6441riskgame.models.Player methods

interface "<b><size:14>Viewable</b>" as soen6441riskgame.models.Viewable  [[../../soen6441riskgame/models/Viewable.html{soen6441riskgame.models.Viewable}]] {
}

hide soen6441riskgame.models.Viewable fields
hide soen6441riskgame.models.Viewable methods

soen6441riskgame.models.Card - ->  "holdingPlayer" soen6441riskgame.models.Player
soen6441riskgame.models.Card ..|> soen6441riskgame.models.Viewable
soen6441riskgame.models.CardSet ..> soen6441riskgame.models.Card
soen6441riskgame.models.Continent ..> soen6441riskgame.models.Country
soen6441riskgame.models.Continent ..|> soen6441riskgame.models.Viewable
soen6441riskgame.models.Continent ..> soen6441riskgame.models.Player
soen6441riskgame.models.Country - ->  "coordinate" soen6441riskgame.models.Coordinate
soen6441riskgame.models.Country - ->  "continent" soen6441riskgame.models.Continent
soen6441riskgame.models.Country - ->  "conquerer" soen6441riskgame.models.Player
soen6441riskgame.models.Country ..|> soen6441riskgame.models.Viewable
soen6441riskgame.models.Country ..> soen6441riskgame.models.Country
soen6441riskgame.models.ModelCommands - ->  "subRoutine *" soen6441riskgame.models.ModelCommandsPair
soen6441riskgame.models.Player - ->  "nextPlayer" soen6441riskgame.models.Player
soen6441riskgame.models.Player - ->  "previousPlayer" soen6441riskgame.models.Player
soen6441riskgame.models.Player ..> soen6441riskgame.models.Card
soen6441riskgame.models.Player ..> soen6441riskgame.models.Continent
soen6441riskgame.models.Player ..> soen6441riskgame.models.Country
package soen6441riskgame.models.commands [[../../soen6441riskgame/models/commands/package-summary.html{soen6441riskgame.models.commands}]] {
}

class "<b><size:14>GameCommands</b>" as soen6441riskgame.models.commands.GameCommands  [[../../soen6441riskgame/models/commands/GameCommands.html{soen6441riskgame.models.commands.GameCommands}]] {
}

hide soen6441riskgame.models.commands.GameCommands fields
hide soen6441riskgame.models.commands.GameCommands methods

class "<b><size:14>MapEditorCommands</b>" as soen6441riskgame.models.commands.MapEditorCommands  [[../../soen6441riskgame/models/commands/MapEditorCommands.html{soen6441riskgame.models.commands.MapEditorCommands}]] {
}

hide soen6441riskgame.models.commands.MapEditorCommands fields
hide soen6441riskgame.models.commands.MapEditorCommands methods

package soen6441riskgame.models.serializers [[../../soen6441riskgame/models/serializers/package-summary.html{soen6441riskgame.models.serializers}]] {
}

class "<b><size:14>SerializableGame</b>" as soen6441riskgame.models.serializers.SerializableGame  [[../../soen6441riskgame/models/serializers/SerializableGame.html{soen6441riskgame.models.serializers.SerializableGame}]] {
}

hide soen6441riskgame.models.serializers.SerializableGame fields
hide soen6441riskgame.models.serializers.SerializableGame methods

class "<b><size:14>SerializableGame.Builder</b>" as soen6441riskgame.models.serializers.SerializableGame.Builder  [[../../soen6441riskgame/models/serializers/SerializableGame.Builder.html{soen6441riskgame.models.serializers.SerializableGame.Builder}]] {
}

hide soen6441riskgame.models.serializers.SerializableGame.Builder fields
hide soen6441riskgame.models.serializers.SerializableGame.Builder methods

package soen6441riskgame.models.strategies [[../../soen6441riskgame/models/strategies/package-summary.html{soen6441riskgame.models.strategies}]] {
}

class "<b><size:14>AggressiveStrategy</b>" as soen6441riskgame.models.strategies.AggressiveStrategy  [[../../soen6441riskgame/models/strategies/AggressiveStrategy.html{soen6441riskgame.models.strategies.AggressiveStrategy}]] {
}

hide soen6441riskgame.models.strategies.AggressiveStrategy fields
hide soen6441riskgame.models.strategies.AggressiveStrategy methods

class "<b><size:14>BenevolentStrategy</b>" as soen6441riskgame.models.strategies.BenevolentStrategy  [[../../soen6441riskgame/models/strategies/BenevolentStrategy.html{soen6441riskgame.models.strategies.BenevolentStrategy}]] {
}

hide soen6441riskgame.models.strategies.BenevolentStrategy fields
hide soen6441riskgame.models.strategies.BenevolentStrategy methods

interface "<b><size:14>IStrategy</b>" as soen6441riskgame.models.strategies.IStrategy  [[../../soen6441riskgame/models/strategies/IStrategy.html{soen6441riskgame.models.strategies.IStrategy}]] {
}

hide soen6441riskgame.models.strategies.IStrategy fields
hide soen6441riskgame.models.strategies.IStrategy methods

class "<b><size:14>RandomStrategy</b>" as soen6441riskgame.models.strategies.RandomStrategy  [[../../soen6441riskgame/models/strategies/RandomStrategy.html{soen6441riskgame.models.strategies.RandomStrategy}]] {
}

hide soen6441riskgame.models.strategies.RandomStrategy fields
hide soen6441riskgame.models.strategies.RandomStrategy methods


@enduml

PlantUML version 1.2017.15(Mon Jul 03 12:45:34 EDT 2017)
(GPL source distribution)
Java Runtime: Java(TM) SE Runtime Environment
JVM: Java HotSpot(TM) 64-Bit Server VM
Java Version: 1.8.0_231-b11
Operating System: Windows 10
OS Version: 10.0
Default Encoding: Cp1252
Language: en
Country: US
--></g></svg>