<?xml version="1.0" encoding="UTF-8" standalone="no"?><svg xmlns="http://www.w3.org/2000/svg" xmlns:xlink="http://www.w3.org/1999/xlink" contentScriptType="application/ecmascript" contentStyleType="text/css" height="856px" preserveAspectRatio="none" style="width:1051px;height:856px;" version="1.1" viewBox="0 0 1051 856" width="1051px" zoomAndPan="magnify"><defs><filter height="300%" id="f1f20gmsyliedf" width="300%" x="-1" y="-1"><feGaussianBlur result="blurOut" stdDeviation="2.0"/><feColorMatrix in="blurOut" result="blurOut2" type="matrix" values="0 0 0 0 0 0 0 0 0 0 0 0 0 0 0 0 0 0 .4 0"/><feOffset dx="4.0" dy="4.0" in="blurOut2" result="blurOut3"/><feBlend in="SourceGraphic" in2="blurOut3" mode="normal"/></filter></defs><g><!--class soen6441riskgame.models.Player--><a target="_parent" xlink:actuate="onRequest" xlink:href="../../soen6441riskgame/models/Player.html" xlink:show="new" xlink:title="soen6441riskgame.models.Player" xlink:type="simple"><rect fill="#FEFECE" filter="url(#f1f20gmsyliedf)" height="637.2969" id="soen6441riskgame.models.Player" style="stroke: #A80036; stroke-width: 1.5;" width="377" x="247" y="108"/><ellipse cx="369.25" cy="128.0938" fill="#ADD1B2" rx="11" ry="11" style="stroke: #A80036; stroke-width: 1.0;"/><path d="M372.0156,123.9688 Q372.1719,123.75 372.3594,123.6406 Q372.5469,123.5313 372.7656,123.5313 Q373.1406,123.5313 373.375,123.7891 Q373.6094,124.0469 373.6094,124.6563 L373.6094,126.1094 Q373.6094,126.7188 373.375,126.9844 Q373.1406,127.25 372.7656,127.25 Q372.4219,127.25 372.2188,127.0469 Q372.0156,126.8594 371.9063,126.3438 Q371.8594,125.9844 371.6719,125.7969 Q371.3438,125.4219 370.7344,125.2031 Q370.125,124.9844 369.5,124.9844 Q368.7344,124.9844 368.1016,125.3125 Q367.4688,125.6406 366.9766,126.3906 Q366.4844,127.1406 366.4844,128.1719 L366.4844,129.2656 Q366.4844,130.5 367.375,131.3203 Q368.2656,132.1406 369.8594,132.1406 Q370.7969,132.1406 371.4531,131.8906 Q371.8438,131.7344 372.2656,131.2969 Q372.5313,131.0313 372.6797,130.9531 Q372.8281,130.875 373.0313,130.875 Q373.3594,130.875 373.6172,131.1328 Q373.875,131.3906 373.875,131.7344 Q373.875,132.0781 373.5313,132.4844 Q373.0313,133.0625 372.2344,133.3906 Q371.1563,133.8438 369.8594,133.8438 Q368.3438,133.8438 367.1406,133.2188 Q366.1563,132.7188 365.4688,131.6484 Q364.7813,130.5781 364.7813,129.2969 L364.7813,128.1406 Q364.7813,126.8125 365.3984,125.6641 Q366.0156,124.5156 367.1094,123.8984 Q368.2031,123.2813 369.4375,123.2813 Q370.1719,123.2813 370.8203,123.4453 Q371.4688,123.6094 372.0156,123.9688 Z "/><text fill="#000000" font-family="sans-serif" font-size="14" font-weight="bold" lengthAdjust="spacingAndGlyphs" textLength="43" x="430.25" y="127.5332">Player</text><text fill="#000000" font-family="sans-serif" font-size="10" lengthAdjust="spacingAndGlyphs" textLength="124" x="389.75" y="140.9902">soen6441riskgame.models</text><line style="stroke: #A80036; stroke-width: 1.5;" x1="248" x2="623" y1="148.1875" y2="148.1875"/><rect fill="none" height="6" style="stroke: #C82930; stroke-width: 1.0;" width="6" x="255" y="157.6055"/><text fill="#000000" font-family="sans-serif" font-size="11" lengthAdjust="spacingAndGlyphs" text-decoration="underline" textLength="262" x="267" y="163.6064">int MAX_NUMBER_OF_CARD_TO_FORCE_EXCHANGE</text><line style="stroke: #000000; stroke-width: 1.0;" x1="267" x2="529" y1="165.6064" y2="165.6064"/><rect fill="none" height="6" style="stroke: #C82930; stroke-width: 1.0;" width="6" x="255" y="171.4414"/><text fill="#000000" font-family="sans-serif" font-size="11" lengthAdjust="spacingAndGlyphs" text-decoration="underline" textLength="230" x="267" y="177.4424">int LEAST_NUMBER_OF_ARMIES_INIT_IN_TURN</text><line style="stroke: #000000; stroke-width: 1.0;" x1="267" x2="497" y1="179.4424" y2="179.4424"/><rect fill="none" height="6" style="stroke: #C82930; stroke-width: 1.0;" width="6" x="255" y="185.2773"/><text fill="#000000" font-family="sans-serif" font-size="11" lengthAdjust="spacingAndGlyphs" text-decoration="underline" textLength="163" x="267" y="191.2783">int INIT_ARMY_DIVIDE_FRACTION</text><line style="stroke: #000000; stroke-width: 1.0;" x1="267" x2="430" y1="193.2783" y2="193.2783"/><rect fill="none" height="6" style="stroke: #C82930; stroke-width: 1.0;" width="6" x="255" y="199.1133"/><text fill="#000000" font-family="sans-serif" font-size="11" lengthAdjust="spacingAndGlyphs" textLength="57" x="267" y="205.1143">String name</text><rect fill="none" height="6" style="stroke: #C82930; stroke-width: 1.0;" width="6" x="255" y="212.9492"/><text fill="#000000" font-family="sans-serif" font-size="11" lengthAdjust="spacingAndGlyphs" textLength="92" x="267" y="218.9502">int unplacedArmies</text><rect fill="none" height="6" style="stroke: #C82930; stroke-width: 1.0;" width="6" x="255" y="226.7852"/><text fill="#000000" font-family="sans-serif" font-size="11" lengthAdjust="spacingAndGlyphs" textLength="83" x="267" y="232.7861">boolean isPlaying</text><rect fill="none" height="6" style="stroke: #C82930; stroke-width: 1.0;" width="6" x="255" y="240.6211"/><text fill="#000000" font-family="sans-serif" font-size="11" lengthAdjust="spacingAndGlyphs" textLength="84" x="267" y="246.6221">Player nextPlayer</text><rect fill="none" height="6" style="stroke: #C82930; stroke-width: 1.0;" width="6" x="255" y="254.457"/><text fill="#000000" font-family="sans-serif" font-size="11" lengthAdjust="spacingAndGlyphs" textLength="105" x="267" y="260.458">Player previousPlayer</text><rect fill="none" height="6" style="stroke: #C82930; stroke-width: 1.0;" width="6" x="255" y="268.293"/><text fill="#000000" font-family="sans-serif" font-size="11" lengthAdjust="spacingAndGlyphs" textLength="126" x="267" y="274.2939">GamePhase currentPhase</text><rect fill="none" height="6" style="stroke: #C82930; stroke-width: 1.0;" width="6" x="255" y="282.1289"/><text fill="#000000" font-family="sans-serif" font-size="11" lengthAdjust="spacingAndGlyphs" textLength="146" x="267" y="288.1299">ArrayList&lt;Card&gt; holdingCards</text><rect fill="none" height="6" style="stroke: #C82930; stroke-width: 1.0;" width="6" x="255" y="295.9648"/><text fill="#000000" font-family="sans-serif" font-size="11" lengthAdjust="spacingAndGlyphs" textLength="190" x="267" y="301.9658">ArrayList&lt;String&gt; currentPhaseActions</text><rect fill="none" height="6" style="stroke: #C82930; stroke-width: 1.0;" width="6" x="255" y="309.8008"/><text fill="#000000" font-family="sans-serif" font-size="11" lengthAdjust="spacingAndGlyphs" textLength="149" x="267" y="315.8018">boolean isPlayerBeAwardCard</text><line style="stroke: #A80036; stroke-width: 1.5;" x1="248" x2="623" y1="322.2188" y2="322.2188"/><ellipse cx="258" cy="334.6367" fill="#84BE84" rx="3" ry="3" style="stroke: #038048; stroke-width: 1.0;"/><text fill="#000000" font-family="sans-serif" font-size="11" lengthAdjust="spacingAndGlyphs" textLength="95" x="267" y="337.6377">Player(String name)</text><ellipse cx="258" cy="348.4727" fill="#84BE84" rx="3" ry="3" style="stroke: #038048; stroke-width: 1.0;"/><text fill="#000000" font-family="sans-serif" font-size="11" lengthAdjust="spacingAndGlyphs" textLength="157" x="267" y="351.4736">boolean isPlayerBeAwardCard()</text><ellipse cx="258" cy="362.3086" fill="#84BE84" rx="3" ry="3" style="stroke: #038048; stroke-width: 1.0;"/><text fill="#000000" font-family="sans-serif" font-size="11" lengthAdjust="spacingAndGlyphs" textLength="282" x="267" y="365.3096">void setPlayerBeAwardCard(boolean isPlayerAwardCard)</text><ellipse cx="258" cy="376.1445" fill="#84BE84" rx="3" ry="3" style="stroke: #038048; stroke-width: 1.0;"/><text fill="#000000" font-family="sans-serif" font-size="11" lengthAdjust="spacingAndGlyphs" textLength="150" x="267" y="379.1455">GamePhase getCurrentPhase()</text><ellipse cx="258" cy="389.9805" fill="#84BE84" rx="3" ry="3" style="stroke: #038048; stroke-width: 1.0;"/><text fill="#000000" font-family="sans-serif" font-size="11" lengthAdjust="spacingAndGlyphs" textLength="225" x="267" y="392.9814">void setCurrentPhase(GamePhase newPhase)</text><ellipse cx="258" cy="403.8164" fill="#84BE84" rx="3" ry="3" style="stroke: #038048; stroke-width: 1.0;"/><text fill="#000000" font-family="sans-serif" font-size="11" lengthAdjust="spacingAndGlyphs" textLength="125" x="267" y="406.8174">void getACardFromDeck()</text><ellipse cx="258" cy="417.6523" fill="#84BE84" rx="3" ry="3" style="stroke: #038048; stroke-width: 1.0;"/><text fill="#000000" font-family="sans-serif" font-size="11" lengthAdjust="spacingAndGlyphs" textLength="170" x="267" y="420.6533">ArrayList&lt;Card&gt; getHoldingCards()</text><ellipse cx="258" cy="431.4883" fill="#84BE84" rx="3" ry="3" style="stroke: #038048; stroke-width: 1.0;"/><text fill="#000000" font-family="sans-serif" font-size="11" lengthAdjust="spacingAndGlyphs" textLength="158" x="267" y="434.4893">Card getHoldingCard(int position)</text><ellipse cx="258" cy="445.3242" fill="#84BE84" rx="3" ry="3" style="stroke: #038048; stroke-width: 1.0;"/><text fill="#000000" font-family="sans-serif" font-size="11" lengthAdjust="spacingAndGlyphs" textLength="150" x="267" y="448.3252">void removeExchangedCards()</text><ellipse cx="258" cy="459.1602" fill="#84BE84" rx="3" ry="3" style="stroke: #038048; stroke-width: 1.0;"/><text fill="#000000" font-family="sans-serif" font-size="11" lengthAdjust="spacingAndGlyphs" textLength="214" x="267" y="462.1611">ArrayList&lt;String&gt; getCurrentPhaseActions()</text><ellipse cx="258" cy="472.9961" fill="#84BE84" rx="3" ry="3" style="stroke: #038048; stroke-width: 1.0;"/><text fill="#000000" font-family="sans-serif" font-size="11" lengthAdjust="spacingAndGlyphs" textLength="206" x="267" y="475.9971">void addCurrentPhaseAction(String action)</text><ellipse cx="258" cy="486.832" fill="#84BE84" rx="3" ry="3" style="stroke: #038048; stroke-width: 1.0;"/><text fill="#000000" font-family="sans-serif" font-size="11" lengthAdjust="spacingAndGlyphs" textLength="128" x="267" y="489.833">Player getPreviousPlayer()</text><ellipse cx="258" cy="500.668" fill="#84BE84" rx="3" ry="3" style="stroke: #038048; stroke-width: 1.0;"/><text fill="#000000" font-family="sans-serif" font-size="11" lengthAdjust="spacingAndGlyphs" textLength="223" x="267" y="503.6689">void setPreviousPlayer(Player previousPlayer)</text><ellipse cx="258" cy="514.5039" fill="#84BE84" rx="3" ry="3" style="stroke: #038048; stroke-width: 1.0;"/><text fill="#000000" font-family="sans-serif" font-size="11" lengthAdjust="spacingAndGlyphs" textLength="108" x="267" y="517.5049">Player getNextPlayer()</text><ellipse cx="258" cy="528.3398" fill="#84BE84" rx="3" ry="3" style="stroke: #038048; stroke-width: 1.0;"/><text fill="#000000" font-family="sans-serif" font-size="11" lengthAdjust="spacingAndGlyphs" textLength="182" x="267" y="531.3408">void setNextPlayer(Player nextPlayer)</text><ellipse cx="258" cy="542.1758" fill="#84BE84" rx="3" ry="3" style="stroke: #038048; stroke-width: 1.0;"/><text fill="#000000" font-family="sans-serif" font-size="11" lengthAdjust="spacingAndGlyphs" textLength="81" x="267" y="545.1768">String getName()</text><ellipse cx="258" cy="556.0117" fill="#84BE84" rx="3" ry="3" style="stroke: #038048; stroke-width: 1.0;"/><text fill="#000000" font-family="sans-serif" font-size="11" lengthAdjust="spacingAndGlyphs" textLength="94" x="267" y="559.0127">int getTotalArmies()</text><ellipse cx="258" cy="569.8477" fill="#84BE84" rx="3" ry="3" style="stroke: #038048; stroke-width: 1.0;"/><text fill="#000000" font-family="sans-serif" font-size="11" lengthAdjust="spacingAndGlyphs" textLength="232" x="267" y="572.8486">ArrayList&lt;Continent&gt; getConqueredContinents()</text><ellipse cx="258" cy="583.6836" fill="#84BE84" rx="3" ry="3" style="stroke: #038048; stroke-width: 1.0;"/><text fill="#000000" font-family="sans-serif" font-size="11" lengthAdjust="spacingAndGlyphs" textLength="220" x="267" y="586.6846">ArrayList&lt;Country&gt; getConqueredCountries()</text><ellipse cx="258" cy="597.5195" fill="#84BE84" rx="3" ry="3" style="stroke: #038048; stroke-width: 1.0;"/><text fill="#000000" font-family="sans-serif" font-size="11" lengthAdjust="spacingAndGlyphs" textLength="91" x="267" y="600.5205">boolean isPlaying()</text><ellipse cx="258" cy="611.3555" fill="#84BE84" rx="3" ry="3" style="stroke: #038048; stroke-width: 1.0;"/><text fill="#000000" font-family="sans-serif" font-size="11" lengthAdjust="spacingAndGlyphs" textLength="163" x="267" y="614.3564">void setPlaying(boolean isPlaying)</text><ellipse cx="258" cy="625.1914" fill="#84BE84" rx="3" ry="3" style="stroke: #038048; stroke-width: 1.0;"/><text fill="#000000" font-family="sans-serif" font-size="11" lengthAdjust="spacingAndGlyphs" textLength="116" x="267" y="628.1924">int getUnplacedArmies()</text><ellipse cx="258" cy="639.0273" fill="#84BE84" rx="3" ry="3" style="stroke: #038048; stroke-width: 1.0;"/><text fill="#000000" font-family="sans-serif" font-size="11" lengthAdjust="spacingAndGlyphs" textLength="217" x="267" y="642.0283">void setUnplacedArmies(int unplacedArmies)</text><ellipse cx="258" cy="652.8633" fill="#84BE84" rx="3" ry="3" style="stroke: #038048; stroke-width: 1.0;"/><text fill="#000000" font-family="sans-serif" font-size="11" lengthAdjust="spacingAndGlyphs" textLength="178" x="267" y="655.8643">void calculateReinforcementArmies()</text><ellipse cx="258" cy="666.6992" fill="#84BE84" rx="3" ry="3" style="stroke: #038048; stroke-width: 1.0;"/><text fill="#000000" font-family="sans-serif" font-size="11" lengthAdjust="spacingAndGlyphs" textLength="252" x="267" y="669.7002">void reinforce(Country country,int numberOfArmies)</text><ellipse cx="258" cy="680.5352" fill="#84BE84" rx="3" ry="3" style="stroke: #038048; stroke-width: 1.0;"/><text fill="#000000" font-family="sans-serif" font-size="11" lengthAdjust="spacingAndGlyphs" textLength="351" x="267" y="683.5361">void fortify(Country fromCountry,Country toCountry,int numberOfArmies)</text><ellipse cx="258" cy="694.3711" fill="#84BE84" rx="3" ry="3" style="stroke: #038048; stroke-width: 1.0;"/><text fill="#000000" font-family="sans-serif" font-size="11" lengthAdjust="spacingAndGlyphs" textLength="122" x="267" y="697.3721">String getPropertyName()</text><ellipse cx="258" cy="708.207" fill="#84BE84" rx="3" ry="3" style="stroke: #038048; stroke-width: 1.0;"/><text fill="#000000" font-family="sans-serif" font-size="11" lengthAdjust="spacingAndGlyphs" textLength="123" x="267" y="711.208">String getPropertyValue()</text><rect fill="#F24D5C" height="6" style="stroke: #C82930; stroke-width: 1.0;" width="6" x="255" y="719.043"/><text fill="#000000" font-family="sans-serif" font-size="11" lengthAdjust="spacingAndGlyphs" textLength="206" x="267" y="725.0439">int getArmiesFromAllConqueredCountries()</text><rect fill="#F24D5C" height="6" style="stroke: #C82930; stroke-width: 1.0;" width="6" x="255" y="732.8789"/><text fill="#000000" font-family="sans-serif" font-size="11" lengthAdjust="spacingAndGlyphs" textLength="199" x="267" y="738.8799">int getArmiesFromConqueredContinents()</text></a><!--class soen6441riskgame.controllers.GameController--><a target="_parent" xlink:actuate="onRequest" xlink:href="../../soen6441riskgame/controllers/GameController.html" xlink:show="new" xlink:title="soen6441riskgame.controllers.GameController" xlink:type="simple"><rect fill="#FFFFFF" filter="url(#f1f20gmsyliedf)" height="40.1875" id="soen6441riskgame.controllers.GameController" style="stroke: #A80036; stroke-width: 1.5;" width="171" x="6" y="8"/><rect fill="#FFFFFF" height="40.1875" style="stroke: #A80036; stroke-width: 1.5;" width="171" x="6" y="8"/><ellipse cx="21" cy="28.0938" fill="#ADD1B2" rx="11" ry="11" style="stroke: #A80036; stroke-width: 1.0;"/><path d="M23.7656,23.9688 Q23.9219,23.75 24.1094,23.6406 Q24.2969,23.5313 24.5156,23.5313 Q24.8906,23.5313 25.125,23.7891 Q25.3594,24.0469 25.3594,24.6563 L25.3594,26.1094 Q25.3594,26.7188 25.125,26.9844 Q24.8906,27.25 24.5156,27.25 Q24.1719,27.25 23.9688,27.0469 Q23.7656,26.8594 23.6563,26.3438 Q23.6094,25.9844 23.4219,25.7969 Q23.0938,25.4219 22.4844,25.2031 Q21.875,24.9844 21.25,24.9844 Q20.4844,24.9844 19.8516,25.3125 Q19.2188,25.6406 18.7266,26.3906 Q18.2344,27.1406 18.2344,28.1719 L18.2344,29.2656 Q18.2344,30.5 19.125,31.3203 Q20.0156,32.1406 21.6094,32.1406 Q22.5469,32.1406 23.2031,31.8906 Q23.5938,31.7344 24.0156,31.2969 Q24.2813,31.0313 24.4297,30.9531 Q24.5781,30.875 24.7813,30.875 Q25.1094,30.875 25.3672,31.1328 Q25.625,31.3906 25.625,31.7344 Q25.625,32.0781 25.2813,32.4844 Q24.7813,33.0625 23.9844,33.3906 Q22.9063,33.8438 21.6094,33.8438 Q20.0938,33.8438 18.8906,33.2188 Q17.9063,32.7188 17.2188,31.6484 Q16.5313,30.5781 16.5313,29.2969 L16.5313,28.1406 Q16.5313,26.8125 17.1484,25.6641 Q17.7656,24.5156 18.8594,23.8984 Q19.9531,23.2813 21.1875,23.2813 Q21.9219,23.2813 22.5703,23.4453 Q23.2188,23.6094 23.7656,23.9688 Z "/><text fill="#000000" font-family="sans-serif" font-size="14" font-weight="bold" lengthAdjust="spacingAndGlyphs" textLength="111" x="49" y="27.5332">GameController</text><text fill="#000000" font-family="sans-serif" font-size="10" lengthAdjust="spacingAndGlyphs" textLength="139" x="35" y="40.9902">soen6441riskgame.controllers</text></a><!--class soen6441riskgame.models.Card--><a target="_parent" xlink:actuate="onRequest" xlink:href="../../soen6441riskgame/models/Card.html" xlink:show="new" xlink:title="soen6441riskgame.models.Card" xlink:type="simple"><rect fill="#FEFECE" filter="url(#f1f20gmsyliedf)" height="40.1875" id="soen6441riskgame.models.Card" style="stroke: #A80036; stroke-width: 1.5;" width="156" x="71.5" y="805"/><ellipse cx="86.5" cy="825.0938" fill="#ADD1B2" rx="11" ry="11" style="stroke: #A80036; stroke-width: 1.0;"/><path d="M89.2656,820.9688 Q89.4219,820.75 89.6094,820.6406 Q89.7969,820.5313 90.0156,820.5313 Q90.3906,820.5313 90.625,820.7891 Q90.8594,821.0469 90.8594,821.6563 L90.8594,823.1094 Q90.8594,823.7188 90.625,823.9844 Q90.3906,824.25 90.0156,824.25 Q89.6719,824.25 89.4688,824.0469 Q89.2656,823.8594 89.1563,823.3438 Q89.1094,822.9844 88.9219,822.7969 Q88.5938,822.4219 87.9844,822.2031 Q87.375,821.9844 86.75,821.9844 Q85.9844,821.9844 85.3516,822.3125 Q84.7188,822.6406 84.2266,823.3906 Q83.7344,824.1406 83.7344,825.1719 L83.7344,826.2656 Q83.7344,827.5 84.625,828.3203 Q85.5156,829.1406 87.1094,829.1406 Q88.0469,829.1406 88.7031,828.8906 Q89.0938,828.7344 89.5156,828.2969 Q89.7813,828.0313 89.9297,827.9531 Q90.0781,827.875 90.2813,827.875 Q90.6094,827.875 90.8672,828.1328 Q91.125,828.3906 91.125,828.7344 Q91.125,829.0781 90.7813,829.4844 Q90.2813,830.0625 89.4844,830.3906 Q88.4063,830.8438 87.1094,830.8438 Q85.5938,830.8438 84.3906,830.2188 Q83.4063,829.7188 82.7188,828.6484 Q82.0313,827.5781 82.0313,826.2969 L82.0313,825.1406 Q82.0313,823.8125 82.6484,822.6641 Q83.2656,821.5156 84.3594,820.8984 Q85.4531,820.2813 86.6875,820.2813 Q87.4219,820.2813 88.0703,820.4453 Q88.7188,820.6094 89.2656,820.9688 Z "/><text fill="#000000" font-family="sans-serif" font-size="14" font-weight="bold" lengthAdjust="spacingAndGlyphs" textLength="33" x="146" y="824.5332">Card</text><text fill="#000000" font-family="sans-serif" font-size="10" lengthAdjust="spacingAndGlyphs" textLength="124" x="100.5" y="837.9902">soen6441riskgame.models</text></a><!--class soen6441riskgame.models.Continent--><a target="_parent" xlink:actuate="onRequest" xlink:href="../../soen6441riskgame/models/Continent.html" xlink:show="new" xlink:title="soen6441riskgame.models.Continent" xlink:type="simple"><rect fill="#FEFECE" filter="url(#f1f20gmsyliedf)" height="40.1875" id="soen6441riskgame.models.Continent" style="stroke: #A80036; stroke-width: 1.5;" width="156" x="262.5" y="805"/><ellipse cx="277.5" cy="825.0938" fill="#ADD1B2" rx="11" ry="11" style="stroke: #A80036; stroke-width: 1.0;"/><path d="M280.2656,820.9688 Q280.4219,820.75 280.6094,820.6406 Q280.7969,820.5313 281.0156,820.5313 Q281.3906,820.5313 281.625,820.7891 Q281.8594,821.0469 281.8594,821.6563 L281.8594,823.1094 Q281.8594,823.7188 281.625,823.9844 Q281.3906,824.25 281.0156,824.25 Q280.6719,824.25 280.4688,824.0469 Q280.2656,823.8594 280.1563,823.3438 Q280.1094,822.9844 279.9219,822.7969 Q279.5938,822.4219 278.9844,822.2031 Q278.375,821.9844 277.75,821.9844 Q276.9844,821.9844 276.3516,822.3125 Q275.7188,822.6406 275.2266,823.3906 Q274.7344,824.1406 274.7344,825.1719 L274.7344,826.2656 Q274.7344,827.5 275.625,828.3203 Q276.5156,829.1406 278.1094,829.1406 Q279.0469,829.1406 279.7031,828.8906 Q280.0938,828.7344 280.5156,828.2969 Q280.7813,828.0313 280.9297,827.9531 Q281.0781,827.875 281.2813,827.875 Q281.6094,827.875 281.8672,828.1328 Q282.125,828.3906 282.125,828.7344 Q282.125,829.0781 281.7813,829.4844 Q281.2813,830.0625 280.4844,830.3906 Q279.4063,830.8438 278.1094,830.8438 Q276.5938,830.8438 275.3906,830.2188 Q274.4063,829.7188 273.7188,828.6484 Q273.0313,827.5781 273.0313,826.2969 L273.0313,825.1406 Q273.0313,823.8125 273.6484,822.6641 Q274.2656,821.5156 275.3594,820.8984 Q276.4531,820.2813 277.6875,820.2813 Q278.4219,820.2813 279.0703,820.4453 Q279.7188,820.6094 280.2656,820.9688 Z "/><text fill="#000000" font-family="sans-serif" font-size="14" font-weight="bold" lengthAdjust="spacingAndGlyphs" textLength="69" x="319" y="824.5332">Continent</text><text fill="#000000" font-family="sans-serif" font-size="10" lengthAdjust="spacingAndGlyphs" textLength="124" x="291.5" y="837.9902">soen6441riskgame.models</text></a><!--class soen6441riskgame.models.Country--><a target="_parent" xlink:actuate="onRequest" xlink:href="../../soen6441riskgame/models/Country.html" xlink:show="new" xlink:title="soen6441riskgame.models.Country" xlink:type="simple"><rect fill="#FEFECE" filter="url(#f1f20gmsyliedf)" height="40.1875" id="soen6441riskgame.models.Country" style="stroke: #A80036; stroke-width: 1.5;" width="156" x="453.5" y="805"/><ellipse cx="468.5" cy="825.0938" fill="#ADD1B2" rx="11" ry="11" style="stroke: #A80036; stroke-width: 1.0;"/><path d="M471.2656,820.9688 Q471.4219,820.75 471.6094,820.6406 Q471.7969,820.5313 472.0156,820.5313 Q472.3906,820.5313 472.625,820.7891 Q472.8594,821.0469 472.8594,821.6563 L472.8594,823.1094 Q472.8594,823.7188 472.625,823.9844 Q472.3906,824.25 472.0156,824.25 Q471.6719,824.25 471.4688,824.0469 Q471.2656,823.8594 471.1563,823.3438 Q471.1094,822.9844 470.9219,822.7969 Q470.5938,822.4219 469.9844,822.2031 Q469.375,821.9844 468.75,821.9844 Q467.9844,821.9844 467.3516,822.3125 Q466.7188,822.6406 466.2266,823.3906 Q465.7344,824.1406 465.7344,825.1719 L465.7344,826.2656 Q465.7344,827.5 466.625,828.3203 Q467.5156,829.1406 469.1094,829.1406 Q470.0469,829.1406 470.7031,828.8906 Q471.0938,828.7344 471.5156,828.2969 Q471.7813,828.0313 471.9297,827.9531 Q472.0781,827.875 472.2813,827.875 Q472.6094,827.875 472.8672,828.1328 Q473.125,828.3906 473.125,828.7344 Q473.125,829.0781 472.7813,829.4844 Q472.2813,830.0625 471.4844,830.3906 Q470.4063,830.8438 469.1094,830.8438 Q467.5938,830.8438 466.3906,830.2188 Q465.4063,829.7188 464.7188,828.6484 Q464.0313,827.5781 464.0313,826.2969 L464.0313,825.1406 Q464.0313,823.8125 464.6484,822.6641 Q465.2656,821.5156 466.3594,820.8984 Q467.4531,820.2813 468.6875,820.2813 Q469.4219,820.2813 470.0703,820.4453 Q470.7188,820.6094 471.2656,820.9688 Z "/><text fill="#000000" font-family="sans-serif" font-size="14" font-weight="bold" lengthAdjust="spacingAndGlyphs" textLength="55" x="517" y="824.5332">Country</text><text fill="#000000" font-family="sans-serif" font-size="10" lengthAdjust="spacingAndGlyphs" textLength="124" x="482.5" y="837.9902">soen6441riskgame.models</text></a><!--class soen6441riskgame.enums.GamePhase--><a target="_parent" xlink:actuate="onRequest" xlink:href="../../soen6441riskgame/enums/GamePhase.html" xlink:show="new" xlink:title="soen6441riskgame.enums.GamePhase" xlink:type="simple"><rect fill="#FFFFFF" filter="url(#f1f20gmsyliedf)" height="40.1875" id="soen6441riskgame.enums.GamePhase" style="stroke: #A80036; stroke-width: 1.5;" width="153" x="645" y="805"/><rect fill="#FFFFFF" height="40.1875" style="stroke: #A80036; stroke-width: 1.5;" width="153" x="645" y="805"/><ellipse cx="660" cy="825.0938" fill="#EB937F" rx="11" ry="11" style="stroke: #A80036; stroke-width: 1.0;"/><path d="M658.8594,825.8906 L658.8594,828.3906 L663.1875,828.3906 L663.1875,827.4688 Q663.1875,826.8594 663.4297,826.5938 Q663.6719,826.3281 664.0469,826.3281 Q664.4219,826.3281 664.6563,826.5938 Q664.8906,826.8594 664.8906,827.4688 L664.8906,830.0938 L656.8906,830.0938 Q656.2656,830.0938 656.0078,829.8594 Q655.75,829.625 655.75,829.2344 Q655.75,828.8594 656.0156,828.625 Q656.2813,828.3906 656.8906,828.3906 L657.1563,828.3906 L657.1563,821.7344 L656.8906,821.7344 Q656.2656,821.7344 656.0078,821.5 Q655.75,821.2656 655.75,820.875 Q655.75,820.5 656.0078,820.2656 Q656.2656,820.0313 656.8906,820.0313 L664.5156,820.0313 L664.5156,822.625 Q664.5156,823.2344 664.2891,823.4922 Q664.0625,823.75 663.6719,823.75 Q663.2969,823.75 663.0625,823.4922 Q662.8281,823.2344 662.8281,822.625 L662.8281,821.7344 L658.8594,821.7344 L658.8594,824.1875 L660.3438,824.1875 Q660.3438,823.5313 660.4688,823.3438 Q660.7344,822.9375 661.2031,822.9375 Q661.5781,822.9375 661.8125,823.1953 Q662.0469,823.4531 662.0469,824.0625 L662.0469,826.0313 Q662.0469,826.5781 661.9219,826.7656 Q661.6563,827.1563 661.2031,827.1563 Q660.7344,827.1563 660.4688,826.75 Q660.3438,826.5625 660.3438,825.8906 L658.8594,825.8906 Z "/><text fill="#000000" font-family="sans-serif" font-size="14" font-weight="bold" lengthAdjust="spacingAndGlyphs" textLength="83" x="693" y="824.5332">GamePhase</text><text fill="#000000" font-family="sans-serif" font-size="10" lengthAdjust="spacingAndGlyphs" textLength="121" x="674" y="837.9902">soen6441riskgame.enums</text></a><!--class soen6441riskgame.models.serializers.NameOnlySerializable--><a target="_parent" xlink:actuate="onRequest" xlink:href="../../soen6441riskgame/models/serializers/NameOnlySerializable.html" xlink:show="new" xlink:title="soen6441riskgame.models.serializers.NameOnlySerializable" xlink:type="simple"><rect fill="#FFFFFF" filter="url(#f1f20gmsyliedf)" height="40.1875" id="soen6441riskgame.models.serializers.NameOnlySerializable" style="stroke: #A80036; stroke-width: 1.5;" width="207" x="833" y="805"/><rect fill="#FFFFFF" height="40.1875" style="stroke: #A80036; stroke-width: 1.5;" width="207" x="833" y="805"/><ellipse cx="848" cy="825.0938" fill="#B4A7E5" rx="11" ry="11" style="stroke: #A80036; stroke-width: 1.0;"/><path d="M848.9531,821.7344 L848.9531,828.3906 L850.6719,828.3906 Q851.2813,828.3906 851.5469,828.625 Q851.8125,828.8594 851.8125,829.25 Q851.8125,829.625 851.5469,829.8594 Q851.2813,830.0938 850.6719,830.0938 L845.5313,830.0938 Q844.9219,830.0938 844.6563,829.8594 Q844.3906,829.625 844.3906,829.2344 Q844.3906,828.8594 844.6563,828.625 Q844.9219,828.3906 845.5313,828.3906 L847.25,828.3906 L847.25,821.7344 L845.5313,821.7344 Q844.9219,821.7344 844.6563,821.5 Q844.3906,821.2656 844.3906,820.875 Q844.3906,820.5 844.6563,820.2656 Q844.9219,820.0313 845.5313,820.0313 L850.6719,820.0313 Q851.2813,820.0313 851.5469,820.2656 Q851.8125,820.5 851.8125,820.875 Q851.8125,821.2656 851.5469,821.5 Q851.2813,821.7344 850.6719,821.7344 L848.9531,821.7344 Z "/><text fill="#000000" font-family="sans-serif" font-size="14" font-style="italic" font-weight="bold" lengthAdjust="spacingAndGlyphs" textLength="146" x="876.5" y="824.5332">NameOnlySerializable</text><text fill="#000000" font-family="sans-serif" font-size="10" font-style="italic" lengthAdjust="spacingAndGlyphs" textLength="175" x="862" y="837.9902">soen6441riskgame.models.serializers</text></a><!--class soen6441riskgame.models.serializers.SerializableGame--><a target="_parent" xlink:actuate="onRequest" xlink:href="../../soen6441riskgame/models/serializers/SerializableGame.html" xlink:show="new" xlink:title="soen6441riskgame.models.serializers.SerializableGame" xlink:type="simple"><rect fill="#FFFFFF" filter="url(#f1f20gmsyliedf)" height="40.1875" id="soen6441riskgame.models.serializers.SerializableGame" style="stroke: #A80036; stroke-width: 1.5;" width="205" x="212" y="8"/><rect fill="#FFFFFF" height="40.1875" style="stroke: #A80036; stroke-width: 1.5;" width="205" x="212" y="8"/><ellipse cx="227" cy="28.0938" fill="#ADD1B2" rx="11" ry="11" style="stroke: #A80036; stroke-width: 1.0;"/><path d="M229.7656,23.9688 Q229.9219,23.75 230.1094,23.6406 Q230.2969,23.5313 230.5156,23.5313 Q230.8906,23.5313 231.125,23.7891 Q231.3594,24.0469 231.3594,24.6563 L231.3594,26.1094 Q231.3594,26.7188 231.125,26.9844 Q230.8906,27.25 230.5156,27.25 Q230.1719,27.25 229.9688,27.0469 Q229.7656,26.8594 229.6563,26.3438 Q229.6094,25.9844 229.4219,25.7969 Q229.0938,25.4219 228.4844,25.2031 Q227.875,24.9844 227.25,24.9844 Q226.4844,24.9844 225.8516,25.3125 Q225.2188,25.6406 224.7266,26.3906 Q224.2344,27.1406 224.2344,28.1719 L224.2344,29.2656 Q224.2344,30.5 225.125,31.3203 Q226.0156,32.1406 227.6094,32.1406 Q228.5469,32.1406 229.2031,31.8906 Q229.5938,31.7344 230.0156,31.2969 Q230.2813,31.0313 230.4297,30.9531 Q230.5781,30.875 230.7813,30.875 Q231.1094,30.875 231.3672,31.1328 Q231.625,31.3906 231.625,31.7344 Q231.625,32.0781 231.2813,32.4844 Q230.7813,33.0625 229.9844,33.3906 Q228.9063,33.8438 227.6094,33.8438 Q226.0938,33.8438 224.8906,33.2188 Q223.9063,32.7188 223.2188,31.6484 Q222.5313,30.5781 222.5313,29.2969 L222.5313,28.1406 Q222.5313,26.8125 223.1484,25.6641 Q223.7656,24.5156 224.8594,23.8984 Q225.9531,23.2813 227.1875,23.2813 Q227.9219,23.2813 228.5703,23.4453 Q229.2188,23.6094 229.7656,23.9688 Z "/><text fill="#000000" font-family="sans-serif" font-size="14" font-weight="bold" lengthAdjust="spacingAndGlyphs" textLength="121" x="267" y="27.5332">SerializableGame</text><text fill="#000000" font-family="sans-serif" font-size="10" lengthAdjust="spacingAndGlyphs" textLength="173" x="241" y="40.9902">soen6441riskgame.models.serializers</text></a><!--class soen6441riskgame.models.serializers.SerializableGame.Builder--><a target="_parent" xlink:actuate="onRequest" xlink:href="../../soen6441riskgame/models/serializers/SerializableGame.Builder.html" xlink:show="new" xlink:title="soen6441riskgame.models.serializers.SerializableGame.Builder" xlink:type="simple"><rect fill="#FFFFFF" filter="url(#f1f20gmsyliedf)" height="40.1875" id="soen6441riskgame.models.serializers.SerializableGame.Builder" style="stroke: #A80036; stroke-width: 1.5;" width="208" x="452.5" y="8"/><rect fill="#FFFFFF" height="40.1875" style="stroke: #A80036; stroke-width: 1.5;" width="208" x="452.5" y="8"/><ellipse cx="467.5" cy="28.0938" fill="#ADD1B2" rx="11" ry="11" style="stroke: #A80036; stroke-width: 1.0;"/><path d="M470.2656,23.9688 Q470.4219,23.75 470.6094,23.6406 Q470.7969,23.5313 471.0156,23.5313 Q471.3906,23.5313 471.625,23.7891 Q471.8594,24.0469 471.8594,24.6563 L471.8594,26.1094 Q471.8594,26.7188 471.625,26.9844 Q471.3906,27.25 471.0156,27.25 Q470.6719,27.25 470.4688,27.0469 Q470.2656,26.8594 470.1563,26.3438 Q470.1094,25.9844 469.9219,25.7969 Q469.5938,25.4219 468.9844,25.2031 Q468.375,24.9844 467.75,24.9844 Q466.9844,24.9844 466.3516,25.3125 Q465.7188,25.6406 465.2266,26.3906 Q464.7344,27.1406 464.7344,28.1719 L464.7344,29.2656 Q464.7344,30.5 465.625,31.3203 Q466.5156,32.1406 468.1094,32.1406 Q469.0469,32.1406 469.7031,31.8906 Q470.0938,31.7344 470.5156,31.2969 Q470.7813,31.0313 470.9297,30.9531 Q471.0781,30.875 471.2813,30.875 Q471.6094,30.875 471.8672,31.1328 Q472.125,31.3906 472.125,31.7344 Q472.125,32.0781 471.7813,32.4844 Q471.2813,33.0625 470.4844,33.3906 Q469.4063,33.8438 468.1094,33.8438 Q466.5938,33.8438 465.3906,33.2188 Q464.4063,32.7188 463.7188,31.6484 Q463.0313,30.5781 463.0313,29.2969 L463.0313,28.1406 Q463.0313,26.8125 463.6484,25.6641 Q464.2656,24.5156 465.3594,23.8984 Q466.4531,23.2813 467.6875,23.2813 Q468.4219,23.2813 469.0703,23.4453 Q469.7188,23.6094 470.2656,23.9688 Z "/><text fill="#000000" font-family="sans-serif" font-size="14" font-weight="bold" lengthAdjust="spacingAndGlyphs" textLength="176" x="481.5" y="27.5332">SerializableGame.Builder</text><text fill="#000000" font-family="sans-serif" font-size="10" lengthAdjust="spacingAndGlyphs" textLength="173" x="483" y="40.9902">soen6441riskgame.models.serializers</text></a><!--class soen6441riskgame.singleton.GameBoardPlayer--><a target="_parent" xlink:actuate="onRequest" xlink:href="../../soen6441riskgame/singleton/GameBoardPlayer.html" xlink:show="new" xlink:title="soen6441riskgame.singleton.GameBoardPlayer" xlink:type="simple"><rect fill="#FFFFFF" filter="url(#f1f20gmsyliedf)" height="40.1875" id="soen6441riskgame.singleton.GameBoardPlayer" style="stroke: #A80036; stroke-width: 1.5;" width="165" x="696" y="8"/><rect fill="#FFFFFF" height="40.1875" style="stroke: #A80036; stroke-width: 1.5;" width="165" x="696" y="8"/><ellipse cx="711" cy="28.0938" fill="#ADD1B2" rx="11" ry="11" style="stroke: #A80036; stroke-width: 1.0;"/><path d="M713.7656,23.9688 Q713.9219,23.75 714.1094,23.6406 Q714.2969,23.5313 714.5156,23.5313 Q714.8906,23.5313 715.125,23.7891 Q715.3594,24.0469 715.3594,24.6563 L715.3594,26.1094 Q715.3594,26.7188 715.125,26.9844 Q714.8906,27.25 714.5156,27.25 Q714.1719,27.25 713.9688,27.0469 Q713.7656,26.8594 713.6563,26.3438 Q713.6094,25.9844 713.4219,25.7969 Q713.0938,25.4219 712.4844,25.2031 Q711.875,24.9844 711.25,24.9844 Q710.4844,24.9844 709.8516,25.3125 Q709.2188,25.6406 708.7266,26.3906 Q708.2344,27.1406 708.2344,28.1719 L708.2344,29.2656 Q708.2344,30.5 709.125,31.3203 Q710.0156,32.1406 711.6094,32.1406 Q712.5469,32.1406 713.2031,31.8906 Q713.5938,31.7344 714.0156,31.2969 Q714.2813,31.0313 714.4297,30.9531 Q714.5781,30.875 714.7813,30.875 Q715.1094,30.875 715.3672,31.1328 Q715.625,31.3906 715.625,31.7344 Q715.625,32.0781 715.2813,32.4844 Q714.7813,33.0625 713.9844,33.3906 Q712.9063,33.8438 711.6094,33.8438 Q710.0938,33.8438 708.8906,33.2188 Q707.9063,32.7188 707.2188,31.6484 Q706.5313,30.5781 706.5313,29.2969 L706.5313,28.1406 Q706.5313,26.8125 707.1484,25.6641 Q707.7656,24.5156 708.8594,23.8984 Q709.9531,23.2813 711.1875,23.2813 Q711.9219,23.2813 712.5703,23.4453 Q713.2188,23.6094 713.7656,23.9688 Z "/><text fill="#000000" font-family="sans-serif" font-size="14" font-weight="bold" lengthAdjust="spacingAndGlyphs" textLength="125" x="729" y="27.5332">GameBoardPlayer</text><text fill="#000000" font-family="sans-serif" font-size="10" lengthAdjust="spacingAndGlyphs" textLength="133" x="725" y="40.9902">soen6441riskgame.singleton</text></a><!--link soen6441riskgame.controllers.GameController to soen6441riskgame.models.Player--><path d="M124.25,48.06 C124.25,128.97 124.25,427 124.25,427 C124.25,427 241.817,427 241.817,427 " fill="none" id="soen6441riskgame.controllers.GameController-soen6441riskgame.models.Player" style="stroke: #A80036; stroke-width: 1.0; stroke-dasharray: 7.0,7.0;"/><polygon fill="#A80036" points="246.817,427,237.817,423,241.817,427,237.817,431,246.817,427" style="stroke: #A80036; stroke-width: 1.0;"/><!--link soen6441riskgame.models.Card to soen6441riskgame.models.Player--><path d="M227.566,832 C242.299,832 253.2,832 253.2,832 C253.2,832 253.2,750.0101 253.2,750.0101 " fill="none" id="soen6441riskgame.models.Card-soen6441riskgame.models.Player" style="stroke: #A80036; stroke-width: 1.0;"/><polygon fill="#A80036" points="253.2,745.0101,249.2,754.0101,253.2,750.0101,257.2,754.0101,253.2,745.0101" style="stroke: #A80036; stroke-width: 1.0;"/><text fill="#000000" font-family="sans-serif" font-size="13" lengthAdjust="spacingAndGlyphs" textLength="78" x="161.023" y="762.3989">holdingPlayer</text><!--link soen6441riskgame.models.Player to soen6441riskgame.models.Card--><path d="M250.1,745.1738 C250.1,788.8091 250.1,819 250.1,819 C250.1,819 232.523,819 232.523,819 " fill="none" id="soen6441riskgame.models.Player-soen6441riskgame.models.Card" style="stroke: #A80036; stroke-width: 1.0; stroke-dasharray: 7.0,7.0;"/><polygon fill="#A80036" points="227.523,819,236.523,823,232.523,819,236.523,815,227.523,819" style="stroke: #A80036; stroke-width: 1.0;"/><!--link soen6441riskgame.models.Continent to soen6441riskgame.models.Player--><path d="M366.5,804.9652 C366.5,804.9652 366.5,750.0445 366.5,750.0445 " fill="none" id="soen6441riskgame.models.Continent-soen6441riskgame.models.Player" style="stroke: #A80036; stroke-width: 1.0; stroke-dasharray: 7.0,7.0;"/><polygon fill="#A80036" points="366.5,745.0445,362.5,754.0445,366.5,750.0445,370.5,754.0445,366.5,745.0445" style="stroke: #A80036; stroke-width: 1.0;"/><!--link soen6441riskgame.models.Player to soen6441riskgame.models.Continent--><path d="M314.5,745.3153 C314.5,745.3153 314.5,799.9759 314.5,799.9759 " fill="none" id="soen6441riskgame.models.Player-soen6441riskgame.models.Continent" style="stroke: #A80036; stroke-width: 1.0; stroke-dasharray: 7.0,7.0;"/><polygon fill="#A80036" points="314.5,804.9759,318.5,795.9759,314.5,799.9759,310.5,795.9759,314.5,804.9759" style="stroke: #A80036; stroke-width: 1.0;"/><!--link soen6441riskgame.models.Country to soen6441riskgame.models.Player--><path d="M557.5,804.9652 C557.5,804.9652 557.5,750.0445 557.5,750.0445 " fill="none" id="soen6441riskgame.models.Country-soen6441riskgame.models.Player" style="stroke: #A80036; stroke-width: 1.0;"/><polygon fill="#A80036" points="557.5,745.0445,553.5,754.0445,557.5,750.0445,561.5,754.0445,557.5,745.0445" style="stroke: #A80036; stroke-width: 1.0;"/><text fill="#000000" font-family="sans-serif" font-size="13" lengthAdjust="spacingAndGlyphs" textLength="57" x="502.9836" y="767.2142">conquerer</text><!--link soen6441riskgame.models.Player to soen6441riskgame.models.Country--><path d="M505.5,745.3153 C505.5,745.3153 505.5,799.9759 505.5,799.9759 " fill="none" id="soen6441riskgame.models.Player-soen6441riskgame.models.Country" style="stroke: #A80036; stroke-width: 1.0; stroke-dasharray: 7.0,7.0;"/><polygon fill="#A80036" points="505.5,804.9759,509.5,795.9759,505.5,799.9759,501.5,795.9759,505.5,804.9759" style="stroke: #A80036; stroke-width: 1.0;"/><!--link soen6441riskgame.models.Player to soen6441riskgame.models.Player--><path d="M332,107.736 C332,83.366 332,68 332,68 C332,68 234,68 234,68 C234,68 234,785 234,785 C234,785 259.4,785 259.4,785 C259.4,785 259.4,750.2645 259.4,750.2645 " fill="none" id="soen6441riskgame.models.Player-soen6441riskgame.models.Player" style="stroke: #A80036; stroke-width: 1.0;"/><polygon fill="#A80036" points="259.4,745.2645,255.4,754.2645,259.4,750.2645,263.4,754.2645,259.4,745.2645" style="stroke: #A80036; stroke-width: 1.0;"/><text fill="#000000" font-family="sans-serif" font-size="13" lengthAdjust="spacingAndGlyphs" textLength="62" x="255.9992" y="766.4188">nextPlayer</text><!--link soen6441riskgame.models.Player to soen6441riskgame.models.Player--><path d="M289.5,107.662 C289.5,95.263 289.5,88 289.5,88 C289.5,88 240.5,88 240.5,88 C240.5,88 240.5,765 240.5,765 C240.5,765 256.3,765 256.3,765 C256.3,765 256.3,750.3377 256.3,750.3377 " fill="none" id="soen6441riskgame.models.Player-soen6441riskgame.models.Player" style="stroke: #A80036; stroke-width: 1.0;"/><polygon fill="#A80036" points="256.3,745.3377,252.3,754.3377,256.3,750.3377,260.3,754.3377,256.3,745.3377" style="stroke: #A80036; stroke-width: 1.0;"/><text fill="#000000" font-family="sans-serif" font-size="13" lengthAdjust="spacingAndGlyphs" textLength="84" x="167.1156" y="766.4937">previousPlayer</text><!--link soen6441riskgame.models.Player to soen6441riskgame.enums.GamePhase--><path d="M616.75,745.3153 C616.75,792.1509 616.75,825 616.75,825 C616.75,825 639.821,825 639.821,825 " fill="none" id="soen6441riskgame.models.Player-soen6441riskgame.enums.GamePhase" style="stroke: #A80036; stroke-width: 1.0;"/><polygon fill="#A80036" points="644.821,825,635.821,821,639.821,825,635.821,829,644.821,825" style="stroke: #A80036; stroke-width: 1.0;"/><text fill="#000000" font-family="sans-serif" font-size="13" lengthAdjust="spacingAndGlyphs" textLength="77" x="559.9811" y="805.7313">currentPhase</text><!--link soen6441riskgame.models.Player to soen6441riskgame.models.serializers.NameOnlySerializable--><path d="M624.088,533 C732.353,533 847,533 847,533 C847,533 847,784.9297 847,784.9297 " fill="none" id="soen6441riskgame.models.Player-soen6441riskgame.models.serializers.NameOnlySerializable" style="stroke: #A80036; stroke-width: 1.0; stroke-dasharray: 7.0,7.0;"/><polygon fill="none" points="854,784.9297,847,804.9297,840,784.9296,854,784.9297" style="stroke: #A80036; stroke-width: 1.0;"/><!--link soen6441riskgame.models.serializers.SerializableGame to soen6441riskgame.models.Player--><path d="M374.5,48.035 C374.5,48.035 374.5,102.956 374.5,102.956 " fill="none" id="soen6441riskgame.models.serializers.SerializableGame-soen6441riskgame.models.Player" style="stroke: #A80036; stroke-width: 1.0;"/><polygon fill="#A80036" points="374.5,107.956,378.5,98.956,374.5,102.956,370.5,98.956,374.5,107.956" style="stroke: #A80036; stroke-width: 1.0;"/><text fill="#000000" font-family="sans-serif" font-size="13" lengthAdjust="spacingAndGlyphs" textLength="51" x="321.2023" y="96.778">players *</text><!--link soen6441riskgame.models.serializers.SerializableGame.Builder to soen6441riskgame.models.Player--><path d="M538.25,48.035 C538.25,48.035 538.25,102.956 538.25,102.956 " fill="none" id="soen6441riskgame.models.serializers.SerializableGame.Builder-soen6441riskgame.models.Player" style="stroke: #A80036; stroke-width: 1.0;"/><polygon fill="#A80036" points="538.25,107.956,542.25,98.956,538.25,102.956,534.25,98.956,538.25,107.956" style="stroke: #A80036; stroke-width: 1.0;"/><text fill="#000000" font-family="sans-serif" font-size="13" lengthAdjust="spacingAndGlyphs" textLength="51" x="489.302" y="96.778">players *</text><!--link soen6441riskgame.singleton.GameBoardPlayer to soen6441riskgame.models.Player--><path d="M747,48.139 C747,114.336 747,321 747,321 C747,321 629.334,321 629.334,321 " fill="none" id="soen6441riskgame.singleton.GameBoardPlayer-soen6441riskgame.models.Player" style="stroke: #A80036; stroke-width: 1.0; stroke-dasharray: 7.0,7.0;"/><polygon fill="#A80036" points="624.334,321,633.334,325,629.334,321,633.334,317,624.334,321" style="stroke: #A80036; stroke-width: 1.0;"/><!--
@startuml

skinparam svgLinkTarget _parent
skinparam linetype ortho
set namespaceSeparator none
class "<b><size:14>Player</b>\n<size:10>soen6441riskgame.models" as soen6441riskgame.models.Player  [[../../soen6441riskgame/models/Player.html{soen6441riskgame.models.Player}]] {
{static} -int MAX_NUMBER_OF_CARD_TO_FORCE_EXCHANGE
{static} -int LEAST_NUMBER_OF_ARMIES_INIT_IN_TURN
{static} -int INIT_ARMY_DIVIDE_FRACTION
-String name
-int unplacedArmies
-boolean isPlaying
-Player nextPlayer
-Player previousPlayer
-GamePhase currentPhase
-ArrayList<Card> holdingCards
-ArrayList<String> currentPhaseActions
-boolean isPlayerBeAwardCard
+Player(String name)
+boolean isPlayerBeAwardCard()
+void setPlayerBeAwardCard(boolean isPlayerAwardCard)
+GamePhase getCurrentPhase()
+void setCurrentPhase(GamePhase newPhase)
+void getACardFromDeck()
+ArrayList<Card> getHoldingCards()
+Card getHoldingCard(int position)
+void removeExchangedCards()
+ArrayList<String> getCurrentPhaseActions()
+void addCurrentPhaseAction(String action)
+Player getPreviousPlayer()
+void setPreviousPlayer(Player previousPlayer)
+Player getNextPlayer()
+void setNextPlayer(Player nextPlayer)
+String getName()
+int getTotalArmies()
+ArrayList<Continent> getConqueredContinents()
+ArrayList<Country> getConqueredCountries()
+boolean isPlaying()
+void setPlaying(boolean isPlaying)
+int getUnplacedArmies()
+void setUnplacedArmies(int unplacedArmies)
+void calculateReinforcementArmies()
+void reinforce(Country country,int numberOfArmies)
+void fortify(Country fromCountry,Country toCountry,int numberOfArmies)
+String getPropertyName()
+String getPropertyValue()
-int getArmiesFromAllConqueredCountries()
-int getArmiesFromConqueredContinents()
}


class "<b><size:14>GameController</b>\n<size:10>soen6441riskgame.controllers" as soen6441riskgame.controllers.GameController  [[../../soen6441riskgame/controllers/GameController.html{soen6441riskgame.controllers.GameController}]] #white {
}

hide soen6441riskgame.controllers.GameController fields
hide soen6441riskgame.controllers.GameController methods

soen6441riskgame.controllers.GameController ..> soen6441riskgame.models.Player

class "<b><size:14>Card</b>\n<size:10>soen6441riskgame.models" as soen6441riskgame.models.Card  [[../../soen6441riskgame/models/Card.html{soen6441riskgame.models.Card}]] {
}

hide soen6441riskgame.models.Card fields
hide soen6441riskgame.models.Card methods

soen6441riskgame.models.Card - ->  "holdingPlayer" soen6441riskgame.models.Player

class "<b><size:14>Continent</b>\n<size:10>soen6441riskgame.models" as soen6441riskgame.models.Continent  [[../../soen6441riskgame/models/Continent.html{soen6441riskgame.models.Continent}]] {
}

hide soen6441riskgame.models.Continent fields
hide soen6441riskgame.models.Continent methods

soen6441riskgame.models.Continent ..> soen6441riskgame.models.Player

class "<b><size:14>Country</b>\n<size:10>soen6441riskgame.models" as soen6441riskgame.models.Country  [[../../soen6441riskgame/models/Country.html{soen6441riskgame.models.Country}]] {
}

hide soen6441riskgame.models.Country fields
hide soen6441riskgame.models.Country methods

soen6441riskgame.models.Country - ->  "conquerer" soen6441riskgame.models.Player

soen6441riskgame.models.Player - ->  "nextPlayer" soen6441riskgame.models.Player

soen6441riskgame.models.Player - ->  "previousPlayer" soen6441riskgame.models.Player

enum "<b><size:14>GamePhase</b>\n<size:10>soen6441riskgame.enums" as soen6441riskgame.enums.GamePhase  [[../../soen6441riskgame/enums/GamePhase.html{soen6441riskgame.enums.GamePhase}]] #white {
}

hide soen6441riskgame.enums.GamePhase fields
hide soen6441riskgame.enums.GamePhase methods

soen6441riskgame.models.Player - ->  "currentPhase" soen6441riskgame.enums.GamePhase


soen6441riskgame.models.Player ..> soen6441riskgame.models.Card



interface "<b><size:14>NameOnlySerializable</b>\n<size:10>soen6441riskgame.models.serializers" as soen6441riskgame.models.serializers.NameOnlySerializable  [[../../soen6441riskgame/models/serializers/NameOnlySerializable.html{soen6441riskgame.models.serializers.NameOnlySerializable}]] #white {
}

hide soen6441riskgame.models.serializers.NameOnlySerializable fields
hide soen6441riskgame.models.serializers.NameOnlySerializable methods

soen6441riskgame.models.Player ..|> soen6441riskgame.models.serializers.NameOnlySerializable


soen6441riskgame.models.Player ..> soen6441riskgame.models.Continent


soen6441riskgame.models.Player ..> soen6441riskgame.models.Country

class "<b><size:14>SerializableGame</b>\n<size:10>soen6441riskgame.models.serializers" as soen6441riskgame.models.serializers.SerializableGame  [[../../soen6441riskgame/models/serializers/SerializableGame.html{soen6441riskgame.models.serializers.SerializableGame}]] #white {
}

hide soen6441riskgame.models.serializers.SerializableGame fields
hide soen6441riskgame.models.serializers.SerializableGame methods

soen6441riskgame.models.serializers.SerializableGame - ->  "players *" soen6441riskgame.models.Player

class "<b><size:14>SerializableGame.Builder</b>\n<size:10>soen6441riskgame.models.serializers" as soen6441riskgame.models.serializers.SerializableGame.Builder  [[../../soen6441riskgame/models/serializers/SerializableGame.Builder.html{soen6441riskgame.models.serializers.SerializableGame.Builder}]] #white {
}

hide soen6441riskgame.models.serializers.SerializableGame.Builder fields
hide soen6441riskgame.models.serializers.SerializableGame.Builder methods

soen6441riskgame.models.serializers.SerializableGame.Builder - ->  "players *" soen6441riskgame.models.Player

class "<b><size:14>GameBoardPlayer</b>\n<size:10>soen6441riskgame.singleton" as soen6441riskgame.singleton.GameBoardPlayer  [[../../soen6441riskgame/singleton/GameBoardPlayer.html{soen6441riskgame.singleton.GameBoardPlayer}]] #white {
}

hide soen6441riskgame.singleton.GameBoardPlayer fields
hide soen6441riskgame.singleton.GameBoardPlayer methods

soen6441riskgame.singleton.GameBoardPlayer ..> soen6441riskgame.models.Player


@enduml

PlantUML version 1.2017.15(Mon Jul 03 12:45:34 EDT 2017)
(GPL source distribution)
Java Runtime: Java(TM) SE Runtime Environment
JVM: Java HotSpot(TM) 64-Bit Server VM
Java Version: 1.8.0_231-b11
Operating System: Windows 10
OS Version: 10.0
Default Encoding: Cp1252
Language: en
Country: US
--></g></svg>