<?xml version="1.0" encoding="UTF-8" standalone="no"?><svg xmlns="http://www.w3.org/2000/svg" xmlns:xlink="http://www.w3.org/1999/xlink" contentScriptType="application/ecmascript" contentStyleType="text/css" height="358px" preserveAspectRatio="none" style="width:555px;height:358px;" version="1.1" viewBox="0 0 555 358" width="555px" zoomAndPan="magnify"><defs><filter height="300%" id="f1gc7kvai1sp05" width="300%" x="-1" y="-1"><feGaussianBlur result="blurOut" stdDeviation="2.0"/><feColorMatrix in="blurOut" result="blurOut2" type="matrix" values="0 0 0 0 0 0 0 0 0 0 0 0 0 0 0 0 0 0 .4 0"/><feOffset dx="4.0" dy="4.0" in="blurOut2" result="blurOut3"/><feBlend in="SourceGraphic" in2="blurOut3" mode="normal"/></filter></defs><g><!--class soen6441riskgame.models.Viewable--><a target="_parent" xlink:actuate="onRequest" xlink:href="../../soen6441riskgame/models/Viewable.html" xlink:show="new" xlink:title="soen6441riskgame.models.Viewable" xlink:type="simple"><rect fill="#FEFECE" filter="url(#f1gc7kvai1sp05)" height="139.2031" id="soen6441riskgame.models.Viewable" style="stroke: #A80036; stroke-width: 1.5;" width="266" x="142" y="108"/><ellipse cx="208.75" cy="128.0938" fill="#B4A7E5" rx="11" ry="11" style="stroke: #A80036; stroke-width: 1.0;"/><path d="M209.7031,124.7344 L209.7031,131.3906 L211.4219,131.3906 Q212.0313,131.3906 212.2969,131.625 Q212.5625,131.8594 212.5625,132.25 Q212.5625,132.625 212.2969,132.8594 Q212.0313,133.0938 211.4219,133.0938 L206.2813,133.0938 Q205.6719,133.0938 205.4063,132.8594 Q205.1406,132.625 205.1406,132.2344 Q205.1406,131.8594 205.4063,131.625 Q205.6719,131.3906 206.2813,131.3906 L208,131.3906 L208,124.7344 L206.2813,124.7344 Q205.6719,124.7344 205.4063,124.5 Q205.1406,124.2656 205.1406,123.875 Q205.1406,123.5 205.4063,123.2656 Q205.6719,123.0313 206.2813,123.0313 L211.4219,123.0313 Q212.0313,123.0313 212.2969,123.2656 Q212.5625,123.5 212.5625,123.875 Q212.5625,124.2656 212.2969,124.5 Q212.0313,124.7344 211.4219,124.7344 L209.7031,124.7344 Z "/><text fill="#000000" font-family="sans-serif" font-size="14" font-style="italic" font-weight="bold" lengthAdjust="spacingAndGlyphs" textLength="62" x="260.25" y="127.5332">Viewable</text><text fill="#000000" font-family="sans-serif" font-size="10" font-style="italic" lengthAdjust="spacingAndGlyphs" textLength="124" x="229.25" y="140.9902">soen6441riskgame.models</text><line style="stroke: #A80036; stroke-width: 1.5;" x1="143" x2="407" y1="148.1875" y2="148.1875"/><line style="stroke: #A80036; stroke-width: 1.5;" x1="143" x2="407" y1="156.1875" y2="156.1875"/><ellipse cx="153" cy="168.6055" fill="#84BE84" rx="3" ry="3" style="stroke: #038048; stroke-width: 1.0;"/><text fill="#000000" font-family="sans-serif" font-size="11" font-style="italic" lengthAdjust="spacingAndGlyphs" textLength="218" x="162" y="171.6064">void view(PrintStream printStream,int indent)</text><ellipse cx="153" cy="182.4414" fill="#84BE84" rx="3" ry="3" style="stroke: #038048; stroke-width: 1.0;"/><text fill="#000000" font-family="sans-serif" font-size="11" lengthAdjust="spacingAndGlyphs" textLength="55" x="162" y="185.4424">void view()</text><ellipse cx="153" cy="196.2773" fill="#84BE84" rx="3" ry="3" style="stroke: #038048; stroke-width: 1.0;"/><text fill="#000000" font-family="sans-serif" font-size="11" lengthAdjust="spacingAndGlyphs" textLength="98" x="162" y="199.2783">void view(int indent)</text><ellipse cx="153" cy="210.1133" fill="#84BE84" rx="3" ry="3" style="stroke: #038048; stroke-width: 1.0;"/><text fill="#000000" font-family="sans-serif" font-size="11" lengthAdjust="spacingAndGlyphs" textLength="168" x="162" y="213.1143">void view(PrintStream printStream)</text><ellipse cx="153" cy="223.9492" fill="#84BE84" rx="3" ry="3" style="stroke: #038048; stroke-width: 1.0;"/><text fill="#000000" font-family="sans-serif" font-size="11" lengthAdjust="spacingAndGlyphs" textLength="124" x="162" y="226.9502">void printIndent(int indent)</text><ellipse cx="153" cy="237.7852" fill="#84BE84" rx="3" ry="3" style="stroke: #038048; stroke-width: 1.0;"/><text fill="#000000" font-family="sans-serif" font-size="11" lengthAdjust="spacingAndGlyphs" textLength="240" x="162" y="240.7861">void printIndent(PrintStream printStream,int indent)</text></a><!--class soen6441riskgame.models.Card--><a target="_parent" xlink:actuate="onRequest" xlink:href="../../soen6441riskgame/models/Card.html" xlink:show="new" xlink:title="soen6441riskgame.models.Card" xlink:type="simple"><rect fill="#FEFECE" filter="url(#f1gc7kvai1sp05)" height="40.1875" id="soen6441riskgame.models.Card" style="stroke: #A80036; stroke-width: 1.5;" width="156" x="6" y="8"/><ellipse cx="21" cy="28.0938" fill="#ADD1B2" rx="11" ry="11" style="stroke: #A80036; stroke-width: 1.0;"/><path d="M23.7656,23.9688 Q23.9219,23.75 24.1094,23.6406 Q24.2969,23.5313 24.5156,23.5313 Q24.8906,23.5313 25.125,23.7891 Q25.3594,24.0469 25.3594,24.6563 L25.3594,26.1094 Q25.3594,26.7188 25.125,26.9844 Q24.8906,27.25 24.5156,27.25 Q24.1719,27.25 23.9688,27.0469 Q23.7656,26.8594 23.6563,26.3438 Q23.6094,25.9844 23.4219,25.7969 Q23.0938,25.4219 22.4844,25.2031 Q21.875,24.9844 21.25,24.9844 Q20.4844,24.9844 19.8516,25.3125 Q19.2188,25.6406 18.7266,26.3906 Q18.2344,27.1406 18.2344,28.1719 L18.2344,29.2656 Q18.2344,30.5 19.125,31.3203 Q20.0156,32.1406 21.6094,32.1406 Q22.5469,32.1406 23.2031,31.8906 Q23.5938,31.7344 24.0156,31.2969 Q24.2813,31.0313 24.4297,30.9531 Q24.5781,30.875 24.7813,30.875 Q25.1094,30.875 25.3672,31.1328 Q25.625,31.3906 25.625,31.7344 Q25.625,32.0781 25.2813,32.4844 Q24.7813,33.0625 23.9844,33.3906 Q22.9063,33.8438 21.6094,33.8438 Q20.0938,33.8438 18.8906,33.2188 Q17.9063,32.7188 17.2188,31.6484 Q16.5313,30.5781 16.5313,29.2969 L16.5313,28.1406 Q16.5313,26.8125 17.1484,25.6641 Q17.7656,24.5156 18.8594,23.8984 Q19.9531,23.2813 21.1875,23.2813 Q21.9219,23.2813 22.5703,23.4453 Q23.2188,23.6094 23.7656,23.9688 Z "/><text fill="#000000" font-family="sans-serif" font-size="14" font-weight="bold" lengthAdjust="spacingAndGlyphs" textLength="33" x="80.5" y="27.5332">Card</text><text fill="#000000" font-family="sans-serif" font-size="10" lengthAdjust="spacingAndGlyphs" textLength="124" x="35" y="40.9902">soen6441riskgame.models</text></a><!--class soen6441riskgame.models.Continent--><a target="_parent" xlink:actuate="onRequest" xlink:href="../../soen6441riskgame/models/Continent.html" xlink:show="new" xlink:title="soen6441riskgame.models.Continent" xlink:type="simple"><rect fill="#FEFECE" filter="url(#f1gc7kvai1sp05)" height="40.1875" id="soen6441riskgame.models.Continent" style="stroke: #A80036; stroke-width: 1.5;" width="156" x="197" y="8"/><ellipse cx="212" cy="28.0938" fill="#ADD1B2" rx="11" ry="11" style="stroke: #A80036; stroke-width: 1.0;"/><path d="M214.7656,23.9688 Q214.9219,23.75 215.1094,23.6406 Q215.2969,23.5313 215.5156,23.5313 Q215.8906,23.5313 216.125,23.7891 Q216.3594,24.0469 216.3594,24.6563 L216.3594,26.1094 Q216.3594,26.7188 216.125,26.9844 Q215.8906,27.25 215.5156,27.25 Q215.1719,27.25 214.9688,27.0469 Q214.7656,26.8594 214.6563,26.3438 Q214.6094,25.9844 214.4219,25.7969 Q214.0938,25.4219 213.4844,25.2031 Q212.875,24.9844 212.25,24.9844 Q211.4844,24.9844 210.8516,25.3125 Q210.2188,25.6406 209.7266,26.3906 Q209.2344,27.1406 209.2344,28.1719 L209.2344,29.2656 Q209.2344,30.5 210.125,31.3203 Q211.0156,32.1406 212.6094,32.1406 Q213.5469,32.1406 214.2031,31.8906 Q214.5938,31.7344 215.0156,31.2969 Q215.2813,31.0313 215.4297,30.9531 Q215.5781,30.875 215.7813,30.875 Q216.1094,30.875 216.3672,31.1328 Q216.625,31.3906 216.625,31.7344 Q216.625,32.0781 216.2813,32.4844 Q215.7813,33.0625 214.9844,33.3906 Q213.9063,33.8438 212.6094,33.8438 Q211.0938,33.8438 209.8906,33.2188 Q208.9063,32.7188 208.2188,31.6484 Q207.5313,30.5781 207.5313,29.2969 L207.5313,28.1406 Q207.5313,26.8125 208.1484,25.6641 Q208.7656,24.5156 209.8594,23.8984 Q210.9531,23.2813 212.1875,23.2813 Q212.9219,23.2813 213.5703,23.4453 Q214.2188,23.6094 214.7656,23.9688 Z "/><text fill="#000000" font-family="sans-serif" font-size="14" font-weight="bold" lengthAdjust="spacingAndGlyphs" textLength="69" x="253.5" y="27.5332">Continent</text><text fill="#000000" font-family="sans-serif" font-size="10" lengthAdjust="spacingAndGlyphs" textLength="124" x="226" y="40.9902">soen6441riskgame.models</text></a><!--class soen6441riskgame.models.Country--><a target="_parent" xlink:actuate="onRequest" xlink:href="../../soen6441riskgame/models/Country.html" xlink:show="new" xlink:title="soen6441riskgame.models.Country" xlink:type="simple"><rect fill="#FEFECE" filter="url(#f1gc7kvai1sp05)" height="40.1875" id="soen6441riskgame.models.Country" style="stroke: #A80036; stroke-width: 1.5;" width="156" x="388" y="8"/><ellipse cx="403" cy="28.0938" fill="#ADD1B2" rx="11" ry="11" style="stroke: #A80036; stroke-width: 1.0;"/><path d="M405.7656,23.9688 Q405.9219,23.75 406.1094,23.6406 Q406.2969,23.5313 406.5156,23.5313 Q406.8906,23.5313 407.125,23.7891 Q407.3594,24.0469 407.3594,24.6563 L407.3594,26.1094 Q407.3594,26.7188 407.125,26.9844 Q406.8906,27.25 406.5156,27.25 Q406.1719,27.25 405.9688,27.0469 Q405.7656,26.8594 405.6563,26.3438 Q405.6094,25.9844 405.4219,25.7969 Q405.0938,25.4219 404.4844,25.2031 Q403.875,24.9844 403.25,24.9844 Q402.4844,24.9844 401.8516,25.3125 Q401.2188,25.6406 400.7266,26.3906 Q400.2344,27.1406 400.2344,28.1719 L400.2344,29.2656 Q400.2344,30.5 401.125,31.3203 Q402.0156,32.1406 403.6094,32.1406 Q404.5469,32.1406 405.2031,31.8906 Q405.5938,31.7344 406.0156,31.2969 Q406.2813,31.0313 406.4297,30.9531 Q406.5781,30.875 406.7813,30.875 Q407.1094,30.875 407.3672,31.1328 Q407.625,31.3906 407.625,31.7344 Q407.625,32.0781 407.2813,32.4844 Q406.7813,33.0625 405.9844,33.3906 Q404.9063,33.8438 403.6094,33.8438 Q402.0938,33.8438 400.8906,33.2188 Q399.9063,32.7188 399.2188,31.6484 Q398.5313,30.5781 398.5313,29.2969 L398.5313,28.1406 Q398.5313,26.8125 399.1484,25.6641 Q399.7656,24.5156 400.8594,23.8984 Q401.9531,23.2813 403.1875,23.2813 Q403.9219,23.2813 404.5703,23.4453 Q405.2188,23.6094 405.7656,23.9688 Z "/><text fill="#000000" font-family="sans-serif" font-size="14" font-weight="bold" lengthAdjust="spacingAndGlyphs" textLength="55" x="451.5" y="27.5332">Country</text><text fill="#000000" font-family="sans-serif" font-size="10" lengthAdjust="spacingAndGlyphs" textLength="124" x="417" y="40.9902">soen6441riskgame.models</text></a><!--class java.io.PrintStream--><rect fill="#D3D3D3" filter="url(#f1gc7kvai1sp05)" height="40.1875" id="java.io.PrintStream" style="stroke: #A80036; stroke-width: 1.5;" width="114" x="218" y="307"/><rect fill="#D3D3D3" height="40.1875" style="stroke: #A80036; stroke-width: 1.5;" width="114" x="218" y="307"/><ellipse cx="233" cy="327.0938" fill="#ADD1B2" rx="11" ry="11" style="stroke: #A80036; stroke-width: 1.0;"/><path d="M235.7656,322.9688 Q235.9219,322.75 236.1094,322.6406 Q236.2969,322.5313 236.5156,322.5313 Q236.8906,322.5313 237.125,322.7891 Q237.3594,323.0469 237.3594,323.6563 L237.3594,325.1094 Q237.3594,325.7188 237.125,325.9844 Q236.8906,326.25 236.5156,326.25 Q236.1719,326.25 235.9688,326.0469 Q235.7656,325.8594 235.6563,325.3438 Q235.6094,324.9844 235.4219,324.7969 Q235.0938,324.4219 234.4844,324.2031 Q233.875,323.9844 233.25,323.9844 Q232.4844,323.9844 231.8516,324.3125 Q231.2188,324.6406 230.7266,325.3906 Q230.2344,326.1406 230.2344,327.1719 L230.2344,328.2656 Q230.2344,329.5 231.125,330.3203 Q232.0156,331.1406 233.6094,331.1406 Q234.5469,331.1406 235.2031,330.8906 Q235.5938,330.7344 236.0156,330.2969 Q236.2813,330.0313 236.4297,329.9531 Q236.5781,329.875 236.7813,329.875 Q237.1094,329.875 237.3672,330.1328 Q237.625,330.3906 237.625,330.7344 Q237.625,331.0781 237.2813,331.4844 Q236.7813,332.0625 235.9844,332.3906 Q234.9063,332.8438 233.6094,332.8438 Q232.0938,332.8438 230.8906,332.2188 Q229.9063,331.7188 229.2188,330.6484 Q228.5313,329.5781 228.5313,328.2969 L228.5313,327.1406 Q228.5313,325.8125 229.1484,324.6641 Q229.7656,323.5156 230.8594,322.8984 Q231.9531,322.2813 233.1875,322.2813 Q233.9219,322.2813 234.5703,322.4453 Q235.2188,322.6094 235.7656,322.9688 Z "/><text fill="#000000" font-family="sans-serif" font-size="14" font-weight="bold" lengthAdjust="spacingAndGlyphs" textLength="82" x="247" y="326.5332">PrintStream</text><text fill="#000000" font-family="sans-serif" font-size="10" lengthAdjust="spacingAndGlyphs" textLength="32" x="272" y="339.9902">java.io</text><!--link soen6441riskgame.models.Card to soen6441riskgame.models.Viewable--><path d="M152,48.162 C152,48.162 152,87.691 152,87.691 " fill="none" id="soen6441riskgame.models.Card-soen6441riskgame.models.Viewable" style="stroke: #A80036; stroke-width: 1.0; stroke-dasharray: 7.0,7.0;"/><polygon fill="none" points="159,87.691,152,107.691,145,87.691,159,87.691" style="stroke: #A80036; stroke-width: 1.0;"/><!--link soen6441riskgame.models.Continent to soen6441riskgame.models.Viewable--><path d="M275,48.162 C275,48.162 275,87.691 275,87.691 " fill="none" id="soen6441riskgame.models.Continent-soen6441riskgame.models.Viewable" style="stroke: #A80036; stroke-width: 1.0; stroke-dasharray: 7.0,7.0;"/><polygon fill="none" points="282,87.691,275,107.691,268,87.691,282,87.691" style="stroke: #A80036; stroke-width: 1.0;"/><!--link soen6441riskgame.models.Country to soen6441riskgame.models.Viewable--><path d="M398,48.162 C398,48.162 398,87.691 398,87.691 " fill="none" id="soen6441riskgame.models.Country-soen6441riskgame.models.Viewable" style="stroke: #A80036; stroke-width: 1.0; stroke-dasharray: 7.0,7.0;"/><polygon fill="none" points="405,87.691,398,107.691,391,87.691,405,87.691" style="stroke: #A80036; stroke-width: 1.0;"/><!--link soen6441riskgame.models.Viewable to java.io.PrintStream--><path d="M275,247.4351 C275,247.4351 275,301.8827 275,301.8827 " fill="none" id="soen6441riskgame.models.Viewable-java.io.PrintStream" style="stroke: #A80036; stroke-width: 1.0; stroke-dasharray: 7.0,7.0;"/><polygon fill="#A80036" points="275,306.8827,279,297.8827,275,301.8827,271,297.8827,275,306.8827" style="stroke: #A80036; stroke-width: 1.0;"/><!--
@startuml

skinparam svgLinkTarget _parent
skinparam linetype ortho
set namespaceSeparator none
interface "<b><size:14>Viewable</b>\n<size:10>soen6441riskgame.models" as soen6441riskgame.models.Viewable  [[../../soen6441riskgame/models/Viewable.html{soen6441riskgame.models.Viewable}]] {
{abstract} +void view(PrintStream printStream,int indent)
+void view()
+void view(int indent)
+void view(PrintStream printStream)
+void printIndent(int indent)
+void printIndent(PrintStream printStream,int indent)
}


class "<b><size:14>Card</b>\n<size:10>soen6441riskgame.models" as soen6441riskgame.models.Card  [[../../soen6441riskgame/models/Card.html{soen6441riskgame.models.Card}]] {
}

hide soen6441riskgame.models.Card fields
hide soen6441riskgame.models.Card methods

soen6441riskgame.models.Card ..|> soen6441riskgame.models.Viewable

class "<b><size:14>Continent</b>\n<size:10>soen6441riskgame.models" as soen6441riskgame.models.Continent  [[../../soen6441riskgame/models/Continent.html{soen6441riskgame.models.Continent}]] {
}

hide soen6441riskgame.models.Continent fields
hide soen6441riskgame.models.Continent methods

soen6441riskgame.models.Continent ..|> soen6441riskgame.models.Viewable

class "<b><size:14>Country</b>\n<size:10>soen6441riskgame.models" as soen6441riskgame.models.Country  [[../../soen6441riskgame/models/Country.html{soen6441riskgame.models.Country}]] {
}

hide soen6441riskgame.models.Country fields
hide soen6441riskgame.models.Country methods

soen6441riskgame.models.Country ..|> soen6441riskgame.models.Viewable

class "<b><size:14>PrintStream</b>\n<size:10>java.io" as java.io.PrintStream  #lightgrey {
}

hide java.io.PrintStream fields
hide java.io.PrintStream methods

soen6441riskgame.models.Viewable ..> java.io.PrintStream


@enduml

PlantUML version 1.2017.15(Mon Jul 03 12:45:34 EDT 2017)
(GPL source distribution)
Java Runtime: Java(TM) SE Runtime Environment
JVM: Java HotSpot(TM) 64-Bit Server VM
Java Version: 1.8.0_231-b11
Operating System: Windows 10
OS Version: 10.0
Default Encoding: Cp1252
Language: en
Country: US
--></g></svg>