<?xml version="1.0" encoding="UTF-8" standalone="no"?><svg xmlns="http://www.w3.org/2000/svg" xmlns:xlink="http://www.w3.org/1999/xlink" contentScriptType="application/ecmascript" contentStyleType="text/css" height="244px" preserveAspectRatio="none" style="width:373px;height:244px;" version="1.1" viewBox="0 0 373 244" width="373px" zoomAndPan="magnify"><defs><filter height="300%" id="fjhny3zmkdt83" width="300%" x="-1" y="-1"><feGaussianBlur result="blurOut" stdDeviation="2.0"/><feColorMatrix in="blurOut" result="blurOut2" type="matrix" values="0 0 0 0 0 0 0 0 0 0 0 0 0 0 0 0 0 0 .4 0"/><feOffset dx="4.0" dy="4.0" in="blurOut2" result="blurOut3"/><feBlend in="SourceGraphic" in2="blurOut3" mode="normal"/></filter></defs><g><!--class soen6441riskgame.enums.CardType--><a target="_parent" xlink:actuate="onRequest" xlink:href="../../soen6441riskgame/enums/CardType.html" xlink:show="new" xlink:title="soen6441riskgame.enums.CardType" xlink:type="simple"><rect fill="#FEFECE" filter="url(#fjhny3zmkdt83)" height="125.3672" id="soen6441riskgame.enums.CardType" style="stroke: #A80036; stroke-width: 1.5;" width="179" x="92.5" y="108"/><ellipse cx="119.2" cy="128.0938" fill="#EB937F" rx="11" ry="11" style="stroke: #A80036; stroke-width: 1.0;"/><path d="M118.0594,128.8906 L118.0594,131.3906 L122.3875,131.3906 L122.3875,130.4688 Q122.3875,129.8594 122.6297,129.5938 Q122.8719,129.3281 123.2469,129.3281 Q123.6219,129.3281 123.8563,129.5938 Q124.0906,129.8594 124.0906,130.4688 L124.0906,133.0938 L116.0906,133.0938 Q115.4656,133.0938 115.2078,132.8594 Q114.95,132.625 114.95,132.2344 Q114.95,131.8594 115.2156,131.625 Q115.4813,131.3906 116.0906,131.3906 L116.3563,131.3906 L116.3563,124.7344 L116.0906,124.7344 Q115.4656,124.7344 115.2078,124.5 Q114.95,124.2656 114.95,123.875 Q114.95,123.5 115.2078,123.2656 Q115.4656,123.0313 116.0906,123.0313 L123.7156,123.0313 L123.7156,125.625 Q123.7156,126.2344 123.4891,126.4922 Q123.2625,126.75 122.8719,126.75 Q122.4969,126.75 122.2625,126.4922 Q122.0281,126.2344 122.0281,125.625 L122.0281,124.7344 L118.0594,124.7344 L118.0594,127.1875 L119.5438,127.1875 Q119.5438,126.5313 119.6688,126.3438 Q119.9344,125.9375 120.4031,125.9375 Q120.7781,125.9375 121.0125,126.1953 Q121.2469,126.4531 121.2469,127.0625 L121.2469,129.0313 Q121.2469,129.5781 121.1219,129.7656 Q120.8563,130.1563 120.4031,130.1563 Q119.9344,130.1563 119.6688,129.75 Q119.5438,129.5625 119.5438,128.8906 L118.0594,128.8906 Z "/><text fill="#000000" font-family="sans-serif" font-size="14" font-weight="bold" lengthAdjust="spacingAndGlyphs" textLength="66" x="163.3" y="127.5332">CardType</text><text fill="#000000" font-family="sans-serif" font-size="10" lengthAdjust="spacingAndGlyphs" textLength="121" x="135.8" y="140.9902">soen6441riskgame.enums</text><line style="stroke: #A80036; stroke-width: 1.5;" x1="93.5" x2="270.5" y1="148.1875" y2="148.1875"/><rect fill="none" height="6" style="stroke: #C82930; stroke-width: 1.0;" width="6" x="100.5" y="157.6055"/><text fill="#000000" font-family="sans-serif" font-size="11" lengthAdjust="spacingAndGlyphs" textLength="64" x="112.5" y="163.6064">int cardValue</text><line style="stroke: #A80036; stroke-width: 1.5;" x1="93.5" x2="270.5" y1="170.0234" y2="170.0234"/><rect fill="#F24D5C" height="6" style="stroke: #C82930; stroke-width: 1.0;" width="6" x="100.5" y="179.4414"/><text fill="#000000" font-family="sans-serif" font-size="11" lengthAdjust="spacingAndGlyphs" textLength="119" x="112.5" y="185.4424">CardType(int cardValue)</text><ellipse cx="103.5" cy="196.2773" fill="#84BE84" rx="3" ry="3" style="stroke: #038048; stroke-width: 1.0;"/><text fill="#000000" font-family="sans-serif" font-size="11" lengthAdjust="spacingAndGlyphs" text-decoration="underline" textLength="90" x="112.5" y="199.2783">CardType values()</text><line style="stroke: #000000; stroke-width: 1.0;" x1="112.5" x2="202.5" y1="201.2783" y2="201.2783"/><ellipse cx="103.5" cy="210.1133" fill="#84BE84" rx="3" ry="3" style="stroke: #038048; stroke-width: 1.0;"/><text fill="#000000" font-family="sans-serif" font-size="11" lengthAdjust="spacingAndGlyphs" text-decoration="underline" textLength="153" x="112.5" y="213.1143">CardType valueOf(String name)</text><line style="stroke: #000000; stroke-width: 1.0;" x1="112.5" x2="265.5" y1="215.1143" y2="215.1143"/><ellipse cx="103.5" cy="223.9492" fill="#84BE84" rx="3" ry="3" style="stroke: #038048; stroke-width: 1.0;"/><text fill="#000000" font-family="sans-serif" font-size="11" lengthAdjust="spacingAndGlyphs" textLength="109" x="112.5" y="226.9502">int getCardTypeAsInt()</text></a><!--class soen6441riskgame.models.Card--><a target="_parent" xlink:actuate="onRequest" xlink:href="../../soen6441riskgame/models/Card.html" xlink:show="new" xlink:title="soen6441riskgame.models.Card" xlink:type="simple"><rect fill="#FFFFFF" filter="url(#fjhny3zmkdt83)" height="40.1875" id="soen6441riskgame.models.Card" style="stroke: #A80036; stroke-width: 1.5;" width="156" x="6" y="8"/><rect fill="#FFFFFF" height="40.1875" style="stroke: #A80036; stroke-width: 1.5;" width="156" x="6" y="8"/><ellipse cx="21" cy="28.0938" fill="#ADD1B2" rx="11" ry="11" style="stroke: #A80036; stroke-width: 1.0;"/><path d="M23.7656,23.9688 Q23.9219,23.75 24.1094,23.6406 Q24.2969,23.5313 24.5156,23.5313 Q24.8906,23.5313 25.125,23.7891 Q25.3594,24.0469 25.3594,24.6563 L25.3594,26.1094 Q25.3594,26.7188 25.125,26.9844 Q24.8906,27.25 24.5156,27.25 Q24.1719,27.25 23.9688,27.0469 Q23.7656,26.8594 23.6563,26.3438 Q23.6094,25.9844 23.4219,25.7969 Q23.0938,25.4219 22.4844,25.2031 Q21.875,24.9844 21.25,24.9844 Q20.4844,24.9844 19.8516,25.3125 Q19.2188,25.6406 18.7266,26.3906 Q18.2344,27.1406 18.2344,28.1719 L18.2344,29.2656 Q18.2344,30.5 19.125,31.3203 Q20.0156,32.1406 21.6094,32.1406 Q22.5469,32.1406 23.2031,31.8906 Q23.5938,31.7344 24.0156,31.2969 Q24.2813,31.0313 24.4297,30.9531 Q24.5781,30.875 24.7813,30.875 Q25.1094,30.875 25.3672,31.1328 Q25.625,31.3906 25.625,31.7344 Q25.625,32.0781 25.2813,32.4844 Q24.7813,33.0625 23.9844,33.3906 Q22.9063,33.8438 21.6094,33.8438 Q20.0938,33.8438 18.8906,33.2188 Q17.9063,32.7188 17.2188,31.6484 Q16.5313,30.5781 16.5313,29.2969 L16.5313,28.1406 Q16.5313,26.8125 17.1484,25.6641 Q17.7656,24.5156 18.8594,23.8984 Q19.9531,23.2813 21.1875,23.2813 Q21.9219,23.2813 22.5703,23.4453 Q23.2188,23.6094 23.7656,23.9688 Z "/><text fill="#000000" font-family="sans-serif" font-size="14" font-weight="bold" lengthAdjust="spacingAndGlyphs" textLength="33" x="80.5" y="27.5332">Card</text><text fill="#000000" font-family="sans-serif" font-size="10" lengthAdjust="spacingAndGlyphs" textLength="124" x="35" y="40.9902">soen6441riskgame.models</text></a><!--class soen6441riskgame.singleton.GameBoard--><a target="_parent" xlink:actuate="onRequest" xlink:href="../../soen6441riskgame/singleton/GameBoard.html" xlink:show="new" xlink:title="soen6441riskgame.singleton.GameBoard" xlink:type="simple"><rect fill="#FFFFFF" filter="url(#fjhny3zmkdt83)" height="40.1875" id="soen6441riskgame.singleton.GameBoard" style="stroke: #A80036; stroke-width: 1.5;" width="165" x="197.5" y="8"/><rect fill="#FFFFFF" height="40.1875" style="stroke: #A80036; stroke-width: 1.5;" width="165" x="197.5" y="8"/><ellipse cx="212.5" cy="28.0938" fill="#ADD1B2" rx="11" ry="11" style="stroke: #A80036; stroke-width: 1.0;"/><path d="M215.2656,23.9688 Q215.4219,23.75 215.6094,23.6406 Q215.7969,23.5313 216.0156,23.5313 Q216.3906,23.5313 216.625,23.7891 Q216.8594,24.0469 216.8594,24.6563 L216.8594,26.1094 Q216.8594,26.7188 216.625,26.9844 Q216.3906,27.25 216.0156,27.25 Q215.6719,27.25 215.4688,27.0469 Q215.2656,26.8594 215.1563,26.3438 Q215.1094,25.9844 214.9219,25.7969 Q214.5938,25.4219 213.9844,25.2031 Q213.375,24.9844 212.75,24.9844 Q211.9844,24.9844 211.3516,25.3125 Q210.7188,25.6406 210.2266,26.3906 Q209.7344,27.1406 209.7344,28.1719 L209.7344,29.2656 Q209.7344,30.5 210.625,31.3203 Q211.5156,32.1406 213.1094,32.1406 Q214.0469,32.1406 214.7031,31.8906 Q215.0938,31.7344 215.5156,31.2969 Q215.7813,31.0313 215.9297,30.9531 Q216.0781,30.875 216.2813,30.875 Q216.6094,30.875 216.8672,31.1328 Q217.125,31.3906 217.125,31.7344 Q217.125,32.0781 216.7813,32.4844 Q216.2813,33.0625 215.4844,33.3906 Q214.4063,33.8438 213.1094,33.8438 Q211.5938,33.8438 210.3906,33.2188 Q209.4063,32.7188 208.7188,31.6484 Q208.0313,30.5781 208.0313,29.2969 L208.0313,28.1406 Q208.0313,26.8125 208.6484,25.6641 Q209.2656,24.5156 210.3594,23.8984 Q211.4531,23.2813 212.6875,23.2813 Q213.4219,23.2813 214.0703,23.4453 Q214.7188,23.6094 215.2656,23.9688 Z "/><text fill="#000000" font-family="sans-serif" font-size="14" font-weight="bold" lengthAdjust="spacingAndGlyphs" textLength="82" x="252" y="27.5332">GameBoard</text><text fill="#000000" font-family="sans-serif" font-size="10" lengthAdjust="spacingAndGlyphs" textLength="133" x="226.5" y="40.9902">soen6441riskgame.singleton</text></a><!--link soen6441riskgame.models.Card to soen6441riskgame.enums.CardType--><path d="M127.25,48.115 C127.25,48.115 127.25,102.91 127.25,102.91 " fill="none" id="soen6441riskgame.models.Card-soen6441riskgame.enums.CardType" style="stroke: #A80036; stroke-width: 1.0;"/><polygon fill="#A80036" points="127.25,107.91,131.25,98.91,127.25,102.91,123.25,98.91,127.25,107.91" style="stroke: #A80036; stroke-width: 1.0;"/><text fill="#000000" font-family="sans-serif" font-size="13" lengthAdjust="spacingAndGlyphs" textLength="53" x="64.8555" y="97.2422">cardType</text><!--link soen6441riskgame.singleton.GameBoard to soen6441riskgame.enums.CardType--><path d="M234.5,48.115 C234.5,48.115 234.5,102.91 234.5,102.91 " fill="none" id="soen6441riskgame.singleton.GameBoard-soen6441riskgame.enums.CardType" style="stroke: #A80036; stroke-width: 1.0; stroke-dasharray: 7.0,7.0;"/><polygon fill="#A80036" points="234.5,107.91,238.5,98.91,234.5,102.91,230.5,98.91,234.5,107.91" style="stroke: #A80036; stroke-width: 1.0;"/><!--
@startuml

skinparam svgLinkTarget _parent
skinparam linetype ortho
set namespaceSeparator none
enum "<b><size:14>CardType</b>\n<size:10>soen6441riskgame.enums" as soen6441riskgame.enums.CardType  [[../../soen6441riskgame/enums/CardType.html{soen6441riskgame.enums.CardType}]] {
-int cardValue
-CardType(int cardValue)
{static} +CardType values()
{static} +CardType valueOf(String name)
+int getCardTypeAsInt()
}


class "<b><size:14>Card</b>\n<size:10>soen6441riskgame.models" as soen6441riskgame.models.Card  [[../../soen6441riskgame/models/Card.html{soen6441riskgame.models.Card}]] #white {
}

hide soen6441riskgame.models.Card fields
hide soen6441riskgame.models.Card methods

soen6441riskgame.models.Card - ->  "cardType" soen6441riskgame.enums.CardType

class "<b><size:14>GameBoard</b>\n<size:10>soen6441riskgame.singleton" as soen6441riskgame.singleton.GameBoard  [[../../soen6441riskgame/singleton/GameBoard.html{soen6441riskgame.singleton.GameBoard}]] #white {
}

hide soen6441riskgame.singleton.GameBoard fields
hide soen6441riskgame.singleton.GameBoard methods

soen6441riskgame.singleton.GameBoard ..> soen6441riskgame.enums.CardType


@enduml

PlantUML version 1.2017.15(Mon Jul 03 12:45:34 EDT 2017)
(GPL source distribution)
Java Runtime: Java(TM) SE Runtime Environment
JVM: Java HotSpot(TM) 64-Bit Server VM
Java Version: 1.8.0_231-b11
Operating System: Windows 10
OS Version: 10.0
Default Encoding: Cp1252
Language: en
Country: US
--></g></svg>