<?xml version="1.0" encoding="UTF-8" standalone="no"?><svg xmlns="http://www.w3.org/2000/svg" xmlns:xlink="http://www.w3.org/1999/xlink" contentScriptType="application/ecmascript" contentStyleType="text/css" height="116px" preserveAspectRatio="none" style="width:233px;height:116px;" version="1.1" viewBox="0 0 233 116" width="233px" zoomAndPan="magnify"><defs><filter height="300%" id="fp53iil82oasi" width="300%" x="-1" y="-1"><feGaussianBlur result="blurOut" stdDeviation="2.0"/><feColorMatrix in="blurOut" result="blurOut2" type="matrix" values="0 0 0 0 0 0 0 0 0 0 0 0 0 0 0 0 0 0 .4 0"/><feOffset dx="4.0" dy="4.0" in="blurOut2" result="blurOut3"/><feBlend in="SourceGraphic" in2="blurOut3" mode="normal"/></filter></defs><g><!--class soen6441riskgame.enums.ChangedProperty--><a target="_parent" xlink:actuate="onRequest" xlink:href="../../soen6441riskgame/enums/ChangedProperty.html" xlink:show="new" xlink:title="soen6441riskgame.enums.ChangedProperty" xlink:type="simple"><rect fill="#FEFECE" filter="url(#fp53iil82oasi)" height="97.6953" id="soen6441riskgame.enums.ChangedProperty" style="stroke: #A80036; stroke-width: 1.5;" width="216" x="6" y="8"/><ellipse cx="48.45" cy="28.0938" fill="#EB937F" rx="11" ry="11" style="stroke: #A80036; stroke-width: 1.0;"/><path d="M47.3094,28.8906 L47.3094,31.3906 L51.6375,31.3906 L51.6375,30.4688 Q51.6375,29.8594 51.8797,29.5938 Q52.1219,29.3281 52.4969,29.3281 Q52.8719,29.3281 53.1063,29.5938 Q53.3406,29.8594 53.3406,30.4688 L53.3406,33.0938 L45.3406,33.0938 Q44.7156,33.0938 44.4578,32.8594 Q44.2,32.625 44.2,32.2344 Q44.2,31.8594 44.4656,31.625 Q44.7313,31.3906 45.3406,31.3906 L45.6063,31.3906 L45.6063,24.7344 L45.3406,24.7344 Q44.7156,24.7344 44.4578,24.5 Q44.2,24.2656 44.2,23.875 Q44.2,23.5 44.4578,23.2656 Q44.7156,23.0313 45.3406,23.0313 L52.9656,23.0313 L52.9656,25.625 Q52.9656,26.2344 52.7391,26.4922 Q52.5125,26.75 52.1219,26.75 Q51.7469,26.75 51.5125,26.4922 Q51.2781,26.2344 51.2781,25.625 L51.2781,24.7344 L47.3094,24.7344 L47.3094,27.1875 L48.7938,27.1875 Q48.7938,26.5313 48.9188,26.3438 Q49.1844,25.9375 49.6531,25.9375 Q50.0281,25.9375 50.2625,26.1953 Q50.4969,26.4531 50.4969,27.0625 L50.4969,29.0313 Q50.4969,29.5781 50.3719,29.7656 Q50.1063,30.1563 49.6531,30.1563 Q49.1844,30.1563 48.9188,29.75 Q48.7938,29.5625 48.7938,28.8906 L47.3094,28.8906 Z "/><text fill="#000000" font-family="sans-serif" font-size="14" font-weight="bold" lengthAdjust="spacingAndGlyphs" textLength="123" x="68.55" y="27.5332">ChangedProperty</text><text fill="#000000" font-family="sans-serif" font-size="10" lengthAdjust="spacingAndGlyphs" textLength="121" x="69.55" y="40.9902">soen6441riskgame.enums</text><line style="stroke: #A80036; stroke-width: 1.5;" x1="7" x2="221" y1="48.1875" y2="48.1875"/><line style="stroke: #A80036; stroke-width: 1.5;" x1="7" x2="221" y1="56.1875" y2="56.1875"/><rect fill="#F24D5C" height="6" style="stroke: #C82930; stroke-width: 1.0;" width="6" x="14" y="65.6055"/><text fill="#000000" font-family="sans-serif" font-size="11" lengthAdjust="spacingAndGlyphs" textLength="92" x="26" y="71.6064">ChangedProperty()</text><ellipse cx="17" cy="82.4414" fill="#84BE84" rx="3" ry="3" style="stroke: #038048; stroke-width: 1.0;"/><text fill="#000000" font-family="sans-serif" font-size="11" lengthAdjust="spacingAndGlyphs" text-decoration="underline" textLength="127" x="26" y="85.4424">ChangedProperty values()</text><line style="stroke: #000000; stroke-width: 1.0;" x1="26" x2="153" y1="87.4424" y2="87.4424"/><ellipse cx="17" cy="96.2773" fill="#84BE84" rx="3" ry="3" style="stroke: #038048; stroke-width: 1.0;"/><text fill="#000000" font-family="sans-serif" font-size="11" lengthAdjust="spacingAndGlyphs" text-decoration="underline" textLength="190" x="26" y="99.2783">ChangedProperty valueOf(String name)</text><line style="stroke: #000000; stroke-width: 1.0;" x1="26" x2="216" y1="101.2783" y2="101.2783"/></a><!--
@startuml

skinparam svgLinkTarget _parent
skinparam linetype ortho
set namespaceSeparator none
enum "<b><size:14>ChangedProperty</b>\n<size:10>soen6441riskgame.enums" as soen6441riskgame.enums.ChangedProperty  [[../../soen6441riskgame/enums/ChangedProperty.html{soen6441riskgame.enums.ChangedProperty}]] {
-ChangedProperty()
{static} +ChangedProperty values()
{static} +ChangedProperty valueOf(String name)
}



@enduml

PlantUML version 1.2017.15(Mon Jul 03 12:45:34 EDT 2017)
(GPL source distribution)
Java Runtime: Java(TM) SE Runtime Environment
JVM: Java HotSpot(TM) 64-Bit Server VM
Java Version: 1.8.0_231-b11
Operating System: Windows 10
OS Version: 10.0
Default Encoding: Cp1252
Language: en
Country: US
--></g></svg>