<?xml version="1.0" encoding="UTF-8" standalone="no"?><svg xmlns="http://www.w3.org/2000/svg" xmlns:xlink="http://www.w3.org/1999/xlink" contentScriptType="application/ecmascript" contentStyleType="text/css" height="158px" preserveAspectRatio="none" style="width:320px;height:158px;" version="1.1" viewBox="0 0 320 158" width="320px" zoomAndPan="magnify"><defs><filter height="300%" id="f1nyprbb9gwqkb" width="300%" x="-1" y="-1"><feGaussianBlur result="blurOut" stdDeviation="2.0"/><feColorMatrix in="blurOut" result="blurOut2" type="matrix" values="0 0 0 0 0 0 0 0 0 0 0 0 0 0 0 0 0 0 .4 0"/><feOffset dx="4.0" dy="4.0" in="blurOut2" result="blurOut3"/><feBlend in="SourceGraphic" in2="blurOut3" mode="normal"/></filter></defs><g><!--class soen6441riskgame.enums.CommonCommandArgs--><a target="_parent" xlink:actuate="onRequest" xlink:href="../../soen6441riskgame/enums/CommonCommandArgs.html" xlink:show="new" xlink:title="soen6441riskgame.enums.CommonCommandArgs" xlink:type="simple"><rect fill="#FEFECE" filter="url(#f1nyprbb9gwqkb)" height="139.2031" id="soen6441riskgame.enums.CommonCommandArgs" style="stroke: #A80036; stroke-width: 1.5;" width="303" x="6" y="8"/><ellipse cx="72.25" cy="28.0938" fill="#EB937F" rx="11" ry="11" style="stroke: #A80036; stroke-width: 1.0;"/><path d="M71.1094,28.8906 L71.1094,31.3906 L75.4375,31.3906 L75.4375,30.4688 Q75.4375,29.8594 75.6797,29.5938 Q75.9219,29.3281 76.2969,29.3281 Q76.6719,29.3281 76.9063,29.5938 Q77.1406,29.8594 77.1406,30.4688 L77.1406,33.0938 L69.1406,33.0938 Q68.5156,33.0938 68.2578,32.8594 Q68,32.625 68,32.2344 Q68,31.8594 68.2656,31.625 Q68.5313,31.3906 69.1406,31.3906 L69.4063,31.3906 L69.4063,24.7344 L69.1406,24.7344 Q68.5156,24.7344 68.2578,24.5 Q68,24.2656 68,23.875 Q68,23.5 68.2578,23.2656 Q68.5156,23.0313 69.1406,23.0313 L76.7656,23.0313 L76.7656,25.625 Q76.7656,26.2344 76.5391,26.4922 Q76.3125,26.75 75.9219,26.75 Q75.5469,26.75 75.3125,26.4922 Q75.0781,26.2344 75.0781,25.625 L75.0781,24.7344 L71.1094,24.7344 L71.1094,27.1875 L72.5938,27.1875 Q72.5938,26.5313 72.7188,26.3438 Q72.9844,25.9375 73.4531,25.9375 Q73.8281,25.9375 74.0625,26.1953 Q74.2969,26.4531 74.2969,27.0625 L74.2969,29.0313 Q74.2969,29.5781 74.1719,29.7656 Q73.9063,30.1563 73.4531,30.1563 Q72.9844,30.1563 72.7188,29.75 Q72.5938,29.5625 72.5938,28.8906 L71.1094,28.8906 Z "/><text fill="#000000" font-family="sans-serif" font-size="14" font-weight="bold" lengthAdjust="spacingAndGlyphs" textLength="162" x="92.75" y="27.5332">CommonCommandArgs</text><text fill="#000000" font-family="sans-serif" font-size="10" lengthAdjust="spacingAndGlyphs" textLength="121" x="113.25" y="40.9902">soen6441riskgame.enums</text><line style="stroke: #A80036; stroke-width: 1.5;" x1="7" x2="308" y1="48.1875" y2="48.1875"/><rect fill="none" height="6" style="stroke: #C82930; stroke-width: 1.0;" width="6" x="14" y="57.6055"/><text fill="#000000" font-family="sans-serif" font-size="11" lengthAdjust="spacingAndGlyphs" textLength="76" x="26" y="63.6064">String argument</text><line style="stroke: #A80036; stroke-width: 1.5;" x1="7" x2="308" y1="70.0234" y2="70.0234"/><rect fill="#F24D5C" height="6" style="stroke: #C82930; stroke-width: 1.0;" width="6" x="14" y="79.4414"/><text fill="#000000" font-family="sans-serif" font-size="11" lengthAdjust="spacingAndGlyphs" textLength="196" x="26" y="85.4424">CommonCommandArgs(String argument)</text><ellipse cx="17" cy="96.2773" fill="#84BE84" rx="3" ry="3" style="stroke: #038048; stroke-width: 1.0;"/><text fill="#000000" font-family="sans-serif" font-size="11" lengthAdjust="spacingAndGlyphs" text-decoration="underline" textLength="155" x="26" y="99.2783">CommonCommandArgs values()</text><line style="stroke: #000000; stroke-width: 1.0;" x1="26" x2="181" y1="101.2783" y2="101.2783"/><ellipse cx="17" cy="110.1133" fill="#84BE84" rx="3" ry="3" style="stroke: #038048; stroke-width: 1.0;"/><text fill="#000000" font-family="sans-serif" font-size="11" lengthAdjust="spacingAndGlyphs" text-decoration="underline" textLength="218" x="26" y="113.1143">CommonCommandArgs valueOf(String name)</text><line style="stroke: #000000; stroke-width: 1.0;" x1="26" x2="244" y1="115.1143" y2="115.1143"/><ellipse cx="17" cy="123.9492" fill="#84BE84" rx="3" ry="3" style="stroke: #038048; stroke-width: 1.0;"/><text fill="#000000" font-family="sans-serif" font-size="11" lengthAdjust="spacingAndGlyphs" textLength="101" x="26" y="126.9502">String getArgument()</text><ellipse cx="17" cy="137.7852" fill="#84BE84" rx="3" ry="3" style="stroke: #038048; stroke-width: 1.0;"/><text fill="#000000" font-family="sans-serif" font-size="11" lengthAdjust="spacingAndGlyphs" text-decoration="underline" textLength="277" x="26" y="140.7861">CommonCommandArgs fromString(String argumentString)</text><line style="stroke: #000000; stroke-width: 1.0;" x1="26" x2="303" y1="142.7861" y2="142.7861"/></a><!--
@startuml

skinparam svgLinkTarget _parent
skinparam linetype ortho
set namespaceSeparator none
enum "<b><size:14>CommonCommandArgs</b>\n<size:10>soen6441riskgame.enums" as soen6441riskgame.enums.CommonCommandArgs  [[../../soen6441riskgame/enums/CommonCommandArgs.html{soen6441riskgame.enums.CommonCommandArgs}]] {
-String argument
-CommonCommandArgs(String argument)
{static} +CommonCommandArgs values()
{static} +CommonCommandArgs valueOf(String name)
+String getArgument()
{static} +CommonCommandArgs fromString(String argumentString)
}



@enduml

PlantUML version 1.2017.15(Mon Jul 03 12:45:34 EDT 2017)
(GPL source distribution)
Java Runtime: Java(TM) SE Runtime Environment
JVM: Java HotSpot(TM) 64-Bit Server VM
Java Version: 1.8.0_231-b11
Operating System: Windows 10
OS Version: 10.0
Default Encoding: Cp1252
Language: en
Country: US
--></g></svg>