<?xml version="1.0" encoding="UTF-8" standalone="no"?><svg xmlns="http://www.w3.org/2000/svg" xmlns:xlink="http://www.w3.org/1999/xlink" contentScriptType="application/ecmascript" contentStyleType="text/css" height="158px" preserveAspectRatio="none" style="width:239px;height:158px;" version="1.1" viewBox="0 0 239 158" width="239px" zoomAndPan="magnify"><defs><filter height="300%" id="f118vxx66rutpk" width="300%" x="-1" y="-1"><feGaussianBlur result="blurOut" stdDeviation="2.0"/><feColorMatrix in="blurOut" result="blurOut2" type="matrix" values="0 0 0 0 0 0 0 0 0 0 0 0 0 0 0 0 0 0 .4 0"/><feOffset dx="4.0" dy="4.0" in="blurOut2" result="blurOut3"/><feBlend in="SourceGraphic" in2="blurOut3" mode="normal"/></filter></defs><g><!--class soen6441riskgame.enums.ConquestMapPart--><a target="_parent" xlink:actuate="onRequest" xlink:href="../../soen6441riskgame/enums/ConquestMapPart.html" xlink:show="new" xlink:title="soen6441riskgame.enums.ConquestMapPart" xlink:type="simple"><rect fill="#FEFECE" filter="url(#f118vxx66rutpk)" height="139.2031" id="soen6441riskgame.enums.ConquestMapPart" style="stroke: #A80036; stroke-width: 1.5;" width="222" x="6" y="8"/><ellipse cx="49.8" cy="28.0938" fill="#EB937F" rx="11" ry="11" style="stroke: #A80036; stroke-width: 1.0;"/><path d="M48.6594,28.8906 L48.6594,31.3906 L52.9875,31.3906 L52.9875,30.4688 Q52.9875,29.8594 53.2297,29.5938 Q53.4719,29.3281 53.8469,29.3281 Q54.2219,29.3281 54.4563,29.5938 Q54.6906,29.8594 54.6906,30.4688 L54.6906,33.0938 L46.6906,33.0938 Q46.0656,33.0938 45.8078,32.8594 Q45.55,32.625 45.55,32.2344 Q45.55,31.8594 45.8156,31.625 Q46.0813,31.3906 46.6906,31.3906 L46.9563,31.3906 L46.9563,24.7344 L46.6906,24.7344 Q46.0656,24.7344 45.8078,24.5 Q45.55,24.2656 45.55,23.875 Q45.55,23.5 45.8078,23.2656 Q46.0656,23.0313 46.6906,23.0313 L54.3156,23.0313 L54.3156,25.625 Q54.3156,26.2344 54.0891,26.4922 Q53.8625,26.75 53.4719,26.75 Q53.0969,26.75 52.8625,26.4922 Q52.6281,26.2344 52.6281,25.625 L52.6281,24.7344 L48.6594,24.7344 L48.6594,27.1875 L50.1438,27.1875 Q50.1438,26.5313 50.2688,26.3438 Q50.5344,25.9375 51.0031,25.9375 Q51.3781,25.9375 51.6125,26.1953 Q51.8469,26.4531 51.8469,27.0625 L51.8469,29.0313 Q51.8469,29.5781 51.7219,29.7656 Q51.4563,30.1563 51.0031,30.1563 Q50.5344,30.1563 50.2688,29.75 Q50.1438,29.5625 50.1438,28.8906 L48.6594,28.8906 Z "/><text fill="#000000" font-family="sans-serif" font-size="14" font-weight="bold" lengthAdjust="spacingAndGlyphs" textLength="126" x="70.2" y="27.5332">ConquestMapPart</text><text fill="#000000" font-family="sans-serif" font-size="10" lengthAdjust="spacingAndGlyphs" textLength="121" x="72.7" y="40.9902">soen6441riskgame.enums</text><line style="stroke: #A80036; stroke-width: 1.5;" x1="7" x2="227" y1="48.1875" y2="48.1875"/><rect fill="none" height="6" style="stroke: #C82930; stroke-width: 1.0;" width="6" x="14" y="57.6055"/><text fill="#000000" font-family="sans-serif" font-size="11" lengthAdjust="spacingAndGlyphs" textLength="50" x="26" y="63.6064">String part</text><line style="stroke: #A80036; stroke-width: 1.5;" x1="7" x2="227" y1="70.0234" y2="70.0234"/><rect fill="#F24D5C" height="6" style="stroke: #C82930; stroke-width: 1.0;" width="6" x="14" y="79.4414"/><text fill="#000000" font-family="sans-serif" font-size="11" lengthAdjust="spacingAndGlyphs" textLength="143" x="26" y="85.4424">ConquestMapPart(String part)</text><ellipse cx="17" cy="96.2773" fill="#84BE84" rx="3" ry="3" style="stroke: #038048; stroke-width: 1.0;"/><text fill="#000000" font-family="sans-serif" font-size="11" lengthAdjust="spacingAndGlyphs" text-decoration="underline" textLength="128" x="26" y="99.2783">ConquestMapPart values()</text><line style="stroke: #000000; stroke-width: 1.0;" x1="26" x2="154" y1="101.2783" y2="101.2783"/><ellipse cx="17" cy="110.1133" fill="#84BE84" rx="3" ry="3" style="stroke: #038048; stroke-width: 1.0;"/><text fill="#000000" font-family="sans-serif" font-size="11" lengthAdjust="spacingAndGlyphs" text-decoration="underline" textLength="191" x="26" y="113.1143">ConquestMapPart valueOf(String name)</text><line style="stroke: #000000; stroke-width: 1.0;" x1="26" x2="217" y1="115.1143" y2="115.1143"/><ellipse cx="17" cy="123.9492" fill="#84BE84" rx="3" ry="3" style="stroke: #038048; stroke-width: 1.0;"/><text fill="#000000" font-family="sans-serif" font-size="11" lengthAdjust="spacingAndGlyphs" textLength="73" x="26" y="126.9502">String getPart()</text><ellipse cx="17" cy="137.7852" fill="#84BE84" rx="3" ry="3" style="stroke: #038048; stroke-width: 1.0;"/><text fill="#000000" font-family="sans-serif" font-size="11" lengthAdjust="spacingAndGlyphs" text-decoration="underline" textLength="196" x="26" y="140.7861">ConquestMapPart fromString(String part)</text><line style="stroke: #000000; stroke-width: 1.0;" x1="26" x2="222" y1="142.7861" y2="142.7861"/></a><!--
@startuml

skinparam svgLinkTarget _parent
skinparam linetype ortho
set namespaceSeparator none
enum "<b><size:14>ConquestMapPart</b>\n<size:10>soen6441riskgame.enums" as soen6441riskgame.enums.ConquestMapPart  [[../../soen6441riskgame/enums/ConquestMapPart.html{soen6441riskgame.enums.ConquestMapPart}]] {
-String part
-ConquestMapPart(String part)
{static} +ConquestMapPart values()
{static} +ConquestMapPart valueOf(String name)
+String getPart()
{static} +ConquestMapPart fromString(String part)
}



@enduml

PlantUML version 1.2017.15(Mon Jul 03 12:45:34 EDT 2017)
(GPL source distribution)
Java Runtime: Java(TM) SE Runtime Environment
JVM: Java HotSpot(TM) 64-Bit Server VM
Java Version: 1.8.0_231-b11
Operating System: Windows 10
OS Version: 10.0
Default Encoding: Cp1252
Language: en
Country: US
--></g></svg>