<?xml version="1.0" encoding="UTF-8" standalone="no"?><svg xmlns="http://www.w3.org/2000/svg" xmlns:xlink="http://www.w3.org/1999/xlink" contentScriptType="application/ecmascript" contentStyleType="text/css" height="158px" preserveAspectRatio="none" style="width:245px;height:158px;" version="1.1" viewBox="0 0 245 158" width="245px" zoomAndPan="magnify"><defs><filter height="300%" id="f161otwzfkyd8k" width="300%" x="-1" y="-1"><feGaussianBlur result="blurOut" stdDeviation="2.0"/><feColorMatrix in="blurOut" result="blurOut2" type="matrix" values="0 0 0 0 0 0 0 0 0 0 0 0 0 0 0 0 0 0 .4 0"/><feOffset dx="4.0" dy="4.0" in="blurOut2" result="blurOut3"/><feBlend in="SourceGraphic" in2="blurOut3" mode="normal"/></filter></defs><g><!--class soen6441riskgame.enums.DominationMapPart--><a target="_parent" xlink:actuate="onRequest" xlink:href="../../soen6441riskgame/enums/DominationMapPart.html" xlink:show="new" xlink:title="soen6441riskgame.enums.DominationMapPart" xlink:type="simple"><rect fill="#FEFECE" filter="url(#f161otwzfkyd8k)" height="139.2031" id="soen6441riskgame.enums.DominationMapPart" style="stroke: #A80036; stroke-width: 1.5;" width="228" x="6" y="8"/><ellipse cx="47.55" cy="28.0938" fill="#EB937F" rx="11" ry="11" style="stroke: #A80036; stroke-width: 1.0;"/><path d="M46.4094,28.8906 L46.4094,31.3906 L50.7375,31.3906 L50.7375,30.4688 Q50.7375,29.8594 50.9797,29.5938 Q51.2219,29.3281 51.5969,29.3281 Q51.9719,29.3281 52.2063,29.5938 Q52.4406,29.8594 52.4406,30.4688 L52.4406,33.0938 L44.4406,33.0938 Q43.8156,33.0938 43.5578,32.8594 Q43.3,32.625 43.3,32.2344 Q43.3,31.8594 43.5656,31.625 Q43.8313,31.3906 44.4406,31.3906 L44.7063,31.3906 L44.7063,24.7344 L44.4406,24.7344 Q43.8156,24.7344 43.5578,24.5 Q43.3,24.2656 43.3,23.875 Q43.3,23.5 43.5578,23.2656 Q43.8156,23.0313 44.4406,23.0313 L52.0656,23.0313 L52.0656,25.625 Q52.0656,26.2344 51.8391,26.4922 Q51.6125,26.75 51.2219,26.75 Q50.8469,26.75 50.6125,26.4922 Q50.3781,26.2344 50.3781,25.625 L50.3781,24.7344 L46.4094,24.7344 L46.4094,27.1875 L47.8938,27.1875 Q47.8938,26.5313 48.0188,26.3438 Q48.2844,25.9375 48.7531,25.9375 Q49.1281,25.9375 49.3625,26.1953 Q49.5969,26.4531 49.5969,27.0625 L49.5969,29.0313 Q49.5969,29.5781 49.4719,29.7656 Q49.2063,30.1563 48.7531,30.1563 Q48.2844,30.1563 48.0188,29.75 Q47.8938,29.5625 47.8938,28.8906 L46.4094,28.8906 Z "/><text fill="#000000" font-family="sans-serif" font-size="14" font-weight="bold" lengthAdjust="spacingAndGlyphs" textLength="137" x="67.45" y="27.5332">DominationMapPart</text><text fill="#000000" font-family="sans-serif" font-size="10" lengthAdjust="spacingAndGlyphs" textLength="121" x="75.45" y="40.9902">soen6441riskgame.enums</text><line style="stroke: #A80036; stroke-width: 1.5;" x1="7" x2="233" y1="48.1875" y2="48.1875"/><rect fill="none" height="6" style="stroke: #C82930; stroke-width: 1.0;" width="6" x="14" y="57.6055"/><text fill="#000000" font-family="sans-serif" font-size="11" lengthAdjust="spacingAndGlyphs" textLength="50" x="26" y="63.6064">String part</text><line style="stroke: #A80036; stroke-width: 1.5;" x1="7" x2="233" y1="70.0234" y2="70.0234"/><rect fill="#F24D5C" height="6" style="stroke: #C82930; stroke-width: 1.0;" width="6" x="14" y="79.4414"/><text fill="#000000" font-family="sans-serif" font-size="11" lengthAdjust="spacingAndGlyphs" textLength="149" x="26" y="85.4424">DominationMapPart(String part)</text><ellipse cx="17" cy="96.2773" fill="#84BE84" rx="3" ry="3" style="stroke: #038048; stroke-width: 1.0;"/><text fill="#000000" font-family="sans-serif" font-size="11" lengthAdjust="spacingAndGlyphs" text-decoration="underline" textLength="134" x="26" y="99.2783">DominationMapPart values()</text><line style="stroke: #000000; stroke-width: 1.0;" x1="26" x2="160" y1="101.2783" y2="101.2783"/><ellipse cx="17" cy="110.1133" fill="#84BE84" rx="3" ry="3" style="stroke: #038048; stroke-width: 1.0;"/><text fill="#000000" font-family="sans-serif" font-size="11" lengthAdjust="spacingAndGlyphs" text-decoration="underline" textLength="197" x="26" y="113.1143">DominationMapPart valueOf(String name)</text><line style="stroke: #000000; stroke-width: 1.0;" x1="26" x2="223" y1="115.1143" y2="115.1143"/><ellipse cx="17" cy="123.9492" fill="#84BE84" rx="3" ry="3" style="stroke: #038048; stroke-width: 1.0;"/><text fill="#000000" font-family="sans-serif" font-size="11" lengthAdjust="spacingAndGlyphs" textLength="73" x="26" y="126.9502">String getPart()</text><ellipse cx="17" cy="137.7852" fill="#84BE84" rx="3" ry="3" style="stroke: #038048; stroke-width: 1.0;"/><text fill="#000000" font-family="sans-serif" font-size="11" lengthAdjust="spacingAndGlyphs" text-decoration="underline" textLength="202" x="26" y="140.7861">DominationMapPart fromString(String part)</text><line style="stroke: #000000; stroke-width: 1.0;" x1="26" x2="228" y1="142.7861" y2="142.7861"/></a><!--
@startuml

skinparam svgLinkTarget _parent
skinparam linetype ortho
set namespaceSeparator none
enum "<b><size:14>DominationMapPart</b>\n<size:10>soen6441riskgame.enums" as soen6441riskgame.enums.DominationMapPart  [[../../soen6441riskgame/enums/DominationMapPart.html{soen6441riskgame.enums.DominationMapPart}]] {
-String part
-DominationMapPart(String part)
{static} +DominationMapPart values()
{static} +DominationMapPart valueOf(String name)
+String getPart()
{static} +DominationMapPart fromString(String part)
}



@enduml

PlantUML version 1.2017.15(Mon Jul 03 12:45:34 EDT 2017)
(GPL source distribution)
Java Runtime: Java(TM) SE Runtime Environment
JVM: Java HotSpot(TM) 64-Bit Server VM
Java Version: 1.8.0_231-b11
Operating System: Windows 10
OS Version: 10.0
Default Encoding: Cp1252
Language: en
Country: US
--></g></svg>