<?xml version="1.0" encoding="UTF-8" standalone="no"?><svg xmlns="http://www.w3.org/2000/svg" xmlns:xlink="http://www.w3.org/1999/xlink" contentScriptType="application/ecmascript" contentStyleType="text/css" height="244px" preserveAspectRatio="none" style="width:207px;height:244px;" version="1.1" viewBox="0 0 207 244" width="207px" zoomAndPan="magnify"><defs><filter height="300%" id="f14pitn3ukj1vv" width="300%" x="-1" y="-1"><feGaussianBlur result="blurOut" stdDeviation="2.0"/><feColorMatrix in="blurOut" result="blurOut2" type="matrix" values="0 0 0 0 0 0 0 0 0 0 0 0 0 0 0 0 0 0 .4 0"/><feOffset dx="4.0" dy="4.0" in="blurOut2" result="blurOut3"/><feBlend in="SourceGraphic" in2="blurOut3" mode="normal"/></filter></defs><g><!--class soen6441riskgame.enums.GamePhase--><a target="_parent" xlink:actuate="onRequest" xlink:href="../../soen6441riskgame/enums/GamePhase.html" xlink:show="new" xlink:title="soen6441riskgame.enums.GamePhase" xlink:type="simple"><rect fill="#FEFECE" filter="url(#f14pitn3ukj1vv)" height="125.3672" id="soen6441riskgame.enums.GamePhase" style="stroke: #A80036; stroke-width: 1.5;" width="190" x="6" y="108"/><ellipse cx="37.65" cy="128.0938" fill="#EB937F" rx="11" ry="11" style="stroke: #A80036; stroke-width: 1.0;"/><path d="M36.5094,128.8906 L36.5094,131.3906 L40.8375,131.3906 L40.8375,130.4688 Q40.8375,129.8594 41.0797,129.5938 Q41.3219,129.3281 41.6969,129.3281 Q42.0719,129.3281 42.3063,129.5938 Q42.5406,129.8594 42.5406,130.4688 L42.5406,133.0938 L34.5406,133.0938 Q33.9156,133.0938 33.6578,132.8594 Q33.4,132.625 33.4,132.2344 Q33.4,131.8594 33.6656,131.625 Q33.9313,131.3906 34.5406,131.3906 L34.8063,131.3906 L34.8063,124.7344 L34.5406,124.7344 Q33.9156,124.7344 33.6578,124.5 Q33.4,124.2656 33.4,123.875 Q33.4,123.5 33.6578,123.2656 Q33.9156,123.0313 34.5406,123.0313 L42.1656,123.0313 L42.1656,125.625 Q42.1656,126.2344 41.9391,126.4922 Q41.7125,126.75 41.3219,126.75 Q40.9469,126.75 40.7125,126.4922 Q40.4781,126.2344 40.4781,125.625 L40.4781,124.7344 L36.5094,124.7344 L36.5094,127.1875 L37.9938,127.1875 Q37.9938,126.5313 38.1188,126.3438 Q38.3844,125.9375 38.8531,125.9375 Q39.2281,125.9375 39.4625,126.1953 Q39.6969,126.4531 39.6969,127.0625 L39.6969,129.0313 Q39.6969,129.5781 39.5719,129.7656 Q39.3063,130.1563 38.8531,130.1563 Q38.3844,130.1563 38.1188,129.75 Q37.9938,129.5625 37.9938,128.8906 L36.5094,128.8906 Z "/><text fill="#000000" font-family="sans-serif" font-size="14" font-weight="bold" lengthAdjust="spacingAndGlyphs" textLength="83" x="74.35" y="127.5332">GamePhase</text><text fill="#000000" font-family="sans-serif" font-size="10" lengthAdjust="spacingAndGlyphs" textLength="121" x="55.35" y="140.9902">soen6441riskgame.enums</text><line style="stroke: #A80036; stroke-width: 1.5;" x1="7" x2="195" y1="148.1875" y2="148.1875"/><rect fill="none" height="6" style="stroke: #C82930; stroke-width: 1.0;" width="6" x="14" y="157.6055"/><text fill="#000000" font-family="sans-serif" font-size="11" lengthAdjust="spacingAndGlyphs" textLength="44" x="26" y="163.6064">int phase</text><line style="stroke: #A80036; stroke-width: 1.5;" x1="7" x2="195" y1="170.0234" y2="170.0234"/><rect fill="#F24D5C" height="6" style="stroke: #C82930; stroke-width: 1.0;" width="6" x="14" y="179.4414"/><text fill="#000000" font-family="sans-serif" font-size="11" lengthAdjust="spacingAndGlyphs" textLength="110" x="26" y="185.4424">GamePhase(int phase)</text><ellipse cx="17" cy="196.2773" fill="#84BE84" rx="3" ry="3" style="stroke: #038048; stroke-width: 1.0;"/><text fill="#000000" font-family="sans-serif" font-size="11" lengthAdjust="spacingAndGlyphs" text-decoration="underline" textLength="101" x="26" y="199.2783">GamePhase values()</text><line style="stroke: #000000; stroke-width: 1.0;" x1="26" x2="127" y1="201.2783" y2="201.2783"/><ellipse cx="17" cy="210.1133" fill="#84BE84" rx="3" ry="3" style="stroke: #038048; stroke-width: 1.0;"/><text fill="#000000" font-family="sans-serif" font-size="11" lengthAdjust="spacingAndGlyphs" text-decoration="underline" textLength="164" x="26" y="213.1143">GamePhase valueOf(String name)</text><line style="stroke: #000000; stroke-width: 1.0;" x1="26" x2="190" y1="215.1143" y2="215.1143"/><ellipse cx="17" cy="223.9492" fill="#84BE84" rx="3" ry="3" style="stroke: #038048; stroke-width: 1.0;"/><text fill="#000000" font-family="sans-serif" font-size="11" lengthAdjust="spacingAndGlyphs" textLength="120" x="26" y="226.9502">int getGamePhaseAsInt()</text></a><!--class soen6441riskgame.models.Player--><a target="_parent" xlink:actuate="onRequest" xlink:href="../../soen6441riskgame/models/Player.html" xlink:show="new" xlink:title="soen6441riskgame.models.Player" xlink:type="simple"><rect fill="#FFFFFF" filter="url(#f14pitn3ukj1vv)" height="40.1875" id="soen6441riskgame.models.Player" style="stroke: #A80036; stroke-width: 1.5;" width="156" x="23" y="8"/><rect fill="#FFFFFF" height="40.1875" style="stroke: #A80036; stroke-width: 1.5;" width="156" x="23" y="8"/><ellipse cx="38" cy="28.0938" fill="#ADD1B2" rx="11" ry="11" style="stroke: #A80036; stroke-width: 1.0;"/><path d="M40.7656,23.9688 Q40.9219,23.75 41.1094,23.6406 Q41.2969,23.5313 41.5156,23.5313 Q41.8906,23.5313 42.125,23.7891 Q42.3594,24.0469 42.3594,24.6563 L42.3594,26.1094 Q42.3594,26.7188 42.125,26.9844 Q41.8906,27.25 41.5156,27.25 Q41.1719,27.25 40.9688,27.0469 Q40.7656,26.8594 40.6563,26.3438 Q40.6094,25.9844 40.4219,25.7969 Q40.0938,25.4219 39.4844,25.2031 Q38.875,24.9844 38.25,24.9844 Q37.4844,24.9844 36.8516,25.3125 Q36.2188,25.6406 35.7266,26.3906 Q35.2344,27.1406 35.2344,28.1719 L35.2344,29.2656 Q35.2344,30.5 36.125,31.3203 Q37.0156,32.1406 38.6094,32.1406 Q39.5469,32.1406 40.2031,31.8906 Q40.5938,31.7344 41.0156,31.2969 Q41.2813,31.0313 41.4297,30.9531 Q41.5781,30.875 41.7813,30.875 Q42.1094,30.875 42.3672,31.1328 Q42.625,31.3906 42.625,31.7344 Q42.625,32.0781 42.2813,32.4844 Q41.7813,33.0625 40.9844,33.3906 Q39.9063,33.8438 38.6094,33.8438 Q37.0938,33.8438 35.8906,33.2188 Q34.9063,32.7188 34.2188,31.6484 Q33.5313,30.5781 33.5313,29.2969 L33.5313,28.1406 Q33.5313,26.8125 34.1484,25.6641 Q34.7656,24.5156 35.8594,23.8984 Q36.9531,23.2813 38.1875,23.2813 Q38.9219,23.2813 39.5703,23.4453 Q40.2188,23.6094 40.7656,23.9688 Z "/><text fill="#000000" font-family="sans-serif" font-size="14" font-weight="bold" lengthAdjust="spacingAndGlyphs" textLength="43" x="92.5" y="27.5332">Player</text><text fill="#000000" font-family="sans-serif" font-size="10" lengthAdjust="spacingAndGlyphs" textLength="124" x="52" y="40.9902">soen6441riskgame.models</text></a><!--link soen6441riskgame.models.Player to soen6441riskgame.enums.GamePhase--><path d="M101,48.115 C101,48.115 101,102.91 101,102.91 " fill="none" id="soen6441riskgame.models.Player-soen6441riskgame.enums.GamePhase" style="stroke: #A80036; stroke-width: 1.0;"/><polygon fill="#A80036" points="101,107.91,105,98.91,101,102.91,97,98.91,101,107.91" style="stroke: #A80036; stroke-width: 1.0;"/><text fill="#000000" font-family="sans-serif" font-size="13" lengthAdjust="spacingAndGlyphs" textLength="77" x="19.5484" y="97.2422">currentPhase</text><!--
@startuml

skinparam svgLinkTarget _parent
skinparam linetype ortho
set namespaceSeparator none
enum "<b><size:14>GamePhase</b>\n<size:10>soen6441riskgame.enums" as soen6441riskgame.enums.GamePhase  [[../../soen6441riskgame/enums/GamePhase.html{soen6441riskgame.enums.GamePhase}]] {
-int phase
-GamePhase(int phase)
{static} +GamePhase values()
{static} +GamePhase valueOf(String name)
+int getGamePhaseAsInt()
}


class "<b><size:14>Player</b>\n<size:10>soen6441riskgame.models" as soen6441riskgame.models.Player  [[../../soen6441riskgame/models/Player.html{soen6441riskgame.models.Player}]] #white {
}

hide soen6441riskgame.models.Player fields
hide soen6441riskgame.models.Player methods

soen6441riskgame.models.Player - ->  "currentPhase" soen6441riskgame.enums.GamePhase


@enduml

PlantUML version 1.2017.15(Mon Jul 03 12:45:34 EDT 2017)
(GPL source distribution)
Java Runtime: Java(TM) SE Runtime Environment
JVM: Java HotSpot(TM) 64-Bit Server VM
Java Version: 1.8.0_231-b11
Operating System: Windows 10
OS Version: 10.0
Default Encoding: Cp1252
Language: en
Country: US
--></g></svg>