<?xml version="1.0" encoding="UTF-8" standalone="no"?><svg xmlns="http://www.w3.org/2000/svg" xmlns:xlink="http://www.w3.org/1999/xlink" contentScriptType="application/ecmascript" contentStyleType="text/css" height="158px" preserveAspectRatio="none" style="width:193px;height:158px;" version="1.1" viewBox="0 0 193 158" width="193px" zoomAndPan="magnify"><defs><filter height="300%" id="fj0i23c9xcvc" width="300%" x="-1" y="-1"><feGaussianBlur result="blurOut" stdDeviation="2.0"/><feColorMatrix in="blurOut" result="blurOut2" type="matrix" values="0 0 0 0 0 0 0 0 0 0 0 0 0 0 0 0 0 0 .4 0"/><feOffset dx="4.0" dy="4.0" in="blurOut2" result="blurOut3"/><feBlend in="SourceGraphic" in2="blurOut3" mode="normal"/></filter></defs><g><!--class soen6441riskgame.enums.MapPart--><a target="_parent" xlink:actuate="onRequest" xlink:href="../../soen6441riskgame/enums/MapPart.html" xlink:show="new" xlink:title="soen6441riskgame.enums.MapPart" xlink:type="simple"><rect fill="#FEFECE" filter="url(#fj0i23c9xcvc)" height="139.2031" id="soen6441riskgame.enums.MapPart" style="stroke: #A80036; stroke-width: 1.5;" width="176" x="6" y="8"/><ellipse cx="31.35" cy="28.0938" fill="#EB937F" rx="11" ry="11" style="stroke: #A80036; stroke-width: 1.0;"/><path d="M30.2094,28.8906 L30.2094,31.3906 L34.5375,31.3906 L34.5375,30.4688 Q34.5375,29.8594 34.7797,29.5938 Q35.0219,29.3281 35.3969,29.3281 Q35.7719,29.3281 36.0063,29.5938 Q36.2406,29.8594 36.2406,30.4688 L36.2406,33.0938 L28.2406,33.0938 Q27.6156,33.0938 27.3578,32.8594 Q27.1,32.625 27.1,32.2344 Q27.1,31.8594 27.3656,31.625 Q27.6313,31.3906 28.2406,31.3906 L28.5063,31.3906 L28.5063,24.7344 L28.2406,24.7344 Q27.6156,24.7344 27.3578,24.5 Q27.1,24.2656 27.1,23.875 Q27.1,23.5 27.3578,23.2656 Q27.6156,23.0313 28.2406,23.0313 L35.8656,23.0313 L35.8656,25.625 Q35.8656,26.2344 35.6391,26.4922 Q35.4125,26.75 35.0219,26.75 Q34.6469,26.75 34.4125,26.4922 Q34.1781,26.2344 34.1781,25.625 L34.1781,24.7344 L30.2094,24.7344 L30.2094,27.1875 L31.6938,27.1875 Q31.6938,26.5313 31.8188,26.3438 Q32.0844,25.9375 32.5531,25.9375 Q32.9281,25.9375 33.1625,26.1953 Q33.3969,26.4531 33.3969,27.0625 L33.3969,29.0313 Q33.3969,29.5781 33.2719,29.7656 Q33.0063,30.1563 32.5531,30.1563 Q32.0844,30.1563 31.8188,29.75 Q31.6938,29.5625 31.6938,28.8906 L30.2094,28.8906 Z "/><text fill="#000000" font-family="sans-serif" font-size="14" font-weight="bold" lengthAdjust="spacingAndGlyphs" textLength="58" x="79.15" y="27.5332">MapPart</text><text fill="#000000" font-family="sans-serif" font-size="10" lengthAdjust="spacingAndGlyphs" textLength="121" x="47.65" y="40.9902">soen6441riskgame.enums</text><line style="stroke: #A80036; stroke-width: 1.5;" x1="7" x2="181" y1="48.1875" y2="48.1875"/><rect fill="none" height="6" style="stroke: #C82930; stroke-width: 1.0;" width="6" x="14" y="57.6055"/><text fill="#000000" font-family="sans-serif" font-size="11" lengthAdjust="spacingAndGlyphs" textLength="50" x="26" y="63.6064">String part</text><line style="stroke: #A80036; stroke-width: 1.5;" x1="7" x2="181" y1="70.0234" y2="70.0234"/><rect fill="#F24D5C" height="6" style="stroke: #C82930; stroke-width: 1.0;" width="6" x="14" y="79.4414"/><text fill="#000000" font-family="sans-serif" font-size="11" lengthAdjust="spacingAndGlyphs" textLength="97" x="26" y="85.4424">MapPart(String part)</text><ellipse cx="17" cy="96.2773" fill="#84BE84" rx="3" ry="3" style="stroke: #038048; stroke-width: 1.0;"/><text fill="#000000" font-family="sans-serif" font-size="11" lengthAdjust="spacingAndGlyphs" text-decoration="underline" textLength="82" x="26" y="99.2783">MapPart values()</text><line style="stroke: #000000; stroke-width: 1.0;" x1="26" x2="108" y1="101.2783" y2="101.2783"/><ellipse cx="17" cy="110.1133" fill="#84BE84" rx="3" ry="3" style="stroke: #038048; stroke-width: 1.0;"/><text fill="#000000" font-family="sans-serif" font-size="11" lengthAdjust="spacingAndGlyphs" text-decoration="underline" textLength="145" x="26" y="113.1143">MapPart valueOf(String name)</text><line style="stroke: #000000; stroke-width: 1.0;" x1="26" x2="171" y1="115.1143" y2="115.1143"/><ellipse cx="17" cy="123.9492" fill="#84BE84" rx="3" ry="3" style="stroke: #038048; stroke-width: 1.0;"/><text fill="#000000" font-family="sans-serif" font-size="11" lengthAdjust="spacingAndGlyphs" textLength="73" x="26" y="126.9502">String getPart()</text><ellipse cx="17" cy="137.7852" fill="#84BE84" rx="3" ry="3" style="stroke: #038048; stroke-width: 1.0;"/><text fill="#000000" font-family="sans-serif" font-size="11" lengthAdjust="spacingAndGlyphs" text-decoration="underline" textLength="150" x="26" y="140.7861">MapPart fromString(String part)</text><line style="stroke: #000000; stroke-width: 1.0;" x1="26" x2="176" y1="142.7861" y2="142.7861"/></a><!--
@startuml

skinparam svgLinkTarget _parent
skinparam linetype ortho
set namespaceSeparator none
enum "<b><size:14>MapPart</b>\n<size:10>soen6441riskgame.enums" as soen6441riskgame.enums.MapPart  [[../../soen6441riskgame/enums/MapPart.html{soen6441riskgame.enums.MapPart}]] {
-String part
-MapPart(String part)
{static} +MapPart values()
{static} +MapPart valueOf(String name)
+String getPart()
{static} +MapPart fromString(String part)
}



@enduml

PlantUML version 1.2017.15(Mon Jul 03 12:45:34 EDT 2017)
(GPL source distribution)
Java Runtime: Java(TM) SE Runtime Environment
JVM: Java HotSpot(TM) 64-Bit Server VM
Java Version: 1.8.0_231-b11
Operating System: Windows 10
OS Version: 10.0
Default Encoding: Cp1252
Language: en
Country: US
--></g></svg>