<?xml version="1.0" encoding="UTF-8" standalone="no"?><svg xmlns="http://www.w3.org/2000/svg" xmlns:xlink="http://www.w3.org/1999/xlink" contentScriptType="application/ecmascript" contentStyleType="text/css" height="304px" preserveAspectRatio="none" style="width:594px;height:304px;" version="1.1" viewBox="0 0 594 304" width="594px" zoomAndPan="magnify"><defs><filter height="300%" id="f1n6w6ys5g1n44" width="300%" x="-1" y="-1"><feGaussianBlur result="blurOut" stdDeviation="2.0"/><feColorMatrix in="blurOut" result="blurOut2" type="matrix" values="0 0 0 0 0 0 0 0 0 0 0 0 0 0 0 0 0 0 .4 0"/><feOffset dx="4.0" dy="4.0" in="blurOut2" result="blurOut3"/><feBlend in="SourceGraphic" in2="blurOut3" mode="normal"/></filter></defs><g><!--cluster soen6441riskgame.enums--><a target="_parent" xlink:actuate="onRequest" xlink:href="../../soen6441riskgame/enums/package-summary.html" xlink:show="new" xlink:title="soen6441riskgame.enums" xlink:type="simple"><polygon fill="#FFFFE0" filter="url(#f1n6w6ys5g1n44)" points="22,24,210,24,217,47.6094,572,47.6094,572,292,22,292,22,24" style="stroke: #000000; stroke-width: 2.0;"/><line style="stroke: #000000; stroke-width: 2.0;" x1="22" x2="217" y1="47.6094" y2="47.6094"/><text fill="#000000" font-family="sans-serif" font-size="14" font-weight="bold" lengthAdjust="spacingAndGlyphs" textLength="182" x="26" y="40.5332">soen6441riskgame.enums</text></a><!--class soen6441riskgame.enums.CardType--><a target="_parent" xlink:actuate="onRequest" xlink:href="../../soen6441riskgame/enums/CardType.html" xlink:show="new" xlink:title="soen6441riskgame.enums.CardType" xlink:type="simple"><rect fill="#FEFECE" filter="url(#f1n6w6ys5g1n44)" height="32" id="soen6441riskgame.enums.CardType" style="stroke: #A80036; stroke-width: 1.5;" width="98" x="38" y="60"/><ellipse cx="53" cy="76" fill="#EB937F" rx="11" ry="11" style="stroke: #A80036; stroke-width: 1.0;"/><path d="M51.8594,76.7969 L51.8594,79.2969 L56.1875,79.2969 L56.1875,78.375 Q56.1875,77.7656 56.4297,77.5 Q56.6719,77.2344 57.0469,77.2344 Q57.4219,77.2344 57.6563,77.5 Q57.8906,77.7656 57.8906,78.375 L57.8906,81 L49.8906,81 Q49.2656,81 49.0078,80.7656 Q48.75,80.5313 48.75,80.1406 Q48.75,79.7656 49.0156,79.5313 Q49.2813,79.2969 49.8906,79.2969 L50.1563,79.2969 L50.1563,72.6406 L49.8906,72.6406 Q49.2656,72.6406 49.0078,72.4063 Q48.75,72.1719 48.75,71.7813 Q48.75,71.4063 49.0078,71.1719 Q49.2656,70.9375 49.8906,70.9375 L57.5156,70.9375 L57.5156,73.5313 Q57.5156,74.1406 57.2891,74.3984 Q57.0625,74.6563 56.6719,74.6563 Q56.2969,74.6563 56.0625,74.3984 Q55.8281,74.1406 55.8281,73.5313 L55.8281,72.6406 L51.8594,72.6406 L51.8594,75.0938 L53.3438,75.0938 Q53.3438,74.4375 53.4688,74.25 Q53.7344,73.8438 54.2031,73.8438 Q54.5781,73.8438 54.8125,74.1016 Q55.0469,74.3594 55.0469,74.9688 L55.0469,76.9375 Q55.0469,77.4844 54.9219,77.6719 Q54.6563,78.0625 54.2031,78.0625 Q53.7344,78.0625 53.4688,77.6563 Q53.3438,77.4688 53.3438,76.7969 L51.8594,76.7969 Z "/><text fill="#000000" font-family="sans-serif" font-size="14" font-weight="bold" lengthAdjust="spacingAndGlyphs" textLength="66" x="67" y="81.7285">CardType</text></a><!--class soen6441riskgame.enums.ChangedProperty--><a target="_parent" xlink:actuate="onRequest" xlink:href="../../soen6441riskgame/enums/ChangedProperty.html" xlink:show="new" xlink:title="soen6441riskgame.enums.ChangedProperty" xlink:type="simple"><rect fill="#FEFECE" filter="url(#f1n6w6ys5g1n44)" height="32" id="soen6441riskgame.enums.ChangedProperty" style="stroke: #A80036; stroke-width: 1.5;" width="155" x="171.5" y="60"/><ellipse cx="186.5" cy="76" fill="#EB937F" rx="11" ry="11" style="stroke: #A80036; stroke-width: 1.0;"/><path d="M185.3594,76.7969 L185.3594,79.2969 L189.6875,79.2969 L189.6875,78.375 Q189.6875,77.7656 189.9297,77.5 Q190.1719,77.2344 190.5469,77.2344 Q190.9219,77.2344 191.1563,77.5 Q191.3906,77.7656 191.3906,78.375 L191.3906,81 L183.3906,81 Q182.7656,81 182.5078,80.7656 Q182.25,80.5313 182.25,80.1406 Q182.25,79.7656 182.5156,79.5313 Q182.7813,79.2969 183.3906,79.2969 L183.6563,79.2969 L183.6563,72.6406 L183.3906,72.6406 Q182.7656,72.6406 182.5078,72.4063 Q182.25,72.1719 182.25,71.7813 Q182.25,71.4063 182.5078,71.1719 Q182.7656,70.9375 183.3906,70.9375 L191.0156,70.9375 L191.0156,73.5313 Q191.0156,74.1406 190.7891,74.3984 Q190.5625,74.6563 190.1719,74.6563 Q189.7969,74.6563 189.5625,74.3984 Q189.3281,74.1406 189.3281,73.5313 L189.3281,72.6406 L185.3594,72.6406 L185.3594,75.0938 L186.8438,75.0938 Q186.8438,74.4375 186.9688,74.25 Q187.2344,73.8438 187.7031,73.8438 Q188.0781,73.8438 188.3125,74.1016 Q188.5469,74.3594 188.5469,74.9688 L188.5469,76.9375 Q188.5469,77.4844 188.4219,77.6719 Q188.1563,78.0625 187.7031,78.0625 Q187.2344,78.0625 186.9688,77.6563 Q186.8438,77.4688 186.8438,76.7969 L185.3594,76.7969 Z "/><text fill="#000000" font-family="sans-serif" font-size="14" font-weight="bold" lengthAdjust="spacingAndGlyphs" textLength="123" x="200.5" y="81.7285">ChangedProperty</text></a><!--class soen6441riskgame.enums.CommonCommandArgs--><a target="_parent" xlink:actuate="onRequest" xlink:href="../../soen6441riskgame/enums/CommonCommandArgs.html" xlink:show="new" xlink:title="soen6441riskgame.enums.CommonCommandArgs" xlink:type="simple"><rect fill="#FEFECE" filter="url(#f1n6w6ys5g1n44)" height="32" id="soen6441riskgame.enums.CommonCommandArgs" style="stroke: #A80036; stroke-width: 1.5;" width="194" x="362" y="60"/><ellipse cx="377" cy="76" fill="#EB937F" rx="11" ry="11" style="stroke: #A80036; stroke-width: 1.0;"/><path d="M375.8594,76.7969 L375.8594,79.2969 L380.1875,79.2969 L380.1875,78.375 Q380.1875,77.7656 380.4297,77.5 Q380.6719,77.2344 381.0469,77.2344 Q381.4219,77.2344 381.6563,77.5 Q381.8906,77.7656 381.8906,78.375 L381.8906,81 L373.8906,81 Q373.2656,81 373.0078,80.7656 Q372.75,80.5313 372.75,80.1406 Q372.75,79.7656 373.0156,79.5313 Q373.2813,79.2969 373.8906,79.2969 L374.1563,79.2969 L374.1563,72.6406 L373.8906,72.6406 Q373.2656,72.6406 373.0078,72.4063 Q372.75,72.1719 372.75,71.7813 Q372.75,71.4063 373.0078,71.1719 Q373.2656,70.9375 373.8906,70.9375 L381.5156,70.9375 L381.5156,73.5313 Q381.5156,74.1406 381.2891,74.3984 Q381.0625,74.6563 380.6719,74.6563 Q380.2969,74.6563 380.0625,74.3984 Q379.8281,74.1406 379.8281,73.5313 L379.8281,72.6406 L375.8594,72.6406 L375.8594,75.0938 L377.3438,75.0938 Q377.3438,74.4375 377.4688,74.25 Q377.7344,73.8438 378.2031,73.8438 Q378.5781,73.8438 378.8125,74.1016 Q379.0469,74.3594 379.0469,74.9688 L379.0469,76.9375 Q379.0469,77.4844 378.9219,77.6719 Q378.6563,78.0625 378.2031,78.0625 Q377.7344,78.0625 377.4688,77.6563 Q377.3438,77.4688 377.3438,76.7969 L375.8594,76.7969 Z "/><text fill="#000000" font-family="sans-serif" font-size="14" font-weight="bold" lengthAdjust="spacingAndGlyphs" textLength="162" x="391" y="81.7285">CommonCommandArgs</text></a><!--class soen6441riskgame.enums.ConquestMapPart--><a target="_parent" xlink:actuate="onRequest" xlink:href="../../soen6441riskgame/enums/ConquestMapPart.html" xlink:show="new" xlink:title="soen6441riskgame.enums.ConquestMapPart" xlink:type="simple"><rect fill="#FEFECE" filter="url(#f1n6w6ys5g1n44)" height="32" id="soen6441riskgame.enums.ConquestMapPart" style="stroke: #A80036; stroke-width: 1.5;" width="158" x="38" y="152"/><ellipse cx="53" cy="168" fill="#EB937F" rx="11" ry="11" style="stroke: #A80036; stroke-width: 1.0;"/><path d="M51.8594,168.7969 L51.8594,171.2969 L56.1875,171.2969 L56.1875,170.375 Q56.1875,169.7656 56.4297,169.5 Q56.6719,169.2344 57.0469,169.2344 Q57.4219,169.2344 57.6563,169.5 Q57.8906,169.7656 57.8906,170.375 L57.8906,173 L49.8906,173 Q49.2656,173 49.0078,172.7656 Q48.75,172.5313 48.75,172.1406 Q48.75,171.7656 49.0156,171.5313 Q49.2813,171.2969 49.8906,171.2969 L50.1563,171.2969 L50.1563,164.6406 L49.8906,164.6406 Q49.2656,164.6406 49.0078,164.4063 Q48.75,164.1719 48.75,163.7813 Q48.75,163.4063 49.0078,163.1719 Q49.2656,162.9375 49.8906,162.9375 L57.5156,162.9375 L57.5156,165.5313 Q57.5156,166.1406 57.2891,166.3984 Q57.0625,166.6563 56.6719,166.6563 Q56.2969,166.6563 56.0625,166.3984 Q55.8281,166.1406 55.8281,165.5313 L55.8281,164.6406 L51.8594,164.6406 L51.8594,167.0938 L53.3438,167.0938 Q53.3438,166.4375 53.4688,166.25 Q53.7344,165.8438 54.2031,165.8438 Q54.5781,165.8438 54.8125,166.1016 Q55.0469,166.3594 55.0469,166.9688 L55.0469,168.9375 Q55.0469,169.4844 54.9219,169.6719 Q54.6563,170.0625 54.2031,170.0625 Q53.7344,170.0625 53.4688,169.6563 Q53.3438,169.4688 53.3438,168.7969 L51.8594,168.7969 Z "/><text fill="#000000" font-family="sans-serif" font-size="14" font-weight="bold" lengthAdjust="spacingAndGlyphs" textLength="126" x="67" y="173.7285">ConquestMapPart</text></a><!--class soen6441riskgame.enums.DominationMapPart--><a target="_parent" xlink:actuate="onRequest" xlink:href="../../soen6441riskgame/enums/DominationMapPart.html" xlink:show="new" xlink:title="soen6441riskgame.enums.DominationMapPart" xlink:type="simple"><rect fill="#FEFECE" filter="url(#f1n6w6ys5g1n44)" height="32" id="soen6441riskgame.enums.DominationMapPart" style="stroke: #A80036; stroke-width: 1.5;" width="169" x="231.5" y="152"/><ellipse cx="246.5" cy="168" fill="#EB937F" rx="11" ry="11" style="stroke: #A80036; stroke-width: 1.0;"/><path d="M245.3594,168.7969 L245.3594,171.2969 L249.6875,171.2969 L249.6875,170.375 Q249.6875,169.7656 249.9297,169.5 Q250.1719,169.2344 250.5469,169.2344 Q250.9219,169.2344 251.1563,169.5 Q251.3906,169.7656 251.3906,170.375 L251.3906,173 L243.3906,173 Q242.7656,173 242.5078,172.7656 Q242.25,172.5313 242.25,172.1406 Q242.25,171.7656 242.5156,171.5313 Q242.7813,171.2969 243.3906,171.2969 L243.6563,171.2969 L243.6563,164.6406 L243.3906,164.6406 Q242.7656,164.6406 242.5078,164.4063 Q242.25,164.1719 242.25,163.7813 Q242.25,163.4063 242.5078,163.1719 Q242.7656,162.9375 243.3906,162.9375 L251.0156,162.9375 L251.0156,165.5313 Q251.0156,166.1406 250.7891,166.3984 Q250.5625,166.6563 250.1719,166.6563 Q249.7969,166.6563 249.5625,166.3984 Q249.3281,166.1406 249.3281,165.5313 L249.3281,164.6406 L245.3594,164.6406 L245.3594,167.0938 L246.8438,167.0938 Q246.8438,166.4375 246.9688,166.25 Q247.2344,165.8438 247.7031,165.8438 Q248.0781,165.8438 248.3125,166.1016 Q248.5469,166.3594 248.5469,166.9688 L248.5469,168.9375 Q248.5469,169.4844 248.4219,169.6719 Q248.1563,170.0625 247.7031,170.0625 Q247.2344,170.0625 246.9688,169.6563 Q246.8438,169.4688 246.8438,168.7969 L245.3594,168.7969 Z "/><text fill="#000000" font-family="sans-serif" font-size="14" font-weight="bold" lengthAdjust="spacingAndGlyphs" textLength="137" x="260.5" y="173.7285">DominationMapPart</text></a><!--class soen6441riskgame.enums.GamePhase--><a target="_parent" xlink:actuate="onRequest" xlink:href="../../soen6441riskgame/enums/GamePhase.html" xlink:show="new" xlink:title="soen6441riskgame.enums.GamePhase" xlink:type="simple"><rect fill="#FEFECE" filter="url(#f1n6w6ys5g1n44)" height="32" id="soen6441riskgame.enums.GamePhase" style="stroke: #A80036; stroke-width: 1.5;" width="115" x="435.5" y="152"/><ellipse cx="450.5" cy="168" fill="#EB937F" rx="11" ry="11" style="stroke: #A80036; stroke-width: 1.0;"/><path d="M449.3594,168.7969 L449.3594,171.2969 L453.6875,171.2969 L453.6875,170.375 Q453.6875,169.7656 453.9297,169.5 Q454.1719,169.2344 454.5469,169.2344 Q454.9219,169.2344 455.1563,169.5 Q455.3906,169.7656 455.3906,170.375 L455.3906,173 L447.3906,173 Q446.7656,173 446.5078,172.7656 Q446.25,172.5313 446.25,172.1406 Q446.25,171.7656 446.5156,171.5313 Q446.7813,171.2969 447.3906,171.2969 L447.6563,171.2969 L447.6563,164.6406 L447.3906,164.6406 Q446.7656,164.6406 446.5078,164.4063 Q446.25,164.1719 446.25,163.7813 Q446.25,163.4063 446.5078,163.1719 Q446.7656,162.9375 447.3906,162.9375 L455.0156,162.9375 L455.0156,165.5313 Q455.0156,166.1406 454.7891,166.3984 Q454.5625,166.6563 454.1719,166.6563 Q453.7969,166.6563 453.5625,166.3984 Q453.3281,166.1406 453.3281,165.5313 L453.3281,164.6406 L449.3594,164.6406 L449.3594,167.0938 L450.8438,167.0938 Q450.8438,166.4375 450.9688,166.25 Q451.2344,165.8438 451.7031,165.8438 Q452.0781,165.8438 452.3125,166.1016 Q452.5469,166.3594 452.5469,166.9688 L452.5469,168.9375 Q452.5469,169.4844 452.4219,169.6719 Q452.1563,170.0625 451.7031,170.0625 Q451.2344,170.0625 450.9688,169.6563 Q450.8438,169.4688 450.8438,168.7969 L449.3594,168.7969 Z "/><text fill="#000000" font-family="sans-serif" font-size="14" font-weight="bold" lengthAdjust="spacingAndGlyphs" textLength="83" x="464.5" y="173.7285">GamePhase</text></a><!--class soen6441riskgame.enums.StrategyName--><a target="_parent" xlink:actuate="onRequest" xlink:href="../../soen6441riskgame/enums/StrategyName.html" xlink:show="new" xlink:title="soen6441riskgame.enums.StrategyName" xlink:type="simple"><rect fill="#FEFECE" filter="url(#f1n6w6ys5g1n44)" height="32" id="soen6441riskgame.enums.StrategyName" style="stroke: #A80036; stroke-width: 1.5;" width="129" x="52.5" y="244"/><ellipse cx="67.5" cy="260" fill="#EB937F" rx="11" ry="11" style="stroke: #A80036; stroke-width: 1.0;"/><path d="M66.3594,260.7969 L66.3594,263.2969 L70.6875,263.2969 L70.6875,262.375 Q70.6875,261.7656 70.9297,261.5 Q71.1719,261.2344 71.5469,261.2344 Q71.9219,261.2344 72.1563,261.5 Q72.3906,261.7656 72.3906,262.375 L72.3906,265 L64.3906,265 Q63.7656,265 63.5078,264.7656 Q63.25,264.5313 63.25,264.1406 Q63.25,263.7656 63.5156,263.5313 Q63.7813,263.2969 64.3906,263.2969 L64.6563,263.2969 L64.6563,256.6406 L64.3906,256.6406 Q63.7656,256.6406 63.5078,256.4063 Q63.25,256.1719 63.25,255.7813 Q63.25,255.4063 63.5078,255.1719 Q63.7656,254.9375 64.3906,254.9375 L72.0156,254.9375 L72.0156,257.5313 Q72.0156,258.1406 71.7891,258.3984 Q71.5625,258.6563 71.1719,258.6563 Q70.7969,258.6563 70.5625,258.3984 Q70.3281,258.1406 70.3281,257.5313 L70.3281,256.6406 L66.3594,256.6406 L66.3594,259.0938 L67.8438,259.0938 Q67.8438,258.4375 67.9688,258.25 Q68.2344,257.8438 68.7031,257.8438 Q69.0781,257.8438 69.3125,258.1016 Q69.5469,258.3594 69.5469,258.9688 L69.5469,260.9375 Q69.5469,261.4844 69.4219,261.6719 Q69.1563,262.0625 68.7031,262.0625 Q68.2344,262.0625 67.9688,261.6563 Q67.8438,261.4688 67.8438,260.7969 L66.3594,260.7969 Z "/><text fill="#000000" font-family="sans-serif" font-size="14" font-weight="bold" lengthAdjust="spacingAndGlyphs" textLength="97" x="81.5" y="265.7285">StrategyName</text></a><!--link soen6441riskgame.enums.CardType to soen6441riskgame.enums.ChangedProperty--><!--link soen6441riskgame.enums.ChangedProperty to soen6441riskgame.enums.CommonCommandArgs--><!--link soen6441riskgame.enums.CardType to soen6441riskgame.enums.ConquestMapPart--><!--link soen6441riskgame.enums.ConquestMapPart to soen6441riskgame.enums.DominationMapPart--><!--link soen6441riskgame.enums.DominationMapPart to soen6441riskgame.enums.GamePhase--><!--link soen6441riskgame.enums.ConquestMapPart to soen6441riskgame.enums.StrategyName--><!--
@startuml

skinparam svgLinkTarget _parent
skinparam linetype ortho
package soen6441riskgame.enums [[../../soen6441riskgame/enums/package-summary.html{soen6441riskgame.enums}]] #lightyellow {
}

enum "<b><size:14>CardType</b>" as soen6441riskgame.enums.CardType  [[../../soen6441riskgame/enums/CardType.html{soen6441riskgame.enums.CardType}]] {
}

hide soen6441riskgame.enums.CardType fields
hide soen6441riskgame.enums.CardType methods

enum "<b><size:14>ChangedProperty</b>" as soen6441riskgame.enums.ChangedProperty  [[../../soen6441riskgame/enums/ChangedProperty.html{soen6441riskgame.enums.ChangedProperty}]] {
}

hide soen6441riskgame.enums.ChangedProperty fields
hide soen6441riskgame.enums.ChangedProperty methods

enum "<b><size:14>CommonCommandArgs</b>" as soen6441riskgame.enums.CommonCommandArgs  [[../../soen6441riskgame/enums/CommonCommandArgs.html{soen6441riskgame.enums.CommonCommandArgs}]] {
}

hide soen6441riskgame.enums.CommonCommandArgs fields
hide soen6441riskgame.enums.CommonCommandArgs methods

enum "<b><size:14>ConquestMapPart</b>" as soen6441riskgame.enums.ConquestMapPart  [[../../soen6441riskgame/enums/ConquestMapPart.html{soen6441riskgame.enums.ConquestMapPart}]] {
}

hide soen6441riskgame.enums.ConquestMapPart fields
hide soen6441riskgame.enums.ConquestMapPart methods

enum "<b><size:14>DominationMapPart</b>" as soen6441riskgame.enums.DominationMapPart  [[../../soen6441riskgame/enums/DominationMapPart.html{soen6441riskgame.enums.DominationMapPart}]] {
}

hide soen6441riskgame.enums.DominationMapPart fields
hide soen6441riskgame.enums.DominationMapPart methods

enum "<b><size:14>GamePhase</b>" as soen6441riskgame.enums.GamePhase  [[../../soen6441riskgame/enums/GamePhase.html{soen6441riskgame.enums.GamePhase}]] {
}

hide soen6441riskgame.enums.GamePhase fields
hide soen6441riskgame.enums.GamePhase methods

enum "<b><size:14>StrategyName</b>" as soen6441riskgame.enums.StrategyName  [[../../soen6441riskgame/enums/StrategyName.html{soen6441riskgame.enums.StrategyName}]] {
}

hide soen6441riskgame.enums.StrategyName fields
hide soen6441riskgame.enums.StrategyName methods


@enduml

PlantUML version 1.2017.15(Mon Jul 03 12:45:34 EDT 2017)
(GPL source distribution)
Java Runtime: Java(TM) SE Runtime Environment
JVM: Java HotSpot(TM) 64-Bit Server VM
Java Version: 1.8.0_231-b11
Operating System: Windows 10
OS Version: 10.0
Default Encoding: Cp1252
Language: en
Country: US
--></g></svg>