<?xml version="1.0" encoding="UTF-8" standalone="no"?><svg xmlns="http://www.w3.org/2000/svg" xmlns:xlink="http://www.w3.org/1999/xlink" contentScriptType="application/ecmascript" contentStyleType="text/css" height="212px" preserveAspectRatio="none" style="width:594px;height:212px;" version="1.1" viewBox="0 0 594 212" width="594px" zoomAndPan="magnify"><defs><filter height="300%" id="fnmiu2h8tmcx0" width="300%" x="-1" y="-1"><feGaussianBlur result="blurOut" stdDeviation="2.0"/><feColorMatrix in="blurOut" result="blurOut2" type="matrix" values="0 0 0 0 0 0 0 0 0 0 0 0 0 0 0 0 0 0 .4 0"/><feOffset dx="4.0" dy="4.0" in="blurOut2" result="blurOut3"/><feBlend in="SourceGraphic" in2="blurOut3" mode="normal"/></filter></defs><g><!--cluster soen6441riskgame.enums--><a target="_parent" xlink:actuate="onRequest" xlink:href="../../soen6441riskgame/enums/package-summary.html" xlink:show="new" xlink:title="soen6441riskgame.enums" xlink:type="simple"><polygon fill="#FFFFE0" filter="url(#fnmiu2h8tmcx0)" points="22,24,210,24,217,47.6094,572,47.6094,572,200,22,200,22,24" style="stroke: #000000; stroke-width: 2.0;"/><line style="stroke: #000000; stroke-width: 2.0;" x1="22" x2="217" y1="47.6094" y2="47.6094"/><text fill="#000000" font-family="sans-serif" font-size="14" font-weight="bold" lengthAdjust="spacingAndGlyphs" textLength="182" x="26" y="40.5332">soen6441riskgame.enums</text></a><!--class soen6441riskgame.enums.CardType--><a target="_parent" xlink:actuate="onRequest" xlink:href="../../soen6441riskgame/enums/CardType.html" xlink:show="new" xlink:title="soen6441riskgame.enums.CardType" xlink:type="simple"><rect fill="#FEFECE" filter="url(#fnmiu2h8tmcx0)" height="32" id="soen6441riskgame.enums.CardType" style="stroke: #A80036; stroke-width: 1.5;" width="98" x="38" y="60"/><ellipse cx="53" cy="76" fill="#EB937F" rx="11" ry="11" style="stroke: #A80036; stroke-width: 1.0;"/><path d="M51.8594,76.7969 L51.8594,79.2969 L56.1875,79.2969 L56.1875,78.375 Q56.1875,77.7656 56.4297,77.5 Q56.6719,77.2344 57.0469,77.2344 Q57.4219,77.2344 57.6563,77.5 Q57.8906,77.7656 57.8906,78.375 L57.8906,81 L49.8906,81 Q49.2656,81 49.0078,80.7656 Q48.75,80.5313 48.75,80.1406 Q48.75,79.7656 49.0156,79.5313 Q49.2813,79.2969 49.8906,79.2969 L50.1563,79.2969 L50.1563,72.6406 L49.8906,72.6406 Q49.2656,72.6406 49.0078,72.4063 Q48.75,72.1719 48.75,71.7813 Q48.75,71.4063 49.0078,71.1719 Q49.2656,70.9375 49.8906,70.9375 L57.5156,70.9375 L57.5156,73.5313 Q57.5156,74.1406 57.2891,74.3984 Q57.0625,74.6563 56.6719,74.6563 Q56.2969,74.6563 56.0625,74.3984 Q55.8281,74.1406 55.8281,73.5313 L55.8281,72.6406 L51.8594,72.6406 L51.8594,75.0938 L53.3438,75.0938 Q53.3438,74.4375 53.4688,74.25 Q53.7344,73.8438 54.2031,73.8438 Q54.5781,73.8438 54.8125,74.1016 Q55.0469,74.3594 55.0469,74.9688 L55.0469,76.9375 Q55.0469,77.4844 54.9219,77.6719 Q54.6563,78.0625 54.2031,78.0625 Q53.7344,78.0625 53.4688,77.6563 Q53.3438,77.4688 53.3438,76.7969 L51.8594,76.7969 Z "/><text fill="#000000" font-family="sans-serif" font-size="14" font-weight="bold" lengthAdjust="spacingAndGlyphs" textLength="66" x="67" y="81.7285">CardType</text></a><!--class soen6441riskgame.enums.ChangedProperty--><a target="_parent" xlink:actuate="onRequest" xlink:href="../../soen6441riskgame/enums/ChangedProperty.html" xlink:show="new" xlink:title="soen6441riskgame.enums.ChangedProperty" xlink:type="simple"><rect fill="#FEFECE" filter="url(#fnmiu2h8tmcx0)" height="32" id="soen6441riskgame.enums.ChangedProperty" style="stroke: #A80036; stroke-width: 1.5;" width="155" x="171.5" y="60"/><ellipse cx="186.5" cy="76" fill="#EB937F" rx="11" ry="11" style="stroke: #A80036; stroke-width: 1.0;"/><path d="M185.3594,76.7969 L185.3594,79.2969 L189.6875,79.2969 L189.6875,78.375 Q189.6875,77.7656 189.9297,77.5 Q190.1719,77.2344 190.5469,77.2344 Q190.9219,77.2344 191.1563,77.5 Q191.3906,77.7656 191.3906,78.375 L191.3906,81 L183.3906,81 Q182.7656,81 182.5078,80.7656 Q182.25,80.5313 182.25,80.1406 Q182.25,79.7656 182.5156,79.5313 Q182.7813,79.2969 183.3906,79.2969 L183.6563,79.2969 L183.6563,72.6406 L183.3906,72.6406 Q182.7656,72.6406 182.5078,72.4063 Q182.25,72.1719 182.25,71.7813 Q182.25,71.4063 182.5078,71.1719 Q182.7656,70.9375 183.3906,70.9375 L191.0156,70.9375 L191.0156,73.5313 Q191.0156,74.1406 190.7891,74.3984 Q190.5625,74.6563 190.1719,74.6563 Q189.7969,74.6563 189.5625,74.3984 Q189.3281,74.1406 189.3281,73.5313 L189.3281,72.6406 L185.3594,72.6406 L185.3594,75.0938 L186.8438,75.0938 Q186.8438,74.4375 186.9688,74.25 Q187.2344,73.8438 187.7031,73.8438 Q188.0781,73.8438 188.3125,74.1016 Q188.5469,74.3594 188.5469,74.9688 L188.5469,76.9375 Q188.5469,77.4844 188.4219,77.6719 Q188.1563,78.0625 187.7031,78.0625 Q187.2344,78.0625 186.9688,77.6563 Q186.8438,77.4688 186.8438,76.7969 L185.3594,76.7969 Z "/><text fill="#000000" font-family="sans-serif" font-size="14" font-weight="bold" lengthAdjust="spacingAndGlyphs" textLength="123" x="200.5" y="81.7285">ChangedProperty</text></a><!--class soen6441riskgame.enums.CommonCommandArgs--><a target="_parent" xlink:actuate="onRequest" xlink:href="../../soen6441riskgame/enums/CommonCommandArgs.html" xlink:show="new" xlink:title="soen6441riskgame.enums.CommonCommandArgs" xlink:type="simple"><rect fill="#FEFECE" filter="url(#fnmiu2h8tmcx0)" height="32" id="soen6441riskgame.enums.CommonCommandArgs" style="stroke: #A80036; stroke-width: 1.5;" width="194" x="362" y="60"/><ellipse cx="377" cy="76" fill="#EB937F" rx="11" ry="11" style="stroke: #A80036; stroke-width: 1.0;"/><path d="M375.8594,76.7969 L375.8594,79.2969 L380.1875,79.2969 L380.1875,78.375 Q380.1875,77.7656 380.4297,77.5 Q380.6719,77.2344 381.0469,77.2344 Q381.4219,77.2344 381.6563,77.5 Q381.8906,77.7656 381.8906,78.375 L381.8906,81 L373.8906,81 Q373.2656,81 373.0078,80.7656 Q372.75,80.5313 372.75,80.1406 Q372.75,79.7656 373.0156,79.5313 Q373.2813,79.2969 373.8906,79.2969 L374.1563,79.2969 L374.1563,72.6406 L373.8906,72.6406 Q373.2656,72.6406 373.0078,72.4063 Q372.75,72.1719 372.75,71.7813 Q372.75,71.4063 373.0078,71.1719 Q373.2656,70.9375 373.8906,70.9375 L381.5156,70.9375 L381.5156,73.5313 Q381.5156,74.1406 381.2891,74.3984 Q381.0625,74.6563 380.6719,74.6563 Q380.2969,74.6563 380.0625,74.3984 Q379.8281,74.1406 379.8281,73.5313 L379.8281,72.6406 L375.8594,72.6406 L375.8594,75.0938 L377.3438,75.0938 Q377.3438,74.4375 377.4688,74.25 Q377.7344,73.8438 378.2031,73.8438 Q378.5781,73.8438 378.8125,74.1016 Q379.0469,74.3594 379.0469,74.9688 L379.0469,76.9375 Q379.0469,77.4844 378.9219,77.6719 Q378.6563,78.0625 378.2031,78.0625 Q377.7344,78.0625 377.4688,77.6563 Q377.3438,77.4688 377.3438,76.7969 L375.8594,76.7969 Z "/><text fill="#000000" font-family="sans-serif" font-size="14" font-weight="bold" lengthAdjust="spacingAndGlyphs" textLength="162" x="391" y="81.7285">CommonCommandArgs</text></a><!--class soen6441riskgame.enums.GamePhase--><a target="_parent" xlink:actuate="onRequest" xlink:href="../../soen6441riskgame/enums/GamePhase.html" xlink:show="new" xlink:title="soen6441riskgame.enums.GamePhase" xlink:type="simple"><rect fill="#FEFECE" filter="url(#fnmiu2h8tmcx0)" height="32" id="soen6441riskgame.enums.GamePhase" style="stroke: #A80036; stroke-width: 1.5;" width="115" x="38.5" y="152"/><ellipse cx="53.5" cy="168" fill="#EB937F" rx="11" ry="11" style="stroke: #A80036; stroke-width: 1.0;"/><path d="M52.3594,168.7969 L52.3594,171.2969 L56.6875,171.2969 L56.6875,170.375 Q56.6875,169.7656 56.9297,169.5 Q57.1719,169.2344 57.5469,169.2344 Q57.9219,169.2344 58.1563,169.5 Q58.3906,169.7656 58.3906,170.375 L58.3906,173 L50.3906,173 Q49.7656,173 49.5078,172.7656 Q49.25,172.5313 49.25,172.1406 Q49.25,171.7656 49.5156,171.5313 Q49.7813,171.2969 50.3906,171.2969 L50.6563,171.2969 L50.6563,164.6406 L50.3906,164.6406 Q49.7656,164.6406 49.5078,164.4063 Q49.25,164.1719 49.25,163.7813 Q49.25,163.4063 49.5078,163.1719 Q49.7656,162.9375 50.3906,162.9375 L58.0156,162.9375 L58.0156,165.5313 Q58.0156,166.1406 57.7891,166.3984 Q57.5625,166.6563 57.1719,166.6563 Q56.7969,166.6563 56.5625,166.3984 Q56.3281,166.1406 56.3281,165.5313 L56.3281,164.6406 L52.3594,164.6406 L52.3594,167.0938 L53.8438,167.0938 Q53.8438,166.4375 53.9688,166.25 Q54.2344,165.8438 54.7031,165.8438 Q55.0781,165.8438 55.3125,166.1016 Q55.5469,166.3594 55.5469,166.9688 L55.5469,168.9375 Q55.5469,169.4844 55.4219,169.6719 Q55.1563,170.0625 54.7031,170.0625 Q54.2344,170.0625 53.9688,169.6563 Q53.8438,169.4688 53.8438,168.7969 L52.3594,168.7969 Z "/><text fill="#000000" font-family="sans-serif" font-size="14" font-weight="bold" lengthAdjust="spacingAndGlyphs" textLength="83" x="67.5" y="173.7285">GamePhase</text></a><!--class soen6441riskgame.enums.MapPart--><a target="_parent" xlink:actuate="onRequest" xlink:href="../../soen6441riskgame/enums/MapPart.html" xlink:show="new" xlink:title="soen6441riskgame.enums.MapPart" xlink:type="simple"><rect fill="#FEFECE" filter="url(#fnmiu2h8tmcx0)" height="32" id="soen6441riskgame.enums.MapPart" style="stroke: #A80036; stroke-width: 1.5;" width="90" x="189" y="152"/><ellipse cx="204" cy="168" fill="#EB937F" rx="11" ry="11" style="stroke: #A80036; stroke-width: 1.0;"/><path d="M202.8594,168.7969 L202.8594,171.2969 L207.1875,171.2969 L207.1875,170.375 Q207.1875,169.7656 207.4297,169.5 Q207.6719,169.2344 208.0469,169.2344 Q208.4219,169.2344 208.6563,169.5 Q208.8906,169.7656 208.8906,170.375 L208.8906,173 L200.8906,173 Q200.2656,173 200.0078,172.7656 Q199.75,172.5313 199.75,172.1406 Q199.75,171.7656 200.0156,171.5313 Q200.2813,171.2969 200.8906,171.2969 L201.1563,171.2969 L201.1563,164.6406 L200.8906,164.6406 Q200.2656,164.6406 200.0078,164.4063 Q199.75,164.1719 199.75,163.7813 Q199.75,163.4063 200.0078,163.1719 Q200.2656,162.9375 200.8906,162.9375 L208.5156,162.9375 L208.5156,165.5313 Q208.5156,166.1406 208.2891,166.3984 Q208.0625,166.6563 207.6719,166.6563 Q207.2969,166.6563 207.0625,166.3984 Q206.8281,166.1406 206.8281,165.5313 L206.8281,164.6406 L202.8594,164.6406 L202.8594,167.0938 L204.3438,167.0938 Q204.3438,166.4375 204.4688,166.25 Q204.7344,165.8438 205.2031,165.8438 Q205.5781,165.8438 205.8125,166.1016 Q206.0469,166.3594 206.0469,166.9688 L206.0469,168.9375 Q206.0469,169.4844 205.9219,169.6719 Q205.6563,170.0625 205.2031,170.0625 Q204.7344,170.0625 204.4688,169.6563 Q204.3438,169.4688 204.3438,168.7969 L202.8594,168.7969 Z "/><text fill="#000000" font-family="sans-serif" font-size="14" font-weight="bold" lengthAdjust="spacingAndGlyphs" textLength="58" x="218" y="173.7285">MapPart</text></a><!--link soen6441riskgame.enums.CardType to soen6441riskgame.enums.ChangedProperty--><!--link soen6441riskgame.enums.ChangedProperty to soen6441riskgame.enums.CommonCommandArgs--><!--link soen6441riskgame.enums.CardType to soen6441riskgame.enums.GamePhase--><!--link soen6441riskgame.enums.GamePhase to soen6441riskgame.enums.MapPart--><!--
@startuml

skinparam svgLinkTarget _parent
skinparam linetype ortho
package soen6441riskgame.enums [[../../soen6441riskgame/enums/package-summary.html{soen6441riskgame.enums}]] #lightyellow {
}

enum "<b><size:14>CardType</b>" as soen6441riskgame.enums.CardType  [[../../soen6441riskgame/enums/CardType.html{soen6441riskgame.enums.CardType}]] {
}

hide soen6441riskgame.enums.CardType fields
hide soen6441riskgame.enums.CardType methods

enum "<b><size:14>ChangedProperty</b>" as soen6441riskgame.enums.ChangedProperty  [[../../soen6441riskgame/enums/ChangedProperty.html{soen6441riskgame.enums.ChangedProperty}]] {
}

hide soen6441riskgame.enums.ChangedProperty fields
hide soen6441riskgame.enums.ChangedProperty methods

enum "<b><size:14>CommonCommandArgs</b>" as soen6441riskgame.enums.CommonCommandArgs  [[../../soen6441riskgame/enums/CommonCommandArgs.html{soen6441riskgame.enums.CommonCommandArgs}]] {
}

hide soen6441riskgame.enums.CommonCommandArgs fields
hide soen6441riskgame.enums.CommonCommandArgs methods

enum "<b><size:14>GamePhase</b>" as soen6441riskgame.enums.GamePhase  [[../../soen6441riskgame/enums/GamePhase.html{soen6441riskgame.enums.GamePhase}]] {
}

hide soen6441riskgame.enums.GamePhase fields
hide soen6441riskgame.enums.GamePhase methods

enum "<b><size:14>MapPart</b>" as soen6441riskgame.enums.MapPart  [[../../soen6441riskgame/enums/MapPart.html{soen6441riskgame.enums.MapPart}]] {
}

hide soen6441riskgame.enums.MapPart fields
hide soen6441riskgame.enums.MapPart methods


@enduml

PlantUML version 1.2017.15(Mon Jul 03 12:45:34 EDT 2017)
(GPL source distribution)
Java Runtime: Java(TM) SE Runtime Environment
JVM: Java HotSpot(TM) 64-Bit Server VM
Java Version: 1.8.0_231-b11
Operating System: Windows 10
OS Version: 10.0
Default Encoding: Cp1252
Language: en
Country: US
--></g></svg>