<?xml version="1.0" encoding="UTF-8" standalone="no"?><svg xmlns="http://www.w3.org/2000/svg" xmlns:xlink="http://www.w3.org/1999/xlink" contentScriptType="application/ecmascript" contentStyleType="text/css" height="358px" preserveAspectRatio="none" style="width:1172px;height:358px;" version="1.1" viewBox="0 0 1172 358" width="1172px" zoomAndPan="magnify"><defs><filter height="300%" id="f1umbbd5a44mrj" width="300%" x="-1" y="-1"><feGaussianBlur result="blurOut" stdDeviation="2.0"/><feColorMatrix in="blurOut" result="blurOut2" type="matrix" values="0 0 0 0 0 0 0 0 0 0 0 0 0 0 0 0 0 0 .4 0"/><feOffset dx="4.0" dy="4.0" in="blurOut2" result="blurOut3"/><feBlend in="SourceGraphic" in2="blurOut3" mode="normal"/></filter></defs><g><!--class soen6441riskgame.enums.StrategyName--><a target="_parent" xlink:actuate="onRequest" xlink:href="../../soen6441riskgame/enums/StrategyName.html" xlink:show="new" xlink:title="soen6441riskgame.enums.StrategyName" xlink:type="simple"><rect fill="#FEFECE" filter="url(#f1umbbd5a44mrj)" height="139.2031" id="soen6441riskgame.enums.StrategyName" style="stroke: #A80036; stroke-width: 1.5;" width="232" x="467.5" y="108"/><ellipse cx="518.75" cy="128.0938" fill="#EB937F" rx="11" ry="11" style="stroke: #A80036; stroke-width: 1.0;"/><path d="M517.6094,128.8906 L517.6094,131.3906 L521.9375,131.3906 L521.9375,130.4688 Q521.9375,129.8594 522.1797,129.5938 Q522.4219,129.3281 522.7969,129.3281 Q523.1719,129.3281 523.4063,129.5938 Q523.6406,129.8594 523.6406,130.4688 L523.6406,133.0938 L515.6406,133.0938 Q515.0156,133.0938 514.7578,132.8594 Q514.5,132.625 514.5,132.2344 Q514.5,131.8594 514.7656,131.625 Q515.0313,131.3906 515.6406,131.3906 L515.9063,131.3906 L515.9063,124.7344 L515.6406,124.7344 Q515.0156,124.7344 514.7578,124.5 Q514.5,124.2656 514.5,123.875 Q514.5,123.5 514.7578,123.2656 Q515.0156,123.0313 515.6406,123.0313 L523.2656,123.0313 L523.2656,125.625 Q523.2656,126.2344 523.0391,126.4922 Q522.8125,126.75 522.4219,126.75 Q522.0469,126.75 521.8125,126.4922 Q521.5781,126.2344 521.5781,125.625 L521.5781,124.7344 L517.6094,124.7344 L517.6094,127.1875 L519.0938,127.1875 Q519.0938,126.5313 519.2188,126.3438 Q519.4844,125.9375 519.9531,125.9375 Q520.3281,125.9375 520.5625,126.1953 Q520.7969,126.4531 520.7969,127.0625 L520.7969,129.0313 Q520.7969,129.5781 520.6719,129.7656 Q520.4063,130.1563 519.9531,130.1563 Q519.4844,130.1563 519.2188,129.75 Q519.0938,129.5625 519.0938,128.8906 L517.6094,128.8906 Z "/><text fill="#000000" font-family="sans-serif" font-size="14" font-weight="bold" lengthAdjust="spacingAndGlyphs" textLength="97" x="551.25" y="127.5332">StrategyName</text><text fill="#000000" font-family="sans-serif" font-size="10" lengthAdjust="spacingAndGlyphs" textLength="121" x="539.25" y="140.9902">soen6441riskgame.enums</text><line style="stroke: #A80036; stroke-width: 1.5;" x1="468.5" x2="698.5" y1="148.1875" y2="148.1875"/><rect fill="none" height="6" style="stroke: #C82930; stroke-width: 1.0;" width="6" x="475.5" y="157.6055"/><text fill="#000000" font-family="sans-serif" font-size="11" lengthAdjust="spacingAndGlyphs" textLength="57" x="487.5" y="163.6064">String name</text><line style="stroke: #A80036; stroke-width: 1.5;" x1="468.5" x2="698.5" y1="170.0234" y2="170.0234"/><rect fill="#F24D5C" height="6" style="stroke: #C82930; stroke-width: 1.0;" width="6" x="475.5" y="179.4414"/><text fill="#000000" font-family="sans-serif" font-size="11" lengthAdjust="spacingAndGlyphs" textLength="133" x="487.5" y="185.4424">StrategyName(String name)</text><ellipse cx="478.5" cy="196.2773" fill="#84BE84" rx="3" ry="3" style="stroke: #038048; stroke-width: 1.0;"/><text fill="#000000" font-family="sans-serif" font-size="11" lengthAdjust="spacingAndGlyphs" text-decoration="underline" textLength="111" x="487.5" y="199.2783">StrategyName values()</text><line style="stroke: #000000; stroke-width: 1.0;" x1="487.5" x2="598.5" y1="201.2783" y2="201.2783"/><ellipse cx="478.5" cy="210.1133" fill="#84BE84" rx="3" ry="3" style="stroke: #038048; stroke-width: 1.0;"/><text fill="#000000" font-family="sans-serif" font-size="11" lengthAdjust="spacingAndGlyphs" text-decoration="underline" textLength="174" x="487.5" y="213.1143">StrategyName valueOf(String name)</text><line style="stroke: #000000; stroke-width: 1.0;" x1="487.5" x2="661.5" y1="215.1143" y2="215.1143"/><ellipse cx="478.5" cy="223.9492" fill="#84BE84" rx="3" ry="3" style="stroke: #038048; stroke-width: 1.0;"/><text fill="#000000" font-family="sans-serif" font-size="11" lengthAdjust="spacingAndGlyphs" textLength="81" x="487.5" y="226.9502">String getName()</text><ellipse cx="478.5" cy="237.7852" fill="#84BE84" rx="3" ry="3" style="stroke: #038048; stroke-width: 1.0;"/><text fill="#000000" font-family="sans-serif" font-size="11" lengthAdjust="spacingAndGlyphs" text-decoration="underline" textLength="206" x="487.5" y="240.7861">Strategy fromString(String argumentString)</text><line style="stroke: #000000; stroke-width: 1.0;" x1="487.5" x2="693.5" y1="242.7861" y2="242.7861"/></a><!--class soen6441riskgame.models.strategies.Strategy--><a target="_parent" xlink:actuate="onRequest" xlink:href="../../soen6441riskgame/models/strategies/Strategy.html" xlink:show="new" xlink:title="soen6441riskgame.models.strategies.Strategy" xlink:type="simple"><rect fill="#FFFFFF" filter="url(#f1umbbd5a44mrj)" height="40.1875" id="soen6441riskgame.models.strategies.Strategy" style="stroke: #A80036; stroke-width: 1.5;" width="205" x="481" y="307"/><rect fill="#FFFFFF" height="40.1875" style="stroke: #A80036; stroke-width: 1.5;" width="205" x="481" y="307"/><ellipse cx="496" cy="327.0938" fill="#B4A7E5" rx="11" ry="11" style="stroke: #A80036; stroke-width: 1.0;"/><path d="M496.9531,323.7344 L496.9531,330.3906 L498.6719,330.3906 Q499.2813,330.3906 499.5469,330.625 Q499.8125,330.8594 499.8125,331.25 Q499.8125,331.625 499.5469,331.8594 Q499.2813,332.0938 498.6719,332.0938 L493.5313,332.0938 Q492.9219,332.0938 492.6563,331.8594 Q492.3906,331.625 492.3906,331.2344 Q492.3906,330.8594 492.6563,330.625 Q492.9219,330.3906 493.5313,330.3906 L495.25,330.3906 L495.25,323.7344 L493.5313,323.7344 Q492.9219,323.7344 492.6563,323.5 Q492.3906,323.2656 492.3906,322.875 Q492.3906,322.5 492.6563,322.2656 Q492.9219,322.0313 493.5313,322.0313 L498.6719,322.0313 Q499.2813,322.0313 499.5469,322.2656 Q499.8125,322.5 499.8125,322.875 Q499.8125,323.2656 499.5469,323.5 Q499.2813,323.7344 498.6719,323.7344 L496.9531,323.7344 Z "/><text fill="#000000" font-family="sans-serif" font-size="14" font-style="italic" font-weight="bold" lengthAdjust="spacingAndGlyphs" textLength="56" x="568.5" y="326.5332">Strategy</text><text fill="#000000" font-family="sans-serif" font-size="10" font-style="italic" lengthAdjust="spacingAndGlyphs" textLength="173" x="510" y="339.9902">soen6441riskgame.models.strategies</text></a><!--class soen6441riskgame.models.strategies.AggressiveStrategy--><a target="_parent" xlink:actuate="onRequest" xlink:href="../../soen6441riskgame/models/strategies/AggressiveStrategy.html" xlink:show="new" xlink:title="soen6441riskgame.models.strategies.AggressiveStrategy" xlink:type="simple"><rect fill="#FFFFFF" filter="url(#f1umbbd5a44mrj)" height="40.1875" id="soen6441riskgame.models.strategies.AggressiveStrategy" style="stroke: #A80036; stroke-width: 1.5;" width="203" x="6" y="8"/><rect fill="#FFFFFF" height="40.1875" style="stroke: #A80036; stroke-width: 1.5;" width="203" x="6" y="8"/><ellipse cx="21" cy="28.0938" fill="#ADD1B2" rx="11" ry="11" style="stroke: #A80036; stroke-width: 1.0;"/><path d="M23.7656,23.9688 Q23.9219,23.75 24.1094,23.6406 Q24.2969,23.5313 24.5156,23.5313 Q24.8906,23.5313 25.125,23.7891 Q25.3594,24.0469 25.3594,24.6563 L25.3594,26.1094 Q25.3594,26.7188 25.125,26.9844 Q24.8906,27.25 24.5156,27.25 Q24.1719,27.25 23.9688,27.0469 Q23.7656,26.8594 23.6563,26.3438 Q23.6094,25.9844 23.4219,25.7969 Q23.0938,25.4219 22.4844,25.2031 Q21.875,24.9844 21.25,24.9844 Q20.4844,24.9844 19.8516,25.3125 Q19.2188,25.6406 18.7266,26.3906 Q18.2344,27.1406 18.2344,28.1719 L18.2344,29.2656 Q18.2344,30.5 19.125,31.3203 Q20.0156,32.1406 21.6094,32.1406 Q22.5469,32.1406 23.2031,31.8906 Q23.5938,31.7344 24.0156,31.2969 Q24.2813,31.0313 24.4297,30.9531 Q24.5781,30.875 24.7813,30.875 Q25.1094,30.875 25.3672,31.1328 Q25.625,31.3906 25.625,31.7344 Q25.625,32.0781 25.2813,32.4844 Q24.7813,33.0625 23.9844,33.3906 Q22.9063,33.8438 21.6094,33.8438 Q20.0938,33.8438 18.8906,33.2188 Q17.9063,32.7188 17.2188,31.6484 Q16.5313,30.5781 16.5313,29.2969 L16.5313,28.1406 Q16.5313,26.8125 17.1484,25.6641 Q17.7656,24.5156 18.8594,23.8984 Q19.9531,23.2813 21.1875,23.2813 Q21.9219,23.2813 22.5703,23.4453 Q23.2188,23.6094 23.7656,23.9688 Z "/><text fill="#000000" font-family="sans-serif" font-size="14" font-weight="bold" lengthAdjust="spacingAndGlyphs" textLength="138" x="51.5" y="27.5332">AggressiveStrategy</text><text fill="#000000" font-family="sans-serif" font-size="10" lengthAdjust="spacingAndGlyphs" textLength="171" x="35" y="40.9902">soen6441riskgame.models.strategies</text></a><!--class soen6441riskgame.models.strategies.BenevolentStrategy--><a target="_parent" xlink:actuate="onRequest" xlink:href="../../soen6441riskgame/models/strategies/BenevolentStrategy.html" xlink:show="new" xlink:title="soen6441riskgame.models.strategies.BenevolentStrategy" xlink:type="simple"><rect fill="#FFFFFF" filter="url(#f1umbbd5a44mrj)" height="40.1875" id="soen6441riskgame.models.strategies.BenevolentStrategy" style="stroke: #A80036; stroke-width: 1.5;" width="203" x="244" y="8"/><rect fill="#FFFFFF" height="40.1875" style="stroke: #A80036; stroke-width: 1.5;" width="203" x="244" y="8"/><ellipse cx="259" cy="28.0938" fill="#ADD1B2" rx="11" ry="11" style="stroke: #A80036; stroke-width: 1.0;"/><path d="M261.7656,23.9688 Q261.9219,23.75 262.1094,23.6406 Q262.2969,23.5313 262.5156,23.5313 Q262.8906,23.5313 263.125,23.7891 Q263.3594,24.0469 263.3594,24.6563 L263.3594,26.1094 Q263.3594,26.7188 263.125,26.9844 Q262.8906,27.25 262.5156,27.25 Q262.1719,27.25 261.9688,27.0469 Q261.7656,26.8594 261.6563,26.3438 Q261.6094,25.9844 261.4219,25.7969 Q261.0938,25.4219 260.4844,25.2031 Q259.875,24.9844 259.25,24.9844 Q258.4844,24.9844 257.8516,25.3125 Q257.2188,25.6406 256.7266,26.3906 Q256.2344,27.1406 256.2344,28.1719 L256.2344,29.2656 Q256.2344,30.5 257.125,31.3203 Q258.0156,32.1406 259.6094,32.1406 Q260.5469,32.1406 261.2031,31.8906 Q261.5938,31.7344 262.0156,31.2969 Q262.2813,31.0313 262.4297,30.9531 Q262.5781,30.875 262.7813,30.875 Q263.1094,30.875 263.3672,31.1328 Q263.625,31.3906 263.625,31.7344 Q263.625,32.0781 263.2813,32.4844 Q262.7813,33.0625 261.9844,33.3906 Q260.9063,33.8438 259.6094,33.8438 Q258.0938,33.8438 256.8906,33.2188 Q255.9063,32.7188 255.2188,31.6484 Q254.5313,30.5781 254.5313,29.2969 L254.5313,28.1406 Q254.5313,26.8125 255.1484,25.6641 Q255.7656,24.5156 256.8594,23.8984 Q257.9531,23.2813 259.1875,23.2813 Q259.9219,23.2813 260.5703,23.4453 Q261.2188,23.6094 261.7656,23.9688 Z "/><text fill="#000000" font-family="sans-serif" font-size="14" font-weight="bold" lengthAdjust="spacingAndGlyphs" textLength="140" x="288.5" y="27.5332">BenevolentStrategy</text><text fill="#000000" font-family="sans-serif" font-size="10" lengthAdjust="spacingAndGlyphs" textLength="171" x="273" y="40.9902">soen6441riskgame.models.strategies</text></a><!--class soen6441riskgame.models.strategies.CheaterStrategy--><a target="_parent" xlink:actuate="onRequest" xlink:href="../../soen6441riskgame/models/strategies/CheaterStrategy.html" xlink:show="new" xlink:title="soen6441riskgame.models.strategies.CheaterStrategy" xlink:type="simple"><rect fill="#FFFFFF" filter="url(#f1umbbd5a44mrj)" height="40.1875" id="soen6441riskgame.models.strategies.CheaterStrategy" style="stroke: #A80036; stroke-width: 1.5;" width="203" x="482" y="8"/><rect fill="#FFFFFF" height="40.1875" style="stroke: #A80036; stroke-width: 1.5;" width="203" x="482" y="8"/><ellipse cx="497" cy="28.0938" fill="#ADD1B2" rx="11" ry="11" style="stroke: #A80036; stroke-width: 1.0;"/><path d="M499.7656,23.9688 Q499.9219,23.75 500.1094,23.6406 Q500.2969,23.5313 500.5156,23.5313 Q500.8906,23.5313 501.125,23.7891 Q501.3594,24.0469 501.3594,24.6563 L501.3594,26.1094 Q501.3594,26.7188 501.125,26.9844 Q500.8906,27.25 500.5156,27.25 Q500.1719,27.25 499.9688,27.0469 Q499.7656,26.8594 499.6563,26.3438 Q499.6094,25.9844 499.4219,25.7969 Q499.0938,25.4219 498.4844,25.2031 Q497.875,24.9844 497.25,24.9844 Q496.4844,24.9844 495.8516,25.3125 Q495.2188,25.6406 494.7266,26.3906 Q494.2344,27.1406 494.2344,28.1719 L494.2344,29.2656 Q494.2344,30.5 495.125,31.3203 Q496.0156,32.1406 497.6094,32.1406 Q498.5469,32.1406 499.2031,31.8906 Q499.5938,31.7344 500.0156,31.2969 Q500.2813,31.0313 500.4297,30.9531 Q500.5781,30.875 500.7813,30.875 Q501.1094,30.875 501.3672,31.1328 Q501.625,31.3906 501.625,31.7344 Q501.625,32.0781 501.2813,32.4844 Q500.7813,33.0625 499.9844,33.3906 Q498.9063,33.8438 497.6094,33.8438 Q496.0938,33.8438 494.8906,33.2188 Q493.9063,32.7188 493.2188,31.6484 Q492.5313,30.5781 492.5313,29.2969 L492.5313,28.1406 Q492.5313,26.8125 493.1484,25.6641 Q493.7656,24.5156 494.8594,23.8984 Q495.9531,23.2813 497.1875,23.2813 Q497.9219,23.2813 498.5703,23.4453 Q499.2188,23.6094 499.7656,23.9688 Z "/><text fill="#000000" font-family="sans-serif" font-size="14" font-weight="bold" lengthAdjust="spacingAndGlyphs" textLength="114" x="539.5" y="27.5332">CheaterStrategy</text><text fill="#000000" font-family="sans-serif" font-size="10" lengthAdjust="spacingAndGlyphs" textLength="171" x="511" y="40.9902">soen6441riskgame.models.strategies</text></a><!--class soen6441riskgame.models.strategies.HumanStrategy--><a target="_parent" xlink:actuate="onRequest" xlink:href="../../soen6441riskgame/models/strategies/HumanStrategy.html" xlink:show="new" xlink:title="soen6441riskgame.models.strategies.HumanStrategy" xlink:type="simple"><rect fill="#FFFFFF" filter="url(#f1umbbd5a44mrj)" height="40.1875" id="soen6441riskgame.models.strategies.HumanStrategy" style="stroke: #A80036; stroke-width: 1.5;" width="203" x="720" y="8"/><rect fill="#FFFFFF" height="40.1875" style="stroke: #A80036; stroke-width: 1.5;" width="203" x="720" y="8"/><ellipse cx="735" cy="28.0938" fill="#ADD1B2" rx="11" ry="11" style="stroke: #A80036; stroke-width: 1.0;"/><path d="M737.7656,23.9688 Q737.9219,23.75 738.1094,23.6406 Q738.2969,23.5313 738.5156,23.5313 Q738.8906,23.5313 739.125,23.7891 Q739.3594,24.0469 739.3594,24.6563 L739.3594,26.1094 Q739.3594,26.7188 739.125,26.9844 Q738.8906,27.25 738.5156,27.25 Q738.1719,27.25 737.9688,27.0469 Q737.7656,26.8594 737.6563,26.3438 Q737.6094,25.9844 737.4219,25.7969 Q737.0938,25.4219 736.4844,25.2031 Q735.875,24.9844 735.25,24.9844 Q734.4844,24.9844 733.8516,25.3125 Q733.2188,25.6406 732.7266,26.3906 Q732.2344,27.1406 732.2344,28.1719 L732.2344,29.2656 Q732.2344,30.5 733.125,31.3203 Q734.0156,32.1406 735.6094,32.1406 Q736.5469,32.1406 737.2031,31.8906 Q737.5938,31.7344 738.0156,31.2969 Q738.2813,31.0313 738.4297,30.9531 Q738.5781,30.875 738.7813,30.875 Q739.1094,30.875 739.3672,31.1328 Q739.625,31.3906 739.625,31.7344 Q739.625,32.0781 739.2813,32.4844 Q738.7813,33.0625 737.9844,33.3906 Q736.9063,33.8438 735.6094,33.8438 Q734.0938,33.8438 732.8906,33.2188 Q731.9063,32.7188 731.2188,31.6484 Q730.5313,30.5781 730.5313,29.2969 L730.5313,28.1406 Q730.5313,26.8125 731.1484,25.6641 Q731.7656,24.5156 732.8594,23.8984 Q733.9531,23.2813 735.1875,23.2813 Q735.9219,23.2813 736.5703,23.4453 Q737.2188,23.6094 737.7656,23.9688 Z "/><text fill="#000000" font-family="sans-serif" font-size="14" font-weight="bold" lengthAdjust="spacingAndGlyphs" textLength="106" x="781.5" y="27.5332">HumanStrategy</text><text fill="#000000" font-family="sans-serif" font-size="10" lengthAdjust="spacingAndGlyphs" textLength="171" x="749" y="40.9902">soen6441riskgame.models.strategies</text></a><!--class soen6441riskgame.models.strategies.RandomStrategy--><a target="_parent" xlink:actuate="onRequest" xlink:href="../../soen6441riskgame/models/strategies/RandomStrategy.html" xlink:show="new" xlink:title="soen6441riskgame.models.strategies.RandomStrategy" xlink:type="simple"><rect fill="#FFFFFF" filter="url(#f1umbbd5a44mrj)" height="40.1875" id="soen6441riskgame.models.strategies.RandomStrategy" style="stroke: #A80036; stroke-width: 1.5;" width="203" x="958" y="8"/><rect fill="#FFFFFF" height="40.1875" style="stroke: #A80036; stroke-width: 1.5;" width="203" x="958" y="8"/><ellipse cx="973" cy="28.0938" fill="#ADD1B2" rx="11" ry="11" style="stroke: #A80036; stroke-width: 1.0;"/><path d="M975.7656,23.9688 Q975.9219,23.75 976.1094,23.6406 Q976.2969,23.5313 976.5156,23.5313 Q976.8906,23.5313 977.125,23.7891 Q977.3594,24.0469 977.3594,24.6563 L977.3594,26.1094 Q977.3594,26.7188 977.125,26.9844 Q976.8906,27.25 976.5156,27.25 Q976.1719,27.25 975.9688,27.0469 Q975.7656,26.8594 975.6563,26.3438 Q975.6094,25.9844 975.4219,25.7969 Q975.0938,25.4219 974.4844,25.2031 Q973.875,24.9844 973.25,24.9844 Q972.4844,24.9844 971.8516,25.3125 Q971.2188,25.6406 970.7266,26.3906 Q970.2344,27.1406 970.2344,28.1719 L970.2344,29.2656 Q970.2344,30.5 971.125,31.3203 Q972.0156,32.1406 973.6094,32.1406 Q974.5469,32.1406 975.2031,31.8906 Q975.5938,31.7344 976.0156,31.2969 Q976.2813,31.0313 976.4297,30.9531 Q976.5781,30.875 976.7813,30.875 Q977.1094,30.875 977.3672,31.1328 Q977.625,31.3906 977.625,31.7344 Q977.625,32.0781 977.2813,32.4844 Q976.7813,33.0625 975.9844,33.3906 Q974.9063,33.8438 973.6094,33.8438 Q972.0938,33.8438 970.8906,33.2188 Q969.9063,32.7188 969.2188,31.6484 Q968.5313,30.5781 968.5313,29.2969 L968.5313,28.1406 Q968.5313,26.8125 969.1484,25.6641 Q969.7656,24.5156 970.8594,23.8984 Q971.9531,23.2813 973.1875,23.2813 Q973.9219,23.2813 974.5703,23.4453 Q975.2188,23.6094 975.7656,23.9688 Z "/><text fill="#000000" font-family="sans-serif" font-size="14" font-weight="bold" lengthAdjust="spacingAndGlyphs" textLength="115" x="1015" y="27.5332">RandomStrategy</text><text fill="#000000" font-family="sans-serif" font-size="10" lengthAdjust="spacingAndGlyphs" textLength="171" x="987" y="40.9902">soen6441riskgame.models.strategies</text></a><!--link soen6441riskgame.enums.StrategyName to soen6441riskgame.models.strategies.Strategy--><path d="M617.667,247.4351 C617.667,247.4351 617.667,301.8827 617.667,301.8827 " fill="none" id="soen6441riskgame.enums.StrategyName-soen6441riskgame.models.strategies.Strategy" style="stroke: #A80036; stroke-width: 1.0; stroke-dasharray: 7.0,7.0;"/><polygon fill="#A80036" points="617.667,306.8827,621.667,297.8827,617.667,301.8827,613.667,297.8827,617.667,306.8827" style="stroke: #A80036; stroke-width: 1.0;"/><!--link soen6441riskgame.models.strategies.Strategy to soen6441riskgame.enums.StrategyName--><path d="M549.333,306.8378 C549.333,306.8378 549.333,252.3087 549.333,252.3087 " fill="none" id="soen6441riskgame.models.strategies.Strategy-soen6441riskgame.enums.StrategyName" style="stroke: #A80036; stroke-width: 1.0; stroke-dasharray: 7.0,7.0;"/><polygon fill="#A80036" points="549.333,247.3087,545.333,256.3087,549.333,252.3087,553.333,256.3087,549.333,247.3087" style="stroke: #A80036; stroke-width: 1.0;"/><!--link soen6441riskgame.models.strategies.AggressiveStrategy to soen6441riskgame.enums.StrategyName--><path d="M107.5,48.23 C107.5,89.173 107.5,178 107.5,178 C107.5,178 462.362,178 462.362,178 " fill="none" id="soen6441riskgame.models.strategies.AggressiveStrategy-soen6441riskgame.enums.StrategyName" style="stroke: #A80036; stroke-width: 1.0; stroke-dasharray: 7.0,7.0;"/><polygon fill="#A80036" points="467.362,178,458.362,174,462.362,178,458.362,182,467.362,178" style="stroke: #A80036; stroke-width: 1.0;"/><!--link soen6441riskgame.models.strategies.BenevolentStrategy to soen6441riskgame.enums.StrategyName--><path d="M447.023,28 C463.208,28 474.75,28 474.75,28 C474.75,28 474.75,102.565 474.75,102.565 " fill="none" id="soen6441riskgame.models.strategies.BenevolentStrategy-soen6441riskgame.enums.StrategyName" style="stroke: #A80036; stroke-width: 1.0; stroke-dasharray: 7.0,7.0;"/><polygon fill="#A80036" points="474.75,107.565,478.75,98.565,474.75,102.565,470.75,98.565,474.75,107.565" style="stroke: #A80036; stroke-width: 1.0;"/><!--link soen6441riskgame.models.strategies.CheaterStrategy to soen6441riskgame.enums.StrategyName--><path d="M583.5,48.162 C583.5,48.162 583.5,102.691 583.5,102.691 " fill="none" id="soen6441riskgame.models.strategies.CheaterStrategy-soen6441riskgame.enums.StrategyName" style="stroke: #A80036; stroke-width: 1.0; stroke-dasharray: 7.0,7.0;"/><polygon fill="#A80036" points="583.5,107.691,587.5,98.691,583.5,102.691,579.5,98.691,583.5,107.691" style="stroke: #A80036; stroke-width: 1.0;"/><!--link soen6441riskgame.models.strategies.HumanStrategy to soen6441riskgame.enums.StrategyName--><path d="M719.977,28 C703.792,28 692.25,28 692.25,28 C692.25,28 692.25,102.565 692.25,102.565 " fill="none" id="soen6441riskgame.models.strategies.HumanStrategy-soen6441riskgame.enums.StrategyName" style="stroke: #A80036; stroke-width: 1.0; stroke-dasharray: 7.0,7.0;"/><polygon fill="#A80036" points="692.25,107.565,696.25,98.565,692.25,102.565,688.25,98.565,692.25,107.565" style="stroke: #A80036; stroke-width: 1.0;"/><!--link soen6441riskgame.models.strategies.RandomStrategy to soen6441riskgame.enums.StrategyName--><path d="M1059.5,48.23 C1059.5,89.173 1059.5,178 1059.5,178 C1059.5,178 704.638,178 704.638,178 " fill="none" id="soen6441riskgame.models.strategies.RandomStrategy-soen6441riskgame.enums.StrategyName" style="stroke: #A80036; stroke-width: 1.0; stroke-dasharray: 7.0,7.0;"/><polygon fill="#A80036" points="699.638,178,708.638,182,704.638,178,708.638,174,699.638,178" style="stroke: #A80036; stroke-width: 1.0;"/><!--
@startuml

skinparam svgLinkTarget _parent
skinparam linetype ortho
set namespaceSeparator none
enum "<b><size:14>StrategyName</b>\n<size:10>soen6441riskgame.enums" as soen6441riskgame.enums.StrategyName  [[../../soen6441riskgame/enums/StrategyName.html{soen6441riskgame.enums.StrategyName}]] {
-String name
-StrategyName(String name)
{static} +StrategyName values()
{static} +StrategyName valueOf(String name)
+String getName()
{static} +Strategy fromString(String argumentString)
}


interface "<b><size:14>Strategy</b>\n<size:10>soen6441riskgame.models.strategies" as soen6441riskgame.models.strategies.Strategy  [[../../soen6441riskgame/models/strategies/Strategy.html{soen6441riskgame.models.strategies.Strategy}]] #white {
}

hide soen6441riskgame.models.strategies.Strategy fields
hide soen6441riskgame.models.strategies.Strategy methods

soen6441riskgame.enums.StrategyName ..> soen6441riskgame.models.strategies.Strategy

class "<b><size:14>AggressiveStrategy</b>\n<size:10>soen6441riskgame.models.strategies" as soen6441riskgame.models.strategies.AggressiveStrategy  [[../../soen6441riskgame/models/strategies/AggressiveStrategy.html{soen6441riskgame.models.strategies.AggressiveStrategy}]] #white {
}

hide soen6441riskgame.models.strategies.AggressiveStrategy fields
hide soen6441riskgame.models.strategies.AggressiveStrategy methods

soen6441riskgame.models.strategies.AggressiveStrategy ..> soen6441riskgame.enums.StrategyName

class "<b><size:14>BenevolentStrategy</b>\n<size:10>soen6441riskgame.models.strategies" as soen6441riskgame.models.strategies.BenevolentStrategy  [[../../soen6441riskgame/models/strategies/BenevolentStrategy.html{soen6441riskgame.models.strategies.BenevolentStrategy}]] #white {
}

hide soen6441riskgame.models.strategies.BenevolentStrategy fields
hide soen6441riskgame.models.strategies.BenevolentStrategy methods

soen6441riskgame.models.strategies.BenevolentStrategy ..> soen6441riskgame.enums.StrategyName

class "<b><size:14>CheaterStrategy</b>\n<size:10>soen6441riskgame.models.strategies" as soen6441riskgame.models.strategies.CheaterStrategy  [[../../soen6441riskgame/models/strategies/CheaterStrategy.html{soen6441riskgame.models.strategies.CheaterStrategy}]] #white {
}

hide soen6441riskgame.models.strategies.CheaterStrategy fields
hide soen6441riskgame.models.strategies.CheaterStrategy methods

soen6441riskgame.models.strategies.CheaterStrategy ..> soen6441riskgame.enums.StrategyName

class "<b><size:14>HumanStrategy</b>\n<size:10>soen6441riskgame.models.strategies" as soen6441riskgame.models.strategies.HumanStrategy  [[../../soen6441riskgame/models/strategies/HumanStrategy.html{soen6441riskgame.models.strategies.HumanStrategy}]] #white {
}

hide soen6441riskgame.models.strategies.HumanStrategy fields
hide soen6441riskgame.models.strategies.HumanStrategy methods

soen6441riskgame.models.strategies.HumanStrategy ..> soen6441riskgame.enums.StrategyName

class "<b><size:14>RandomStrategy</b>\n<size:10>soen6441riskgame.models.strategies" as soen6441riskgame.models.strategies.RandomStrategy  [[../../soen6441riskgame/models/strategies/RandomStrategy.html{soen6441riskgame.models.strategies.RandomStrategy}]] #white {
}

hide soen6441riskgame.models.strategies.RandomStrategy fields
hide soen6441riskgame.models.strategies.RandomStrategy methods

soen6441riskgame.models.strategies.RandomStrategy ..> soen6441riskgame.enums.StrategyName

soen6441riskgame.models.strategies.Strategy ..> soen6441riskgame.enums.StrategyName


@enduml

PlantUML version 1.2017.15(Mon Jul 03 12:45:34 EDT 2017)
(GPL source distribution)
Java Runtime: Java(TM) SE Runtime Environment
JVM: Java HotSpot(TM) 64-Bit Server VM
Java Version: 1.8.0_231-b11
Operating System: Windows 10
OS Version: 10.0
Default Encoding: Cp1252
Language: en
Country: US
--></g></svg>