<?xml version="1.0" encoding="UTF-8" standalone="no"?><svg xmlns="http://www.w3.org/2000/svg" xmlns:xlink="http://www.w3.org/1999/xlink" contentScriptType="application/ecmascript" contentStyleType="text/css" height="400px" preserveAspectRatio="none" style="width:454px;height:400px;" version="1.1" viewBox="0 0 454 400" width="454px" zoomAndPan="magnify"><defs><filter height="300%" id="febkrf62sii26" width="300%" x="-1" y="-1"><feGaussianBlur result="blurOut" stdDeviation="2.0"/><feColorMatrix in="blurOut" result="blurOut2" type="matrix" values="0 0 0 0 0 0 0 0 0 0 0 0 0 0 0 0 0 0 .4 0"/><feOffset dx="4.0" dy="4.0" in="blurOut2" result="blurOut3"/><feBlend in="SourceGraphic" in2="blurOut3" mode="normal"/></filter></defs><g><!--class soen6441riskgame.utils.map.ConquestMapReadable--><a target="_parent" xlink:actuate="onRequest" xlink:href="../../../soen6441riskgame/utils/map/ConquestMapReadable.html" xlink:show="new" xlink:title="soen6441riskgame.utils.map.ConquestMapReadable" xlink:type="simple"><rect fill="#FEFECE" filter="url(#febkrf62sii26)" height="180.7109" id="soen6441riskgame.utils.map.ConquestMapReadable" style="stroke: #A80036; stroke-width: 1.5;" width="402" x="41" y="108"/><ellipse cx="160.25" cy="128.0938" fill="#B4A7E5" rx="11" ry="11" style="stroke: #A80036; stroke-width: 1.0;"/><path d="M161.2031,124.7344 L161.2031,131.3906 L162.9219,131.3906 Q163.5313,131.3906 163.7969,131.625 Q164.0625,131.8594 164.0625,132.25 Q164.0625,132.625 163.7969,132.8594 Q163.5313,133.0938 162.9219,133.0938 L157.7813,133.0938 Q157.1719,133.0938 156.9063,132.8594 Q156.6406,132.625 156.6406,132.2344 Q156.6406,131.8594 156.9063,131.625 Q157.1719,131.3906 157.7813,131.3906 L159.5,131.3906 L159.5,124.7344 L157.7813,124.7344 Q157.1719,124.7344 156.9063,124.5 Q156.6406,124.2656 156.6406,123.875 Q156.6406,123.5 156.9063,123.2656 Q157.1719,123.0313 157.7813,123.0313 L162.9219,123.0313 Q163.5313,123.0313 163.7969,123.2656 Q164.0625,123.5 164.0625,123.875 Q164.0625,124.2656 163.7969,124.5 Q163.5313,124.7344 162.9219,124.7344 L161.2031,124.7344 Z "/><text fill="#000000" font-family="sans-serif" font-size="14" font-style="italic" font-weight="bold" lengthAdjust="spacingAndGlyphs" textLength="155" x="180.75" y="127.5332">ConquestMapReadable</text><text fill="#000000" font-family="sans-serif" font-size="10" font-style="italic" lengthAdjust="spacingAndGlyphs" textLength="133" x="191.75" y="140.9902">soen6441riskgame.utils.map</text><line style="stroke: #A80036; stroke-width: 1.5;" x1="42" x2="442" y1="148.1875" y2="148.1875"/><line style="stroke: #A80036; stroke-width: 1.5;" x1="42" x2="442" y1="156.1875" y2="156.1875"/><ellipse cx="52" cy="168.6055" fill="#84BE84" rx="3" ry="3" style="stroke: #038048; stroke-width: 1.0;"/><text fill="#000000" font-family="sans-serif" font-size="11" font-style="italic" lengthAdjust="spacingAndGlyphs" textLength="196" x="61" y="171.6064">void loadConquestMap(String fileName)</text><ellipse cx="52" cy="182.4414" fill="#84BE84" rx="3" ry="3" style="stroke: #038048; stroke-width: 1.0;"/><text fill="#000000" font-family="sans-serif" font-size="11" font-style="italic" lengthAdjust="spacingAndGlyphs" textLength="305" x="61" y="185.4424">int loadConquestMapComponents(List&lt;String&gt; lines,int index)</text><ellipse cx="52" cy="196.2773" fill="#84BE84" rx="3" ry="3" style="stroke: #038048; stroke-width: 1.0;"/><text fill="#000000" font-family="sans-serif" font-size="11" font-style="italic" lengthAdjust="spacingAndGlyphs" textLength="261" x="61" y="199.2783">int loadConquestMapInfo(List&lt;String&gt; lines,int index)</text><ellipse cx="52" cy="210.1133" fill="#84BE84" rx="3" ry="3" style="stroke: #038048; stroke-width: 1.0;"/><text fill="#000000" font-family="sans-serif" font-size="11" font-style="italic" lengthAdjust="spacingAndGlyphs" textLength="376" x="61" y="213.1143">int loadContinentsFromConquestFile(int currentLineIndex,List&lt;String&gt; lines)</text><ellipse cx="52" cy="223.9492" fill="#84BE84" rx="3" ry="3" style="stroke: #038048; stroke-width: 1.0;"/><text fill="#000000" font-family="sans-serif" font-size="11" font-style="italic" lengthAdjust="spacingAndGlyphs" textLength="371" x="61" y="226.9502">int loadCountriesFromConquestFile(int currentLineIndex,List&lt;String&gt; lines)</text><ellipse cx="52" cy="237.7852" fill="#84BE84" rx="3" ry="3" style="stroke: #038048; stroke-width: 1.0;"/><text fill="#000000" font-family="sans-serif" font-size="11" font-style="italic" lengthAdjust="spacingAndGlyphs" textLength="230" x="61" y="240.7861">void writeMapToConquestFile(String fileName)</text><ellipse cx="52" cy="251.6211" fill="#84BE84" rx="3" ry="3" style="stroke: #038048; stroke-width: 1.0;"/><text fill="#000000" font-family="sans-serif" font-size="11" font-style="italic" lengthAdjust="spacingAndGlyphs" textLength="266" x="61" y="254.6221">void writeContinentsToConquestFile(FileWriter writer)</text><ellipse cx="52" cy="265.457" fill="#84BE84" rx="3" ry="3" style="stroke: #038048; stroke-width: 1.0;"/><text fill="#000000" font-family="sans-serif" font-size="11" font-style="italic" lengthAdjust="spacingAndGlyphs" textLength="261" x="61" y="268.458">void writeCountriesToConquestFile(FileWriter writer)</text><ellipse cx="52" cy="279.293" fill="#84BE84" rx="3" ry="3" style="stroke: #038048; stroke-width: 1.0;"/><text fill="#000000" font-family="sans-serif" font-size="11" lengthAdjust="spacingAndGlyphs" textLength="188" x="61" y="282.2939">String legalizeString(String illegalString)</text></a><!--class soen6441riskgame.controllers.MapController--><a target="_parent" xlink:actuate="onRequest" xlink:href="../../../soen6441riskgame/controllers/MapController.html" xlink:show="new" xlink:title="soen6441riskgame.controllers.MapController" xlink:type="simple"><rect fill="#FFFFFF" filter="url(#febkrf62sii26)" height="40.1875" id="soen6441riskgame.controllers.MapController" style="stroke: #A80036; stroke-width: 1.5;" width="171" x="54.5" y="8"/><rect fill="#FFFFFF" height="40.1875" style="stroke: #A80036; stroke-width: 1.5;" width="171" x="54.5" y="8"/><ellipse cx="69.5" cy="28.0938" fill="#ADD1B2" rx="11" ry="11" style="stroke: #A80036; stroke-width: 1.0;"/><path d="M72.2656,23.9688 Q72.4219,23.75 72.6094,23.6406 Q72.7969,23.5313 73.0156,23.5313 Q73.3906,23.5313 73.625,23.7891 Q73.8594,24.0469 73.8594,24.6563 L73.8594,26.1094 Q73.8594,26.7188 73.625,26.9844 Q73.3906,27.25 73.0156,27.25 Q72.6719,27.25 72.4688,27.0469 Q72.2656,26.8594 72.1563,26.3438 Q72.1094,25.9844 71.9219,25.7969 Q71.5938,25.4219 70.9844,25.2031 Q70.375,24.9844 69.75,24.9844 Q68.9844,24.9844 68.3516,25.3125 Q67.7188,25.6406 67.2266,26.3906 Q66.7344,27.1406 66.7344,28.1719 L66.7344,29.2656 Q66.7344,30.5 67.625,31.3203 Q68.5156,32.1406 70.1094,32.1406 Q71.0469,32.1406 71.7031,31.8906 Q72.0938,31.7344 72.5156,31.2969 Q72.7813,31.0313 72.9297,30.9531 Q73.0781,30.875 73.2813,30.875 Q73.6094,30.875 73.8672,31.1328 Q74.125,31.3906 74.125,31.7344 Q74.125,32.0781 73.7813,32.4844 Q73.2813,33.0625 72.4844,33.3906 Q71.4063,33.8438 70.1094,33.8438 Q68.5938,33.8438 67.3906,33.2188 Q66.4063,32.7188 65.7188,31.6484 Q65.0313,30.5781 65.0313,29.2969 L65.0313,28.1406 Q65.0313,26.8125 65.6484,25.6641 Q66.2656,24.5156 67.3594,23.8984 Q68.4531,23.2813 69.6875,23.2813 Q70.4219,23.2813 71.0703,23.4453 Q71.7188,23.6094 72.2656,23.9688 Z "/><text fill="#000000" font-family="sans-serif" font-size="14" font-weight="bold" lengthAdjust="spacingAndGlyphs" textLength="101" x="102.5" y="27.5332">MapController</text><text fill="#000000" font-family="sans-serif" font-size="10" lengthAdjust="spacingAndGlyphs" textLength="139" x="83.5" y="40.9902">soen6441riskgame.controllers</text></a><!--class soen6441riskgame.utils.map.MapReadable--><a target="_parent" xlink:actuate="onRequest" xlink:href="../../../soen6441riskgame/utils/map/MapReadable.html" xlink:show="new" xlink:title="soen6441riskgame.utils.map.MapReadable" xlink:type="simple"><rect fill="#FEFECE" filter="url(#febkrf62sii26)" height="40.1875" id="soen6441riskgame.utils.map.MapReadable" style="stroke: #A80036; stroke-width: 1.5;" width="165" x="75.5" y="349"/><ellipse cx="90.5" cy="369.0938" fill="#B4A7E5" rx="11" ry="11" style="stroke: #A80036; stroke-width: 1.0;"/><path d="M91.4531,365.7344 L91.4531,372.3906 L93.1719,372.3906 Q93.7813,372.3906 94.0469,372.625 Q94.3125,372.8594 94.3125,373.25 Q94.3125,373.625 94.0469,373.8594 Q93.7813,374.0938 93.1719,374.0938 L88.0313,374.0938 Q87.4219,374.0938 87.1563,373.8594 Q86.8906,373.625 86.8906,373.2344 Q86.8906,372.8594 87.1563,372.625 Q87.4219,372.3906 88.0313,372.3906 L89.75,372.3906 L89.75,365.7344 L88.0313,365.7344 Q87.4219,365.7344 87.1563,365.5 Q86.8906,365.2656 86.8906,364.875 Q86.8906,364.5 87.1563,364.2656 Q87.4219,364.0313 88.0313,364.0313 L93.1719,364.0313 Q93.7813,364.0313 94.0469,364.2656 Q94.3125,364.5 94.3125,364.875 Q94.3125,365.2656 94.0469,365.5 Q93.7813,365.7344 93.1719,365.7344 L91.4531,365.7344 Z "/><text fill="#000000" font-family="sans-serif" font-size="14" font-style="italic" font-weight="bold" lengthAdjust="spacingAndGlyphs" textLength="90" x="126" y="368.5332">MapReadable</text><text fill="#000000" font-family="sans-serif" font-size="10" font-style="italic" lengthAdjust="spacingAndGlyphs" textLength="133" x="104.5" y="381.9902">soen6441riskgame.utils.map</text></a><!--class java.io.FileWriter--><rect fill="#D3D3D3" filter="url(#febkrf62sii26)" height="40.1875" id="java.io.FileWriter" style="stroke: #A80036; stroke-width: 1.5;" width="101" x="275.5" y="349"/><rect fill="#D3D3D3" height="40.1875" style="stroke: #A80036; stroke-width: 1.5;" width="101" x="275.5" y="349"/><ellipse cx="290.5" cy="369.0938" fill="#ADD1B2" rx="11" ry="11" style="stroke: #A80036; stroke-width: 1.0;"/><path d="M293.2656,364.9688 Q293.4219,364.75 293.6094,364.6406 Q293.7969,364.5313 294.0156,364.5313 Q294.3906,364.5313 294.625,364.7891 Q294.8594,365.0469 294.8594,365.6563 L294.8594,367.1094 Q294.8594,367.7188 294.625,367.9844 Q294.3906,368.25 294.0156,368.25 Q293.6719,368.25 293.4688,368.0469 Q293.2656,367.8594 293.1563,367.3438 Q293.1094,366.9844 292.9219,366.7969 Q292.5938,366.4219 291.9844,366.2031 Q291.375,365.9844 290.75,365.9844 Q289.9844,365.9844 289.3516,366.3125 Q288.7188,366.6406 288.2266,367.3906 Q287.7344,368.1406 287.7344,369.1719 L287.7344,370.2656 Q287.7344,371.5 288.625,372.3203 Q289.5156,373.1406 291.1094,373.1406 Q292.0469,373.1406 292.7031,372.8906 Q293.0938,372.7344 293.5156,372.2969 Q293.7813,372.0313 293.9297,371.9531 Q294.0781,371.875 294.2813,371.875 Q294.6094,371.875 294.8672,372.1328 Q295.125,372.3906 295.125,372.7344 Q295.125,373.0781 294.7813,373.4844 Q294.2813,374.0625 293.4844,374.3906 Q292.4063,374.8438 291.1094,374.8438 Q289.5938,374.8438 288.3906,374.2188 Q287.4063,373.7188 286.7188,372.6484 Q286.0313,371.5781 286.0313,370.2969 L286.0313,369.1406 Q286.0313,367.8125 286.6484,366.6641 Q287.2656,365.5156 288.3594,364.8984 Q289.4531,364.2813 290.6875,364.2813 Q291.4219,364.2813 292.0703,364.4453 Q292.7188,364.6094 293.2656,364.9688 Z "/><text fill="#000000" font-family="sans-serif" font-size="14" font-weight="bold" lengthAdjust="spacingAndGlyphs" textLength="69" x="304.5" y="368.5332">FileWriter</text><text fill="#000000" font-family="sans-serif" font-size="10" lengthAdjust="spacingAndGlyphs" textLength="32" x="323" y="381.9902">java.io</text><!--class soen6441riskgame.utils.map.MapReaderAdapter--><a target="_parent" xlink:actuate="onRequest" xlink:href="../../../soen6441riskgame/utils/map/MapReaderAdapter.html" xlink:show="new" xlink:title="soen6441riskgame.utils.map.MapReaderAdapter" xlink:type="simple"><rect fill="#FEFECE" filter="url(#febkrf62sii26)" height="40.1875" id="soen6441riskgame.utils.map.MapReaderAdapter" style="stroke: #A80036; stroke-width: 1.5;" width="168" x="261" y="8"/><ellipse cx="276" cy="28.0938" fill="#ADD1B2" rx="11" ry="11" style="stroke: #A80036; stroke-width: 1.0;"/><path d="M278.7656,23.9688 Q278.9219,23.75 279.1094,23.6406 Q279.2969,23.5313 279.5156,23.5313 Q279.8906,23.5313 280.125,23.7891 Q280.3594,24.0469 280.3594,24.6563 L280.3594,26.1094 Q280.3594,26.7188 280.125,26.9844 Q279.8906,27.25 279.5156,27.25 Q279.1719,27.25 278.9688,27.0469 Q278.7656,26.8594 278.6563,26.3438 Q278.6094,25.9844 278.4219,25.7969 Q278.0938,25.4219 277.4844,25.2031 Q276.875,24.9844 276.25,24.9844 Q275.4844,24.9844 274.8516,25.3125 Q274.2188,25.6406 273.7266,26.3906 Q273.2344,27.1406 273.2344,28.1719 L273.2344,29.2656 Q273.2344,30.5 274.125,31.3203 Q275.0156,32.1406 276.6094,32.1406 Q277.5469,32.1406 278.2031,31.8906 Q278.5938,31.7344 279.0156,31.2969 Q279.2813,31.0313 279.4297,30.9531 Q279.5781,30.875 279.7813,30.875 Q280.1094,30.875 280.3672,31.1328 Q280.625,31.3906 280.625,31.7344 Q280.625,32.0781 280.2813,32.4844 Q279.7813,33.0625 278.9844,33.3906 Q277.9063,33.8438 276.6094,33.8438 Q275.0938,33.8438 273.8906,33.2188 Q272.9063,32.7188 272.2188,31.6484 Q271.5313,30.5781 271.5313,29.2969 L271.5313,28.1406 Q271.5313,26.8125 272.1484,25.6641 Q272.7656,24.5156 273.8594,23.8984 Q274.9531,23.2813 276.1875,23.2813 Q276.9219,23.2813 277.5703,23.4453 Q278.2188,23.6094 278.7656,23.9688 Z "/><text fill="#000000" font-family="sans-serif" font-size="14" font-weight="bold" lengthAdjust="spacingAndGlyphs" textLength="136" x="290" y="27.5332">MapReaderAdapter</text><text fill="#000000" font-family="sans-serif" font-size="10" lengthAdjust="spacingAndGlyphs" textLength="133" x="291.5" y="40.9902">soen6441riskgame.utils.map</text></a><!--link soen6441riskgame.controllers.MapController to soen6441riskgame.utils.map.ConquestMapReadable--><path d="M140,48.228 C140,48.228 140,102.782 140,102.782 " fill="none" id="soen6441riskgame.controllers.MapController-soen6441riskgame.utils.map.ConquestMapReadable" style="stroke: #A80036; stroke-width: 1.0;"/><polygon fill="#A80036" points="140,107.782,144,98.782,140,102.782,136,98.782,140,107.782" style="stroke: #A80036; stroke-width: 1.0;"/><text fill="#000000" font-family="sans-serif" font-size="13" lengthAdjust="spacingAndGlyphs" textLength="119" x="7.6258" y="97.1286">conquestMapReader</text><!--link soen6441riskgame.utils.map.ConquestMapReadable to soen6441riskgame.utils.map.MapReadable--><path d="M158,289.2412 C158,289.2412 158,328.7521 158,328.7521 " fill="none" id="soen6441riskgame.utils.map.ConquestMapReadable-soen6441riskgame.utils.map.MapReadable" style="stroke: #A80036; stroke-width: 1.0;"/><polygon fill="none" points="165,328.7522,158,348.7521,151,328.7521,165,328.7522" style="stroke: #A80036; stroke-width: 1.0;"/><!--link soen6441riskgame.utils.map.ConquestMapReadable to java.io.FileWriter--><path d="M326,289.2412 C326,289.2412 326,343.7521 326,343.7521 " fill="none" id="soen6441riskgame.utils.map.ConquestMapReadable-java.io.FileWriter" style="stroke: #A80036; stroke-width: 1.0; stroke-dasharray: 7.0,7.0;"/><polygon fill="#A80036" points="326,348.7521,330,339.7521,326,343.7521,322,339.7521,326,348.7521" style="stroke: #A80036; stroke-width: 1.0;"/><!--link soen6441riskgame.utils.map.MapReaderAdapter to soen6441riskgame.utils.map.ConquestMapReadable--><path d="M345,48.228 C345,48.228 345,87.782 345,87.782 " fill="none" id="soen6441riskgame.utils.map.MapReaderAdapter-soen6441riskgame.utils.map.ConquestMapReadable" style="stroke: #A80036; stroke-width: 1.0; stroke-dasharray: 7.0,7.0;"/><polygon fill="none" points="352,87.782,345,107.782,338,87.782,352,87.782" style="stroke: #A80036; stroke-width: 1.0;"/><!--
@startuml

skinparam svgLinkTarget _parent
skinparam linetype ortho
set namespaceSeparator none
interface "<b><size:14>ConquestMapReadable</b>\n<size:10>soen6441riskgame.utils.map" as soen6441riskgame.utils.map.ConquestMapReadable  [[../../../soen6441riskgame/utils/map/ConquestMapReadable.html{soen6441riskgame.utils.map.ConquestMapReadable}]] {
{abstract} +void loadConquestMap(String fileName)
{abstract} +int loadConquestMapComponents(List<String> lines,int index)
{abstract} +int loadConquestMapInfo(List<String> lines,int index)
{abstract} +int loadContinentsFromConquestFile(int currentLineIndex,List<String> lines)
{abstract} +int loadCountriesFromConquestFile(int currentLineIndex,List<String> lines)
{abstract} +void writeMapToConquestFile(String fileName)
{abstract} +void writeContinentsToConquestFile(FileWriter writer)
{abstract} +void writeCountriesToConquestFile(FileWriter writer)
+String legalizeString(String illegalString)
}


class "<b><size:14>MapController</b>\n<size:10>soen6441riskgame.controllers" as soen6441riskgame.controllers.MapController  [[../../../soen6441riskgame/controllers/MapController.html{soen6441riskgame.controllers.MapController}]] #white {
}

hide soen6441riskgame.controllers.MapController fields
hide soen6441riskgame.controllers.MapController methods

soen6441riskgame.controllers.MapController - ->  "conquestMapReader" soen6441riskgame.utils.map.ConquestMapReadable

interface "<b><size:14>MapReadable</b>\n<size:10>soen6441riskgame.utils.map" as soen6441riskgame.utils.map.MapReadable  [[../../../soen6441riskgame/utils/map/MapReadable.html{soen6441riskgame.utils.map.MapReadable}]] {
}

hide soen6441riskgame.utils.map.MapReadable fields
hide soen6441riskgame.utils.map.MapReadable methods

soen6441riskgame.utils.map.ConquestMapReadable - -|> soen6441riskgame.utils.map.MapReadable


class "<b><size:14>FileWriter</b>\n<size:10>java.io" as java.io.FileWriter  #lightgrey {
}

hide java.io.FileWriter fields
hide java.io.FileWriter methods

soen6441riskgame.utils.map.ConquestMapReadable ..> java.io.FileWriter

class "<b><size:14>MapReaderAdapter</b>\n<size:10>soen6441riskgame.utils.map" as soen6441riskgame.utils.map.MapReaderAdapter  [[../../../soen6441riskgame/utils/map/MapReaderAdapter.html{soen6441riskgame.utils.map.MapReaderAdapter}]] {
}

hide soen6441riskgame.utils.map.MapReaderAdapter fields
hide soen6441riskgame.utils.map.MapReaderAdapter methods

soen6441riskgame.utils.map.MapReaderAdapter ..|> soen6441riskgame.utils.map.ConquestMapReadable


@enduml

PlantUML version 1.2017.15(Mon Jul 03 12:45:34 EDT 2017)
(GPL source distribution)
Java Runtime: Java(TM) SE Runtime Environment
JVM: Java HotSpot(TM) 64-Bit Server VM
Java Version: 1.8.0_231-b11
Operating System: Windows 10
OS Version: 10.0
Default Encoding: Cp1252
Language: en
Country: US
--></g></svg>