<?xml version="1.0" encoding="UTF-8" standalone="no"?><svg xmlns="http://www.w3.org/2000/svg" xmlns:xlink="http://www.w3.org/1999/xlink" contentScriptType="application/ecmascript" contentStyleType="text/css" height="400px" preserveAspectRatio="none" style="width:445px;height:400px;" version="1.1" viewBox="0 0 445 400" width="445px" zoomAndPan="magnify"><defs><filter height="300%" id="fyc9khb0gmvr8" width="300%" x="-1" y="-1"><feGaussianBlur result="blurOut" stdDeviation="2.0"/><feColorMatrix in="blurOut" result="blurOut2" type="matrix" values="0 0 0 0 0 0 0 0 0 0 0 0 0 0 0 0 0 0 .4 0"/><feOffset dx="4.0" dy="4.0" in="blurOut2" result="blurOut3"/><feBlend in="SourceGraphic" in2="blurOut3" mode="normal"/></filter></defs><g><!--class soen6441riskgame.utils.map.DominationMapReadable--><a target="_parent" xlink:actuate="onRequest" xlink:href="../../../soen6441riskgame/utils/map/DominationMapReadable.html" xlink:show="new" xlink:title="soen6441riskgame.utils.map.DominationMapReadable" xlink:type="simple"><rect fill="#FEFECE" filter="url(#fyc9khb0gmvr8)" height="180.7109" id="soen6441riskgame.utils.map.DominationMapReadable" style="stroke: #A80036; stroke-width: 1.5;" width="355" x="69.5" y="108"/><ellipse cx="159.25" cy="128.0938" fill="#B4A7E5" rx="11" ry="11" style="stroke: #A80036; stroke-width: 1.0;"/><path d="M160.2031,124.7344 L160.2031,131.3906 L161.9219,131.3906 Q162.5313,131.3906 162.7969,131.625 Q163.0625,131.8594 163.0625,132.25 Q163.0625,132.625 162.7969,132.8594 Q162.5313,133.0938 161.9219,133.0938 L156.7813,133.0938 Q156.1719,133.0938 155.9063,132.8594 Q155.6406,132.625 155.6406,132.2344 Q155.6406,131.8594 155.9063,131.625 Q156.1719,131.3906 156.7813,131.3906 L158.5,131.3906 L158.5,124.7344 L156.7813,124.7344 Q156.1719,124.7344 155.9063,124.5 Q155.6406,124.2656 155.6406,123.875 Q155.6406,123.5 155.9063,123.2656 Q156.1719,123.0313 156.7813,123.0313 L161.9219,123.0313 Q162.5313,123.0313 162.7969,123.2656 Q163.0625,123.5 163.0625,123.875 Q163.0625,124.2656 162.7969,124.5 Q162.5313,124.7344 161.9219,124.7344 L160.2031,124.7344 Z "/><text fill="#000000" font-family="sans-serif" font-size="14" font-style="italic" font-weight="bold" lengthAdjust="spacingAndGlyphs" textLength="167" x="179.75" y="127.5332">DominationMapReadable</text><text fill="#000000" font-family="sans-serif" font-size="10" font-style="italic" lengthAdjust="spacingAndGlyphs" textLength="133" x="196.75" y="140.9902">soen6441riskgame.utils.map</text><line style="stroke: #A80036; stroke-width: 1.5;" x1="70.5" x2="423.5" y1="148.1875" y2="148.1875"/><line style="stroke: #A80036; stroke-width: 1.5;" x1="70.5" x2="423.5" y1="156.1875" y2="156.1875"/><ellipse cx="80.5" cy="168.6055" fill="#84BE84" rx="3" ry="3" style="stroke: #038048; stroke-width: 1.0;"/><text fill="#000000" font-family="sans-serif" font-size="11" font-style="italic" lengthAdjust="spacingAndGlyphs" textLength="149" x="89.5" y="171.6064">void loadMap(String fileName)</text><ellipse cx="80.5" cy="182.4414" fill="#84BE84" rx="3" ry="3" style="stroke: #038048; stroke-width: 1.0;"/><text fill="#000000" font-family="sans-serif" font-size="11" font-style="italic" lengthAdjust="spacingAndGlyphs" textLength="258" x="89.5" y="185.4424">int loadMapComponents(List&lt;String&gt; lines,int index)</text><ellipse cx="80.5" cy="196.2773" fill="#84BE84" rx="3" ry="3" style="stroke: #038048; stroke-width: 1.0;"/><text fill="#000000" font-family="sans-serif" font-size="11" font-style="italic" lengthAdjust="spacingAndGlyphs" textLength="329" x="89.5" y="199.2783">int loadContinentsFromFile(int currentLineIndex,List&lt;String&gt; lines)</text><ellipse cx="80.5" cy="210.1133" fill="#84BE84" rx="3" ry="3" style="stroke: #038048; stroke-width: 1.0;"/><text fill="#000000" font-family="sans-serif" font-size="11" font-style="italic" lengthAdjust="spacingAndGlyphs" textLength="324" x="89.5" y="213.1143">int loadCountriesFromFile(int currentLineIndex,List&lt;String&gt; lines)</text><ellipse cx="80.5" cy="223.9492" fill="#84BE84" rx="3" ry="3" style="stroke: #038048; stroke-width: 1.0;"/><text fill="#000000" font-family="sans-serif" font-size="11" font-style="italic" lengthAdjust="spacingAndGlyphs" textLength="315" x="89.5" y="226.9502">int loadBordersFromFile(int currentLineIndex,List&lt;String&gt; lines)</text><ellipse cx="80.5" cy="237.7852" fill="#84BE84" rx="3" ry="3" style="stroke: #038048; stroke-width: 1.0;"/><text fill="#000000" font-family="sans-serif" font-size="11" font-style="italic" lengthAdjust="spacingAndGlyphs" textLength="183" x="89.5" y="240.7861">void writeMapToFile(String fileName)</text><ellipse cx="80.5" cy="251.6211" fill="#84BE84" rx="3" ry="3" style="stroke: #038048; stroke-width: 1.0;"/><text fill="#000000" font-family="sans-serif" font-size="11" font-style="italic" lengthAdjust="spacingAndGlyphs" textLength="219" x="89.5" y="254.6221">void writeContinentsToFile(FileWriter writer)</text><ellipse cx="80.5" cy="265.457" fill="#84BE84" rx="3" ry="3" style="stroke: #038048; stroke-width: 1.0;"/><text fill="#000000" font-family="sans-serif" font-size="11" font-style="italic" lengthAdjust="spacingAndGlyphs" textLength="205" x="89.5" y="268.458">void writeBordersToFile(FileWriter writer)</text><ellipse cx="80.5" cy="279.293" fill="#84BE84" rx="3" ry="3" style="stroke: #038048; stroke-width: 1.0;"/><text fill="#000000" font-family="sans-serif" font-size="11" font-style="italic" lengthAdjust="spacingAndGlyphs" textLength="214" x="89.5" y="282.2939">void writeCountriesToFile(FileWriter writer)</text></a><!--class soen6441riskgame.controllers.MapController--><a target="_parent" xlink:actuate="onRequest" xlink:href="../../../soen6441riskgame/controllers/MapController.html" xlink:show="new" xlink:title="soen6441riskgame.controllers.MapController" xlink:type="simple"><rect fill="#FFFFFF" filter="url(#fyc9khb0gmvr8)" height="40.1875" id="soen6441riskgame.controllers.MapController" style="stroke: #A80036; stroke-width: 1.5;" width="171" x="59.5" y="8"/><rect fill="#FFFFFF" height="40.1875" style="stroke: #A80036; stroke-width: 1.5;" width="171" x="59.5" y="8"/><ellipse cx="74.5" cy="28.0938" fill="#ADD1B2" rx="11" ry="11" style="stroke: #A80036; stroke-width: 1.0;"/><path d="M77.2656,23.9688 Q77.4219,23.75 77.6094,23.6406 Q77.7969,23.5313 78.0156,23.5313 Q78.3906,23.5313 78.625,23.7891 Q78.8594,24.0469 78.8594,24.6563 L78.8594,26.1094 Q78.8594,26.7188 78.625,26.9844 Q78.3906,27.25 78.0156,27.25 Q77.6719,27.25 77.4688,27.0469 Q77.2656,26.8594 77.1563,26.3438 Q77.1094,25.9844 76.9219,25.7969 Q76.5938,25.4219 75.9844,25.2031 Q75.375,24.9844 74.75,24.9844 Q73.9844,24.9844 73.3516,25.3125 Q72.7188,25.6406 72.2266,26.3906 Q71.7344,27.1406 71.7344,28.1719 L71.7344,29.2656 Q71.7344,30.5 72.625,31.3203 Q73.5156,32.1406 75.1094,32.1406 Q76.0469,32.1406 76.7031,31.8906 Q77.0938,31.7344 77.5156,31.2969 Q77.7813,31.0313 77.9297,30.9531 Q78.0781,30.875 78.2813,30.875 Q78.6094,30.875 78.8672,31.1328 Q79.125,31.3906 79.125,31.7344 Q79.125,32.0781 78.7813,32.4844 Q78.2813,33.0625 77.4844,33.3906 Q76.4063,33.8438 75.1094,33.8438 Q73.5938,33.8438 72.3906,33.2188 Q71.4063,32.7188 70.7188,31.6484 Q70.0313,30.5781 70.0313,29.2969 L70.0313,28.1406 Q70.0313,26.8125 70.6484,25.6641 Q71.2656,24.5156 72.3594,23.8984 Q73.4531,23.2813 74.6875,23.2813 Q75.4219,23.2813 76.0703,23.4453 Q76.7188,23.6094 77.2656,23.9688 Z "/><text fill="#000000" font-family="sans-serif" font-size="14" font-weight="bold" lengthAdjust="spacingAndGlyphs" textLength="101" x="107.5" y="27.5332">MapController</text><text fill="#000000" font-family="sans-serif" font-size="10" lengthAdjust="spacingAndGlyphs" textLength="139" x="88.5" y="40.9902">soen6441riskgame.controllers</text></a><!--class soen6441riskgame.utils.map.MapReadable--><a target="_parent" xlink:actuate="onRequest" xlink:href="../../../soen6441riskgame/utils/map/MapReadable.html" xlink:show="new" xlink:title="soen6441riskgame.utils.map.MapReadable" xlink:type="simple"><rect fill="#FEFECE" filter="url(#fyc9khb0gmvr8)" height="40.1875" id="soen6441riskgame.utils.map.MapReadable" style="stroke: #A80036; stroke-width: 1.5;" width="165" x="80.5" y="349"/><ellipse cx="95.5" cy="369.0938" fill="#B4A7E5" rx="11" ry="11" style="stroke: #A80036; stroke-width: 1.0;"/><path d="M96.4531,365.7344 L96.4531,372.3906 L98.1719,372.3906 Q98.7813,372.3906 99.0469,372.625 Q99.3125,372.8594 99.3125,373.25 Q99.3125,373.625 99.0469,373.8594 Q98.7813,374.0938 98.1719,374.0938 L93.0313,374.0938 Q92.4219,374.0938 92.1563,373.8594 Q91.8906,373.625 91.8906,373.2344 Q91.8906,372.8594 92.1563,372.625 Q92.4219,372.3906 93.0313,372.3906 L94.75,372.3906 L94.75,365.7344 L93.0313,365.7344 Q92.4219,365.7344 92.1563,365.5 Q91.8906,365.2656 91.8906,364.875 Q91.8906,364.5 92.1563,364.2656 Q92.4219,364.0313 93.0313,364.0313 L98.1719,364.0313 Q98.7813,364.0313 99.0469,364.2656 Q99.3125,364.5 99.3125,364.875 Q99.3125,365.2656 99.0469,365.5 Q98.7813,365.7344 98.1719,365.7344 L96.4531,365.7344 Z "/><text fill="#000000" font-family="sans-serif" font-size="14" font-style="italic" font-weight="bold" lengthAdjust="spacingAndGlyphs" textLength="90" x="131" y="368.5332">MapReadable</text><text fill="#000000" font-family="sans-serif" font-size="10" font-style="italic" lengthAdjust="spacingAndGlyphs" textLength="133" x="109.5" y="381.9902">soen6441riskgame.utils.map</text></a><!--class java.io.FileWriter--><rect fill="#D3D3D3" filter="url(#fyc9khb0gmvr8)" height="40.1875" id="java.io.FileWriter" style="stroke: #A80036; stroke-width: 1.5;" width="101" x="280.5" y="349"/><rect fill="#D3D3D3" height="40.1875" style="stroke: #A80036; stroke-width: 1.5;" width="101" x="280.5" y="349"/><ellipse cx="295.5" cy="369.0938" fill="#ADD1B2" rx="11" ry="11" style="stroke: #A80036; stroke-width: 1.0;"/><path d="M298.2656,364.9688 Q298.4219,364.75 298.6094,364.6406 Q298.7969,364.5313 299.0156,364.5313 Q299.3906,364.5313 299.625,364.7891 Q299.8594,365.0469 299.8594,365.6563 L299.8594,367.1094 Q299.8594,367.7188 299.625,367.9844 Q299.3906,368.25 299.0156,368.25 Q298.6719,368.25 298.4688,368.0469 Q298.2656,367.8594 298.1563,367.3438 Q298.1094,366.9844 297.9219,366.7969 Q297.5938,366.4219 296.9844,366.2031 Q296.375,365.9844 295.75,365.9844 Q294.9844,365.9844 294.3516,366.3125 Q293.7188,366.6406 293.2266,367.3906 Q292.7344,368.1406 292.7344,369.1719 L292.7344,370.2656 Q292.7344,371.5 293.625,372.3203 Q294.5156,373.1406 296.1094,373.1406 Q297.0469,373.1406 297.7031,372.8906 Q298.0938,372.7344 298.5156,372.2969 Q298.7813,372.0313 298.9297,371.9531 Q299.0781,371.875 299.2813,371.875 Q299.6094,371.875 299.8672,372.1328 Q300.125,372.3906 300.125,372.7344 Q300.125,373.0781 299.7813,373.4844 Q299.2813,374.0625 298.4844,374.3906 Q297.4063,374.8438 296.1094,374.8438 Q294.5938,374.8438 293.3906,374.2188 Q292.4063,373.7188 291.7188,372.6484 Q291.0313,371.5781 291.0313,370.2969 L291.0313,369.1406 Q291.0313,367.8125 291.6484,366.6641 Q292.2656,365.5156 293.3594,364.8984 Q294.4531,364.2813 295.6875,364.2813 Q296.4219,364.2813 297.0703,364.4453 Q297.7188,364.6094 298.2656,364.9688 Z "/><text fill="#000000" font-family="sans-serif" font-size="14" font-weight="bold" lengthAdjust="spacingAndGlyphs" textLength="69" x="309.5" y="368.5332">FileWriter</text><text fill="#000000" font-family="sans-serif" font-size="10" lengthAdjust="spacingAndGlyphs" textLength="32" x="328" y="381.9902">java.io</text><!--class soen6441riskgame.utils.map.MapReaderAdapter--><a target="_parent" xlink:actuate="onRequest" xlink:href="../../../soen6441riskgame/utils/map/MapReaderAdapter.html" xlink:show="new" xlink:title="soen6441riskgame.utils.map.MapReaderAdapter" xlink:type="simple"><rect fill="#FEFECE" filter="url(#fyc9khb0gmvr8)" height="40.1875" id="soen6441riskgame.utils.map.MapReaderAdapter" style="stroke: #A80036; stroke-width: 1.5;" width="168" x="266" y="8"/><ellipse cx="281" cy="28.0938" fill="#ADD1B2" rx="11" ry="11" style="stroke: #A80036; stroke-width: 1.0;"/><path d="M283.7656,23.9688 Q283.9219,23.75 284.1094,23.6406 Q284.2969,23.5313 284.5156,23.5313 Q284.8906,23.5313 285.125,23.7891 Q285.3594,24.0469 285.3594,24.6563 L285.3594,26.1094 Q285.3594,26.7188 285.125,26.9844 Q284.8906,27.25 284.5156,27.25 Q284.1719,27.25 283.9688,27.0469 Q283.7656,26.8594 283.6563,26.3438 Q283.6094,25.9844 283.4219,25.7969 Q283.0938,25.4219 282.4844,25.2031 Q281.875,24.9844 281.25,24.9844 Q280.4844,24.9844 279.8516,25.3125 Q279.2188,25.6406 278.7266,26.3906 Q278.2344,27.1406 278.2344,28.1719 L278.2344,29.2656 Q278.2344,30.5 279.125,31.3203 Q280.0156,32.1406 281.6094,32.1406 Q282.5469,32.1406 283.2031,31.8906 Q283.5938,31.7344 284.0156,31.2969 Q284.2813,31.0313 284.4297,30.9531 Q284.5781,30.875 284.7813,30.875 Q285.1094,30.875 285.3672,31.1328 Q285.625,31.3906 285.625,31.7344 Q285.625,32.0781 285.2813,32.4844 Q284.7813,33.0625 283.9844,33.3906 Q282.9063,33.8438 281.6094,33.8438 Q280.0938,33.8438 278.8906,33.2188 Q277.9063,32.7188 277.2188,31.6484 Q276.5313,30.5781 276.5313,29.2969 L276.5313,28.1406 Q276.5313,26.8125 277.1484,25.6641 Q277.7656,24.5156 278.8594,23.8984 Q279.9531,23.2813 281.1875,23.2813 Q281.9219,23.2813 282.5703,23.4453 Q283.2188,23.6094 283.7656,23.9688 Z "/><text fill="#000000" font-family="sans-serif" font-size="14" font-weight="bold" lengthAdjust="spacingAndGlyphs" textLength="136" x="295" y="27.5332">MapReaderAdapter</text><text fill="#000000" font-family="sans-serif" font-size="10" lengthAdjust="spacingAndGlyphs" textLength="133" x="296.5" y="40.9902">soen6441riskgame.utils.map</text></a><!--link soen6441riskgame.controllers.MapController to soen6441riskgame.utils.map.DominationMapReadable--><path d="M150,48.228 C150,48.228 150,102.782 150,102.782 " fill="none" id="soen6441riskgame.controllers.MapController-soen6441riskgame.utils.map.DominationMapReadable" style="stroke: #A80036; stroke-width: 1.0;"/><polygon fill="#A80036" points="150,107.782,154,98.782,150,102.782,146,98.782,150,107.782" style="stroke: #A80036; stroke-width: 1.0;"/><text fill="#000000" font-family="sans-serif" font-size="13" lengthAdjust="spacingAndGlyphs" textLength="129" x="7.6258" y="97.1286">dominationMapReader</text><!--link soen6441riskgame.utils.map.DominationMapReadable to soen6441riskgame.utils.map.MapReadable--><path d="M163,289.2412 C163,289.2412 163,328.7521 163,328.7521 " fill="none" id="soen6441riskgame.utils.map.DominationMapReadable-soen6441riskgame.utils.map.MapReadable" style="stroke: #A80036; stroke-width: 1.0;"/><polygon fill="none" points="170,328.7522,163,348.7521,156,328.7521,170,328.7522" style="stroke: #A80036; stroke-width: 1.0;"/><!--link soen6441riskgame.utils.map.DominationMapReadable to java.io.FileWriter--><path d="M331,289.2412 C331,289.2412 331,343.7521 331,343.7521 " fill="none" id="soen6441riskgame.utils.map.DominationMapReadable-java.io.FileWriter" style="stroke: #A80036; stroke-width: 1.0; stroke-dasharray: 7.0,7.0;"/><polygon fill="#A80036" points="331,348.7521,335,339.7521,331,343.7521,327,339.7521,331,348.7521" style="stroke: #A80036; stroke-width: 1.0;"/><!--link soen6441riskgame.utils.map.MapReaderAdapter to soen6441riskgame.utils.map.DominationMapReadable--><path d="M345.25,48.228 C345.25,48.228 345.25,87.782 345.25,87.782 " fill="none" id="soen6441riskgame.utils.map.MapReaderAdapter-soen6441riskgame.utils.map.DominationMapReadable" style="stroke: #A80036; stroke-width: 1.0; stroke-dasharray: 7.0,7.0;"/><polygon fill="none" points="352.25,87.782,345.25,107.782,338.25,87.782,352.25,87.782" style="stroke: #A80036; stroke-width: 1.0;"/><!--
@startuml

skinparam svgLinkTarget _parent
skinparam linetype ortho
set namespaceSeparator none
interface "<b><size:14>DominationMapReadable</b>\n<size:10>soen6441riskgame.utils.map" as soen6441riskgame.utils.map.DominationMapReadable  [[../../../soen6441riskgame/utils/map/DominationMapReadable.html{soen6441riskgame.utils.map.DominationMapReadable}]] {
{abstract} +void loadMap(String fileName)
{abstract} +int loadMapComponents(List<String> lines,int index)
{abstract} +int loadContinentsFromFile(int currentLineIndex,List<String> lines)
{abstract} +int loadCountriesFromFile(int currentLineIndex,List<String> lines)
{abstract} +int loadBordersFromFile(int currentLineIndex,List<String> lines)
{abstract} +void writeMapToFile(String fileName)
{abstract} +void writeContinentsToFile(FileWriter writer)
{abstract} +void writeBordersToFile(FileWriter writer)
{abstract} +void writeCountriesToFile(FileWriter writer)
}


class "<b><size:14>MapController</b>\n<size:10>soen6441riskgame.controllers" as soen6441riskgame.controllers.MapController  [[../../../soen6441riskgame/controllers/MapController.html{soen6441riskgame.controllers.MapController}]] #white {
}

hide soen6441riskgame.controllers.MapController fields
hide soen6441riskgame.controllers.MapController methods

soen6441riskgame.controllers.MapController - ->  "dominationMapReader" soen6441riskgame.utils.map.DominationMapReadable

interface "<b><size:14>MapReadable</b>\n<size:10>soen6441riskgame.utils.map" as soen6441riskgame.utils.map.MapReadable  [[../../../soen6441riskgame/utils/map/MapReadable.html{soen6441riskgame.utils.map.MapReadable}]] {
}

hide soen6441riskgame.utils.map.MapReadable fields
hide soen6441riskgame.utils.map.MapReadable methods

soen6441riskgame.utils.map.DominationMapReadable - -|> soen6441riskgame.utils.map.MapReadable


class "<b><size:14>FileWriter</b>\n<size:10>java.io" as java.io.FileWriter  #lightgrey {
}

hide java.io.FileWriter fields
hide java.io.FileWriter methods

soen6441riskgame.utils.map.DominationMapReadable ..> java.io.FileWriter

class "<b><size:14>MapReaderAdapter</b>\n<size:10>soen6441riskgame.utils.map" as soen6441riskgame.utils.map.MapReaderAdapter  [[../../../soen6441riskgame/utils/map/MapReaderAdapter.html{soen6441riskgame.utils.map.MapReaderAdapter}]] {
}

hide soen6441riskgame.utils.map.MapReaderAdapter fields
hide soen6441riskgame.utils.map.MapReaderAdapter methods

soen6441riskgame.utils.map.MapReaderAdapter ..|> soen6441riskgame.utils.map.DominationMapReadable


@enduml

PlantUML version 1.2017.15(Mon Jul 03 12:45:34 EDT 2017)
(GPL source distribution)
Java Runtime: Java(TM) SE Runtime Environment
JVM: Java HotSpot(TM) 64-Bit Server VM
Java Version: 1.8.0_231-b11
Operating System: Windows 10
OS Version: 10.0
Default Encoding: Cp1252
Language: en
Country: US
--></g></svg>