<?xml version="1.0" encoding="UTF-8" standalone="no"?><svg xmlns="http://www.w3.org/2000/svg" xmlns:xlink="http://www.w3.org/1999/xlink" contentScriptType="application/ecmascript" contentStyleType="text/css" height="344px" preserveAspectRatio="none" style="width:438px;height:344px;" version="1.1" viewBox="0 0 438 344" width="438px" zoomAndPan="magnify"><defs><filter height="300%" id="flp741sdp47w0" width="300%" x="-1" y="-1"><feGaussianBlur result="blurOut" stdDeviation="2.0"/><feColorMatrix in="blurOut" result="blurOut2" type="matrix" values="0 0 0 0 0 0 0 0 0 0 0 0 0 0 0 0 0 0 .4 0"/><feOffset dx="4.0" dy="4.0" in="blurOut2" result="blurOut3"/><feBlend in="SourceGraphic" in2="blurOut3" mode="normal"/></filter></defs><g><!--class soen6441riskgame.utils.map.MapReadable--><a target="_parent" xlink:actuate="onRequest" xlink:href="../../../soen6441riskgame/utils/map/MapReadable.html" xlink:show="new" xlink:title="soen6441riskgame.utils.map.MapReadable" xlink:type="simple"><rect fill="#FEFECE" filter="url(#flp741sdp47w0)" height="125.3672" id="soen6441riskgame.utils.map.MapReadable" style="stroke: #A80036; stroke-width: 1.5;" width="411" x="8" y="108"/><ellipse cx="142.75" cy="128.0938" fill="#B4A7E5" rx="11" ry="11" style="stroke: #A80036; stroke-width: 1.0;"/><path d="M143.7031,124.7344 L143.7031,131.3906 L145.4219,131.3906 Q146.0313,131.3906 146.2969,131.625 Q146.5625,131.8594 146.5625,132.25 Q146.5625,132.625 146.2969,132.8594 Q146.0313,133.0938 145.4219,133.0938 L140.2813,133.0938 Q139.6719,133.0938 139.4063,132.8594 Q139.1406,132.625 139.1406,132.2344 Q139.1406,131.8594 139.4063,131.625 Q139.6719,131.3906 140.2813,131.3906 L142,131.3906 L142,124.7344 L140.2813,124.7344 Q139.6719,124.7344 139.4063,124.5 Q139.1406,124.2656 139.1406,123.875 Q139.1406,123.5 139.4063,123.2656 Q139.6719,123.0313 140.2813,123.0313 L145.4219,123.0313 Q146.0313,123.0313 146.2969,123.2656 Q146.5625,123.5 146.5625,123.875 Q146.5625,124.2656 146.2969,124.5 Q146.0313,124.7344 145.4219,124.7344 L143.7031,124.7344 Z "/><text fill="#000000" font-family="sans-serif" font-size="14" font-style="italic" font-weight="bold" lengthAdjust="spacingAndGlyphs" textLength="90" x="184.75" y="127.5332">MapReadable</text><text fill="#000000" font-family="sans-serif" font-size="10" font-style="italic" lengthAdjust="spacingAndGlyphs" textLength="133" x="163.25" y="140.9902">soen6441riskgame.utils.map</text><line style="stroke: #A80036; stroke-width: 1.5;" x1="9" x2="418" y1="148.1875" y2="148.1875"/><line style="stroke: #A80036; stroke-width: 1.5;" x1="9" x2="418" y1="156.1875" y2="156.1875"/><ellipse cx="19" cy="168.6055" fill="#84BE84" rx="3" ry="3" style="stroke: #038048; stroke-width: 1.0;"/><text fill="#000000" font-family="sans-serif" font-size="11" lengthAdjust="spacingAndGlyphs" textLength="345" x="28" y="171.6064">void addContinent(String continentName,String continentValue,int order)</text><ellipse cx="19" cy="182.4414" fill="#84BE84" rx="3" ry="3" style="stroke: #038048; stroke-width: 1.0;"/><text fill="#000000" font-family="sans-serif" font-size="11" lengthAdjust="spacingAndGlyphs" textLength="385" x="28" y="185.4424">void addCountry(int order,String name,int continentOrder,Coordinate coordinate)</text><ellipse cx="19" cy="196.2773" fill="#84BE84" rx="3" ry="3" style="stroke: #038048; stroke-width: 1.0;"/><text fill="#000000" font-family="sans-serif" font-size="11" lengthAdjust="spacingAndGlyphs" textLength="283" x="28" y="199.2783">void addBorders(int countryOrder,int borderWithCountries)</text><ellipse cx="19" cy="210.1133" fill="#84BE84" rx="3" ry="3" style="stroke: #038048; stroke-width: 1.0;"/><text fill="#000000" font-family="sans-serif" font-size="11" lengthAdjust="spacingAndGlyphs" textLength="345" x="28" y="213.1143">boolean isStillInCurrentDataBlock(int currentLineIndex,List&lt;String&gt; lines)</text><ellipse cx="19" cy="223.9492" fill="#84BE84" rx="3" ry="3" style="stroke: #038048; stroke-width: 1.0;"/><text fill="#000000" font-family="sans-serif" font-size="11" lengthAdjust="spacingAndGlyphs" textLength="198" x="28" y="226.9502">List&lt;String&gt; readMapFile(String fileName)</text></a><!--class soen6441riskgame.utils.map.ConquestMapReadable--><a target="_parent" xlink:actuate="onRequest" xlink:href="../../../soen6441riskgame/utils/map/ConquestMapReadable.html" xlink:show="new" xlink:title="soen6441riskgame.utils.map.ConquestMapReadable" xlink:type="simple"><rect fill="#FEFECE" filter="url(#flp741sdp47w0)" height="40.1875" id="soen6441riskgame.utils.map.ConquestMapReadable" style="stroke: #A80036; stroke-width: 1.5;" width="187" x="6" y="8"/><ellipse cx="21" cy="28.0938" fill="#B4A7E5" rx="11" ry="11" style="stroke: #A80036; stroke-width: 1.0;"/><path d="M21.9531,24.7344 L21.9531,31.3906 L23.6719,31.3906 Q24.2813,31.3906 24.5469,31.625 Q24.8125,31.8594 24.8125,32.25 Q24.8125,32.625 24.5469,32.8594 Q24.2813,33.0938 23.6719,33.0938 L18.5313,33.0938 Q17.9219,33.0938 17.6563,32.8594 Q17.3906,32.625 17.3906,32.2344 Q17.3906,31.8594 17.6563,31.625 Q17.9219,31.3906 18.5313,31.3906 L20.25,31.3906 L20.25,24.7344 L18.5313,24.7344 Q17.9219,24.7344 17.6563,24.5 Q17.3906,24.2656 17.3906,23.875 Q17.3906,23.5 17.6563,23.2656 Q17.9219,23.0313 18.5313,23.0313 L23.6719,23.0313 Q24.2813,23.0313 24.5469,23.2656 Q24.8125,23.5 24.8125,23.875 Q24.8125,24.2656 24.5469,24.5 Q24.2813,24.7344 23.6719,24.7344 L21.9531,24.7344 Z "/><text fill="#000000" font-family="sans-serif" font-size="14" font-style="italic" font-weight="bold" lengthAdjust="spacingAndGlyphs" textLength="155" x="35" y="27.5332">ConquestMapReadable</text><text fill="#000000" font-family="sans-serif" font-size="10" font-style="italic" lengthAdjust="spacingAndGlyphs" textLength="133" x="46" y="40.9902">soen6441riskgame.utils.map</text></a><!--class soen6441riskgame.utils.map.DominationMapReadable--><a target="_parent" xlink:actuate="onRequest" xlink:href="../../../soen6441riskgame/utils/map/DominationMapReadable.html" xlink:show="new" xlink:title="soen6441riskgame.utils.map.DominationMapReadable" xlink:type="simple"><rect fill="#FEFECE" filter="url(#flp741sdp47w0)" height="40.1875" id="soen6441riskgame.utils.map.DominationMapReadable" style="stroke: #A80036; stroke-width: 1.5;" width="199" x="228" y="8"/><ellipse cx="243" cy="28.0938" fill="#B4A7E5" rx="11" ry="11" style="stroke: #A80036; stroke-width: 1.0;"/><path d="M243.9531,24.7344 L243.9531,31.3906 L245.6719,31.3906 Q246.2813,31.3906 246.5469,31.625 Q246.8125,31.8594 246.8125,32.25 Q246.8125,32.625 246.5469,32.8594 Q246.2813,33.0938 245.6719,33.0938 L240.5313,33.0938 Q239.9219,33.0938 239.6563,32.8594 Q239.3906,32.625 239.3906,32.2344 Q239.3906,31.8594 239.6563,31.625 Q239.9219,31.3906 240.5313,31.3906 L242.25,31.3906 L242.25,24.7344 L240.5313,24.7344 Q239.9219,24.7344 239.6563,24.5 Q239.3906,24.2656 239.3906,23.875 Q239.3906,23.5 239.6563,23.2656 Q239.9219,23.0313 240.5313,23.0313 L245.6719,23.0313 Q246.2813,23.0313 246.5469,23.2656 Q246.8125,23.5 246.8125,23.875 Q246.8125,24.2656 246.5469,24.5 Q246.2813,24.7344 245.6719,24.7344 L243.9531,24.7344 Z "/><text fill="#000000" font-family="sans-serif" font-size="14" font-style="italic" font-weight="bold" lengthAdjust="spacingAndGlyphs" textLength="167" x="257" y="27.5332">DominationMapReadable</text><text fill="#000000" font-family="sans-serif" font-size="10" font-style="italic" lengthAdjust="spacingAndGlyphs" textLength="133" x="274" y="40.9902">soen6441riskgame.utils.map</text></a><!--class soen6441riskgame.models.Coordinate--><a target="_parent" xlink:actuate="onRequest" xlink:href="../../../soen6441riskgame/models/Coordinate.html" xlink:show="new" xlink:title="soen6441riskgame.models.Coordinate" xlink:type="simple"><rect fill="#FFFFFF" filter="url(#flp741sdp47w0)" height="40.1875" id="soen6441riskgame.models.Coordinate" style="stroke: #A80036; stroke-width: 1.5;" width="156" x="135.5" y="293"/><rect fill="#FFFFFF" height="40.1875" style="stroke: #A80036; stroke-width: 1.5;" width="156" x="135.5" y="293"/><ellipse cx="150.5" cy="313.0938" fill="#ADD1B2" rx="11" ry="11" style="stroke: #A80036; stroke-width: 1.0;"/><path d="M153.2656,308.9688 Q153.4219,308.75 153.6094,308.6406 Q153.7969,308.5313 154.0156,308.5313 Q154.3906,308.5313 154.625,308.7891 Q154.8594,309.0469 154.8594,309.6563 L154.8594,311.1094 Q154.8594,311.7188 154.625,311.9844 Q154.3906,312.25 154.0156,312.25 Q153.6719,312.25 153.4688,312.0469 Q153.2656,311.8594 153.1563,311.3438 Q153.1094,310.9844 152.9219,310.7969 Q152.5938,310.4219 151.9844,310.2031 Q151.375,309.9844 150.75,309.9844 Q149.9844,309.9844 149.3516,310.3125 Q148.7188,310.6406 148.2266,311.3906 Q147.7344,312.1406 147.7344,313.1719 L147.7344,314.2656 Q147.7344,315.5 148.625,316.3203 Q149.5156,317.1406 151.1094,317.1406 Q152.0469,317.1406 152.7031,316.8906 Q153.0938,316.7344 153.5156,316.2969 Q153.7813,316.0313 153.9297,315.9531 Q154.0781,315.875 154.2813,315.875 Q154.6094,315.875 154.8672,316.1328 Q155.125,316.3906 155.125,316.7344 Q155.125,317.0781 154.7813,317.4844 Q154.2813,318.0625 153.4844,318.3906 Q152.4063,318.8438 151.1094,318.8438 Q149.5938,318.8438 148.3906,318.2188 Q147.4063,317.7188 146.7188,316.6484 Q146.0313,315.5781 146.0313,314.2969 L146.0313,313.1406 Q146.0313,311.8125 146.6484,310.6641 Q147.2656,309.5156 148.3594,308.8984 Q149.4531,308.2813 150.6875,308.2813 Q151.4219,308.2813 152.0703,308.4453 Q152.7188,308.6094 153.2656,308.9688 Z "/><text fill="#000000" font-family="sans-serif" font-size="14" font-weight="bold" lengthAdjust="spacingAndGlyphs" textLength="78" x="187.5" y="312.5332">Coordinate</text><text fill="#000000" font-family="sans-serif" font-size="10" lengthAdjust="spacingAndGlyphs" textLength="124" x="164.5" y="325.9902">soen6441riskgame.models</text></a><!--link soen6441riskgame.utils.map.ConquestMapReadable to soen6441riskgame.utils.map.MapReadable--><path d="M100.5,48.115 C100.5,48.115 100.5,87.91 100.5,87.91 " fill="none" id="soen6441riskgame.utils.map.ConquestMapReadable-soen6441riskgame.utils.map.MapReadable" style="stroke: #A80036; stroke-width: 1.0;"/><polygon fill="none" points="107.5,87.91,100.5,107.91,93.5001,87.91,107.5,87.91" style="stroke: #A80036; stroke-width: 1.0;"/><!--link soen6441riskgame.utils.map.DominationMapReadable to soen6441riskgame.utils.map.MapReadable--><path d="M323.5,48.115 C323.5,48.115 323.5,87.91 323.5,87.91 " fill="none" id="soen6441riskgame.utils.map.DominationMapReadable-soen6441riskgame.utils.map.MapReadable" style="stroke: #A80036; stroke-width: 1.0;"/><polygon fill="none" points="330.5,87.91,323.5,107.91,316.5,87.91,330.5,87.91" style="stroke: #A80036; stroke-width: 1.0;"/><!--link soen6441riskgame.utils.map.MapReadable to soen6441riskgame.models.Coordinate--><path d="M213.5,233.0026 C213.5,233.0026 213.5,287.8289 213.5,287.8289 " fill="none" id="soen6441riskgame.utils.map.MapReadable-soen6441riskgame.models.Coordinate" style="stroke: #A80036; stroke-width: 1.0; stroke-dasharray: 7.0,7.0;"/><polygon fill="#A80036" points="213.5,292.8289,217.5,283.8289,213.5,287.8289,209.5,283.8289,213.5,292.8289" style="stroke: #A80036; stroke-width: 1.0;"/><!--
@startuml

skinparam svgLinkTarget _parent
skinparam linetype ortho
set namespaceSeparator none
interface "<b><size:14>MapReadable</b>\n<size:10>soen6441riskgame.utils.map" as soen6441riskgame.utils.map.MapReadable  [[../../../soen6441riskgame/utils/map/MapReadable.html{soen6441riskgame.utils.map.MapReadable}]] {
+void addContinent(String continentName,String continentValue,int order)
+void addCountry(int order,String name,int continentOrder,Coordinate coordinate)
+void addBorders(int countryOrder,int borderWithCountries)
+boolean isStillInCurrentDataBlock(int currentLineIndex,List<String> lines)
+List<String> readMapFile(String fileName)
}


interface "<b><size:14>ConquestMapReadable</b>\n<size:10>soen6441riskgame.utils.map" as soen6441riskgame.utils.map.ConquestMapReadable  [[../../../soen6441riskgame/utils/map/ConquestMapReadable.html{soen6441riskgame.utils.map.ConquestMapReadable}]] {
}

hide soen6441riskgame.utils.map.ConquestMapReadable fields
hide soen6441riskgame.utils.map.ConquestMapReadable methods

soen6441riskgame.utils.map.ConquestMapReadable - -|> soen6441riskgame.utils.map.MapReadable

interface "<b><size:14>DominationMapReadable</b>\n<size:10>soen6441riskgame.utils.map" as soen6441riskgame.utils.map.DominationMapReadable  [[../../../soen6441riskgame/utils/map/DominationMapReadable.html{soen6441riskgame.utils.map.DominationMapReadable}]] {
}

hide soen6441riskgame.utils.map.DominationMapReadable fields
hide soen6441riskgame.utils.map.DominationMapReadable methods

soen6441riskgame.utils.map.DominationMapReadable - -|> soen6441riskgame.utils.map.MapReadable

class "<b><size:14>Coordinate</b>\n<size:10>soen6441riskgame.models" as soen6441riskgame.models.Coordinate  [[../../../soen6441riskgame/models/Coordinate.html{soen6441riskgame.models.Coordinate}]] #white {
}

hide soen6441riskgame.models.Coordinate fields
hide soen6441riskgame.models.Coordinate methods

soen6441riskgame.utils.map.MapReadable ..> soen6441riskgame.models.Coordinate



@enduml

PlantUML version 1.2017.15(Mon Jul 03 12:45:34 EDT 2017)
(GPL source distribution)
Java Runtime: Java(TM) SE Runtime Environment
JVM: Java HotSpot(TM) 64-Bit Server VM
Java Version: 1.8.0_231-b11
Operating System: Windows 10
OS Version: 10.0
Default Encoding: Cp1252
Language: en
Country: US
--></g></svg>