<?xml version="1.0" encoding="UTF-8" standalone="no"?><svg xmlns="http://www.w3.org/2000/svg" xmlns:xlink="http://www.w3.org/1999/xlink" contentScriptType="application/ecmascript" contentStyleType="text/css" height="438px" preserveAspectRatio="none" style="width:574px;height:438px;" version="1.1" viewBox="0 0 574 438" width="574px" zoomAndPan="magnify"><defs><filter height="300%" id="f1rs9gh5479ajs" width="300%" x="-1" y="-1"><feGaussianBlur result="blurOut" stdDeviation="2.0"/><feColorMatrix in="blurOut" result="blurOut2" type="matrix" values="0 0 0 0 0 0 0 0 0 0 0 0 0 0 0 0 0 0 .4 0"/><feOffset dx="4.0" dy="4.0" in="blurOut2" result="blurOut3"/><feBlend in="SourceGraphic" in2="blurOut3" mode="normal"/></filter></defs><g><!--class soen6441riskgame.utils.map.MapReaderAdapter--><a target="_parent" xlink:actuate="onRequest" xlink:href="../../../soen6441riskgame/utils/map/MapReaderAdapter.html" xlink:show="new" xlink:title="soen6441riskgame.utils.map.MapReaderAdapter" xlink:type="simple"><rect fill="#FEFECE" filter="url(#f1rs9gh5479ajs)" height="319.0703" id="soen6441riskgame.utils.map.MapReaderAdapter" style="stroke: #A80036; stroke-width: 1.5;" width="385" x="141" y="8"/><ellipse cx="261.25" cy="28.0938" fill="#ADD1B2" rx="11" ry="11" style="stroke: #A80036; stroke-width: 1.0;"/><path d="M264.0156,23.9688 Q264.1719,23.75 264.3594,23.6406 Q264.5469,23.5313 264.7656,23.5313 Q265.1406,23.5313 265.375,23.7891 Q265.6094,24.0469 265.6094,24.6563 L265.6094,26.1094 Q265.6094,26.7188 265.375,26.9844 Q265.1406,27.25 264.7656,27.25 Q264.4219,27.25 264.2188,27.0469 Q264.0156,26.8594 263.9063,26.3438 Q263.8594,25.9844 263.6719,25.7969 Q263.3438,25.4219 262.7344,25.2031 Q262.125,24.9844 261.5,24.9844 Q260.7344,24.9844 260.1016,25.3125 Q259.4688,25.6406 258.9766,26.3906 Q258.4844,27.1406 258.4844,28.1719 L258.4844,29.2656 Q258.4844,30.5 259.375,31.3203 Q260.2656,32.1406 261.8594,32.1406 Q262.7969,32.1406 263.4531,31.8906 Q263.8438,31.7344 264.2656,31.2969 Q264.5313,31.0313 264.6797,30.9531 Q264.8281,30.875 265.0313,30.875 Q265.3594,30.875 265.6172,31.1328 Q265.875,31.3906 265.875,31.7344 Q265.875,32.0781 265.5313,32.4844 Q265.0313,33.0625 264.2344,33.3906 Q263.1563,33.8438 261.8594,33.8438 Q260.3438,33.8438 259.1406,33.2188 Q258.1563,32.7188 257.4688,31.6484 Q256.7813,30.5781 256.7813,29.2969 L256.7813,28.1406 Q256.7813,26.8125 257.3984,25.6641 Q258.0156,24.5156 259.1094,23.8984 Q260.2031,23.2813 261.4375,23.2813 Q262.1719,23.2813 262.8203,23.4453 Q263.4688,23.6094 264.0156,23.9688 Z "/><text fill="#000000" font-family="sans-serif" font-size="14" font-weight="bold" lengthAdjust="spacingAndGlyphs" textLength="136" x="281.75" y="27.5332">MapReaderAdapter</text><text fill="#000000" font-family="sans-serif" font-size="10" lengthAdjust="spacingAndGlyphs" textLength="133" x="283.25" y="40.9902">soen6441riskgame.utils.map</text><line style="stroke: #A80036; stroke-width: 1.5;" x1="142" x2="525" y1="48.1875" y2="48.1875"/><line style="stroke: #A80036; stroke-width: 1.5;" x1="142" x2="525" y1="56.1875" y2="56.1875"/><ellipse cx="152" cy="68.6055" fill="#84BE84" rx="3" ry="3" style="stroke: #038048; stroke-width: 1.0;"/><text fill="#000000" font-family="sans-serif" font-size="11" lengthAdjust="spacingAndGlyphs" textLength="102" x="161" y="71.6064">MapReaderAdapter()</text><ellipse cx="152" cy="82.4414" fill="#84BE84" rx="3" ry="3" style="stroke: #038048; stroke-width: 1.0;"/><text fill="#000000" font-family="sans-serif" font-size="11" lengthAdjust="spacingAndGlyphs" textLength="143" x="161" y="85.4424">void loadMap(String fileName)</text><ellipse cx="152" cy="96.2773" fill="#84BE84" rx="3" ry="3" style="stroke: #038048; stroke-width: 1.0;"/><text fill="#000000" font-family="sans-serif" font-size="11" lengthAdjust="spacingAndGlyphs" textLength="247" x="161" y="99.2783">int loadMapComponents(List&lt;String&gt; lines,int index)</text><ellipse cx="152" cy="110.1133" fill="#84BE84" rx="3" ry="3" style="stroke: #038048; stroke-width: 1.0;"/><text fill="#000000" font-family="sans-serif" font-size="11" lengthAdjust="spacingAndGlyphs" textLength="313" x="161" y="113.1143">int loadContinentsFromFile(int currentLineIndex,List&lt;String&gt; lines)</text><ellipse cx="152" cy="123.9492" fill="#84BE84" rx="3" ry="3" style="stroke: #038048; stroke-width: 1.0;"/><text fill="#000000" font-family="sans-serif" font-size="11" lengthAdjust="spacingAndGlyphs" textLength="308" x="161" y="126.9502">int loadCountriesFromFile(int currentLineIndex,List&lt;String&gt; lines)</text><ellipse cx="152" cy="137.7852" fill="#84BE84" rx="3" ry="3" style="stroke: #038048; stroke-width: 1.0;"/><text fill="#000000" font-family="sans-serif" font-size="11" lengthAdjust="spacingAndGlyphs" textLength="301" x="161" y="140.7861">int loadBordersFromFile(int currentLineIndex,List&lt;String&gt; lines)</text><ellipse cx="152" cy="151.6211" fill="#84BE84" rx="3" ry="3" style="stroke: #038048; stroke-width: 1.0;"/><text fill="#000000" font-family="sans-serif" font-size="11" lengthAdjust="spacingAndGlyphs" textLength="176" x="161" y="154.6221">void writeMapToFile(String fileName)</text><ellipse cx="152" cy="165.457" fill="#84BE84" rx="3" ry="3" style="stroke: #038048; stroke-width: 1.0;"/><text fill="#000000" font-family="sans-serif" font-size="11" lengthAdjust="spacingAndGlyphs" textLength="212" x="161" y="168.458">void writeContinentsToFile(FileWriter writer)</text><ellipse cx="152" cy="179.293" fill="#84BE84" rx="3" ry="3" style="stroke: #038048; stroke-width: 1.0;"/><text fill="#000000" font-family="sans-serif" font-size="11" lengthAdjust="spacingAndGlyphs" textLength="200" x="161" y="182.2939">void writeBordersToFile(FileWriter writer)</text><ellipse cx="152" cy="193.1289" fill="#84BE84" rx="3" ry="3" style="stroke: #038048; stroke-width: 1.0;"/><text fill="#000000" font-family="sans-serif" font-size="11" lengthAdjust="spacingAndGlyphs" textLength="207" x="161" y="196.1299">void writeCountriesToFile(FileWriter writer)</text><ellipse cx="152" cy="206.9648" fill="#84BE84" rx="3" ry="3" style="stroke: #038048; stroke-width: 1.0;"/><text fill="#000000" font-family="sans-serif" font-size="11" lengthAdjust="spacingAndGlyphs" textLength="189" x="161" y="209.9658">void loadConquestMap(String fileName)</text><ellipse cx="152" cy="220.8008" fill="#84BE84" rx="3" ry="3" style="stroke: #038048; stroke-width: 1.0;"/><text fill="#000000" font-family="sans-serif" font-size="11" lengthAdjust="spacingAndGlyphs" textLength="293" x="161" y="223.8018">int loadConquestMapComponents(List&lt;String&gt; lines,int index)</text><ellipse cx="152" cy="234.6367" fill="#84BE84" rx="3" ry="3" style="stroke: #038048; stroke-width: 1.0;"/><text fill="#000000" font-family="sans-serif" font-size="11" lengthAdjust="spacingAndGlyphs" textLength="306" x="161" y="237.6377">int loadConquestMapInfo(List&lt;String&gt; lines,int currentLineIndex)</text><ellipse cx="152" cy="248.4727" fill="#84BE84" rx="3" ry="3" style="stroke: #038048; stroke-width: 1.0;"/><text fill="#000000" font-family="sans-serif" font-size="11" lengthAdjust="spacingAndGlyphs" textLength="359" x="161" y="251.4736">int loadContinentsFromConquestFile(int currentLineIndex,List&lt;String&gt; lines)</text><ellipse cx="152" cy="262.3086" fill="#84BE84" rx="3" ry="3" style="stroke: #038048; stroke-width: 1.0;"/><text fill="#000000" font-family="sans-serif" font-size="11" lengthAdjust="spacingAndGlyphs" textLength="354" x="161" y="265.3096">int loadCountriesFromConquestFile(int currentLineIndex,List&lt;String&gt; lines)</text><ellipse cx="152" cy="276.1445" fill="#84BE84" rx="3" ry="3" style="stroke: #038048; stroke-width: 1.0;"/><text fill="#000000" font-family="sans-serif" font-size="11" lengthAdjust="spacingAndGlyphs" textLength="222" x="161" y="279.1455">void writeMapToConquestFile(String fileName)</text><ellipse cx="152" cy="289.9805" fill="#84BE84" rx="3" ry="3" style="stroke: #038048; stroke-width: 1.0;"/><text fill="#000000" font-family="sans-serif" font-size="11" lengthAdjust="spacingAndGlyphs" textLength="258" x="161" y="292.9814">void writeContinentsToConquestFile(FileWriter writer)</text><ellipse cx="152" cy="303.8164" fill="#84BE84" rx="3" ry="3" style="stroke: #038048; stroke-width: 1.0;"/><text fill="#000000" font-family="sans-serif" font-size="11" lengthAdjust="spacingAndGlyphs" textLength="253" x="161" y="306.8174">void writeCountriesToConquestFile(FileWriter writer)</text><rect fill="#F24D5C" height="6" style="stroke: #C82930; stroke-width: 1.0;" width="6" x="149" y="314.6523"/><text fill="#000000" font-family="sans-serif" font-size="11" lengthAdjust="spacingAndGlyphs" textLength="346" x="161" y="320.6533">int loadBordersFromConquestFile(List&lt;String&gt; lines,int originalLineIndex)</text></a><!--class soen6441riskgame.utils.map.DominationMapReadable--><a target="_parent" xlink:actuate="onRequest" xlink:href="../../../soen6441riskgame/utils/map/DominationMapReadable.html" xlink:show="new" xlink:title="soen6441riskgame.utils.map.DominationMapReadable" xlink:type="simple"><rect fill="#FEFECE" filter="url(#f1rs9gh5479ajs)" height="40.1875" id="soen6441riskgame.utils.map.DominationMapReadable" style="stroke: #A80036; stroke-width: 1.5;" width="199" x="6" y="387"/><ellipse cx="21" cy="407.0938" fill="#B4A7E5" rx="11" ry="11" style="stroke: #A80036; stroke-width: 1.0;"/><path d="M21.9531,403.7344 L21.9531,410.3906 L23.6719,410.3906 Q24.2813,410.3906 24.5469,410.625 Q24.8125,410.8594 24.8125,411.25 Q24.8125,411.625 24.5469,411.8594 Q24.2813,412.0938 23.6719,412.0938 L18.5313,412.0938 Q17.9219,412.0938 17.6563,411.8594 Q17.3906,411.625 17.3906,411.2344 Q17.3906,410.8594 17.6563,410.625 Q17.9219,410.3906 18.5313,410.3906 L20.25,410.3906 L20.25,403.7344 L18.5313,403.7344 Q17.9219,403.7344 17.6563,403.5 Q17.3906,403.2656 17.3906,402.875 Q17.3906,402.5 17.6563,402.2656 Q17.9219,402.0313 18.5313,402.0313 L23.6719,402.0313 Q24.2813,402.0313 24.5469,402.2656 Q24.8125,402.5 24.8125,402.875 Q24.8125,403.2656 24.5469,403.5 Q24.2813,403.7344 23.6719,403.7344 L21.9531,403.7344 Z "/><text fill="#000000" font-family="sans-serif" font-size="14" font-style="italic" font-weight="bold" lengthAdjust="spacingAndGlyphs" textLength="167" x="35" y="406.5332">DominationMapReadable</text><text fill="#000000" font-family="sans-serif" font-size="10" font-style="italic" lengthAdjust="spacingAndGlyphs" textLength="133" x="52" y="419.9902">soen6441riskgame.utils.map</text></a><!--class soen6441riskgame.utils.map.ConquestMapReadable--><a target="_parent" xlink:actuate="onRequest" xlink:href="../../../soen6441riskgame/utils/map/ConquestMapReadable.html" xlink:show="new" xlink:title="soen6441riskgame.utils.map.ConquestMapReadable" xlink:type="simple"><rect fill="#FEFECE" filter="url(#f1rs9gh5479ajs)" height="40.1875" id="soen6441riskgame.utils.map.ConquestMapReadable" style="stroke: #A80036; stroke-width: 1.5;" width="187" x="240" y="387"/><ellipse cx="255" cy="407.0938" fill="#B4A7E5" rx="11" ry="11" style="stroke: #A80036; stroke-width: 1.0;"/><path d="M255.9531,403.7344 L255.9531,410.3906 L257.6719,410.3906 Q258.2813,410.3906 258.5469,410.625 Q258.8125,410.8594 258.8125,411.25 Q258.8125,411.625 258.5469,411.8594 Q258.2813,412.0938 257.6719,412.0938 L252.5313,412.0938 Q251.9219,412.0938 251.6563,411.8594 Q251.3906,411.625 251.3906,411.2344 Q251.3906,410.8594 251.6563,410.625 Q251.9219,410.3906 252.5313,410.3906 L254.25,410.3906 L254.25,403.7344 L252.5313,403.7344 Q251.9219,403.7344 251.6563,403.5 Q251.3906,403.2656 251.3906,402.875 Q251.3906,402.5 251.6563,402.2656 Q251.9219,402.0313 252.5313,402.0313 L257.6719,402.0313 Q258.2813,402.0313 258.5469,402.2656 Q258.8125,402.5 258.8125,402.875 Q258.8125,403.2656 258.5469,403.5 Q258.2813,403.7344 257.6719,403.7344 L255.9531,403.7344 Z "/><text fill="#000000" font-family="sans-serif" font-size="14" font-style="italic" font-weight="bold" lengthAdjust="spacingAndGlyphs" textLength="155" x="269" y="406.5332">ConquestMapReadable</text><text fill="#000000" font-family="sans-serif" font-size="10" font-style="italic" lengthAdjust="spacingAndGlyphs" textLength="133" x="280" y="419.9902">soen6441riskgame.utils.map</text></a><!--class java.io.FileWriter--><rect fill="#D3D3D3" filter="url(#f1rs9gh5479ajs)" height="40.1875" id="java.io.FileWriter" style="stroke: #A80036; stroke-width: 1.5;" width="101" x="462" y="387"/><rect fill="#D3D3D3" height="40.1875" style="stroke: #A80036; stroke-width: 1.5;" width="101" x="462" y="387"/><ellipse cx="477" cy="407.0938" fill="#ADD1B2" rx="11" ry="11" style="stroke: #A80036; stroke-width: 1.0;"/><path d="M479.7656,402.9688 Q479.9219,402.75 480.1094,402.6406 Q480.2969,402.5313 480.5156,402.5313 Q480.8906,402.5313 481.125,402.7891 Q481.3594,403.0469 481.3594,403.6563 L481.3594,405.1094 Q481.3594,405.7188 481.125,405.9844 Q480.8906,406.25 480.5156,406.25 Q480.1719,406.25 479.9688,406.0469 Q479.7656,405.8594 479.6563,405.3438 Q479.6094,404.9844 479.4219,404.7969 Q479.0938,404.4219 478.4844,404.2031 Q477.875,403.9844 477.25,403.9844 Q476.4844,403.9844 475.8516,404.3125 Q475.2188,404.6406 474.7266,405.3906 Q474.2344,406.1406 474.2344,407.1719 L474.2344,408.2656 Q474.2344,409.5 475.125,410.3203 Q476.0156,411.1406 477.6094,411.1406 Q478.5469,411.1406 479.2031,410.8906 Q479.5938,410.7344 480.0156,410.2969 Q480.2813,410.0313 480.4297,409.9531 Q480.5781,409.875 480.7813,409.875 Q481.1094,409.875 481.3672,410.1328 Q481.625,410.3906 481.625,410.7344 Q481.625,411.0781 481.2813,411.4844 Q480.7813,412.0625 479.9844,412.3906 Q478.9063,412.8438 477.6094,412.8438 Q476.0938,412.8438 474.8906,412.2188 Q473.9063,411.7188 473.2188,410.6484 Q472.5313,409.5781 472.5313,408.2969 L472.5313,407.1406 Q472.5313,405.8125 473.1484,404.6641 Q473.7656,403.5156 474.8594,402.8984 Q475.9531,402.2813 477.1875,402.2813 Q477.9219,402.2813 478.5703,402.4453 Q479.2188,402.6094 479.7656,402.9688 Z "/><text fill="#000000" font-family="sans-serif" font-size="14" font-weight="bold" lengthAdjust="spacingAndGlyphs" textLength="69" x="491" y="406.5332">FileWriter</text><text fill="#000000" font-family="sans-serif" font-size="10" lengthAdjust="spacingAndGlyphs" textLength="32" x="509.5" y="419.9902">java.io</text><!--link soen6441riskgame.utils.map.MapReaderAdapter to soen6441riskgame.utils.map.DominationMapReadable--><path d="M173,327.25 C173,327.25 173,366.8832 173,366.8832 " fill="none" id="soen6441riskgame.utils.map.MapReaderAdapter-soen6441riskgame.utils.map.DominationMapReadable" style="stroke: #A80036; stroke-width: 1.0; stroke-dasharray: 7.0,7.0;"/><polygon fill="none" points="180,366.8833,173,386.8832,166,366.8832,180,366.8833" style="stroke: #A80036; stroke-width: 1.0;"/><!--link soen6441riskgame.utils.map.MapReaderAdapter to soen6441riskgame.utils.map.ConquestMapReadable--><path d="M333.5,327.25 C333.5,327.25 333.5,366.8832 333.5,366.8832 " fill="none" id="soen6441riskgame.utils.map.MapReaderAdapter-soen6441riskgame.utils.map.ConquestMapReadable" style="stroke: #A80036; stroke-width: 1.0; stroke-dasharray: 7.0,7.0;"/><polygon fill="none" points="340.5,366.8833,333.5,386.8832,326.5,366.8832,340.5,366.8833" style="stroke: #A80036; stroke-width: 1.0;"/><!--link soen6441riskgame.utils.map.MapReaderAdapter to java.io.FileWriter--><path d="M494,327.25 C494,327.25 494,381.8832 494,381.8832 " fill="none" id="soen6441riskgame.utils.map.MapReaderAdapter-java.io.FileWriter" style="stroke: #A80036; stroke-width: 1.0; stroke-dasharray: 7.0,7.0;"/><polygon fill="#A80036" points="494,386.8832,498,377.8832,494,381.8832,490,377.8832,494,386.8832" style="stroke: #A80036; stroke-width: 1.0;"/><!--
@startuml

skinparam svgLinkTarget _parent
skinparam linetype ortho
set namespaceSeparator none
class "<b><size:14>MapReaderAdapter</b>\n<size:10>soen6441riskgame.utils.map" as soen6441riskgame.utils.map.MapReaderAdapter  [[../../../soen6441riskgame/utils/map/MapReaderAdapter.html{soen6441riskgame.utils.map.MapReaderAdapter}]] {
+MapReaderAdapter()
+void loadMap(String fileName)
+int loadMapComponents(List<String> lines,int index)
+int loadContinentsFromFile(int currentLineIndex,List<String> lines)
+int loadCountriesFromFile(int currentLineIndex,List<String> lines)
+int loadBordersFromFile(int currentLineIndex,List<String> lines)
+void writeMapToFile(String fileName)
+void writeContinentsToFile(FileWriter writer)
+void writeBordersToFile(FileWriter writer)
+void writeCountriesToFile(FileWriter writer)
+void loadConquestMap(String fileName)
+int loadConquestMapComponents(List<String> lines,int index)
+int loadConquestMapInfo(List<String> lines,int currentLineIndex)
+int loadContinentsFromConquestFile(int currentLineIndex,List<String> lines)
+int loadCountriesFromConquestFile(int currentLineIndex,List<String> lines)
+void writeMapToConquestFile(String fileName)
+void writeContinentsToConquestFile(FileWriter writer)
+void writeCountriesToConquestFile(FileWriter writer)
-int loadBordersFromConquestFile(List<String> lines,int originalLineIndex)
}


interface "<b><size:14>DominationMapReadable</b>\n<size:10>soen6441riskgame.utils.map" as soen6441riskgame.utils.map.DominationMapReadable  [[../../../soen6441riskgame/utils/map/DominationMapReadable.html{soen6441riskgame.utils.map.DominationMapReadable}]] {
}

hide soen6441riskgame.utils.map.DominationMapReadable fields
hide soen6441riskgame.utils.map.DominationMapReadable methods

soen6441riskgame.utils.map.MapReaderAdapter ..|> soen6441riskgame.utils.map.DominationMapReadable

interface "<b><size:14>ConquestMapReadable</b>\n<size:10>soen6441riskgame.utils.map" as soen6441riskgame.utils.map.ConquestMapReadable  [[../../../soen6441riskgame/utils/map/ConquestMapReadable.html{soen6441riskgame.utils.map.ConquestMapReadable}]] {
}

hide soen6441riskgame.utils.map.ConquestMapReadable fields
hide soen6441riskgame.utils.map.ConquestMapReadable methods

soen6441riskgame.utils.map.MapReaderAdapter ..|> soen6441riskgame.utils.map.ConquestMapReadable


class "<b><size:14>FileWriter</b>\n<size:10>java.io" as java.io.FileWriter  #lightgrey {
}

hide java.io.FileWriter fields
hide java.io.FileWriter methods

soen6441riskgame.utils.map.MapReaderAdapter ..> java.io.FileWriter


@enduml

PlantUML version 1.2017.15(Mon Jul 03 12:45:34 EDT 2017)
(GPL source distribution)
Java Runtime: Java(TM) SE Runtime Environment
JVM: Java HotSpot(TM) 64-Bit Server VM
Java Version: 1.8.0_231-b11
Operating System: Windows 10
OS Version: 10.0
Default Encoding: Cp1252
Language: en
Country: US
--></g></svg>