<?xml version="1.0" encoding="UTF-8" standalone="no"?><svg xmlns="http://www.w3.org/2000/svg" xmlns:xlink="http://www.w3.org/1999/xlink" contentScriptType="application/ecmascript" contentStyleType="text/css" height="304px" preserveAspectRatio="none" style="width:498px;height:304px;" version="1.1" viewBox="0 0 498 304" width="498px" zoomAndPan="magnify"><defs><filter height="300%" id="fy0kwgjvc62th" width="300%" x="-1" y="-1"><feGaussianBlur result="blurOut" stdDeviation="2.0"/><feColorMatrix in="blurOut" result="blurOut2" type="matrix" values="0 0 0 0 0 0 0 0 0 0 0 0 0 0 0 0 0 0 .4 0"/><feOffset dx="4.0" dy="4.0" in="blurOut2" result="blurOut3"/><feBlend in="SourceGraphic" in2="blurOut3" mode="normal"/></filter></defs><g><!--cluster soen6441riskgame.utils.map--><a target="_parent" xlink:actuate="onRequest" xlink:href="../../../soen6441riskgame/utils/map/package-summary.html" xlink:show="new" xlink:title="soen6441riskgame.utils.map" xlink:type="simple"><polygon fill="#FFFFE0" filter="url(#fy0kwgjvc62th)" points="22,24,226,24,233,47.6094,476,47.6094,476,292,22,292,22,24" style="stroke: #000000; stroke-width: 2.0;"/><line style="stroke: #000000; stroke-width: 2.0;" x1="22" x2="233" y1="47.6094" y2="47.6094"/><text fill="#000000" font-family="sans-serif" font-size="14" font-weight="bold" lengthAdjust="spacingAndGlyphs" textLength="198" x="26" y="40.5332">soen6441riskgame.utils.map</text></a><!--class soen6441riskgame.utils.map.ConquestMapReadable--><a target="_parent" xlink:actuate="onRequest" xlink:href="../../../soen6441riskgame/utils/map/ConquestMapReadable.html" xlink:show="new" xlink:title="soen6441riskgame.utils.map.ConquestMapReadable" xlink:type="simple"><rect fill="#FEFECE" filter="url(#fy0kwgjvc62th)" height="32" id="soen6441riskgame.utils.map.ConquestMapReadable" style="stroke: #A80036; stroke-width: 1.5;" width="187" x="38.5" y="152"/><ellipse cx="53.5" cy="168" fill="#B4A7E5" rx="11" ry="11" style="stroke: #A80036; stroke-width: 1.0;"/><path d="M54.4531,164.6406 L54.4531,171.2969 L56.1719,171.2969 Q56.7813,171.2969 57.0469,171.5313 Q57.3125,171.7656 57.3125,172.1563 Q57.3125,172.5313 57.0469,172.7656 Q56.7813,173 56.1719,173 L51.0313,173 Q50.4219,173 50.1563,172.7656 Q49.8906,172.5313 49.8906,172.1406 Q49.8906,171.7656 50.1563,171.5313 Q50.4219,171.2969 51.0313,171.2969 L52.75,171.2969 L52.75,164.6406 L51.0313,164.6406 Q50.4219,164.6406 50.1563,164.4063 Q49.8906,164.1719 49.8906,163.7813 Q49.8906,163.4063 50.1563,163.1719 Q50.4219,162.9375 51.0313,162.9375 L56.1719,162.9375 Q56.7813,162.9375 57.0469,163.1719 Q57.3125,163.4063 57.3125,163.7813 Q57.3125,164.1719 57.0469,164.4063 Q56.7813,164.6406 56.1719,164.6406 L54.4531,164.6406 Z "/><text fill="#000000" font-family="sans-serif" font-size="14" font-style="italic" font-weight="bold" lengthAdjust="spacingAndGlyphs" textLength="155" x="67.5" y="173.7285">ConquestMapReadable</text></a><!--class soen6441riskgame.utils.map.DominationMapReadable--><a target="_parent" xlink:actuate="onRequest" xlink:href="../../../soen6441riskgame/utils/map/DominationMapReadable.html" xlink:show="new" xlink:title="soen6441riskgame.utils.map.DominationMapReadable" xlink:type="simple"><rect fill="#FEFECE" filter="url(#fy0kwgjvc62th)" height="32" id="soen6441riskgame.utils.map.DominationMapReadable" style="stroke: #A80036; stroke-width: 1.5;" width="199" x="260.5" y="152"/><ellipse cx="275.5" cy="168" fill="#B4A7E5" rx="11" ry="11" style="stroke: #A80036; stroke-width: 1.0;"/><path d="M276.4531,164.6406 L276.4531,171.2969 L278.1719,171.2969 Q278.7813,171.2969 279.0469,171.5313 Q279.3125,171.7656 279.3125,172.1563 Q279.3125,172.5313 279.0469,172.7656 Q278.7813,173 278.1719,173 L273.0313,173 Q272.4219,173 272.1563,172.7656 Q271.8906,172.5313 271.8906,172.1406 Q271.8906,171.7656 272.1563,171.5313 Q272.4219,171.2969 273.0313,171.2969 L274.75,171.2969 L274.75,164.6406 L273.0313,164.6406 Q272.4219,164.6406 272.1563,164.4063 Q271.8906,164.1719 271.8906,163.7813 Q271.8906,163.4063 272.1563,163.1719 Q272.4219,162.9375 273.0313,162.9375 L278.1719,162.9375 Q278.7813,162.9375 279.0469,163.1719 Q279.3125,163.4063 279.3125,163.7813 Q279.3125,164.1719 279.0469,164.4063 Q278.7813,164.6406 278.1719,164.6406 L276.4531,164.6406 Z "/><text fill="#000000" font-family="sans-serif" font-size="14" font-style="italic" font-weight="bold" lengthAdjust="spacingAndGlyphs" textLength="167" x="289.5" y="173.7285">DominationMapReadable</text></a><!--class soen6441riskgame.utils.map.MapReadable--><a target="_parent" xlink:actuate="onRequest" xlink:href="../../../soen6441riskgame/utils/map/MapReadable.html" xlink:show="new" xlink:title="soen6441riskgame.utils.map.MapReadable" xlink:type="simple"><rect fill="#FEFECE" filter="url(#fy0kwgjvc62th)" height="32" id="soen6441riskgame.utils.map.MapReadable" style="stroke: #A80036; stroke-width: 1.5;" width="122" x="185" y="244"/><ellipse cx="200" cy="260" fill="#B4A7E5" rx="11" ry="11" style="stroke: #A80036; stroke-width: 1.0;"/><path d="M200.9531,256.6406 L200.9531,263.2969 L202.6719,263.2969 Q203.2813,263.2969 203.5469,263.5313 Q203.8125,263.7656 203.8125,264.1563 Q203.8125,264.5313 203.5469,264.7656 Q203.2813,265 202.6719,265 L197.5313,265 Q196.9219,265 196.6563,264.7656 Q196.3906,264.5313 196.3906,264.1406 Q196.3906,263.7656 196.6563,263.5313 Q196.9219,263.2969 197.5313,263.2969 L199.25,263.2969 L199.25,256.6406 L197.5313,256.6406 Q196.9219,256.6406 196.6563,256.4063 Q196.3906,256.1719 196.3906,255.7813 Q196.3906,255.4063 196.6563,255.1719 Q196.9219,254.9375 197.5313,254.9375 L202.6719,254.9375 Q203.2813,254.9375 203.5469,255.1719 Q203.8125,255.4063 203.8125,255.7813 Q203.8125,256.1719 203.5469,256.4063 Q203.2813,256.6406 202.6719,256.6406 L200.9531,256.6406 Z "/><text fill="#000000" font-family="sans-serif" font-size="14" font-style="italic" font-weight="bold" lengthAdjust="spacingAndGlyphs" textLength="90" x="214" y="265.7285">MapReadable</text></a><!--class soen6441riskgame.utils.map.MapReaderAdapter--><a target="_parent" xlink:actuate="onRequest" xlink:href="../../../soen6441riskgame/utils/map/MapReaderAdapter.html" xlink:show="new" xlink:title="soen6441riskgame.utils.map.MapReaderAdapter" xlink:type="simple"><rect fill="#FEFECE" filter="url(#fy0kwgjvc62th)" height="32" id="soen6441riskgame.utils.map.MapReaderAdapter" style="stroke: #A80036; stroke-width: 1.5;" width="168" x="162" y="60"/><ellipse cx="177" cy="76" fill="#ADD1B2" rx="11" ry="11" style="stroke: #A80036; stroke-width: 1.0;"/><path d="M179.7656,71.875 Q179.9219,71.6563 180.1094,71.5469 Q180.2969,71.4375 180.5156,71.4375 Q180.8906,71.4375 181.125,71.6953 Q181.3594,71.9531 181.3594,72.5625 L181.3594,74.0156 Q181.3594,74.625 181.125,74.8906 Q180.8906,75.1563 180.5156,75.1563 Q180.1719,75.1563 179.9688,74.9531 Q179.7656,74.7656 179.6563,74.25 Q179.6094,73.8906 179.4219,73.7031 Q179.0938,73.3281 178.4844,73.1094 Q177.875,72.8906 177.25,72.8906 Q176.4844,72.8906 175.8516,73.2188 Q175.2188,73.5469 174.7266,74.2969 Q174.2344,75.0469 174.2344,76.0781 L174.2344,77.1719 Q174.2344,78.4063 175.125,79.2266 Q176.0156,80.0469 177.6094,80.0469 Q178.5469,80.0469 179.2031,79.7969 Q179.5938,79.6406 180.0156,79.2031 Q180.2813,78.9375 180.4297,78.8594 Q180.5781,78.7813 180.7813,78.7813 Q181.1094,78.7813 181.3672,79.0391 Q181.625,79.2969 181.625,79.6406 Q181.625,79.9844 181.2813,80.3906 Q180.7813,80.9688 179.9844,81.2969 Q178.9063,81.75 177.6094,81.75 Q176.0938,81.75 174.8906,81.125 Q173.9063,80.625 173.2188,79.5547 Q172.5313,78.4844 172.5313,77.2031 L172.5313,76.0469 Q172.5313,74.7188 173.1484,73.5703 Q173.7656,72.4219 174.8594,71.8047 Q175.9531,71.1875 177.1875,71.1875 Q177.9219,71.1875 178.5703,71.3516 Q179.2188,71.5156 179.7656,71.875 Z "/><text fill="#000000" font-family="sans-serif" font-size="14" font-weight="bold" lengthAdjust="spacingAndGlyphs" textLength="136" x="191" y="81.7285">MapReaderAdapter</text></a><!--link soen6441riskgame.utils.map.ConquestMapReadable to soen6441riskgame.utils.map.MapReadable--><path d="M205.25,184.025 C205.25,184.025 205.25,223.8498 205.25,223.8498 " fill="none" id="soen6441riskgame.utils.map.ConquestMapReadable-soen6441riskgame.utils.map.MapReadable" style="stroke: #A80036; stroke-width: 1.0;"/><polygon fill="none" points="212.25,223.8498,205.25,243.8498,198.25,223.8497,212.25,223.8498" style="stroke: #A80036; stroke-width: 1.0;"/><!--link soen6441riskgame.utils.map.DominationMapReadable to soen6441riskgame.utils.map.MapReadable--><path d="M283.75,184.025 C283.75,184.025 283.75,223.8498 283.75,223.8498 " fill="none" id="soen6441riskgame.utils.map.DominationMapReadable-soen6441riskgame.utils.map.MapReadable" style="stroke: #A80036; stroke-width: 1.0;"/><polygon fill="none" points="290.75,223.8498,283.75,243.8498,276.75,223.8497,290.75,223.8498" style="stroke: #A80036; stroke-width: 1.0;"/><!--link soen6441riskgame.utils.map.MapReaderAdapter to soen6441riskgame.utils.map.DominationMapReadable--><path d="M295.25,92.025 C295.25,92.025 295.25,131.85 295.25,131.85 " fill="none" id="soen6441riskgame.utils.map.MapReaderAdapter-soen6441riskgame.utils.map.DominationMapReadable" style="stroke: #A80036; stroke-width: 1.0; stroke-dasharray: 7.0,7.0;"/><polygon fill="none" points="302.25,131.85,295.25,151.85,288.25,131.85,302.25,131.85" style="stroke: #A80036; stroke-width: 1.0;"/><!--link soen6441riskgame.utils.map.MapReaderAdapter to soen6441riskgame.utils.map.ConquestMapReadable--><path d="M193.75,92.025 C193.75,92.025 193.75,131.85 193.75,131.85 " fill="none" id="soen6441riskgame.utils.map.MapReaderAdapter-soen6441riskgame.utils.map.ConquestMapReadable" style="stroke: #A80036; stroke-width: 1.0; stroke-dasharray: 7.0,7.0;"/><polygon fill="none" points="200.75,131.85,193.75,151.85,186.75,131.85,200.75,131.85" style="stroke: #A80036; stroke-width: 1.0;"/><!--
@startuml

skinparam svgLinkTarget _parent
skinparam linetype ortho
package soen6441riskgame.utils.map [[../../../soen6441riskgame/utils/map/package-summary.html{soen6441riskgame.utils.map}]] #lightyellow {
}

interface "<b><size:14>ConquestMapReadable</b>" as soen6441riskgame.utils.map.ConquestMapReadable  [[../../../soen6441riskgame/utils/map/ConquestMapReadable.html{soen6441riskgame.utils.map.ConquestMapReadable}]] {
}

hide soen6441riskgame.utils.map.ConquestMapReadable fields
hide soen6441riskgame.utils.map.ConquestMapReadable methods

interface "<b><size:14>DominationMapReadable</b>" as soen6441riskgame.utils.map.DominationMapReadable  [[../../../soen6441riskgame/utils/map/DominationMapReadable.html{soen6441riskgame.utils.map.DominationMapReadable}]] {
}

hide soen6441riskgame.utils.map.DominationMapReadable fields
hide soen6441riskgame.utils.map.DominationMapReadable methods

interface "<b><size:14>MapReadable</b>" as soen6441riskgame.utils.map.MapReadable  [[../../../soen6441riskgame/utils/map/MapReadable.html{soen6441riskgame.utils.map.MapReadable}]] {
}

hide soen6441riskgame.utils.map.MapReadable fields
hide soen6441riskgame.utils.map.MapReadable methods

class "<b><size:14>MapReaderAdapter</b>" as soen6441riskgame.utils.map.MapReaderAdapter  [[../../../soen6441riskgame/utils/map/MapReaderAdapter.html{soen6441riskgame.utils.map.MapReaderAdapter}]] {
}

hide soen6441riskgame.utils.map.MapReaderAdapter fields
hide soen6441riskgame.utils.map.MapReaderAdapter methods

soen6441riskgame.utils.map.ConquestMapReadable - -|> soen6441riskgame.utils.map.MapReadable
soen6441riskgame.utils.map.DominationMapReadable - -|> soen6441riskgame.utils.map.MapReadable
soen6441riskgame.utils.map.MapReaderAdapter ..|> soen6441riskgame.utils.map.DominationMapReadable
soen6441riskgame.utils.map.MapReaderAdapter ..|> soen6441riskgame.utils.map.ConquestMapReadable

@enduml

PlantUML version 1.2017.15(Mon Jul 03 12:45:34 EDT 2017)
(GPL source distribution)
Java Runtime: Java(TM) SE Runtime Environment
JVM: Java HotSpot(TM) 64-Bit Server VM
Java Version: 1.8.0_231-b11
Operating System: Windows 10
OS Version: 10.0
Default Encoding: Cp1252
Language: en
Country: US
--></g></svg>