<?xml version="1.0" encoding="UTF-8" standalone="no"?><svg xmlns="http://www.w3.org/2000/svg" xmlns:xlink="http://www.w3.org/1999/xlink" contentScriptType="application/ecmascript" contentStyleType="text/css" height="231px" preserveAspectRatio="none" style="width:261px;height:231px;" version="1.1" viewBox="0 0 261 231" width="261px" zoomAndPan="magnify"><defs><filter height="300%" id="f1gc5pio9358qr" width="300%" x="-1" y="-1"><feGaussianBlur result="blurOut" stdDeviation="2.0"/><feColorMatrix in="blurOut" result="blurOut2" type="matrix" values="0 0 0 0 0 0 0 0 0 0 0 0 0 0 0 0 0 0 .4 0"/><feOffset dx="4.0" dy="4.0" in="blurOut2" result="blurOut3"/><feBlend in="SourceGraphic" in2="blurOut3" mode="normal"/></filter></defs><g><!--class soen6441riskgame.App--><a target="_parent" xlink:actuate="onRequest" xlink:href="../soen6441riskgame/App.html" xlink:show="new" xlink:title="soen6441riskgame.App" xlink:type="simple"><rect fill="#FEFECE" filter="url(#f1gc5pio9358qr)" height="111.5313" id="soen6441riskgame.App" style="stroke: #A80036; stroke-width: 1.5;" width="244" x="6" y="8"/><ellipse cx="80.25" cy="28.0938" fill="#ADD1B2" rx="11" ry="11" style="stroke: #A80036; stroke-width: 1.0;"/><path d="M83.0156,23.9688 Q83.1719,23.75 83.3594,23.6406 Q83.5469,23.5313 83.7656,23.5313 Q84.1406,23.5313 84.375,23.7891 Q84.6094,24.0469 84.6094,24.6563 L84.6094,26.1094 Q84.6094,26.7188 84.375,26.9844 Q84.1406,27.25 83.7656,27.25 Q83.4219,27.25 83.2188,27.0469 Q83.0156,26.8594 82.9063,26.3438 Q82.8594,25.9844 82.6719,25.7969 Q82.3438,25.4219 81.7344,25.2031 Q81.125,24.9844 80.5,24.9844 Q79.7344,24.9844 79.1016,25.3125 Q78.4688,25.6406 77.9766,26.3906 Q77.4844,27.1406 77.4844,28.1719 L77.4844,29.2656 Q77.4844,30.5 78.375,31.3203 Q79.2656,32.1406 80.8594,32.1406 Q81.7969,32.1406 82.4531,31.8906 Q82.8438,31.7344 83.2656,31.2969 Q83.5313,31.0313 83.6797,30.9531 Q83.8281,30.875 84.0313,30.875 Q84.3594,30.875 84.6172,31.1328 Q84.875,31.3906 84.875,31.7344 Q84.875,32.0781 84.5313,32.4844 Q84.0313,33.0625 83.2344,33.3906 Q82.1563,33.8438 80.8594,33.8438 Q79.3438,33.8438 78.1406,33.2188 Q77.1563,32.7188 76.4688,31.6484 Q75.7813,30.5781 75.7813,29.2969 L75.7813,28.1406 Q75.7813,26.8125 76.3984,25.6641 Q77.0156,24.5156 78.1094,23.8984 Q79.2031,23.2813 80.4375,23.2813 Q81.1719,23.2813 81.8203,23.4453 Q82.4688,23.6094 83.0156,23.9688 Z "/><text fill="#000000" font-family="sans-serif" font-size="14" font-weight="bold" lengthAdjust="spacingAndGlyphs" textLength="27" x="130.75" y="27.5332">App</text><text fill="#000000" font-family="sans-serif" font-size="10" lengthAdjust="spacingAndGlyphs" textLength="87" x="100.75" y="40.9902">soen6441riskgame</text><line style="stroke: #A80036; stroke-width: 1.5;" x1="7" x2="249" y1="48.1875" y2="48.1875"/><line style="stroke: #A80036; stroke-width: 1.5;" x1="7" x2="249" y1="56.1875" y2="56.1875"/><rect fill="#F24D5C" height="6" style="stroke: #C82930; stroke-width: 1.0;" width="6" x="14" y="65.6055"/><text fill="#000000" font-family="sans-serif" font-size="11" lengthAdjust="spacingAndGlyphs" textLength="28" x="26" y="71.6064">App()</text><ellipse cx="17" cy="82.4414" fill="#84BE84" rx="3" ry="3" style="stroke: #038048; stroke-width: 1.0;"/><text fill="#000000" font-family="sans-serif" font-size="11" lengthAdjust="spacingAndGlyphs" text-decoration="underline" textLength="106" x="26" y="85.4424">void main(String args)</text><line style="stroke: #000000; stroke-width: 1.0;" x1="26" x2="132" y1="87.4424" y2="87.4424"/><ellipse cx="17" cy="96.2773" fill="#84BE84" rx="3" ry="3" style="stroke: #038048; stroke-width: 1.0;"/><text fill="#000000" font-family="sans-serif" font-size="11" lengthAdjust="spacingAndGlyphs" text-decoration="underline" textLength="218" x="26" y="99.2783">void jumpToCommand(ModelCommands args)</text><line style="stroke: #000000; stroke-width: 1.0;" x1="26" x2="244" y1="101.2783" y2="101.2783"/><ellipse cx="17" cy="110.1133" fill="#84BE84" rx="3" ry="3" style="stroke: #038048; stroke-width: 1.0;"/><text fill="#000000" font-family="sans-serif" font-size="11" lengthAdjust="spacingAndGlyphs" text-decoration="underline" textLength="118" x="26" y="113.1143">void runFromBeginning()</text><line style="stroke: #000000; stroke-width: 1.0;" x1="26" x2="144" y1="115.1143" y2="115.1143"/></a><!--class soen6441riskgame.models.ModelCommands--><a target="_parent" xlink:actuate="onRequest" xlink:href="../soen6441riskgame/models/ModelCommands.html" xlink:show="new" xlink:title="soen6441riskgame.models.ModelCommands" xlink:type="simple"><rect fill="#FFFFFF" filter="url(#f1gc5pio9358qr)" height="40.1875" id="soen6441riskgame.models.ModelCommands" style="stroke: #A80036; stroke-width: 1.5;" width="156" x="50" y="180"/><rect fill="#FFFFFF" height="40.1875" style="stroke: #A80036; stroke-width: 1.5;" width="156" x="50" y="180"/><ellipse cx="65" cy="200.0938" fill="#ADD1B2" rx="11" ry="11" style="stroke: #A80036; stroke-width: 1.0;"/><path d="M67.7656,195.9688 Q67.9219,195.75 68.1094,195.6406 Q68.2969,195.5313 68.5156,195.5313 Q68.8906,195.5313 69.125,195.7891 Q69.3594,196.0469 69.3594,196.6563 L69.3594,198.1094 Q69.3594,198.7188 69.125,198.9844 Q68.8906,199.25 68.5156,199.25 Q68.1719,199.25 67.9688,199.0469 Q67.7656,198.8594 67.6563,198.3438 Q67.6094,197.9844 67.4219,197.7969 Q67.0938,197.4219 66.4844,197.2031 Q65.875,196.9844 65.25,196.9844 Q64.4844,196.9844 63.8516,197.3125 Q63.2188,197.6406 62.7266,198.3906 Q62.2344,199.1406 62.2344,200.1719 L62.2344,201.2656 Q62.2344,202.5 63.125,203.3203 Q64.0156,204.1406 65.6094,204.1406 Q66.5469,204.1406 67.2031,203.8906 Q67.5938,203.7344 68.0156,203.2969 Q68.2813,203.0313 68.4297,202.9531 Q68.5781,202.875 68.7813,202.875 Q69.1094,202.875 69.3672,203.1328 Q69.625,203.3906 69.625,203.7344 Q69.625,204.0781 69.2813,204.4844 Q68.7813,205.0625 67.9844,205.3906 Q66.9063,205.8438 65.6094,205.8438 Q64.0938,205.8438 62.8906,205.2188 Q61.9063,204.7188 61.2188,203.6484 Q60.5313,202.5781 60.5313,201.2969 L60.5313,200.1406 Q60.5313,198.8125 61.1484,197.6641 Q61.7656,196.5156 62.8594,195.8984 Q63.9531,195.2813 65.1875,195.2813 Q65.9219,195.2813 66.5703,195.4453 Q67.2188,195.6094 67.7656,195.9688 Z "/><text fill="#000000" font-family="sans-serif" font-size="14" font-weight="bold" lengthAdjust="spacingAndGlyphs" textLength="121" x="80.5" y="199.5332">ModelCommands</text><text fill="#000000" font-family="sans-serif" font-size="10" lengthAdjust="spacingAndGlyphs" textLength="124" x="79" y="212.9902">soen6441riskgame.models</text></a><!--link soen6441riskgame.App to soen6441riskgame.models.ModelCommands--><path d="M128,120.1016 C128,120.1016 128,174.9304 128,174.9304 " fill="none" id="soen6441riskgame.App-soen6441riskgame.models.ModelCommands" style="stroke: #A80036; stroke-width: 1.0; stroke-dasharray: 7.0,7.0;"/><polygon fill="#A80036" points="128,179.9304,132,170.9304,128,174.9304,124,170.9304,128,179.9304" style="stroke: #A80036; stroke-width: 1.0;"/><!--
@startuml

skinparam svgLinkTarget _parent
skinparam linetype ortho
set namespaceSeparator none
class "<b><size:14>App</b>\n<size:10>soen6441riskgame" as soen6441riskgame.App  [[../soen6441riskgame/App.html{soen6441riskgame.App}]] {
-App()
{static} +void main(String args)
{static} +void jumpToCommand(ModelCommands args)
{static} +void runFromBeginning()
}


class "<b><size:14>ModelCommands</b>\n<size:10>soen6441riskgame.models" as soen6441riskgame.models.ModelCommands  [[../soen6441riskgame/models/ModelCommands.html{soen6441riskgame.models.ModelCommands}]] #white {
}

hide soen6441riskgame.models.ModelCommands fields
hide soen6441riskgame.models.ModelCommands methods

soen6441riskgame.App ..> soen6441riskgame.models.ModelCommands


@enduml

PlantUML version 1.2017.15(Mon Jul 03 12:45:34 EDT 2017)
(GPL source distribution)
Java Runtime: Java(TM) SE Runtime Environment
JVM: Java HotSpot(TM) 64-Bit Server VM
Java Version: 1.8.0_231-b11
Operating System: Windows 10
OS Version: 10.0
Default Encoding: Cp1252
Language: en
Country: US
--></g></svg>