<?xml version="1.0" encoding="UTF-8" standalone="no"?><svg xmlns="http://www.w3.org/2000/svg" xmlns:xlink="http://www.w3.org/1999/xlink" contentScriptType="application/ecmascript" contentStyleType="text/css" height="412px" preserveAspectRatio="none" style="width:2550px;height:412px;" version="1.1" viewBox="0 0 2550 412" width="2550px" zoomAndPan="magnify"><defs><filter height="300%" id="f17u7nn4uw21zr" width="300%" x="-1" y="-1"><feGaussianBlur result="blurOut" stdDeviation="2.0"/><feColorMatrix in="blurOut" result="blurOut2" type="matrix" values="0 0 0 0 0 0 0 0 0 0 0 0 0 0 0 0 0 0 .4 0"/><feOffset dx="4.0" dy="4.0" in="blurOut2" result="blurOut3"/><feBlend in="SourceGraphic" in2="blurOut3" mode="normal"/></filter></defs><g><!--cluster soen6441riskgame--><a target="_parent" xlink:actuate="onRequest" xlink:href="../soen6441riskgame/package-summary.html" xlink:show="new" xlink:title="soen6441riskgame" xlink:type="simple"><polygon fill="#FFFFE0" filter="url(#f17u7nn4uw21zr)" points="2052,24,2189,24,2196,47.6094,2199,47.6094,2199,108,2052,108,2052,24" style="stroke: #000000; stroke-width: 2.0;"/><line style="stroke: #000000; stroke-width: 2.0;" x1="2052" x2="2196" y1="47.6094" y2="47.6094"/><text fill="#000000" font-family="sans-serif" font-size="14" font-weight="bold" lengthAdjust="spacingAndGlyphs" textLength="131" x="2056" y="40.5332">soen6441riskgame</text></a><!--cluster soen6441riskgame.controllers--><a target="_parent" xlink:actuate="onRequest" xlink:href="../soen6441riskgame/controllers/package-summary.html" xlink:show="new" xlink:title="soen6441riskgame.controllers" xlink:type="simple"><polygon fill="#FFFFFF" filter="url(#f17u7nn4uw21zr)" points="22,24,240,24,247,47.6094,366,47.6094,366,200,22,200,22,24" style="stroke: #000000; stroke-width: 2.0;"/><line style="stroke: #000000; stroke-width: 2.0;" x1="22" x2="247" y1="47.6094" y2="47.6094"/><text fill="#000000" font-family="sans-serif" font-size="14" font-weight="bold" lengthAdjust="spacingAndGlyphs" textLength="212" x="26" y="40.5332">soen6441riskgame.controllers</text></a><!--cluster soen6441riskgame.enums--><a target="_parent" xlink:actuate="onRequest" xlink:href="../soen6441riskgame/enums/package-summary.html" xlink:show="new" xlink:title="soen6441riskgame.enums" xlink:type="simple"><polygon fill="#FFFFFF" filter="url(#f17u7nn4uw21zr)" points="390,24,578,24,585,47.6094,940,47.6094,940,200,390,200,390,24" style="stroke: #000000; stroke-width: 2.0;"/><line style="stroke: #000000; stroke-width: 2.0;" x1="390" x2="585" y1="47.6094" y2="47.6094"/><text fill="#000000" font-family="sans-serif" font-size="14" font-weight="bold" lengthAdjust="spacingAndGlyphs" textLength="182" x="394" y="40.5332">soen6441riskgame.enums</text></a><!--cluster soen6441riskgame.models--><a target="_parent" xlink:actuate="onRequest" xlink:href="../soen6441riskgame/models/package-summary.html" xlink:show="new" xlink:title="soen6441riskgame.models" xlink:type="simple"><polygon fill="#FFFFFF" filter="url(#f17u7nn4uw21zr)" points="964,24,1156,24,1163,47.6094,1700,47.6094,1700,308,964,308,964,24" style="stroke: #000000; stroke-width: 2.0;"/><line style="stroke: #000000; stroke-width: 2.0;" x1="964" x2="1163" y1="47.6094" y2="47.6094"/><text fill="#000000" font-family="sans-serif" font-size="14" font-weight="bold" lengthAdjust="spacingAndGlyphs" textLength="186" x="968" y="40.5332">soen6441riskgame.models</text></a><!--cluster soen6441riskgame.singleton--><a target="_parent" xlink:actuate="onRequest" xlink:href="../soen6441riskgame/singleton/package-summary.html" xlink:show="new" xlink:title="soen6441riskgame.singleton" xlink:type="simple"><polygon fill="#FFFFFF" filter="url(#f17u7nn4uw21zr)" points="611,224,818,224,825,247.6094,940,247.6094,940,400,611,400,611,224" style="stroke: #000000; stroke-width: 2.0;"/><line style="stroke: #000000; stroke-width: 2.0;" x1="611" x2="825" y1="247.6094" y2="247.6094"/><text fill="#000000" font-family="sans-serif" font-size="14" font-weight="bold" lengthAdjust="spacingAndGlyphs" textLength="201" x="615" y="240.5332">soen6441riskgame.singleton</text></a><!--cluster soen6441riskgame.utils--><a target="_parent" xlink:actuate="onRequest" xlink:href="../soen6441riskgame/utils/package-summary.html" xlink:show="new" xlink:title="soen6441riskgame.utils" xlink:type="simple"><polygon fill="#FFFFFF" filter="url(#f17u7nn4uw21zr)" points="1724,224,1895,224,1902,247.6094,2063,247.6094,2063,400,1724,400,1724,224" style="stroke: #000000; stroke-width: 2.0;"/><line style="stroke: #000000; stroke-width: 2.0;" x1="1724" x2="1902" y1="247.6094" y2="247.6094"/><text fill="#000000" font-family="sans-serif" font-size="14" font-weight="bold" lengthAdjust="spacingAndGlyphs" textLength="165" x="1728" y="240.5332">soen6441riskgame.utils</text></a><!--cluster soen6441riskgame.views--><a target="_parent" xlink:actuate="onRequest" xlink:href="../soen6441riskgame/views/package-summary.html" xlink:show="new" xlink:title="soen6441riskgame.views" xlink:type="simple"><polygon fill="#FFFFFF" filter="url(#f17u7nn4uw21zr)" points="2087,224,2269,224,2276,247.6094,2528,247.6094,2528,400,2087,400,2087,224" style="stroke: #000000; stroke-width: 2.0;"/><line style="stroke: #000000; stroke-width: 2.0;" x1="2087" x2="2276" y1="247.6094" y2="247.6094"/><text fill="#000000" font-family="sans-serif" font-size="14" font-weight="bold" lengthAdjust="spacingAndGlyphs" textLength="176" x="2091" y="240.5332">soen6441riskgame.views</text></a><!--class soen6441riskgame.App--><a target="_parent" xlink:actuate="onRequest" xlink:href="../soen6441riskgame/App.html" xlink:show="new" xlink:title="soen6441riskgame.App" xlink:type="simple"><rect fill="#FEFECE" filter="url(#f17u7nn4uw21zr)" height="32" id="soen6441riskgame.App" style="stroke: #A80036; stroke-width: 1.5;" width="59" x="2095.5" y="60"/><ellipse cx="2110.5" cy="76" fill="#ADD1B2" rx="11" ry="11" style="stroke: #A80036; stroke-width: 1.0;"/><path d="M2113.2656,71.875 Q2113.4219,71.6563 2113.6094,71.5469 Q2113.7969,71.4375 2114.0156,71.4375 Q2114.3906,71.4375 2114.625,71.6953 Q2114.8594,71.9531 2114.8594,72.5625 L2114.8594,74.0156 Q2114.8594,74.625 2114.625,74.8906 Q2114.3906,75.1563 2114.0156,75.1563 Q2113.6719,75.1563 2113.4688,74.9531 Q2113.2656,74.7656 2113.1563,74.25 Q2113.1094,73.8906 2112.9219,73.7031 Q2112.5938,73.3281 2111.9844,73.1094 Q2111.375,72.8906 2110.75,72.8906 Q2109.9844,72.8906 2109.3516,73.2188 Q2108.7188,73.5469 2108.2266,74.2969 Q2107.7344,75.0469 2107.7344,76.0781 L2107.7344,77.1719 Q2107.7344,78.4063 2108.625,79.2266 Q2109.5156,80.0469 2111.1094,80.0469 Q2112.0469,80.0469 2112.7031,79.7969 Q2113.0938,79.6406 2113.5156,79.2031 Q2113.7813,78.9375 2113.9297,78.8594 Q2114.0781,78.7813 2114.2813,78.7813 Q2114.6094,78.7813 2114.8672,79.0391 Q2115.125,79.2969 2115.125,79.6406 Q2115.125,79.9844 2114.7813,80.3906 Q2114.2813,80.9688 2113.4844,81.2969 Q2112.4063,81.75 2111.1094,81.75 Q2109.5938,81.75 2108.3906,81.125 Q2107.4063,80.625 2106.7188,79.5547 Q2106.0313,78.4844 2106.0313,77.2031 L2106.0313,76.0469 Q2106.0313,74.7188 2106.6484,73.5703 Q2107.2656,72.4219 2108.3594,71.8047 Q2109.4531,71.1875 2110.6875,71.1875 Q2111.4219,71.1875 2112.0703,71.3516 Q2112.7188,71.5156 2113.2656,71.875 Z "/><text fill="#000000" font-family="sans-serif" font-size="14" font-weight="bold" lengthAdjust="spacingAndGlyphs" textLength="27" x="2124.5" y="81.7285">App</text></a><!--class soen6441riskgame.controllers.GameController--><a target="_parent" xlink:actuate="onRequest" xlink:href="../soen6441riskgame/controllers/GameController.html" xlink:show="new" xlink:title="soen6441riskgame.controllers.GameController" xlink:type="simple"><rect fill="#FEFECE" filter="url(#f17u7nn4uw21zr)" height="32" id="soen6441riskgame.controllers.GameController" style="stroke: #A80036; stroke-width: 1.5;" width="143" x="38.5" y="60"/><ellipse cx="53.5" cy="76" fill="#ADD1B2" rx="11" ry="11" style="stroke: #A80036; stroke-width: 1.0;"/><path d="M56.2656,71.875 Q56.4219,71.6563 56.6094,71.5469 Q56.7969,71.4375 57.0156,71.4375 Q57.3906,71.4375 57.625,71.6953 Q57.8594,71.9531 57.8594,72.5625 L57.8594,74.0156 Q57.8594,74.625 57.625,74.8906 Q57.3906,75.1563 57.0156,75.1563 Q56.6719,75.1563 56.4688,74.9531 Q56.2656,74.7656 56.1563,74.25 Q56.1094,73.8906 55.9219,73.7031 Q55.5938,73.3281 54.9844,73.1094 Q54.375,72.8906 53.75,72.8906 Q52.9844,72.8906 52.3516,73.2188 Q51.7188,73.5469 51.2266,74.2969 Q50.7344,75.0469 50.7344,76.0781 L50.7344,77.1719 Q50.7344,78.4063 51.625,79.2266 Q52.5156,80.0469 54.1094,80.0469 Q55.0469,80.0469 55.7031,79.7969 Q56.0938,79.6406 56.5156,79.2031 Q56.7813,78.9375 56.9297,78.8594 Q57.0781,78.7813 57.2813,78.7813 Q57.6094,78.7813 57.8672,79.0391 Q58.125,79.2969 58.125,79.6406 Q58.125,79.9844 57.7813,80.3906 Q57.2813,80.9688 56.4844,81.2969 Q55.4063,81.75 54.1094,81.75 Q52.5938,81.75 51.3906,81.125 Q50.4063,80.625 49.7188,79.5547 Q49.0313,78.4844 49.0313,77.2031 L49.0313,76.0469 Q49.0313,74.7188 49.6484,73.5703 Q50.2656,72.4219 51.3594,71.8047 Q52.4531,71.1875 53.6875,71.1875 Q54.4219,71.1875 55.0703,71.3516 Q55.7188,71.5156 56.2656,71.875 Z "/><text fill="#000000" font-family="sans-serif" font-size="14" font-weight="bold" lengthAdjust="spacingAndGlyphs" textLength="111" x="67.5" y="81.7285">GameController</text></a><!--class soen6441riskgame.controllers.MapController--><a target="_parent" xlink:actuate="onRequest" xlink:href="../soen6441riskgame/controllers/MapController.html" xlink:show="new" xlink:title="soen6441riskgame.controllers.MapController" xlink:type="simple"><rect fill="#FEFECE" filter="url(#f17u7nn4uw21zr)" height="32" id="soen6441riskgame.controllers.MapController" style="stroke: #A80036; stroke-width: 1.5;" width="133" x="216.5" y="60"/><ellipse cx="231.5" cy="76" fill="#ADD1B2" rx="11" ry="11" style="stroke: #A80036; stroke-width: 1.0;"/><path d="M234.2656,71.875 Q234.4219,71.6563 234.6094,71.5469 Q234.7969,71.4375 235.0156,71.4375 Q235.3906,71.4375 235.625,71.6953 Q235.8594,71.9531 235.8594,72.5625 L235.8594,74.0156 Q235.8594,74.625 235.625,74.8906 Q235.3906,75.1563 235.0156,75.1563 Q234.6719,75.1563 234.4688,74.9531 Q234.2656,74.7656 234.1563,74.25 Q234.1094,73.8906 233.9219,73.7031 Q233.5938,73.3281 232.9844,73.1094 Q232.375,72.8906 231.75,72.8906 Q230.9844,72.8906 230.3516,73.2188 Q229.7188,73.5469 229.2266,74.2969 Q228.7344,75.0469 228.7344,76.0781 L228.7344,77.1719 Q228.7344,78.4063 229.625,79.2266 Q230.5156,80.0469 232.1094,80.0469 Q233.0469,80.0469 233.7031,79.7969 Q234.0938,79.6406 234.5156,79.2031 Q234.7813,78.9375 234.9297,78.8594 Q235.0781,78.7813 235.2813,78.7813 Q235.6094,78.7813 235.8672,79.0391 Q236.125,79.2969 236.125,79.6406 Q236.125,79.9844 235.7813,80.3906 Q235.2813,80.9688 234.4844,81.2969 Q233.4063,81.75 232.1094,81.75 Q230.5938,81.75 229.3906,81.125 Q228.4063,80.625 227.7188,79.5547 Q227.0313,78.4844 227.0313,77.2031 L227.0313,76.0469 Q227.0313,74.7188 227.6484,73.5703 Q228.2656,72.4219 229.3594,71.8047 Q230.4531,71.1875 231.6875,71.1875 Q232.4219,71.1875 233.0703,71.3516 Q233.7188,71.5156 234.2656,71.875 Z "/><text fill="#000000" font-family="sans-serif" font-size="14" font-weight="bold" lengthAdjust="spacingAndGlyphs" textLength="101" x="245.5" y="81.7285">MapController</text></a><!--class soen6441riskgame.controllers.SaveLoadController--><a target="_parent" xlink:actuate="onRequest" xlink:href="../soen6441riskgame/controllers/SaveLoadController.html" xlink:show="new" xlink:title="soen6441riskgame.controllers.SaveLoadController" xlink:type="simple"><rect fill="#FEFECE" filter="url(#f17u7nn4uw21zr)" height="32" id="soen6441riskgame.controllers.SaveLoadController" style="stroke: #A80036; stroke-width: 1.5;" width="172" x="108" y="152"/><ellipse cx="123" cy="168" fill="#ADD1B2" rx="11" ry="11" style="stroke: #A80036; stroke-width: 1.0;"/><path d="M125.7656,163.875 Q125.9219,163.6563 126.1094,163.5469 Q126.2969,163.4375 126.5156,163.4375 Q126.8906,163.4375 127.125,163.6953 Q127.3594,163.9531 127.3594,164.5625 L127.3594,166.0156 Q127.3594,166.625 127.125,166.8906 Q126.8906,167.1563 126.5156,167.1563 Q126.1719,167.1563 125.9688,166.9531 Q125.7656,166.7656 125.6563,166.25 Q125.6094,165.8906 125.4219,165.7031 Q125.0938,165.3281 124.4844,165.1094 Q123.875,164.8906 123.25,164.8906 Q122.4844,164.8906 121.8516,165.2188 Q121.2188,165.5469 120.7266,166.2969 Q120.2344,167.0469 120.2344,168.0781 L120.2344,169.1719 Q120.2344,170.4063 121.125,171.2266 Q122.0156,172.0469 123.6094,172.0469 Q124.5469,172.0469 125.2031,171.7969 Q125.5938,171.6406 126.0156,171.2031 Q126.2813,170.9375 126.4297,170.8594 Q126.5781,170.7813 126.7813,170.7813 Q127.1094,170.7813 127.3672,171.0391 Q127.625,171.2969 127.625,171.6406 Q127.625,171.9844 127.2813,172.3906 Q126.7813,172.9688 125.9844,173.2969 Q124.9063,173.75 123.6094,173.75 Q122.0938,173.75 120.8906,173.125 Q119.9063,172.625 119.2188,171.5547 Q118.5313,170.4844 118.5313,169.2031 L118.5313,168.0469 Q118.5313,166.7188 119.1484,165.5703 Q119.7656,164.4219 120.8594,163.8047 Q121.9531,163.1875 123.1875,163.1875 Q123.9219,163.1875 124.5703,163.3516 Q125.2188,163.5156 125.7656,163.875 Z "/><text fill="#000000" font-family="sans-serif" font-size="14" font-weight="bold" lengthAdjust="spacingAndGlyphs" textLength="140" x="137" y="173.7285">SaveLoadController</text></a><!--class soen6441riskgame.enums.CardType--><a target="_parent" xlink:actuate="onRequest" xlink:href="../soen6441riskgame/enums/CardType.html" xlink:show="new" xlink:title="soen6441riskgame.enums.CardType" xlink:type="simple"><rect fill="#FEFECE" filter="url(#f17u7nn4uw21zr)" height="32" id="soen6441riskgame.enums.CardType" style="stroke: #A80036; stroke-width: 1.5;" width="98" x="406" y="60"/><ellipse cx="421" cy="76" fill="#EB937F" rx="11" ry="11" style="stroke: #A80036; stroke-width: 1.0;"/><path d="M419.8594,76.7969 L419.8594,79.2969 L424.1875,79.2969 L424.1875,78.375 Q424.1875,77.7656 424.4297,77.5 Q424.6719,77.2344 425.0469,77.2344 Q425.4219,77.2344 425.6563,77.5 Q425.8906,77.7656 425.8906,78.375 L425.8906,81 L417.8906,81 Q417.2656,81 417.0078,80.7656 Q416.75,80.5313 416.75,80.1406 Q416.75,79.7656 417.0156,79.5313 Q417.2813,79.2969 417.8906,79.2969 L418.1563,79.2969 L418.1563,72.6406 L417.8906,72.6406 Q417.2656,72.6406 417.0078,72.4063 Q416.75,72.1719 416.75,71.7813 Q416.75,71.4063 417.0078,71.1719 Q417.2656,70.9375 417.8906,70.9375 L425.5156,70.9375 L425.5156,73.5313 Q425.5156,74.1406 425.2891,74.3984 Q425.0625,74.6563 424.6719,74.6563 Q424.2969,74.6563 424.0625,74.3984 Q423.8281,74.1406 423.8281,73.5313 L423.8281,72.6406 L419.8594,72.6406 L419.8594,75.0938 L421.3438,75.0938 Q421.3438,74.4375 421.4688,74.25 Q421.7344,73.8438 422.2031,73.8438 Q422.5781,73.8438 422.8125,74.1016 Q423.0469,74.3594 423.0469,74.9688 L423.0469,76.9375 Q423.0469,77.4844 422.9219,77.6719 Q422.6563,78.0625 422.2031,78.0625 Q421.7344,78.0625 421.4688,77.6563 Q421.3438,77.4688 421.3438,76.7969 L419.8594,76.7969 Z "/><text fill="#000000" font-family="sans-serif" font-size="14" font-weight="bold" lengthAdjust="spacingAndGlyphs" textLength="66" x="435" y="81.7285">CardType</text></a><!--class soen6441riskgame.enums.ChangedProperty--><a target="_parent" xlink:actuate="onRequest" xlink:href="../soen6441riskgame/enums/ChangedProperty.html" xlink:show="new" xlink:title="soen6441riskgame.enums.ChangedProperty" xlink:type="simple"><rect fill="#FEFECE" filter="url(#f17u7nn4uw21zr)" height="32" id="soen6441riskgame.enums.ChangedProperty" style="stroke: #A80036; stroke-width: 1.5;" width="155" x="539.5" y="60"/><ellipse cx="554.5" cy="76" fill="#EB937F" rx="11" ry="11" style="stroke: #A80036; stroke-width: 1.0;"/><path d="M553.3594,76.7969 L553.3594,79.2969 L557.6875,79.2969 L557.6875,78.375 Q557.6875,77.7656 557.9297,77.5 Q558.1719,77.2344 558.5469,77.2344 Q558.9219,77.2344 559.1563,77.5 Q559.3906,77.7656 559.3906,78.375 L559.3906,81 L551.3906,81 Q550.7656,81 550.5078,80.7656 Q550.25,80.5313 550.25,80.1406 Q550.25,79.7656 550.5156,79.5313 Q550.7813,79.2969 551.3906,79.2969 L551.6563,79.2969 L551.6563,72.6406 L551.3906,72.6406 Q550.7656,72.6406 550.5078,72.4063 Q550.25,72.1719 550.25,71.7813 Q550.25,71.4063 550.5078,71.1719 Q550.7656,70.9375 551.3906,70.9375 L559.0156,70.9375 L559.0156,73.5313 Q559.0156,74.1406 558.7891,74.3984 Q558.5625,74.6563 558.1719,74.6563 Q557.7969,74.6563 557.5625,74.3984 Q557.3281,74.1406 557.3281,73.5313 L557.3281,72.6406 L553.3594,72.6406 L553.3594,75.0938 L554.8438,75.0938 Q554.8438,74.4375 554.9688,74.25 Q555.2344,73.8438 555.7031,73.8438 Q556.0781,73.8438 556.3125,74.1016 Q556.5469,74.3594 556.5469,74.9688 L556.5469,76.9375 Q556.5469,77.4844 556.4219,77.6719 Q556.1563,78.0625 555.7031,78.0625 Q555.2344,78.0625 554.9688,77.6563 Q554.8438,77.4688 554.8438,76.7969 L553.3594,76.7969 Z "/><text fill="#000000" font-family="sans-serif" font-size="14" font-weight="bold" lengthAdjust="spacingAndGlyphs" textLength="123" x="568.5" y="81.7285">ChangedProperty</text></a><!--class soen6441riskgame.enums.CommonCommandArgs--><a target="_parent" xlink:actuate="onRequest" xlink:href="../soen6441riskgame/enums/CommonCommandArgs.html" xlink:show="new" xlink:title="soen6441riskgame.enums.CommonCommandArgs" xlink:type="simple"><rect fill="#FEFECE" filter="url(#f17u7nn4uw21zr)" height="32" id="soen6441riskgame.enums.CommonCommandArgs" style="stroke: #A80036; stroke-width: 1.5;" width="194" x="730" y="60"/><ellipse cx="745" cy="76" fill="#EB937F" rx="11" ry="11" style="stroke: #A80036; stroke-width: 1.0;"/><path d="M743.8594,76.7969 L743.8594,79.2969 L748.1875,79.2969 L748.1875,78.375 Q748.1875,77.7656 748.4297,77.5 Q748.6719,77.2344 749.0469,77.2344 Q749.4219,77.2344 749.6563,77.5 Q749.8906,77.7656 749.8906,78.375 L749.8906,81 L741.8906,81 Q741.2656,81 741.0078,80.7656 Q740.75,80.5313 740.75,80.1406 Q740.75,79.7656 741.0156,79.5313 Q741.2813,79.2969 741.8906,79.2969 L742.1563,79.2969 L742.1563,72.6406 L741.8906,72.6406 Q741.2656,72.6406 741.0078,72.4063 Q740.75,72.1719 740.75,71.7813 Q740.75,71.4063 741.0078,71.1719 Q741.2656,70.9375 741.8906,70.9375 L749.5156,70.9375 L749.5156,73.5313 Q749.5156,74.1406 749.2891,74.3984 Q749.0625,74.6563 748.6719,74.6563 Q748.2969,74.6563 748.0625,74.3984 Q747.8281,74.1406 747.8281,73.5313 L747.8281,72.6406 L743.8594,72.6406 L743.8594,75.0938 L745.3438,75.0938 Q745.3438,74.4375 745.4688,74.25 Q745.7344,73.8438 746.2031,73.8438 Q746.5781,73.8438 746.8125,74.1016 Q747.0469,74.3594 747.0469,74.9688 L747.0469,76.9375 Q747.0469,77.4844 746.9219,77.6719 Q746.6563,78.0625 746.2031,78.0625 Q745.7344,78.0625 745.4688,77.6563 Q745.3438,77.4688 745.3438,76.7969 L743.8594,76.7969 Z "/><text fill="#000000" font-family="sans-serif" font-size="14" font-weight="bold" lengthAdjust="spacingAndGlyphs" textLength="162" x="759" y="81.7285">CommonCommandArgs</text></a><!--class soen6441riskgame.enums.GamePhase--><a target="_parent" xlink:actuate="onRequest" xlink:href="../soen6441riskgame/enums/GamePhase.html" xlink:show="new" xlink:title="soen6441riskgame.enums.GamePhase" xlink:type="simple"><rect fill="#FEFECE" filter="url(#f17u7nn4uw21zr)" height="32" id="soen6441riskgame.enums.GamePhase" style="stroke: #A80036; stroke-width: 1.5;" width="115" x="406.5" y="152"/><ellipse cx="421.5" cy="168" fill="#EB937F" rx="11" ry="11" style="stroke: #A80036; stroke-width: 1.0;"/><path d="M420.3594,168.7969 L420.3594,171.2969 L424.6875,171.2969 L424.6875,170.375 Q424.6875,169.7656 424.9297,169.5 Q425.1719,169.2344 425.5469,169.2344 Q425.9219,169.2344 426.1563,169.5 Q426.3906,169.7656 426.3906,170.375 L426.3906,173 L418.3906,173 Q417.7656,173 417.5078,172.7656 Q417.25,172.5313 417.25,172.1406 Q417.25,171.7656 417.5156,171.5313 Q417.7813,171.2969 418.3906,171.2969 L418.6563,171.2969 L418.6563,164.6406 L418.3906,164.6406 Q417.7656,164.6406 417.5078,164.4063 Q417.25,164.1719 417.25,163.7813 Q417.25,163.4063 417.5078,163.1719 Q417.7656,162.9375 418.3906,162.9375 L426.0156,162.9375 L426.0156,165.5313 Q426.0156,166.1406 425.7891,166.3984 Q425.5625,166.6563 425.1719,166.6563 Q424.7969,166.6563 424.5625,166.3984 Q424.3281,166.1406 424.3281,165.5313 L424.3281,164.6406 L420.3594,164.6406 L420.3594,167.0938 L421.8438,167.0938 Q421.8438,166.4375 421.9688,166.25 Q422.2344,165.8438 422.7031,165.8438 Q423.0781,165.8438 423.3125,166.1016 Q423.5469,166.3594 423.5469,166.9688 L423.5469,168.9375 Q423.5469,169.4844 423.4219,169.6719 Q423.1563,170.0625 422.7031,170.0625 Q422.2344,170.0625 421.9688,169.6563 Q421.8438,169.4688 421.8438,168.7969 L420.3594,168.7969 Z "/><text fill="#000000" font-family="sans-serif" font-size="14" font-weight="bold" lengthAdjust="spacingAndGlyphs" textLength="83" x="435.5" y="173.7285">GamePhase</text></a><!--class soen6441riskgame.enums.MapPart--><a target="_parent" xlink:actuate="onRequest" xlink:href="../soen6441riskgame/enums/MapPart.html" xlink:show="new" xlink:title="soen6441riskgame.enums.MapPart" xlink:type="simple"><rect fill="#FEFECE" filter="url(#f17u7nn4uw21zr)" height="32" id="soen6441riskgame.enums.MapPart" style="stroke: #A80036; stroke-width: 1.5;" width="90" x="557" y="152"/><ellipse cx="572" cy="168" fill="#EB937F" rx="11" ry="11" style="stroke: #A80036; stroke-width: 1.0;"/><path d="M570.8594,168.7969 L570.8594,171.2969 L575.1875,171.2969 L575.1875,170.375 Q575.1875,169.7656 575.4297,169.5 Q575.6719,169.2344 576.0469,169.2344 Q576.4219,169.2344 576.6563,169.5 Q576.8906,169.7656 576.8906,170.375 L576.8906,173 L568.8906,173 Q568.2656,173 568.0078,172.7656 Q567.75,172.5313 567.75,172.1406 Q567.75,171.7656 568.0156,171.5313 Q568.2813,171.2969 568.8906,171.2969 L569.1563,171.2969 L569.1563,164.6406 L568.8906,164.6406 Q568.2656,164.6406 568.0078,164.4063 Q567.75,164.1719 567.75,163.7813 Q567.75,163.4063 568.0078,163.1719 Q568.2656,162.9375 568.8906,162.9375 L576.5156,162.9375 L576.5156,165.5313 Q576.5156,166.1406 576.2891,166.3984 Q576.0625,166.6563 575.6719,166.6563 Q575.2969,166.6563 575.0625,166.3984 Q574.8281,166.1406 574.8281,165.5313 L574.8281,164.6406 L570.8594,164.6406 L570.8594,167.0938 L572.3438,167.0938 Q572.3438,166.4375 572.4688,166.25 Q572.7344,165.8438 573.2031,165.8438 Q573.5781,165.8438 573.8125,166.1016 Q574.0469,166.3594 574.0469,166.9688 L574.0469,168.9375 Q574.0469,169.4844 573.9219,169.6719 Q573.6563,170.0625 573.2031,170.0625 Q572.7344,170.0625 572.4688,169.6563 Q572.3438,169.4688 572.3438,168.7969 L570.8594,168.7969 Z "/><text fill="#000000" font-family="sans-serif" font-size="14" font-weight="bold" lengthAdjust="spacingAndGlyphs" textLength="58" x="586" y="173.7285">MapPart</text></a><!--class soen6441riskgame.models.Card--><a target="_parent" xlink:actuate="onRequest" xlink:href="../soen6441riskgame/models/Card.html" xlink:show="new" xlink:title="soen6441riskgame.models.Card" xlink:type="simple"><rect fill="#FEFECE" filter="url(#f17u7nn4uw21zr)" height="32" id="soen6441riskgame.models.Card" style="stroke: #A80036; stroke-width: 1.5;" width="65" x="980.5" y="60"/><ellipse cx="995.5" cy="76" fill="#ADD1B2" rx="11" ry="11" style="stroke: #A80036; stroke-width: 1.0;"/><path d="M998.2656,71.875 Q998.4219,71.6563 998.6094,71.5469 Q998.7969,71.4375 999.0156,71.4375 Q999.3906,71.4375 999.625,71.6953 Q999.8594,71.9531 999.8594,72.5625 L999.8594,74.0156 Q999.8594,74.625 999.625,74.8906 Q999.3906,75.1563 999.0156,75.1563 Q998.6719,75.1563 998.4688,74.9531 Q998.2656,74.7656 998.1563,74.25 Q998.1094,73.8906 997.9219,73.7031 Q997.5938,73.3281 996.9844,73.1094 Q996.375,72.8906 995.75,72.8906 Q994.9844,72.8906 994.3516,73.2188 Q993.7188,73.5469 993.2266,74.2969 Q992.7344,75.0469 992.7344,76.0781 L992.7344,77.1719 Q992.7344,78.4063 993.625,79.2266 Q994.5156,80.0469 996.1094,80.0469 Q997.0469,80.0469 997.7031,79.7969 Q998.0938,79.6406 998.5156,79.2031 Q998.7813,78.9375 998.9297,78.8594 Q999.0781,78.7813 999.2813,78.7813 Q999.6094,78.7813 999.8672,79.0391 Q1000.125,79.2969 1000.125,79.6406 Q1000.125,79.9844 999.7813,80.3906 Q999.2813,80.9688 998.4844,81.2969 Q997.4063,81.75 996.1094,81.75 Q994.5938,81.75 993.3906,81.125 Q992.4063,80.625 991.7188,79.5547 Q991.0313,78.4844 991.0313,77.2031 L991.0313,76.0469 Q991.0313,74.7188 991.6484,73.5703 Q992.2656,72.4219 993.3594,71.8047 Q994.4531,71.1875 995.6875,71.1875 Q996.4219,71.1875 997.0703,71.3516 Q997.7188,71.5156 998.2656,71.875 Z "/><text fill="#000000" font-family="sans-serif" font-size="14" font-weight="bold" lengthAdjust="spacingAndGlyphs" textLength="33" x="1009.5" y="81.7285">Card</text></a><!--class soen6441riskgame.models.CardSet--><a target="_parent" xlink:actuate="onRequest" xlink:href="../soen6441riskgame/models/CardSet.html" xlink:show="new" xlink:title="soen6441riskgame.models.CardSet" xlink:type="simple"><rect fill="#FEFECE" filter="url(#f17u7nn4uw21zr)" height="32" id="soen6441riskgame.models.CardSet" style="stroke: #A80036; stroke-width: 1.5;" width="88" x="1081" y="60"/><ellipse cx="1096" cy="76" fill="#ADD1B2" rx="11" ry="11" style="stroke: #A80036; stroke-width: 1.0;"/><path d="M1098.7656,71.875 Q1098.9219,71.6563 1099.1094,71.5469 Q1099.2969,71.4375 1099.5156,71.4375 Q1099.8906,71.4375 1100.125,71.6953 Q1100.3594,71.9531 1100.3594,72.5625 L1100.3594,74.0156 Q1100.3594,74.625 1100.125,74.8906 Q1099.8906,75.1563 1099.5156,75.1563 Q1099.1719,75.1563 1098.9688,74.9531 Q1098.7656,74.7656 1098.6563,74.25 Q1098.6094,73.8906 1098.4219,73.7031 Q1098.0938,73.3281 1097.4844,73.1094 Q1096.875,72.8906 1096.25,72.8906 Q1095.4844,72.8906 1094.8516,73.2188 Q1094.2188,73.5469 1093.7266,74.2969 Q1093.2344,75.0469 1093.2344,76.0781 L1093.2344,77.1719 Q1093.2344,78.4063 1094.125,79.2266 Q1095.0156,80.0469 1096.6094,80.0469 Q1097.5469,80.0469 1098.2031,79.7969 Q1098.5938,79.6406 1099.0156,79.2031 Q1099.2813,78.9375 1099.4297,78.8594 Q1099.5781,78.7813 1099.7813,78.7813 Q1100.1094,78.7813 1100.3672,79.0391 Q1100.625,79.2969 1100.625,79.6406 Q1100.625,79.9844 1100.2813,80.3906 Q1099.7813,80.9688 1098.9844,81.2969 Q1097.9063,81.75 1096.6094,81.75 Q1095.0938,81.75 1093.8906,81.125 Q1092.9063,80.625 1092.2188,79.5547 Q1091.5313,78.4844 1091.5313,77.2031 L1091.5313,76.0469 Q1091.5313,74.7188 1092.1484,73.5703 Q1092.7656,72.4219 1093.8594,71.8047 Q1094.9531,71.1875 1096.1875,71.1875 Q1096.9219,71.1875 1097.5703,71.3516 Q1098.2188,71.5156 1098.7656,71.875 Z "/><text fill="#000000" font-family="sans-serif" font-size="14" font-weight="bold" lengthAdjust="spacingAndGlyphs" textLength="56" x="1110" y="81.7285">CardSet</text></a><!--class soen6441riskgame.models.Continent--><a target="_parent" xlink:actuate="onRequest" xlink:href="../soen6441riskgame/models/Continent.html" xlink:show="new" xlink:title="soen6441riskgame.models.Continent" xlink:type="simple"><rect fill="#FEFECE" filter="url(#f17u7nn4uw21zr)" height="32" id="soen6441riskgame.models.Continent" style="stroke: #A80036; stroke-width: 1.5;" width="101" x="1204.5" y="60"/><ellipse cx="1219.5" cy="76" fill="#ADD1B2" rx="11" ry="11" style="stroke: #A80036; stroke-width: 1.0;"/><path d="M1222.2656,71.875 Q1222.4219,71.6563 1222.6094,71.5469 Q1222.7969,71.4375 1223.0156,71.4375 Q1223.3906,71.4375 1223.625,71.6953 Q1223.8594,71.9531 1223.8594,72.5625 L1223.8594,74.0156 Q1223.8594,74.625 1223.625,74.8906 Q1223.3906,75.1563 1223.0156,75.1563 Q1222.6719,75.1563 1222.4688,74.9531 Q1222.2656,74.7656 1222.1563,74.25 Q1222.1094,73.8906 1221.9219,73.7031 Q1221.5938,73.3281 1220.9844,73.1094 Q1220.375,72.8906 1219.75,72.8906 Q1218.9844,72.8906 1218.3516,73.2188 Q1217.7188,73.5469 1217.2266,74.2969 Q1216.7344,75.0469 1216.7344,76.0781 L1216.7344,77.1719 Q1216.7344,78.4063 1217.625,79.2266 Q1218.5156,80.0469 1220.1094,80.0469 Q1221.0469,80.0469 1221.7031,79.7969 Q1222.0938,79.6406 1222.5156,79.2031 Q1222.7813,78.9375 1222.9297,78.8594 Q1223.0781,78.7813 1223.2813,78.7813 Q1223.6094,78.7813 1223.8672,79.0391 Q1224.125,79.2969 1224.125,79.6406 Q1224.125,79.9844 1223.7813,80.3906 Q1223.2813,80.9688 1222.4844,81.2969 Q1221.4063,81.75 1220.1094,81.75 Q1218.5938,81.75 1217.3906,81.125 Q1216.4063,80.625 1215.7188,79.5547 Q1215.0313,78.4844 1215.0313,77.2031 L1215.0313,76.0469 Q1215.0313,74.7188 1215.6484,73.5703 Q1216.2656,72.4219 1217.3594,71.8047 Q1218.4531,71.1875 1219.6875,71.1875 Q1220.4219,71.1875 1221.0703,71.3516 Q1221.7188,71.5156 1222.2656,71.875 Z "/><text fill="#000000" font-family="sans-serif" font-size="14" font-weight="bold" lengthAdjust="spacingAndGlyphs" textLength="69" x="1233.5" y="81.7285">Continent</text></a><!--class soen6441riskgame.models.Coordinate--><a target="_parent" xlink:actuate="onRequest" xlink:href="../soen6441riskgame/models/Coordinate.html" xlink:show="new" xlink:title="soen6441riskgame.models.Coordinate" xlink:type="simple"><rect fill="#FEFECE" filter="url(#f17u7nn4uw21zr)" height="32" id="soen6441riskgame.models.Coordinate" style="stroke: #A80036; stroke-width: 1.5;" width="110" x="1341" y="60"/><ellipse cx="1356" cy="76" fill="#ADD1B2" rx="11" ry="11" style="stroke: #A80036; stroke-width: 1.0;"/><path d="M1358.7656,71.875 Q1358.9219,71.6563 1359.1094,71.5469 Q1359.2969,71.4375 1359.5156,71.4375 Q1359.8906,71.4375 1360.125,71.6953 Q1360.3594,71.9531 1360.3594,72.5625 L1360.3594,74.0156 Q1360.3594,74.625 1360.125,74.8906 Q1359.8906,75.1563 1359.5156,75.1563 Q1359.1719,75.1563 1358.9688,74.9531 Q1358.7656,74.7656 1358.6563,74.25 Q1358.6094,73.8906 1358.4219,73.7031 Q1358.0938,73.3281 1357.4844,73.1094 Q1356.875,72.8906 1356.25,72.8906 Q1355.4844,72.8906 1354.8516,73.2188 Q1354.2188,73.5469 1353.7266,74.2969 Q1353.2344,75.0469 1353.2344,76.0781 L1353.2344,77.1719 Q1353.2344,78.4063 1354.125,79.2266 Q1355.0156,80.0469 1356.6094,80.0469 Q1357.5469,80.0469 1358.2031,79.7969 Q1358.5938,79.6406 1359.0156,79.2031 Q1359.2813,78.9375 1359.4297,78.8594 Q1359.5781,78.7813 1359.7813,78.7813 Q1360.1094,78.7813 1360.3672,79.0391 Q1360.625,79.2969 1360.625,79.6406 Q1360.625,79.9844 1360.2813,80.3906 Q1359.7813,80.9688 1358.9844,81.2969 Q1357.9063,81.75 1356.6094,81.75 Q1355.0938,81.75 1353.8906,81.125 Q1352.9063,80.625 1352.2188,79.5547 Q1351.5313,78.4844 1351.5313,77.2031 L1351.5313,76.0469 Q1351.5313,74.7188 1352.1484,73.5703 Q1352.7656,72.4219 1353.8594,71.8047 Q1354.9531,71.1875 1356.1875,71.1875 Q1356.9219,71.1875 1357.5703,71.3516 Q1358.2188,71.5156 1358.7656,71.875 Z "/><text fill="#000000" font-family="sans-serif" font-size="14" font-weight="bold" lengthAdjust="spacingAndGlyphs" textLength="78" x="1370" y="81.7285">Coordinate</text></a><!--class soen6441riskgame.models.Country--><a target="_parent" xlink:actuate="onRequest" xlink:href="../soen6441riskgame/models/Country.html" xlink:show="new" xlink:title="soen6441riskgame.models.Country" xlink:type="simple"><rect fill="#FEFECE" filter="url(#f17u7nn4uw21zr)" height="32" id="soen6441riskgame.models.Country" style="stroke: #A80036; stroke-width: 1.5;" width="87" x="980.5" y="152"/><ellipse cx="995.5" cy="168" fill="#ADD1B2" rx="11" ry="11" style="stroke: #A80036; stroke-width: 1.0;"/><path d="M998.2656,163.875 Q998.4219,163.6563 998.6094,163.5469 Q998.7969,163.4375 999.0156,163.4375 Q999.3906,163.4375 999.625,163.6953 Q999.8594,163.9531 999.8594,164.5625 L999.8594,166.0156 Q999.8594,166.625 999.625,166.8906 Q999.3906,167.1563 999.0156,167.1563 Q998.6719,167.1563 998.4688,166.9531 Q998.2656,166.7656 998.1563,166.25 Q998.1094,165.8906 997.9219,165.7031 Q997.5938,165.3281 996.9844,165.1094 Q996.375,164.8906 995.75,164.8906 Q994.9844,164.8906 994.3516,165.2188 Q993.7188,165.5469 993.2266,166.2969 Q992.7344,167.0469 992.7344,168.0781 L992.7344,169.1719 Q992.7344,170.4063 993.625,171.2266 Q994.5156,172.0469 996.1094,172.0469 Q997.0469,172.0469 997.7031,171.7969 Q998.0938,171.6406 998.5156,171.2031 Q998.7813,170.9375 998.9297,170.8594 Q999.0781,170.7813 999.2813,170.7813 Q999.6094,170.7813 999.8672,171.0391 Q1000.125,171.2969 1000.125,171.6406 Q1000.125,171.9844 999.7813,172.3906 Q999.2813,172.9688 998.4844,173.2969 Q997.4063,173.75 996.1094,173.75 Q994.5938,173.75 993.3906,173.125 Q992.4063,172.625 991.7188,171.5547 Q991.0313,170.4844 991.0313,169.2031 L991.0313,168.0469 Q991.0313,166.7188 991.6484,165.5703 Q992.2656,164.4219 993.3594,163.8047 Q994.4531,163.1875 995.6875,163.1875 Q996.4219,163.1875 997.0703,163.3516 Q997.7188,163.5156 998.2656,163.875 Z "/><text fill="#000000" font-family="sans-serif" font-size="14" font-weight="bold" lengthAdjust="spacingAndGlyphs" textLength="55" x="1009.5" y="173.7285">Country</text></a><!--class soen6441riskgame.models.ModelCommands--><a target="_parent" xlink:actuate="onRequest" xlink:href="../soen6441riskgame/models/ModelCommands.html" xlink:show="new" xlink:title="soen6441riskgame.models.ModelCommands" xlink:type="simple"><rect fill="#FEFECE" filter="url(#f17u7nn4uw21zr)" height="32" id="soen6441riskgame.models.ModelCommands" style="stroke: #A80036; stroke-width: 1.5;" width="153" x="1102.5" y="152"/><ellipse cx="1117.5" cy="168" fill="#ADD1B2" rx="11" ry="11" style="stroke: #A80036; stroke-width: 1.0;"/><path d="M1120.2656,163.875 Q1120.4219,163.6563 1120.6094,163.5469 Q1120.7969,163.4375 1121.0156,163.4375 Q1121.3906,163.4375 1121.625,163.6953 Q1121.8594,163.9531 1121.8594,164.5625 L1121.8594,166.0156 Q1121.8594,166.625 1121.625,166.8906 Q1121.3906,167.1563 1121.0156,167.1563 Q1120.6719,167.1563 1120.4688,166.9531 Q1120.2656,166.7656 1120.1563,166.25 Q1120.1094,165.8906 1119.9219,165.7031 Q1119.5938,165.3281 1118.9844,165.1094 Q1118.375,164.8906 1117.75,164.8906 Q1116.9844,164.8906 1116.3516,165.2188 Q1115.7188,165.5469 1115.2266,166.2969 Q1114.7344,167.0469 1114.7344,168.0781 L1114.7344,169.1719 Q1114.7344,170.4063 1115.625,171.2266 Q1116.5156,172.0469 1118.1094,172.0469 Q1119.0469,172.0469 1119.7031,171.7969 Q1120.0938,171.6406 1120.5156,171.2031 Q1120.7813,170.9375 1120.9297,170.8594 Q1121.0781,170.7813 1121.2813,170.7813 Q1121.6094,170.7813 1121.8672,171.0391 Q1122.125,171.2969 1122.125,171.6406 Q1122.125,171.9844 1121.7813,172.3906 Q1121.2813,172.9688 1120.4844,173.2969 Q1119.4063,173.75 1118.1094,173.75 Q1116.5938,173.75 1115.3906,173.125 Q1114.4063,172.625 1113.7188,171.5547 Q1113.0313,170.4844 1113.0313,169.2031 L1113.0313,168.0469 Q1113.0313,166.7188 1113.6484,165.5703 Q1114.2656,164.4219 1115.3594,163.8047 Q1116.4531,163.1875 1117.6875,163.1875 Q1118.4219,163.1875 1119.0703,163.3516 Q1119.7188,163.5156 1120.2656,163.875 Z "/><text fill="#000000" font-family="sans-serif" font-size="14" font-weight="bold" lengthAdjust="spacingAndGlyphs" textLength="121" x="1131.5" y="173.7285">ModelCommands</text></a><!--class soen6441riskgame.models.ModelCommandsPair--><a target="_parent" xlink:actuate="onRequest" xlink:href="../soen6441riskgame/models/ModelCommandsPair.html" xlink:show="new" xlink:title="soen6441riskgame.models.ModelCommandsPair" xlink:type="simple"><rect fill="#FEFECE" filter="url(#f17u7nn4uw21zr)" height="32" id="soen6441riskgame.models.ModelCommandsPair" style="stroke: #A80036; stroke-width: 1.5;" width="180" x="1291" y="152"/><ellipse cx="1306" cy="168" fill="#ADD1B2" rx="11" ry="11" style="stroke: #A80036; stroke-width: 1.0;"/><path d="M1308.7656,163.875 Q1308.9219,163.6563 1309.1094,163.5469 Q1309.2969,163.4375 1309.5156,163.4375 Q1309.8906,163.4375 1310.125,163.6953 Q1310.3594,163.9531 1310.3594,164.5625 L1310.3594,166.0156 Q1310.3594,166.625 1310.125,166.8906 Q1309.8906,167.1563 1309.5156,167.1563 Q1309.1719,167.1563 1308.9688,166.9531 Q1308.7656,166.7656 1308.6563,166.25 Q1308.6094,165.8906 1308.4219,165.7031 Q1308.0938,165.3281 1307.4844,165.1094 Q1306.875,164.8906 1306.25,164.8906 Q1305.4844,164.8906 1304.8516,165.2188 Q1304.2188,165.5469 1303.7266,166.2969 Q1303.2344,167.0469 1303.2344,168.0781 L1303.2344,169.1719 Q1303.2344,170.4063 1304.125,171.2266 Q1305.0156,172.0469 1306.6094,172.0469 Q1307.5469,172.0469 1308.2031,171.7969 Q1308.5938,171.6406 1309.0156,171.2031 Q1309.2813,170.9375 1309.4297,170.8594 Q1309.5781,170.7813 1309.7813,170.7813 Q1310.1094,170.7813 1310.3672,171.0391 Q1310.625,171.2969 1310.625,171.6406 Q1310.625,171.9844 1310.2813,172.3906 Q1309.7813,172.9688 1308.9844,173.2969 Q1307.9063,173.75 1306.6094,173.75 Q1305.0938,173.75 1303.8906,173.125 Q1302.9063,172.625 1302.2188,171.5547 Q1301.5313,170.4844 1301.5313,169.2031 L1301.5313,168.0469 Q1301.5313,166.7188 1302.1484,165.5703 Q1302.7656,164.4219 1303.8594,163.8047 Q1304.9531,163.1875 1306.1875,163.1875 Q1306.9219,163.1875 1307.5703,163.3516 Q1308.2188,163.5156 1308.7656,163.875 Z "/><text fill="#000000" font-family="sans-serif" font-size="14" font-weight="bold" lengthAdjust="spacingAndGlyphs" textLength="148" x="1320" y="173.7285">ModelCommandsPair</text></a><!--class soen6441riskgame.models.NameOnlySerializable--><a target="_parent" xlink:actuate="onRequest" xlink:href="../soen6441riskgame/models/NameOnlySerializable.html" xlink:show="new" xlink:title="soen6441riskgame.models.NameOnlySerializable" xlink:type="simple"><rect fill="#FEFECE" filter="url(#f17u7nn4uw21zr)" height="32" id="soen6441riskgame.models.NameOnlySerializable" style="stroke: #A80036; stroke-width: 1.5;" width="178" x="1506" y="152"/><ellipse cx="1521" cy="168" fill="#B4A7E5" rx="11" ry="11" style="stroke: #A80036; stroke-width: 1.0;"/><path d="M1521.9531,164.6406 L1521.9531,171.2969 L1523.6719,171.2969 Q1524.2813,171.2969 1524.5469,171.5313 Q1524.8125,171.7656 1524.8125,172.1563 Q1524.8125,172.5313 1524.5469,172.7656 Q1524.2813,173 1523.6719,173 L1518.5313,173 Q1517.9219,173 1517.6563,172.7656 Q1517.3906,172.5313 1517.3906,172.1406 Q1517.3906,171.7656 1517.6563,171.5313 Q1517.9219,171.2969 1518.5313,171.2969 L1520.25,171.2969 L1520.25,164.6406 L1518.5313,164.6406 Q1517.9219,164.6406 1517.6563,164.4063 Q1517.3906,164.1719 1517.3906,163.7813 Q1517.3906,163.4063 1517.6563,163.1719 Q1517.9219,162.9375 1518.5313,162.9375 L1523.6719,162.9375 Q1524.2813,162.9375 1524.5469,163.1719 Q1524.8125,163.4063 1524.8125,163.7813 Q1524.8125,164.1719 1524.5469,164.4063 Q1524.2813,164.6406 1523.6719,164.6406 L1521.9531,164.6406 Z "/><text fill="#000000" font-family="sans-serif" font-size="14" font-style="italic" font-weight="bold" lengthAdjust="spacingAndGlyphs" textLength="146" x="1535" y="173.7285">NameOnlySerializable</text></a><!--class soen6441riskgame.models.Player--><a target="_parent" xlink:actuate="onRequest" xlink:href="../soen6441riskgame/models/Player.html" xlink:show="new" xlink:title="soen6441riskgame.models.Player" xlink:type="simple"><rect fill="#FEFECE" filter="url(#f17u7nn4uw21zr)" height="32" id="soen6441riskgame.models.Player" style="stroke: #A80036; stroke-width: 1.5;" width="75" x="986.5" y="260"/><ellipse cx="1001.5" cy="276" fill="#ADD1B2" rx="11" ry="11" style="stroke: #A80036; stroke-width: 1.0;"/><path d="M1004.2656,271.875 Q1004.4219,271.6563 1004.6094,271.5469 Q1004.7969,271.4375 1005.0156,271.4375 Q1005.3906,271.4375 1005.625,271.6953 Q1005.8594,271.9531 1005.8594,272.5625 L1005.8594,274.0156 Q1005.8594,274.625 1005.625,274.8906 Q1005.3906,275.1563 1005.0156,275.1563 Q1004.6719,275.1563 1004.4688,274.9531 Q1004.2656,274.7656 1004.1563,274.25 Q1004.1094,273.8906 1003.9219,273.7031 Q1003.5938,273.3281 1002.9844,273.1094 Q1002.375,272.8906 1001.75,272.8906 Q1000.9844,272.8906 1000.3516,273.2188 Q999.7188,273.5469 999.2266,274.2969 Q998.7344,275.0469 998.7344,276.0781 L998.7344,277.1719 Q998.7344,278.4063 999.625,279.2266 Q1000.5156,280.0469 1002.1094,280.0469 Q1003.0469,280.0469 1003.7031,279.7969 Q1004.0938,279.6406 1004.5156,279.2031 Q1004.7813,278.9375 1004.9297,278.8594 Q1005.0781,278.7813 1005.2813,278.7813 Q1005.6094,278.7813 1005.8672,279.0391 Q1006.125,279.2969 1006.125,279.6406 Q1006.125,279.9844 1005.7813,280.3906 Q1005.2813,280.9688 1004.4844,281.2969 Q1003.4063,281.75 1002.1094,281.75 Q1000.5938,281.75 999.3906,281.125 Q998.4063,280.625 997.7188,279.5547 Q997.0313,278.4844 997.0313,277.2031 L997.0313,276.0469 Q997.0313,274.7188 997.6484,273.5703 Q998.2656,272.4219 999.3594,271.8047 Q1000.4531,271.1875 1001.6875,271.1875 Q1002.4219,271.1875 1003.0703,271.3516 Q1003.7188,271.5156 1004.2656,271.875 Z "/><text fill="#000000" font-family="sans-serif" font-size="14" font-weight="bold" lengthAdjust="spacingAndGlyphs" textLength="43" x="1015.5" y="281.7285">Player</text></a><!--class soen6441riskgame.models.Viewable--><a target="_parent" xlink:actuate="onRequest" xlink:href="../soen6441riskgame/models/Viewable.html" xlink:show="new" xlink:title="soen6441riskgame.models.Viewable" xlink:type="simple"><rect fill="#FEFECE" filter="url(#f17u7nn4uw21zr)" height="32" id="soen6441riskgame.models.Viewable" style="stroke: #A80036; stroke-width: 1.5;" width="94" x="1097" y="260"/><ellipse cx="1112" cy="276" fill="#B4A7E5" rx="11" ry="11" style="stroke: #A80036; stroke-width: 1.0;"/><path d="M1112.9531,272.6406 L1112.9531,279.2969 L1114.6719,279.2969 Q1115.2813,279.2969 1115.5469,279.5313 Q1115.8125,279.7656 1115.8125,280.1563 Q1115.8125,280.5313 1115.5469,280.7656 Q1115.2813,281 1114.6719,281 L1109.5313,281 Q1108.9219,281 1108.6563,280.7656 Q1108.3906,280.5313 1108.3906,280.1406 Q1108.3906,279.7656 1108.6563,279.5313 Q1108.9219,279.2969 1109.5313,279.2969 L1111.25,279.2969 L1111.25,272.6406 L1109.5313,272.6406 Q1108.9219,272.6406 1108.6563,272.4063 Q1108.3906,272.1719 1108.3906,271.7813 Q1108.3906,271.4063 1108.6563,271.1719 Q1108.9219,270.9375 1109.5313,270.9375 L1114.6719,270.9375 Q1115.2813,270.9375 1115.5469,271.1719 Q1115.8125,271.4063 1115.8125,271.7813 Q1115.8125,272.1719 1115.5469,272.4063 Q1115.2813,272.6406 1114.6719,272.6406 L1112.9531,272.6406 Z "/><text fill="#000000" font-family="sans-serif" font-size="14" font-style="italic" font-weight="bold" lengthAdjust="spacingAndGlyphs" textLength="62" x="1126" y="281.7285">Viewable</text></a><!--class soen6441riskgame.singleton.GameBoard--><a target="_parent" xlink:actuate="onRequest" xlink:href="../soen6441riskgame/singleton/GameBoard.html" xlink:show="new" xlink:title="soen6441riskgame.singleton.GameBoard" xlink:type="simple"><rect fill="#FEFECE" filter="url(#f17u7nn4uw21zr)" height="32" id="soen6441riskgame.singleton.GameBoard" style="stroke: #A80036; stroke-width: 1.5;" width="114" x="631" y="260"/><ellipse cx="646" cy="276" fill="#ADD1B2" rx="11" ry="11" style="stroke: #A80036; stroke-width: 1.0;"/><path d="M648.7656,271.875 Q648.9219,271.6563 649.1094,271.5469 Q649.2969,271.4375 649.5156,271.4375 Q649.8906,271.4375 650.125,271.6953 Q650.3594,271.9531 650.3594,272.5625 L650.3594,274.0156 Q650.3594,274.625 650.125,274.8906 Q649.8906,275.1563 649.5156,275.1563 Q649.1719,275.1563 648.9688,274.9531 Q648.7656,274.7656 648.6563,274.25 Q648.6094,273.8906 648.4219,273.7031 Q648.0938,273.3281 647.4844,273.1094 Q646.875,272.8906 646.25,272.8906 Q645.4844,272.8906 644.8516,273.2188 Q644.2188,273.5469 643.7266,274.2969 Q643.2344,275.0469 643.2344,276.0781 L643.2344,277.1719 Q643.2344,278.4063 644.125,279.2266 Q645.0156,280.0469 646.6094,280.0469 Q647.5469,280.0469 648.2031,279.7969 Q648.5938,279.6406 649.0156,279.2031 Q649.2813,278.9375 649.4297,278.8594 Q649.5781,278.7813 649.7813,278.7813 Q650.1094,278.7813 650.3672,279.0391 Q650.625,279.2969 650.625,279.6406 Q650.625,279.9844 650.2813,280.3906 Q649.7813,280.9688 648.9844,281.2969 Q647.9063,281.75 646.6094,281.75 Q645.0938,281.75 643.8906,281.125 Q642.9063,280.625 642.2188,279.5547 Q641.5313,278.4844 641.5313,277.2031 L641.5313,276.0469 Q641.5313,274.7188 642.1484,273.5703 Q642.7656,272.4219 643.8594,271.8047 Q644.9531,271.1875 646.1875,271.1875 Q646.9219,271.1875 647.5703,271.3516 Q648.2188,271.5156 648.7656,271.875 Z "/><text fill="#000000" font-family="sans-serif" font-size="14" font-weight="bold" lengthAdjust="spacingAndGlyphs" textLength="82" x="660" y="281.7285">GameBoard</text></a><!--class soen6441riskgame.singleton.GameBoardMap--><a target="_parent" xlink:actuate="onRequest" xlink:href="../soen6441riskgame/singleton/GameBoardMap.html" xlink:show="new" xlink:title="soen6441riskgame.singleton.GameBoardMap" xlink:type="simple"><rect fill="#FEFECE" filter="url(#f17u7nn4uw21zr)" height="32" id="soen6441riskgame.singleton.GameBoardMap" style="stroke: #A80036; stroke-width: 1.5;" width="144" x="780" y="260"/><ellipse cx="795" cy="276" fill="#ADD1B2" rx="11" ry="11" style="stroke: #A80036; stroke-width: 1.0;"/><path d="M797.7656,271.875 Q797.9219,271.6563 798.1094,271.5469 Q798.2969,271.4375 798.5156,271.4375 Q798.8906,271.4375 799.125,271.6953 Q799.3594,271.9531 799.3594,272.5625 L799.3594,274.0156 Q799.3594,274.625 799.125,274.8906 Q798.8906,275.1563 798.5156,275.1563 Q798.1719,275.1563 797.9688,274.9531 Q797.7656,274.7656 797.6563,274.25 Q797.6094,273.8906 797.4219,273.7031 Q797.0938,273.3281 796.4844,273.1094 Q795.875,272.8906 795.25,272.8906 Q794.4844,272.8906 793.8516,273.2188 Q793.2188,273.5469 792.7266,274.2969 Q792.2344,275.0469 792.2344,276.0781 L792.2344,277.1719 Q792.2344,278.4063 793.125,279.2266 Q794.0156,280.0469 795.6094,280.0469 Q796.5469,280.0469 797.2031,279.7969 Q797.5938,279.6406 798.0156,279.2031 Q798.2813,278.9375 798.4297,278.8594 Q798.5781,278.7813 798.7813,278.7813 Q799.1094,278.7813 799.3672,279.0391 Q799.625,279.2969 799.625,279.6406 Q799.625,279.9844 799.2813,280.3906 Q798.7813,280.9688 797.9844,281.2969 Q796.9063,281.75 795.6094,281.75 Q794.0938,281.75 792.8906,281.125 Q791.9063,280.625 791.2188,279.5547 Q790.5313,278.4844 790.5313,277.2031 L790.5313,276.0469 Q790.5313,274.7188 791.1484,273.5703 Q791.7656,272.4219 792.8594,271.8047 Q793.9531,271.1875 795.1875,271.1875 Q795.9219,271.1875 796.5703,271.3516 Q797.2188,271.5156 797.7656,271.875 Z "/><text fill="#000000" font-family="sans-serif" font-size="14" font-weight="bold" lengthAdjust="spacingAndGlyphs" textLength="112" x="809" y="281.7285">GameBoardMap</text></a><!--class soen6441riskgame.singleton.GameBoardPlayer--><a target="_parent" xlink:actuate="onRequest" xlink:href="../soen6441riskgame/singleton/GameBoardPlayer.html" xlink:show="new" xlink:title="soen6441riskgame.singleton.GameBoardPlayer" xlink:type="simple"><rect fill="#FEFECE" filter="url(#f17u7nn4uw21zr)" height="32" id="soen6441riskgame.singleton.GameBoardPlayer" style="stroke: #A80036; stroke-width: 1.5;" width="157" x="627.5" y="352"/><ellipse cx="642.5" cy="368" fill="#ADD1B2" rx="11" ry="11" style="stroke: #A80036; stroke-width: 1.0;"/><path d="M645.2656,363.875 Q645.4219,363.6563 645.6094,363.5469 Q645.7969,363.4375 646.0156,363.4375 Q646.3906,363.4375 646.625,363.6953 Q646.8594,363.9531 646.8594,364.5625 L646.8594,366.0156 Q646.8594,366.625 646.625,366.8906 Q646.3906,367.1563 646.0156,367.1563 Q645.6719,367.1563 645.4688,366.9531 Q645.2656,366.7656 645.1563,366.25 Q645.1094,365.8906 644.9219,365.7031 Q644.5938,365.3281 643.9844,365.1094 Q643.375,364.8906 642.75,364.8906 Q641.9844,364.8906 641.3516,365.2188 Q640.7188,365.5469 640.2266,366.2969 Q639.7344,367.0469 639.7344,368.0781 L639.7344,369.1719 Q639.7344,370.4063 640.625,371.2266 Q641.5156,372.0469 643.1094,372.0469 Q644.0469,372.0469 644.7031,371.7969 Q645.0938,371.6406 645.5156,371.2031 Q645.7813,370.9375 645.9297,370.8594 Q646.0781,370.7813 646.2813,370.7813 Q646.6094,370.7813 646.8672,371.0391 Q647.125,371.2969 647.125,371.6406 Q647.125,371.9844 646.7813,372.3906 Q646.2813,372.9688 645.4844,373.2969 Q644.4063,373.75 643.1094,373.75 Q641.5938,373.75 640.3906,373.125 Q639.4063,372.625 638.7188,371.5547 Q638.0313,370.4844 638.0313,369.2031 L638.0313,368.0469 Q638.0313,366.7188 638.6484,365.5703 Q639.2656,364.4219 640.3594,363.8047 Q641.4531,363.1875 642.6875,363.1875 Q643.4219,363.1875 644.0703,363.3516 Q644.7188,363.5156 645.2656,363.875 Z "/><text fill="#000000" font-family="sans-serif" font-size="14" font-weight="bold" lengthAdjust="spacingAndGlyphs" textLength="125" x="656.5" y="373.7285">GameBoardPlayer</text></a><!--class soen6441riskgame.singleton.Resettable--><a target="_parent" xlink:actuate="onRequest" xlink:href="../soen6441riskgame/singleton/Resettable.html" xlink:show="new" xlink:title="soen6441riskgame.singleton.Resettable" xlink:type="simple"><rect fill="#FEFECE" filter="url(#f17u7nn4uw21zr)" height="32" id="soen6441riskgame.singleton.Resettable" style="stroke: #A80036; stroke-width: 1.5;" width="104" x="820" y="352"/><ellipse cx="835" cy="368" fill="#B4A7E5" rx="11" ry="11" style="stroke: #A80036; stroke-width: 1.0;"/><path d="M835.9531,364.6406 L835.9531,371.2969 L837.6719,371.2969 Q838.2813,371.2969 838.5469,371.5313 Q838.8125,371.7656 838.8125,372.1563 Q838.8125,372.5313 838.5469,372.7656 Q838.2813,373 837.6719,373 L832.5313,373 Q831.9219,373 831.6563,372.7656 Q831.3906,372.5313 831.3906,372.1406 Q831.3906,371.7656 831.6563,371.5313 Q831.9219,371.2969 832.5313,371.2969 L834.25,371.2969 L834.25,364.6406 L832.5313,364.6406 Q831.9219,364.6406 831.6563,364.4063 Q831.3906,364.1719 831.3906,363.7813 Q831.3906,363.4063 831.6563,363.1719 Q831.9219,362.9375 832.5313,362.9375 L837.6719,362.9375 Q838.2813,362.9375 838.5469,363.1719 Q838.8125,363.4063 838.8125,363.7813 Q838.8125,364.1719 838.5469,364.4063 Q838.2813,364.6406 837.6719,364.6406 L835.9531,364.6406 Z "/><text fill="#000000" font-family="sans-serif" font-size="14" font-style="italic" font-weight="bold" lengthAdjust="spacingAndGlyphs" textLength="72" x="849" y="373.7285">Resettable</text></a><!--class soen6441riskgame.utils.ConsolePrinter--><a target="_parent" xlink:actuate="onRequest" xlink:href="../soen6441riskgame/utils/ConsolePrinter.html" xlink:show="new" xlink:title="soen6441riskgame.utils.ConsolePrinter" xlink:type="simple"><rect fill="#FEFECE" filter="url(#f17u7nn4uw21zr)" height="32" id="soen6441riskgame.utils.ConsolePrinter" style="stroke: #A80036; stroke-width: 1.5;" width="138" x="1740" y="260"/><ellipse cx="1755" cy="276" fill="#ADD1B2" rx="11" ry="11" style="stroke: #A80036; stroke-width: 1.0;"/><path d="M1757.7656,271.875 Q1757.9219,271.6563 1758.1094,271.5469 Q1758.2969,271.4375 1758.5156,271.4375 Q1758.8906,271.4375 1759.125,271.6953 Q1759.3594,271.9531 1759.3594,272.5625 L1759.3594,274.0156 Q1759.3594,274.625 1759.125,274.8906 Q1758.8906,275.1563 1758.5156,275.1563 Q1758.1719,275.1563 1757.9688,274.9531 Q1757.7656,274.7656 1757.6563,274.25 Q1757.6094,273.8906 1757.4219,273.7031 Q1757.0938,273.3281 1756.4844,273.1094 Q1755.875,272.8906 1755.25,272.8906 Q1754.4844,272.8906 1753.8516,273.2188 Q1753.2188,273.5469 1752.7266,274.2969 Q1752.2344,275.0469 1752.2344,276.0781 L1752.2344,277.1719 Q1752.2344,278.4063 1753.125,279.2266 Q1754.0156,280.0469 1755.6094,280.0469 Q1756.5469,280.0469 1757.2031,279.7969 Q1757.5938,279.6406 1758.0156,279.2031 Q1758.2813,278.9375 1758.4297,278.8594 Q1758.5781,278.7813 1758.7813,278.7813 Q1759.1094,278.7813 1759.3672,279.0391 Q1759.625,279.2969 1759.625,279.6406 Q1759.625,279.9844 1759.2813,280.3906 Q1758.7813,280.9688 1757.9844,281.2969 Q1756.9063,281.75 1755.6094,281.75 Q1754.0938,281.75 1752.8906,281.125 Q1751.9063,280.625 1751.2188,279.5547 Q1750.5313,278.4844 1750.5313,277.2031 L1750.5313,276.0469 Q1750.5313,274.7188 1751.1484,273.5703 Q1751.7656,272.4219 1752.8594,271.8047 Q1753.9531,271.1875 1755.1875,271.1875 Q1755.9219,271.1875 1756.5703,271.3516 Q1757.2188,271.5156 1757.7656,271.875 Z "/><text fill="#000000" font-family="sans-serif" font-size="14" font-weight="bold" lengthAdjust="spacingAndGlyphs" textLength="106" x="1769" y="281.7285">ConsolePrinter</text></a><!--class soen6441riskgame.utils.GraphChecker--><a target="_parent" xlink:actuate="onRequest" xlink:href="../soen6441riskgame/utils/GraphChecker.html" xlink:show="new" xlink:title="soen6441riskgame.utils.GraphChecker" xlink:type="simple"><rect fill="#FEFECE" filter="url(#f17u7nn4uw21zr)" height="32" id="soen6441riskgame.utils.GraphChecker" style="stroke: #A80036; stroke-width: 1.5;" width="134" x="1913" y="260"/><ellipse cx="1928" cy="276" fill="#ADD1B2" rx="11" ry="11" style="stroke: #A80036; stroke-width: 1.0;"/><path d="M1930.7656,271.875 Q1930.9219,271.6563 1931.1094,271.5469 Q1931.2969,271.4375 1931.5156,271.4375 Q1931.8906,271.4375 1932.125,271.6953 Q1932.3594,271.9531 1932.3594,272.5625 L1932.3594,274.0156 Q1932.3594,274.625 1932.125,274.8906 Q1931.8906,275.1563 1931.5156,275.1563 Q1931.1719,275.1563 1930.9688,274.9531 Q1930.7656,274.7656 1930.6563,274.25 Q1930.6094,273.8906 1930.4219,273.7031 Q1930.0938,273.3281 1929.4844,273.1094 Q1928.875,272.8906 1928.25,272.8906 Q1927.4844,272.8906 1926.8516,273.2188 Q1926.2188,273.5469 1925.7266,274.2969 Q1925.2344,275.0469 1925.2344,276.0781 L1925.2344,277.1719 Q1925.2344,278.4063 1926.125,279.2266 Q1927.0156,280.0469 1928.6094,280.0469 Q1929.5469,280.0469 1930.2031,279.7969 Q1930.5938,279.6406 1931.0156,279.2031 Q1931.2813,278.9375 1931.4297,278.8594 Q1931.5781,278.7813 1931.7813,278.7813 Q1932.1094,278.7813 1932.3672,279.0391 Q1932.625,279.2969 1932.625,279.6406 Q1932.625,279.9844 1932.2813,280.3906 Q1931.7813,280.9688 1930.9844,281.2969 Q1929.9063,281.75 1928.6094,281.75 Q1927.0938,281.75 1925.8906,281.125 Q1924.9063,280.625 1924.2188,279.5547 Q1923.5313,278.4844 1923.5313,277.2031 L1923.5313,276.0469 Q1923.5313,274.7188 1924.1484,273.5703 Q1924.7656,272.4219 1925.8594,271.8047 Q1926.9531,271.1875 1928.1875,271.1875 Q1928.9219,271.1875 1929.5703,271.3516 Q1930.2188,271.5156 1930.7656,271.875 Z "/><text fill="#000000" font-family="sans-serif" font-size="14" font-weight="bold" lengthAdjust="spacingAndGlyphs" textLength="102" x="1942" y="281.7285">GraphChecker</text></a><!--class soen6441riskgame.utils.Parser--><a target="_parent" xlink:actuate="onRequest" xlink:href="../soen6441riskgame/utils/Parser.html" xlink:show="new" xlink:title="soen6441riskgame.utils.Parser" xlink:type="simple"><rect fill="#FEFECE" filter="url(#f17u7nn4uw21zr)" height="32" id="soen6441riskgame.utils.Parser" style="stroke: #A80036; stroke-width: 1.5;" width="78" x="1770" y="352"/><ellipse cx="1785" cy="368" fill="#ADD1B2" rx="11" ry="11" style="stroke: #A80036; stroke-width: 1.0;"/><path d="M1787.7656,363.875 Q1787.9219,363.6563 1788.1094,363.5469 Q1788.2969,363.4375 1788.5156,363.4375 Q1788.8906,363.4375 1789.125,363.6953 Q1789.3594,363.9531 1789.3594,364.5625 L1789.3594,366.0156 Q1789.3594,366.625 1789.125,366.8906 Q1788.8906,367.1563 1788.5156,367.1563 Q1788.1719,367.1563 1787.9688,366.9531 Q1787.7656,366.7656 1787.6563,366.25 Q1787.6094,365.8906 1787.4219,365.7031 Q1787.0938,365.3281 1786.4844,365.1094 Q1785.875,364.8906 1785.25,364.8906 Q1784.4844,364.8906 1783.8516,365.2188 Q1783.2188,365.5469 1782.7266,366.2969 Q1782.2344,367.0469 1782.2344,368.0781 L1782.2344,369.1719 Q1782.2344,370.4063 1783.125,371.2266 Q1784.0156,372.0469 1785.6094,372.0469 Q1786.5469,372.0469 1787.2031,371.7969 Q1787.5938,371.6406 1788.0156,371.2031 Q1788.2813,370.9375 1788.4297,370.8594 Q1788.5781,370.7813 1788.7813,370.7813 Q1789.1094,370.7813 1789.3672,371.0391 Q1789.625,371.2969 1789.625,371.6406 Q1789.625,371.9844 1789.2813,372.3906 Q1788.7813,372.9688 1787.9844,373.2969 Q1786.9063,373.75 1785.6094,373.75 Q1784.0938,373.75 1782.8906,373.125 Q1781.9063,372.625 1781.2188,371.5547 Q1780.5313,370.4844 1780.5313,369.2031 L1780.5313,368.0469 Q1780.5313,366.7188 1781.1484,365.5703 Q1781.7656,364.4219 1782.8594,363.8047 Q1783.9531,363.1875 1785.1875,363.1875 Q1785.9219,363.1875 1786.5703,363.3516 Q1787.2188,363.5156 1787.7656,363.875 Z "/><text fill="#000000" font-family="sans-serif" font-size="14" font-weight="bold" lengthAdjust="spacingAndGlyphs" textLength="46" x="1799" y="373.7285">Parser</text></a><!--class soen6441riskgame.views.ExchangeCardView--><a target="_parent" xlink:actuate="onRequest" xlink:href="../soen6441riskgame/views/ExchangeCardView.html" xlink:show="new" xlink:title="soen6441riskgame.views.ExchangeCardView" xlink:type="simple"><rect fill="#FEFECE" filter="url(#f17u7nn4uw21zr)" height="32" id="soen6441riskgame.views.ExchangeCardView" style="stroke: #A80036; stroke-width: 1.5;" width="167" x="2103.5" y="260"/><ellipse cx="2118.5" cy="276" fill="#ADD1B2" rx="11" ry="11" style="stroke: #A80036; stroke-width: 1.0;"/><path d="M2121.2656,271.875 Q2121.4219,271.6563 2121.6094,271.5469 Q2121.7969,271.4375 2122.0156,271.4375 Q2122.3906,271.4375 2122.625,271.6953 Q2122.8594,271.9531 2122.8594,272.5625 L2122.8594,274.0156 Q2122.8594,274.625 2122.625,274.8906 Q2122.3906,275.1563 2122.0156,275.1563 Q2121.6719,275.1563 2121.4688,274.9531 Q2121.2656,274.7656 2121.1563,274.25 Q2121.1094,273.8906 2120.9219,273.7031 Q2120.5938,273.3281 2119.9844,273.1094 Q2119.375,272.8906 2118.75,272.8906 Q2117.9844,272.8906 2117.3516,273.2188 Q2116.7188,273.5469 2116.2266,274.2969 Q2115.7344,275.0469 2115.7344,276.0781 L2115.7344,277.1719 Q2115.7344,278.4063 2116.625,279.2266 Q2117.5156,280.0469 2119.1094,280.0469 Q2120.0469,280.0469 2120.7031,279.7969 Q2121.0938,279.6406 2121.5156,279.2031 Q2121.7813,278.9375 2121.9297,278.8594 Q2122.0781,278.7813 2122.2813,278.7813 Q2122.6094,278.7813 2122.8672,279.0391 Q2123.125,279.2969 2123.125,279.6406 Q2123.125,279.9844 2122.7813,280.3906 Q2122.2813,280.9688 2121.4844,281.2969 Q2120.4063,281.75 2119.1094,281.75 Q2117.5938,281.75 2116.3906,281.125 Q2115.4063,280.625 2114.7188,279.5547 Q2114.0313,278.4844 2114.0313,277.2031 L2114.0313,276.0469 Q2114.0313,274.7188 2114.6484,273.5703 Q2115.2656,272.4219 2116.3594,271.8047 Q2117.4531,271.1875 2118.6875,271.1875 Q2119.4219,271.1875 2120.0703,271.3516 Q2120.7188,271.5156 2121.2656,271.875 Z "/><text fill="#000000" font-family="sans-serif" font-size="14" font-weight="bold" lengthAdjust="spacingAndGlyphs" textLength="135" x="2132.5" y="281.7285">ExchangeCardView</text></a><!--class soen6441riskgame.views.PhaseView--><a target="_parent" xlink:actuate="onRequest" xlink:href="../soen6441riskgame/views/PhaseView.html" xlink:show="new" xlink:title="soen6441riskgame.views.PhaseView" xlink:type="simple"><rect fill="#FEFECE" filter="url(#f17u7nn4uw21zr)" height="32" id="soen6441riskgame.views.PhaseView" style="stroke: #A80036; stroke-width: 1.5;" width="108" x="2306" y="260"/><ellipse cx="2321" cy="276" fill="#ADD1B2" rx="11" ry="11" style="stroke: #A80036; stroke-width: 1.0;"/><path d="M2323.7656,271.875 Q2323.9219,271.6563 2324.1094,271.5469 Q2324.2969,271.4375 2324.5156,271.4375 Q2324.8906,271.4375 2325.125,271.6953 Q2325.3594,271.9531 2325.3594,272.5625 L2325.3594,274.0156 Q2325.3594,274.625 2325.125,274.8906 Q2324.8906,275.1563 2324.5156,275.1563 Q2324.1719,275.1563 2323.9688,274.9531 Q2323.7656,274.7656 2323.6563,274.25 Q2323.6094,273.8906 2323.4219,273.7031 Q2323.0938,273.3281 2322.4844,273.1094 Q2321.875,272.8906 2321.25,272.8906 Q2320.4844,272.8906 2319.8516,273.2188 Q2319.2188,273.5469 2318.7266,274.2969 Q2318.2344,275.0469 2318.2344,276.0781 L2318.2344,277.1719 Q2318.2344,278.4063 2319.125,279.2266 Q2320.0156,280.0469 2321.6094,280.0469 Q2322.5469,280.0469 2323.2031,279.7969 Q2323.5938,279.6406 2324.0156,279.2031 Q2324.2813,278.9375 2324.4297,278.8594 Q2324.5781,278.7813 2324.7813,278.7813 Q2325.1094,278.7813 2325.3672,279.0391 Q2325.625,279.2969 2325.625,279.6406 Q2325.625,279.9844 2325.2813,280.3906 Q2324.7813,280.9688 2323.9844,281.2969 Q2322.9063,281.75 2321.6094,281.75 Q2320.0938,281.75 2318.8906,281.125 Q2317.9063,280.625 2317.2188,279.5547 Q2316.5313,278.4844 2316.5313,277.2031 L2316.5313,276.0469 Q2316.5313,274.7188 2317.1484,273.5703 Q2317.7656,272.4219 2318.8594,271.8047 Q2319.9531,271.1875 2321.1875,271.1875 Q2321.9219,271.1875 2322.5703,271.3516 Q2323.2188,271.5156 2323.7656,271.875 Z "/><text fill="#000000" font-family="sans-serif" font-size="14" font-weight="bold" lengthAdjust="spacingAndGlyphs" textLength="76" x="2335" y="281.7285">PhaseView</text></a><!--class soen6441riskgame.views.PlayersWorldDominationView--><a target="_parent" xlink:actuate="onRequest" xlink:href="../soen6441riskgame/views/PlayersWorldDominationView.html" xlink:show="new" xlink:title="soen6441riskgame.views.PlayersWorldDominationView" xlink:type="simple"><rect fill="#FEFECE" filter="url(#f17u7nn4uw21zr)" height="32" id="soen6441riskgame.views.PlayersWorldDominationView" style="stroke: #A80036; stroke-width: 1.5;" width="236" x="2103" y="352"/><ellipse cx="2118" cy="368" fill="#ADD1B2" rx="11" ry="11" style="stroke: #A80036; stroke-width: 1.0;"/><path d="M2120.7656,363.875 Q2120.9219,363.6563 2121.1094,363.5469 Q2121.2969,363.4375 2121.5156,363.4375 Q2121.8906,363.4375 2122.125,363.6953 Q2122.3594,363.9531 2122.3594,364.5625 L2122.3594,366.0156 Q2122.3594,366.625 2122.125,366.8906 Q2121.8906,367.1563 2121.5156,367.1563 Q2121.1719,367.1563 2120.9688,366.9531 Q2120.7656,366.7656 2120.6563,366.25 Q2120.6094,365.8906 2120.4219,365.7031 Q2120.0938,365.3281 2119.4844,365.1094 Q2118.875,364.8906 2118.25,364.8906 Q2117.4844,364.8906 2116.8516,365.2188 Q2116.2188,365.5469 2115.7266,366.2969 Q2115.2344,367.0469 2115.2344,368.0781 L2115.2344,369.1719 Q2115.2344,370.4063 2116.125,371.2266 Q2117.0156,372.0469 2118.6094,372.0469 Q2119.5469,372.0469 2120.2031,371.7969 Q2120.5938,371.6406 2121.0156,371.2031 Q2121.2813,370.9375 2121.4297,370.8594 Q2121.5781,370.7813 2121.7813,370.7813 Q2122.1094,370.7813 2122.3672,371.0391 Q2122.625,371.2969 2122.625,371.6406 Q2122.625,371.9844 2122.2813,372.3906 Q2121.7813,372.9688 2120.9844,373.2969 Q2119.9063,373.75 2118.6094,373.75 Q2117.0938,373.75 2115.8906,373.125 Q2114.9063,372.625 2114.2188,371.5547 Q2113.5313,370.4844 2113.5313,369.2031 L2113.5313,368.0469 Q2113.5313,366.7188 2114.1484,365.5703 Q2114.7656,364.4219 2115.8594,363.8047 Q2116.9531,363.1875 2118.1875,363.1875 Q2118.9219,363.1875 2119.5703,363.3516 Q2120.2188,363.5156 2120.7656,363.875 Z "/><text fill="#000000" font-family="sans-serif" font-size="14" font-weight="bold" lengthAdjust="spacingAndGlyphs" textLength="204" x="2132" y="373.7285">PlayersWorldDominationView</text></a><!--class soen6441riskgame.views.SeparatedView--><a target="_parent" xlink:actuate="onRequest" xlink:href="../soen6441riskgame/views/SeparatedView.html" xlink:show="new" xlink:title="soen6441riskgame.views.SeparatedView" xlink:type="simple"><rect fill="#FEFECE" filter="url(#f17u7nn4uw21zr)" height="32" id="soen6441riskgame.views.SeparatedView" style="stroke: #A80036; stroke-width: 1.5;" width="137" x="2374.5" y="352"/><ellipse cx="2389.5" cy="368" fill="#ADD1B2" rx="11" ry="11" style="stroke: #A80036; stroke-width: 1.0;"/><path d="M2392.2656,363.875 Q2392.4219,363.6563 2392.6094,363.5469 Q2392.7969,363.4375 2393.0156,363.4375 Q2393.3906,363.4375 2393.625,363.6953 Q2393.8594,363.9531 2393.8594,364.5625 L2393.8594,366.0156 Q2393.8594,366.625 2393.625,366.8906 Q2393.3906,367.1563 2393.0156,367.1563 Q2392.6719,367.1563 2392.4688,366.9531 Q2392.2656,366.7656 2392.1563,366.25 Q2392.1094,365.8906 2391.9219,365.7031 Q2391.5938,365.3281 2390.9844,365.1094 Q2390.375,364.8906 2389.75,364.8906 Q2388.9844,364.8906 2388.3516,365.2188 Q2387.7188,365.5469 2387.2266,366.2969 Q2386.7344,367.0469 2386.7344,368.0781 L2386.7344,369.1719 Q2386.7344,370.4063 2387.625,371.2266 Q2388.5156,372.0469 2390.1094,372.0469 Q2391.0469,372.0469 2391.7031,371.7969 Q2392.0938,371.6406 2392.5156,371.2031 Q2392.7813,370.9375 2392.9297,370.8594 Q2393.0781,370.7813 2393.2813,370.7813 Q2393.6094,370.7813 2393.8672,371.0391 Q2394.125,371.2969 2394.125,371.6406 Q2394.125,371.9844 2393.7813,372.3906 Q2393.2813,372.9688 2392.4844,373.2969 Q2391.4063,373.75 2390.1094,373.75 Q2388.5938,373.75 2387.3906,373.125 Q2386.4063,372.625 2385.7188,371.5547 Q2385.0313,370.4844 2385.0313,369.2031 L2385.0313,368.0469 Q2385.0313,366.7188 2385.6484,365.5703 Q2386.2656,364.4219 2387.3594,363.8047 Q2388.4531,363.1875 2389.6875,363.1875 Q2390.4219,363.1875 2391.0703,363.3516 Q2391.7188,363.5156 2392.2656,363.875 Z "/><text fill="#000000" font-family="sans-serif" font-size="14" font-weight="bold" lengthAdjust="spacingAndGlyphs" textLength="105" x="2403.5" y="373.7285">SeparatedView</text></a><!--link soen6441riskgame.controllers.GameController to soen6441riskgame.controllers.MapController--><!--link soen6441riskgame.controllers.GameController to soen6441riskgame.controllers.SaveLoadController--><!--link soen6441riskgame.enums.CardType to soen6441riskgame.enums.ChangedProperty--><!--link soen6441riskgame.enums.ChangedProperty to soen6441riskgame.enums.CommonCommandArgs--><!--link soen6441riskgame.enums.CardType to soen6441riskgame.enums.GamePhase--><!--link soen6441riskgame.enums.GamePhase to soen6441riskgame.enums.MapPart--><!--link soen6441riskgame.models.Card to soen6441riskgame.models.CardSet--><!--link soen6441riskgame.models.CardSet to soen6441riskgame.models.Continent--><!--link soen6441riskgame.models.Continent to soen6441riskgame.models.Coordinate--><!--link soen6441riskgame.models.Card to soen6441riskgame.models.Country--><!--link soen6441riskgame.models.Country to soen6441riskgame.models.ModelCommands--><!--link soen6441riskgame.models.ModelCommands to soen6441riskgame.models.ModelCommandsPair--><!--link soen6441riskgame.models.ModelCommandsPair to soen6441riskgame.models.NameOnlySerializable--><!--link soen6441riskgame.models.Country to soen6441riskgame.models.Player--><!--link soen6441riskgame.models.Player to soen6441riskgame.models.Viewable--><!--link soen6441riskgame.singleton.GameBoard to soen6441riskgame.singleton.GameBoardMap--><!--link soen6441riskgame.singleton.GameBoard to soen6441riskgame.singleton.GameBoardPlayer--><!--link soen6441riskgame.singleton.GameBoardPlayer to soen6441riskgame.singleton.Resettable--><!--link soen6441riskgame.utils.ConsolePrinter to soen6441riskgame.utils.GraphChecker--><!--link soen6441riskgame.utils.ConsolePrinter to soen6441riskgame.utils.Parser--><!--link soen6441riskgame.views.ExchangeCardView to soen6441riskgame.views.PhaseView--><!--link soen6441riskgame.views.ExchangeCardView to soen6441riskgame.views.PlayersWorldDominationView--><!--link soen6441riskgame.views.PlayersWorldDominationView to soen6441riskgame.views.SeparatedView--><!--link soen6441riskgame.controllers.MapController to soen6441riskgame.enums.CardType--><!--link soen6441riskgame.enums.CommonCommandArgs to soen6441riskgame.models.Card--><!--link soen6441riskgame.controllers.SaveLoadController to soen6441riskgame.singleton.GameBoard--><!--link soen6441riskgame.singleton.GameBoardMap to soen6441riskgame.utils.ConsolePrinter--><!--link soen6441riskgame.utils.GraphChecker to soen6441riskgame.views.ExchangeCardView--><!--
@startuml

skinparam svgLinkTarget _parent
skinparam linetype ortho
package soen6441riskgame [[../soen6441riskgame/package-summary.html{soen6441riskgame}]] #lightyellow {
}

class "<b><size:14>App</b>" as soen6441riskgame.App  [[../soen6441riskgame/App.html{soen6441riskgame.App}]] {
}

hide soen6441riskgame.App fields
hide soen6441riskgame.App methods

package soen6441riskgame.controllers [[../soen6441riskgame/controllers/package-summary.html{soen6441riskgame.controllers}]] {
}

class "<b><size:14>GameController</b>" as soen6441riskgame.controllers.GameController  [[../soen6441riskgame/controllers/GameController.html{soen6441riskgame.controllers.GameController}]] {
}

hide soen6441riskgame.controllers.GameController fields
hide soen6441riskgame.controllers.GameController methods

class "<b><size:14>MapController</b>" as soen6441riskgame.controllers.MapController  [[../soen6441riskgame/controllers/MapController.html{soen6441riskgame.controllers.MapController}]] {
}

hide soen6441riskgame.controllers.MapController fields
hide soen6441riskgame.controllers.MapController methods

class "<b><size:14>SaveLoadController</b>" as soen6441riskgame.controllers.SaveLoadController  [[../soen6441riskgame/controllers/SaveLoadController.html{soen6441riskgame.controllers.SaveLoadController}]] {
}

hide soen6441riskgame.controllers.SaveLoadController fields
hide soen6441riskgame.controllers.SaveLoadController methods

package soen6441riskgame.enums [[../soen6441riskgame/enums/package-summary.html{soen6441riskgame.enums}]] {
}

enum "<b><size:14>CardType</b>" as soen6441riskgame.enums.CardType  [[../soen6441riskgame/enums/CardType.html{soen6441riskgame.enums.CardType}]] {
}

hide soen6441riskgame.enums.CardType fields
hide soen6441riskgame.enums.CardType methods

enum "<b><size:14>ChangedProperty</b>" as soen6441riskgame.enums.ChangedProperty  [[../soen6441riskgame/enums/ChangedProperty.html{soen6441riskgame.enums.ChangedProperty}]] {
}

hide soen6441riskgame.enums.ChangedProperty fields
hide soen6441riskgame.enums.ChangedProperty methods

enum "<b><size:14>CommonCommandArgs</b>" as soen6441riskgame.enums.CommonCommandArgs  [[../soen6441riskgame/enums/CommonCommandArgs.html{soen6441riskgame.enums.CommonCommandArgs}]] {
}

hide soen6441riskgame.enums.CommonCommandArgs fields
hide soen6441riskgame.enums.CommonCommandArgs methods

enum "<b><size:14>GamePhase</b>" as soen6441riskgame.enums.GamePhase  [[../soen6441riskgame/enums/GamePhase.html{soen6441riskgame.enums.GamePhase}]] {
}

hide soen6441riskgame.enums.GamePhase fields
hide soen6441riskgame.enums.GamePhase methods

enum "<b><size:14>MapPart</b>" as soen6441riskgame.enums.MapPart  [[../soen6441riskgame/enums/MapPart.html{soen6441riskgame.enums.MapPart}]] {
}

hide soen6441riskgame.enums.MapPart fields
hide soen6441riskgame.enums.MapPart methods

package soen6441riskgame.models [[../soen6441riskgame/models/package-summary.html{soen6441riskgame.models}]] {
}

class "<b><size:14>Card</b>" as soen6441riskgame.models.Card  [[../soen6441riskgame/models/Card.html{soen6441riskgame.models.Card}]] {
}

hide soen6441riskgame.models.Card fields
hide soen6441riskgame.models.Card methods

class "<b><size:14>CardSet</b>" as soen6441riskgame.models.CardSet  [[../soen6441riskgame/models/CardSet.html{soen6441riskgame.models.CardSet}]] {
}

hide soen6441riskgame.models.CardSet fields
hide soen6441riskgame.models.CardSet methods

class "<b><size:14>Continent</b>" as soen6441riskgame.models.Continent  [[../soen6441riskgame/models/Continent.html{soen6441riskgame.models.Continent}]] {
}

hide soen6441riskgame.models.Continent fields
hide soen6441riskgame.models.Continent methods

class "<b><size:14>Coordinate</b>" as soen6441riskgame.models.Coordinate  [[../soen6441riskgame/models/Coordinate.html{soen6441riskgame.models.Coordinate}]] {
}

hide soen6441riskgame.models.Coordinate fields
hide soen6441riskgame.models.Coordinate methods

class "<b><size:14>Country</b>" as soen6441riskgame.models.Country  [[../soen6441riskgame/models/Country.html{soen6441riskgame.models.Country}]] {
}

hide soen6441riskgame.models.Country fields
hide soen6441riskgame.models.Country methods

class "<b><size:14>ModelCommands</b>" as soen6441riskgame.models.ModelCommands  [[../soen6441riskgame/models/ModelCommands.html{soen6441riskgame.models.ModelCommands}]] {
}

hide soen6441riskgame.models.ModelCommands fields
hide soen6441riskgame.models.ModelCommands methods

class "<b><size:14>ModelCommandsPair</b>" as soen6441riskgame.models.ModelCommandsPair  [[../soen6441riskgame/models/ModelCommandsPair.html{soen6441riskgame.models.ModelCommandsPair}]] {
}

hide soen6441riskgame.models.ModelCommandsPair fields
hide soen6441riskgame.models.ModelCommandsPair methods

interface "<b><size:14>NameOnlySerializable</b>" as soen6441riskgame.models.NameOnlySerializable  [[../soen6441riskgame/models/NameOnlySerializable.html{soen6441riskgame.models.NameOnlySerializable}]] {
}

hide soen6441riskgame.models.NameOnlySerializable fields
hide soen6441riskgame.models.NameOnlySerializable methods

class "<b><size:14>Player</b>" as soen6441riskgame.models.Player  [[../soen6441riskgame/models/Player.html{soen6441riskgame.models.Player}]] {
}

hide soen6441riskgame.models.Player fields
hide soen6441riskgame.models.Player methods

interface "<b><size:14>Viewable</b>" as soen6441riskgame.models.Viewable  [[../soen6441riskgame/models/Viewable.html{soen6441riskgame.models.Viewable}]] {
}

hide soen6441riskgame.models.Viewable fields
hide soen6441riskgame.models.Viewable methods

package soen6441riskgame.singleton [[../soen6441riskgame/singleton/package-summary.html{soen6441riskgame.singleton}]] {
}

class "<b><size:14>GameBoard</b>" as soen6441riskgame.singleton.GameBoard  [[../soen6441riskgame/singleton/GameBoard.html{soen6441riskgame.singleton.GameBoard}]] {
}

hide soen6441riskgame.singleton.GameBoard fields
hide soen6441riskgame.singleton.GameBoard methods

class "<b><size:14>GameBoardMap</b>" as soen6441riskgame.singleton.GameBoardMap  [[../soen6441riskgame/singleton/GameBoardMap.html{soen6441riskgame.singleton.GameBoardMap}]] {
}

hide soen6441riskgame.singleton.GameBoardMap fields
hide soen6441riskgame.singleton.GameBoardMap methods

class "<b><size:14>GameBoardPlayer</b>" as soen6441riskgame.singleton.GameBoardPlayer  [[../soen6441riskgame/singleton/GameBoardPlayer.html{soen6441riskgame.singleton.GameBoardPlayer}]] {
}

hide soen6441riskgame.singleton.GameBoardPlayer fields
hide soen6441riskgame.singleton.GameBoardPlayer methods

interface "<b><size:14>Resettable</b>" as soen6441riskgame.singleton.Resettable  [[../soen6441riskgame/singleton/Resettable.html{soen6441riskgame.singleton.Resettable}]] {
}

hide soen6441riskgame.singleton.Resettable fields
hide soen6441riskgame.singleton.Resettable methods

package soen6441riskgame.utils [[../soen6441riskgame/utils/package-summary.html{soen6441riskgame.utils}]] {
}

class "<b><size:14>ConsolePrinter</b>" as soen6441riskgame.utils.ConsolePrinter  [[../soen6441riskgame/utils/ConsolePrinter.html{soen6441riskgame.utils.ConsolePrinter}]] {
}

hide soen6441riskgame.utils.ConsolePrinter fields
hide soen6441riskgame.utils.ConsolePrinter methods

class "<b><size:14>GraphChecker</b>" as soen6441riskgame.utils.GraphChecker  [[../soen6441riskgame/utils/GraphChecker.html{soen6441riskgame.utils.GraphChecker}]] {
}

hide soen6441riskgame.utils.GraphChecker fields
hide soen6441riskgame.utils.GraphChecker methods

class "<b><size:14>Parser</b>" as soen6441riskgame.utils.Parser  [[../soen6441riskgame/utils/Parser.html{soen6441riskgame.utils.Parser}]] {
}

hide soen6441riskgame.utils.Parser fields
hide soen6441riskgame.utils.Parser methods

package soen6441riskgame.views [[../soen6441riskgame/views/package-summary.html{soen6441riskgame.views}]] {
}

class "<b><size:14>ExchangeCardView</b>" as soen6441riskgame.views.ExchangeCardView  [[../soen6441riskgame/views/ExchangeCardView.html{soen6441riskgame.views.ExchangeCardView}]] {
}

hide soen6441riskgame.views.ExchangeCardView fields
hide soen6441riskgame.views.ExchangeCardView methods

class "<b><size:14>PhaseView</b>" as soen6441riskgame.views.PhaseView  [[../soen6441riskgame/views/PhaseView.html{soen6441riskgame.views.PhaseView}]] {
}

hide soen6441riskgame.views.PhaseView fields
hide soen6441riskgame.views.PhaseView methods

class "<b><size:14>PlayersWorldDominationView</b>" as soen6441riskgame.views.PlayersWorldDominationView  [[../soen6441riskgame/views/PlayersWorldDominationView.html{soen6441riskgame.views.PlayersWorldDominationView}]] {
}

hide soen6441riskgame.views.PlayersWorldDominationView fields
hide soen6441riskgame.views.PlayersWorldDominationView methods

class "<b><size:14>SeparatedView</b>" as soen6441riskgame.views.SeparatedView  [[../soen6441riskgame/views/SeparatedView.html{soen6441riskgame.views.SeparatedView}]] {
}

hide soen6441riskgame.views.SeparatedView fields
hide soen6441riskgame.views.SeparatedView methods


@enduml

PlantUML version 1.2017.15(Mon Jul 03 12:45:34 EDT 2017)
(GPL source distribution)
Java Runtime: Java(TM) SE Runtime Environment
JVM: Java HotSpot(TM) 64-Bit Server VM
Java Version: 1.8.0_231-b11
Operating System: Windows 10
OS Version: 10.0
Default Encoding: Cp1252
Language: en
Country: US
--></g></svg>