<?xml version="1.0" encoding="UTF-8" standalone="no"?><svg xmlns="http://www.w3.org/2000/svg" xmlns:xlink="http://www.w3.org/1999/xlink" contentScriptType="application/ecmascript" contentStyleType="text/css" height="412px" preserveAspectRatio="none" style="width:2642px;height:412px;" version="1.1" viewBox="0 0 2642 412" width="2642px" zoomAndPan="magnify"><defs><filter height="300%" id="f1ielwnsmy1zhi" width="300%" x="-1" y="-1"><feGaussianBlur result="blurOut" stdDeviation="2.0"/><feColorMatrix in="blurOut" result="blurOut2" type="matrix" values="0 0 0 0 0 0 0 0 0 0 0 0 0 0 0 0 0 0 .4 0"/><feOffset dx="4.0" dy="4.0" in="blurOut2" result="blurOut3"/><feBlend in="SourceGraphic" in2="blurOut3" mode="normal"/></filter></defs><g><!--cluster soen6441riskgame--><a target="_parent" xlink:actuate="onRequest" xlink:href="../soen6441riskgame/package-summary.html" xlink:show="new" xlink:title="soen6441riskgame" xlink:type="simple"><polygon fill="#FFFFE0" filter="url(#f1ielwnsmy1zhi)" points="2151,24,2288,24,2295,47.6094,2298,47.6094,2298,108,2151,108,2151,24" style="stroke: #000000; stroke-width: 2.0;"/><line style="stroke: #000000; stroke-width: 2.0;" x1="2151" x2="2295" y1="47.6094" y2="47.6094"/><text fill="#000000" font-family="sans-serif" font-size="14" font-weight="bold" lengthAdjust="spacingAndGlyphs" textLength="131" x="2155" y="40.5332">soen6441riskgame</text></a><!--cluster soen6441riskgame.controllers--><a target="_parent" xlink:actuate="onRequest" xlink:href="../soen6441riskgame/controllers/package-summary.html" xlink:show="new" xlink:title="soen6441riskgame.controllers" xlink:type="simple"><polygon fill="#FFFFFF" filter="url(#f1ielwnsmy1zhi)" points="60,24,278,24,285,47.6094,487,47.6094,487,200,60,200,60,24" style="stroke: #000000; stroke-width: 2.0;"/><line style="stroke: #000000; stroke-width: 2.0;" x1="60" x2="285" y1="47.6094" y2="47.6094"/><text fill="#000000" font-family="sans-serif" font-size="14" font-weight="bold" lengthAdjust="spacingAndGlyphs" textLength="212" x="64" y="40.5332">soen6441riskgame.controllers</text></a><!--cluster soen6441riskgame.enums--><a target="_parent" xlink:actuate="onRequest" xlink:href="../soen6441riskgame/enums/package-summary.html" xlink:show="new" xlink:title="soen6441riskgame.enums" xlink:type="simple"><polygon fill="#FFFFFF" filter="url(#f1ielwnsmy1zhi)" points="564,24,752,24,759,47.6094,1114,47.6094,1114,308,564,308,564,24" style="stroke: #000000; stroke-width: 2.0;"/><line style="stroke: #000000; stroke-width: 2.0;" x1="564" x2="759" y1="47.6094" y2="47.6094"/><text fill="#000000" font-family="sans-serif" font-size="14" font-weight="bold" lengthAdjust="spacingAndGlyphs" textLength="182" x="568" y="40.5332">soen6441riskgame.enums</text></a><!--cluster soen6441riskgame.models--><a target="_parent" xlink:actuate="onRequest" xlink:href="../soen6441riskgame/models/package-summary.html" xlink:show="new" xlink:title="soen6441riskgame.models" xlink:type="simple"><polygon fill="#FFFFFF" filter="url(#f1ielwnsmy1zhi)" points="1138,24,1330,24,1337,47.6094,1806,47.6094,1806,308,1138,308,1138,24" style="stroke: #000000; stroke-width: 2.0;"/><line style="stroke: #000000; stroke-width: 2.0;" x1="1138" x2="1337" y1="47.6094" y2="47.6094"/><text fill="#000000" font-family="sans-serif" font-size="14" font-weight="bold" lengthAdjust="spacingAndGlyphs" textLength="186" x="1142" y="40.5332">soen6441riskgame.models</text></a><!--cluster soen6441riskgame.singleton--><a target="_parent" xlink:actuate="onRequest" xlink:href="../soen6441riskgame/singleton/package-summary.html" xlink:show="new" xlink:title="soen6441riskgame.singleton" xlink:type="simple"><polygon fill="#FFFFFF" filter="url(#f1ielwnsmy1zhi)" points="22,224,229,224,236,247.6094,540,247.6094,540,400,22,400,22,224" style="stroke: #000000; stroke-width: 2.0;"/><line style="stroke: #000000; stroke-width: 2.0;" x1="22" x2="236" y1="247.6094" y2="247.6094"/><text fill="#000000" font-family="sans-serif" font-size="14" font-weight="bold" lengthAdjust="spacingAndGlyphs" textLength="201" x="26" y="240.5332">soen6441riskgame.singleton</text></a><!--cluster soen6441riskgame.utils--><a target="_parent" xlink:actuate="onRequest" xlink:href="../soen6441riskgame/utils/package-summary.html" xlink:show="new" xlink:title="soen6441riskgame.utils" xlink:type="simple"><polygon fill="#FFFFFF" filter="url(#f1ielwnsmy1zhi)" points="1830,224,2001,224,2008,247.6094,2155,247.6094,2155,400,1830,400,1830,224" style="stroke: #000000; stroke-width: 2.0;"/><line style="stroke: #000000; stroke-width: 2.0;" x1="1830" x2="2008" y1="247.6094" y2="247.6094"/><text fill="#000000" font-family="sans-serif" font-size="14" font-weight="bold" lengthAdjust="spacingAndGlyphs" textLength="165" x="1834" y="240.5332">soen6441riskgame.utils</text></a><!--cluster soen6441riskgame.views--><a target="_parent" xlink:actuate="onRequest" xlink:href="../soen6441riskgame/views/package-summary.html" xlink:show="new" xlink:title="soen6441riskgame.views" xlink:type="simple"><polygon fill="#FFFFFF" filter="url(#f1ielwnsmy1zhi)" points="2179,224,2361,224,2368,247.6094,2620,247.6094,2620,400,2179,400,2179,224" style="stroke: #000000; stroke-width: 2.0;"/><line style="stroke: #000000; stroke-width: 2.0;" x1="2179" x2="2368" y1="247.6094" y2="247.6094"/><text fill="#000000" font-family="sans-serif" font-size="14" font-weight="bold" lengthAdjust="spacingAndGlyphs" textLength="176" x="2183" y="240.5332">soen6441riskgame.views</text></a><!--class soen6441riskgame.App--><a target="_parent" xlink:actuate="onRequest" xlink:href="../soen6441riskgame/App.html" xlink:show="new" xlink:title="soen6441riskgame.App" xlink:type="simple"><rect fill="#FEFECE" filter="url(#f1ielwnsmy1zhi)" height="32" id="soen6441riskgame.App" style="stroke: #A80036; stroke-width: 1.5;" width="59" x="2194.5" y="60"/><ellipse cx="2209.5" cy="76" fill="#ADD1B2" rx="11" ry="11" style="stroke: #A80036; stroke-width: 1.0;"/><path d="M2212.2656,71.875 Q2212.4219,71.6563 2212.6094,71.5469 Q2212.7969,71.4375 2213.0156,71.4375 Q2213.3906,71.4375 2213.625,71.6953 Q2213.8594,71.9531 2213.8594,72.5625 L2213.8594,74.0156 Q2213.8594,74.625 2213.625,74.8906 Q2213.3906,75.1563 2213.0156,75.1563 Q2212.6719,75.1563 2212.4688,74.9531 Q2212.2656,74.7656 2212.1563,74.25 Q2212.1094,73.8906 2211.9219,73.7031 Q2211.5938,73.3281 2210.9844,73.1094 Q2210.375,72.8906 2209.75,72.8906 Q2208.9844,72.8906 2208.3516,73.2188 Q2207.7188,73.5469 2207.2266,74.2969 Q2206.7344,75.0469 2206.7344,76.0781 L2206.7344,77.1719 Q2206.7344,78.4063 2207.625,79.2266 Q2208.5156,80.0469 2210.1094,80.0469 Q2211.0469,80.0469 2211.7031,79.7969 Q2212.0938,79.6406 2212.5156,79.2031 Q2212.7813,78.9375 2212.9297,78.8594 Q2213.0781,78.7813 2213.2813,78.7813 Q2213.6094,78.7813 2213.8672,79.0391 Q2214.125,79.2969 2214.125,79.6406 Q2214.125,79.9844 2213.7813,80.3906 Q2213.2813,80.9688 2212.4844,81.2969 Q2211.4063,81.75 2210.1094,81.75 Q2208.5938,81.75 2207.3906,81.125 Q2206.4063,80.625 2205.7188,79.5547 Q2205.0313,78.4844 2205.0313,77.2031 L2205.0313,76.0469 Q2205.0313,74.7188 2205.6484,73.5703 Q2206.2656,72.4219 2207.3594,71.8047 Q2208.4531,71.1875 2209.6875,71.1875 Q2210.4219,71.1875 2211.0703,71.3516 Q2211.7188,71.5156 2212.2656,71.875 Z "/><text fill="#000000" font-family="sans-serif" font-size="14" font-weight="bold" lengthAdjust="spacingAndGlyphs" textLength="27" x="2223.5" y="81.7285">App</text></a><!--class soen6441riskgame.controllers.GameController--><a target="_parent" xlink:actuate="onRequest" xlink:href="../soen6441riskgame/controllers/GameController.html" xlink:show="new" xlink:title="soen6441riskgame.controllers.GameController" xlink:type="simple"><rect fill="#FEFECE" filter="url(#f1ielwnsmy1zhi)" height="32" id="soen6441riskgame.controllers.GameController" style="stroke: #A80036; stroke-width: 1.5;" width="143" x="107.5" y="60"/><ellipse cx="122.5" cy="76" fill="#ADD1B2" rx="11" ry="11" style="stroke: #A80036; stroke-width: 1.0;"/><path d="M125.2656,71.875 Q125.4219,71.6563 125.6094,71.5469 Q125.7969,71.4375 126.0156,71.4375 Q126.3906,71.4375 126.625,71.6953 Q126.8594,71.9531 126.8594,72.5625 L126.8594,74.0156 Q126.8594,74.625 126.625,74.8906 Q126.3906,75.1563 126.0156,75.1563 Q125.6719,75.1563 125.4688,74.9531 Q125.2656,74.7656 125.1563,74.25 Q125.1094,73.8906 124.9219,73.7031 Q124.5938,73.3281 123.9844,73.1094 Q123.375,72.8906 122.75,72.8906 Q121.9844,72.8906 121.3516,73.2188 Q120.7188,73.5469 120.2266,74.2969 Q119.7344,75.0469 119.7344,76.0781 L119.7344,77.1719 Q119.7344,78.4063 120.625,79.2266 Q121.5156,80.0469 123.1094,80.0469 Q124.0469,80.0469 124.7031,79.7969 Q125.0938,79.6406 125.5156,79.2031 Q125.7813,78.9375 125.9297,78.8594 Q126.0781,78.7813 126.2813,78.7813 Q126.6094,78.7813 126.8672,79.0391 Q127.125,79.2969 127.125,79.6406 Q127.125,79.9844 126.7813,80.3906 Q126.2813,80.9688 125.4844,81.2969 Q124.4063,81.75 123.1094,81.75 Q121.5938,81.75 120.3906,81.125 Q119.4063,80.625 118.7188,79.5547 Q118.0313,78.4844 118.0313,77.2031 L118.0313,76.0469 Q118.0313,74.7188 118.6484,73.5703 Q119.2656,72.4219 120.3594,71.8047 Q121.4531,71.1875 122.6875,71.1875 Q123.4219,71.1875 124.0703,71.3516 Q124.7188,71.5156 125.2656,71.875 Z "/><text fill="#000000" font-family="sans-serif" font-size="14" font-weight="bold" lengthAdjust="spacingAndGlyphs" textLength="111" x="136.5" y="81.7285">GameController</text></a><!--class soen6441riskgame.controllers.MapController--><a target="_parent" xlink:actuate="onRequest" xlink:href="../soen6441riskgame/controllers/MapController.html" xlink:show="new" xlink:title="soen6441riskgame.controllers.MapController" xlink:type="simple"><rect fill="#FEFECE" filter="url(#f1ielwnsmy1zhi)" height="32" id="soen6441riskgame.controllers.MapController" style="stroke: #A80036; stroke-width: 1.5;" width="133" x="319.5" y="60"/><ellipse cx="334.5" cy="76" fill="#ADD1B2" rx="11" ry="11" style="stroke: #A80036; stroke-width: 1.0;"/><path d="M337.2656,71.875 Q337.4219,71.6563 337.6094,71.5469 Q337.7969,71.4375 338.0156,71.4375 Q338.3906,71.4375 338.625,71.6953 Q338.8594,71.9531 338.8594,72.5625 L338.8594,74.0156 Q338.8594,74.625 338.625,74.8906 Q338.3906,75.1563 338.0156,75.1563 Q337.6719,75.1563 337.4688,74.9531 Q337.2656,74.7656 337.1563,74.25 Q337.1094,73.8906 336.9219,73.7031 Q336.5938,73.3281 335.9844,73.1094 Q335.375,72.8906 334.75,72.8906 Q333.9844,72.8906 333.3516,73.2188 Q332.7188,73.5469 332.2266,74.2969 Q331.7344,75.0469 331.7344,76.0781 L331.7344,77.1719 Q331.7344,78.4063 332.625,79.2266 Q333.5156,80.0469 335.1094,80.0469 Q336.0469,80.0469 336.7031,79.7969 Q337.0938,79.6406 337.5156,79.2031 Q337.7813,78.9375 337.9297,78.8594 Q338.0781,78.7813 338.2813,78.7813 Q338.6094,78.7813 338.8672,79.0391 Q339.125,79.2969 339.125,79.6406 Q339.125,79.9844 338.7813,80.3906 Q338.2813,80.9688 337.4844,81.2969 Q336.4063,81.75 335.1094,81.75 Q333.5938,81.75 332.3906,81.125 Q331.4063,80.625 330.7188,79.5547 Q330.0313,78.4844 330.0313,77.2031 L330.0313,76.0469 Q330.0313,74.7188 330.6484,73.5703 Q331.2656,72.4219 332.3594,71.8047 Q333.4531,71.1875 334.6875,71.1875 Q335.4219,71.1875 336.0703,71.3516 Q336.7188,71.5156 337.2656,71.875 Z "/><text fill="#000000" font-family="sans-serif" font-size="14" font-weight="bold" lengthAdjust="spacingAndGlyphs" textLength="101" x="348.5" y="81.7285">MapController</text></a><!--class soen6441riskgame.controllers.SaveLoadController--><a target="_parent" xlink:actuate="onRequest" xlink:href="../soen6441riskgame/controllers/SaveLoadController.html" xlink:show="new" xlink:title="soen6441riskgame.controllers.SaveLoadController" xlink:type="simple"><rect fill="#FEFECE" filter="url(#f1ielwnsmy1zhi)" height="32" id="soen6441riskgame.controllers.SaveLoadController" style="stroke: #A80036; stroke-width: 1.5;" width="172" x="76" y="152"/><ellipse cx="91" cy="168" fill="#ADD1B2" rx="11" ry="11" style="stroke: #A80036; stroke-width: 1.0;"/><path d="M93.7656,163.875 Q93.9219,163.6563 94.1094,163.5469 Q94.2969,163.4375 94.5156,163.4375 Q94.8906,163.4375 95.125,163.6953 Q95.3594,163.9531 95.3594,164.5625 L95.3594,166.0156 Q95.3594,166.625 95.125,166.8906 Q94.8906,167.1563 94.5156,167.1563 Q94.1719,167.1563 93.9688,166.9531 Q93.7656,166.7656 93.6563,166.25 Q93.6094,165.8906 93.4219,165.7031 Q93.0938,165.3281 92.4844,165.1094 Q91.875,164.8906 91.25,164.8906 Q90.4844,164.8906 89.8516,165.2188 Q89.2188,165.5469 88.7266,166.2969 Q88.2344,167.0469 88.2344,168.0781 L88.2344,169.1719 Q88.2344,170.4063 89.125,171.2266 Q90.0156,172.0469 91.6094,172.0469 Q92.5469,172.0469 93.2031,171.7969 Q93.5938,171.6406 94.0156,171.2031 Q94.2813,170.9375 94.4297,170.8594 Q94.5781,170.7813 94.7813,170.7813 Q95.1094,170.7813 95.3672,171.0391 Q95.625,171.2969 95.625,171.6406 Q95.625,171.9844 95.2813,172.3906 Q94.7813,172.9688 93.9844,173.2969 Q92.9063,173.75 91.6094,173.75 Q90.0938,173.75 88.8906,173.125 Q87.9063,172.625 87.2188,171.5547 Q86.5313,170.4844 86.5313,169.2031 L86.5313,168.0469 Q86.5313,166.7188 87.1484,165.5703 Q87.7656,164.4219 88.8594,163.8047 Q89.9531,163.1875 91.1875,163.1875 Q91.9219,163.1875 92.5703,163.3516 Q93.2188,163.5156 93.7656,163.875 Z "/><text fill="#000000" font-family="sans-serif" font-size="14" font-weight="bold" lengthAdjust="spacingAndGlyphs" textLength="140" x="105" y="173.7285">SaveLoadController</text></a><!--class soen6441riskgame.controllers.TournamentController--><a target="_parent" xlink:actuate="onRequest" xlink:href="../soen6441riskgame/controllers/TournamentController.html" xlink:show="new" xlink:title="soen6441riskgame.controllers.TournamentController" xlink:type="simple"><rect fill="#FEFECE" filter="url(#f1ielwnsmy1zhi)" height="32" id="soen6441riskgame.controllers.TournamentController" style="stroke: #A80036; stroke-width: 1.5;" width="187" x="283.5" y="152"/><ellipse cx="298.5" cy="168" fill="#ADD1B2" rx="11" ry="11" style="stroke: #A80036; stroke-width: 1.0;"/><path d="M301.2656,163.875 Q301.4219,163.6563 301.6094,163.5469 Q301.7969,163.4375 302.0156,163.4375 Q302.3906,163.4375 302.625,163.6953 Q302.8594,163.9531 302.8594,164.5625 L302.8594,166.0156 Q302.8594,166.625 302.625,166.8906 Q302.3906,167.1563 302.0156,167.1563 Q301.6719,167.1563 301.4688,166.9531 Q301.2656,166.7656 301.1563,166.25 Q301.1094,165.8906 300.9219,165.7031 Q300.5938,165.3281 299.9844,165.1094 Q299.375,164.8906 298.75,164.8906 Q297.9844,164.8906 297.3516,165.2188 Q296.7188,165.5469 296.2266,166.2969 Q295.7344,167.0469 295.7344,168.0781 L295.7344,169.1719 Q295.7344,170.4063 296.625,171.2266 Q297.5156,172.0469 299.1094,172.0469 Q300.0469,172.0469 300.7031,171.7969 Q301.0938,171.6406 301.5156,171.2031 Q301.7813,170.9375 301.9297,170.8594 Q302.0781,170.7813 302.2813,170.7813 Q302.6094,170.7813 302.8672,171.0391 Q303.125,171.2969 303.125,171.6406 Q303.125,171.9844 302.7813,172.3906 Q302.2813,172.9688 301.4844,173.2969 Q300.4063,173.75 299.1094,173.75 Q297.5938,173.75 296.3906,173.125 Q295.4063,172.625 294.7188,171.5547 Q294.0313,170.4844 294.0313,169.2031 L294.0313,168.0469 Q294.0313,166.7188 294.6484,165.5703 Q295.2656,164.4219 296.3594,163.8047 Q297.4531,163.1875 298.6875,163.1875 Q299.4219,163.1875 300.0703,163.3516 Q300.7188,163.5156 301.2656,163.875 Z "/><text fill="#000000" font-family="sans-serif" font-size="14" font-weight="bold" lengthAdjust="spacingAndGlyphs" textLength="155" x="312.5" y="173.7285">TournamentController</text></a><!--class soen6441riskgame.enums.CardType--><a target="_parent" xlink:actuate="onRequest" xlink:href="../soen6441riskgame/enums/CardType.html" xlink:show="new" xlink:title="soen6441riskgame.enums.CardType" xlink:type="simple"><rect fill="#FEFECE" filter="url(#f1ielwnsmy1zhi)" height="32" id="soen6441riskgame.enums.CardType" style="stroke: #A80036; stroke-width: 1.5;" width="98" x="580" y="60"/><ellipse cx="595" cy="76" fill="#EB937F" rx="11" ry="11" style="stroke: #A80036; stroke-width: 1.0;"/><path d="M593.8594,76.7969 L593.8594,79.2969 L598.1875,79.2969 L598.1875,78.375 Q598.1875,77.7656 598.4297,77.5 Q598.6719,77.2344 599.0469,77.2344 Q599.4219,77.2344 599.6563,77.5 Q599.8906,77.7656 599.8906,78.375 L599.8906,81 L591.8906,81 Q591.2656,81 591.0078,80.7656 Q590.75,80.5313 590.75,80.1406 Q590.75,79.7656 591.0156,79.5313 Q591.2813,79.2969 591.8906,79.2969 L592.1563,79.2969 L592.1563,72.6406 L591.8906,72.6406 Q591.2656,72.6406 591.0078,72.4063 Q590.75,72.1719 590.75,71.7813 Q590.75,71.4063 591.0078,71.1719 Q591.2656,70.9375 591.8906,70.9375 L599.5156,70.9375 L599.5156,73.5313 Q599.5156,74.1406 599.2891,74.3984 Q599.0625,74.6563 598.6719,74.6563 Q598.2969,74.6563 598.0625,74.3984 Q597.8281,74.1406 597.8281,73.5313 L597.8281,72.6406 L593.8594,72.6406 L593.8594,75.0938 L595.3438,75.0938 Q595.3438,74.4375 595.4688,74.25 Q595.7344,73.8438 596.2031,73.8438 Q596.5781,73.8438 596.8125,74.1016 Q597.0469,74.3594 597.0469,74.9688 L597.0469,76.9375 Q597.0469,77.4844 596.9219,77.6719 Q596.6563,78.0625 596.2031,78.0625 Q595.7344,78.0625 595.4688,77.6563 Q595.3438,77.4688 595.3438,76.7969 L593.8594,76.7969 Z "/><text fill="#000000" font-family="sans-serif" font-size="14" font-weight="bold" lengthAdjust="spacingAndGlyphs" textLength="66" x="609" y="81.7285">CardType</text></a><!--class soen6441riskgame.enums.ChangedProperty--><a target="_parent" xlink:actuate="onRequest" xlink:href="../soen6441riskgame/enums/ChangedProperty.html" xlink:show="new" xlink:title="soen6441riskgame.enums.ChangedProperty" xlink:type="simple"><rect fill="#FEFECE" filter="url(#f1ielwnsmy1zhi)" height="32" id="soen6441riskgame.enums.ChangedProperty" style="stroke: #A80036; stroke-width: 1.5;" width="155" x="713.5" y="60"/><ellipse cx="728.5" cy="76" fill="#EB937F" rx="11" ry="11" style="stroke: #A80036; stroke-width: 1.0;"/><path d="M727.3594,76.7969 L727.3594,79.2969 L731.6875,79.2969 L731.6875,78.375 Q731.6875,77.7656 731.9297,77.5 Q732.1719,77.2344 732.5469,77.2344 Q732.9219,77.2344 733.1563,77.5 Q733.3906,77.7656 733.3906,78.375 L733.3906,81 L725.3906,81 Q724.7656,81 724.5078,80.7656 Q724.25,80.5313 724.25,80.1406 Q724.25,79.7656 724.5156,79.5313 Q724.7813,79.2969 725.3906,79.2969 L725.6563,79.2969 L725.6563,72.6406 L725.3906,72.6406 Q724.7656,72.6406 724.5078,72.4063 Q724.25,72.1719 724.25,71.7813 Q724.25,71.4063 724.5078,71.1719 Q724.7656,70.9375 725.3906,70.9375 L733.0156,70.9375 L733.0156,73.5313 Q733.0156,74.1406 732.7891,74.3984 Q732.5625,74.6563 732.1719,74.6563 Q731.7969,74.6563 731.5625,74.3984 Q731.3281,74.1406 731.3281,73.5313 L731.3281,72.6406 L727.3594,72.6406 L727.3594,75.0938 L728.8438,75.0938 Q728.8438,74.4375 728.9688,74.25 Q729.2344,73.8438 729.7031,73.8438 Q730.0781,73.8438 730.3125,74.1016 Q730.5469,74.3594 730.5469,74.9688 L730.5469,76.9375 Q730.5469,77.4844 730.4219,77.6719 Q730.1563,78.0625 729.7031,78.0625 Q729.2344,78.0625 728.9688,77.6563 Q728.8438,77.4688 728.8438,76.7969 L727.3594,76.7969 Z "/><text fill="#000000" font-family="sans-serif" font-size="14" font-weight="bold" lengthAdjust="spacingAndGlyphs" textLength="123" x="742.5" y="81.7285">ChangedProperty</text></a><!--class soen6441riskgame.enums.CommonCommandArgs--><a target="_parent" xlink:actuate="onRequest" xlink:href="../soen6441riskgame/enums/CommonCommandArgs.html" xlink:show="new" xlink:title="soen6441riskgame.enums.CommonCommandArgs" xlink:type="simple"><rect fill="#FEFECE" filter="url(#f1ielwnsmy1zhi)" height="32" id="soen6441riskgame.enums.CommonCommandArgs" style="stroke: #A80036; stroke-width: 1.5;" width="194" x="904" y="60"/><ellipse cx="919" cy="76" fill="#EB937F" rx="11" ry="11" style="stroke: #A80036; stroke-width: 1.0;"/><path d="M917.8594,76.7969 L917.8594,79.2969 L922.1875,79.2969 L922.1875,78.375 Q922.1875,77.7656 922.4297,77.5 Q922.6719,77.2344 923.0469,77.2344 Q923.4219,77.2344 923.6563,77.5 Q923.8906,77.7656 923.8906,78.375 L923.8906,81 L915.8906,81 Q915.2656,81 915.0078,80.7656 Q914.75,80.5313 914.75,80.1406 Q914.75,79.7656 915.0156,79.5313 Q915.2813,79.2969 915.8906,79.2969 L916.1563,79.2969 L916.1563,72.6406 L915.8906,72.6406 Q915.2656,72.6406 915.0078,72.4063 Q914.75,72.1719 914.75,71.7813 Q914.75,71.4063 915.0078,71.1719 Q915.2656,70.9375 915.8906,70.9375 L923.5156,70.9375 L923.5156,73.5313 Q923.5156,74.1406 923.2891,74.3984 Q923.0625,74.6563 922.6719,74.6563 Q922.2969,74.6563 922.0625,74.3984 Q921.8281,74.1406 921.8281,73.5313 L921.8281,72.6406 L917.8594,72.6406 L917.8594,75.0938 L919.3438,75.0938 Q919.3438,74.4375 919.4688,74.25 Q919.7344,73.8438 920.2031,73.8438 Q920.5781,73.8438 920.8125,74.1016 Q921.0469,74.3594 921.0469,74.9688 L921.0469,76.9375 Q921.0469,77.4844 920.9219,77.6719 Q920.6563,78.0625 920.2031,78.0625 Q919.7344,78.0625 919.4688,77.6563 Q919.3438,77.4688 919.3438,76.7969 L917.8594,76.7969 Z "/><text fill="#000000" font-family="sans-serif" font-size="14" font-weight="bold" lengthAdjust="spacingAndGlyphs" textLength="162" x="933" y="81.7285">CommonCommandArgs</text></a><!--class soen6441riskgame.enums.ConquestMapPart--><a target="_parent" xlink:actuate="onRequest" xlink:href="../soen6441riskgame/enums/ConquestMapPart.html" xlink:show="new" xlink:title="soen6441riskgame.enums.ConquestMapPart" xlink:type="simple"><rect fill="#FEFECE" filter="url(#f1ielwnsmy1zhi)" height="32" id="soen6441riskgame.enums.ConquestMapPart" style="stroke: #A80036; stroke-width: 1.5;" width="158" x="580" y="152"/><ellipse cx="595" cy="168" fill="#EB937F" rx="11" ry="11" style="stroke: #A80036; stroke-width: 1.0;"/><path d="M593.8594,168.7969 L593.8594,171.2969 L598.1875,171.2969 L598.1875,170.375 Q598.1875,169.7656 598.4297,169.5 Q598.6719,169.2344 599.0469,169.2344 Q599.4219,169.2344 599.6563,169.5 Q599.8906,169.7656 599.8906,170.375 L599.8906,173 L591.8906,173 Q591.2656,173 591.0078,172.7656 Q590.75,172.5313 590.75,172.1406 Q590.75,171.7656 591.0156,171.5313 Q591.2813,171.2969 591.8906,171.2969 L592.1563,171.2969 L592.1563,164.6406 L591.8906,164.6406 Q591.2656,164.6406 591.0078,164.4063 Q590.75,164.1719 590.75,163.7813 Q590.75,163.4063 591.0078,163.1719 Q591.2656,162.9375 591.8906,162.9375 L599.5156,162.9375 L599.5156,165.5313 Q599.5156,166.1406 599.2891,166.3984 Q599.0625,166.6563 598.6719,166.6563 Q598.2969,166.6563 598.0625,166.3984 Q597.8281,166.1406 597.8281,165.5313 L597.8281,164.6406 L593.8594,164.6406 L593.8594,167.0938 L595.3438,167.0938 Q595.3438,166.4375 595.4688,166.25 Q595.7344,165.8438 596.2031,165.8438 Q596.5781,165.8438 596.8125,166.1016 Q597.0469,166.3594 597.0469,166.9688 L597.0469,168.9375 Q597.0469,169.4844 596.9219,169.6719 Q596.6563,170.0625 596.2031,170.0625 Q595.7344,170.0625 595.4688,169.6563 Q595.3438,169.4688 595.3438,168.7969 L593.8594,168.7969 Z "/><text fill="#000000" font-family="sans-serif" font-size="14" font-weight="bold" lengthAdjust="spacingAndGlyphs" textLength="126" x="609" y="173.7285">ConquestMapPart</text></a><!--class soen6441riskgame.enums.DominationMapPart--><a target="_parent" xlink:actuate="onRequest" xlink:href="../soen6441riskgame/enums/DominationMapPart.html" xlink:show="new" xlink:title="soen6441riskgame.enums.DominationMapPart" xlink:type="simple"><rect fill="#FEFECE" filter="url(#f1ielwnsmy1zhi)" height="32" id="soen6441riskgame.enums.DominationMapPart" style="stroke: #A80036; stroke-width: 1.5;" width="169" x="773.5" y="152"/><ellipse cx="788.5" cy="168" fill="#EB937F" rx="11" ry="11" style="stroke: #A80036; stroke-width: 1.0;"/><path d="M787.3594,168.7969 L787.3594,171.2969 L791.6875,171.2969 L791.6875,170.375 Q791.6875,169.7656 791.9297,169.5 Q792.1719,169.2344 792.5469,169.2344 Q792.9219,169.2344 793.1563,169.5 Q793.3906,169.7656 793.3906,170.375 L793.3906,173 L785.3906,173 Q784.7656,173 784.5078,172.7656 Q784.25,172.5313 784.25,172.1406 Q784.25,171.7656 784.5156,171.5313 Q784.7813,171.2969 785.3906,171.2969 L785.6563,171.2969 L785.6563,164.6406 L785.3906,164.6406 Q784.7656,164.6406 784.5078,164.4063 Q784.25,164.1719 784.25,163.7813 Q784.25,163.4063 784.5078,163.1719 Q784.7656,162.9375 785.3906,162.9375 L793.0156,162.9375 L793.0156,165.5313 Q793.0156,166.1406 792.7891,166.3984 Q792.5625,166.6563 792.1719,166.6563 Q791.7969,166.6563 791.5625,166.3984 Q791.3281,166.1406 791.3281,165.5313 L791.3281,164.6406 L787.3594,164.6406 L787.3594,167.0938 L788.8438,167.0938 Q788.8438,166.4375 788.9688,166.25 Q789.2344,165.8438 789.7031,165.8438 Q790.0781,165.8438 790.3125,166.1016 Q790.5469,166.3594 790.5469,166.9688 L790.5469,168.9375 Q790.5469,169.4844 790.4219,169.6719 Q790.1563,170.0625 789.7031,170.0625 Q789.2344,170.0625 788.9688,169.6563 Q788.8438,169.4688 788.8438,168.7969 L787.3594,168.7969 Z "/><text fill="#000000" font-family="sans-serif" font-size="14" font-weight="bold" lengthAdjust="spacingAndGlyphs" textLength="137" x="802.5" y="173.7285">DominationMapPart</text></a><!--class soen6441riskgame.enums.GamePhase--><a target="_parent" xlink:actuate="onRequest" xlink:href="../soen6441riskgame/enums/GamePhase.html" xlink:show="new" xlink:title="soen6441riskgame.enums.GamePhase" xlink:type="simple"><rect fill="#FEFECE" filter="url(#f1ielwnsmy1zhi)" height="32" id="soen6441riskgame.enums.GamePhase" style="stroke: #A80036; stroke-width: 1.5;" width="115" x="977.5" y="152"/><ellipse cx="992.5" cy="168" fill="#EB937F" rx="11" ry="11" style="stroke: #A80036; stroke-width: 1.0;"/><path d="M991.3594,168.7969 L991.3594,171.2969 L995.6875,171.2969 L995.6875,170.375 Q995.6875,169.7656 995.9297,169.5 Q996.1719,169.2344 996.5469,169.2344 Q996.9219,169.2344 997.1563,169.5 Q997.3906,169.7656 997.3906,170.375 L997.3906,173 L989.3906,173 Q988.7656,173 988.5078,172.7656 Q988.25,172.5313 988.25,172.1406 Q988.25,171.7656 988.5156,171.5313 Q988.7813,171.2969 989.3906,171.2969 L989.6563,171.2969 L989.6563,164.6406 L989.3906,164.6406 Q988.7656,164.6406 988.5078,164.4063 Q988.25,164.1719 988.25,163.7813 Q988.25,163.4063 988.5078,163.1719 Q988.7656,162.9375 989.3906,162.9375 L997.0156,162.9375 L997.0156,165.5313 Q997.0156,166.1406 996.7891,166.3984 Q996.5625,166.6563 996.1719,166.6563 Q995.7969,166.6563 995.5625,166.3984 Q995.3281,166.1406 995.3281,165.5313 L995.3281,164.6406 L991.3594,164.6406 L991.3594,167.0938 L992.8438,167.0938 Q992.8438,166.4375 992.9688,166.25 Q993.2344,165.8438 993.7031,165.8438 Q994.0781,165.8438 994.3125,166.1016 Q994.5469,166.3594 994.5469,166.9688 L994.5469,168.9375 Q994.5469,169.4844 994.4219,169.6719 Q994.1563,170.0625 993.7031,170.0625 Q993.2344,170.0625 992.9688,169.6563 Q992.8438,169.4688 992.8438,168.7969 L991.3594,168.7969 Z "/><text fill="#000000" font-family="sans-serif" font-size="14" font-weight="bold" lengthAdjust="spacingAndGlyphs" textLength="83" x="1006.5" y="173.7285">GamePhase</text></a><!--class soen6441riskgame.enums.StrategyName--><a target="_parent" xlink:actuate="onRequest" xlink:href="../soen6441riskgame/enums/StrategyName.html" xlink:show="new" xlink:title="soen6441riskgame.enums.StrategyName" xlink:type="simple"><rect fill="#FEFECE" filter="url(#f1ielwnsmy1zhi)" height="32" id="soen6441riskgame.enums.StrategyName" style="stroke: #A80036; stroke-width: 1.5;" width="129" x="594.5" y="260"/><ellipse cx="609.5" cy="276" fill="#EB937F" rx="11" ry="11" style="stroke: #A80036; stroke-width: 1.0;"/><path d="M608.3594,276.7969 L608.3594,279.2969 L612.6875,279.2969 L612.6875,278.375 Q612.6875,277.7656 612.9297,277.5 Q613.1719,277.2344 613.5469,277.2344 Q613.9219,277.2344 614.1563,277.5 Q614.3906,277.7656 614.3906,278.375 L614.3906,281 L606.3906,281 Q605.7656,281 605.5078,280.7656 Q605.25,280.5313 605.25,280.1406 Q605.25,279.7656 605.5156,279.5313 Q605.7813,279.2969 606.3906,279.2969 L606.6563,279.2969 L606.6563,272.6406 L606.3906,272.6406 Q605.7656,272.6406 605.5078,272.4063 Q605.25,272.1719 605.25,271.7813 Q605.25,271.4063 605.5078,271.1719 Q605.7656,270.9375 606.3906,270.9375 L614.0156,270.9375 L614.0156,273.5313 Q614.0156,274.1406 613.7891,274.3984 Q613.5625,274.6563 613.1719,274.6563 Q612.7969,274.6563 612.5625,274.3984 Q612.3281,274.1406 612.3281,273.5313 L612.3281,272.6406 L608.3594,272.6406 L608.3594,275.0938 L609.8438,275.0938 Q609.8438,274.4375 609.9688,274.25 Q610.2344,273.8438 610.7031,273.8438 Q611.0781,273.8438 611.3125,274.1016 Q611.5469,274.3594 611.5469,274.9688 L611.5469,276.9375 Q611.5469,277.4844 611.4219,277.6719 Q611.1563,278.0625 610.7031,278.0625 Q610.2344,278.0625 609.9688,277.6563 Q609.8438,277.4688 609.8438,276.7969 L608.3594,276.7969 Z "/><text fill="#000000" font-family="sans-serif" font-size="14" font-weight="bold" lengthAdjust="spacingAndGlyphs" textLength="97" x="623.5" y="281.7285">StrategyName</text></a><!--class soen6441riskgame.models.Boundary--><a target="_parent" xlink:actuate="onRequest" xlink:href="../soen6441riskgame/models/Boundary.html" xlink:show="new" xlink:title="soen6441riskgame.models.Boundary" xlink:type="simple"><rect fill="#FEFECE" filter="url(#f1ielwnsmy1zhi)" height="32" id="soen6441riskgame.models.Boundary" style="stroke: #A80036; stroke-width: 1.5;" width="99" x="1154.5" y="60"/><ellipse cx="1169.5" cy="76" fill="#ADD1B2" rx="11" ry="11" style="stroke: #A80036; stroke-width: 1.0;"/><path d="M1172.2656,71.875 Q1172.4219,71.6563 1172.6094,71.5469 Q1172.7969,71.4375 1173.0156,71.4375 Q1173.3906,71.4375 1173.625,71.6953 Q1173.8594,71.9531 1173.8594,72.5625 L1173.8594,74.0156 Q1173.8594,74.625 1173.625,74.8906 Q1173.3906,75.1563 1173.0156,75.1563 Q1172.6719,75.1563 1172.4688,74.9531 Q1172.2656,74.7656 1172.1563,74.25 Q1172.1094,73.8906 1171.9219,73.7031 Q1171.5938,73.3281 1170.9844,73.1094 Q1170.375,72.8906 1169.75,72.8906 Q1168.9844,72.8906 1168.3516,73.2188 Q1167.7188,73.5469 1167.2266,74.2969 Q1166.7344,75.0469 1166.7344,76.0781 L1166.7344,77.1719 Q1166.7344,78.4063 1167.625,79.2266 Q1168.5156,80.0469 1170.1094,80.0469 Q1171.0469,80.0469 1171.7031,79.7969 Q1172.0938,79.6406 1172.5156,79.2031 Q1172.7813,78.9375 1172.9297,78.8594 Q1173.0781,78.7813 1173.2813,78.7813 Q1173.6094,78.7813 1173.8672,79.0391 Q1174.125,79.2969 1174.125,79.6406 Q1174.125,79.9844 1173.7813,80.3906 Q1173.2813,80.9688 1172.4844,81.2969 Q1171.4063,81.75 1170.1094,81.75 Q1168.5938,81.75 1167.3906,81.125 Q1166.4063,80.625 1165.7188,79.5547 Q1165.0313,78.4844 1165.0313,77.2031 L1165.0313,76.0469 Q1165.0313,74.7188 1165.6484,73.5703 Q1166.2656,72.4219 1167.3594,71.8047 Q1168.4531,71.1875 1169.6875,71.1875 Q1170.4219,71.1875 1171.0703,71.3516 Q1171.7188,71.5156 1172.2656,71.875 Z "/><text fill="#000000" font-family="sans-serif" font-size="14" font-weight="bold" lengthAdjust="spacingAndGlyphs" textLength="67" x="1183.5" y="81.7285">Boundary</text></a><!--class soen6441riskgame.models.Card--><a target="_parent" xlink:actuate="onRequest" xlink:href="../soen6441riskgame/models/Card.html" xlink:show="new" xlink:title="soen6441riskgame.models.Card" xlink:type="simple"><rect fill="#FEFECE" filter="url(#f1ielwnsmy1zhi)" height="32" id="soen6441riskgame.models.Card" style="stroke: #A80036; stroke-width: 1.5;" width="65" x="1288.5" y="60"/><ellipse cx="1303.5" cy="76" fill="#ADD1B2" rx="11" ry="11" style="stroke: #A80036; stroke-width: 1.0;"/><path d="M1306.2656,71.875 Q1306.4219,71.6563 1306.6094,71.5469 Q1306.7969,71.4375 1307.0156,71.4375 Q1307.3906,71.4375 1307.625,71.6953 Q1307.8594,71.9531 1307.8594,72.5625 L1307.8594,74.0156 Q1307.8594,74.625 1307.625,74.8906 Q1307.3906,75.1563 1307.0156,75.1563 Q1306.6719,75.1563 1306.4688,74.9531 Q1306.2656,74.7656 1306.1563,74.25 Q1306.1094,73.8906 1305.9219,73.7031 Q1305.5938,73.3281 1304.9844,73.1094 Q1304.375,72.8906 1303.75,72.8906 Q1302.9844,72.8906 1302.3516,73.2188 Q1301.7188,73.5469 1301.2266,74.2969 Q1300.7344,75.0469 1300.7344,76.0781 L1300.7344,77.1719 Q1300.7344,78.4063 1301.625,79.2266 Q1302.5156,80.0469 1304.1094,80.0469 Q1305.0469,80.0469 1305.7031,79.7969 Q1306.0938,79.6406 1306.5156,79.2031 Q1306.7813,78.9375 1306.9297,78.8594 Q1307.0781,78.7813 1307.2813,78.7813 Q1307.6094,78.7813 1307.8672,79.0391 Q1308.125,79.2969 1308.125,79.6406 Q1308.125,79.9844 1307.7813,80.3906 Q1307.2813,80.9688 1306.4844,81.2969 Q1305.4063,81.75 1304.1094,81.75 Q1302.5938,81.75 1301.3906,81.125 Q1300.4063,80.625 1299.7188,79.5547 Q1299.0313,78.4844 1299.0313,77.2031 L1299.0313,76.0469 Q1299.0313,74.7188 1299.6484,73.5703 Q1300.2656,72.4219 1301.3594,71.8047 Q1302.4531,71.1875 1303.6875,71.1875 Q1304.4219,71.1875 1305.0703,71.3516 Q1305.7188,71.5156 1306.2656,71.875 Z "/><text fill="#000000" font-family="sans-serif" font-size="14" font-weight="bold" lengthAdjust="spacingAndGlyphs" textLength="33" x="1317.5" y="81.7285">Card</text></a><!--class soen6441riskgame.models.CardSet--><a target="_parent" xlink:actuate="onRequest" xlink:href="../soen6441riskgame/models/CardSet.html" xlink:show="new" xlink:title="soen6441riskgame.models.CardSet" xlink:type="simple"><rect fill="#FEFECE" filter="url(#f1ielwnsmy1zhi)" height="32" id="soen6441riskgame.models.CardSet" style="stroke: #A80036; stroke-width: 1.5;" width="88" x="1389" y="60"/><ellipse cx="1404" cy="76" fill="#ADD1B2" rx="11" ry="11" style="stroke: #A80036; stroke-width: 1.0;"/><path d="M1406.7656,71.875 Q1406.9219,71.6563 1407.1094,71.5469 Q1407.2969,71.4375 1407.5156,71.4375 Q1407.8906,71.4375 1408.125,71.6953 Q1408.3594,71.9531 1408.3594,72.5625 L1408.3594,74.0156 Q1408.3594,74.625 1408.125,74.8906 Q1407.8906,75.1563 1407.5156,75.1563 Q1407.1719,75.1563 1406.9688,74.9531 Q1406.7656,74.7656 1406.6563,74.25 Q1406.6094,73.8906 1406.4219,73.7031 Q1406.0938,73.3281 1405.4844,73.1094 Q1404.875,72.8906 1404.25,72.8906 Q1403.4844,72.8906 1402.8516,73.2188 Q1402.2188,73.5469 1401.7266,74.2969 Q1401.2344,75.0469 1401.2344,76.0781 L1401.2344,77.1719 Q1401.2344,78.4063 1402.125,79.2266 Q1403.0156,80.0469 1404.6094,80.0469 Q1405.5469,80.0469 1406.2031,79.7969 Q1406.5938,79.6406 1407.0156,79.2031 Q1407.2813,78.9375 1407.4297,78.8594 Q1407.5781,78.7813 1407.7813,78.7813 Q1408.1094,78.7813 1408.3672,79.0391 Q1408.625,79.2969 1408.625,79.6406 Q1408.625,79.9844 1408.2813,80.3906 Q1407.7813,80.9688 1406.9844,81.2969 Q1405.9063,81.75 1404.6094,81.75 Q1403.0938,81.75 1401.8906,81.125 Q1400.9063,80.625 1400.2188,79.5547 Q1399.5313,78.4844 1399.5313,77.2031 L1399.5313,76.0469 Q1399.5313,74.7188 1400.1484,73.5703 Q1400.7656,72.4219 1401.8594,71.8047 Q1402.9531,71.1875 1404.1875,71.1875 Q1404.9219,71.1875 1405.5703,71.3516 Q1406.2188,71.5156 1406.7656,71.875 Z "/><text fill="#000000" font-family="sans-serif" font-size="14" font-weight="bold" lengthAdjust="spacingAndGlyphs" textLength="56" x="1418" y="81.7285">CardSet</text></a><!--class soen6441riskgame.models.Continent--><a target="_parent" xlink:actuate="onRequest" xlink:href="../soen6441riskgame/models/Continent.html" xlink:show="new" xlink:title="soen6441riskgame.models.Continent" xlink:type="simple"><rect fill="#FEFECE" filter="url(#f1ielwnsmy1zhi)" height="32" id="soen6441riskgame.models.Continent" style="stroke: #A80036; stroke-width: 1.5;" width="101" x="1512.5" y="60"/><ellipse cx="1527.5" cy="76" fill="#ADD1B2" rx="11" ry="11" style="stroke: #A80036; stroke-width: 1.0;"/><path d="M1530.2656,71.875 Q1530.4219,71.6563 1530.6094,71.5469 Q1530.7969,71.4375 1531.0156,71.4375 Q1531.3906,71.4375 1531.625,71.6953 Q1531.8594,71.9531 1531.8594,72.5625 L1531.8594,74.0156 Q1531.8594,74.625 1531.625,74.8906 Q1531.3906,75.1563 1531.0156,75.1563 Q1530.6719,75.1563 1530.4688,74.9531 Q1530.2656,74.7656 1530.1563,74.25 Q1530.1094,73.8906 1529.9219,73.7031 Q1529.5938,73.3281 1528.9844,73.1094 Q1528.375,72.8906 1527.75,72.8906 Q1526.9844,72.8906 1526.3516,73.2188 Q1525.7188,73.5469 1525.2266,74.2969 Q1524.7344,75.0469 1524.7344,76.0781 L1524.7344,77.1719 Q1524.7344,78.4063 1525.625,79.2266 Q1526.5156,80.0469 1528.1094,80.0469 Q1529.0469,80.0469 1529.7031,79.7969 Q1530.0938,79.6406 1530.5156,79.2031 Q1530.7813,78.9375 1530.9297,78.8594 Q1531.0781,78.7813 1531.2813,78.7813 Q1531.6094,78.7813 1531.8672,79.0391 Q1532.125,79.2969 1532.125,79.6406 Q1532.125,79.9844 1531.7813,80.3906 Q1531.2813,80.9688 1530.4844,81.2969 Q1529.4063,81.75 1528.1094,81.75 Q1526.5938,81.75 1525.3906,81.125 Q1524.4063,80.625 1523.7188,79.5547 Q1523.0313,78.4844 1523.0313,77.2031 L1523.0313,76.0469 Q1523.0313,74.7188 1523.6484,73.5703 Q1524.2656,72.4219 1525.3594,71.8047 Q1526.4531,71.1875 1527.6875,71.1875 Q1528.4219,71.1875 1529.0703,71.3516 Q1529.7188,71.5156 1530.2656,71.875 Z "/><text fill="#000000" font-family="sans-serif" font-size="14" font-weight="bold" lengthAdjust="spacingAndGlyphs" textLength="69" x="1541.5" y="81.7285">Continent</text></a><!--class soen6441riskgame.models.Coordinate--><a target="_parent" xlink:actuate="onRequest" xlink:href="../soen6441riskgame/models/Coordinate.html" xlink:show="new" xlink:title="soen6441riskgame.models.Coordinate" xlink:type="simple"><rect fill="#FEFECE" filter="url(#f1ielwnsmy1zhi)" height="32" id="soen6441riskgame.models.Coordinate" style="stroke: #A80036; stroke-width: 1.5;" width="110" x="1154" y="152"/><ellipse cx="1169" cy="168" fill="#ADD1B2" rx="11" ry="11" style="stroke: #A80036; stroke-width: 1.0;"/><path d="M1171.7656,163.875 Q1171.9219,163.6563 1172.1094,163.5469 Q1172.2969,163.4375 1172.5156,163.4375 Q1172.8906,163.4375 1173.125,163.6953 Q1173.3594,163.9531 1173.3594,164.5625 L1173.3594,166.0156 Q1173.3594,166.625 1173.125,166.8906 Q1172.8906,167.1563 1172.5156,167.1563 Q1172.1719,167.1563 1171.9688,166.9531 Q1171.7656,166.7656 1171.6563,166.25 Q1171.6094,165.8906 1171.4219,165.7031 Q1171.0938,165.3281 1170.4844,165.1094 Q1169.875,164.8906 1169.25,164.8906 Q1168.4844,164.8906 1167.8516,165.2188 Q1167.2188,165.5469 1166.7266,166.2969 Q1166.2344,167.0469 1166.2344,168.0781 L1166.2344,169.1719 Q1166.2344,170.4063 1167.125,171.2266 Q1168.0156,172.0469 1169.6094,172.0469 Q1170.5469,172.0469 1171.2031,171.7969 Q1171.5938,171.6406 1172.0156,171.2031 Q1172.2813,170.9375 1172.4297,170.8594 Q1172.5781,170.7813 1172.7813,170.7813 Q1173.1094,170.7813 1173.3672,171.0391 Q1173.625,171.2969 1173.625,171.6406 Q1173.625,171.9844 1173.2813,172.3906 Q1172.7813,172.9688 1171.9844,173.2969 Q1170.9063,173.75 1169.6094,173.75 Q1168.0938,173.75 1166.8906,173.125 Q1165.9063,172.625 1165.2188,171.5547 Q1164.5313,170.4844 1164.5313,169.2031 L1164.5313,168.0469 Q1164.5313,166.7188 1165.1484,165.5703 Q1165.7656,164.4219 1166.8594,163.8047 Q1167.9531,163.1875 1169.1875,163.1875 Q1169.9219,163.1875 1170.5703,163.3516 Q1171.2188,163.5156 1171.7656,163.875 Z "/><text fill="#000000" font-family="sans-serif" font-size="14" font-weight="bold" lengthAdjust="spacingAndGlyphs" textLength="78" x="1183" y="173.7285">Coordinate</text></a><!--class soen6441riskgame.models.Country--><a target="_parent" xlink:actuate="onRequest" xlink:href="../soen6441riskgame/models/Country.html" xlink:show="new" xlink:title="soen6441riskgame.models.Country" xlink:type="simple"><rect fill="#FEFECE" filter="url(#f1ielwnsmy1zhi)" height="32" id="soen6441riskgame.models.Country" style="stroke: #A80036; stroke-width: 1.5;" width="87" x="1299.5" y="152"/><ellipse cx="1314.5" cy="168" fill="#ADD1B2" rx="11" ry="11" style="stroke: #A80036; stroke-width: 1.0;"/><path d="M1317.2656,163.875 Q1317.4219,163.6563 1317.6094,163.5469 Q1317.7969,163.4375 1318.0156,163.4375 Q1318.3906,163.4375 1318.625,163.6953 Q1318.8594,163.9531 1318.8594,164.5625 L1318.8594,166.0156 Q1318.8594,166.625 1318.625,166.8906 Q1318.3906,167.1563 1318.0156,167.1563 Q1317.6719,167.1563 1317.4688,166.9531 Q1317.2656,166.7656 1317.1563,166.25 Q1317.1094,165.8906 1316.9219,165.7031 Q1316.5938,165.3281 1315.9844,165.1094 Q1315.375,164.8906 1314.75,164.8906 Q1313.9844,164.8906 1313.3516,165.2188 Q1312.7188,165.5469 1312.2266,166.2969 Q1311.7344,167.0469 1311.7344,168.0781 L1311.7344,169.1719 Q1311.7344,170.4063 1312.625,171.2266 Q1313.5156,172.0469 1315.1094,172.0469 Q1316.0469,172.0469 1316.7031,171.7969 Q1317.0938,171.6406 1317.5156,171.2031 Q1317.7813,170.9375 1317.9297,170.8594 Q1318.0781,170.7813 1318.2813,170.7813 Q1318.6094,170.7813 1318.8672,171.0391 Q1319.125,171.2969 1319.125,171.6406 Q1319.125,171.9844 1318.7813,172.3906 Q1318.2813,172.9688 1317.4844,173.2969 Q1316.4063,173.75 1315.1094,173.75 Q1313.5938,173.75 1312.3906,173.125 Q1311.4063,172.625 1310.7188,171.5547 Q1310.0313,170.4844 1310.0313,169.2031 L1310.0313,168.0469 Q1310.0313,166.7188 1310.6484,165.5703 Q1311.2656,164.4219 1312.3594,163.8047 Q1313.4531,163.1875 1314.6875,163.1875 Q1315.4219,163.1875 1316.0703,163.3516 Q1316.7188,163.5156 1317.2656,163.875 Z "/><text fill="#000000" font-family="sans-serif" font-size="14" font-weight="bold" lengthAdjust="spacingAndGlyphs" textLength="55" x="1328.5" y="173.7285">Country</text></a><!--class soen6441riskgame.models.ModelCommands--><a target="_parent" xlink:actuate="onRequest" xlink:href="../soen6441riskgame/models/ModelCommands.html" xlink:show="new" xlink:title="soen6441riskgame.models.ModelCommands" xlink:type="simple"><rect fill="#FEFECE" filter="url(#f1ielwnsmy1zhi)" height="32" id="soen6441riskgame.models.ModelCommands" style="stroke: #A80036; stroke-width: 1.5;" width="153" x="1421.5" y="152"/><ellipse cx="1436.5" cy="168" fill="#ADD1B2" rx="11" ry="11" style="stroke: #A80036; stroke-width: 1.0;"/><path d="M1439.2656,163.875 Q1439.4219,163.6563 1439.6094,163.5469 Q1439.7969,163.4375 1440.0156,163.4375 Q1440.3906,163.4375 1440.625,163.6953 Q1440.8594,163.9531 1440.8594,164.5625 L1440.8594,166.0156 Q1440.8594,166.625 1440.625,166.8906 Q1440.3906,167.1563 1440.0156,167.1563 Q1439.6719,167.1563 1439.4688,166.9531 Q1439.2656,166.7656 1439.1563,166.25 Q1439.1094,165.8906 1438.9219,165.7031 Q1438.5938,165.3281 1437.9844,165.1094 Q1437.375,164.8906 1436.75,164.8906 Q1435.9844,164.8906 1435.3516,165.2188 Q1434.7188,165.5469 1434.2266,166.2969 Q1433.7344,167.0469 1433.7344,168.0781 L1433.7344,169.1719 Q1433.7344,170.4063 1434.625,171.2266 Q1435.5156,172.0469 1437.1094,172.0469 Q1438.0469,172.0469 1438.7031,171.7969 Q1439.0938,171.6406 1439.5156,171.2031 Q1439.7813,170.9375 1439.9297,170.8594 Q1440.0781,170.7813 1440.2813,170.7813 Q1440.6094,170.7813 1440.8672,171.0391 Q1441.125,171.2969 1441.125,171.6406 Q1441.125,171.9844 1440.7813,172.3906 Q1440.2813,172.9688 1439.4844,173.2969 Q1438.4063,173.75 1437.1094,173.75 Q1435.5938,173.75 1434.3906,173.125 Q1433.4063,172.625 1432.7188,171.5547 Q1432.0313,170.4844 1432.0313,169.2031 L1432.0313,168.0469 Q1432.0313,166.7188 1432.6484,165.5703 Q1433.2656,164.4219 1434.3594,163.8047 Q1435.4531,163.1875 1436.6875,163.1875 Q1437.4219,163.1875 1438.0703,163.3516 Q1438.7188,163.5156 1439.2656,163.875 Z "/><text fill="#000000" font-family="sans-serif" font-size="14" font-weight="bold" lengthAdjust="spacingAndGlyphs" textLength="121" x="1450.5" y="173.7285">ModelCommands</text></a><!--class soen6441riskgame.models.ModelCommandsPair--><a target="_parent" xlink:actuate="onRequest" xlink:href="../soen6441riskgame/models/ModelCommandsPair.html" xlink:show="new" xlink:title="soen6441riskgame.models.ModelCommandsPair" xlink:type="simple"><rect fill="#FEFECE" filter="url(#f1ielwnsmy1zhi)" height="32" id="soen6441riskgame.models.ModelCommandsPair" style="stroke: #A80036; stroke-width: 1.5;" width="180" x="1610" y="152"/><ellipse cx="1625" cy="168" fill="#ADD1B2" rx="11" ry="11" style="stroke: #A80036; stroke-width: 1.0;"/><path d="M1627.7656,163.875 Q1627.9219,163.6563 1628.1094,163.5469 Q1628.2969,163.4375 1628.5156,163.4375 Q1628.8906,163.4375 1629.125,163.6953 Q1629.3594,163.9531 1629.3594,164.5625 L1629.3594,166.0156 Q1629.3594,166.625 1629.125,166.8906 Q1628.8906,167.1563 1628.5156,167.1563 Q1628.1719,167.1563 1627.9688,166.9531 Q1627.7656,166.7656 1627.6563,166.25 Q1627.6094,165.8906 1627.4219,165.7031 Q1627.0938,165.3281 1626.4844,165.1094 Q1625.875,164.8906 1625.25,164.8906 Q1624.4844,164.8906 1623.8516,165.2188 Q1623.2188,165.5469 1622.7266,166.2969 Q1622.2344,167.0469 1622.2344,168.0781 L1622.2344,169.1719 Q1622.2344,170.4063 1623.125,171.2266 Q1624.0156,172.0469 1625.6094,172.0469 Q1626.5469,172.0469 1627.2031,171.7969 Q1627.5938,171.6406 1628.0156,171.2031 Q1628.2813,170.9375 1628.4297,170.8594 Q1628.5781,170.7813 1628.7813,170.7813 Q1629.1094,170.7813 1629.3672,171.0391 Q1629.625,171.2969 1629.625,171.6406 Q1629.625,171.9844 1629.2813,172.3906 Q1628.7813,172.9688 1627.9844,173.2969 Q1626.9063,173.75 1625.6094,173.75 Q1624.0938,173.75 1622.8906,173.125 Q1621.9063,172.625 1621.2188,171.5547 Q1620.5313,170.4844 1620.5313,169.2031 L1620.5313,168.0469 Q1620.5313,166.7188 1621.1484,165.5703 Q1621.7656,164.4219 1622.8594,163.8047 Q1623.9531,163.1875 1625.1875,163.1875 Q1625.9219,163.1875 1626.5703,163.3516 Q1627.2188,163.5156 1627.7656,163.875 Z "/><text fill="#000000" font-family="sans-serif" font-size="14" font-weight="bold" lengthAdjust="spacingAndGlyphs" textLength="148" x="1639" y="173.7285">ModelCommandsPair</text></a><!--class soen6441riskgame.models.Player--><a target="_parent" xlink:actuate="onRequest" xlink:href="../soen6441riskgame/models/Player.html" xlink:show="new" xlink:title="soen6441riskgame.models.Player" xlink:type="simple"><rect fill="#FEFECE" filter="url(#f1ielwnsmy1zhi)" height="32" id="soen6441riskgame.models.Player" style="stroke: #A80036; stroke-width: 1.5;" width="75" x="1171.5" y="260"/><ellipse cx="1186.5" cy="276" fill="#ADD1B2" rx="11" ry="11" style="stroke: #A80036; stroke-width: 1.0;"/><path d="M1189.2656,271.875 Q1189.4219,271.6563 1189.6094,271.5469 Q1189.7969,271.4375 1190.0156,271.4375 Q1190.3906,271.4375 1190.625,271.6953 Q1190.8594,271.9531 1190.8594,272.5625 L1190.8594,274.0156 Q1190.8594,274.625 1190.625,274.8906 Q1190.3906,275.1563 1190.0156,275.1563 Q1189.6719,275.1563 1189.4688,274.9531 Q1189.2656,274.7656 1189.1563,274.25 Q1189.1094,273.8906 1188.9219,273.7031 Q1188.5938,273.3281 1187.9844,273.1094 Q1187.375,272.8906 1186.75,272.8906 Q1185.9844,272.8906 1185.3516,273.2188 Q1184.7188,273.5469 1184.2266,274.2969 Q1183.7344,275.0469 1183.7344,276.0781 L1183.7344,277.1719 Q1183.7344,278.4063 1184.625,279.2266 Q1185.5156,280.0469 1187.1094,280.0469 Q1188.0469,280.0469 1188.7031,279.7969 Q1189.0938,279.6406 1189.5156,279.2031 Q1189.7813,278.9375 1189.9297,278.8594 Q1190.0781,278.7813 1190.2813,278.7813 Q1190.6094,278.7813 1190.8672,279.0391 Q1191.125,279.2969 1191.125,279.6406 Q1191.125,279.9844 1190.7813,280.3906 Q1190.2813,280.9688 1189.4844,281.2969 Q1188.4063,281.75 1187.1094,281.75 Q1185.5938,281.75 1184.3906,281.125 Q1183.4063,280.625 1182.7188,279.5547 Q1182.0313,278.4844 1182.0313,277.2031 L1182.0313,276.0469 Q1182.0313,274.7188 1182.6484,273.5703 Q1183.2656,272.4219 1184.3594,271.8047 Q1185.4531,271.1875 1186.6875,271.1875 Q1187.4219,271.1875 1188.0703,271.3516 Q1188.7188,271.5156 1189.2656,271.875 Z "/><text fill="#000000" font-family="sans-serif" font-size="14" font-weight="bold" lengthAdjust="spacingAndGlyphs" textLength="43" x="1200.5" y="281.7285">Player</text></a><!--class soen6441riskgame.models.Viewable--><a target="_parent" xlink:actuate="onRequest" xlink:href="../soen6441riskgame/models/Viewable.html" xlink:show="new" xlink:title="soen6441riskgame.models.Viewable" xlink:type="simple"><rect fill="#FEFECE" filter="url(#f1ielwnsmy1zhi)" height="32" id="soen6441riskgame.models.Viewable" style="stroke: #A80036; stroke-width: 1.5;" width="94" x="1282" y="260"/><ellipse cx="1297" cy="276" fill="#B4A7E5" rx="11" ry="11" style="stroke: #A80036; stroke-width: 1.0;"/><path d="M1297.9531,272.6406 L1297.9531,279.2969 L1299.6719,279.2969 Q1300.2813,279.2969 1300.5469,279.5313 Q1300.8125,279.7656 1300.8125,280.1563 Q1300.8125,280.5313 1300.5469,280.7656 Q1300.2813,281 1299.6719,281 L1294.5313,281 Q1293.9219,281 1293.6563,280.7656 Q1293.3906,280.5313 1293.3906,280.1406 Q1293.3906,279.7656 1293.6563,279.5313 Q1293.9219,279.2969 1294.5313,279.2969 L1296.25,279.2969 L1296.25,272.6406 L1294.5313,272.6406 Q1293.9219,272.6406 1293.6563,272.4063 Q1293.3906,272.1719 1293.3906,271.7813 Q1293.3906,271.4063 1293.6563,271.1719 Q1293.9219,270.9375 1294.5313,270.9375 L1299.6719,270.9375 Q1300.2813,270.9375 1300.5469,271.1719 Q1300.8125,271.4063 1300.8125,271.7813 Q1300.8125,272.1719 1300.5469,272.4063 Q1300.2813,272.6406 1299.6719,272.6406 L1297.9531,272.6406 Z "/><text fill="#000000" font-family="sans-serif" font-size="14" font-style="italic" font-weight="bold" lengthAdjust="spacingAndGlyphs" textLength="62" x="1311" y="281.7285">Viewable</text></a><!--class soen6441riskgame.singleton.GameBoard--><a target="_parent" xlink:actuate="onRequest" xlink:href="../soen6441riskgame/singleton/GameBoard.html" xlink:show="new" xlink:title="soen6441riskgame.singleton.GameBoard" xlink:type="simple"><rect fill="#FEFECE" filter="url(#f1ielwnsmy1zhi)" height="32" id="soen6441riskgame.singleton.GameBoard" style="stroke: #A80036; stroke-width: 1.5;" width="114" x="38" y="260"/><ellipse cx="53" cy="276" fill="#ADD1B2" rx="11" ry="11" style="stroke: #A80036; stroke-width: 1.0;"/><path d="M55.7656,271.875 Q55.9219,271.6563 56.1094,271.5469 Q56.2969,271.4375 56.5156,271.4375 Q56.8906,271.4375 57.125,271.6953 Q57.3594,271.9531 57.3594,272.5625 L57.3594,274.0156 Q57.3594,274.625 57.125,274.8906 Q56.8906,275.1563 56.5156,275.1563 Q56.1719,275.1563 55.9688,274.9531 Q55.7656,274.7656 55.6563,274.25 Q55.6094,273.8906 55.4219,273.7031 Q55.0938,273.3281 54.4844,273.1094 Q53.875,272.8906 53.25,272.8906 Q52.4844,272.8906 51.8516,273.2188 Q51.2188,273.5469 50.7266,274.2969 Q50.2344,275.0469 50.2344,276.0781 L50.2344,277.1719 Q50.2344,278.4063 51.125,279.2266 Q52.0156,280.0469 53.6094,280.0469 Q54.5469,280.0469 55.2031,279.7969 Q55.5938,279.6406 56.0156,279.2031 Q56.2813,278.9375 56.4297,278.8594 Q56.5781,278.7813 56.7813,278.7813 Q57.1094,278.7813 57.3672,279.0391 Q57.625,279.2969 57.625,279.6406 Q57.625,279.9844 57.2813,280.3906 Q56.7813,280.9688 55.9844,281.2969 Q54.9063,281.75 53.6094,281.75 Q52.0938,281.75 50.8906,281.125 Q49.9063,280.625 49.2188,279.5547 Q48.5313,278.4844 48.5313,277.2031 L48.5313,276.0469 Q48.5313,274.7188 49.1484,273.5703 Q49.7656,272.4219 50.8594,271.8047 Q51.9531,271.1875 53.1875,271.1875 Q53.9219,271.1875 54.5703,271.3516 Q55.2188,271.5156 55.7656,271.875 Z "/><text fill="#000000" font-family="sans-serif" font-size="14" font-weight="bold" lengthAdjust="spacingAndGlyphs" textLength="82" x="67" y="281.7285">GameBoard</text></a><!--class soen6441riskgame.singleton.GameBoardMap--><a target="_parent" xlink:actuate="onRequest" xlink:href="../soen6441riskgame/singleton/GameBoardMap.html" xlink:show="new" xlink:title="soen6441riskgame.singleton.GameBoardMap" xlink:type="simple"><rect fill="#FEFECE" filter="url(#f1ielwnsmy1zhi)" height="32" id="soen6441riskgame.singleton.GameBoardMap" style="stroke: #A80036; stroke-width: 1.5;" width="144" x="187" y="260"/><ellipse cx="202" cy="276" fill="#ADD1B2" rx="11" ry="11" style="stroke: #A80036; stroke-width: 1.0;"/><path d="M204.7656,271.875 Q204.9219,271.6563 205.1094,271.5469 Q205.2969,271.4375 205.5156,271.4375 Q205.8906,271.4375 206.125,271.6953 Q206.3594,271.9531 206.3594,272.5625 L206.3594,274.0156 Q206.3594,274.625 206.125,274.8906 Q205.8906,275.1563 205.5156,275.1563 Q205.1719,275.1563 204.9688,274.9531 Q204.7656,274.7656 204.6563,274.25 Q204.6094,273.8906 204.4219,273.7031 Q204.0938,273.3281 203.4844,273.1094 Q202.875,272.8906 202.25,272.8906 Q201.4844,272.8906 200.8516,273.2188 Q200.2188,273.5469 199.7266,274.2969 Q199.2344,275.0469 199.2344,276.0781 L199.2344,277.1719 Q199.2344,278.4063 200.125,279.2266 Q201.0156,280.0469 202.6094,280.0469 Q203.5469,280.0469 204.2031,279.7969 Q204.5938,279.6406 205.0156,279.2031 Q205.2813,278.9375 205.4297,278.8594 Q205.5781,278.7813 205.7813,278.7813 Q206.1094,278.7813 206.3672,279.0391 Q206.625,279.2969 206.625,279.6406 Q206.625,279.9844 206.2813,280.3906 Q205.7813,280.9688 204.9844,281.2969 Q203.9063,281.75 202.6094,281.75 Q201.0938,281.75 199.8906,281.125 Q198.9063,280.625 198.2188,279.5547 Q197.5313,278.4844 197.5313,277.2031 L197.5313,276.0469 Q197.5313,274.7188 198.1484,273.5703 Q198.7656,272.4219 199.8594,271.8047 Q200.9531,271.1875 202.1875,271.1875 Q202.9219,271.1875 203.5703,271.3516 Q204.2188,271.5156 204.7656,271.875 Z "/><text fill="#000000" font-family="sans-serif" font-size="14" font-weight="bold" lengthAdjust="spacingAndGlyphs" textLength="112" x="216" y="281.7285">GameBoardMap</text></a><!--class soen6441riskgame.singleton.GameBoardPlayer--><a target="_parent" xlink:actuate="onRequest" xlink:href="../soen6441riskgame/singleton/GameBoardPlayer.html" xlink:show="new" xlink:title="soen6441riskgame.singleton.GameBoardPlayer" xlink:type="simple"><rect fill="#FEFECE" filter="url(#f1ielwnsmy1zhi)" height="32" id="soen6441riskgame.singleton.GameBoardPlayer" style="stroke: #A80036; stroke-width: 1.5;" width="157" x="366.5" y="260"/><ellipse cx="381.5" cy="276" fill="#ADD1B2" rx="11" ry="11" style="stroke: #A80036; stroke-width: 1.0;"/><path d="M384.2656,271.875 Q384.4219,271.6563 384.6094,271.5469 Q384.7969,271.4375 385.0156,271.4375 Q385.3906,271.4375 385.625,271.6953 Q385.8594,271.9531 385.8594,272.5625 L385.8594,274.0156 Q385.8594,274.625 385.625,274.8906 Q385.3906,275.1563 385.0156,275.1563 Q384.6719,275.1563 384.4688,274.9531 Q384.2656,274.7656 384.1563,274.25 Q384.1094,273.8906 383.9219,273.7031 Q383.5938,273.3281 382.9844,273.1094 Q382.375,272.8906 381.75,272.8906 Q380.9844,272.8906 380.3516,273.2188 Q379.7188,273.5469 379.2266,274.2969 Q378.7344,275.0469 378.7344,276.0781 L378.7344,277.1719 Q378.7344,278.4063 379.625,279.2266 Q380.5156,280.0469 382.1094,280.0469 Q383.0469,280.0469 383.7031,279.7969 Q384.0938,279.6406 384.5156,279.2031 Q384.7813,278.9375 384.9297,278.8594 Q385.0781,278.7813 385.2813,278.7813 Q385.6094,278.7813 385.8672,279.0391 Q386.125,279.2969 386.125,279.6406 Q386.125,279.9844 385.7813,280.3906 Q385.2813,280.9688 384.4844,281.2969 Q383.4063,281.75 382.1094,281.75 Q380.5938,281.75 379.3906,281.125 Q378.4063,280.625 377.7188,279.5547 Q377.0313,278.4844 377.0313,277.2031 L377.0313,276.0469 Q377.0313,274.7188 377.6484,273.5703 Q378.2656,272.4219 379.3594,271.8047 Q380.4531,271.1875 381.6875,271.1875 Q382.4219,271.1875 383.0703,271.3516 Q383.7188,271.5156 384.2656,271.875 Z "/><text fill="#000000" font-family="sans-serif" font-size="14" font-weight="bold" lengthAdjust="spacingAndGlyphs" textLength="125" x="395.5" y="281.7285">GameBoardPlayer</text></a><!--class soen6441riskgame.singleton.GameBoardPlaying--><a target="_parent" xlink:actuate="onRequest" xlink:href="../soen6441riskgame/singleton/GameBoardPlaying.html" xlink:show="new" xlink:title="soen6441riskgame.singleton.GameBoardPlaying" xlink:type="simple"><rect fill="#FEFECE" filter="url(#f1ielwnsmy1zhi)" height="32" id="soen6441riskgame.singleton.GameBoardPlaying" style="stroke: #A80036; stroke-width: 1.5;" width="164" x="38" y="352"/><ellipse cx="53" cy="368" fill="#ADD1B2" rx="11" ry="11" style="stroke: #A80036; stroke-width: 1.0;"/><path d="M55.7656,363.875 Q55.9219,363.6563 56.1094,363.5469 Q56.2969,363.4375 56.5156,363.4375 Q56.8906,363.4375 57.125,363.6953 Q57.3594,363.9531 57.3594,364.5625 L57.3594,366.0156 Q57.3594,366.625 57.125,366.8906 Q56.8906,367.1563 56.5156,367.1563 Q56.1719,367.1563 55.9688,366.9531 Q55.7656,366.7656 55.6563,366.25 Q55.6094,365.8906 55.4219,365.7031 Q55.0938,365.3281 54.4844,365.1094 Q53.875,364.8906 53.25,364.8906 Q52.4844,364.8906 51.8516,365.2188 Q51.2188,365.5469 50.7266,366.2969 Q50.2344,367.0469 50.2344,368.0781 L50.2344,369.1719 Q50.2344,370.4063 51.125,371.2266 Q52.0156,372.0469 53.6094,372.0469 Q54.5469,372.0469 55.2031,371.7969 Q55.5938,371.6406 56.0156,371.2031 Q56.2813,370.9375 56.4297,370.8594 Q56.5781,370.7813 56.7813,370.7813 Q57.1094,370.7813 57.3672,371.0391 Q57.625,371.2969 57.625,371.6406 Q57.625,371.9844 57.2813,372.3906 Q56.7813,372.9688 55.9844,373.2969 Q54.9063,373.75 53.6094,373.75 Q52.0938,373.75 50.8906,373.125 Q49.9063,372.625 49.2188,371.5547 Q48.5313,370.4844 48.5313,369.2031 L48.5313,368.0469 Q48.5313,366.7188 49.1484,365.5703 Q49.7656,364.4219 50.8594,363.8047 Q51.9531,363.1875 53.1875,363.1875 Q53.9219,363.1875 54.5703,363.3516 Q55.2188,363.5156 55.7656,363.875 Z "/><text fill="#000000" font-family="sans-serif" font-size="14" font-weight="bold" lengthAdjust="spacingAndGlyphs" textLength="132" x="67" y="373.7285">GameBoardPlaying</text></a><!--class soen6441riskgame.singleton.Resettable--><a target="_parent" xlink:actuate="onRequest" xlink:href="../soen6441riskgame/singleton/Resettable.html" xlink:show="new" xlink:title="soen6441riskgame.singleton.Resettable" xlink:type="simple"><rect fill="#FEFECE" filter="url(#f1ielwnsmy1zhi)" height="32" id="soen6441riskgame.singleton.Resettable" style="stroke: #A80036; stroke-width: 1.5;" width="104" x="237" y="352"/><ellipse cx="252" cy="368" fill="#B4A7E5" rx="11" ry="11" style="stroke: #A80036; stroke-width: 1.0;"/><path d="M252.9531,364.6406 L252.9531,371.2969 L254.6719,371.2969 Q255.2813,371.2969 255.5469,371.5313 Q255.8125,371.7656 255.8125,372.1563 Q255.8125,372.5313 255.5469,372.7656 Q255.2813,373 254.6719,373 L249.5313,373 Q248.9219,373 248.6563,372.7656 Q248.3906,372.5313 248.3906,372.1406 Q248.3906,371.7656 248.6563,371.5313 Q248.9219,371.2969 249.5313,371.2969 L251.25,371.2969 L251.25,364.6406 L249.5313,364.6406 Q248.9219,364.6406 248.6563,364.4063 Q248.3906,364.1719 248.3906,363.7813 Q248.3906,363.4063 248.6563,363.1719 Q248.9219,362.9375 249.5313,362.9375 L254.6719,362.9375 Q255.2813,362.9375 255.5469,363.1719 Q255.8125,363.4063 255.8125,363.7813 Q255.8125,364.1719 255.5469,364.4063 Q255.2813,364.6406 254.6719,364.6406 L252.9531,364.6406 Z "/><text fill="#000000" font-family="sans-serif" font-size="14" font-style="italic" font-weight="bold" lengthAdjust="spacingAndGlyphs" textLength="72" x="266" y="373.7285">Resettable</text></a><!--class soen6441riskgame.utils.ConsolePrinter--><a target="_parent" xlink:actuate="onRequest" xlink:href="../soen6441riskgame/utils/ConsolePrinter.html" xlink:show="new" xlink:title="soen6441riskgame.utils.ConsolePrinter" xlink:type="simple"><rect fill="#FEFECE" filter="url(#f1ielwnsmy1zhi)" height="32" id="soen6441riskgame.utils.ConsolePrinter" style="stroke: #A80036; stroke-width: 1.5;" width="138" x="1846" y="260"/><ellipse cx="1861" cy="276" fill="#ADD1B2" rx="11" ry="11" style="stroke: #A80036; stroke-width: 1.0;"/><path d="M1863.7656,271.875 Q1863.9219,271.6563 1864.1094,271.5469 Q1864.2969,271.4375 1864.5156,271.4375 Q1864.8906,271.4375 1865.125,271.6953 Q1865.3594,271.9531 1865.3594,272.5625 L1865.3594,274.0156 Q1865.3594,274.625 1865.125,274.8906 Q1864.8906,275.1563 1864.5156,275.1563 Q1864.1719,275.1563 1863.9688,274.9531 Q1863.7656,274.7656 1863.6563,274.25 Q1863.6094,273.8906 1863.4219,273.7031 Q1863.0938,273.3281 1862.4844,273.1094 Q1861.875,272.8906 1861.25,272.8906 Q1860.4844,272.8906 1859.8516,273.2188 Q1859.2188,273.5469 1858.7266,274.2969 Q1858.2344,275.0469 1858.2344,276.0781 L1858.2344,277.1719 Q1858.2344,278.4063 1859.125,279.2266 Q1860.0156,280.0469 1861.6094,280.0469 Q1862.5469,280.0469 1863.2031,279.7969 Q1863.5938,279.6406 1864.0156,279.2031 Q1864.2813,278.9375 1864.4297,278.8594 Q1864.5781,278.7813 1864.7813,278.7813 Q1865.1094,278.7813 1865.3672,279.0391 Q1865.625,279.2969 1865.625,279.6406 Q1865.625,279.9844 1865.2813,280.3906 Q1864.7813,280.9688 1863.9844,281.2969 Q1862.9063,281.75 1861.6094,281.75 Q1860.0938,281.75 1858.8906,281.125 Q1857.9063,280.625 1857.2188,279.5547 Q1856.5313,278.4844 1856.5313,277.2031 L1856.5313,276.0469 Q1856.5313,274.7188 1857.1484,273.5703 Q1857.7656,272.4219 1858.8594,271.8047 Q1859.9531,271.1875 1861.1875,271.1875 Q1861.9219,271.1875 1862.5703,271.3516 Q1863.2188,271.5156 1863.7656,271.875 Z "/><text fill="#000000" font-family="sans-serif" font-size="14" font-weight="bold" lengthAdjust="spacingAndGlyphs" textLength="106" x="1875" y="281.7285">ConsolePrinter</text></a><!--class soen6441riskgame.utils.GameHelper--><a target="_parent" xlink:actuate="onRequest" xlink:href="../soen6441riskgame/utils/GameHelper.html" xlink:show="new" xlink:title="soen6441riskgame.utils.GameHelper" xlink:type="simple"><rect fill="#FEFECE" filter="url(#f1ielwnsmy1zhi)" height="32" id="soen6441riskgame.utils.GameHelper" style="stroke: #A80036; stroke-width: 1.5;" width="119" x="2019.5" y="260"/><ellipse cx="2034.5" cy="276" fill="#ADD1B2" rx="11" ry="11" style="stroke: #A80036; stroke-width: 1.0;"/><path d="M2037.2656,271.875 Q2037.4219,271.6563 2037.6094,271.5469 Q2037.7969,271.4375 2038.0156,271.4375 Q2038.3906,271.4375 2038.625,271.6953 Q2038.8594,271.9531 2038.8594,272.5625 L2038.8594,274.0156 Q2038.8594,274.625 2038.625,274.8906 Q2038.3906,275.1563 2038.0156,275.1563 Q2037.6719,275.1563 2037.4688,274.9531 Q2037.2656,274.7656 2037.1563,274.25 Q2037.1094,273.8906 2036.9219,273.7031 Q2036.5938,273.3281 2035.9844,273.1094 Q2035.375,272.8906 2034.75,272.8906 Q2033.9844,272.8906 2033.3516,273.2188 Q2032.7188,273.5469 2032.2266,274.2969 Q2031.7344,275.0469 2031.7344,276.0781 L2031.7344,277.1719 Q2031.7344,278.4063 2032.625,279.2266 Q2033.5156,280.0469 2035.1094,280.0469 Q2036.0469,280.0469 2036.7031,279.7969 Q2037.0938,279.6406 2037.5156,279.2031 Q2037.7813,278.9375 2037.9297,278.8594 Q2038.0781,278.7813 2038.2813,278.7813 Q2038.6094,278.7813 2038.8672,279.0391 Q2039.125,279.2969 2039.125,279.6406 Q2039.125,279.9844 2038.7813,280.3906 Q2038.2813,280.9688 2037.4844,281.2969 Q2036.4063,281.75 2035.1094,281.75 Q2033.5938,281.75 2032.3906,281.125 Q2031.4063,280.625 2030.7188,279.5547 Q2030.0313,278.4844 2030.0313,277.2031 L2030.0313,276.0469 Q2030.0313,274.7188 2030.6484,273.5703 Q2031.2656,272.4219 2032.3594,271.8047 Q2033.4531,271.1875 2034.6875,271.1875 Q2035.4219,271.1875 2036.0703,271.3516 Q2036.7188,271.5156 2037.2656,271.875 Z "/><text fill="#000000" font-family="sans-serif" font-size="14" font-weight="bold" lengthAdjust="spacingAndGlyphs" textLength="87" x="2048.5" y="281.7285">GameHelper</text></a><!--class soen6441riskgame.utils.GraphChecker--><a target="_parent" xlink:actuate="onRequest" xlink:href="../soen6441riskgame/utils/GraphChecker.html" xlink:show="new" xlink:title="soen6441riskgame.utils.GraphChecker" xlink:type="simple"><rect fill="#FEFECE" filter="url(#f1ielwnsmy1zhi)" height="32" id="soen6441riskgame.utils.GraphChecker" style="stroke: #A80036; stroke-width: 1.5;" width="134" x="1848" y="352"/><ellipse cx="1863" cy="368" fill="#ADD1B2" rx="11" ry="11" style="stroke: #A80036; stroke-width: 1.0;"/><path d="M1865.7656,363.875 Q1865.9219,363.6563 1866.1094,363.5469 Q1866.2969,363.4375 1866.5156,363.4375 Q1866.8906,363.4375 1867.125,363.6953 Q1867.3594,363.9531 1867.3594,364.5625 L1867.3594,366.0156 Q1867.3594,366.625 1867.125,366.8906 Q1866.8906,367.1563 1866.5156,367.1563 Q1866.1719,367.1563 1865.9688,366.9531 Q1865.7656,366.7656 1865.6563,366.25 Q1865.6094,365.8906 1865.4219,365.7031 Q1865.0938,365.3281 1864.4844,365.1094 Q1863.875,364.8906 1863.25,364.8906 Q1862.4844,364.8906 1861.8516,365.2188 Q1861.2188,365.5469 1860.7266,366.2969 Q1860.2344,367.0469 1860.2344,368.0781 L1860.2344,369.1719 Q1860.2344,370.4063 1861.125,371.2266 Q1862.0156,372.0469 1863.6094,372.0469 Q1864.5469,372.0469 1865.2031,371.7969 Q1865.5938,371.6406 1866.0156,371.2031 Q1866.2813,370.9375 1866.4297,370.8594 Q1866.5781,370.7813 1866.7813,370.7813 Q1867.1094,370.7813 1867.3672,371.0391 Q1867.625,371.2969 1867.625,371.6406 Q1867.625,371.9844 1867.2813,372.3906 Q1866.7813,372.9688 1865.9844,373.2969 Q1864.9063,373.75 1863.6094,373.75 Q1862.0938,373.75 1860.8906,373.125 Q1859.9063,372.625 1859.2188,371.5547 Q1858.5313,370.4844 1858.5313,369.2031 L1858.5313,368.0469 Q1858.5313,366.7188 1859.1484,365.5703 Q1859.7656,364.4219 1860.8594,363.8047 Q1861.9531,363.1875 1863.1875,363.1875 Q1863.9219,363.1875 1864.5703,363.3516 Q1865.2188,363.5156 1865.7656,363.875 Z "/><text fill="#000000" font-family="sans-serif" font-size="14" font-weight="bold" lengthAdjust="spacingAndGlyphs" textLength="102" x="1877" y="373.7285">GraphChecker</text></a><!--class soen6441riskgame.utils.Parser--><a target="_parent" xlink:actuate="onRequest" xlink:href="../soen6441riskgame/utils/Parser.html" xlink:show="new" xlink:title="soen6441riskgame.utils.Parser" xlink:type="simple"><rect fill="#FEFECE" filter="url(#f1ielwnsmy1zhi)" height="32" id="soen6441riskgame.utils.Parser" style="stroke: #A80036; stroke-width: 1.5;" width="78" x="2017" y="352"/><ellipse cx="2032" cy="368" fill="#ADD1B2" rx="11" ry="11" style="stroke: #A80036; stroke-width: 1.0;"/><path d="M2034.7656,363.875 Q2034.9219,363.6563 2035.1094,363.5469 Q2035.2969,363.4375 2035.5156,363.4375 Q2035.8906,363.4375 2036.125,363.6953 Q2036.3594,363.9531 2036.3594,364.5625 L2036.3594,366.0156 Q2036.3594,366.625 2036.125,366.8906 Q2035.8906,367.1563 2035.5156,367.1563 Q2035.1719,367.1563 2034.9688,366.9531 Q2034.7656,366.7656 2034.6563,366.25 Q2034.6094,365.8906 2034.4219,365.7031 Q2034.0938,365.3281 2033.4844,365.1094 Q2032.875,364.8906 2032.25,364.8906 Q2031.4844,364.8906 2030.8516,365.2188 Q2030.2188,365.5469 2029.7266,366.2969 Q2029.2344,367.0469 2029.2344,368.0781 L2029.2344,369.1719 Q2029.2344,370.4063 2030.125,371.2266 Q2031.0156,372.0469 2032.6094,372.0469 Q2033.5469,372.0469 2034.2031,371.7969 Q2034.5938,371.6406 2035.0156,371.2031 Q2035.2813,370.9375 2035.4297,370.8594 Q2035.5781,370.7813 2035.7813,370.7813 Q2036.1094,370.7813 2036.3672,371.0391 Q2036.625,371.2969 2036.625,371.6406 Q2036.625,371.9844 2036.2813,372.3906 Q2035.7813,372.9688 2034.9844,373.2969 Q2033.9063,373.75 2032.6094,373.75 Q2031.0938,373.75 2029.8906,373.125 Q2028.9063,372.625 2028.2188,371.5547 Q2027.5313,370.4844 2027.5313,369.2031 L2027.5313,368.0469 Q2027.5313,366.7188 2028.1484,365.5703 Q2028.7656,364.4219 2029.8594,363.8047 Q2030.9531,363.1875 2032.1875,363.1875 Q2032.9219,363.1875 2033.5703,363.3516 Q2034.2188,363.5156 2034.7656,363.875 Z "/><text fill="#000000" font-family="sans-serif" font-size="14" font-weight="bold" lengthAdjust="spacingAndGlyphs" textLength="46" x="2046" y="373.7285">Parser</text></a><!--class soen6441riskgame.views.ExchangeCardView--><a target="_parent" xlink:actuate="onRequest" xlink:href="../soen6441riskgame/views/ExchangeCardView.html" xlink:show="new" xlink:title="soen6441riskgame.views.ExchangeCardView" xlink:type="simple"><rect fill="#FEFECE" filter="url(#f1ielwnsmy1zhi)" height="32" id="soen6441riskgame.views.ExchangeCardView" style="stroke: #A80036; stroke-width: 1.5;" width="167" x="2195.5" y="260"/><ellipse cx="2210.5" cy="276" fill="#ADD1B2" rx="11" ry="11" style="stroke: #A80036; stroke-width: 1.0;"/><path d="M2213.2656,271.875 Q2213.4219,271.6563 2213.6094,271.5469 Q2213.7969,271.4375 2214.0156,271.4375 Q2214.3906,271.4375 2214.625,271.6953 Q2214.8594,271.9531 2214.8594,272.5625 L2214.8594,274.0156 Q2214.8594,274.625 2214.625,274.8906 Q2214.3906,275.1563 2214.0156,275.1563 Q2213.6719,275.1563 2213.4688,274.9531 Q2213.2656,274.7656 2213.1563,274.25 Q2213.1094,273.8906 2212.9219,273.7031 Q2212.5938,273.3281 2211.9844,273.1094 Q2211.375,272.8906 2210.75,272.8906 Q2209.9844,272.8906 2209.3516,273.2188 Q2208.7188,273.5469 2208.2266,274.2969 Q2207.7344,275.0469 2207.7344,276.0781 L2207.7344,277.1719 Q2207.7344,278.4063 2208.625,279.2266 Q2209.5156,280.0469 2211.1094,280.0469 Q2212.0469,280.0469 2212.7031,279.7969 Q2213.0938,279.6406 2213.5156,279.2031 Q2213.7813,278.9375 2213.9297,278.8594 Q2214.0781,278.7813 2214.2813,278.7813 Q2214.6094,278.7813 2214.8672,279.0391 Q2215.125,279.2969 2215.125,279.6406 Q2215.125,279.9844 2214.7813,280.3906 Q2214.2813,280.9688 2213.4844,281.2969 Q2212.4063,281.75 2211.1094,281.75 Q2209.5938,281.75 2208.3906,281.125 Q2207.4063,280.625 2206.7188,279.5547 Q2206.0313,278.4844 2206.0313,277.2031 L2206.0313,276.0469 Q2206.0313,274.7188 2206.6484,273.5703 Q2207.2656,272.4219 2208.3594,271.8047 Q2209.4531,271.1875 2210.6875,271.1875 Q2211.4219,271.1875 2212.0703,271.3516 Q2212.7188,271.5156 2213.2656,271.875 Z "/><text fill="#000000" font-family="sans-serif" font-size="14" font-weight="bold" lengthAdjust="spacingAndGlyphs" textLength="135" x="2224.5" y="281.7285">ExchangeCardView</text></a><!--class soen6441riskgame.views.PhaseView--><a target="_parent" xlink:actuate="onRequest" xlink:href="../soen6441riskgame/views/PhaseView.html" xlink:show="new" xlink:title="soen6441riskgame.views.PhaseView" xlink:type="simple"><rect fill="#FEFECE" filter="url(#f1ielwnsmy1zhi)" height="32" id="soen6441riskgame.views.PhaseView" style="stroke: #A80036; stroke-width: 1.5;" width="108" x="2398" y="260"/><ellipse cx="2413" cy="276" fill="#ADD1B2" rx="11" ry="11" style="stroke: #A80036; stroke-width: 1.0;"/><path d="M2415.7656,271.875 Q2415.9219,271.6563 2416.1094,271.5469 Q2416.2969,271.4375 2416.5156,271.4375 Q2416.8906,271.4375 2417.125,271.6953 Q2417.3594,271.9531 2417.3594,272.5625 L2417.3594,274.0156 Q2417.3594,274.625 2417.125,274.8906 Q2416.8906,275.1563 2416.5156,275.1563 Q2416.1719,275.1563 2415.9688,274.9531 Q2415.7656,274.7656 2415.6563,274.25 Q2415.6094,273.8906 2415.4219,273.7031 Q2415.0938,273.3281 2414.4844,273.1094 Q2413.875,272.8906 2413.25,272.8906 Q2412.4844,272.8906 2411.8516,273.2188 Q2411.2188,273.5469 2410.7266,274.2969 Q2410.2344,275.0469 2410.2344,276.0781 L2410.2344,277.1719 Q2410.2344,278.4063 2411.125,279.2266 Q2412.0156,280.0469 2413.6094,280.0469 Q2414.5469,280.0469 2415.2031,279.7969 Q2415.5938,279.6406 2416.0156,279.2031 Q2416.2813,278.9375 2416.4297,278.8594 Q2416.5781,278.7813 2416.7813,278.7813 Q2417.1094,278.7813 2417.3672,279.0391 Q2417.625,279.2969 2417.625,279.6406 Q2417.625,279.9844 2417.2813,280.3906 Q2416.7813,280.9688 2415.9844,281.2969 Q2414.9063,281.75 2413.6094,281.75 Q2412.0938,281.75 2410.8906,281.125 Q2409.9063,280.625 2409.2188,279.5547 Q2408.5313,278.4844 2408.5313,277.2031 L2408.5313,276.0469 Q2408.5313,274.7188 2409.1484,273.5703 Q2409.7656,272.4219 2410.8594,271.8047 Q2411.9531,271.1875 2413.1875,271.1875 Q2413.9219,271.1875 2414.5703,271.3516 Q2415.2188,271.5156 2415.7656,271.875 Z "/><text fill="#000000" font-family="sans-serif" font-size="14" font-weight="bold" lengthAdjust="spacingAndGlyphs" textLength="76" x="2427" y="281.7285">PhaseView</text></a><!--class soen6441riskgame.views.PlayersWorldDominationView--><a target="_parent" xlink:actuate="onRequest" xlink:href="../soen6441riskgame/views/PlayersWorldDominationView.html" xlink:show="new" xlink:title="soen6441riskgame.views.PlayersWorldDominationView" xlink:type="simple"><rect fill="#FEFECE" filter="url(#f1ielwnsmy1zhi)" height="32" id="soen6441riskgame.views.PlayersWorldDominationView" style="stroke: #A80036; stroke-width: 1.5;" width="236" x="2195" y="352"/><ellipse cx="2210" cy="368" fill="#ADD1B2" rx="11" ry="11" style="stroke: #A80036; stroke-width: 1.0;"/><path d="M2212.7656,363.875 Q2212.9219,363.6563 2213.1094,363.5469 Q2213.2969,363.4375 2213.5156,363.4375 Q2213.8906,363.4375 2214.125,363.6953 Q2214.3594,363.9531 2214.3594,364.5625 L2214.3594,366.0156 Q2214.3594,366.625 2214.125,366.8906 Q2213.8906,367.1563 2213.5156,367.1563 Q2213.1719,367.1563 2212.9688,366.9531 Q2212.7656,366.7656 2212.6563,366.25 Q2212.6094,365.8906 2212.4219,365.7031 Q2212.0938,365.3281 2211.4844,365.1094 Q2210.875,364.8906 2210.25,364.8906 Q2209.4844,364.8906 2208.8516,365.2188 Q2208.2188,365.5469 2207.7266,366.2969 Q2207.2344,367.0469 2207.2344,368.0781 L2207.2344,369.1719 Q2207.2344,370.4063 2208.125,371.2266 Q2209.0156,372.0469 2210.6094,372.0469 Q2211.5469,372.0469 2212.2031,371.7969 Q2212.5938,371.6406 2213.0156,371.2031 Q2213.2813,370.9375 2213.4297,370.8594 Q2213.5781,370.7813 2213.7813,370.7813 Q2214.1094,370.7813 2214.3672,371.0391 Q2214.625,371.2969 2214.625,371.6406 Q2214.625,371.9844 2214.2813,372.3906 Q2213.7813,372.9688 2212.9844,373.2969 Q2211.9063,373.75 2210.6094,373.75 Q2209.0938,373.75 2207.8906,373.125 Q2206.9063,372.625 2206.2188,371.5547 Q2205.5313,370.4844 2205.5313,369.2031 L2205.5313,368.0469 Q2205.5313,366.7188 2206.1484,365.5703 Q2206.7656,364.4219 2207.8594,363.8047 Q2208.9531,363.1875 2210.1875,363.1875 Q2210.9219,363.1875 2211.5703,363.3516 Q2212.2188,363.5156 2212.7656,363.875 Z "/><text fill="#000000" font-family="sans-serif" font-size="14" font-weight="bold" lengthAdjust="spacingAndGlyphs" textLength="204" x="2224" y="373.7285">PlayersWorldDominationView</text></a><!--class soen6441riskgame.views.SeparatedView--><a target="_parent" xlink:actuate="onRequest" xlink:href="../soen6441riskgame/views/SeparatedView.html" xlink:show="new" xlink:title="soen6441riskgame.views.SeparatedView" xlink:type="simple"><rect fill="#FEFECE" filter="url(#f1ielwnsmy1zhi)" height="32" id="soen6441riskgame.views.SeparatedView" style="stroke: #A80036; stroke-width: 1.5;" width="137" x="2466.5" y="352"/><ellipse cx="2481.5" cy="368" fill="#ADD1B2" rx="11" ry="11" style="stroke: #A80036; stroke-width: 1.0;"/><path d="M2484.2656,363.875 Q2484.4219,363.6563 2484.6094,363.5469 Q2484.7969,363.4375 2485.0156,363.4375 Q2485.3906,363.4375 2485.625,363.6953 Q2485.8594,363.9531 2485.8594,364.5625 L2485.8594,366.0156 Q2485.8594,366.625 2485.625,366.8906 Q2485.3906,367.1563 2485.0156,367.1563 Q2484.6719,367.1563 2484.4688,366.9531 Q2484.2656,366.7656 2484.1563,366.25 Q2484.1094,365.8906 2483.9219,365.7031 Q2483.5938,365.3281 2482.9844,365.1094 Q2482.375,364.8906 2481.75,364.8906 Q2480.9844,364.8906 2480.3516,365.2188 Q2479.7188,365.5469 2479.2266,366.2969 Q2478.7344,367.0469 2478.7344,368.0781 L2478.7344,369.1719 Q2478.7344,370.4063 2479.625,371.2266 Q2480.5156,372.0469 2482.1094,372.0469 Q2483.0469,372.0469 2483.7031,371.7969 Q2484.0938,371.6406 2484.5156,371.2031 Q2484.7813,370.9375 2484.9297,370.8594 Q2485.0781,370.7813 2485.2813,370.7813 Q2485.6094,370.7813 2485.8672,371.0391 Q2486.125,371.2969 2486.125,371.6406 Q2486.125,371.9844 2485.7813,372.3906 Q2485.2813,372.9688 2484.4844,373.2969 Q2483.4063,373.75 2482.1094,373.75 Q2480.5938,373.75 2479.3906,373.125 Q2478.4063,372.625 2477.7188,371.5547 Q2477.0313,370.4844 2477.0313,369.2031 L2477.0313,368.0469 Q2477.0313,366.7188 2477.6484,365.5703 Q2478.2656,364.4219 2479.3594,363.8047 Q2480.4531,363.1875 2481.6875,363.1875 Q2482.4219,363.1875 2483.0703,363.3516 Q2483.7188,363.5156 2484.2656,363.875 Z "/><text fill="#000000" font-family="sans-serif" font-size="14" font-weight="bold" lengthAdjust="spacingAndGlyphs" textLength="105" x="2495.5" y="373.7285">SeparatedView</text></a><!--link soen6441riskgame.controllers.GameController to soen6441riskgame.controllers.MapController--><!--link soen6441riskgame.controllers.GameController to soen6441riskgame.controllers.SaveLoadController--><!--link soen6441riskgame.controllers.SaveLoadController to soen6441riskgame.controllers.TournamentController--><!--link soen6441riskgame.enums.CardType to soen6441riskgame.enums.ChangedProperty--><!--link soen6441riskgame.enums.ChangedProperty to soen6441riskgame.enums.CommonCommandArgs--><!--link soen6441riskgame.enums.CardType to soen6441riskgame.enums.ConquestMapPart--><!--link soen6441riskgame.enums.ConquestMapPart to soen6441riskgame.enums.DominationMapPart--><!--link soen6441riskgame.enums.DominationMapPart to soen6441riskgame.enums.GamePhase--><!--link soen6441riskgame.enums.ConquestMapPart to soen6441riskgame.enums.StrategyName--><!--link soen6441riskgame.models.Boundary to soen6441riskgame.models.Card--><!--link soen6441riskgame.models.Card to soen6441riskgame.models.CardSet--><!--link soen6441riskgame.models.CardSet to soen6441riskgame.models.Continent--><!--link soen6441riskgame.models.Boundary to soen6441riskgame.models.Coordinate--><!--link soen6441riskgame.models.Coordinate to soen6441riskgame.models.Country--><!--link soen6441riskgame.models.Country to soen6441riskgame.models.ModelCommands--><!--link soen6441riskgame.models.ModelCommands to soen6441riskgame.models.ModelCommandsPair--><!--link soen6441riskgame.models.Coordinate to soen6441riskgame.models.Player--><!--link soen6441riskgame.models.Player to soen6441riskgame.models.Viewable--><!--link soen6441riskgame.singleton.GameBoard to soen6441riskgame.singleton.GameBoardMap--><!--link soen6441riskgame.singleton.GameBoardMap to soen6441riskgame.singleton.GameBoardPlayer--><!--link soen6441riskgame.singleton.GameBoard to soen6441riskgame.singleton.GameBoardPlaying--><!--link soen6441riskgame.singleton.GameBoardPlaying to soen6441riskgame.singleton.Resettable--><!--link soen6441riskgame.utils.ConsolePrinter to soen6441riskgame.utils.GameHelper--><!--link soen6441riskgame.utils.ConsolePrinter to soen6441riskgame.utils.GraphChecker--><!--link soen6441riskgame.utils.GraphChecker to soen6441riskgame.utils.Parser--><!--link soen6441riskgame.views.ExchangeCardView to soen6441riskgame.views.PhaseView--><!--link soen6441riskgame.views.ExchangeCardView to soen6441riskgame.views.PlayersWorldDominationView--><!--link soen6441riskgame.views.PlayersWorldDominationView to soen6441riskgame.views.SeparatedView--><!--link soen6441riskgame.controllers.MapController to soen6441riskgame.enums.CardType--><!--link soen6441riskgame.enums.CommonCommandArgs to soen6441riskgame.models.Boundary--><!--link soen6441riskgame.controllers.SaveLoadController to soen6441riskgame.singleton.GameBoard--><!--link soen6441riskgame.singleton.GameBoardPlayer to soen6441riskgame.utils.ConsolePrinter--><!--link soen6441riskgame.utils.GameHelper to soen6441riskgame.views.ExchangeCardView--><!--
@startuml

skinparam svgLinkTarget _parent
skinparam linetype ortho
package soen6441riskgame [[../soen6441riskgame/package-summary.html{soen6441riskgame}]] #lightyellow {
}

class "<b><size:14>App</b>" as soen6441riskgame.App  [[../soen6441riskgame/App.html{soen6441riskgame.App}]] {
}

hide soen6441riskgame.App fields
hide soen6441riskgame.App methods

package soen6441riskgame.controllers [[../soen6441riskgame/controllers/package-summary.html{soen6441riskgame.controllers}]] {
}

class "<b><size:14>GameController</b>" as soen6441riskgame.controllers.GameController  [[../soen6441riskgame/controllers/GameController.html{soen6441riskgame.controllers.GameController}]] {
}

hide soen6441riskgame.controllers.GameController fields
hide soen6441riskgame.controllers.GameController methods

class "<b><size:14>MapController</b>" as soen6441riskgame.controllers.MapController  [[../soen6441riskgame/controllers/MapController.html{soen6441riskgame.controllers.MapController}]] {
}

hide soen6441riskgame.controllers.MapController fields
hide soen6441riskgame.controllers.MapController methods

class "<b><size:14>SaveLoadController</b>" as soen6441riskgame.controllers.SaveLoadController  [[../soen6441riskgame/controllers/SaveLoadController.html{soen6441riskgame.controllers.SaveLoadController}]] {
}

hide soen6441riskgame.controllers.SaveLoadController fields
hide soen6441riskgame.controllers.SaveLoadController methods

class "<b><size:14>TournamentController</b>" as soen6441riskgame.controllers.TournamentController  [[../soen6441riskgame/controllers/TournamentController.html{soen6441riskgame.controllers.TournamentController}]] {
}

hide soen6441riskgame.controllers.TournamentController fields
hide soen6441riskgame.controllers.TournamentController methods

package soen6441riskgame.enums [[../soen6441riskgame/enums/package-summary.html{soen6441riskgame.enums}]] {
}

enum "<b><size:14>CardType</b>" as soen6441riskgame.enums.CardType  [[../soen6441riskgame/enums/CardType.html{soen6441riskgame.enums.CardType}]] {
}

hide soen6441riskgame.enums.CardType fields
hide soen6441riskgame.enums.CardType methods

enum "<b><size:14>ChangedProperty</b>" as soen6441riskgame.enums.ChangedProperty  [[../soen6441riskgame/enums/ChangedProperty.html{soen6441riskgame.enums.ChangedProperty}]] {
}

hide soen6441riskgame.enums.ChangedProperty fields
hide soen6441riskgame.enums.ChangedProperty methods

enum "<b><size:14>CommonCommandArgs</b>" as soen6441riskgame.enums.CommonCommandArgs  [[../soen6441riskgame/enums/CommonCommandArgs.html{soen6441riskgame.enums.CommonCommandArgs}]] {
}

hide soen6441riskgame.enums.CommonCommandArgs fields
hide soen6441riskgame.enums.CommonCommandArgs methods

enum "<b><size:14>ConquestMapPart</b>" as soen6441riskgame.enums.ConquestMapPart  [[../soen6441riskgame/enums/ConquestMapPart.html{soen6441riskgame.enums.ConquestMapPart}]] {
}

hide soen6441riskgame.enums.ConquestMapPart fields
hide soen6441riskgame.enums.ConquestMapPart methods

enum "<b><size:14>DominationMapPart</b>" as soen6441riskgame.enums.DominationMapPart  [[../soen6441riskgame/enums/DominationMapPart.html{soen6441riskgame.enums.DominationMapPart}]] {
}

hide soen6441riskgame.enums.DominationMapPart fields
hide soen6441riskgame.enums.DominationMapPart methods

enum "<b><size:14>GamePhase</b>" as soen6441riskgame.enums.GamePhase  [[../soen6441riskgame/enums/GamePhase.html{soen6441riskgame.enums.GamePhase}]] {
}

hide soen6441riskgame.enums.GamePhase fields
hide soen6441riskgame.enums.GamePhase methods

enum "<b><size:14>StrategyName</b>" as soen6441riskgame.enums.StrategyName  [[../soen6441riskgame/enums/StrategyName.html{soen6441riskgame.enums.StrategyName}]] {
}

hide soen6441riskgame.enums.StrategyName fields
hide soen6441riskgame.enums.StrategyName methods

package soen6441riskgame.models [[../soen6441riskgame/models/package-summary.html{soen6441riskgame.models}]] {
}

class "<b><size:14>Boundary</b>" as soen6441riskgame.models.Boundary  [[../soen6441riskgame/models/Boundary.html{soen6441riskgame.models.Boundary}]] {
}

hide soen6441riskgame.models.Boundary fields
hide soen6441riskgame.models.Boundary methods

class "<b><size:14>Card</b>" as soen6441riskgame.models.Card  [[../soen6441riskgame/models/Card.html{soen6441riskgame.models.Card}]] {
}

hide soen6441riskgame.models.Card fields
hide soen6441riskgame.models.Card methods

class "<b><size:14>CardSet</b>" as soen6441riskgame.models.CardSet  [[../soen6441riskgame/models/CardSet.html{soen6441riskgame.models.CardSet}]] {
}

hide soen6441riskgame.models.CardSet fields
hide soen6441riskgame.models.CardSet methods

class "<b><size:14>Continent</b>" as soen6441riskgame.models.Continent  [[../soen6441riskgame/models/Continent.html{soen6441riskgame.models.Continent}]] {
}

hide soen6441riskgame.models.Continent fields
hide soen6441riskgame.models.Continent methods

class "<b><size:14>Coordinate</b>" as soen6441riskgame.models.Coordinate  [[../soen6441riskgame/models/Coordinate.html{soen6441riskgame.models.Coordinate}]] {
}

hide soen6441riskgame.models.Coordinate fields
hide soen6441riskgame.models.Coordinate methods

class "<b><size:14>Country</b>" as soen6441riskgame.models.Country  [[../soen6441riskgame/models/Country.html{soen6441riskgame.models.Country}]] {
}

hide soen6441riskgame.models.Country fields
hide soen6441riskgame.models.Country methods

class "<b><size:14>ModelCommands</b>" as soen6441riskgame.models.ModelCommands  [[../soen6441riskgame/models/ModelCommands.html{soen6441riskgame.models.ModelCommands}]] {
}

hide soen6441riskgame.models.ModelCommands fields
hide soen6441riskgame.models.ModelCommands methods

class "<b><size:14>ModelCommandsPair</b>" as soen6441riskgame.models.ModelCommandsPair  [[../soen6441riskgame/models/ModelCommandsPair.html{soen6441riskgame.models.ModelCommandsPair}]] {
}

hide soen6441riskgame.models.ModelCommandsPair fields
hide soen6441riskgame.models.ModelCommandsPair methods

class "<b><size:14>Player</b>" as soen6441riskgame.models.Player  [[../soen6441riskgame/models/Player.html{soen6441riskgame.models.Player}]] {
}

hide soen6441riskgame.models.Player fields
hide soen6441riskgame.models.Player methods

interface "<b><size:14>Viewable</b>" as soen6441riskgame.models.Viewable  [[../soen6441riskgame/models/Viewable.html{soen6441riskgame.models.Viewable}]] {
}

hide soen6441riskgame.models.Viewable fields
hide soen6441riskgame.models.Viewable methods

package soen6441riskgame.singleton [[../soen6441riskgame/singleton/package-summary.html{soen6441riskgame.singleton}]] {
}

class "<b><size:14>GameBoard</b>" as soen6441riskgame.singleton.GameBoard  [[../soen6441riskgame/singleton/GameBoard.html{soen6441riskgame.singleton.GameBoard}]] {
}

hide soen6441riskgame.singleton.GameBoard fields
hide soen6441riskgame.singleton.GameBoard methods

class "<b><size:14>GameBoardMap</b>" as soen6441riskgame.singleton.GameBoardMap  [[../soen6441riskgame/singleton/GameBoardMap.html{soen6441riskgame.singleton.GameBoardMap}]] {
}

hide soen6441riskgame.singleton.GameBoardMap fields
hide soen6441riskgame.singleton.GameBoardMap methods

class "<b><size:14>GameBoardPlayer</b>" as soen6441riskgame.singleton.GameBoardPlayer  [[../soen6441riskgame/singleton/GameBoardPlayer.html{soen6441riskgame.singleton.GameBoardPlayer}]] {
}

hide soen6441riskgame.singleton.GameBoardPlayer fields
hide soen6441riskgame.singleton.GameBoardPlayer methods

class "<b><size:14>GameBoardPlaying</b>" as soen6441riskgame.singleton.GameBoardPlaying  [[../soen6441riskgame/singleton/GameBoardPlaying.html{soen6441riskgame.singleton.GameBoardPlaying}]] {
}

hide soen6441riskgame.singleton.GameBoardPlaying fields
hide soen6441riskgame.singleton.GameBoardPlaying methods

interface "<b><size:14>Resettable</b>" as soen6441riskgame.singleton.Resettable  [[../soen6441riskgame/singleton/Resettable.html{soen6441riskgame.singleton.Resettable}]] {
}

hide soen6441riskgame.singleton.Resettable fields
hide soen6441riskgame.singleton.Resettable methods

package soen6441riskgame.utils [[../soen6441riskgame/utils/package-summary.html{soen6441riskgame.utils}]] {
}

class "<b><size:14>ConsolePrinter</b>" as soen6441riskgame.utils.ConsolePrinter  [[../soen6441riskgame/utils/ConsolePrinter.html{soen6441riskgame.utils.ConsolePrinter}]] {
}

hide soen6441riskgame.utils.ConsolePrinter fields
hide soen6441riskgame.utils.ConsolePrinter methods

class "<b><size:14>GameHelper</b>" as soen6441riskgame.utils.GameHelper  [[../soen6441riskgame/utils/GameHelper.html{soen6441riskgame.utils.GameHelper}]] {
}

hide soen6441riskgame.utils.GameHelper fields
hide soen6441riskgame.utils.GameHelper methods

class "<b><size:14>GraphChecker</b>" as soen6441riskgame.utils.GraphChecker  [[../soen6441riskgame/utils/GraphChecker.html{soen6441riskgame.utils.GraphChecker}]] {
}

hide soen6441riskgame.utils.GraphChecker fields
hide soen6441riskgame.utils.GraphChecker methods

class "<b><size:14>Parser</b>" as soen6441riskgame.utils.Parser  [[../soen6441riskgame/utils/Parser.html{soen6441riskgame.utils.Parser}]] {
}

hide soen6441riskgame.utils.Parser fields
hide soen6441riskgame.utils.Parser methods

package soen6441riskgame.views [[../soen6441riskgame/views/package-summary.html{soen6441riskgame.views}]] {
}

class "<b><size:14>ExchangeCardView</b>" as soen6441riskgame.views.ExchangeCardView  [[../soen6441riskgame/views/ExchangeCardView.html{soen6441riskgame.views.ExchangeCardView}]] {
}

hide soen6441riskgame.views.ExchangeCardView fields
hide soen6441riskgame.views.ExchangeCardView methods

class "<b><size:14>PhaseView</b>" as soen6441riskgame.views.PhaseView  [[../soen6441riskgame/views/PhaseView.html{soen6441riskgame.views.PhaseView}]] {
}

hide soen6441riskgame.views.PhaseView fields
hide soen6441riskgame.views.PhaseView methods

class "<b><size:14>PlayersWorldDominationView</b>" as soen6441riskgame.views.PlayersWorldDominationView  [[../soen6441riskgame/views/PlayersWorldDominationView.html{soen6441riskgame.views.PlayersWorldDominationView}]] {
}

hide soen6441riskgame.views.PlayersWorldDominationView fields
hide soen6441riskgame.views.PlayersWorldDominationView methods

class "<b><size:14>SeparatedView</b>" as soen6441riskgame.views.SeparatedView  [[../soen6441riskgame/views/SeparatedView.html{soen6441riskgame.views.SeparatedView}]] {
}

hide soen6441riskgame.views.SeparatedView fields
hide soen6441riskgame.views.SeparatedView methods


@enduml

PlantUML version 1.2017.15(Mon Jul 03 12:45:34 EDT 2017)
(GPL source distribution)
Java Runtime: Java(TM) SE Runtime Environment
JVM: Java HotSpot(TM) 64-Bit Server VM
Java Version: 1.8.0_231-b11
Operating System: Windows 10
OS Version: 10.0
Default Encoding: Cp1252
Language: en
Country: US
--></g></svg>