<?xml version="1.0" encoding="UTF-8" standalone="no"?><svg xmlns="http://www.w3.org/2000/svg" xmlns:xlink="http://www.w3.org/1999/xlink" contentScriptType="application/ecmascript" contentStyleType="text/css" height="412px" preserveAspectRatio="none" style="width:2551px;height:412px;" version="1.1" viewBox="0 0 2551 412" width="2551px" zoomAndPan="magnify"><defs><filter height="300%" id="f1ivmr9ja7mjlk" width="300%" x="-1" y="-1"><feGaussianBlur result="blurOut" stdDeviation="2.0"/><feColorMatrix in="blurOut" result="blurOut2" type="matrix" values="0 0 0 0 0 0 0 0 0 0 0 0 0 0 0 0 0 0 .4 0"/><feOffset dx="4.0" dy="4.0" in="blurOut2" result="blurOut3"/><feBlend in="SourceGraphic" in2="blurOut3" mode="normal"/></filter></defs><g><!--cluster soen6441riskgame--><a target="_parent" xlink:actuate="onRequest" xlink:href="../soen6441riskgame/package-summary.html" xlink:show="new" xlink:title="soen6441riskgame" xlink:type="simple"><polygon fill="#FFFFE0" filter="url(#f1ivmr9ja7mjlk)" points="2060,24,2197,24,2204,47.6094,2207,47.6094,2207,108,2060,108,2060,24" style="stroke: #000000; stroke-width: 2.0;"/><line style="stroke: #000000; stroke-width: 2.0;" x1="2060" x2="2204" y1="47.6094" y2="47.6094"/><text fill="#000000" font-family="sans-serif" font-size="14" font-weight="bold" lengthAdjust="spacingAndGlyphs" textLength="131" x="2064" y="40.5332">soen6441riskgame</text></a><!--cluster soen6441riskgame.controllers--><a target="_parent" xlink:actuate="onRequest" xlink:href="../soen6441riskgame/controllers/package-summary.html" xlink:show="new" xlink:title="soen6441riskgame.controllers" xlink:type="simple"><polygon fill="#FFFFFF" filter="url(#f1ivmr9ja7mjlk)" points="22,24,240,24,247,47.6094,449,47.6094,449,200,22,200,22,24" style="stroke: #000000; stroke-width: 2.0;"/><line style="stroke: #000000; stroke-width: 2.0;" x1="22" x2="247" y1="47.6094" y2="47.6094"/><text fill="#000000" font-family="sans-serif" font-size="14" font-weight="bold" lengthAdjust="spacingAndGlyphs" textLength="212" x="26" y="40.5332">soen6441riskgame.controllers</text></a><!--cluster soen6441riskgame.enums--><a target="_parent" xlink:actuate="onRequest" xlink:href="../soen6441riskgame/enums/package-summary.html" xlink:show="new" xlink:title="soen6441riskgame.enums" xlink:type="simple"><polygon fill="#FFFFFF" filter="url(#f1ivmr9ja7mjlk)" points="473,24,661,24,668,47.6094,1023,47.6094,1023,200,473,200,473,24" style="stroke: #000000; stroke-width: 2.0;"/><line style="stroke: #000000; stroke-width: 2.0;" x1="473" x2="668" y1="47.6094" y2="47.6094"/><text fill="#000000" font-family="sans-serif" font-size="14" font-weight="bold" lengthAdjust="spacingAndGlyphs" textLength="182" x="477" y="40.5332">soen6441riskgame.enums</text></a><!--cluster soen6441riskgame.models--><a target="_parent" xlink:actuate="onRequest" xlink:href="../soen6441riskgame/models/package-summary.html" xlink:show="new" xlink:title="soen6441riskgame.models" xlink:type="simple"><polygon fill="#FFFFFF" filter="url(#f1ivmr9ja7mjlk)" points="1047,24,1239,24,1246,47.6094,1715,47.6094,1715,308,1047,308,1047,24" style="stroke: #000000; stroke-width: 2.0;"/><line style="stroke: #000000; stroke-width: 2.0;" x1="1047" x2="1246" y1="47.6094" y2="47.6094"/><text fill="#000000" font-family="sans-serif" font-size="14" font-weight="bold" lengthAdjust="spacingAndGlyphs" textLength="186" x="1051" y="40.5332">soen6441riskgame.models</text></a><!--cluster soen6441riskgame.singleton--><a target="_parent" xlink:actuate="onRequest" xlink:href="../soen6441riskgame/singleton/package-summary.html" xlink:show="new" xlink:title="soen6441riskgame.singleton" xlink:type="simple"><polygon fill="#FFFFFF" filter="url(#f1ivmr9ja7mjlk)" points="505,224,712,224,719,247.6094,1023,247.6094,1023,400,505,400,505,224" style="stroke: #000000; stroke-width: 2.0;"/><line style="stroke: #000000; stroke-width: 2.0;" x1="505" x2="719" y1="247.6094" y2="247.6094"/><text fill="#000000" font-family="sans-serif" font-size="14" font-weight="bold" lengthAdjust="spacingAndGlyphs" textLength="201" x="509" y="240.5332">soen6441riskgame.singleton</text></a><!--cluster soen6441riskgame.utils--><a target="_parent" xlink:actuate="onRequest" xlink:href="../soen6441riskgame/utils/package-summary.html" xlink:show="new" xlink:title="soen6441riskgame.utils" xlink:type="simple"><polygon fill="#FFFFFF" filter="url(#f1ivmr9ja7mjlk)" points="1739,224,1910,224,1917,247.6094,2064,247.6094,2064,400,1739,400,1739,224" style="stroke: #000000; stroke-width: 2.0;"/><line style="stroke: #000000; stroke-width: 2.0;" x1="1739" x2="1917" y1="247.6094" y2="247.6094"/><text fill="#000000" font-family="sans-serif" font-size="14" font-weight="bold" lengthAdjust="spacingAndGlyphs" textLength="165" x="1743" y="240.5332">soen6441riskgame.utils</text></a><!--cluster soen6441riskgame.views--><a target="_parent" xlink:actuate="onRequest" xlink:href="../soen6441riskgame/views/package-summary.html" xlink:show="new" xlink:title="soen6441riskgame.views" xlink:type="simple"><polygon fill="#FFFFFF" filter="url(#f1ivmr9ja7mjlk)" points="2088,224,2270,224,2277,247.6094,2529,247.6094,2529,400,2088,400,2088,224" style="stroke: #000000; stroke-width: 2.0;"/><line style="stroke: #000000; stroke-width: 2.0;" x1="2088" x2="2277" y1="247.6094" y2="247.6094"/><text fill="#000000" font-family="sans-serif" font-size="14" font-weight="bold" lengthAdjust="spacingAndGlyphs" textLength="176" x="2092" y="240.5332">soen6441riskgame.views</text></a><!--class soen6441riskgame.App--><a target="_parent" xlink:actuate="onRequest" xlink:href="../soen6441riskgame/App.html" xlink:show="new" xlink:title="soen6441riskgame.App" xlink:type="simple"><rect fill="#FEFECE" filter="url(#f1ivmr9ja7mjlk)" height="32" id="soen6441riskgame.App" style="stroke: #A80036; stroke-width: 1.5;" width="59" x="2103.5" y="60"/><ellipse cx="2118.5" cy="76" fill="#ADD1B2" rx="11" ry="11" style="stroke: #A80036; stroke-width: 1.0;"/><path d="M2121.2656,71.875 Q2121.4219,71.6563 2121.6094,71.5469 Q2121.7969,71.4375 2122.0156,71.4375 Q2122.3906,71.4375 2122.625,71.6953 Q2122.8594,71.9531 2122.8594,72.5625 L2122.8594,74.0156 Q2122.8594,74.625 2122.625,74.8906 Q2122.3906,75.1563 2122.0156,75.1563 Q2121.6719,75.1563 2121.4688,74.9531 Q2121.2656,74.7656 2121.1563,74.25 Q2121.1094,73.8906 2120.9219,73.7031 Q2120.5938,73.3281 2119.9844,73.1094 Q2119.375,72.8906 2118.75,72.8906 Q2117.9844,72.8906 2117.3516,73.2188 Q2116.7188,73.5469 2116.2266,74.2969 Q2115.7344,75.0469 2115.7344,76.0781 L2115.7344,77.1719 Q2115.7344,78.4063 2116.625,79.2266 Q2117.5156,80.0469 2119.1094,80.0469 Q2120.0469,80.0469 2120.7031,79.7969 Q2121.0938,79.6406 2121.5156,79.2031 Q2121.7813,78.9375 2121.9297,78.8594 Q2122.0781,78.7813 2122.2813,78.7813 Q2122.6094,78.7813 2122.8672,79.0391 Q2123.125,79.2969 2123.125,79.6406 Q2123.125,79.9844 2122.7813,80.3906 Q2122.2813,80.9688 2121.4844,81.2969 Q2120.4063,81.75 2119.1094,81.75 Q2117.5938,81.75 2116.3906,81.125 Q2115.4063,80.625 2114.7188,79.5547 Q2114.0313,78.4844 2114.0313,77.2031 L2114.0313,76.0469 Q2114.0313,74.7188 2114.6484,73.5703 Q2115.2656,72.4219 2116.3594,71.8047 Q2117.4531,71.1875 2118.6875,71.1875 Q2119.4219,71.1875 2120.0703,71.3516 Q2120.7188,71.5156 2121.2656,71.875 Z "/><text fill="#000000" font-family="sans-serif" font-size="14" font-weight="bold" lengthAdjust="spacingAndGlyphs" textLength="27" x="2132.5" y="81.7285">App</text></a><!--class soen6441riskgame.controllers.GameController--><a target="_parent" xlink:actuate="onRequest" xlink:href="../soen6441riskgame/controllers/GameController.html" xlink:show="new" xlink:title="soen6441riskgame.controllers.GameController" xlink:type="simple"><rect fill="#FEFECE" filter="url(#f1ivmr9ja7mjlk)" height="32" id="soen6441riskgame.controllers.GameController" style="stroke: #A80036; stroke-width: 1.5;" width="143" x="69.5" y="60"/><ellipse cx="84.5" cy="76" fill="#ADD1B2" rx="11" ry="11" style="stroke: #A80036; stroke-width: 1.0;"/><path d="M87.2656,71.875 Q87.4219,71.6563 87.6094,71.5469 Q87.7969,71.4375 88.0156,71.4375 Q88.3906,71.4375 88.625,71.6953 Q88.8594,71.9531 88.8594,72.5625 L88.8594,74.0156 Q88.8594,74.625 88.625,74.8906 Q88.3906,75.1563 88.0156,75.1563 Q87.6719,75.1563 87.4688,74.9531 Q87.2656,74.7656 87.1563,74.25 Q87.1094,73.8906 86.9219,73.7031 Q86.5938,73.3281 85.9844,73.1094 Q85.375,72.8906 84.75,72.8906 Q83.9844,72.8906 83.3516,73.2188 Q82.7188,73.5469 82.2266,74.2969 Q81.7344,75.0469 81.7344,76.0781 L81.7344,77.1719 Q81.7344,78.4063 82.625,79.2266 Q83.5156,80.0469 85.1094,80.0469 Q86.0469,80.0469 86.7031,79.7969 Q87.0938,79.6406 87.5156,79.2031 Q87.7813,78.9375 87.9297,78.8594 Q88.0781,78.7813 88.2813,78.7813 Q88.6094,78.7813 88.8672,79.0391 Q89.125,79.2969 89.125,79.6406 Q89.125,79.9844 88.7813,80.3906 Q88.2813,80.9688 87.4844,81.2969 Q86.4063,81.75 85.1094,81.75 Q83.5938,81.75 82.3906,81.125 Q81.4063,80.625 80.7188,79.5547 Q80.0313,78.4844 80.0313,77.2031 L80.0313,76.0469 Q80.0313,74.7188 80.6484,73.5703 Q81.2656,72.4219 82.3594,71.8047 Q83.4531,71.1875 84.6875,71.1875 Q85.4219,71.1875 86.0703,71.3516 Q86.7188,71.5156 87.2656,71.875 Z "/><text fill="#000000" font-family="sans-serif" font-size="14" font-weight="bold" lengthAdjust="spacingAndGlyphs" textLength="111" x="98.5" y="81.7285">GameController</text></a><!--class soen6441riskgame.controllers.MapController--><a target="_parent" xlink:actuate="onRequest" xlink:href="../soen6441riskgame/controllers/MapController.html" xlink:show="new" xlink:title="soen6441riskgame.controllers.MapController" xlink:type="simple"><rect fill="#FEFECE" filter="url(#f1ivmr9ja7mjlk)" height="32" id="soen6441riskgame.controllers.MapController" style="stroke: #A80036; stroke-width: 1.5;" width="133" x="281.5" y="60"/><ellipse cx="296.5" cy="76" fill="#ADD1B2" rx="11" ry="11" style="stroke: #A80036; stroke-width: 1.0;"/><path d="M299.2656,71.875 Q299.4219,71.6563 299.6094,71.5469 Q299.7969,71.4375 300.0156,71.4375 Q300.3906,71.4375 300.625,71.6953 Q300.8594,71.9531 300.8594,72.5625 L300.8594,74.0156 Q300.8594,74.625 300.625,74.8906 Q300.3906,75.1563 300.0156,75.1563 Q299.6719,75.1563 299.4688,74.9531 Q299.2656,74.7656 299.1563,74.25 Q299.1094,73.8906 298.9219,73.7031 Q298.5938,73.3281 297.9844,73.1094 Q297.375,72.8906 296.75,72.8906 Q295.9844,72.8906 295.3516,73.2188 Q294.7188,73.5469 294.2266,74.2969 Q293.7344,75.0469 293.7344,76.0781 L293.7344,77.1719 Q293.7344,78.4063 294.625,79.2266 Q295.5156,80.0469 297.1094,80.0469 Q298.0469,80.0469 298.7031,79.7969 Q299.0938,79.6406 299.5156,79.2031 Q299.7813,78.9375 299.9297,78.8594 Q300.0781,78.7813 300.2813,78.7813 Q300.6094,78.7813 300.8672,79.0391 Q301.125,79.2969 301.125,79.6406 Q301.125,79.9844 300.7813,80.3906 Q300.2813,80.9688 299.4844,81.2969 Q298.4063,81.75 297.1094,81.75 Q295.5938,81.75 294.3906,81.125 Q293.4063,80.625 292.7188,79.5547 Q292.0313,78.4844 292.0313,77.2031 L292.0313,76.0469 Q292.0313,74.7188 292.6484,73.5703 Q293.2656,72.4219 294.3594,71.8047 Q295.4531,71.1875 296.6875,71.1875 Q297.4219,71.1875 298.0703,71.3516 Q298.7188,71.5156 299.2656,71.875 Z "/><text fill="#000000" font-family="sans-serif" font-size="14" font-weight="bold" lengthAdjust="spacingAndGlyphs" textLength="101" x="310.5" y="81.7285">MapController</text></a><!--class soen6441riskgame.controllers.SaveLoadController--><a target="_parent" xlink:actuate="onRequest" xlink:href="../soen6441riskgame/controllers/SaveLoadController.html" xlink:show="new" xlink:title="soen6441riskgame.controllers.SaveLoadController" xlink:type="simple"><rect fill="#FEFECE" filter="url(#f1ivmr9ja7mjlk)" height="32" id="soen6441riskgame.controllers.SaveLoadController" style="stroke: #A80036; stroke-width: 1.5;" width="172" x="38" y="152"/><ellipse cx="53" cy="168" fill="#ADD1B2" rx="11" ry="11" style="stroke: #A80036; stroke-width: 1.0;"/><path d="M55.7656,163.875 Q55.9219,163.6563 56.1094,163.5469 Q56.2969,163.4375 56.5156,163.4375 Q56.8906,163.4375 57.125,163.6953 Q57.3594,163.9531 57.3594,164.5625 L57.3594,166.0156 Q57.3594,166.625 57.125,166.8906 Q56.8906,167.1563 56.5156,167.1563 Q56.1719,167.1563 55.9688,166.9531 Q55.7656,166.7656 55.6563,166.25 Q55.6094,165.8906 55.4219,165.7031 Q55.0938,165.3281 54.4844,165.1094 Q53.875,164.8906 53.25,164.8906 Q52.4844,164.8906 51.8516,165.2188 Q51.2188,165.5469 50.7266,166.2969 Q50.2344,167.0469 50.2344,168.0781 L50.2344,169.1719 Q50.2344,170.4063 51.125,171.2266 Q52.0156,172.0469 53.6094,172.0469 Q54.5469,172.0469 55.2031,171.7969 Q55.5938,171.6406 56.0156,171.2031 Q56.2813,170.9375 56.4297,170.8594 Q56.5781,170.7813 56.7813,170.7813 Q57.1094,170.7813 57.3672,171.0391 Q57.625,171.2969 57.625,171.6406 Q57.625,171.9844 57.2813,172.3906 Q56.7813,172.9688 55.9844,173.2969 Q54.9063,173.75 53.6094,173.75 Q52.0938,173.75 50.8906,173.125 Q49.9063,172.625 49.2188,171.5547 Q48.5313,170.4844 48.5313,169.2031 L48.5313,168.0469 Q48.5313,166.7188 49.1484,165.5703 Q49.7656,164.4219 50.8594,163.8047 Q51.9531,163.1875 53.1875,163.1875 Q53.9219,163.1875 54.5703,163.3516 Q55.2188,163.5156 55.7656,163.875 Z "/><text fill="#000000" font-family="sans-serif" font-size="14" font-weight="bold" lengthAdjust="spacingAndGlyphs" textLength="140" x="67" y="173.7285">SaveLoadController</text></a><!--class soen6441riskgame.controllers.TournamentController--><a target="_parent" xlink:actuate="onRequest" xlink:href="../soen6441riskgame/controllers/TournamentController.html" xlink:show="new" xlink:title="soen6441riskgame.controllers.TournamentController" xlink:type="simple"><rect fill="#FEFECE" filter="url(#f1ivmr9ja7mjlk)" height="32" id="soen6441riskgame.controllers.TournamentController" style="stroke: #A80036; stroke-width: 1.5;" width="187" x="245.5" y="152"/><ellipse cx="260.5" cy="168" fill="#ADD1B2" rx="11" ry="11" style="stroke: #A80036; stroke-width: 1.0;"/><path d="M263.2656,163.875 Q263.4219,163.6563 263.6094,163.5469 Q263.7969,163.4375 264.0156,163.4375 Q264.3906,163.4375 264.625,163.6953 Q264.8594,163.9531 264.8594,164.5625 L264.8594,166.0156 Q264.8594,166.625 264.625,166.8906 Q264.3906,167.1563 264.0156,167.1563 Q263.6719,167.1563 263.4688,166.9531 Q263.2656,166.7656 263.1563,166.25 Q263.1094,165.8906 262.9219,165.7031 Q262.5938,165.3281 261.9844,165.1094 Q261.375,164.8906 260.75,164.8906 Q259.9844,164.8906 259.3516,165.2188 Q258.7188,165.5469 258.2266,166.2969 Q257.7344,167.0469 257.7344,168.0781 L257.7344,169.1719 Q257.7344,170.4063 258.625,171.2266 Q259.5156,172.0469 261.1094,172.0469 Q262.0469,172.0469 262.7031,171.7969 Q263.0938,171.6406 263.5156,171.2031 Q263.7813,170.9375 263.9297,170.8594 Q264.0781,170.7813 264.2813,170.7813 Q264.6094,170.7813 264.8672,171.0391 Q265.125,171.2969 265.125,171.6406 Q265.125,171.9844 264.7813,172.3906 Q264.2813,172.9688 263.4844,173.2969 Q262.4063,173.75 261.1094,173.75 Q259.5938,173.75 258.3906,173.125 Q257.4063,172.625 256.7188,171.5547 Q256.0313,170.4844 256.0313,169.2031 L256.0313,168.0469 Q256.0313,166.7188 256.6484,165.5703 Q257.2656,164.4219 258.3594,163.8047 Q259.4531,163.1875 260.6875,163.1875 Q261.4219,163.1875 262.0703,163.3516 Q262.7188,163.5156 263.2656,163.875 Z "/><text fill="#000000" font-family="sans-serif" font-size="14" font-weight="bold" lengthAdjust="spacingAndGlyphs" textLength="155" x="274.5" y="173.7285">TournamentController</text></a><!--class soen6441riskgame.enums.CardType--><a target="_parent" xlink:actuate="onRequest" xlink:href="../soen6441riskgame/enums/CardType.html" xlink:show="new" xlink:title="soen6441riskgame.enums.CardType" xlink:type="simple"><rect fill="#FEFECE" filter="url(#f1ivmr9ja7mjlk)" height="32" id="soen6441riskgame.enums.CardType" style="stroke: #A80036; stroke-width: 1.5;" width="98" x="489" y="60"/><ellipse cx="504" cy="76" fill="#EB937F" rx="11" ry="11" style="stroke: #A80036; stroke-width: 1.0;"/><path d="M502.8594,76.7969 L502.8594,79.2969 L507.1875,79.2969 L507.1875,78.375 Q507.1875,77.7656 507.4297,77.5 Q507.6719,77.2344 508.0469,77.2344 Q508.4219,77.2344 508.6563,77.5 Q508.8906,77.7656 508.8906,78.375 L508.8906,81 L500.8906,81 Q500.2656,81 500.0078,80.7656 Q499.75,80.5313 499.75,80.1406 Q499.75,79.7656 500.0156,79.5313 Q500.2813,79.2969 500.8906,79.2969 L501.1563,79.2969 L501.1563,72.6406 L500.8906,72.6406 Q500.2656,72.6406 500.0078,72.4063 Q499.75,72.1719 499.75,71.7813 Q499.75,71.4063 500.0078,71.1719 Q500.2656,70.9375 500.8906,70.9375 L508.5156,70.9375 L508.5156,73.5313 Q508.5156,74.1406 508.2891,74.3984 Q508.0625,74.6563 507.6719,74.6563 Q507.2969,74.6563 507.0625,74.3984 Q506.8281,74.1406 506.8281,73.5313 L506.8281,72.6406 L502.8594,72.6406 L502.8594,75.0938 L504.3438,75.0938 Q504.3438,74.4375 504.4688,74.25 Q504.7344,73.8438 505.2031,73.8438 Q505.5781,73.8438 505.8125,74.1016 Q506.0469,74.3594 506.0469,74.9688 L506.0469,76.9375 Q506.0469,77.4844 505.9219,77.6719 Q505.6563,78.0625 505.2031,78.0625 Q504.7344,78.0625 504.4688,77.6563 Q504.3438,77.4688 504.3438,76.7969 L502.8594,76.7969 Z "/><text fill="#000000" font-family="sans-serif" font-size="14" font-weight="bold" lengthAdjust="spacingAndGlyphs" textLength="66" x="518" y="81.7285">CardType</text></a><!--class soen6441riskgame.enums.ChangedProperty--><a target="_parent" xlink:actuate="onRequest" xlink:href="../soen6441riskgame/enums/ChangedProperty.html" xlink:show="new" xlink:title="soen6441riskgame.enums.ChangedProperty" xlink:type="simple"><rect fill="#FEFECE" filter="url(#f1ivmr9ja7mjlk)" height="32" id="soen6441riskgame.enums.ChangedProperty" style="stroke: #A80036; stroke-width: 1.5;" width="155" x="622.5" y="60"/><ellipse cx="637.5" cy="76" fill="#EB937F" rx="11" ry="11" style="stroke: #A80036; stroke-width: 1.0;"/><path d="M636.3594,76.7969 L636.3594,79.2969 L640.6875,79.2969 L640.6875,78.375 Q640.6875,77.7656 640.9297,77.5 Q641.1719,77.2344 641.5469,77.2344 Q641.9219,77.2344 642.1563,77.5 Q642.3906,77.7656 642.3906,78.375 L642.3906,81 L634.3906,81 Q633.7656,81 633.5078,80.7656 Q633.25,80.5313 633.25,80.1406 Q633.25,79.7656 633.5156,79.5313 Q633.7813,79.2969 634.3906,79.2969 L634.6563,79.2969 L634.6563,72.6406 L634.3906,72.6406 Q633.7656,72.6406 633.5078,72.4063 Q633.25,72.1719 633.25,71.7813 Q633.25,71.4063 633.5078,71.1719 Q633.7656,70.9375 634.3906,70.9375 L642.0156,70.9375 L642.0156,73.5313 Q642.0156,74.1406 641.7891,74.3984 Q641.5625,74.6563 641.1719,74.6563 Q640.7969,74.6563 640.5625,74.3984 Q640.3281,74.1406 640.3281,73.5313 L640.3281,72.6406 L636.3594,72.6406 L636.3594,75.0938 L637.8438,75.0938 Q637.8438,74.4375 637.9688,74.25 Q638.2344,73.8438 638.7031,73.8438 Q639.0781,73.8438 639.3125,74.1016 Q639.5469,74.3594 639.5469,74.9688 L639.5469,76.9375 Q639.5469,77.4844 639.4219,77.6719 Q639.1563,78.0625 638.7031,78.0625 Q638.2344,78.0625 637.9688,77.6563 Q637.8438,77.4688 637.8438,76.7969 L636.3594,76.7969 Z "/><text fill="#000000" font-family="sans-serif" font-size="14" font-weight="bold" lengthAdjust="spacingAndGlyphs" textLength="123" x="651.5" y="81.7285">ChangedProperty</text></a><!--class soen6441riskgame.enums.CommonCommandArgs--><a target="_parent" xlink:actuate="onRequest" xlink:href="../soen6441riskgame/enums/CommonCommandArgs.html" xlink:show="new" xlink:title="soen6441riskgame.enums.CommonCommandArgs" xlink:type="simple"><rect fill="#FEFECE" filter="url(#f1ivmr9ja7mjlk)" height="32" id="soen6441riskgame.enums.CommonCommandArgs" style="stroke: #A80036; stroke-width: 1.5;" width="194" x="813" y="60"/><ellipse cx="828" cy="76" fill="#EB937F" rx="11" ry="11" style="stroke: #A80036; stroke-width: 1.0;"/><path d="M826.8594,76.7969 L826.8594,79.2969 L831.1875,79.2969 L831.1875,78.375 Q831.1875,77.7656 831.4297,77.5 Q831.6719,77.2344 832.0469,77.2344 Q832.4219,77.2344 832.6563,77.5 Q832.8906,77.7656 832.8906,78.375 L832.8906,81 L824.8906,81 Q824.2656,81 824.0078,80.7656 Q823.75,80.5313 823.75,80.1406 Q823.75,79.7656 824.0156,79.5313 Q824.2813,79.2969 824.8906,79.2969 L825.1563,79.2969 L825.1563,72.6406 L824.8906,72.6406 Q824.2656,72.6406 824.0078,72.4063 Q823.75,72.1719 823.75,71.7813 Q823.75,71.4063 824.0078,71.1719 Q824.2656,70.9375 824.8906,70.9375 L832.5156,70.9375 L832.5156,73.5313 Q832.5156,74.1406 832.2891,74.3984 Q832.0625,74.6563 831.6719,74.6563 Q831.2969,74.6563 831.0625,74.3984 Q830.8281,74.1406 830.8281,73.5313 L830.8281,72.6406 L826.8594,72.6406 L826.8594,75.0938 L828.3438,75.0938 Q828.3438,74.4375 828.4688,74.25 Q828.7344,73.8438 829.2031,73.8438 Q829.5781,73.8438 829.8125,74.1016 Q830.0469,74.3594 830.0469,74.9688 L830.0469,76.9375 Q830.0469,77.4844 829.9219,77.6719 Q829.6563,78.0625 829.2031,78.0625 Q828.7344,78.0625 828.4688,77.6563 Q828.3438,77.4688 828.3438,76.7969 L826.8594,76.7969 Z "/><text fill="#000000" font-family="sans-serif" font-size="14" font-weight="bold" lengthAdjust="spacingAndGlyphs" textLength="162" x="842" y="81.7285">CommonCommandArgs</text></a><!--class soen6441riskgame.enums.GamePhase--><a target="_parent" xlink:actuate="onRequest" xlink:href="../soen6441riskgame/enums/GamePhase.html" xlink:show="new" xlink:title="soen6441riskgame.enums.GamePhase" xlink:type="simple"><rect fill="#FEFECE" filter="url(#f1ivmr9ja7mjlk)" height="32" id="soen6441riskgame.enums.GamePhase" style="stroke: #A80036; stroke-width: 1.5;" width="115" x="489.5" y="152"/><ellipse cx="504.5" cy="168" fill="#EB937F" rx="11" ry="11" style="stroke: #A80036; stroke-width: 1.0;"/><path d="M503.3594,168.7969 L503.3594,171.2969 L507.6875,171.2969 L507.6875,170.375 Q507.6875,169.7656 507.9297,169.5 Q508.1719,169.2344 508.5469,169.2344 Q508.9219,169.2344 509.1563,169.5 Q509.3906,169.7656 509.3906,170.375 L509.3906,173 L501.3906,173 Q500.7656,173 500.5078,172.7656 Q500.25,172.5313 500.25,172.1406 Q500.25,171.7656 500.5156,171.5313 Q500.7813,171.2969 501.3906,171.2969 L501.6563,171.2969 L501.6563,164.6406 L501.3906,164.6406 Q500.7656,164.6406 500.5078,164.4063 Q500.25,164.1719 500.25,163.7813 Q500.25,163.4063 500.5078,163.1719 Q500.7656,162.9375 501.3906,162.9375 L509.0156,162.9375 L509.0156,165.5313 Q509.0156,166.1406 508.7891,166.3984 Q508.5625,166.6563 508.1719,166.6563 Q507.7969,166.6563 507.5625,166.3984 Q507.3281,166.1406 507.3281,165.5313 L507.3281,164.6406 L503.3594,164.6406 L503.3594,167.0938 L504.8438,167.0938 Q504.8438,166.4375 504.9688,166.25 Q505.2344,165.8438 505.7031,165.8438 Q506.0781,165.8438 506.3125,166.1016 Q506.5469,166.3594 506.5469,166.9688 L506.5469,168.9375 Q506.5469,169.4844 506.4219,169.6719 Q506.1563,170.0625 505.7031,170.0625 Q505.2344,170.0625 504.9688,169.6563 Q504.8438,169.4688 504.8438,168.7969 L503.3594,168.7969 Z "/><text fill="#000000" font-family="sans-serif" font-size="14" font-weight="bold" lengthAdjust="spacingAndGlyphs" textLength="83" x="518.5" y="173.7285">GamePhase</text></a><!--class soen6441riskgame.enums.MapPart--><a target="_parent" xlink:actuate="onRequest" xlink:href="../soen6441riskgame/enums/MapPart.html" xlink:show="new" xlink:title="soen6441riskgame.enums.MapPart" xlink:type="simple"><rect fill="#FEFECE" filter="url(#f1ivmr9ja7mjlk)" height="32" id="soen6441riskgame.enums.MapPart" style="stroke: #A80036; stroke-width: 1.5;" width="90" x="640" y="152"/><ellipse cx="655" cy="168" fill="#EB937F" rx="11" ry="11" style="stroke: #A80036; stroke-width: 1.0;"/><path d="M653.8594,168.7969 L653.8594,171.2969 L658.1875,171.2969 L658.1875,170.375 Q658.1875,169.7656 658.4297,169.5 Q658.6719,169.2344 659.0469,169.2344 Q659.4219,169.2344 659.6563,169.5 Q659.8906,169.7656 659.8906,170.375 L659.8906,173 L651.8906,173 Q651.2656,173 651.0078,172.7656 Q650.75,172.5313 650.75,172.1406 Q650.75,171.7656 651.0156,171.5313 Q651.2813,171.2969 651.8906,171.2969 L652.1563,171.2969 L652.1563,164.6406 L651.8906,164.6406 Q651.2656,164.6406 651.0078,164.4063 Q650.75,164.1719 650.75,163.7813 Q650.75,163.4063 651.0078,163.1719 Q651.2656,162.9375 651.8906,162.9375 L659.5156,162.9375 L659.5156,165.5313 Q659.5156,166.1406 659.2891,166.3984 Q659.0625,166.6563 658.6719,166.6563 Q658.2969,166.6563 658.0625,166.3984 Q657.8281,166.1406 657.8281,165.5313 L657.8281,164.6406 L653.8594,164.6406 L653.8594,167.0938 L655.3438,167.0938 Q655.3438,166.4375 655.4688,166.25 Q655.7344,165.8438 656.2031,165.8438 Q656.5781,165.8438 656.8125,166.1016 Q657.0469,166.3594 657.0469,166.9688 L657.0469,168.9375 Q657.0469,169.4844 656.9219,169.6719 Q656.6563,170.0625 656.2031,170.0625 Q655.7344,170.0625 655.4688,169.6563 Q655.3438,169.4688 655.3438,168.7969 L653.8594,168.7969 Z "/><text fill="#000000" font-family="sans-serif" font-size="14" font-weight="bold" lengthAdjust="spacingAndGlyphs" textLength="58" x="669" y="173.7285">MapPart</text></a><!--class soen6441riskgame.enums.StrategyName--><a target="_parent" xlink:actuate="onRequest" xlink:href="../soen6441riskgame/enums/StrategyName.html" xlink:show="new" xlink:title="soen6441riskgame.enums.StrategyName" xlink:type="simple"><rect fill="#FEFECE" filter="url(#f1ivmr9ja7mjlk)" height="32" id="soen6441riskgame.enums.StrategyName" style="stroke: #A80036; stroke-width: 1.5;" width="129" x="765.5" y="152"/><ellipse cx="780.5" cy="168" fill="#EB937F" rx="11" ry="11" style="stroke: #A80036; stroke-width: 1.0;"/><path d="M779.3594,168.7969 L779.3594,171.2969 L783.6875,171.2969 L783.6875,170.375 Q783.6875,169.7656 783.9297,169.5 Q784.1719,169.2344 784.5469,169.2344 Q784.9219,169.2344 785.1563,169.5 Q785.3906,169.7656 785.3906,170.375 L785.3906,173 L777.3906,173 Q776.7656,173 776.5078,172.7656 Q776.25,172.5313 776.25,172.1406 Q776.25,171.7656 776.5156,171.5313 Q776.7813,171.2969 777.3906,171.2969 L777.6563,171.2969 L777.6563,164.6406 L777.3906,164.6406 Q776.7656,164.6406 776.5078,164.4063 Q776.25,164.1719 776.25,163.7813 Q776.25,163.4063 776.5078,163.1719 Q776.7656,162.9375 777.3906,162.9375 L785.0156,162.9375 L785.0156,165.5313 Q785.0156,166.1406 784.7891,166.3984 Q784.5625,166.6563 784.1719,166.6563 Q783.7969,166.6563 783.5625,166.3984 Q783.3281,166.1406 783.3281,165.5313 L783.3281,164.6406 L779.3594,164.6406 L779.3594,167.0938 L780.8438,167.0938 Q780.8438,166.4375 780.9688,166.25 Q781.2344,165.8438 781.7031,165.8438 Q782.0781,165.8438 782.3125,166.1016 Q782.5469,166.3594 782.5469,166.9688 L782.5469,168.9375 Q782.5469,169.4844 782.4219,169.6719 Q782.1563,170.0625 781.7031,170.0625 Q781.2344,170.0625 780.9688,169.6563 Q780.8438,169.4688 780.8438,168.7969 L779.3594,168.7969 Z "/><text fill="#000000" font-family="sans-serif" font-size="14" font-weight="bold" lengthAdjust="spacingAndGlyphs" textLength="97" x="794.5" y="173.7285">StrategyName</text></a><!--class soen6441riskgame.models.Boundary--><a target="_parent" xlink:actuate="onRequest" xlink:href="../soen6441riskgame/models/Boundary.html" xlink:show="new" xlink:title="soen6441riskgame.models.Boundary" xlink:type="simple"><rect fill="#FEFECE" filter="url(#f1ivmr9ja7mjlk)" height="32" id="soen6441riskgame.models.Boundary" style="stroke: #A80036; stroke-width: 1.5;" width="99" x="1063.5" y="60"/><ellipse cx="1078.5" cy="76" fill="#ADD1B2" rx="11" ry="11" style="stroke: #A80036; stroke-width: 1.0;"/><path d="M1081.2656,71.875 Q1081.4219,71.6563 1081.6094,71.5469 Q1081.7969,71.4375 1082.0156,71.4375 Q1082.3906,71.4375 1082.625,71.6953 Q1082.8594,71.9531 1082.8594,72.5625 L1082.8594,74.0156 Q1082.8594,74.625 1082.625,74.8906 Q1082.3906,75.1563 1082.0156,75.1563 Q1081.6719,75.1563 1081.4688,74.9531 Q1081.2656,74.7656 1081.1563,74.25 Q1081.1094,73.8906 1080.9219,73.7031 Q1080.5938,73.3281 1079.9844,73.1094 Q1079.375,72.8906 1078.75,72.8906 Q1077.9844,72.8906 1077.3516,73.2188 Q1076.7188,73.5469 1076.2266,74.2969 Q1075.7344,75.0469 1075.7344,76.0781 L1075.7344,77.1719 Q1075.7344,78.4063 1076.625,79.2266 Q1077.5156,80.0469 1079.1094,80.0469 Q1080.0469,80.0469 1080.7031,79.7969 Q1081.0938,79.6406 1081.5156,79.2031 Q1081.7813,78.9375 1081.9297,78.8594 Q1082.0781,78.7813 1082.2813,78.7813 Q1082.6094,78.7813 1082.8672,79.0391 Q1083.125,79.2969 1083.125,79.6406 Q1083.125,79.9844 1082.7813,80.3906 Q1082.2813,80.9688 1081.4844,81.2969 Q1080.4063,81.75 1079.1094,81.75 Q1077.5938,81.75 1076.3906,81.125 Q1075.4063,80.625 1074.7188,79.5547 Q1074.0313,78.4844 1074.0313,77.2031 L1074.0313,76.0469 Q1074.0313,74.7188 1074.6484,73.5703 Q1075.2656,72.4219 1076.3594,71.8047 Q1077.4531,71.1875 1078.6875,71.1875 Q1079.4219,71.1875 1080.0703,71.3516 Q1080.7188,71.5156 1081.2656,71.875 Z "/><text fill="#000000" font-family="sans-serif" font-size="14" font-weight="bold" lengthAdjust="spacingAndGlyphs" textLength="67" x="1092.5" y="81.7285">Boundary</text></a><!--class soen6441riskgame.models.Card--><a target="_parent" xlink:actuate="onRequest" xlink:href="../soen6441riskgame/models/Card.html" xlink:show="new" xlink:title="soen6441riskgame.models.Card" xlink:type="simple"><rect fill="#FEFECE" filter="url(#f1ivmr9ja7mjlk)" height="32" id="soen6441riskgame.models.Card" style="stroke: #A80036; stroke-width: 1.5;" width="65" x="1197.5" y="60"/><ellipse cx="1212.5" cy="76" fill="#ADD1B2" rx="11" ry="11" style="stroke: #A80036; stroke-width: 1.0;"/><path d="M1215.2656,71.875 Q1215.4219,71.6563 1215.6094,71.5469 Q1215.7969,71.4375 1216.0156,71.4375 Q1216.3906,71.4375 1216.625,71.6953 Q1216.8594,71.9531 1216.8594,72.5625 L1216.8594,74.0156 Q1216.8594,74.625 1216.625,74.8906 Q1216.3906,75.1563 1216.0156,75.1563 Q1215.6719,75.1563 1215.4688,74.9531 Q1215.2656,74.7656 1215.1563,74.25 Q1215.1094,73.8906 1214.9219,73.7031 Q1214.5938,73.3281 1213.9844,73.1094 Q1213.375,72.8906 1212.75,72.8906 Q1211.9844,72.8906 1211.3516,73.2188 Q1210.7188,73.5469 1210.2266,74.2969 Q1209.7344,75.0469 1209.7344,76.0781 L1209.7344,77.1719 Q1209.7344,78.4063 1210.625,79.2266 Q1211.5156,80.0469 1213.1094,80.0469 Q1214.0469,80.0469 1214.7031,79.7969 Q1215.0938,79.6406 1215.5156,79.2031 Q1215.7813,78.9375 1215.9297,78.8594 Q1216.0781,78.7813 1216.2813,78.7813 Q1216.6094,78.7813 1216.8672,79.0391 Q1217.125,79.2969 1217.125,79.6406 Q1217.125,79.9844 1216.7813,80.3906 Q1216.2813,80.9688 1215.4844,81.2969 Q1214.4063,81.75 1213.1094,81.75 Q1211.5938,81.75 1210.3906,81.125 Q1209.4063,80.625 1208.7188,79.5547 Q1208.0313,78.4844 1208.0313,77.2031 L1208.0313,76.0469 Q1208.0313,74.7188 1208.6484,73.5703 Q1209.2656,72.4219 1210.3594,71.8047 Q1211.4531,71.1875 1212.6875,71.1875 Q1213.4219,71.1875 1214.0703,71.3516 Q1214.7188,71.5156 1215.2656,71.875 Z "/><text fill="#000000" font-family="sans-serif" font-size="14" font-weight="bold" lengthAdjust="spacingAndGlyphs" textLength="33" x="1226.5" y="81.7285">Card</text></a><!--class soen6441riskgame.models.CardSet--><a target="_parent" xlink:actuate="onRequest" xlink:href="../soen6441riskgame/models/CardSet.html" xlink:show="new" xlink:title="soen6441riskgame.models.CardSet" xlink:type="simple"><rect fill="#FEFECE" filter="url(#f1ivmr9ja7mjlk)" height="32" id="soen6441riskgame.models.CardSet" style="stroke: #A80036; stroke-width: 1.5;" width="88" x="1298" y="60"/><ellipse cx="1313" cy="76" fill="#ADD1B2" rx="11" ry="11" style="stroke: #A80036; stroke-width: 1.0;"/><path d="M1315.7656,71.875 Q1315.9219,71.6563 1316.1094,71.5469 Q1316.2969,71.4375 1316.5156,71.4375 Q1316.8906,71.4375 1317.125,71.6953 Q1317.3594,71.9531 1317.3594,72.5625 L1317.3594,74.0156 Q1317.3594,74.625 1317.125,74.8906 Q1316.8906,75.1563 1316.5156,75.1563 Q1316.1719,75.1563 1315.9688,74.9531 Q1315.7656,74.7656 1315.6563,74.25 Q1315.6094,73.8906 1315.4219,73.7031 Q1315.0938,73.3281 1314.4844,73.1094 Q1313.875,72.8906 1313.25,72.8906 Q1312.4844,72.8906 1311.8516,73.2188 Q1311.2188,73.5469 1310.7266,74.2969 Q1310.2344,75.0469 1310.2344,76.0781 L1310.2344,77.1719 Q1310.2344,78.4063 1311.125,79.2266 Q1312.0156,80.0469 1313.6094,80.0469 Q1314.5469,80.0469 1315.2031,79.7969 Q1315.5938,79.6406 1316.0156,79.2031 Q1316.2813,78.9375 1316.4297,78.8594 Q1316.5781,78.7813 1316.7813,78.7813 Q1317.1094,78.7813 1317.3672,79.0391 Q1317.625,79.2969 1317.625,79.6406 Q1317.625,79.9844 1317.2813,80.3906 Q1316.7813,80.9688 1315.9844,81.2969 Q1314.9063,81.75 1313.6094,81.75 Q1312.0938,81.75 1310.8906,81.125 Q1309.9063,80.625 1309.2188,79.5547 Q1308.5313,78.4844 1308.5313,77.2031 L1308.5313,76.0469 Q1308.5313,74.7188 1309.1484,73.5703 Q1309.7656,72.4219 1310.8594,71.8047 Q1311.9531,71.1875 1313.1875,71.1875 Q1313.9219,71.1875 1314.5703,71.3516 Q1315.2188,71.5156 1315.7656,71.875 Z "/><text fill="#000000" font-family="sans-serif" font-size="14" font-weight="bold" lengthAdjust="spacingAndGlyphs" textLength="56" x="1327" y="81.7285">CardSet</text></a><!--class soen6441riskgame.models.Continent--><a target="_parent" xlink:actuate="onRequest" xlink:href="../soen6441riskgame/models/Continent.html" xlink:show="new" xlink:title="soen6441riskgame.models.Continent" xlink:type="simple"><rect fill="#FEFECE" filter="url(#f1ivmr9ja7mjlk)" height="32" id="soen6441riskgame.models.Continent" style="stroke: #A80036; stroke-width: 1.5;" width="101" x="1421.5" y="60"/><ellipse cx="1436.5" cy="76" fill="#ADD1B2" rx="11" ry="11" style="stroke: #A80036; stroke-width: 1.0;"/><path d="M1439.2656,71.875 Q1439.4219,71.6563 1439.6094,71.5469 Q1439.7969,71.4375 1440.0156,71.4375 Q1440.3906,71.4375 1440.625,71.6953 Q1440.8594,71.9531 1440.8594,72.5625 L1440.8594,74.0156 Q1440.8594,74.625 1440.625,74.8906 Q1440.3906,75.1563 1440.0156,75.1563 Q1439.6719,75.1563 1439.4688,74.9531 Q1439.2656,74.7656 1439.1563,74.25 Q1439.1094,73.8906 1438.9219,73.7031 Q1438.5938,73.3281 1437.9844,73.1094 Q1437.375,72.8906 1436.75,72.8906 Q1435.9844,72.8906 1435.3516,73.2188 Q1434.7188,73.5469 1434.2266,74.2969 Q1433.7344,75.0469 1433.7344,76.0781 L1433.7344,77.1719 Q1433.7344,78.4063 1434.625,79.2266 Q1435.5156,80.0469 1437.1094,80.0469 Q1438.0469,80.0469 1438.7031,79.7969 Q1439.0938,79.6406 1439.5156,79.2031 Q1439.7813,78.9375 1439.9297,78.8594 Q1440.0781,78.7813 1440.2813,78.7813 Q1440.6094,78.7813 1440.8672,79.0391 Q1441.125,79.2969 1441.125,79.6406 Q1441.125,79.9844 1440.7813,80.3906 Q1440.2813,80.9688 1439.4844,81.2969 Q1438.4063,81.75 1437.1094,81.75 Q1435.5938,81.75 1434.3906,81.125 Q1433.4063,80.625 1432.7188,79.5547 Q1432.0313,78.4844 1432.0313,77.2031 L1432.0313,76.0469 Q1432.0313,74.7188 1432.6484,73.5703 Q1433.2656,72.4219 1434.3594,71.8047 Q1435.4531,71.1875 1436.6875,71.1875 Q1437.4219,71.1875 1438.0703,71.3516 Q1438.7188,71.5156 1439.2656,71.875 Z "/><text fill="#000000" font-family="sans-serif" font-size="14" font-weight="bold" lengthAdjust="spacingAndGlyphs" textLength="69" x="1450.5" y="81.7285">Continent</text></a><!--class soen6441riskgame.models.Coordinate--><a target="_parent" xlink:actuate="onRequest" xlink:href="../soen6441riskgame/models/Coordinate.html" xlink:show="new" xlink:title="soen6441riskgame.models.Coordinate" xlink:type="simple"><rect fill="#FEFECE" filter="url(#f1ivmr9ja7mjlk)" height="32" id="soen6441riskgame.models.Coordinate" style="stroke: #A80036; stroke-width: 1.5;" width="110" x="1063" y="152"/><ellipse cx="1078" cy="168" fill="#ADD1B2" rx="11" ry="11" style="stroke: #A80036; stroke-width: 1.0;"/><path d="M1080.7656,163.875 Q1080.9219,163.6563 1081.1094,163.5469 Q1081.2969,163.4375 1081.5156,163.4375 Q1081.8906,163.4375 1082.125,163.6953 Q1082.3594,163.9531 1082.3594,164.5625 L1082.3594,166.0156 Q1082.3594,166.625 1082.125,166.8906 Q1081.8906,167.1563 1081.5156,167.1563 Q1081.1719,167.1563 1080.9688,166.9531 Q1080.7656,166.7656 1080.6563,166.25 Q1080.6094,165.8906 1080.4219,165.7031 Q1080.0938,165.3281 1079.4844,165.1094 Q1078.875,164.8906 1078.25,164.8906 Q1077.4844,164.8906 1076.8516,165.2188 Q1076.2188,165.5469 1075.7266,166.2969 Q1075.2344,167.0469 1075.2344,168.0781 L1075.2344,169.1719 Q1075.2344,170.4063 1076.125,171.2266 Q1077.0156,172.0469 1078.6094,172.0469 Q1079.5469,172.0469 1080.2031,171.7969 Q1080.5938,171.6406 1081.0156,171.2031 Q1081.2813,170.9375 1081.4297,170.8594 Q1081.5781,170.7813 1081.7813,170.7813 Q1082.1094,170.7813 1082.3672,171.0391 Q1082.625,171.2969 1082.625,171.6406 Q1082.625,171.9844 1082.2813,172.3906 Q1081.7813,172.9688 1080.9844,173.2969 Q1079.9063,173.75 1078.6094,173.75 Q1077.0938,173.75 1075.8906,173.125 Q1074.9063,172.625 1074.2188,171.5547 Q1073.5313,170.4844 1073.5313,169.2031 L1073.5313,168.0469 Q1073.5313,166.7188 1074.1484,165.5703 Q1074.7656,164.4219 1075.8594,163.8047 Q1076.9531,163.1875 1078.1875,163.1875 Q1078.9219,163.1875 1079.5703,163.3516 Q1080.2188,163.5156 1080.7656,163.875 Z "/><text fill="#000000" font-family="sans-serif" font-size="14" font-weight="bold" lengthAdjust="spacingAndGlyphs" textLength="78" x="1092" y="173.7285">Coordinate</text></a><!--class soen6441riskgame.models.Country--><a target="_parent" xlink:actuate="onRequest" xlink:href="../soen6441riskgame/models/Country.html" xlink:show="new" xlink:title="soen6441riskgame.models.Country" xlink:type="simple"><rect fill="#FEFECE" filter="url(#f1ivmr9ja7mjlk)" height="32" id="soen6441riskgame.models.Country" style="stroke: #A80036; stroke-width: 1.5;" width="87" x="1208.5" y="152"/><ellipse cx="1223.5" cy="168" fill="#ADD1B2" rx="11" ry="11" style="stroke: #A80036; stroke-width: 1.0;"/><path d="M1226.2656,163.875 Q1226.4219,163.6563 1226.6094,163.5469 Q1226.7969,163.4375 1227.0156,163.4375 Q1227.3906,163.4375 1227.625,163.6953 Q1227.8594,163.9531 1227.8594,164.5625 L1227.8594,166.0156 Q1227.8594,166.625 1227.625,166.8906 Q1227.3906,167.1563 1227.0156,167.1563 Q1226.6719,167.1563 1226.4688,166.9531 Q1226.2656,166.7656 1226.1563,166.25 Q1226.1094,165.8906 1225.9219,165.7031 Q1225.5938,165.3281 1224.9844,165.1094 Q1224.375,164.8906 1223.75,164.8906 Q1222.9844,164.8906 1222.3516,165.2188 Q1221.7188,165.5469 1221.2266,166.2969 Q1220.7344,167.0469 1220.7344,168.0781 L1220.7344,169.1719 Q1220.7344,170.4063 1221.625,171.2266 Q1222.5156,172.0469 1224.1094,172.0469 Q1225.0469,172.0469 1225.7031,171.7969 Q1226.0938,171.6406 1226.5156,171.2031 Q1226.7813,170.9375 1226.9297,170.8594 Q1227.0781,170.7813 1227.2813,170.7813 Q1227.6094,170.7813 1227.8672,171.0391 Q1228.125,171.2969 1228.125,171.6406 Q1228.125,171.9844 1227.7813,172.3906 Q1227.2813,172.9688 1226.4844,173.2969 Q1225.4063,173.75 1224.1094,173.75 Q1222.5938,173.75 1221.3906,173.125 Q1220.4063,172.625 1219.7188,171.5547 Q1219.0313,170.4844 1219.0313,169.2031 L1219.0313,168.0469 Q1219.0313,166.7188 1219.6484,165.5703 Q1220.2656,164.4219 1221.3594,163.8047 Q1222.4531,163.1875 1223.6875,163.1875 Q1224.4219,163.1875 1225.0703,163.3516 Q1225.7188,163.5156 1226.2656,163.875 Z "/><text fill="#000000" font-family="sans-serif" font-size="14" font-weight="bold" lengthAdjust="spacingAndGlyphs" textLength="55" x="1237.5" y="173.7285">Country</text></a><!--class soen6441riskgame.models.ModelCommands--><a target="_parent" xlink:actuate="onRequest" xlink:href="../soen6441riskgame/models/ModelCommands.html" xlink:show="new" xlink:title="soen6441riskgame.models.ModelCommands" xlink:type="simple"><rect fill="#FEFECE" filter="url(#f1ivmr9ja7mjlk)" height="32" id="soen6441riskgame.models.ModelCommands" style="stroke: #A80036; stroke-width: 1.5;" width="153" x="1330.5" y="152"/><ellipse cx="1345.5" cy="168" fill="#ADD1B2" rx="11" ry="11" style="stroke: #A80036; stroke-width: 1.0;"/><path d="M1348.2656,163.875 Q1348.4219,163.6563 1348.6094,163.5469 Q1348.7969,163.4375 1349.0156,163.4375 Q1349.3906,163.4375 1349.625,163.6953 Q1349.8594,163.9531 1349.8594,164.5625 L1349.8594,166.0156 Q1349.8594,166.625 1349.625,166.8906 Q1349.3906,167.1563 1349.0156,167.1563 Q1348.6719,167.1563 1348.4688,166.9531 Q1348.2656,166.7656 1348.1563,166.25 Q1348.1094,165.8906 1347.9219,165.7031 Q1347.5938,165.3281 1346.9844,165.1094 Q1346.375,164.8906 1345.75,164.8906 Q1344.9844,164.8906 1344.3516,165.2188 Q1343.7188,165.5469 1343.2266,166.2969 Q1342.7344,167.0469 1342.7344,168.0781 L1342.7344,169.1719 Q1342.7344,170.4063 1343.625,171.2266 Q1344.5156,172.0469 1346.1094,172.0469 Q1347.0469,172.0469 1347.7031,171.7969 Q1348.0938,171.6406 1348.5156,171.2031 Q1348.7813,170.9375 1348.9297,170.8594 Q1349.0781,170.7813 1349.2813,170.7813 Q1349.6094,170.7813 1349.8672,171.0391 Q1350.125,171.2969 1350.125,171.6406 Q1350.125,171.9844 1349.7813,172.3906 Q1349.2813,172.9688 1348.4844,173.2969 Q1347.4063,173.75 1346.1094,173.75 Q1344.5938,173.75 1343.3906,173.125 Q1342.4063,172.625 1341.7188,171.5547 Q1341.0313,170.4844 1341.0313,169.2031 L1341.0313,168.0469 Q1341.0313,166.7188 1341.6484,165.5703 Q1342.2656,164.4219 1343.3594,163.8047 Q1344.4531,163.1875 1345.6875,163.1875 Q1346.4219,163.1875 1347.0703,163.3516 Q1347.7188,163.5156 1348.2656,163.875 Z "/><text fill="#000000" font-family="sans-serif" font-size="14" font-weight="bold" lengthAdjust="spacingAndGlyphs" textLength="121" x="1359.5" y="173.7285">ModelCommands</text></a><!--class soen6441riskgame.models.ModelCommandsPair--><a target="_parent" xlink:actuate="onRequest" xlink:href="../soen6441riskgame/models/ModelCommandsPair.html" xlink:show="new" xlink:title="soen6441riskgame.models.ModelCommandsPair" xlink:type="simple"><rect fill="#FEFECE" filter="url(#f1ivmr9ja7mjlk)" height="32" id="soen6441riskgame.models.ModelCommandsPair" style="stroke: #A80036; stroke-width: 1.5;" width="180" x="1519" y="152"/><ellipse cx="1534" cy="168" fill="#ADD1B2" rx="11" ry="11" style="stroke: #A80036; stroke-width: 1.0;"/><path d="M1536.7656,163.875 Q1536.9219,163.6563 1537.1094,163.5469 Q1537.2969,163.4375 1537.5156,163.4375 Q1537.8906,163.4375 1538.125,163.6953 Q1538.3594,163.9531 1538.3594,164.5625 L1538.3594,166.0156 Q1538.3594,166.625 1538.125,166.8906 Q1537.8906,167.1563 1537.5156,167.1563 Q1537.1719,167.1563 1536.9688,166.9531 Q1536.7656,166.7656 1536.6563,166.25 Q1536.6094,165.8906 1536.4219,165.7031 Q1536.0938,165.3281 1535.4844,165.1094 Q1534.875,164.8906 1534.25,164.8906 Q1533.4844,164.8906 1532.8516,165.2188 Q1532.2188,165.5469 1531.7266,166.2969 Q1531.2344,167.0469 1531.2344,168.0781 L1531.2344,169.1719 Q1531.2344,170.4063 1532.125,171.2266 Q1533.0156,172.0469 1534.6094,172.0469 Q1535.5469,172.0469 1536.2031,171.7969 Q1536.5938,171.6406 1537.0156,171.2031 Q1537.2813,170.9375 1537.4297,170.8594 Q1537.5781,170.7813 1537.7813,170.7813 Q1538.1094,170.7813 1538.3672,171.0391 Q1538.625,171.2969 1538.625,171.6406 Q1538.625,171.9844 1538.2813,172.3906 Q1537.7813,172.9688 1536.9844,173.2969 Q1535.9063,173.75 1534.6094,173.75 Q1533.0938,173.75 1531.8906,173.125 Q1530.9063,172.625 1530.2188,171.5547 Q1529.5313,170.4844 1529.5313,169.2031 L1529.5313,168.0469 Q1529.5313,166.7188 1530.1484,165.5703 Q1530.7656,164.4219 1531.8594,163.8047 Q1532.9531,163.1875 1534.1875,163.1875 Q1534.9219,163.1875 1535.5703,163.3516 Q1536.2188,163.5156 1536.7656,163.875 Z "/><text fill="#000000" font-family="sans-serif" font-size="14" font-weight="bold" lengthAdjust="spacingAndGlyphs" textLength="148" x="1548" y="173.7285">ModelCommandsPair</text></a><!--class soen6441riskgame.models.Player--><a target="_parent" xlink:actuate="onRequest" xlink:href="../soen6441riskgame/models/Player.html" xlink:show="new" xlink:title="soen6441riskgame.models.Player" xlink:type="simple"><rect fill="#FEFECE" filter="url(#f1ivmr9ja7mjlk)" height="32" id="soen6441riskgame.models.Player" style="stroke: #A80036; stroke-width: 1.5;" width="75" x="1080.5" y="260"/><ellipse cx="1095.5" cy="276" fill="#ADD1B2" rx="11" ry="11" style="stroke: #A80036; stroke-width: 1.0;"/><path d="M1098.2656,271.875 Q1098.4219,271.6563 1098.6094,271.5469 Q1098.7969,271.4375 1099.0156,271.4375 Q1099.3906,271.4375 1099.625,271.6953 Q1099.8594,271.9531 1099.8594,272.5625 L1099.8594,274.0156 Q1099.8594,274.625 1099.625,274.8906 Q1099.3906,275.1563 1099.0156,275.1563 Q1098.6719,275.1563 1098.4688,274.9531 Q1098.2656,274.7656 1098.1563,274.25 Q1098.1094,273.8906 1097.9219,273.7031 Q1097.5938,273.3281 1096.9844,273.1094 Q1096.375,272.8906 1095.75,272.8906 Q1094.9844,272.8906 1094.3516,273.2188 Q1093.7188,273.5469 1093.2266,274.2969 Q1092.7344,275.0469 1092.7344,276.0781 L1092.7344,277.1719 Q1092.7344,278.4063 1093.625,279.2266 Q1094.5156,280.0469 1096.1094,280.0469 Q1097.0469,280.0469 1097.7031,279.7969 Q1098.0938,279.6406 1098.5156,279.2031 Q1098.7813,278.9375 1098.9297,278.8594 Q1099.0781,278.7813 1099.2813,278.7813 Q1099.6094,278.7813 1099.8672,279.0391 Q1100.125,279.2969 1100.125,279.6406 Q1100.125,279.9844 1099.7813,280.3906 Q1099.2813,280.9688 1098.4844,281.2969 Q1097.4063,281.75 1096.1094,281.75 Q1094.5938,281.75 1093.3906,281.125 Q1092.4063,280.625 1091.7188,279.5547 Q1091.0313,278.4844 1091.0313,277.2031 L1091.0313,276.0469 Q1091.0313,274.7188 1091.6484,273.5703 Q1092.2656,272.4219 1093.3594,271.8047 Q1094.4531,271.1875 1095.6875,271.1875 Q1096.4219,271.1875 1097.0703,271.3516 Q1097.7188,271.5156 1098.2656,271.875 Z "/><text fill="#000000" font-family="sans-serif" font-size="14" font-weight="bold" lengthAdjust="spacingAndGlyphs" textLength="43" x="1109.5" y="281.7285">Player</text></a><!--class soen6441riskgame.models.Viewable--><a target="_parent" xlink:actuate="onRequest" xlink:href="../soen6441riskgame/models/Viewable.html" xlink:show="new" xlink:title="soen6441riskgame.models.Viewable" xlink:type="simple"><rect fill="#FEFECE" filter="url(#f1ivmr9ja7mjlk)" height="32" id="soen6441riskgame.models.Viewable" style="stroke: #A80036; stroke-width: 1.5;" width="94" x="1191" y="260"/><ellipse cx="1206" cy="276" fill="#B4A7E5" rx="11" ry="11" style="stroke: #A80036; stroke-width: 1.0;"/><path d="M1206.9531,272.6406 L1206.9531,279.2969 L1208.6719,279.2969 Q1209.2813,279.2969 1209.5469,279.5313 Q1209.8125,279.7656 1209.8125,280.1563 Q1209.8125,280.5313 1209.5469,280.7656 Q1209.2813,281 1208.6719,281 L1203.5313,281 Q1202.9219,281 1202.6563,280.7656 Q1202.3906,280.5313 1202.3906,280.1406 Q1202.3906,279.7656 1202.6563,279.5313 Q1202.9219,279.2969 1203.5313,279.2969 L1205.25,279.2969 L1205.25,272.6406 L1203.5313,272.6406 Q1202.9219,272.6406 1202.6563,272.4063 Q1202.3906,272.1719 1202.3906,271.7813 Q1202.3906,271.4063 1202.6563,271.1719 Q1202.9219,270.9375 1203.5313,270.9375 L1208.6719,270.9375 Q1209.2813,270.9375 1209.5469,271.1719 Q1209.8125,271.4063 1209.8125,271.7813 Q1209.8125,272.1719 1209.5469,272.4063 Q1209.2813,272.6406 1208.6719,272.6406 L1206.9531,272.6406 Z "/><text fill="#000000" font-family="sans-serif" font-size="14" font-style="italic" font-weight="bold" lengthAdjust="spacingAndGlyphs" textLength="62" x="1220" y="281.7285">Viewable</text></a><!--class soen6441riskgame.singleton.GameBoard--><a target="_parent" xlink:actuate="onRequest" xlink:href="../soen6441riskgame/singleton/GameBoard.html" xlink:show="new" xlink:title="soen6441riskgame.singleton.GameBoard" xlink:type="simple"><rect fill="#FEFECE" filter="url(#f1ivmr9ja7mjlk)" height="32" id="soen6441riskgame.singleton.GameBoard" style="stroke: #A80036; stroke-width: 1.5;" width="114" x="521" y="260"/><ellipse cx="536" cy="276" fill="#ADD1B2" rx="11" ry="11" style="stroke: #A80036; stroke-width: 1.0;"/><path d="M538.7656,271.875 Q538.9219,271.6563 539.1094,271.5469 Q539.2969,271.4375 539.5156,271.4375 Q539.8906,271.4375 540.125,271.6953 Q540.3594,271.9531 540.3594,272.5625 L540.3594,274.0156 Q540.3594,274.625 540.125,274.8906 Q539.8906,275.1563 539.5156,275.1563 Q539.1719,275.1563 538.9688,274.9531 Q538.7656,274.7656 538.6563,274.25 Q538.6094,273.8906 538.4219,273.7031 Q538.0938,273.3281 537.4844,273.1094 Q536.875,272.8906 536.25,272.8906 Q535.4844,272.8906 534.8516,273.2188 Q534.2188,273.5469 533.7266,274.2969 Q533.2344,275.0469 533.2344,276.0781 L533.2344,277.1719 Q533.2344,278.4063 534.125,279.2266 Q535.0156,280.0469 536.6094,280.0469 Q537.5469,280.0469 538.2031,279.7969 Q538.5938,279.6406 539.0156,279.2031 Q539.2813,278.9375 539.4297,278.8594 Q539.5781,278.7813 539.7813,278.7813 Q540.1094,278.7813 540.3672,279.0391 Q540.625,279.2969 540.625,279.6406 Q540.625,279.9844 540.2813,280.3906 Q539.7813,280.9688 538.9844,281.2969 Q537.9063,281.75 536.6094,281.75 Q535.0938,281.75 533.8906,281.125 Q532.9063,280.625 532.2188,279.5547 Q531.5313,278.4844 531.5313,277.2031 L531.5313,276.0469 Q531.5313,274.7188 532.1484,273.5703 Q532.7656,272.4219 533.8594,271.8047 Q534.9531,271.1875 536.1875,271.1875 Q536.9219,271.1875 537.5703,271.3516 Q538.2188,271.5156 538.7656,271.875 Z "/><text fill="#000000" font-family="sans-serif" font-size="14" font-weight="bold" lengthAdjust="spacingAndGlyphs" textLength="82" x="550" y="281.7285">GameBoard</text></a><!--class soen6441riskgame.singleton.GameBoardMap--><a target="_parent" xlink:actuate="onRequest" xlink:href="../soen6441riskgame/singleton/GameBoardMap.html" xlink:show="new" xlink:title="soen6441riskgame.singleton.GameBoardMap" xlink:type="simple"><rect fill="#FEFECE" filter="url(#f1ivmr9ja7mjlk)" height="32" id="soen6441riskgame.singleton.GameBoardMap" style="stroke: #A80036; stroke-width: 1.5;" width="144" x="670" y="260"/><ellipse cx="685" cy="276" fill="#ADD1B2" rx="11" ry="11" style="stroke: #A80036; stroke-width: 1.0;"/><path d="M687.7656,271.875 Q687.9219,271.6563 688.1094,271.5469 Q688.2969,271.4375 688.5156,271.4375 Q688.8906,271.4375 689.125,271.6953 Q689.3594,271.9531 689.3594,272.5625 L689.3594,274.0156 Q689.3594,274.625 689.125,274.8906 Q688.8906,275.1563 688.5156,275.1563 Q688.1719,275.1563 687.9688,274.9531 Q687.7656,274.7656 687.6563,274.25 Q687.6094,273.8906 687.4219,273.7031 Q687.0938,273.3281 686.4844,273.1094 Q685.875,272.8906 685.25,272.8906 Q684.4844,272.8906 683.8516,273.2188 Q683.2188,273.5469 682.7266,274.2969 Q682.2344,275.0469 682.2344,276.0781 L682.2344,277.1719 Q682.2344,278.4063 683.125,279.2266 Q684.0156,280.0469 685.6094,280.0469 Q686.5469,280.0469 687.2031,279.7969 Q687.5938,279.6406 688.0156,279.2031 Q688.2813,278.9375 688.4297,278.8594 Q688.5781,278.7813 688.7813,278.7813 Q689.1094,278.7813 689.3672,279.0391 Q689.625,279.2969 689.625,279.6406 Q689.625,279.9844 689.2813,280.3906 Q688.7813,280.9688 687.9844,281.2969 Q686.9063,281.75 685.6094,281.75 Q684.0938,281.75 682.8906,281.125 Q681.9063,280.625 681.2188,279.5547 Q680.5313,278.4844 680.5313,277.2031 L680.5313,276.0469 Q680.5313,274.7188 681.1484,273.5703 Q681.7656,272.4219 682.8594,271.8047 Q683.9531,271.1875 685.1875,271.1875 Q685.9219,271.1875 686.5703,271.3516 Q687.2188,271.5156 687.7656,271.875 Z "/><text fill="#000000" font-family="sans-serif" font-size="14" font-weight="bold" lengthAdjust="spacingAndGlyphs" textLength="112" x="699" y="281.7285">GameBoardMap</text></a><!--class soen6441riskgame.singleton.GameBoardPlayer--><a target="_parent" xlink:actuate="onRequest" xlink:href="../soen6441riskgame/singleton/GameBoardPlayer.html" xlink:show="new" xlink:title="soen6441riskgame.singleton.GameBoardPlayer" xlink:type="simple"><rect fill="#FEFECE" filter="url(#f1ivmr9ja7mjlk)" height="32" id="soen6441riskgame.singleton.GameBoardPlayer" style="stroke: #A80036; stroke-width: 1.5;" width="157" x="849.5" y="260"/><ellipse cx="864.5" cy="276" fill="#ADD1B2" rx="11" ry="11" style="stroke: #A80036; stroke-width: 1.0;"/><path d="M867.2656,271.875 Q867.4219,271.6563 867.6094,271.5469 Q867.7969,271.4375 868.0156,271.4375 Q868.3906,271.4375 868.625,271.6953 Q868.8594,271.9531 868.8594,272.5625 L868.8594,274.0156 Q868.8594,274.625 868.625,274.8906 Q868.3906,275.1563 868.0156,275.1563 Q867.6719,275.1563 867.4688,274.9531 Q867.2656,274.7656 867.1563,274.25 Q867.1094,273.8906 866.9219,273.7031 Q866.5938,273.3281 865.9844,273.1094 Q865.375,272.8906 864.75,272.8906 Q863.9844,272.8906 863.3516,273.2188 Q862.7188,273.5469 862.2266,274.2969 Q861.7344,275.0469 861.7344,276.0781 L861.7344,277.1719 Q861.7344,278.4063 862.625,279.2266 Q863.5156,280.0469 865.1094,280.0469 Q866.0469,280.0469 866.7031,279.7969 Q867.0938,279.6406 867.5156,279.2031 Q867.7813,278.9375 867.9297,278.8594 Q868.0781,278.7813 868.2813,278.7813 Q868.6094,278.7813 868.8672,279.0391 Q869.125,279.2969 869.125,279.6406 Q869.125,279.9844 868.7813,280.3906 Q868.2813,280.9688 867.4844,281.2969 Q866.4063,281.75 865.1094,281.75 Q863.5938,281.75 862.3906,281.125 Q861.4063,280.625 860.7188,279.5547 Q860.0313,278.4844 860.0313,277.2031 L860.0313,276.0469 Q860.0313,274.7188 860.6484,273.5703 Q861.2656,272.4219 862.3594,271.8047 Q863.4531,271.1875 864.6875,271.1875 Q865.4219,271.1875 866.0703,271.3516 Q866.7188,271.5156 867.2656,271.875 Z "/><text fill="#000000" font-family="sans-serif" font-size="14" font-weight="bold" lengthAdjust="spacingAndGlyphs" textLength="125" x="878.5" y="281.7285">GameBoardPlayer</text></a><!--class soen6441riskgame.singleton.GameBoardPlaying--><a target="_parent" xlink:actuate="onRequest" xlink:href="../soen6441riskgame/singleton/GameBoardPlaying.html" xlink:show="new" xlink:title="soen6441riskgame.singleton.GameBoardPlaying" xlink:type="simple"><rect fill="#FEFECE" filter="url(#f1ivmr9ja7mjlk)" height="32" id="soen6441riskgame.singleton.GameBoardPlaying" style="stroke: #A80036; stroke-width: 1.5;" width="164" x="521" y="352"/><ellipse cx="536" cy="368" fill="#ADD1B2" rx="11" ry="11" style="stroke: #A80036; stroke-width: 1.0;"/><path d="M538.7656,363.875 Q538.9219,363.6563 539.1094,363.5469 Q539.2969,363.4375 539.5156,363.4375 Q539.8906,363.4375 540.125,363.6953 Q540.3594,363.9531 540.3594,364.5625 L540.3594,366.0156 Q540.3594,366.625 540.125,366.8906 Q539.8906,367.1563 539.5156,367.1563 Q539.1719,367.1563 538.9688,366.9531 Q538.7656,366.7656 538.6563,366.25 Q538.6094,365.8906 538.4219,365.7031 Q538.0938,365.3281 537.4844,365.1094 Q536.875,364.8906 536.25,364.8906 Q535.4844,364.8906 534.8516,365.2188 Q534.2188,365.5469 533.7266,366.2969 Q533.2344,367.0469 533.2344,368.0781 L533.2344,369.1719 Q533.2344,370.4063 534.125,371.2266 Q535.0156,372.0469 536.6094,372.0469 Q537.5469,372.0469 538.2031,371.7969 Q538.5938,371.6406 539.0156,371.2031 Q539.2813,370.9375 539.4297,370.8594 Q539.5781,370.7813 539.7813,370.7813 Q540.1094,370.7813 540.3672,371.0391 Q540.625,371.2969 540.625,371.6406 Q540.625,371.9844 540.2813,372.3906 Q539.7813,372.9688 538.9844,373.2969 Q537.9063,373.75 536.6094,373.75 Q535.0938,373.75 533.8906,373.125 Q532.9063,372.625 532.2188,371.5547 Q531.5313,370.4844 531.5313,369.2031 L531.5313,368.0469 Q531.5313,366.7188 532.1484,365.5703 Q532.7656,364.4219 533.8594,363.8047 Q534.9531,363.1875 536.1875,363.1875 Q536.9219,363.1875 537.5703,363.3516 Q538.2188,363.5156 538.7656,363.875 Z "/><text fill="#000000" font-family="sans-serif" font-size="14" font-weight="bold" lengthAdjust="spacingAndGlyphs" textLength="132" x="550" y="373.7285">GameBoardPlaying</text></a><!--class soen6441riskgame.singleton.Resettable--><a target="_parent" xlink:actuate="onRequest" xlink:href="../soen6441riskgame/singleton/Resettable.html" xlink:show="new" xlink:title="soen6441riskgame.singleton.Resettable" xlink:type="simple"><rect fill="#FEFECE" filter="url(#f1ivmr9ja7mjlk)" height="32" id="soen6441riskgame.singleton.Resettable" style="stroke: #A80036; stroke-width: 1.5;" width="104" x="720" y="352"/><ellipse cx="735" cy="368" fill="#B4A7E5" rx="11" ry="11" style="stroke: #A80036; stroke-width: 1.0;"/><path d="M735.9531,364.6406 L735.9531,371.2969 L737.6719,371.2969 Q738.2813,371.2969 738.5469,371.5313 Q738.8125,371.7656 738.8125,372.1563 Q738.8125,372.5313 738.5469,372.7656 Q738.2813,373 737.6719,373 L732.5313,373 Q731.9219,373 731.6563,372.7656 Q731.3906,372.5313 731.3906,372.1406 Q731.3906,371.7656 731.6563,371.5313 Q731.9219,371.2969 732.5313,371.2969 L734.25,371.2969 L734.25,364.6406 L732.5313,364.6406 Q731.9219,364.6406 731.6563,364.4063 Q731.3906,364.1719 731.3906,363.7813 Q731.3906,363.4063 731.6563,363.1719 Q731.9219,362.9375 732.5313,362.9375 L737.6719,362.9375 Q738.2813,362.9375 738.5469,363.1719 Q738.8125,363.4063 738.8125,363.7813 Q738.8125,364.1719 738.5469,364.4063 Q738.2813,364.6406 737.6719,364.6406 L735.9531,364.6406 Z "/><text fill="#000000" font-family="sans-serif" font-size="14" font-style="italic" font-weight="bold" lengthAdjust="spacingAndGlyphs" textLength="72" x="749" y="373.7285">Resettable</text></a><!--class soen6441riskgame.utils.ConsolePrinter--><a target="_parent" xlink:actuate="onRequest" xlink:href="../soen6441riskgame/utils/ConsolePrinter.html" xlink:show="new" xlink:title="soen6441riskgame.utils.ConsolePrinter" xlink:type="simple"><rect fill="#FEFECE" filter="url(#f1ivmr9ja7mjlk)" height="32" id="soen6441riskgame.utils.ConsolePrinter" style="stroke: #A80036; stroke-width: 1.5;" width="138" x="1755" y="260"/><ellipse cx="1770" cy="276" fill="#ADD1B2" rx="11" ry="11" style="stroke: #A80036; stroke-width: 1.0;"/><path d="M1772.7656,271.875 Q1772.9219,271.6563 1773.1094,271.5469 Q1773.2969,271.4375 1773.5156,271.4375 Q1773.8906,271.4375 1774.125,271.6953 Q1774.3594,271.9531 1774.3594,272.5625 L1774.3594,274.0156 Q1774.3594,274.625 1774.125,274.8906 Q1773.8906,275.1563 1773.5156,275.1563 Q1773.1719,275.1563 1772.9688,274.9531 Q1772.7656,274.7656 1772.6563,274.25 Q1772.6094,273.8906 1772.4219,273.7031 Q1772.0938,273.3281 1771.4844,273.1094 Q1770.875,272.8906 1770.25,272.8906 Q1769.4844,272.8906 1768.8516,273.2188 Q1768.2188,273.5469 1767.7266,274.2969 Q1767.2344,275.0469 1767.2344,276.0781 L1767.2344,277.1719 Q1767.2344,278.4063 1768.125,279.2266 Q1769.0156,280.0469 1770.6094,280.0469 Q1771.5469,280.0469 1772.2031,279.7969 Q1772.5938,279.6406 1773.0156,279.2031 Q1773.2813,278.9375 1773.4297,278.8594 Q1773.5781,278.7813 1773.7813,278.7813 Q1774.1094,278.7813 1774.3672,279.0391 Q1774.625,279.2969 1774.625,279.6406 Q1774.625,279.9844 1774.2813,280.3906 Q1773.7813,280.9688 1772.9844,281.2969 Q1771.9063,281.75 1770.6094,281.75 Q1769.0938,281.75 1767.8906,281.125 Q1766.9063,280.625 1766.2188,279.5547 Q1765.5313,278.4844 1765.5313,277.2031 L1765.5313,276.0469 Q1765.5313,274.7188 1766.1484,273.5703 Q1766.7656,272.4219 1767.8594,271.8047 Q1768.9531,271.1875 1770.1875,271.1875 Q1770.9219,271.1875 1771.5703,271.3516 Q1772.2188,271.5156 1772.7656,271.875 Z "/><text fill="#000000" font-family="sans-serif" font-size="14" font-weight="bold" lengthAdjust="spacingAndGlyphs" textLength="106" x="1784" y="281.7285">ConsolePrinter</text></a><!--class soen6441riskgame.utils.GameHelper--><a target="_parent" xlink:actuate="onRequest" xlink:href="../soen6441riskgame/utils/GameHelper.html" xlink:show="new" xlink:title="soen6441riskgame.utils.GameHelper" xlink:type="simple"><rect fill="#FEFECE" filter="url(#f1ivmr9ja7mjlk)" height="32" id="soen6441riskgame.utils.GameHelper" style="stroke: #A80036; stroke-width: 1.5;" width="119" x="1928.5" y="260"/><ellipse cx="1943.5" cy="276" fill="#ADD1B2" rx="11" ry="11" style="stroke: #A80036; stroke-width: 1.0;"/><path d="M1946.2656,271.875 Q1946.4219,271.6563 1946.6094,271.5469 Q1946.7969,271.4375 1947.0156,271.4375 Q1947.3906,271.4375 1947.625,271.6953 Q1947.8594,271.9531 1947.8594,272.5625 L1947.8594,274.0156 Q1947.8594,274.625 1947.625,274.8906 Q1947.3906,275.1563 1947.0156,275.1563 Q1946.6719,275.1563 1946.4688,274.9531 Q1946.2656,274.7656 1946.1563,274.25 Q1946.1094,273.8906 1945.9219,273.7031 Q1945.5938,273.3281 1944.9844,273.1094 Q1944.375,272.8906 1943.75,272.8906 Q1942.9844,272.8906 1942.3516,273.2188 Q1941.7188,273.5469 1941.2266,274.2969 Q1940.7344,275.0469 1940.7344,276.0781 L1940.7344,277.1719 Q1940.7344,278.4063 1941.625,279.2266 Q1942.5156,280.0469 1944.1094,280.0469 Q1945.0469,280.0469 1945.7031,279.7969 Q1946.0938,279.6406 1946.5156,279.2031 Q1946.7813,278.9375 1946.9297,278.8594 Q1947.0781,278.7813 1947.2813,278.7813 Q1947.6094,278.7813 1947.8672,279.0391 Q1948.125,279.2969 1948.125,279.6406 Q1948.125,279.9844 1947.7813,280.3906 Q1947.2813,280.9688 1946.4844,281.2969 Q1945.4063,281.75 1944.1094,281.75 Q1942.5938,281.75 1941.3906,281.125 Q1940.4063,280.625 1939.7188,279.5547 Q1939.0313,278.4844 1939.0313,277.2031 L1939.0313,276.0469 Q1939.0313,274.7188 1939.6484,273.5703 Q1940.2656,272.4219 1941.3594,271.8047 Q1942.4531,271.1875 1943.6875,271.1875 Q1944.4219,271.1875 1945.0703,271.3516 Q1945.7188,271.5156 1946.2656,271.875 Z "/><text fill="#000000" font-family="sans-serif" font-size="14" font-weight="bold" lengthAdjust="spacingAndGlyphs" textLength="87" x="1957.5" y="281.7285">GameHelper</text></a><!--class soen6441riskgame.utils.GraphChecker--><a target="_parent" xlink:actuate="onRequest" xlink:href="../soen6441riskgame/utils/GraphChecker.html" xlink:show="new" xlink:title="soen6441riskgame.utils.GraphChecker" xlink:type="simple"><rect fill="#FEFECE" filter="url(#f1ivmr9ja7mjlk)" height="32" id="soen6441riskgame.utils.GraphChecker" style="stroke: #A80036; stroke-width: 1.5;" width="134" x="1757" y="352"/><ellipse cx="1772" cy="368" fill="#ADD1B2" rx="11" ry="11" style="stroke: #A80036; stroke-width: 1.0;"/><path d="M1774.7656,363.875 Q1774.9219,363.6563 1775.1094,363.5469 Q1775.2969,363.4375 1775.5156,363.4375 Q1775.8906,363.4375 1776.125,363.6953 Q1776.3594,363.9531 1776.3594,364.5625 L1776.3594,366.0156 Q1776.3594,366.625 1776.125,366.8906 Q1775.8906,367.1563 1775.5156,367.1563 Q1775.1719,367.1563 1774.9688,366.9531 Q1774.7656,366.7656 1774.6563,366.25 Q1774.6094,365.8906 1774.4219,365.7031 Q1774.0938,365.3281 1773.4844,365.1094 Q1772.875,364.8906 1772.25,364.8906 Q1771.4844,364.8906 1770.8516,365.2188 Q1770.2188,365.5469 1769.7266,366.2969 Q1769.2344,367.0469 1769.2344,368.0781 L1769.2344,369.1719 Q1769.2344,370.4063 1770.125,371.2266 Q1771.0156,372.0469 1772.6094,372.0469 Q1773.5469,372.0469 1774.2031,371.7969 Q1774.5938,371.6406 1775.0156,371.2031 Q1775.2813,370.9375 1775.4297,370.8594 Q1775.5781,370.7813 1775.7813,370.7813 Q1776.1094,370.7813 1776.3672,371.0391 Q1776.625,371.2969 1776.625,371.6406 Q1776.625,371.9844 1776.2813,372.3906 Q1775.7813,372.9688 1774.9844,373.2969 Q1773.9063,373.75 1772.6094,373.75 Q1771.0938,373.75 1769.8906,373.125 Q1768.9063,372.625 1768.2188,371.5547 Q1767.5313,370.4844 1767.5313,369.2031 L1767.5313,368.0469 Q1767.5313,366.7188 1768.1484,365.5703 Q1768.7656,364.4219 1769.8594,363.8047 Q1770.9531,363.1875 1772.1875,363.1875 Q1772.9219,363.1875 1773.5703,363.3516 Q1774.2188,363.5156 1774.7656,363.875 Z "/><text fill="#000000" font-family="sans-serif" font-size="14" font-weight="bold" lengthAdjust="spacingAndGlyphs" textLength="102" x="1786" y="373.7285">GraphChecker</text></a><!--class soen6441riskgame.utils.Parser--><a target="_parent" xlink:actuate="onRequest" xlink:href="../soen6441riskgame/utils/Parser.html" xlink:show="new" xlink:title="soen6441riskgame.utils.Parser" xlink:type="simple"><rect fill="#FEFECE" filter="url(#f1ivmr9ja7mjlk)" height="32" id="soen6441riskgame.utils.Parser" style="stroke: #A80036; stroke-width: 1.5;" width="78" x="1926" y="352"/><ellipse cx="1941" cy="368" fill="#ADD1B2" rx="11" ry="11" style="stroke: #A80036; stroke-width: 1.0;"/><path d="M1943.7656,363.875 Q1943.9219,363.6563 1944.1094,363.5469 Q1944.2969,363.4375 1944.5156,363.4375 Q1944.8906,363.4375 1945.125,363.6953 Q1945.3594,363.9531 1945.3594,364.5625 L1945.3594,366.0156 Q1945.3594,366.625 1945.125,366.8906 Q1944.8906,367.1563 1944.5156,367.1563 Q1944.1719,367.1563 1943.9688,366.9531 Q1943.7656,366.7656 1943.6563,366.25 Q1943.6094,365.8906 1943.4219,365.7031 Q1943.0938,365.3281 1942.4844,365.1094 Q1941.875,364.8906 1941.25,364.8906 Q1940.4844,364.8906 1939.8516,365.2188 Q1939.2188,365.5469 1938.7266,366.2969 Q1938.2344,367.0469 1938.2344,368.0781 L1938.2344,369.1719 Q1938.2344,370.4063 1939.125,371.2266 Q1940.0156,372.0469 1941.6094,372.0469 Q1942.5469,372.0469 1943.2031,371.7969 Q1943.5938,371.6406 1944.0156,371.2031 Q1944.2813,370.9375 1944.4297,370.8594 Q1944.5781,370.7813 1944.7813,370.7813 Q1945.1094,370.7813 1945.3672,371.0391 Q1945.625,371.2969 1945.625,371.6406 Q1945.625,371.9844 1945.2813,372.3906 Q1944.7813,372.9688 1943.9844,373.2969 Q1942.9063,373.75 1941.6094,373.75 Q1940.0938,373.75 1938.8906,373.125 Q1937.9063,372.625 1937.2188,371.5547 Q1936.5313,370.4844 1936.5313,369.2031 L1936.5313,368.0469 Q1936.5313,366.7188 1937.1484,365.5703 Q1937.7656,364.4219 1938.8594,363.8047 Q1939.9531,363.1875 1941.1875,363.1875 Q1941.9219,363.1875 1942.5703,363.3516 Q1943.2188,363.5156 1943.7656,363.875 Z "/><text fill="#000000" font-family="sans-serif" font-size="14" font-weight="bold" lengthAdjust="spacingAndGlyphs" textLength="46" x="1955" y="373.7285">Parser</text></a><!--class soen6441riskgame.views.ExchangeCardView--><a target="_parent" xlink:actuate="onRequest" xlink:href="../soen6441riskgame/views/ExchangeCardView.html" xlink:show="new" xlink:title="soen6441riskgame.views.ExchangeCardView" xlink:type="simple"><rect fill="#FEFECE" filter="url(#f1ivmr9ja7mjlk)" height="32" id="soen6441riskgame.views.ExchangeCardView" style="stroke: #A80036; stroke-width: 1.5;" width="167" x="2104.5" y="260"/><ellipse cx="2119.5" cy="276" fill="#ADD1B2" rx="11" ry="11" style="stroke: #A80036; stroke-width: 1.0;"/><path d="M2122.2656,271.875 Q2122.4219,271.6563 2122.6094,271.5469 Q2122.7969,271.4375 2123.0156,271.4375 Q2123.3906,271.4375 2123.625,271.6953 Q2123.8594,271.9531 2123.8594,272.5625 L2123.8594,274.0156 Q2123.8594,274.625 2123.625,274.8906 Q2123.3906,275.1563 2123.0156,275.1563 Q2122.6719,275.1563 2122.4688,274.9531 Q2122.2656,274.7656 2122.1563,274.25 Q2122.1094,273.8906 2121.9219,273.7031 Q2121.5938,273.3281 2120.9844,273.1094 Q2120.375,272.8906 2119.75,272.8906 Q2118.9844,272.8906 2118.3516,273.2188 Q2117.7188,273.5469 2117.2266,274.2969 Q2116.7344,275.0469 2116.7344,276.0781 L2116.7344,277.1719 Q2116.7344,278.4063 2117.625,279.2266 Q2118.5156,280.0469 2120.1094,280.0469 Q2121.0469,280.0469 2121.7031,279.7969 Q2122.0938,279.6406 2122.5156,279.2031 Q2122.7813,278.9375 2122.9297,278.8594 Q2123.0781,278.7813 2123.2813,278.7813 Q2123.6094,278.7813 2123.8672,279.0391 Q2124.125,279.2969 2124.125,279.6406 Q2124.125,279.9844 2123.7813,280.3906 Q2123.2813,280.9688 2122.4844,281.2969 Q2121.4063,281.75 2120.1094,281.75 Q2118.5938,281.75 2117.3906,281.125 Q2116.4063,280.625 2115.7188,279.5547 Q2115.0313,278.4844 2115.0313,277.2031 L2115.0313,276.0469 Q2115.0313,274.7188 2115.6484,273.5703 Q2116.2656,272.4219 2117.3594,271.8047 Q2118.4531,271.1875 2119.6875,271.1875 Q2120.4219,271.1875 2121.0703,271.3516 Q2121.7188,271.5156 2122.2656,271.875 Z "/><text fill="#000000" font-family="sans-serif" font-size="14" font-weight="bold" lengthAdjust="spacingAndGlyphs" textLength="135" x="2133.5" y="281.7285">ExchangeCardView</text></a><!--class soen6441riskgame.views.PhaseView--><a target="_parent" xlink:actuate="onRequest" xlink:href="../soen6441riskgame/views/PhaseView.html" xlink:show="new" xlink:title="soen6441riskgame.views.PhaseView" xlink:type="simple"><rect fill="#FEFECE" filter="url(#f1ivmr9ja7mjlk)" height="32" id="soen6441riskgame.views.PhaseView" style="stroke: #A80036; stroke-width: 1.5;" width="108" x="2307" y="260"/><ellipse cx="2322" cy="276" fill="#ADD1B2" rx="11" ry="11" style="stroke: #A80036; stroke-width: 1.0;"/><path d="M2324.7656,271.875 Q2324.9219,271.6563 2325.1094,271.5469 Q2325.2969,271.4375 2325.5156,271.4375 Q2325.8906,271.4375 2326.125,271.6953 Q2326.3594,271.9531 2326.3594,272.5625 L2326.3594,274.0156 Q2326.3594,274.625 2326.125,274.8906 Q2325.8906,275.1563 2325.5156,275.1563 Q2325.1719,275.1563 2324.9688,274.9531 Q2324.7656,274.7656 2324.6563,274.25 Q2324.6094,273.8906 2324.4219,273.7031 Q2324.0938,273.3281 2323.4844,273.1094 Q2322.875,272.8906 2322.25,272.8906 Q2321.4844,272.8906 2320.8516,273.2188 Q2320.2188,273.5469 2319.7266,274.2969 Q2319.2344,275.0469 2319.2344,276.0781 L2319.2344,277.1719 Q2319.2344,278.4063 2320.125,279.2266 Q2321.0156,280.0469 2322.6094,280.0469 Q2323.5469,280.0469 2324.2031,279.7969 Q2324.5938,279.6406 2325.0156,279.2031 Q2325.2813,278.9375 2325.4297,278.8594 Q2325.5781,278.7813 2325.7813,278.7813 Q2326.1094,278.7813 2326.3672,279.0391 Q2326.625,279.2969 2326.625,279.6406 Q2326.625,279.9844 2326.2813,280.3906 Q2325.7813,280.9688 2324.9844,281.2969 Q2323.9063,281.75 2322.6094,281.75 Q2321.0938,281.75 2319.8906,281.125 Q2318.9063,280.625 2318.2188,279.5547 Q2317.5313,278.4844 2317.5313,277.2031 L2317.5313,276.0469 Q2317.5313,274.7188 2318.1484,273.5703 Q2318.7656,272.4219 2319.8594,271.8047 Q2320.9531,271.1875 2322.1875,271.1875 Q2322.9219,271.1875 2323.5703,271.3516 Q2324.2188,271.5156 2324.7656,271.875 Z "/><text fill="#000000" font-family="sans-serif" font-size="14" font-weight="bold" lengthAdjust="spacingAndGlyphs" textLength="76" x="2336" y="281.7285">PhaseView</text></a><!--class soen6441riskgame.views.PlayersWorldDominationView--><a target="_parent" xlink:actuate="onRequest" xlink:href="../soen6441riskgame/views/PlayersWorldDominationView.html" xlink:show="new" xlink:title="soen6441riskgame.views.PlayersWorldDominationView" xlink:type="simple"><rect fill="#FEFECE" filter="url(#f1ivmr9ja7mjlk)" height="32" id="soen6441riskgame.views.PlayersWorldDominationView" style="stroke: #A80036; stroke-width: 1.5;" width="236" x="2104" y="352"/><ellipse cx="2119" cy="368" fill="#ADD1B2" rx="11" ry="11" style="stroke: #A80036; stroke-width: 1.0;"/><path d="M2121.7656,363.875 Q2121.9219,363.6563 2122.1094,363.5469 Q2122.2969,363.4375 2122.5156,363.4375 Q2122.8906,363.4375 2123.125,363.6953 Q2123.3594,363.9531 2123.3594,364.5625 L2123.3594,366.0156 Q2123.3594,366.625 2123.125,366.8906 Q2122.8906,367.1563 2122.5156,367.1563 Q2122.1719,367.1563 2121.9688,366.9531 Q2121.7656,366.7656 2121.6563,366.25 Q2121.6094,365.8906 2121.4219,365.7031 Q2121.0938,365.3281 2120.4844,365.1094 Q2119.875,364.8906 2119.25,364.8906 Q2118.4844,364.8906 2117.8516,365.2188 Q2117.2188,365.5469 2116.7266,366.2969 Q2116.2344,367.0469 2116.2344,368.0781 L2116.2344,369.1719 Q2116.2344,370.4063 2117.125,371.2266 Q2118.0156,372.0469 2119.6094,372.0469 Q2120.5469,372.0469 2121.2031,371.7969 Q2121.5938,371.6406 2122.0156,371.2031 Q2122.2813,370.9375 2122.4297,370.8594 Q2122.5781,370.7813 2122.7813,370.7813 Q2123.1094,370.7813 2123.3672,371.0391 Q2123.625,371.2969 2123.625,371.6406 Q2123.625,371.9844 2123.2813,372.3906 Q2122.7813,372.9688 2121.9844,373.2969 Q2120.9063,373.75 2119.6094,373.75 Q2118.0938,373.75 2116.8906,373.125 Q2115.9063,372.625 2115.2188,371.5547 Q2114.5313,370.4844 2114.5313,369.2031 L2114.5313,368.0469 Q2114.5313,366.7188 2115.1484,365.5703 Q2115.7656,364.4219 2116.8594,363.8047 Q2117.9531,363.1875 2119.1875,363.1875 Q2119.9219,363.1875 2120.5703,363.3516 Q2121.2188,363.5156 2121.7656,363.875 Z "/><text fill="#000000" font-family="sans-serif" font-size="14" font-weight="bold" lengthAdjust="spacingAndGlyphs" textLength="204" x="2133" y="373.7285">PlayersWorldDominationView</text></a><!--class soen6441riskgame.views.SeparatedView--><a target="_parent" xlink:actuate="onRequest" xlink:href="../soen6441riskgame/views/SeparatedView.html" xlink:show="new" xlink:title="soen6441riskgame.views.SeparatedView" xlink:type="simple"><rect fill="#FEFECE" filter="url(#f1ivmr9ja7mjlk)" height="32" id="soen6441riskgame.views.SeparatedView" style="stroke: #A80036; stroke-width: 1.5;" width="137" x="2375.5" y="352"/><ellipse cx="2390.5" cy="368" fill="#ADD1B2" rx="11" ry="11" style="stroke: #A80036; stroke-width: 1.0;"/><path d="M2393.2656,363.875 Q2393.4219,363.6563 2393.6094,363.5469 Q2393.7969,363.4375 2394.0156,363.4375 Q2394.3906,363.4375 2394.625,363.6953 Q2394.8594,363.9531 2394.8594,364.5625 L2394.8594,366.0156 Q2394.8594,366.625 2394.625,366.8906 Q2394.3906,367.1563 2394.0156,367.1563 Q2393.6719,367.1563 2393.4688,366.9531 Q2393.2656,366.7656 2393.1563,366.25 Q2393.1094,365.8906 2392.9219,365.7031 Q2392.5938,365.3281 2391.9844,365.1094 Q2391.375,364.8906 2390.75,364.8906 Q2389.9844,364.8906 2389.3516,365.2188 Q2388.7188,365.5469 2388.2266,366.2969 Q2387.7344,367.0469 2387.7344,368.0781 L2387.7344,369.1719 Q2387.7344,370.4063 2388.625,371.2266 Q2389.5156,372.0469 2391.1094,372.0469 Q2392.0469,372.0469 2392.7031,371.7969 Q2393.0938,371.6406 2393.5156,371.2031 Q2393.7813,370.9375 2393.9297,370.8594 Q2394.0781,370.7813 2394.2813,370.7813 Q2394.6094,370.7813 2394.8672,371.0391 Q2395.125,371.2969 2395.125,371.6406 Q2395.125,371.9844 2394.7813,372.3906 Q2394.2813,372.9688 2393.4844,373.2969 Q2392.4063,373.75 2391.1094,373.75 Q2389.5938,373.75 2388.3906,373.125 Q2387.4063,372.625 2386.7188,371.5547 Q2386.0313,370.4844 2386.0313,369.2031 L2386.0313,368.0469 Q2386.0313,366.7188 2386.6484,365.5703 Q2387.2656,364.4219 2388.3594,363.8047 Q2389.4531,363.1875 2390.6875,363.1875 Q2391.4219,363.1875 2392.0703,363.3516 Q2392.7188,363.5156 2393.2656,363.875 Z "/><text fill="#000000" font-family="sans-serif" font-size="14" font-weight="bold" lengthAdjust="spacingAndGlyphs" textLength="105" x="2404.5" y="373.7285">SeparatedView</text></a><!--link soen6441riskgame.controllers.GameController to soen6441riskgame.controllers.MapController--><!--link soen6441riskgame.controllers.GameController to soen6441riskgame.controllers.SaveLoadController--><!--link soen6441riskgame.controllers.SaveLoadController to soen6441riskgame.controllers.TournamentController--><!--link soen6441riskgame.enums.CardType to soen6441riskgame.enums.ChangedProperty--><!--link soen6441riskgame.enums.ChangedProperty to soen6441riskgame.enums.CommonCommandArgs--><!--link soen6441riskgame.enums.CardType to soen6441riskgame.enums.GamePhase--><!--link soen6441riskgame.enums.GamePhase to soen6441riskgame.enums.MapPart--><!--link soen6441riskgame.enums.MapPart to soen6441riskgame.enums.StrategyName--><!--link soen6441riskgame.models.Boundary to soen6441riskgame.models.Card--><!--link soen6441riskgame.models.Card to soen6441riskgame.models.CardSet--><!--link soen6441riskgame.models.CardSet to soen6441riskgame.models.Continent--><!--link soen6441riskgame.models.Boundary to soen6441riskgame.models.Coordinate--><!--link soen6441riskgame.models.Coordinate to soen6441riskgame.models.Country--><!--link soen6441riskgame.models.Country to soen6441riskgame.models.ModelCommands--><!--link soen6441riskgame.models.ModelCommands to soen6441riskgame.models.ModelCommandsPair--><!--link soen6441riskgame.models.Coordinate to soen6441riskgame.models.Player--><!--link soen6441riskgame.models.Player to soen6441riskgame.models.Viewable--><!--link soen6441riskgame.singleton.GameBoard to soen6441riskgame.singleton.GameBoardMap--><!--link soen6441riskgame.singleton.GameBoardMap to soen6441riskgame.singleton.GameBoardPlayer--><!--link soen6441riskgame.singleton.GameBoard to soen6441riskgame.singleton.GameBoardPlaying--><!--link soen6441riskgame.singleton.GameBoardPlaying to soen6441riskgame.singleton.Resettable--><!--link soen6441riskgame.utils.ConsolePrinter to soen6441riskgame.utils.GameHelper--><!--link soen6441riskgame.utils.ConsolePrinter to soen6441riskgame.utils.GraphChecker--><!--link soen6441riskgame.utils.GraphChecker to soen6441riskgame.utils.Parser--><!--link soen6441riskgame.views.ExchangeCardView to soen6441riskgame.views.PhaseView--><!--link soen6441riskgame.views.ExchangeCardView to soen6441riskgame.views.PlayersWorldDominationView--><!--link soen6441riskgame.views.PlayersWorldDominationView to soen6441riskgame.views.SeparatedView--><!--link soen6441riskgame.controllers.MapController to soen6441riskgame.enums.CardType--><!--link soen6441riskgame.enums.CommonCommandArgs to soen6441riskgame.models.Boundary--><!--link soen6441riskgame.controllers.SaveLoadController to soen6441riskgame.singleton.GameBoard--><!--link soen6441riskgame.singleton.GameBoardPlayer to soen6441riskgame.utils.ConsolePrinter--><!--link soen6441riskgame.utils.GameHelper to soen6441riskgame.views.ExchangeCardView--><!--
@startuml

skinparam svgLinkTarget _parent
skinparam linetype ortho
package soen6441riskgame [[../soen6441riskgame/package-summary.html{soen6441riskgame}]] #lightyellow {
}

class "<b><size:14>App</b>" as soen6441riskgame.App  [[../soen6441riskgame/App.html{soen6441riskgame.App}]] {
}

hide soen6441riskgame.App fields
hide soen6441riskgame.App methods

package soen6441riskgame.controllers [[../soen6441riskgame/controllers/package-summary.html{soen6441riskgame.controllers}]] {
}

class "<b><size:14>GameController</b>" as soen6441riskgame.controllers.GameController  [[../soen6441riskgame/controllers/GameController.html{soen6441riskgame.controllers.GameController}]] {
}

hide soen6441riskgame.controllers.GameController fields
hide soen6441riskgame.controllers.GameController methods

class "<b><size:14>MapController</b>" as soen6441riskgame.controllers.MapController  [[../soen6441riskgame/controllers/MapController.html{soen6441riskgame.controllers.MapController}]] {
}

hide soen6441riskgame.controllers.MapController fields
hide soen6441riskgame.controllers.MapController methods

class "<b><size:14>SaveLoadController</b>" as soen6441riskgame.controllers.SaveLoadController  [[../soen6441riskgame/controllers/SaveLoadController.html{soen6441riskgame.controllers.SaveLoadController}]] {
}

hide soen6441riskgame.controllers.SaveLoadController fields
hide soen6441riskgame.controllers.SaveLoadController methods

class "<b><size:14>TournamentController</b>" as soen6441riskgame.controllers.TournamentController  [[../soen6441riskgame/controllers/TournamentController.html{soen6441riskgame.controllers.TournamentController}]] {
}

hide soen6441riskgame.controllers.TournamentController fields
hide soen6441riskgame.controllers.TournamentController methods

package soen6441riskgame.enums [[../soen6441riskgame/enums/package-summary.html{soen6441riskgame.enums}]] {
}

enum "<b><size:14>CardType</b>" as soen6441riskgame.enums.CardType  [[../soen6441riskgame/enums/CardType.html{soen6441riskgame.enums.CardType}]] {
}

hide soen6441riskgame.enums.CardType fields
hide soen6441riskgame.enums.CardType methods

enum "<b><size:14>ChangedProperty</b>" as soen6441riskgame.enums.ChangedProperty  [[../soen6441riskgame/enums/ChangedProperty.html{soen6441riskgame.enums.ChangedProperty}]] {
}

hide soen6441riskgame.enums.ChangedProperty fields
hide soen6441riskgame.enums.ChangedProperty methods

enum "<b><size:14>CommonCommandArgs</b>" as soen6441riskgame.enums.CommonCommandArgs  [[../soen6441riskgame/enums/CommonCommandArgs.html{soen6441riskgame.enums.CommonCommandArgs}]] {
}

hide soen6441riskgame.enums.CommonCommandArgs fields
hide soen6441riskgame.enums.CommonCommandArgs methods

enum "<b><size:14>GamePhase</b>" as soen6441riskgame.enums.GamePhase  [[../soen6441riskgame/enums/GamePhase.html{soen6441riskgame.enums.GamePhase}]] {
}

hide soen6441riskgame.enums.GamePhase fields
hide soen6441riskgame.enums.GamePhase methods

enum "<b><size:14>MapPart</b>" as soen6441riskgame.enums.MapPart  [[../soen6441riskgame/enums/MapPart.html{soen6441riskgame.enums.MapPart}]] {
}

hide soen6441riskgame.enums.MapPart fields
hide soen6441riskgame.enums.MapPart methods

enum "<b><size:14>StrategyName</b>" as soen6441riskgame.enums.StrategyName  [[../soen6441riskgame/enums/StrategyName.html{soen6441riskgame.enums.StrategyName}]] {
}

hide soen6441riskgame.enums.StrategyName fields
hide soen6441riskgame.enums.StrategyName methods

package soen6441riskgame.models [[../soen6441riskgame/models/package-summary.html{soen6441riskgame.models}]] {
}

class "<b><size:14>Boundary</b>" as soen6441riskgame.models.Boundary  [[../soen6441riskgame/models/Boundary.html{soen6441riskgame.models.Boundary}]] {
}

hide soen6441riskgame.models.Boundary fields
hide soen6441riskgame.models.Boundary methods

class "<b><size:14>Card</b>" as soen6441riskgame.models.Card  [[../soen6441riskgame/models/Card.html{soen6441riskgame.models.Card}]] {
}

hide soen6441riskgame.models.Card fields
hide soen6441riskgame.models.Card methods

class "<b><size:14>CardSet</b>" as soen6441riskgame.models.CardSet  [[../soen6441riskgame/models/CardSet.html{soen6441riskgame.models.CardSet}]] {
}

hide soen6441riskgame.models.CardSet fields
hide soen6441riskgame.models.CardSet methods

class "<b><size:14>Continent</b>" as soen6441riskgame.models.Continent  [[../soen6441riskgame/models/Continent.html{soen6441riskgame.models.Continent}]] {
}

hide soen6441riskgame.models.Continent fields
hide soen6441riskgame.models.Continent methods

class "<b><size:14>Coordinate</b>" as soen6441riskgame.models.Coordinate  [[../soen6441riskgame/models/Coordinate.html{soen6441riskgame.models.Coordinate}]] {
}

hide soen6441riskgame.models.Coordinate fields
hide soen6441riskgame.models.Coordinate methods

class "<b><size:14>Country</b>" as soen6441riskgame.models.Country  [[../soen6441riskgame/models/Country.html{soen6441riskgame.models.Country}]] {
}

hide soen6441riskgame.models.Country fields
hide soen6441riskgame.models.Country methods

class "<b><size:14>ModelCommands</b>" as soen6441riskgame.models.ModelCommands  [[../soen6441riskgame/models/ModelCommands.html{soen6441riskgame.models.ModelCommands}]] {
}

hide soen6441riskgame.models.ModelCommands fields
hide soen6441riskgame.models.ModelCommands methods

class "<b><size:14>ModelCommandsPair</b>" as soen6441riskgame.models.ModelCommandsPair  [[../soen6441riskgame/models/ModelCommandsPair.html{soen6441riskgame.models.ModelCommandsPair}]] {
}

hide soen6441riskgame.models.ModelCommandsPair fields
hide soen6441riskgame.models.ModelCommandsPair methods

class "<b><size:14>Player</b>" as soen6441riskgame.models.Player  [[../soen6441riskgame/models/Player.html{soen6441riskgame.models.Player}]] {
}

hide soen6441riskgame.models.Player fields
hide soen6441riskgame.models.Player methods

interface "<b><size:14>Viewable</b>" as soen6441riskgame.models.Viewable  [[../soen6441riskgame/models/Viewable.html{soen6441riskgame.models.Viewable}]] {
}

hide soen6441riskgame.models.Viewable fields
hide soen6441riskgame.models.Viewable methods

package soen6441riskgame.singleton [[../soen6441riskgame/singleton/package-summary.html{soen6441riskgame.singleton}]] {
}

class "<b><size:14>GameBoard</b>" as soen6441riskgame.singleton.GameBoard  [[../soen6441riskgame/singleton/GameBoard.html{soen6441riskgame.singleton.GameBoard}]] {
}

hide soen6441riskgame.singleton.GameBoard fields
hide soen6441riskgame.singleton.GameBoard methods

class "<b><size:14>GameBoardMap</b>" as soen6441riskgame.singleton.GameBoardMap  [[../soen6441riskgame/singleton/GameBoardMap.html{soen6441riskgame.singleton.GameBoardMap}]] {
}

hide soen6441riskgame.singleton.GameBoardMap fields
hide soen6441riskgame.singleton.GameBoardMap methods

class "<b><size:14>GameBoardPlayer</b>" as soen6441riskgame.singleton.GameBoardPlayer  [[../soen6441riskgame/singleton/GameBoardPlayer.html{soen6441riskgame.singleton.GameBoardPlayer}]] {
}

hide soen6441riskgame.singleton.GameBoardPlayer fields
hide soen6441riskgame.singleton.GameBoardPlayer methods

class "<b><size:14>GameBoardPlaying</b>" as soen6441riskgame.singleton.GameBoardPlaying  [[../soen6441riskgame/singleton/GameBoardPlaying.html{soen6441riskgame.singleton.GameBoardPlaying}]] {
}

hide soen6441riskgame.singleton.GameBoardPlaying fields
hide soen6441riskgame.singleton.GameBoardPlaying methods

interface "<b><size:14>Resettable</b>" as soen6441riskgame.singleton.Resettable  [[../soen6441riskgame/singleton/Resettable.html{soen6441riskgame.singleton.Resettable}]] {
}

hide soen6441riskgame.singleton.Resettable fields
hide soen6441riskgame.singleton.Resettable methods

package soen6441riskgame.utils [[../soen6441riskgame/utils/package-summary.html{soen6441riskgame.utils}]] {
}

class "<b><size:14>ConsolePrinter</b>" as soen6441riskgame.utils.ConsolePrinter  [[../soen6441riskgame/utils/ConsolePrinter.html{soen6441riskgame.utils.ConsolePrinter}]] {
}

hide soen6441riskgame.utils.ConsolePrinter fields
hide soen6441riskgame.utils.ConsolePrinter methods

class "<b><size:14>GameHelper</b>" as soen6441riskgame.utils.GameHelper  [[../soen6441riskgame/utils/GameHelper.html{soen6441riskgame.utils.GameHelper}]] {
}

hide soen6441riskgame.utils.GameHelper fields
hide soen6441riskgame.utils.GameHelper methods

class "<b><size:14>GraphChecker</b>" as soen6441riskgame.utils.GraphChecker  [[../soen6441riskgame/utils/GraphChecker.html{soen6441riskgame.utils.GraphChecker}]] {
}

hide soen6441riskgame.utils.GraphChecker fields
hide soen6441riskgame.utils.GraphChecker methods

class "<b><size:14>Parser</b>" as soen6441riskgame.utils.Parser  [[../soen6441riskgame/utils/Parser.html{soen6441riskgame.utils.Parser}]] {
}

hide soen6441riskgame.utils.Parser fields
hide soen6441riskgame.utils.Parser methods

package soen6441riskgame.views [[../soen6441riskgame/views/package-summary.html{soen6441riskgame.views}]] {
}

class "<b><size:14>ExchangeCardView</b>" as soen6441riskgame.views.ExchangeCardView  [[../soen6441riskgame/views/ExchangeCardView.html{soen6441riskgame.views.ExchangeCardView}]] {
}

hide soen6441riskgame.views.ExchangeCardView fields
hide soen6441riskgame.views.ExchangeCardView methods

class "<b><size:14>PhaseView</b>" as soen6441riskgame.views.PhaseView  [[../soen6441riskgame/views/PhaseView.html{soen6441riskgame.views.PhaseView}]] {
}

hide soen6441riskgame.views.PhaseView fields
hide soen6441riskgame.views.PhaseView methods

class "<b><size:14>PlayersWorldDominationView</b>" as soen6441riskgame.views.PlayersWorldDominationView  [[../soen6441riskgame/views/PlayersWorldDominationView.html{soen6441riskgame.views.PlayersWorldDominationView}]] {
}

hide soen6441riskgame.views.PlayersWorldDominationView fields
hide soen6441riskgame.views.PlayersWorldDominationView methods

class "<b><size:14>SeparatedView</b>" as soen6441riskgame.views.SeparatedView  [[../soen6441riskgame/views/SeparatedView.html{soen6441riskgame.views.SeparatedView}]] {
}

hide soen6441riskgame.views.SeparatedView fields
hide soen6441riskgame.views.SeparatedView methods


@enduml

PlantUML version 1.2017.15(Mon Jul 03 12:45:34 EDT 2017)
(GPL source distribution)
Java Runtime: Java(TM) SE Runtime Environment
JVM: Java HotSpot(TM) 64-Bit Server VM
Java Version: 1.8.0_231-b11
Operating System: Windows 10
OS Version: 10.0
Default Encoding: Cp1252
Language: en
Country: US
--></g></svg>